<?xml version="1.0" encoding="utf-8" standalone="no"?>
<!DOCTYPE svg PUBLIC "-//W3C//DTD SVG 1.1//EN"
  "http://www.w3.org/Graphics/SVG/1.1/DTD/svg11.dtd">
<svg xmlns:xlink="http://www.w3.org/1999/xlink" width="1080pt" height="432pt" viewBox="0 0 1080 432" xmlns="http://www.w3.org/2000/svg" version="1.1">
 <metadata>
  <rdf:RDF xmlns:dc="http://purl.org/dc/elements/1.1/" xmlns:cc="http://creativecommons.org/ns#" xmlns:rdf="http://www.w3.org/1999/02/22-rdf-syntax-ns#">
   <cc:Work>
    <dc:type rdf:resource="http://purl.org/dc/dcmitype/StillImage"/>
    <dc:date>2025-02-24T13:44:33.530725</dc:date>
    <dc:format>image/svg+xml</dc:format>
    <dc:creator>
     <cc:Agent>
      <dc:title>Matplotlib v3.10.0, https://matplotlib.org/</dc:title>
     </cc:Agent>
    </dc:creator>
   </cc:Work>
  </rdf:RDF>
 </metadata>
 <defs>
  <style type="text/css">*{stroke-linejoin: round; stroke-linecap: butt}</style>
 </defs>
 <g id="figure_1">
  <g id="patch_1">
   <path d="M 0 432 
L 1080 432 
L 1080 0 
L 0 0 
L 0 432 
z
" style="fill: none"/>
  </g>
  <g id="axes_1">
   <g id="patch_2">
    <path d="M 54.25 185.68 
L 550.8125 185.68 
L 550.8125 26.88 
L 54.25 26.88 
L 54.25 185.68 
z
" style="fill: none"/>
   </g>
   <g id="patch_3">
    <path d="M 54.250073 185.68 
L 67.292304 185.68 
L 67.292304 34.441905 
L 54.250073 34.441905 
z
" clip-path="url(#pb8c667073e)" style="fill: #1f77b4"/>
   </g>
   <g id="patch_4">
    <path d="M 67.292304 185.68 
L 80.334534 185.68 
L 80.334534 68.130566 
L 67.292304 68.130566 
z
" clip-path="url(#pb8c667073e)" style="fill: #1f77b4"/>
   </g>
   <g id="patch_5">
    <path d="M 80.334534 185.68 
L 93.376764 185.68 
L 93.376764 92.751777 
L 80.334534 92.751777 
z
" clip-path="url(#pb8c667073e)" style="fill: #1f77b4"/>
   </g>
   <g id="patch_6">
    <path d="M 93.376764 185.68 
L 106.418994 185.68 
L 106.418994 112.191588 
L 93.376764 112.191588 
z
" clip-path="url(#pb8c667073e)" style="fill: #1f77b4"/>
   </g>
   <g id="patch_7">
    <path d="M 106.418994 185.68 
L 119.461224 185.68 
L 119.461224 128.789755 
L 106.418994 128.789755 
z
" clip-path="url(#pb8c667073e)" style="fill: #1f77b4"/>
   </g>
   <g id="patch_8">
    <path d="M 119.461224 185.68 
L 132.503454 185.68 
L 132.503454 140.930674 
L 119.461224 140.930674 
z
" clip-path="url(#pb8c667073e)" style="fill: #1f77b4"/>
   </g>
   <g id="patch_9">
    <path d="M 132.503454 185.68 
L 145.545685 185.68 
L 145.545685 149.809319 
L 132.503454 149.809319 
z
" clip-path="url(#pb8c667073e)" style="fill: #1f77b4"/>
   </g>
   <g id="patch_10">
    <path d="M 145.545685 185.68 
L 158.587915 185.68 
L 158.587915 157.97576 
L 145.545685 157.97576 
z
" clip-path="url(#pb8c667073e)" style="fill: #1f77b4"/>
   </g>
   <g id="patch_11">
    <path d="M 158.587915 185.68 
L 171.630145 185.68 
L 171.630145 163.783326 
L 158.587915 163.783326 
z
" clip-path="url(#pb8c667073e)" style="fill: #1f77b4"/>
   </g>
   <g id="patch_12">
    <path d="M 171.630145 185.68 
L 184.672375 185.68 
L 184.672375 168.187994 
L 171.630145 168.187994 
z
" clip-path="url(#pb8c667073e)" style="fill: #1f77b4"/>
   </g>
   <g id="patch_13">
    <path d="M 184.672375 185.68 
L 197.714605 185.68 
L 197.714605 172.033415 
L 184.672375 172.033415 
z
" clip-path="url(#pb8c667073e)" style="fill: #1f77b4"/>
   </g>
   <g id="patch_14">
    <path d="M 197.714605 185.68 
L 210.756835 185.68 
L 210.756835 174.889399 
L 197.714605 174.889399 
z
" clip-path="url(#pb8c667073e)" style="fill: #1f77b4"/>
   </g>
   <g id="patch_15">
    <path d="M 210.756835 185.68 
L 223.799065 185.68 
L 223.799065 177.317583 
L 210.756835 177.317583 
z
" clip-path="url(#pb8c667073e)" style="fill: #1f77b4"/>
   </g>
   <g id="patch_16">
    <path d="M 223.799065 185.68 
L 236.841296 185.68 
L 236.841296 178.949916 
L 223.799065 178.949916 
z
" clip-path="url(#pb8c667073e)" style="fill: #1f77b4"/>
   </g>
   <g id="patch_17">
    <path d="M 236.841296 185.68 
L 249.883526 185.68 
L 249.883526 180.164007 
L 236.841296 180.164007 
z
" clip-path="url(#pb8c667073e)" style="fill: #1f77b4"/>
   </g>
   <g id="patch_18">
    <path d="M 249.883526 185.68 
L 262.925756 185.68 
L 262.925756 181.569295 
L 249.883526 181.569295 
z
" clip-path="url(#pb8c667073e)" style="fill: #1f77b4"/>
   </g>
   <g id="patch_19">
    <path d="M 262.925756 185.68 
L 275.967986 185.68 
L 275.967986 182.479864 
L 262.925756 182.479864 
z
" clip-path="url(#pb8c667073e)" style="fill: #1f77b4"/>
   </g>
   <g id="patch_20">
    <path d="M 275.967986 185.68 
L 289.010216 185.68 
L 289.010216 183.153828 
L 275.967986 183.153828 
z
" clip-path="url(#pb8c667073e)" style="fill: #1f77b4"/>
   </g>
   <g id="patch_21">
    <path d="M 289.010216 185.68 
L 302.052446 185.68 
L 302.052446 183.557729 
L 289.010216 183.557729 
z
" clip-path="url(#pb8c667073e)" style="fill: #1f77b4"/>
   </g>
   <g id="patch_22">
    <path d="M 302.052446 185.68 
L 315.094677 185.68 
L 315.094677 184.107416 
L 302.052446 184.107416 
z
" clip-path="url(#pb8c667073e)" style="fill: #1f77b4"/>
   </g>
   <g id="patch_23">
    <path d="M 315.094677 185.68 
L 328.136907 185.68 
L 328.136907 184.458738 
L 315.094677 184.458738 
z
" clip-path="url(#pb8c667073e)" style="fill: #1f77b4"/>
   </g>
   <g id="patch_24">
    <path d="M 328.136907 185.68 
L 341.179137 185.68 
L 341.179137 184.685783 
L 328.136907 184.685783 
z
" clip-path="url(#pb8c667073e)" style="fill: #1f77b4"/>
   </g>
   <g id="patch_25">
    <path d="M 341.179137 185.68 
L 354.221367 185.68 
L 354.221367 184.874589 
L 341.179137 184.874589 
z
" clip-path="url(#pb8c667073e)" style="fill: #1f77b4"/>
   </g>
   <g id="patch_26">
    <path d="M 354.221367 185.68 
L 367.263597 185.68 
L 367.263597 185.101633 
L 354.221367 185.101633 
z
" clip-path="url(#pb8c667073e)" style="fill: #1f77b4"/>
   </g>
   <g id="patch_27">
    <path d="M 367.263597 185.68 
L 380.305827 185.68 
L 380.305827 185.22591 
L 367.263597 185.22591 
z
" clip-path="url(#pb8c667073e)" style="fill: #1f77b4"/>
   </g>
   <g id="patch_28">
    <path d="M 380.305827 185.68 
L 393.348058 185.68 
L 393.348058 185.314338 
L 380.305827 185.314338 
z
" clip-path="url(#pb8c667073e)" style="fill: #1f77b4"/>
   </g>
   <g id="patch_29">
    <path d="M 393.348058 185.68 
L 406.390288 185.68 
L 406.390288 185.417106 
L 393.348058 185.417106 
z
" clip-path="url(#pb8c667073e)" style="fill: #1f77b4"/>
   </g>
   <g id="patch_30">
    <path d="M 406.390288 185.68 
L 419.432518 185.68 
L 419.432518 185.433836 
L 406.390288 185.433836 
z
" clip-path="url(#pb8c667073e)" style="fill: #1f77b4"/>
   </g>
   <g id="patch_31">
    <path d="M 419.432518 185.68 
L 432.474748 185.68 
L 432.474748 185.498364 
L 419.432518 185.498364 
z
" clip-path="url(#pb8c667073e)" style="fill: #1f77b4"/>
   </g>
   <g id="patch_32">
    <path d="M 432.474748 185.68 
L 445.516978 185.68 
L 445.516978 185.550943 
L 432.474748 185.550943 
z
" clip-path="url(#pb8c667073e)" style="fill: #1f77b4"/>
   </g>
   <g id="patch_33">
    <path d="M 445.516978 185.68 
L 458.559208 185.68 
L 458.559208 185.577232 
L 445.516978 185.577232 
z
" clip-path="url(#pb8c667073e)" style="fill: #1f77b4"/>
   </g>
   <g id="patch_34">
    <path d="M 458.559208 185.68 
L 471.601439 185.68 
L 471.601439 185.601132 
L 458.559208 185.601132 
z
" clip-path="url(#pb8c667073e)" style="fill: #1f77b4"/>
   </g>
   <g id="patch_35">
    <path d="M 471.601439 185.68 
L 484.643669 185.68 
L 484.643669 185.622641 
L 471.601439 185.622641 
z
" clip-path="url(#pb8c667073e)" style="fill: #1f77b4"/>
   </g>
   <g id="patch_36">
    <path d="M 484.643669 185.68 
L 497.685899 185.68 
L 497.685899 185.625031 
L 484.643669 185.625031 
z
" clip-path="url(#pb8c667073e)" style="fill: #1f77b4"/>
   </g>
   <g id="patch_37">
    <path d="M 497.685899 185.68 
L 510.728129 185.68 
L 510.728129 185.646541 
L 497.685899 185.646541 
z
" clip-path="url(#pb8c667073e)" style="fill: #1f77b4"/>
   </g>
   <g id="patch_38">
    <path d="M 510.728129 185.68 
L 523.770359 185.68 
L 523.770359 185.651321 
L 510.728129 185.651321 
z
" clip-path="url(#pb8c667073e)" style="fill: #1f77b4"/>
   </g>
   <g id="patch_39">
    <path d="M 523.770359 185.68 
L 536.812589 185.68 
L 536.812589 185.651321 
L 523.770359 185.651321 
z
" clip-path="url(#pb8c667073e)" style="fill: #1f77b4"/>
   </g>
   <g id="patch_40">
    <path d="M 536.812589 185.68 
L 549.854819 185.68 
L 549.854819 185.66327 
L 536.812589 185.66327 
z
" clip-path="url(#pb8c667073e)" style="fill: #1f77b4"/>
   </g>
   <g id="patch_41">
    <path d="M 549.854819 185.68 
L 562.89705 185.68 
L 562.89705 185.656101 
L 549.854819 185.656101 
z
" clip-path="url(#pb8c667073e)" style="fill: #1f77b4"/>
   </g>
   <g id="patch_42">
    <path d="M 562.89705 185.68 
L 575.93928 185.68 
L 575.93928 185.66566 
L 562.89705 185.66566 
z
" clip-path="url(#pb8c667073e)" style="fill: #1f77b4"/>
   </g>
   <g id="patch_43">
    <path d="M 575.93928 185.68 
L 588.98151 185.68 
L 588.98151 185.66088 
L 575.93928 185.66088 
z
" clip-path="url(#pb8c667073e)" style="fill: #1f77b4"/>
   </g>
   <g id="patch_44">
    <path d="M 588.98151 185.68 
L 602.02374 185.68 
L 602.02374 185.68 
L 588.98151 185.68 
z
" clip-path="url(#pb8c667073e)" style="fill: #1f77b4"/>
   </g>
   <g id="patch_45">
    <path d="M 602.02374 185.68 
L 615.06597 185.68 
L 615.06597 185.67283 
L 602.02374 185.67283 
z
" clip-path="url(#pb8c667073e)" style="fill: #1f77b4"/>
   </g>
   <g id="patch_46">
    <path d="M 615.06597 185.68 
L 628.1082 185.68 
L 628.1082 185.67283 
L 615.06597 185.67283 
z
" clip-path="url(#pb8c667073e)" style="fill: #1f77b4"/>
   </g>
   <g id="patch_47">
    <path d="M 628.1082 185.68 
L 641.150431 185.68 
L 641.150431 185.67761 
L 628.1082 185.67761 
z
" clip-path="url(#pb8c667073e)" style="fill: #1f77b4"/>
   </g>
   <g id="patch_48">
    <path d="M 641.150431 185.68 
L 654.192661 185.68 
L 654.192661 185.67044 
L 641.150431 185.67044 
z
" clip-path="url(#pb8c667073e)" style="fill: #1f77b4"/>
   </g>
   <g id="patch_49">
    <path d="M 654.192661 185.68 
L 667.234891 185.68 
L 667.234891 185.67761 
L 654.192661 185.67761 
z
" clip-path="url(#pb8c667073e)" style="fill: #1f77b4"/>
   </g>
   <g id="patch_50">
    <path d="M 667.234891 185.68 
L 680.277121 185.68 
L 680.277121 185.68 
L 667.234891 185.68 
z
" clip-path="url(#pb8c667073e)" style="fill: #1f77b4"/>
   </g>
   <g id="patch_51">
    <path d="M 680.277121 185.68 
L 693.319351 185.68 
L 693.319351 185.67761 
L 680.277121 185.67761 
z
" clip-path="url(#pb8c667073e)" style="fill: #1f77b4"/>
   </g>
   <g id="patch_52">
    <path d="M 693.319351 185.68 
L 706.361581 185.68 
L 706.361581 185.67761 
L 693.319351 185.67761 
z
" clip-path="url(#pb8c667073e)" style="fill: #1f77b4"/>
   </g>
   <g id="matplotlib.axis_1">
    <g id="xtick_1">
     <g id="line2d_1">
      <defs>
       <path id="ma42e9884bf" d="M 0 0 
L 0 3.5 
" style="stroke: #000000; stroke-width: 0.8"/>
      </defs>
      <g>
       <use xlink:href="#ma42e9884bf" x="54.25" y="185.68" style="stroke: #000000; stroke-width: 0.8"/>
      </g>
     </g>
    </g>
    <g id="xtick_2">
     <g id="line2d_2">
      <g>
       <use xlink:href="#ma42e9884bf" x="120.458333" y="185.68" style="stroke: #000000; stroke-width: 0.8"/>
      </g>
     </g>
    </g>
    <g id="xtick_3">
     <g id="line2d_3">
      <g>
       <use xlink:href="#ma42e9884bf" x="186.666667" y="185.68" style="stroke: #000000; stroke-width: 0.8"/>
      </g>
     </g>
    </g>
    <g id="xtick_4">
     <g id="line2d_4">
      <g>
       <use xlink:href="#ma42e9884bf" x="252.875" y="185.68" style="stroke: #000000; stroke-width: 0.8"/>
      </g>
     </g>
    </g>
    <g id="xtick_5">
     <g id="line2d_5">
      <g>
       <use xlink:href="#ma42e9884bf" x="319.083333" y="185.68" style="stroke: #000000; stroke-width: 0.8"/>
      </g>
     </g>
    </g>
    <g id="xtick_6">
     <g id="line2d_6">
      <g>
       <use xlink:href="#ma42e9884bf" x="385.291667" y="185.68" style="stroke: #000000; stroke-width: 0.8"/>
      </g>
     </g>
    </g>
    <g id="xtick_7">
     <g id="line2d_7">
      <g>
       <use xlink:href="#ma42e9884bf" x="451.5" y="185.68" style="stroke: #000000; stroke-width: 0.8"/>
      </g>
     </g>
    </g>
    <g id="xtick_8">
     <g id="line2d_8">
      <g>
       <use xlink:href="#ma42e9884bf" x="517.708333" y="185.68" style="stroke: #000000; stroke-width: 0.8"/>
      </g>
     </g>
    </g>
   </g>
   <g id="matplotlib.axis_2">
    <g id="ytick_1">
     <g id="line2d_9">
      <defs>
       <path id="m08468320e6" d="M 0 0 
L -3.5 0 
" style="stroke: #000000; stroke-width: 0.8"/>
      </defs>
      <g>
       <use xlink:href="#m08468320e6" x="54.25" y="185.68" style="stroke: #000000; stroke-width: 0.8"/>
      </g>
     </g>
     <g id="text_1">
      <!-- 0 -->
      <g transform="translate(40.8875 189.479219) scale(0.1 -0.1)">
       <defs>
        <path id="DejaVuSans-30" d="M 2034 4250 
Q 1547 4250 1301 3770 
Q 1056 3291 1056 2328 
Q 1056 1369 1301 889 
Q 1547 409 2034 409 
Q 2525 409 2770 889 
Q 3016 1369 3016 2328 
Q 3016 3291 2770 3770 
Q 2525 4250 2034 4250 
z
M 2034 4750 
Q 2819 4750 3233 4129 
Q 3647 3509 3647 2328 
Q 3647 1150 3233 529 
Q 2819 -91 2034 -91 
Q 1250 -91 836 529 
Q 422 1150 422 2328 
Q 422 3509 836 4129 
Q 1250 4750 2034 4750 
z
" transform="scale(0.015625)"/>
       </defs>
       <use xlink:href="#DejaVuSans-30"/>
      </g>
     </g>
    </g>
    <g id="ytick_2">
     <g id="line2d_10">
      <g>
       <use xlink:href="#m08468320e6" x="54.25" y="157.939557" style="stroke: #000000; stroke-width: 0.8"/>
      </g>
     </g>
     <g id="text_2">
      <!-- 10 -->
      <g transform="translate(34.525 161.738776) scale(0.1 -0.1)">
       <defs>
        <path id="DejaVuSans-31" d="M 794 531 
L 1825 531 
L 1825 4091 
L 703 3866 
L 703 4441 
L 1819 4666 
L 2450 4666 
L 2450 531 
L 3481 531 
L 3481 0 
L 794 0 
L 794 531 
z
" transform="scale(0.015625)"/>
       </defs>
       <use xlink:href="#DejaVuSans-31"/>
       <use xlink:href="#DejaVuSans-30" transform="translate(63.623047 0)"/>
      </g>
     </g>
    </g>
    <g id="ytick_3">
     <g id="line2d_11">
      <g>
       <use xlink:href="#m08468320e6" x="54.25" y="130.199114" style="stroke: #000000; stroke-width: 0.8"/>
      </g>
     </g>
     <g id="text_3">
      <!-- 20 -->
      <g transform="translate(34.525 133.998332) scale(0.1 -0.1)">
       <defs>
        <path id="DejaVuSans-32" d="M 1228 531 
L 3431 531 
L 3431 0 
L 469 0 
L 469 531 
Q 828 903 1448 1529 
Q 2069 2156 2228 2338 
Q 2531 2678 2651 2914 
Q 2772 3150 2772 3378 
Q 2772 3750 2511 3984 
Q 2250 4219 1831 4219 
Q 1534 4219 1204 4116 
Q 875 4013 500 3803 
L 500 4441 
Q 881 4594 1212 4672 
Q 1544 4750 1819 4750 
Q 2544 4750 2975 4387 
Q 3406 4025 3406 3419 
Q 3406 3131 3298 2873 
Q 3191 2616 2906 2266 
Q 2828 2175 2409 1742 
Q 1991 1309 1228 531 
z
" transform="scale(0.015625)"/>
       </defs>
       <use xlink:href="#DejaVuSans-32"/>
       <use xlink:href="#DejaVuSans-30" transform="translate(63.623047 0)"/>
      </g>
     </g>
    </g>
    <g id="ytick_4">
     <g id="line2d_12">
      <g>
       <use xlink:href="#m08468320e6" x="54.25" y="102.458671" style="stroke: #000000; stroke-width: 0.8"/>
      </g>
     </g>
     <g id="text_4">
      <!-- 30 -->
      <g transform="translate(34.525 106.257889) scale(0.1 -0.1)">
       <defs>
        <path id="DejaVuSans-33" d="M 2597 2516 
Q 3050 2419 3304 2112 
Q 3559 1806 3559 1356 
Q 3559 666 3084 287 
Q 2609 -91 1734 -91 
Q 1441 -91 1130 -33 
Q 819 25 488 141 
L 488 750 
Q 750 597 1062 519 
Q 1375 441 1716 441 
Q 2309 441 2620 675 
Q 2931 909 2931 1356 
Q 2931 1769 2642 2001 
Q 2353 2234 1838 2234 
L 1294 2234 
L 1294 2753 
L 1863 2753 
Q 2328 2753 2575 2939 
Q 2822 3125 2822 3475 
Q 2822 3834 2567 4026 
Q 2313 4219 1838 4219 
Q 1578 4219 1281 4162 
Q 984 4106 628 3988 
L 628 4550 
Q 988 4650 1302 4700 
Q 1616 4750 1894 4750 
Q 2613 4750 3031 4423 
Q 3450 4097 3450 3541 
Q 3450 3153 3228 2886 
Q 3006 2619 2597 2516 
z
" transform="scale(0.015625)"/>
       </defs>
       <use xlink:href="#DejaVuSans-33"/>
       <use xlink:href="#DejaVuSans-30" transform="translate(63.623047 0)"/>
      </g>
     </g>
    </g>
    <g id="ytick_5">
     <g id="line2d_13">
      <g>
       <use xlink:href="#m08468320e6" x="54.25" y="74.718227" style="stroke: #000000; stroke-width: 0.8"/>
      </g>
     </g>
     <g id="text_5">
      <!-- 40 -->
      <g transform="translate(34.525 78.517446) scale(0.1 -0.1)">
       <defs>
        <path id="DejaVuSans-34" d="M 2419 4116 
L 825 1625 
L 2419 1625 
L 2419 4116 
z
M 2253 4666 
L 3047 4666 
L 3047 1625 
L 3713 1625 
L 3713 1100 
L 3047 1100 
L 3047 0 
L 2419 0 
L 2419 1100 
L 313 1100 
L 313 1709 
L 2253 4666 
z
" transform="scale(0.015625)"/>
       </defs>
       <use xlink:href="#DejaVuSans-34"/>
       <use xlink:href="#DejaVuSans-30" transform="translate(63.623047 0)"/>
      </g>
     </g>
    </g>
    <g id="ytick_6">
     <g id="line2d_14">
      <g>
       <use xlink:href="#m08468320e6" x="54.25" y="46.977784" style="stroke: #000000; stroke-width: 0.8"/>
      </g>
     </g>
     <g id="text_6">
      <!-- 50 -->
      <g transform="translate(34.525 50.777003) scale(0.1 -0.1)">
       <defs>
        <path id="DejaVuSans-35" d="M 691 4666 
L 3169 4666 
L 3169 4134 
L 1269 4134 
L 1269 2991 
Q 1406 3038 1543 3061 
Q 1681 3084 1819 3084 
Q 2600 3084 3056 2656 
Q 3513 2228 3513 1497 
Q 3513 744 3044 326 
Q 2575 -91 1722 -91 
Q 1428 -91 1123 -41 
Q 819 9 494 109 
L 494 744 
Q 775 591 1075 516 
Q 1375 441 1709 441 
Q 2250 441 2565 725 
Q 2881 1009 2881 1497 
Q 2881 1984 2565 2268 
Q 2250 2553 1709 2553 
Q 1456 2553 1204 2497 
Q 953 2441 691 2322 
L 691 4666 
z
" transform="scale(0.015625)"/>
       </defs>
       <use xlink:href="#DejaVuSans-35"/>
       <use xlink:href="#DejaVuSans-30" transform="translate(63.623047 0)"/>
      </g>
     </g>
    </g>
   </g>
   <g id="patch_53">
    <path d="M 54.25 185.68 
L 54.25 26.88 
" style="fill: none; stroke: #000000; stroke-width: 0.8; stroke-linejoin: miter; stroke-linecap: square"/>
   </g>
   <g id="patch_54">
    <path d="M 550.8125 185.68 
L 550.8125 26.88 
" style="fill: none; stroke: #000000; stroke-width: 0.8; stroke-linejoin: miter; stroke-linecap: square"/>
   </g>
   <g id="patch_55">
    <path d="M 54.25 185.68 
L 550.8125 185.68 
" style="fill: none; stroke: #000000; stroke-width: 0.8; stroke-linejoin: miter; stroke-linecap: square"/>
   </g>
   <g id="patch_56">
    <path d="M 54.25 26.88 
L 550.8125 26.88 
" style="fill: none; stroke: #000000; stroke-width: 0.8; stroke-linejoin: miter; stroke-linecap: square"/>
   </g>
   <g id="text_7">
    <!-- Homogeneous -->
    <g transform="translate(259.2375 20.88) scale(0.12 -0.12)">
     <defs>
      <path id="DejaVuSans-48" d="M 628 4666 
L 1259 4666 
L 1259 2753 
L 3553 2753 
L 3553 4666 
L 4184 4666 
L 4184 0 
L 3553 0 
L 3553 2222 
L 1259 2222 
L 1259 0 
L 628 0 
L 628 4666 
z
" transform="scale(0.015625)"/>
      <path id="DejaVuSans-6f" d="M 1959 3097 
Q 1497 3097 1228 2736 
Q 959 2375 959 1747 
Q 959 1119 1226 758 
Q 1494 397 1959 397 
Q 2419 397 2687 759 
Q 2956 1122 2956 1747 
Q 2956 2369 2687 2733 
Q 2419 3097 1959 3097 
z
M 1959 3584 
Q 2709 3584 3137 3096 
Q 3566 2609 3566 1747 
Q 3566 888 3137 398 
Q 2709 -91 1959 -91 
Q 1206 -91 779 398 
Q 353 888 353 1747 
Q 353 2609 779 3096 
Q 1206 3584 1959 3584 
z
" transform="scale(0.015625)"/>
      <path id="DejaVuSans-6d" d="M 3328 2828 
Q 3544 3216 3844 3400 
Q 4144 3584 4550 3584 
Q 5097 3584 5394 3201 
Q 5691 2819 5691 2113 
L 5691 0 
L 5113 0 
L 5113 2094 
Q 5113 2597 4934 2840 
Q 4756 3084 4391 3084 
Q 3944 3084 3684 2787 
Q 3425 2491 3425 1978 
L 3425 0 
L 2847 0 
L 2847 2094 
Q 2847 2600 2669 2842 
Q 2491 3084 2119 3084 
Q 1678 3084 1418 2786 
Q 1159 2488 1159 1978 
L 1159 0 
L 581 0 
L 581 3500 
L 1159 3500 
L 1159 2956 
Q 1356 3278 1631 3431 
Q 1906 3584 2284 3584 
Q 2666 3584 2933 3390 
Q 3200 3197 3328 2828 
z
" transform="scale(0.015625)"/>
      <path id="DejaVuSans-67" d="M 2906 1791 
Q 2906 2416 2648 2759 
Q 2391 3103 1925 3103 
Q 1463 3103 1205 2759 
Q 947 2416 947 1791 
Q 947 1169 1205 825 
Q 1463 481 1925 481 
Q 2391 481 2648 825 
Q 2906 1169 2906 1791 
z
M 3481 434 
Q 3481 -459 3084 -895 
Q 2688 -1331 1869 -1331 
Q 1566 -1331 1297 -1286 
Q 1028 -1241 775 -1147 
L 775 -588 
Q 1028 -725 1275 -790 
Q 1522 -856 1778 -856 
Q 2344 -856 2625 -561 
Q 2906 -266 2906 331 
L 2906 616 
Q 2728 306 2450 153 
Q 2172 0 1784 0 
Q 1141 0 747 490 
Q 353 981 353 1791 
Q 353 2603 747 3093 
Q 1141 3584 1784 3584 
Q 2172 3584 2450 3431 
Q 2728 3278 2906 2969 
L 2906 3500 
L 3481 3500 
L 3481 434 
z
" transform="scale(0.015625)"/>
      <path id="DejaVuSans-65" d="M 3597 1894 
L 3597 1613 
L 953 1613 
Q 991 1019 1311 708 
Q 1631 397 2203 397 
Q 2534 397 2845 478 
Q 3156 559 3463 722 
L 3463 178 
Q 3153 47 2828 -22 
Q 2503 -91 2169 -91 
Q 1331 -91 842 396 
Q 353 884 353 1716 
Q 353 2575 817 3079 
Q 1281 3584 2069 3584 
Q 2775 3584 3186 3129 
Q 3597 2675 3597 1894 
z
M 3022 2063 
Q 3016 2534 2758 2815 
Q 2500 3097 2075 3097 
Q 1594 3097 1305 2825 
Q 1016 2553 972 2059 
L 3022 2063 
z
" transform="scale(0.015625)"/>
      <path id="DejaVuSans-6e" d="M 3513 2113 
L 3513 0 
L 2938 0 
L 2938 2094 
Q 2938 2591 2744 2837 
Q 2550 3084 2163 3084 
Q 1697 3084 1428 2787 
Q 1159 2491 1159 1978 
L 1159 0 
L 581 0 
L 581 3500 
L 1159 3500 
L 1159 2956 
Q 1366 3272 1645 3428 
Q 1925 3584 2291 3584 
Q 2894 3584 3203 3211 
Q 3513 2838 3513 2113 
z
" transform="scale(0.015625)"/>
      <path id="DejaVuSans-75" d="M 544 1381 
L 544 3500 
L 1119 3500 
L 1119 1403 
Q 1119 906 1312 657 
Q 1506 409 1894 409 
Q 2359 409 2629 706 
Q 2900 1003 2900 1516 
L 2900 3500 
L 3475 3500 
L 3475 0 
L 2900 0 
L 2900 538 
Q 2691 219 2414 64 
Q 2138 -91 1772 -91 
Q 1169 -91 856 284 
Q 544 659 544 1381 
z
M 1991 3584 
L 1991 3584 
z
" transform="scale(0.015625)"/>
      <path id="DejaVuSans-73" d="M 2834 3397 
L 2834 2853 
Q 2591 2978 2328 3040 
Q 2066 3103 1784 3103 
Q 1356 3103 1142 2972 
Q 928 2841 928 2578 
Q 928 2378 1081 2264 
Q 1234 2150 1697 2047 
L 1894 2003 
Q 2506 1872 2764 1633 
Q 3022 1394 3022 966 
Q 3022 478 2636 193 
Q 2250 -91 1575 -91 
Q 1294 -91 989 -36 
Q 684 19 347 128 
L 347 722 
Q 666 556 975 473 
Q 1284 391 1588 391 
Q 1994 391 2212 530 
Q 2431 669 2431 922 
Q 2431 1156 2273 1281 
Q 2116 1406 1581 1522 
L 1381 1569 
Q 847 1681 609 1914 
Q 372 2147 372 2553 
Q 372 3047 722 3315 
Q 1072 3584 1716 3584 
Q 2034 3584 2315 3537 
Q 2597 3491 2834 3397 
z
" transform="scale(0.015625)"/>
     </defs>
     <use xlink:href="#DejaVuSans-48"/>
     <use xlink:href="#DejaVuSans-6f" transform="translate(75.195312 0)"/>
     <use xlink:href="#DejaVuSans-6d" transform="translate(136.376953 0)"/>
     <use xlink:href="#DejaVuSans-6f" transform="translate(233.789062 0)"/>
     <use xlink:href="#DejaVuSans-67" transform="translate(294.970703 0)"/>
     <use xlink:href="#DejaVuSans-65" transform="translate(358.447266 0)"/>
     <use xlink:href="#DejaVuSans-6e" transform="translate(419.970703 0)"/>
     <use xlink:href="#DejaVuSans-65" transform="translate(483.349609 0)"/>
     <use xlink:href="#DejaVuSans-6f" transform="translate(544.873047 0)"/>
     <use xlink:href="#DejaVuSans-75" transform="translate(606.054688 0)"/>
     <use xlink:href="#DejaVuSans-73" transform="translate(669.433594 0)"/>
    </g>
   </g>
  </g>
  <g id="axes_2">
   <g id="patch_57">
    <path d="M 572.6375 185.68 
L 1069.2 185.68 
L 1069.2 26.88 
L 572.6375 26.88 
L 572.6375 185.68 
z
" style="fill: none"/>
   </g>
   <g id="patch_58">
    <path d="M 572.638086 185.68 
L 597.842645 185.68 
L 597.842645 79.544894 
L 572.638086 79.544894 
z
" clip-path="url(#p80be112371)" style="fill: #1f77b4"/>
   </g>
   <g id="patch_59">
    <path d="M 597.842645 185.68 
L 623.047203 185.68 
L 623.047203 113.279252 
L 597.842645 113.279252 
z
" clip-path="url(#p80be112371)" style="fill: #1f77b4"/>
   </g>
   <g id="patch_60">
    <path d="M 623.047203 185.68 
L 648.251762 185.68 
L 648.251762 135.510716 
L 623.047203 135.510716 
z
" clip-path="url(#p80be112371)" style="fill: #1f77b4"/>
   </g>
   <g id="patch_61">
    <path d="M 648.251762 185.68 
L 673.45632 185.68 
L 673.45632 150.0145 
L 648.251762 150.0145 
z
" clip-path="url(#p80be112371)" style="fill: #1f77b4"/>
   </g>
   <g id="patch_62">
    <path d="M 673.45632 185.68 
L 698.660879 185.68 
L 698.660879 160.354354 
L 673.45632 160.354354 
z
" clip-path="url(#p80be112371)" style="fill: #1f77b4"/>
   </g>
   <g id="patch_63">
    <path d="M 698.660879 185.68 
L 723.865437 185.68 
L 723.865437 167.425881 
L 698.660879 167.425881 
z
" clip-path="url(#p80be112371)" style="fill: #1f77b4"/>
   </g>
   <g id="patch_64">
    <path d="M 723.865437 185.68 
L 749.069996 185.68 
L 749.069996 172.301939 
L 723.865437 172.301939 
z
" clip-path="url(#p80be112371)" style="fill: #1f77b4"/>
   </g>
   <g id="patch_65">
    <path d="M 749.069996 185.68 
L 774.274554 185.68 
L 774.274554 175.794166 
L 749.069996 175.794166 
z
" clip-path="url(#p80be112371)" style="fill: #1f77b4"/>
   </g>
   <g id="patch_66">
    <path d="M 774.274554 185.68 
L 799.479113 185.68 
L 799.479113 178.375243 
L 774.274554 178.375243 
z
" clip-path="url(#p80be112371)" style="fill: #1f77b4"/>
   </g>
   <g id="patch_67">
    <path d="M 799.479113 185.68 
L 824.683671 185.68 
L 824.683671 179.967425 
L 799.479113 179.967425 
z
" clip-path="url(#p80be112371)" style="fill: #1f77b4"/>
   </g>
   <g id="patch_68">
    <path d="M 824.683671 185.68 
L 849.88823 185.68 
L 849.88823 181.531619 
L 824.683671 181.531619 
z
" clip-path="url(#p80be112371)" style="fill: #1f77b4"/>
   </g>
   <g id="patch_69">
    <path d="M 849.88823 185.68 
L 875.092788 185.68 
L 875.092788 182.514294 
L 849.88823 182.514294 
z
" clip-path="url(#p80be112371)" style="fill: #1f77b4"/>
   </g>
   <g id="patch_70">
    <path d="M 875.092788 185.68 
L 900.297347 185.68 
L 900.297347 183.279288 
L 875.092788 183.279288 
z
" clip-path="url(#p80be112371)" style="fill: #1f77b4"/>
   </g>
   <g id="patch_71">
    <path d="M 900.297347 185.68 
L 925.501905 185.68 
L 925.501905 183.820381 
L 900.297347 183.820381 
z
" clip-path="url(#p80be112371)" style="fill: #1f77b4"/>
   </g>
   <g id="patch_72">
    <path d="M 925.501905 185.68 
L 950.706464 185.68 
L 950.706464 184.227756 
L 925.501905 184.227756 
z
" clip-path="url(#p80be112371)" style="fill: #1f77b4"/>
   </g>
   <g id="patch_73">
    <path d="M 950.706464 185.68 
L 975.911022 185.68 
L 975.911022 184.495193 
L 950.706464 184.495193 
z
" clip-path="url(#p80be112371)" style="fill: #1f77b4"/>
   </g>
   <g id="patch_74">
    <path d="M 975.911022 185.68 
L 1001.115581 185.68 
L 1001.115581 184.647569 
L 975.911022 184.647569 
z
" clip-path="url(#p80be112371)" style="fill: #1f77b4"/>
   </g>
   <g id="patch_75">
    <path d="M 1001.115581 185.68 
L 1026.320139 185.68 
L 1026.320139 184.970981 
L 1001.115581 184.970981 
z
" clip-path="url(#p80be112371)" style="fill: #1f77b4"/>
   </g>
   <g id="patch_76">
    <path d="M 1026.320139 185.68 
L 1051.524698 185.68 
L 1051.524698 185.023847 
L 1026.320139 185.023847 
z
" clip-path="url(#p80be112371)" style="fill: #1f77b4"/>
   </g>
   <g id="patch_77">
    <path d="M 1051.524698 185.68 
L 1076.729256 185.68 
L 1076.729256 185.21354 
L 1051.524698 185.21354 
z
" clip-path="url(#p80be112371)" style="fill: #1f77b4"/>
   </g>
   <g id="patch_78">
    <path d="M 1076.729256 185.68 
L 1101.933815 185.68 
L 1101.933815 185.204211 
L 1076.729256 185.204211 
z
" clip-path="url(#p80be112371)" style="fill: #1f77b4"/>
   </g>
   <g id="patch_79">
    <path d="M 1101.933815 185.68 
L 1127.138373 185.68 
L 1127.138373 185.375246 
L 1101.933815 185.375246 
z
" clip-path="url(#p80be112371)" style="fill: #1f77b4"/>
   </g>
   <g id="patch_80">
    <path d="M 1127.138373 185.68 
L 1152.342932 185.68 
L 1152.342932 185.353478 
L 1127.138373 185.353478 
z
" clip-path="url(#p80be112371)" style="fill: #1f77b4"/>
   </g>
   <g id="patch_81">
    <path d="M 1152.342932 185.68 
L 1177.54749 185.68 
L 1177.54749 185.350369 
L 1152.342932 185.350369 
z
" clip-path="url(#p80be112371)" style="fill: #1f77b4"/>
   </g>
   <g id="patch_82">
    <path d="M 1177.54749 185.68 
L 1202.752049 185.68 
L 1202.752049 185.33793 
L 1177.54749 185.33793 
z
" clip-path="url(#p80be112371)" style="fill: #1f77b4"/>
   </g>
   <g id="patch_83">
    <path d="M 1202.752049 185.68 
L 1227.956607 185.68 
L 1227.956607 185.425002 
L 1202.752049 185.425002 
z
" clip-path="url(#p80be112371)" style="fill: #1f77b4"/>
   </g>
   <g id="patch_84">
    <path d="M 1227.956607 185.68 
L 1253.161166 185.68 
L 1253.161166 185.502745 
L 1227.956607 185.502745 
z
" clip-path="url(#p80be112371)" style="fill: #1f77b4"/>
   </g>
   <g id="patch_85">
    <path d="M 1253.161166 185.68 
L 1278.365724 185.68 
L 1278.365724 185.493416 
L 1253.161166 185.493416 
z
" clip-path="url(#p80be112371)" style="fill: #1f77b4"/>
   </g>
   <g id="patch_86">
    <path d="M 1278.365724 185.68 
L 1303.570283 185.68 
L 1303.570283 185.56494 
L 1278.365724 185.56494 
z
" clip-path="url(#p80be112371)" style="fill: #1f77b4"/>
   </g>
   <g id="patch_87">
    <path d="M 1303.570283 185.68 
L 1328.774841 185.68 
L 1328.774841 185.56183 
L 1303.570283 185.56183 
z
" clip-path="url(#p80be112371)" style="fill: #1f77b4"/>
   </g>
   <g id="patch_88">
    <path d="M 1328.774841 185.68 
L 1353.9794 185.68 
L 1353.9794 185.589818 
L 1328.774841 185.589818 
z
" clip-path="url(#p80be112371)" style="fill: #1f77b4"/>
   </g>
   <g id="patch_89">
    <path d="M 1353.9794 185.68 
L 1379.183958 185.68 
L 1379.183958 185.620915 
L 1353.9794 185.620915 
z
" clip-path="url(#p80be112371)" style="fill: #1f77b4"/>
   </g>
   <g id="patch_90">
    <path d="M 1379.183958 185.68 
L 1404.388517 185.68 
L 1404.388517 185.645793 
L 1379.183958 185.645793 
z
" clip-path="url(#p80be112371)" style="fill: #1f77b4"/>
   </g>
   <g id="patch_91">
    <path d="M 1404.388517 185.68 
L 1429.593075 185.68 
L 1429.593075 185.642683 
L 1404.388517 185.642683 
z
" clip-path="url(#p80be112371)" style="fill: #1f77b4"/>
   </g>
   <g id="patch_92">
    <path d="M 1429.593075 185.68 
L 1454.797634 185.68 
L 1454.797634 185.627135 
L 1429.593075 185.627135 
z
" clip-path="url(#p80be112371)" style="fill: #1f77b4"/>
   </g>
   <g id="patch_93">
    <path d="M 1454.797634 185.68 
L 1480.002192 185.68 
L 1480.002192 185.652012 
L 1454.797634 185.652012 
z
" clip-path="url(#p80be112371)" style="fill: #1f77b4"/>
   </g>
   <g id="patch_94">
    <path d="M 1480.002192 185.68 
L 1505.206751 185.68 
L 1505.206751 185.655122 
L 1480.002192 185.655122 
z
" clip-path="url(#p80be112371)" style="fill: #1f77b4"/>
   </g>
   <g id="patch_95">
    <path d="M 1505.206751 185.68 
L 1530.411309 185.68 
L 1530.411309 185.673781 
L 1505.206751 185.673781 
z
" clip-path="url(#p80be112371)" style="fill: #1f77b4"/>
   </g>
   <g id="patch_96">
    <path d="M 1530.411309 185.68 
L 1555.615868 185.68 
L 1555.615868 185.667561 
L 1530.411309 185.667561 
z
" clip-path="url(#p80be112371)" style="fill: #1f77b4"/>
   </g>
   <g id="patch_97">
    <path d="M 1555.615868 185.68 
L 1580.820426 185.68 
L 1580.820426 185.667561 
L 1555.615868 185.667561 
z
" clip-path="url(#p80be112371)" style="fill: #1f77b4"/>
   </g>
   <g id="patch_98">
    <path d="M 1580.820426 185.68 
L 1606.024985 185.68 
L 1606.024985 185.667561 
L 1580.820426 185.667561 
z
" clip-path="url(#p80be112371)" style="fill: #1f77b4"/>
   </g>
   <g id="patch_99">
    <path d="M 1606.024985 185.68 
L 1631.229543 185.68 
L 1631.229543 185.664451 
L 1606.024985 185.664451 
z
" clip-path="url(#p80be112371)" style="fill: #1f77b4"/>
   </g>
   <g id="patch_100">
    <path d="M 1631.229543 185.68 
L 1656.434102 185.68 
L 1656.434102 185.67689 
L 1631.229543 185.67689 
z
" clip-path="url(#p80be112371)" style="fill: #1f77b4"/>
   </g>
   <g id="patch_101">
    <path d="M 1656.434102 185.68 
L 1681.63866 185.68 
L 1681.63866 185.670671 
L 1656.434102 185.670671 
z
" clip-path="url(#p80be112371)" style="fill: #1f77b4"/>
   </g>
   <g id="patch_102">
    <path d="M 1681.63866 185.68 
L 1706.843219 185.68 
L 1706.843219 185.673781 
L 1681.63866 185.673781 
z
" clip-path="url(#p80be112371)" style="fill: #1f77b4"/>
   </g>
   <g id="patch_103">
    <path d="M 1706.843219 185.68 
L 1732.047777 185.68 
L 1732.047777 185.67689 
L 1706.843219 185.67689 
z
" clip-path="url(#p80be112371)" style="fill: #1f77b4"/>
   </g>
   <g id="patch_104">
    <path d="M 1732.047777 185.68 
L 1757.252336 185.68 
L 1757.252336 185.68 
L 1732.047777 185.68 
z
" clip-path="url(#p80be112371)" style="fill: #1f77b4"/>
   </g>
   <g id="patch_105">
    <path d="M 1757.252336 185.68 
L 1782.456894 185.68 
L 1782.456894 185.68 
L 1757.252336 185.68 
z
" clip-path="url(#p80be112371)" style="fill: #1f77b4"/>
   </g>
   <g id="patch_106">
    <path d="M 1782.456894 185.68 
L 1807.661453 185.68 
L 1807.661453 185.68 
L 1782.456894 185.68 
z
" clip-path="url(#p80be112371)" style="fill: #1f77b4"/>
   </g>
   <g id="patch_107">
    <path d="M 1807.661453 185.68 
L 1832.866011 185.68 
L 1832.866011 185.67689 
L 1807.661453 185.67689 
z
" clip-path="url(#p80be112371)" style="fill: #1f77b4"/>
   </g>
   <g id="matplotlib.axis_3">
    <g id="xtick_9">
     <g id="line2d_15">
      <g>
       <use xlink:href="#ma42e9884bf" x="572.6375" y="185.68" style="stroke: #000000; stroke-width: 0.8"/>
      </g>
     </g>
    </g>
    <g id="xtick_10">
     <g id="line2d_16">
      <g>
       <use xlink:href="#ma42e9884bf" x="638.845833" y="185.68" style="stroke: #000000; stroke-width: 0.8"/>
      </g>
     </g>
    </g>
    <g id="xtick_11">
     <g id="line2d_17">
      <g>
       <use xlink:href="#ma42e9884bf" x="705.054167" y="185.68" style="stroke: #000000; stroke-width: 0.8"/>
      </g>
     </g>
    </g>
    <g id="xtick_12">
     <g id="line2d_18">
      <g>
       <use xlink:href="#ma42e9884bf" x="771.2625" y="185.68" style="stroke: #000000; stroke-width: 0.8"/>
      </g>
     </g>
    </g>
    <g id="xtick_13">
     <g id="line2d_19">
      <g>
       <use xlink:href="#ma42e9884bf" x="837.470833" y="185.68" style="stroke: #000000; stroke-width: 0.8"/>
      </g>
     </g>
    </g>
    <g id="xtick_14">
     <g id="line2d_20">
      <g>
       <use xlink:href="#ma42e9884bf" x="903.679167" y="185.68" style="stroke: #000000; stroke-width: 0.8"/>
      </g>
     </g>
    </g>
    <g id="xtick_15">
     <g id="line2d_21">
      <g>
       <use xlink:href="#ma42e9884bf" x="969.8875" y="185.68" style="stroke: #000000; stroke-width: 0.8"/>
      </g>
     </g>
    </g>
    <g id="xtick_16">
     <g id="line2d_22">
      <g>
       <use xlink:href="#ma42e9884bf" x="1036.095833" y="185.68" style="stroke: #000000; stroke-width: 0.8"/>
      </g>
     </g>
    </g>
   </g>
   <g id="matplotlib.axis_4">
    <g id="ytick_7">
     <g id="line2d_23">
      <g>
       <use xlink:href="#m08468320e6" x="572.6375" y="185.68" style="stroke: #000000; stroke-width: 0.8"/>
      </g>
     </g>
    </g>
    <g id="ytick_8">
     <g id="line2d_24">
      <g>
       <use xlink:href="#m08468320e6" x="572.6375" y="157.939557" style="stroke: #000000; stroke-width: 0.8"/>
      </g>
     </g>
    </g>
    <g id="ytick_9">
     <g id="line2d_25">
      <g>
       <use xlink:href="#m08468320e6" x="572.6375" y="130.199114" style="stroke: #000000; stroke-width: 0.8"/>
      </g>
     </g>
    </g>
    <g id="ytick_10">
     <g id="line2d_26">
      <g>
       <use xlink:href="#m08468320e6" x="572.6375" y="102.458671" style="stroke: #000000; stroke-width: 0.8"/>
      </g>
     </g>
    </g>
    <g id="ytick_11">
     <g id="line2d_27">
      <g>
       <use xlink:href="#m08468320e6" x="572.6375" y="74.718227" style="stroke: #000000; stroke-width: 0.8"/>
      </g>
     </g>
    </g>
    <g id="ytick_12">
     <g id="line2d_28">
      <g>
       <use xlink:href="#m08468320e6" x="572.6375" y="46.977784" style="stroke: #000000; stroke-width: 0.8"/>
      </g>
     </g>
    </g>
   </g>
   <g id="patch_108">
    <path d="M 572.6375 185.68 
L 572.6375 26.88 
" style="fill: none; stroke: #000000; stroke-width: 0.8; stroke-linejoin: miter; stroke-linecap: square"/>
   </g>
   <g id="patch_109">
    <path d="M 1069.2 185.68 
L 1069.2 26.88 
" style="fill: none; stroke: #000000; stroke-width: 0.8; stroke-linejoin: miter; stroke-linecap: square"/>
   </g>
   <g id="patch_110">
    <path d="M 572.6375 185.68 
L 1069.2 185.68 
" style="fill: none; stroke: #000000; stroke-width: 0.8; stroke-linejoin: miter; stroke-linecap: square"/>
   </g>
   <g id="patch_111">
    <path d="M 572.6375 26.88 
L 1069.2 26.88 
" style="fill: none; stroke: #000000; stroke-width: 0.8; stroke-linejoin: miter; stroke-linecap: square"/>
   </g>
   <g id="text_8">
    <!-- Inhomogeneous -->
    <g transform="translate(772.762188 20.88) scale(0.12 -0.12)">
     <defs>
      <path id="DejaVuSans-49" d="M 628 4666 
L 1259 4666 
L 1259 0 
L 628 0 
L 628 4666 
z
" transform="scale(0.015625)"/>
      <path id="DejaVuSans-68" d="M 3513 2113 
L 3513 0 
L 2938 0 
L 2938 2094 
Q 2938 2591 2744 2837 
Q 2550 3084 2163 3084 
Q 1697 3084 1428 2787 
Q 1159 2491 1159 1978 
L 1159 0 
L 581 0 
L 581 4863 
L 1159 4863 
L 1159 2956 
Q 1366 3272 1645 3428 
Q 1925 3584 2291 3584 
Q 2894 3584 3203 3211 
Q 3513 2838 3513 2113 
z
" transform="scale(0.015625)"/>
     </defs>
     <use xlink:href="#DejaVuSans-49"/>
     <use xlink:href="#DejaVuSans-6e" transform="translate(29.492188 0)"/>
     <use xlink:href="#DejaVuSans-68" transform="translate(92.871094 0)"/>
     <use xlink:href="#DejaVuSans-6f" transform="translate(156.25 0)"/>
     <use xlink:href="#DejaVuSans-6d" transform="translate(217.431641 0)"/>
     <use xlink:href="#DejaVuSans-6f" transform="translate(314.84375 0)"/>
     <use xlink:href="#DejaVuSans-67" transform="translate(376.025391 0)"/>
     <use xlink:href="#DejaVuSans-65" transform="translate(439.501953 0)"/>
     <use xlink:href="#DejaVuSans-6e" transform="translate(501.025391 0)"/>
     <use xlink:href="#DejaVuSans-65" transform="translate(564.404297 0)"/>
     <use xlink:href="#DejaVuSans-6f" transform="translate(625.927734 0)"/>
     <use xlink:href="#DejaVuSans-75" transform="translate(687.109375 0)"/>
     <use xlink:href="#DejaVuSans-73" transform="translate(750.488281 0)"/>
    </g>
   </g>
  </g>
  <g id="axes_3">
   <g id="patch_112">
    <path d="M 54.25 377.48 
L 550.8125 377.48 
L 550.8125 218.68 
L 54.25 218.68 
L 54.25 377.48 
z
" style="fill: none"/>
   </g>
   <g id="patch_113">
    <path d="M 57.690624 377.48 
L 71.364169 377.48 
L 71.364169 348.649945 
L 57.690624 348.649945 
z
" clip-path="url(#pf915965a6a)" style="fill: #1f77b4"/>
   </g>
   <g id="patch_114">
    <path d="M 71.364169 377.48 
L 85.037714 377.48 
L 85.037714 313.998254 
L 71.364169 313.998254 
z
" clip-path="url(#pf915965a6a)" style="fill: #1f77b4"/>
   </g>
   <g id="patch_115">
    <path d="M 85.037714 377.48 
L 98.71126 377.48 
L 98.71126 300.289977 
L 85.037714 300.289977 
z
" clip-path="url(#pf915965a6a)" style="fill: #1f77b4"/>
   </g>
   <g id="patch_116">
    <path d="M 98.71126 377.48 
L 112.384805 377.48 
L 112.384805 300.335696 
L 98.71126 300.335696 
z
" clip-path="url(#pf915965a6a)" style="fill: #1f77b4"/>
   </g>
   <g id="patch_117">
    <path d="M 112.384805 377.48 
L 126.05835 377.48 
L 126.05835 306.267822 
L 112.384805 306.267822 
z
" clip-path="url(#pf915965a6a)" style="fill: #1f77b4"/>
   </g>
   <g id="patch_118">
    <path d="M 126.05835 377.48 
L 139.731896 377.48 
L 139.731896 313.834426 
L 126.05835 313.834426 
z
" clip-path="url(#pf915965a6a)" style="fill: #1f77b4"/>
   </g>
   <g id="patch_119">
    <path d="M 139.731896 377.48 
L 153.405441 377.48 
L 153.405441 322.723089 
L 139.731896 322.723089 
z
" clip-path="url(#pf915965a6a)" style="fill: #1f77b4"/>
   </g>
   <g id="patch_120">
    <path d="M 153.405441 377.48 
L 167.078987 377.48 
L 167.078987 332.095619 
L 153.405441 332.095619 
z
" clip-path="url(#pf915965a6a)" style="fill: #1f77b4"/>
   </g>
   <g id="patch_121">
    <path d="M 167.078987 377.48 
L 180.752532 377.48 
L 180.752532 339.464104 
L 167.078987 339.464104 
z
" clip-path="url(#pf915965a6a)" style="fill: #1f77b4"/>
   </g>
   <g id="patch_122">
    <path d="M 180.752532 377.48 
L 194.426077 377.48 
L 194.426077 346.341103 
L 180.752532 346.341103 
z
" clip-path="url(#pf915965a6a)" style="fill: #1f77b4"/>
   </g>
   <g id="patch_123">
    <path d="M 194.426077 377.48 
L 208.099623 377.48 
L 208.099623 352.509447 
L 194.426077 352.509447 
z
" clip-path="url(#pf915965a6a)" style="fill: #1f77b4"/>
   </g>
   <g id="patch_124">
    <path d="M 208.099623 377.48 
L 221.773168 377.48 
L 221.773168 357.877696 
L 208.099623 357.877696 
z
" clip-path="url(#pf915965a6a)" style="fill: #1f77b4"/>
   </g>
   <g id="patch_125">
    <path d="M 221.773168 377.48 
L 235.446714 377.48 
L 235.446714 361.37906 
L 221.773168 361.37906 
z
" clip-path="url(#pf915965a6a)" style="fill: #1f77b4"/>
   </g>
   <g id="patch_126">
    <path d="M 235.446714 377.48 
L 249.120259 377.48 
L 249.120259 364.705165 
L 235.446714 364.705165 
z
" clip-path="url(#pf915965a6a)" style="fill: #1f77b4"/>
   </g>
   <g id="patch_127">
    <path d="M 249.120259 377.48 
L 262.793804 377.48 
L 262.793804 367.177837 
L 249.120259 367.177837 
z
" clip-path="url(#pf915965a6a)" style="fill: #1f77b4"/>
   </g>
   <g id="patch_128">
    <path d="M 262.793804 377.48 
L 276.46735 377.48 
L 276.46735 369.581929 
L 262.793804 369.581929 
z
" clip-path="url(#pf915965a6a)" style="fill: #1f77b4"/>
   </g>
   <g id="patch_129">
    <path d="M 276.46735 377.48 
L 290.140895 377.48 
L 290.140895 370.991618 
L 276.46735 370.991618 
z
" clip-path="url(#pf915965a6a)" style="fill: #1f77b4"/>
   </g>
   <g id="patch_130">
    <path d="M 290.140895 377.48 
L 303.81444 377.48 
L 303.81444 372.351778 
L 290.140895 372.351778 
z
" clip-path="url(#pf915965a6a)" style="fill: #1f77b4"/>
   </g>
   <g id="patch_131">
    <path d="M 303.81444 377.48 
L 317.487986 377.48 
L 317.487986 373.52906 
L 303.81444 373.52906 
z
" clip-path="url(#pf915965a6a)" style="fill: #1f77b4"/>
   </g>
   <g id="patch_132">
    <path d="M 317.487986 377.48 
L 331.161531 377.48 
L 331.161531 374.531082 
L 317.487986 374.531082 
z
" clip-path="url(#pf915965a6a)" style="fill: #1f77b4"/>
   </g>
   <g id="patch_133">
    <path d="M 331.161531 377.48 
L 344.835077 377.48 
L 344.835077 375.072098 
L 331.161531 375.072098 
z
" clip-path="url(#pf915965a6a)" style="fill: #1f77b4"/>
   </g>
   <g id="patch_134">
    <path d="M 344.835077 377.48 
L 358.508622 377.48 
L 358.508622 375.624544 
L 344.835077 375.624544 
z
" clip-path="url(#pf915965a6a)" style="fill: #1f77b4"/>
   </g>
   <g id="patch_135">
    <path d="M 358.508622 377.48 
L 372.182167 377.48 
L 372.182167 376.09317 
L 358.508622 376.09317 
z
" clip-path="url(#pf915965a6a)" style="fill: #1f77b4"/>
   </g>
   <g id="patch_136">
    <path d="M 372.182167 377.48 
L 385.855713 377.48 
L 385.855713 376.302719 
L 372.182167 376.302719 
z
" clip-path="url(#pf915965a6a)" style="fill: #1f77b4"/>
   </g>
   <g id="patch_137">
    <path d="M 385.855713 377.48 
L 399.529258 377.48 
L 399.529258 376.657046 
L 385.855713 376.657046 
z
" clip-path="url(#pf915965a6a)" style="fill: #1f77b4"/>
   </g>
   <g id="patch_138">
    <path d="M 399.529258 377.48 
L 413.202804 377.48 
L 413.202804 376.839925 
L 399.529258 376.839925 
z
" clip-path="url(#pf915965a6a)" style="fill: #1f77b4"/>
   </g>
   <g id="patch_139">
    <path d="M 413.202804 377.48 
L 426.876349 377.48 
L 426.876349 376.999944 
L 413.202804 376.999944 
z
" clip-path="url(#pf915965a6a)" style="fill: #1f77b4"/>
   </g>
   <g id="patch_140">
    <path d="M 426.876349 377.48 
L 440.549894 377.48 
L 440.549894 377.068523 
L 426.876349 377.068523 
z
" clip-path="url(#pf915965a6a)" style="fill: #1f77b4"/>
   </g>
   <g id="patch_141">
    <path d="M 440.549894 377.48 
L 454.22344 377.48 
L 454.22344 377.163772 
L 440.549894 377.163772 
z
" clip-path="url(#pf915965a6a)" style="fill: #1f77b4"/>
   </g>
   <g id="patch_142">
    <path d="M 454.22344 377.48 
L 467.896985 377.48 
L 467.896985 377.194252 
L 454.22344 377.194252 
z
" clip-path="url(#pf915965a6a)" style="fill: #1f77b4"/>
   </g>
   <g id="patch_143">
    <path d="M 467.896985 377.48 
L 481.570531 377.48 
L 481.570531 377.342841 
L 467.896985 377.342841 
z
" clip-path="url(#pf915965a6a)" style="fill: #1f77b4"/>
   </g>
   <g id="patch_144">
    <path d="M 481.570531 377.48 
L 495.244076 377.48 
L 495.244076 377.297121 
L 481.570531 377.297121 
z
" clip-path="url(#pf915965a6a)" style="fill: #1f77b4"/>
   </g>
   <g id="patch_145">
    <path d="M 495.244076 377.48 
L 508.917621 377.48 
L 508.917621 377.342841 
L 495.244076 377.342841 
z
" clip-path="url(#pf915965a6a)" style="fill: #1f77b4"/>
   </g>
   <g id="patch_146">
    <path d="M 508.917621 377.48 
L 522.591167 377.48 
L 522.591167 377.399991 
L 508.917621 377.399991 
z
" clip-path="url(#pf915965a6a)" style="fill: #1f77b4"/>
   </g>
   <g id="patch_147">
    <path d="M 522.591167 377.48 
L 536.264712 377.48 
L 536.264712 377.396181 
L 522.591167 377.396181 
z
" clip-path="url(#pf915965a6a)" style="fill: #1f77b4"/>
   </g>
   <g id="patch_148">
    <path d="M 536.264712 377.48 
L 549.938257 377.48 
L 549.938257 377.4419 
L 536.264712 377.4419 
z
" clip-path="url(#pf915965a6a)" style="fill: #1f77b4"/>
   </g>
   <g id="patch_149">
    <path d="M 549.938257 377.48 
L 563.611803 377.48 
L 563.611803 377.43809 
L 549.938257 377.43809 
z
" clip-path="url(#pf915965a6a)" style="fill: #1f77b4"/>
   </g>
   <g id="patch_150">
    <path d="M 563.611803 377.48 
L 577.285348 377.48 
L 577.285348 377.44571 
L 563.611803 377.44571 
z
" clip-path="url(#pf915965a6a)" style="fill: #1f77b4"/>
   </g>
   <g id="patch_151">
    <path d="M 577.285348 377.48 
L 590.958894 377.48 
L 590.958894 377.43809 
L 577.285348 377.43809 
z
" clip-path="url(#pf915965a6a)" style="fill: #1f77b4"/>
   </g>
   <g id="patch_152">
    <path d="M 590.958894 377.48 
L 604.632439 377.48 
L 604.632439 377.47619 
L 590.958894 377.47619 
z
" clip-path="url(#pf915965a6a)" style="fill: #1f77b4"/>
   </g>
   <g id="patch_153">
    <path d="M 604.632439 377.48 
L 618.305984 377.48 
L 618.305984 377.45714 
L 604.632439 377.45714 
z
" clip-path="url(#pf915965a6a)" style="fill: #1f77b4"/>
   </g>
   <g id="patch_154">
    <path d="M 618.305984 377.48 
L 631.97953 377.48 
L 631.97953 377.47619 
L 618.305984 377.47619 
z
" clip-path="url(#pf915965a6a)" style="fill: #1f77b4"/>
   </g>
   <g id="patch_155">
    <path d="M 631.97953 377.48 
L 645.653075 377.48 
L 645.653075 377.47619 
L 631.97953 377.47619 
z
" clip-path="url(#pf915965a6a)" style="fill: #1f77b4"/>
   </g>
   <g id="patch_156">
    <path d="M 645.653075 377.48 
L 659.326621 377.48 
L 659.326621 377.47238 
L 645.653075 377.47238 
z
" clip-path="url(#pf915965a6a)" style="fill: #1f77b4"/>
   </g>
   <g id="patch_157">
    <path d="M 659.326621 377.48 
L 673.000166 377.48 
L 673.000166 377.48 
L 659.326621 377.48 
z
" clip-path="url(#pf915965a6a)" style="fill: #1f77b4"/>
   </g>
   <g id="patch_158">
    <path d="M 673.000166 377.48 
L 686.673711 377.48 
L 686.673711 377.46095 
L 673.000166 377.46095 
z
" clip-path="url(#pf915965a6a)" style="fill: #1f77b4"/>
   </g>
   <g id="patch_159">
    <path d="M 686.673711 377.48 
L 700.347257 377.48 
L 700.347257 377.47619 
L 686.673711 377.47619 
z
" clip-path="url(#pf915965a6a)" style="fill: #1f77b4"/>
   </g>
   <g id="patch_160">
    <path d="M 700.347257 377.48 
L 714.020802 377.48 
L 714.020802 377.48 
L 700.347257 377.48 
z
" clip-path="url(#pf915965a6a)" style="fill: #1f77b4"/>
   </g>
   <g id="patch_161">
    <path d="M 714.020802 377.48 
L 727.694348 377.48 
L 727.694348 377.47619 
L 714.020802 377.47619 
z
" clip-path="url(#pf915965a6a)" style="fill: #1f77b4"/>
   </g>
   <g id="patch_162">
    <path d="M 727.694348 377.48 
L 741.367893 377.48 
L 741.367893 377.46857 
L 727.694348 377.46857 
z
" clip-path="url(#pf915965a6a)" style="fill: #1f77b4"/>
   </g>
   <g id="matplotlib.axis_5">
    <g id="xtick_17">
     <g id="line2d_29">
      <g>
       <use xlink:href="#ma42e9884bf" x="54.25" y="377.48" style="stroke: #000000; stroke-width: 0.8"/>
      </g>
     </g>
     <g id="text_9">
      <!-- 0.00 -->
      <g transform="translate(43.117188 392.078438) scale(0.1 -0.1)">
       <defs>
        <path id="DejaVuSans-2e" d="M 684 794 
L 1344 794 
L 1344 0 
L 684 0 
L 684 794 
z
" transform="scale(0.015625)"/>
       </defs>
       <use xlink:href="#DejaVuSans-30"/>
       <use xlink:href="#DejaVuSans-2e" transform="translate(63.623047 0)"/>
       <use xlink:href="#DejaVuSans-30" transform="translate(95.410156 0)"/>
       <use xlink:href="#DejaVuSans-30" transform="translate(159.033203 0)"/>
      </g>
     </g>
    </g>
    <g id="xtick_18">
     <g id="line2d_30">
      <g>
       <use xlink:href="#ma42e9884bf" x="120.458333" y="377.48" style="stroke: #000000; stroke-width: 0.8"/>
      </g>
     </g>
     <g id="text_10">
      <!-- 0.02 -->
      <g transform="translate(109.325521 392.078438) scale(0.1 -0.1)">
       <use xlink:href="#DejaVuSans-30"/>
       <use xlink:href="#DejaVuSans-2e" transform="translate(63.623047 0)"/>
       <use xlink:href="#DejaVuSans-30" transform="translate(95.410156 0)"/>
       <use xlink:href="#DejaVuSans-32" transform="translate(159.033203 0)"/>
      </g>
     </g>
    </g>
    <g id="xtick_19">
     <g id="line2d_31">
      <g>
       <use xlink:href="#ma42e9884bf" x="186.666667" y="377.48" style="stroke: #000000; stroke-width: 0.8"/>
      </g>
     </g>
     <g id="text_11">
      <!-- 0.04 -->
      <g transform="translate(175.533854 392.078438) scale(0.1 -0.1)">
       <use xlink:href="#DejaVuSans-30"/>
       <use xlink:href="#DejaVuSans-2e" transform="translate(63.623047 0)"/>
       <use xlink:href="#DejaVuSans-30" transform="translate(95.410156 0)"/>
       <use xlink:href="#DejaVuSans-34" transform="translate(159.033203 0)"/>
      </g>
     </g>
    </g>
    <g id="xtick_20">
     <g id="line2d_32">
      <g>
       <use xlink:href="#ma42e9884bf" x="252.875" y="377.48" style="stroke: #000000; stroke-width: 0.8"/>
      </g>
     </g>
     <g id="text_12">
      <!-- 0.06 -->
      <g transform="translate(241.742188 392.078438) scale(0.1 -0.1)">
       <defs>
        <path id="DejaVuSans-36" d="M 2113 2584 
Q 1688 2584 1439 2293 
Q 1191 2003 1191 1497 
Q 1191 994 1439 701 
Q 1688 409 2113 409 
Q 2538 409 2786 701 
Q 3034 994 3034 1497 
Q 3034 2003 2786 2293 
Q 2538 2584 2113 2584 
z
M 3366 4563 
L 3366 3988 
Q 3128 4100 2886 4159 
Q 2644 4219 2406 4219 
Q 1781 4219 1451 3797 
Q 1122 3375 1075 2522 
Q 1259 2794 1537 2939 
Q 1816 3084 2150 3084 
Q 2853 3084 3261 2657 
Q 3669 2231 3669 1497 
Q 3669 778 3244 343 
Q 2819 -91 2113 -91 
Q 1303 -91 875 529 
Q 447 1150 447 2328 
Q 447 3434 972 4092 
Q 1497 4750 2381 4750 
Q 2619 4750 2861 4703 
Q 3103 4656 3366 4563 
z
" transform="scale(0.015625)"/>
       </defs>
       <use xlink:href="#DejaVuSans-30"/>
       <use xlink:href="#DejaVuSans-2e" transform="translate(63.623047 0)"/>
       <use xlink:href="#DejaVuSans-30" transform="translate(95.410156 0)"/>
       <use xlink:href="#DejaVuSans-36" transform="translate(159.033203 0)"/>
      </g>
     </g>
    </g>
    <g id="xtick_21">
     <g id="line2d_33">
      <g>
       <use xlink:href="#ma42e9884bf" x="319.083333" y="377.48" style="stroke: #000000; stroke-width: 0.8"/>
      </g>
     </g>
     <g id="text_13">
      <!-- 0.08 -->
      <g transform="translate(307.950521 392.078438) scale(0.1 -0.1)">
       <defs>
        <path id="DejaVuSans-38" d="M 2034 2216 
Q 1584 2216 1326 1975 
Q 1069 1734 1069 1313 
Q 1069 891 1326 650 
Q 1584 409 2034 409 
Q 2484 409 2743 651 
Q 3003 894 3003 1313 
Q 3003 1734 2745 1975 
Q 2488 2216 2034 2216 
z
M 1403 2484 
Q 997 2584 770 2862 
Q 544 3141 544 3541 
Q 544 4100 942 4425 
Q 1341 4750 2034 4750 
Q 2731 4750 3128 4425 
Q 3525 4100 3525 3541 
Q 3525 3141 3298 2862 
Q 3072 2584 2669 2484 
Q 3125 2378 3379 2068 
Q 3634 1759 3634 1313 
Q 3634 634 3220 271 
Q 2806 -91 2034 -91 
Q 1263 -91 848 271 
Q 434 634 434 1313 
Q 434 1759 690 2068 
Q 947 2378 1403 2484 
z
M 1172 3481 
Q 1172 3119 1398 2916 
Q 1625 2713 2034 2713 
Q 2441 2713 2670 2916 
Q 2900 3119 2900 3481 
Q 2900 3844 2670 4047 
Q 2441 4250 2034 4250 
Q 1625 4250 1398 4047 
Q 1172 3844 1172 3481 
z
" transform="scale(0.015625)"/>
       </defs>
       <use xlink:href="#DejaVuSans-30"/>
       <use xlink:href="#DejaVuSans-2e" transform="translate(63.623047 0)"/>
       <use xlink:href="#DejaVuSans-30" transform="translate(95.410156 0)"/>
       <use xlink:href="#DejaVuSans-38" transform="translate(159.033203 0)"/>
      </g>
     </g>
    </g>
    <g id="xtick_22">
     <g id="line2d_34">
      <g>
       <use xlink:href="#ma42e9884bf" x="385.291667" y="377.48" style="stroke: #000000; stroke-width: 0.8"/>
      </g>
     </g>
     <g id="text_14">
      <!-- 0.10 -->
      <g transform="translate(374.158854 392.078438) scale(0.1 -0.1)">
       <use xlink:href="#DejaVuSans-30"/>
       <use xlink:href="#DejaVuSans-2e" transform="translate(63.623047 0)"/>
       <use xlink:href="#DejaVuSans-31" transform="translate(95.410156 0)"/>
       <use xlink:href="#DejaVuSans-30" transform="translate(159.033203 0)"/>
      </g>
     </g>
    </g>
    <g id="xtick_23">
     <g id="line2d_35">
      <g>
       <use xlink:href="#ma42e9884bf" x="451.5" y="377.48" style="stroke: #000000; stroke-width: 0.8"/>
      </g>
     </g>
     <g id="text_15">
      <!-- 0.12 -->
      <g transform="translate(440.367188 392.078438) scale(0.1 -0.1)">
       <use xlink:href="#DejaVuSans-30"/>
       <use xlink:href="#DejaVuSans-2e" transform="translate(63.623047 0)"/>
       <use xlink:href="#DejaVuSans-31" transform="translate(95.410156 0)"/>
       <use xlink:href="#DejaVuSans-32" transform="translate(159.033203 0)"/>
      </g>
     </g>
    </g>
    <g id="xtick_24">
     <g id="line2d_36">
      <g>
       <use xlink:href="#ma42e9884bf" x="517.708333" y="377.48" style="stroke: #000000; stroke-width: 0.8"/>
      </g>
     </g>
     <g id="text_16">
      <!-- 0.14 -->
      <g transform="translate(506.575521 392.078438) scale(0.1 -0.1)">
       <use xlink:href="#DejaVuSans-30"/>
       <use xlink:href="#DejaVuSans-2e" transform="translate(63.623047 0)"/>
       <use xlink:href="#DejaVuSans-31" transform="translate(95.410156 0)"/>
       <use xlink:href="#DejaVuSans-34" transform="translate(159.033203 0)"/>
      </g>
     </g>
    </g>
   </g>
   <g id="matplotlib.axis_6">
    <g id="ytick_13">
     <g id="line2d_37">
      <g>
       <use xlink:href="#m08468320e6" x="54.25" y="377.48" style="stroke: #000000; stroke-width: 0.8"/>
      </g>
     </g>
     <g id="text_17">
      <!-- 0 -->
      <g transform="translate(40.8875 381.279219) scale(0.1 -0.1)">
       <use xlink:href="#DejaVuSans-30"/>
      </g>
     </g>
    </g>
    <g id="ytick_14">
     <g id="line2d_38">
      <g>
       <use xlink:href="#m08468320e6" x="54.25" y="349.739557" style="stroke: #000000; stroke-width: 0.8"/>
      </g>
     </g>
     <g id="text_18">
      <!-- 10 -->
      <g transform="translate(34.525 353.538776) scale(0.1 -0.1)">
       <use xlink:href="#DejaVuSans-31"/>
       <use xlink:href="#DejaVuSans-30" transform="translate(63.623047 0)"/>
      </g>
     </g>
    </g>
    <g id="ytick_15">
     <g id="line2d_39">
      <g>
       <use xlink:href="#m08468320e6" x="54.25" y="321.999114" style="stroke: #000000; stroke-width: 0.8"/>
      </g>
     </g>
     <g id="text_19">
      <!-- 20 -->
      <g transform="translate(34.525 325.798332) scale(0.1 -0.1)">
       <use xlink:href="#DejaVuSans-32"/>
       <use xlink:href="#DejaVuSans-30" transform="translate(63.623047 0)"/>
      </g>
     </g>
    </g>
    <g id="ytick_16">
     <g id="line2d_40">
      <g>
       <use xlink:href="#m08468320e6" x="54.25" y="294.258671" style="stroke: #000000; stroke-width: 0.8"/>
      </g>
     </g>
     <g id="text_20">
      <!-- 30 -->
      <g transform="translate(34.525 298.057889) scale(0.1 -0.1)">
       <use xlink:href="#DejaVuSans-33"/>
       <use xlink:href="#DejaVuSans-30" transform="translate(63.623047 0)"/>
      </g>
     </g>
    </g>
    <g id="ytick_17">
     <g id="line2d_41">
      <g>
       <use xlink:href="#m08468320e6" x="54.25" y="266.518227" style="stroke: #000000; stroke-width: 0.8"/>
      </g>
     </g>
     <g id="text_21">
      <!-- 40 -->
      <g transform="translate(34.525 270.317446) scale(0.1 -0.1)">
       <use xlink:href="#DejaVuSans-34"/>
       <use xlink:href="#DejaVuSans-30" transform="translate(63.623047 0)"/>
      </g>
     </g>
    </g>
    <g id="ytick_18">
     <g id="line2d_42">
      <g>
       <use xlink:href="#m08468320e6" x="54.25" y="238.777784" style="stroke: #000000; stroke-width: 0.8"/>
      </g>
     </g>
     <g id="text_22">
      <!-- 50 -->
      <g transform="translate(34.525 242.577003) scale(0.1 -0.1)">
       <use xlink:href="#DejaVuSans-35"/>
       <use xlink:href="#DejaVuSans-30" transform="translate(63.623047 0)"/>
      </g>
     </g>
    </g>
   </g>
   <g id="patch_163">
    <path d="M 54.25 377.48 
L 54.25 218.68 
" style="fill: none; stroke: #000000; stroke-width: 0.8; stroke-linejoin: miter; stroke-linecap: square"/>
   </g>
   <g id="patch_164">
    <path d="M 550.8125 377.48 
L 550.8125 218.68 
" style="fill: none; stroke: #000000; stroke-width: 0.8; stroke-linejoin: miter; stroke-linecap: square"/>
   </g>
   <g id="patch_165">
    <path d="M 54.25 377.48 
L 550.8125 377.48 
" style="fill: none; stroke: #000000; stroke-width: 0.8; stroke-linejoin: miter; stroke-linecap: square"/>
   </g>
   <g id="patch_166">
    <path d="M 54.25 218.68 
L 550.8125 218.68 
" style="fill: none; stroke: #000000; stroke-width: 0.8; stroke-linejoin: miter; stroke-linecap: square"/>
   </g>
   <g id="text_23">
    <!-- Homogeneous w/ Refractory Effects -->
    <g transform="translate(194.9175 212.68) scale(0.12 -0.12)">
     <defs>
      <path id="DejaVuSans-20" transform="scale(0.015625)"/>
      <path id="DejaVuSans-77" d="M 269 3500 
L 844 3500 
L 1563 769 
L 2278 3500 
L 2956 3500 
L 3675 769 
L 4391 3500 
L 4966 3500 
L 4050 0 
L 3372 0 
L 2619 2869 
L 1863 0 
L 1184 0 
L 269 3500 
z
" transform="scale(0.015625)"/>
      <path id="DejaVuSans-2f" d="M 1625 4666 
L 2156 4666 
L 531 -594 
L 0 -594 
L 1625 4666 
z
" transform="scale(0.015625)"/>
      <path id="DejaVuSans-52" d="M 2841 2188 
Q 3044 2119 3236 1894 
Q 3428 1669 3622 1275 
L 4263 0 
L 3584 0 
L 2988 1197 
Q 2756 1666 2539 1819 
Q 2322 1972 1947 1972 
L 1259 1972 
L 1259 0 
L 628 0 
L 628 4666 
L 2053 4666 
Q 2853 4666 3247 4331 
Q 3641 3997 3641 3322 
Q 3641 2881 3436 2590 
Q 3231 2300 2841 2188 
z
M 1259 4147 
L 1259 2491 
L 2053 2491 
Q 2509 2491 2742 2702 
Q 2975 2913 2975 3322 
Q 2975 3731 2742 3939 
Q 2509 4147 2053 4147 
L 1259 4147 
z
" transform="scale(0.015625)"/>
      <path id="DejaVuSans-66" d="M 2375 4863 
L 2375 4384 
L 1825 4384 
Q 1516 4384 1395 4259 
Q 1275 4134 1275 3809 
L 1275 3500 
L 2222 3500 
L 2222 3053 
L 1275 3053 
L 1275 0 
L 697 0 
L 697 3053 
L 147 3053 
L 147 3500 
L 697 3500 
L 697 3744 
Q 697 4328 969 4595 
Q 1241 4863 1831 4863 
L 2375 4863 
z
" transform="scale(0.015625)"/>
      <path id="DejaVuSans-72" d="M 2631 2963 
Q 2534 3019 2420 3045 
Q 2306 3072 2169 3072 
Q 1681 3072 1420 2755 
Q 1159 2438 1159 1844 
L 1159 0 
L 581 0 
L 581 3500 
L 1159 3500 
L 1159 2956 
Q 1341 3275 1631 3429 
Q 1922 3584 2338 3584 
Q 2397 3584 2469 3576 
Q 2541 3569 2628 3553 
L 2631 2963 
z
" transform="scale(0.015625)"/>
      <path id="DejaVuSans-61" d="M 2194 1759 
Q 1497 1759 1228 1600 
Q 959 1441 959 1056 
Q 959 750 1161 570 
Q 1363 391 1709 391 
Q 2188 391 2477 730 
Q 2766 1069 2766 1631 
L 2766 1759 
L 2194 1759 
z
M 3341 1997 
L 3341 0 
L 2766 0 
L 2766 531 
Q 2569 213 2275 61 
Q 1981 -91 1556 -91 
Q 1019 -91 701 211 
Q 384 513 384 1019 
Q 384 1609 779 1909 
Q 1175 2209 1959 2209 
L 2766 2209 
L 2766 2266 
Q 2766 2663 2505 2880 
Q 2244 3097 1772 3097 
Q 1472 3097 1187 3025 
Q 903 2953 641 2809 
L 641 3341 
Q 956 3463 1253 3523 
Q 1550 3584 1831 3584 
Q 2591 3584 2966 3190 
Q 3341 2797 3341 1997 
z
" transform="scale(0.015625)"/>
      <path id="DejaVuSans-63" d="M 3122 3366 
L 3122 2828 
Q 2878 2963 2633 3030 
Q 2388 3097 2138 3097 
Q 1578 3097 1268 2742 
Q 959 2388 959 1747 
Q 959 1106 1268 751 
Q 1578 397 2138 397 
Q 2388 397 2633 464 
Q 2878 531 3122 666 
L 3122 134 
Q 2881 22 2623 -34 
Q 2366 -91 2075 -91 
Q 1284 -91 818 406 
Q 353 903 353 1747 
Q 353 2603 823 3093 
Q 1294 3584 2113 3584 
Q 2378 3584 2631 3529 
Q 2884 3475 3122 3366 
z
" transform="scale(0.015625)"/>
      <path id="DejaVuSans-74" d="M 1172 4494 
L 1172 3500 
L 2356 3500 
L 2356 3053 
L 1172 3053 
L 1172 1153 
Q 1172 725 1289 603 
Q 1406 481 1766 481 
L 2356 481 
L 2356 0 
L 1766 0 
Q 1100 0 847 248 
Q 594 497 594 1153 
L 594 3053 
L 172 3053 
L 172 3500 
L 594 3500 
L 594 4494 
L 1172 4494 
z
" transform="scale(0.015625)"/>
      <path id="DejaVuSans-79" d="M 2059 -325 
Q 1816 -950 1584 -1140 
Q 1353 -1331 966 -1331 
L 506 -1331 
L 506 -850 
L 844 -850 
Q 1081 -850 1212 -737 
Q 1344 -625 1503 -206 
L 1606 56 
L 191 3500 
L 800 3500 
L 1894 763 
L 2988 3500 
L 3597 3500 
L 2059 -325 
z
" transform="scale(0.015625)"/>
      <path id="DejaVuSans-45" d="M 628 4666 
L 3578 4666 
L 3578 4134 
L 1259 4134 
L 1259 2753 
L 3481 2753 
L 3481 2222 
L 1259 2222 
L 1259 531 
L 3634 531 
L 3634 0 
L 628 0 
L 628 4666 
z
" transform="scale(0.015625)"/>
     </defs>
     <use xlink:href="#DejaVuSans-48"/>
     <use xlink:href="#DejaVuSans-6f" transform="translate(75.195312 0)"/>
     <use xlink:href="#DejaVuSans-6d" transform="translate(136.376953 0)"/>
     <use xlink:href="#DejaVuSans-6f" transform="translate(233.789062 0)"/>
     <use xlink:href="#DejaVuSans-67" transform="translate(294.970703 0)"/>
     <use xlink:href="#DejaVuSans-65" transform="translate(358.447266 0)"/>
     <use xlink:href="#DejaVuSans-6e" transform="translate(419.970703 0)"/>
     <use xlink:href="#DejaVuSans-65" transform="translate(483.349609 0)"/>
     <use xlink:href="#DejaVuSans-6f" transform="translate(544.873047 0)"/>
     <use xlink:href="#DejaVuSans-75" transform="translate(606.054688 0)"/>
     <use xlink:href="#DejaVuSans-73" transform="translate(669.433594 0)"/>
     <use xlink:href="#DejaVuSans-20" transform="translate(721.533203 0)"/>
     <use xlink:href="#DejaVuSans-77" transform="translate(753.320312 0)"/>
     <use xlink:href="#DejaVuSans-2f" transform="translate(835.107422 0)"/>
     <use xlink:href="#DejaVuSans-20" transform="translate(868.798828 0)"/>
     <use xlink:href="#DejaVuSans-52" transform="translate(900.585938 0)"/>
     <use xlink:href="#DejaVuSans-65" transform="translate(965.568359 0)"/>
     <use xlink:href="#DejaVuSans-66" transform="translate(1027.091797 0)"/>
     <use xlink:href="#DejaVuSans-72" transform="translate(1062.296875 0)"/>
     <use xlink:href="#DejaVuSans-61" transform="translate(1103.410156 0)"/>
     <use xlink:href="#DejaVuSans-63" transform="translate(1164.689453 0)"/>
     <use xlink:href="#DejaVuSans-74" transform="translate(1219.669922 0)"/>
     <use xlink:href="#DejaVuSans-6f" transform="translate(1258.878906 0)"/>
     <use xlink:href="#DejaVuSans-72" transform="translate(1320.060547 0)"/>
     <use xlink:href="#DejaVuSans-79" transform="translate(1361.173828 0)"/>
     <use xlink:href="#DejaVuSans-20" transform="translate(1420.353516 0)"/>
     <use xlink:href="#DejaVuSans-45" transform="translate(1452.140625 0)"/>
     <use xlink:href="#DejaVuSans-66" transform="translate(1515.324219 0)"/>
     <use xlink:href="#DejaVuSans-66" transform="translate(1550.529297 0)"/>
     <use xlink:href="#DejaVuSans-65" transform="translate(1585.734375 0)"/>
     <use xlink:href="#DejaVuSans-63" transform="translate(1647.257812 0)"/>
     <use xlink:href="#DejaVuSans-74" transform="translate(1702.238281 0)"/>
     <use xlink:href="#DejaVuSans-73" transform="translate(1741.447266 0)"/>
    </g>
   </g>
  </g>
  <g id="axes_4">
   <g id="patch_167">
    <path d="M 572.6375 377.48 
L 1069.2 377.48 
L 1069.2 218.68 
L 572.6375 218.68 
L 572.6375 377.48 
z
" style="fill: none"/>
   </g>
   <g id="patch_168">
    <path d="M 576.151738 377.48 
L 601.286024 377.48 
L 601.286024 344.042556 
L 576.151738 344.042556 
z
" clip-path="url(#p08143aad6e)" style="fill: #1f77b4"/>
   </g>
   <g id="patch_169">
    <path d="M 601.286024 377.48 
L 626.420309 377.48 
L 626.420309 316.849119 
L 601.286024 316.849119 
z
" clip-path="url(#p08143aad6e)" style="fill: #1f77b4"/>
   </g>
   <g id="patch_170">
    <path d="M 626.420309 377.48 
L 651.554595 377.48 
L 651.554595 318.611915 
L 626.420309 318.611915 
z
" clip-path="url(#p08143aad6e)" style="fill: #1f77b4"/>
   </g>
   <g id="patch_171">
    <path d="M 651.554595 377.48 
L 676.68888 377.48 
L 676.68888 327.69031 
L 651.554595 327.69031 
z
" clip-path="url(#p08143aad6e)" style="fill: #1f77b4"/>
   </g>
   <g id="patch_172">
    <path d="M 676.68888 377.48 
L 701.823166 377.48 
L 701.823166 338.84231 
L 676.68888 338.84231 
z
" clip-path="url(#p08143aad6e)" style="fill: #1f77b4"/>
   </g>
   <g id="patch_173">
    <path d="M 701.823166 377.48 
L 726.957451 377.48 
L 726.957451 347.619175 
L 701.823166 347.619175 
z
" clip-path="url(#p08143aad6e)" style="fill: #1f77b4"/>
   </g>
   <g id="patch_174">
    <path d="M 726.957451 377.48 
L 752.091737 377.48 
L 752.091737 355.486809 
L 726.957451 355.486809 
z
" clip-path="url(#p08143aad6e)" style="fill: #1f77b4"/>
   </g>
   <g id="patch_175">
    <path d="M 752.091737 377.48 
L 777.226022 377.48 
L 777.226022 360.594277 
L 752.091737 360.594277 
z
" clip-path="url(#p08143aad6e)" style="fill: #1f77b4"/>
   </g>
   <g id="patch_176">
    <path d="M 777.226022 377.48 
L 802.360307 377.48 
L 802.360307 365.117238 
L 777.226022 365.117238 
z
" clip-path="url(#p08143aad6e)" style="fill: #1f77b4"/>
   </g>
   <g id="patch_177">
    <path d="M 802.360307 377.48 
L 827.494593 377.48 
L 827.494593 367.923794 
L 802.360307 367.923794 
z
" clip-path="url(#p08143aad6e)" style="fill: #1f77b4"/>
   </g>
   <g id="patch_178">
    <path d="M 827.494593 377.48 
L 852.628878 377.48 
L 852.628878 370.349957 
L 827.494593 370.349957 
z
" clip-path="url(#p08143aad6e)" style="fill: #1f77b4"/>
   </g>
   <g id="patch_179">
    <path d="M 852.628878 377.48 
L 877.763164 377.48 
L 877.763164 372.289032 
L 852.628878 372.289032 
z
" clip-path="url(#p08143aad6e)" style="fill: #1f77b4"/>
   </g>
   <g id="patch_180">
    <path d="M 877.763164 377.48 
L 902.897449 377.48 
L 902.897449 373.369904 
L 877.763164 373.369904 
z
" clip-path="url(#p08143aad6e)" style="fill: #1f77b4"/>
   </g>
   <g id="patch_181">
    <path d="M 902.897449 377.48 
L 928.031735 377.48 
L 928.031735 374.371914 
L 902.897449 374.371914 
z
" clip-path="url(#p08143aad6e)" style="fill: #1f77b4"/>
   </g>
   <g id="patch_182">
    <path d="M 928.031735 377.48 
L 953.16602 377.48 
L 953.16602 375.053837 
L 928.031735 375.053837 
z
" clip-path="url(#p08143aad6e)" style="fill: #1f77b4"/>
   </g>
   <g id="patch_183">
    <path d="M 953.16602 377.48 
L 978.300306 377.48 
L 978.300306 375.522369 
L 953.16602 375.522369 
z
" clip-path="url(#p08143aad6e)" style="fill: #1f77b4"/>
   </g>
   <g id="patch_184">
    <path d="M 978.300306 377.48 
L 1003.434591 377.48 
L 1003.434591 375.902762 
L 978.300306 375.902762 
z
" clip-path="url(#p08143aad6e)" style="fill: #1f77b4"/>
   </g>
   <g id="patch_185">
    <path d="M 1003.434591 377.48 
L 1028.568877 377.48 
L 1028.568877 376.190376 
L 1003.434591 376.190376 
z
" clip-path="url(#p08143aad6e)" style="fill: #1f77b4"/>
   </g>
   <g id="patch_186">
    <path d="M 1028.568877 377.48 
L 1053.703162 377.48 
L 1053.703162 376.431601 
L 1028.568877 376.431601 
z
" clip-path="url(#p08143aad6e)" style="fill: #1f77b4"/>
   </g>
   <g id="patch_187">
    <path d="M 1053.703162 377.48 
L 1078.837448 377.48 
L 1078.837448 376.709937 
L 1053.703162 376.709937 
z
" clip-path="url(#p08143aad6e)" style="fill: #1f77b4"/>
   </g>
   <g id="patch_188">
    <path d="M 1078.837448 377.48 
L 1103.971733 377.48 
L 1103.971733 376.760965 
L 1078.837448 376.760965 
z
" clip-path="url(#p08143aad6e)" style="fill: #1f77b4"/>
   </g>
   <g id="patch_189">
    <path d="M 1103.971733 377.48 
L 1129.106018 377.48 
L 1129.106018 376.965078 
L 1103.971733 376.965078 
z
" clip-path="url(#p08143aad6e)" style="fill: #1f77b4"/>
   </g>
   <g id="patch_190">
    <path d="M 1129.106018 377.48 
L 1154.240304 377.48 
L 1154.240304 376.946522 
L 1129.106018 376.946522 
z
" clip-path="url(#p08143aad6e)" style="fill: #1f77b4"/>
   </g>
   <g id="patch_191">
    <path d="M 1154.240304 377.48 
L 1179.374589 377.48 
L 1179.374589 377.048579 
L 1154.240304 377.048579 
z
" clip-path="url(#p08143aad6e)" style="fill: #1f77b4"/>
   </g>
   <g id="patch_192">
    <path d="M 1179.374589 377.48 
L 1204.508875 377.48 
L 1204.508875 376.932606 
L 1179.374589 376.932606 
z
" clip-path="url(#p08143aad6e)" style="fill: #1f77b4"/>
   </g>
   <g id="patch_193">
    <path d="M 1204.508875 377.48 
L 1229.64316 377.48 
L 1229.64316 377.067135 
L 1204.508875 377.067135 
z
" clip-path="url(#p08143aad6e)" style="fill: #1f77b4"/>
   </g>
   <g id="patch_194">
    <path d="M 1229.64316 377.48 
L 1254.777446 377.48 
L 1254.777446 377.183108 
L 1229.64316 377.183108 
z
" clip-path="url(#p08143aad6e)" style="fill: #1f77b4"/>
   </g>
   <g id="patch_195">
    <path d="M 1254.777446 377.48 
L 1279.911731 377.48 
L 1279.911731 377.210942 
L 1254.777446 377.210942 
z
" clip-path="url(#p08143aad6e)" style="fill: #1f77b4"/>
   </g>
   <g id="patch_196">
    <path d="M 1279.911731 377.48 
L 1305.046017 377.48 
L 1305.046017 377.280526 
L 1279.911731 377.280526 
z
" clip-path="url(#p08143aad6e)" style="fill: #1f77b4"/>
   </g>
   <g id="patch_197">
    <path d="M 1305.046017 377.48 
L 1330.180302 377.48 
L 1330.180302 377.289804 
L 1305.046017 377.289804 
z
" clip-path="url(#p08143aad6e)" style="fill: #1f77b4"/>
   </g>
   <g id="patch_198">
    <path d="M 1330.180302 377.48 
L 1355.314588 377.48 
L 1355.314588 377.35011 
L 1330.180302 377.35011 
z
" clip-path="url(#p08143aad6e)" style="fill: #1f77b4"/>
   </g>
   <g id="patch_199">
    <path d="M 1355.314588 377.48 
L 1380.448873 377.48 
L 1380.448873 377.382582 
L 1355.314588 377.382582 
z
" clip-path="url(#p08143aad6e)" style="fill: #1f77b4"/>
   </g>
   <g id="patch_200">
    <path d="M 1380.448873 377.48 
L 1405.583158 377.48 
L 1405.583158 377.43825 
L 1380.448873 377.43825 
z
" clip-path="url(#p08143aad6e)" style="fill: #1f77b4"/>
   </g>
   <g id="patch_201">
    <path d="M 1405.583158 377.48 
L 1430.717444 377.48 
L 1430.717444 377.428972 
L 1405.583158 377.428972 
z
" clip-path="url(#p08143aad6e)" style="fill: #1f77b4"/>
   </g>
   <g id="patch_202">
    <path d="M 1430.717444 377.48 
L 1455.851729 377.48 
L 1455.851729 377.401138 
L 1430.717444 377.401138 
z
" clip-path="url(#p08143aad6e)" style="fill: #1f77b4"/>
   </g>
   <g id="patch_203">
    <path d="M 1455.851729 377.48 
L 1480.986015 377.48 
L 1480.986015 377.428972 
L 1455.851729 377.428972 
z
" clip-path="url(#p08143aad6e)" style="fill: #1f77b4"/>
   </g>
   <g id="patch_204">
    <path d="M 1480.986015 377.48 
L 1506.1203 377.48 
L 1506.1203 377.447527 
L 1480.986015 377.447527 
z
" clip-path="url(#p08143aad6e)" style="fill: #1f77b4"/>
   </g>
   <g id="patch_205">
    <path d="M 1506.1203 377.48 
L 1531.254586 377.48 
L 1531.254586 377.466083 
L 1506.1203 377.466083 
z
" clip-path="url(#p08143aad6e)" style="fill: #1f77b4"/>
   </g>
   <g id="patch_206">
    <path d="M 1531.254586 377.48 
L 1556.388871 377.48 
L 1556.388871 377.461444 
L 1531.254586 377.461444 
z
" clip-path="url(#p08143aad6e)" style="fill: #1f77b4"/>
   </g>
   <g id="patch_207">
    <path d="M 1556.388871 377.48 
L 1581.523157 377.48 
L 1581.523157 377.447527 
L 1556.388871 377.447527 
z
" clip-path="url(#p08143aad6e)" style="fill: #1f77b4"/>
   </g>
   <g id="patch_208">
    <path d="M 1581.523157 377.48 
L 1606.657442 377.48 
L 1606.657442 377.466083 
L 1581.523157 377.466083 
z
" clip-path="url(#p08143aad6e)" style="fill: #1f77b4"/>
   </g>
   <g id="patch_209">
    <path d="M 1606.657442 377.48 
L 1631.791728 377.48 
L 1631.791728 377.456805 
L 1606.657442 377.456805 
z
" clip-path="url(#p08143aad6e)" style="fill: #1f77b4"/>
   </g>
   <g id="patch_210">
    <path d="M 1631.791728 377.48 
L 1656.926013 377.48 
L 1656.926013 377.475361 
L 1631.791728 377.475361 
z
" clip-path="url(#p08143aad6e)" style="fill: #1f77b4"/>
   </g>
   <g id="patch_211">
    <path d="M 1656.926013 377.48 
L 1682.060299 377.48 
L 1682.060299 377.466083 
L 1656.926013 377.466083 
z
" clip-path="url(#p08143aad6e)" style="fill: #1f77b4"/>
   </g>
   <g id="patch_212">
    <path d="M 1682.060299 377.48 
L 1707.194584 377.48 
L 1707.194584 377.470722 
L 1682.060299 377.470722 
z
" clip-path="url(#p08143aad6e)" style="fill: #1f77b4"/>
   </g>
   <g id="patch_213">
    <path d="M 1707.194584 377.48 
L 1732.328869 377.48 
L 1732.328869 377.475361 
L 1707.194584 377.475361 
z
" clip-path="url(#p08143aad6e)" style="fill: #1f77b4"/>
   </g>
   <g id="patch_214">
    <path d="M 1732.328869 377.48 
L 1757.463155 377.48 
L 1757.463155 377.48 
L 1732.328869 377.48 
z
" clip-path="url(#p08143aad6e)" style="fill: #1f77b4"/>
   </g>
   <g id="patch_215">
    <path d="M 1757.463155 377.48 
L 1782.59744 377.48 
L 1782.59744 377.48 
L 1757.463155 377.48 
z
" clip-path="url(#p08143aad6e)" style="fill: #1f77b4"/>
   </g>
   <g id="patch_216">
    <path d="M 1782.59744 377.48 
L 1807.731726 377.48 
L 1807.731726 377.48 
L 1782.59744 377.48 
z
" clip-path="url(#p08143aad6e)" style="fill: #1f77b4"/>
   </g>
   <g id="patch_217">
    <path d="M 1807.731726 377.48 
L 1832.866011 377.48 
L 1832.866011 377.475361 
L 1807.731726 377.475361 
z
" clip-path="url(#p08143aad6e)" style="fill: #1f77b4"/>
   </g>
   <g id="matplotlib.axis_7">
    <g id="xtick_25">
     <g id="line2d_43">
      <g>
       <use xlink:href="#ma42e9884bf" x="572.6375" y="377.48" style="stroke: #000000; stroke-width: 0.8"/>
      </g>
     </g>
     <g id="text_24">
      <!-- 0.00 -->
      <g transform="translate(561.504688 392.078438) scale(0.1 -0.1)">
       <use xlink:href="#DejaVuSans-30"/>
       <use xlink:href="#DejaVuSans-2e" transform="translate(63.623047 0)"/>
       <use xlink:href="#DejaVuSans-30" transform="translate(95.410156 0)"/>
       <use xlink:href="#DejaVuSans-30" transform="translate(159.033203 0)"/>
      </g>
     </g>
    </g>
    <g id="xtick_26">
     <g id="line2d_44">
      <g>
       <use xlink:href="#ma42e9884bf" x="638.845833" y="377.48" style="stroke: #000000; stroke-width: 0.8"/>
      </g>
     </g>
     <g id="text_25">
      <!-- 0.02 -->
      <g transform="translate(627.713021 392.078438) scale(0.1 -0.1)">
       <use xlink:href="#DejaVuSans-30"/>
       <use xlink:href="#DejaVuSans-2e" transform="translate(63.623047 0)"/>
       <use xlink:href="#DejaVuSans-30" transform="translate(95.410156 0)"/>
       <use xlink:href="#DejaVuSans-32" transform="translate(159.033203 0)"/>
      </g>
     </g>
    </g>
    <g id="xtick_27">
     <g id="line2d_45">
      <g>
       <use xlink:href="#ma42e9884bf" x="705.054167" y="377.48" style="stroke: #000000; stroke-width: 0.8"/>
      </g>
     </g>
     <g id="text_26">
      <!-- 0.04 -->
      <g transform="translate(693.921354 392.078438) scale(0.1 -0.1)">
       <use xlink:href="#DejaVuSans-30"/>
       <use xlink:href="#DejaVuSans-2e" transform="translate(63.623047 0)"/>
       <use xlink:href="#DejaVuSans-30" transform="translate(95.410156 0)"/>
       <use xlink:href="#DejaVuSans-34" transform="translate(159.033203 0)"/>
      </g>
     </g>
    </g>
    <g id="xtick_28">
     <g id="line2d_46">
      <g>
       <use xlink:href="#ma42e9884bf" x="771.2625" y="377.48" style="stroke: #000000; stroke-width: 0.8"/>
      </g>
     </g>
     <g id="text_27">
      <!-- 0.06 -->
      <g transform="translate(760.129688 392.078438) scale(0.1 -0.1)">
       <use xlink:href="#DejaVuSans-30"/>
       <use xlink:href="#DejaVuSans-2e" transform="translate(63.623047 0)"/>
       <use xlink:href="#DejaVuSans-30" transform="translate(95.410156 0)"/>
       <use xlink:href="#DejaVuSans-36" transform="translate(159.033203 0)"/>
      </g>
     </g>
    </g>
    <g id="xtick_29">
     <g id="line2d_47">
      <g>
       <use xlink:href="#ma42e9884bf" x="837.470833" y="377.48" style="stroke: #000000; stroke-width: 0.8"/>
      </g>
     </g>
     <g id="text_28">
      <!-- 0.08 -->
      <g transform="translate(826.338021 392.078438) scale(0.1 -0.1)">
       <use xlink:href="#DejaVuSans-30"/>
       <use xlink:href="#DejaVuSans-2e" transform="translate(63.623047 0)"/>
       <use xlink:href="#DejaVuSans-30" transform="translate(95.410156 0)"/>
       <use xlink:href="#DejaVuSans-38" transform="translate(159.033203 0)"/>
      </g>
     </g>
    </g>
    <g id="xtick_30">
     <g id="line2d_48">
      <g>
       <use xlink:href="#ma42e9884bf" x="903.679167" y="377.48" style="stroke: #000000; stroke-width: 0.8"/>
      </g>
     </g>
     <g id="text_29">
      <!-- 0.10 -->
      <g transform="translate(892.546354 392.078438) scale(0.1 -0.1)">
       <use xlink:href="#DejaVuSans-30"/>
       <use xlink:href="#DejaVuSans-2e" transform="translate(63.623047 0)"/>
       <use xlink:href="#DejaVuSans-31" transform="translate(95.410156 0)"/>
       <use xlink:href="#DejaVuSans-30" transform="translate(159.033203 0)"/>
      </g>
     </g>
    </g>
    <g id="xtick_31">
     <g id="line2d_49">
      <g>
       <use xlink:href="#ma42e9884bf" x="969.8875" y="377.48" style="stroke: #000000; stroke-width: 0.8"/>
      </g>
     </g>
     <g id="text_30">
      <!-- 0.12 -->
      <g transform="translate(958.754688 392.078438) scale(0.1 -0.1)">
       <use xlink:href="#DejaVuSans-30"/>
       <use xlink:href="#DejaVuSans-2e" transform="translate(63.623047 0)"/>
       <use xlink:href="#DejaVuSans-31" transform="translate(95.410156 0)"/>
       <use xlink:href="#DejaVuSans-32" transform="translate(159.033203 0)"/>
      </g>
     </g>
    </g>
    <g id="xtick_32">
     <g id="line2d_50">
      <g>
       <use xlink:href="#ma42e9884bf" x="1036.095833" y="377.48" style="stroke: #000000; stroke-width: 0.8"/>
      </g>
     </g>
     <g id="text_31">
      <!-- 0.14 -->
      <g transform="translate(1024.963021 392.078438) scale(0.1 -0.1)">
       <use xlink:href="#DejaVuSans-30"/>
       <use xlink:href="#DejaVuSans-2e" transform="translate(63.623047 0)"/>
       <use xlink:href="#DejaVuSans-31" transform="translate(95.410156 0)"/>
       <use xlink:href="#DejaVuSans-34" transform="translate(159.033203 0)"/>
      </g>
     </g>
    </g>
   </g>
   <g id="matplotlib.axis_8">
    <g id="ytick_19">
     <g id="line2d_51">
      <g>
       <use xlink:href="#m08468320e6" x="572.6375" y="377.48" style="stroke: #000000; stroke-width: 0.8"/>
      </g>
     </g>
    </g>
    <g id="ytick_20">
     <g id="line2d_52">
      <g>
       <use xlink:href="#m08468320e6" x="572.6375" y="349.739557" style="stroke: #000000; stroke-width: 0.8"/>
      </g>
     </g>
    </g>
    <g id="ytick_21">
     <g id="line2d_53">
      <g>
       <use xlink:href="#m08468320e6" x="572.6375" y="321.999114" style="stroke: #000000; stroke-width: 0.8"/>
      </g>
     </g>
    </g>
    <g id="ytick_22">
     <g id="line2d_54">
      <g>
       <use xlink:href="#m08468320e6" x="572.6375" y="294.258671" style="stroke: #000000; stroke-width: 0.8"/>
      </g>
     </g>
    </g>
    <g id="ytick_23">
     <g id="line2d_55">
      <g>
       <use xlink:href="#m08468320e6" x="572.6375" y="266.518227" style="stroke: #000000; stroke-width: 0.8"/>
      </g>
     </g>
    </g>
    <g id="ytick_24">
     <g id="line2d_56">
      <g>
       <use xlink:href="#m08468320e6" x="572.6375" y="238.777784" style="stroke: #000000; stroke-width: 0.8"/>
      </g>
     </g>
    </g>
   </g>
   <g id="patch_218">
    <path d="M 572.6375 377.48 
L 572.6375 218.68 
" style="fill: none; stroke: #000000; stroke-width: 0.8; stroke-linejoin: miter; stroke-linecap: square"/>
   </g>
   <g id="patch_219">
    <path d="M 1069.2 377.48 
L 1069.2 218.68 
" style="fill: none; stroke: #000000; stroke-width: 0.8; stroke-linejoin: miter; stroke-linecap: square"/>
   </g>
   <g id="patch_220">
    <path d="M 572.6375 377.48 
L 1069.2 377.48 
" style="fill: none; stroke: #000000; stroke-width: 0.8; stroke-linejoin: miter; stroke-linecap: square"/>
   </g>
   <g id="patch_221">
    <path d="M 572.6375 218.68 
L 1069.2 218.68 
" style="fill: none; stroke: #000000; stroke-width: 0.8; stroke-linejoin: miter; stroke-linecap: square"/>
   </g>
   <g id="text_32">
    <!-- Inhomogeneous w/ Refractory Effects -->
    <g transform="translate(708.442188 212.68) scale(0.12 -0.12)">
     <use xlink:href="#DejaVuSans-49"/>
     <use xlink:href="#DejaVuSans-6e" transform="translate(29.492188 0)"/>
     <use xlink:href="#DejaVuSans-68" transform="translate(92.871094 0)"/>
     <use xlink:href="#DejaVuSans-6f" transform="translate(156.25 0)"/>
     <use xlink:href="#DejaVuSans-6d" transform="translate(217.431641 0)"/>
     <use xlink:href="#DejaVuSans-6f" transform="translate(314.84375 0)"/>
     <use xlink:href="#DejaVuSans-67" transform="translate(376.025391 0)"/>
     <use xlink:href="#DejaVuSans-65" transform="translate(439.501953 0)"/>
     <use xlink:href="#DejaVuSans-6e" transform="translate(501.025391 0)"/>
     <use xlink:href="#DejaVuSans-65" transform="translate(564.404297 0)"/>
     <use xlink:href="#DejaVuSans-6f" transform="translate(625.927734 0)"/>
     <use xlink:href="#DejaVuSans-75" transform="translate(687.109375 0)"/>
     <use xlink:href="#DejaVuSans-73" transform="translate(750.488281 0)"/>
     <use xlink:href="#DejaVuSans-20" transform="translate(802.587891 0)"/>
     <use xlink:href="#DejaVuSans-77" transform="translate(834.375 0)"/>
     <use xlink:href="#DejaVuSans-2f" transform="translate(916.162109 0)"/>
     <use xlink:href="#DejaVuSans-20" transform="translate(949.853516 0)"/>
     <use xlink:href="#DejaVuSans-52" transform="translate(981.640625 0)"/>
     <use xlink:href="#DejaVuSans-65" transform="translate(1046.623047 0)"/>
     <use xlink:href="#DejaVuSans-66" transform="translate(1108.146484 0)"/>
     <use xlink:href="#DejaVuSans-72" transform="translate(1143.351562 0)"/>
     <use xlink:href="#DejaVuSans-61" transform="translate(1184.464844 0)"/>
     <use xlink:href="#DejaVuSans-63" transform="translate(1245.744141 0)"/>
     <use xlink:href="#DejaVuSans-74" transform="translate(1300.724609 0)"/>
     <use xlink:href="#DejaVuSans-6f" transform="translate(1339.933594 0)"/>
     <use xlink:href="#DejaVuSans-72" transform="translate(1401.115234 0)"/>
     <use xlink:href="#DejaVuSans-79" transform="translate(1442.228516 0)"/>
     <use xlink:href="#DejaVuSans-20" transform="translate(1501.408203 0)"/>
     <use xlink:href="#DejaVuSans-45" transform="translate(1533.195312 0)"/>
     <use xlink:href="#DejaVuSans-66" transform="translate(1596.378906 0)"/>
     <use xlink:href="#DejaVuSans-66" transform="translate(1631.583984 0)"/>
     <use xlink:href="#DejaVuSans-65" transform="translate(1666.789062 0)"/>
     <use xlink:href="#DejaVuSans-63" transform="translate(1728.3125 0)"/>
     <use xlink:href="#DejaVuSans-74" transform="translate(1783.292969 0)"/>
     <use xlink:href="#DejaVuSans-73" transform="translate(1822.501953 0)"/>
    </g>
   </g>
  </g>
  <g id="text_33">
   <!-- Probability Density -->
   <g transform="translate(30.718125 272.431875) rotate(-90) scale(0.12 -0.12)">
    <defs>
     <path id="DejaVuSans-50" d="M 1259 4147 
L 1259 2394 
L 2053 2394 
Q 2494 2394 2734 2622 
Q 2975 2850 2975 3272 
Q 2975 3691 2734 3919 
Q 2494 4147 2053 4147 
L 1259 4147 
z
M 628 4666 
L 2053 4666 
Q 2838 4666 3239 4311 
Q 3641 3956 3641 3272 
Q 3641 2581 3239 2228 
Q 2838 1875 2053 1875 
L 1259 1875 
L 1259 0 
L 628 0 
L 628 4666 
z
" transform="scale(0.015625)"/>
     <path id="DejaVuSans-62" d="M 3116 1747 
Q 3116 2381 2855 2742 
Q 2594 3103 2138 3103 
Q 1681 3103 1420 2742 
Q 1159 2381 1159 1747 
Q 1159 1113 1420 752 
Q 1681 391 2138 391 
Q 2594 391 2855 752 
Q 3116 1113 3116 1747 
z
M 1159 2969 
Q 1341 3281 1617 3432 
Q 1894 3584 2278 3584 
Q 2916 3584 3314 3078 
Q 3713 2572 3713 1747 
Q 3713 922 3314 415 
Q 2916 -91 2278 -91 
Q 1894 -91 1617 61 
Q 1341 213 1159 525 
L 1159 0 
L 581 0 
L 581 4863 
L 1159 4863 
L 1159 2969 
z
" transform="scale(0.015625)"/>
     <path id="DejaVuSans-69" d="M 603 3500 
L 1178 3500 
L 1178 0 
L 603 0 
L 603 3500 
z
M 603 4863 
L 1178 4863 
L 1178 4134 
L 603 4134 
L 603 4863 
z
" transform="scale(0.015625)"/>
     <path id="DejaVuSans-6c" d="M 603 4863 
L 1178 4863 
L 1178 0 
L 603 0 
L 603 4863 
z
" transform="scale(0.015625)"/>
     <path id="DejaVuSans-44" d="M 1259 4147 
L 1259 519 
L 2022 519 
Q 2988 519 3436 956 
Q 3884 1394 3884 2338 
Q 3884 3275 3436 3711 
Q 2988 4147 2022 4147 
L 1259 4147 
z
M 628 4666 
L 1925 4666 
Q 3281 4666 3915 4102 
Q 4550 3538 4550 2338 
Q 4550 1131 3912 565 
Q 3275 0 1925 0 
L 628 0 
L 628 4666 
z
" transform="scale(0.015625)"/>
    </defs>
    <use xlink:href="#DejaVuSans-50"/>
    <use xlink:href="#DejaVuSans-72" transform="translate(58.552734 0)"/>
    <use xlink:href="#DejaVuSans-6f" transform="translate(97.416016 0)"/>
    <use xlink:href="#DejaVuSans-62" transform="translate(158.597656 0)"/>
    <use xlink:href="#DejaVuSans-61" transform="translate(222.074219 0)"/>
    <use xlink:href="#DejaVuSans-62" transform="translate(283.353516 0)"/>
    <use xlink:href="#DejaVuSans-69" transform="translate(346.830078 0)"/>
    <use xlink:href="#DejaVuSans-6c" transform="translate(374.613281 0)"/>
    <use xlink:href="#DejaVuSans-69" transform="translate(402.396484 0)"/>
    <use xlink:href="#DejaVuSans-74" transform="translate(430.179688 0)"/>
    <use xlink:href="#DejaVuSans-79" transform="translate(469.388672 0)"/>
    <use xlink:href="#DejaVuSans-20" transform="translate(528.568359 0)"/>
    <use xlink:href="#DejaVuSans-44" transform="translate(560.355469 0)"/>
    <use xlink:href="#DejaVuSans-65" transform="translate(637.357422 0)"/>
    <use xlink:href="#DejaVuSans-6e" transform="translate(698.880859 0)"/>
    <use xlink:href="#DejaVuSans-73" transform="translate(762.259766 0)"/>
    <use xlink:href="#DejaVuSans-69" transform="translate(814.359375 0)"/>
    <use xlink:href="#DejaVuSans-74" transform="translate(842.142578 0)"/>
    <use xlink:href="#DejaVuSans-79" transform="translate(881.351562 0)"/>
   </g>
  </g>
  <g id="text_34">
   <!-- Interspike Interval ($s$) -->
   <g transform="translate(475.5 425.16) scale(0.12 -0.12)">
    <defs>
     <path id="DejaVuSans-70" d="M 1159 525 
L 1159 -1331 
L 581 -1331 
L 581 3500 
L 1159 3500 
L 1159 2969 
Q 1341 3281 1617 3432 
Q 1894 3584 2278 3584 
Q 2916 3584 3314 3078 
Q 3713 2572 3713 1747 
Q 3713 922 3314 415 
Q 2916 -91 2278 -91 
Q 1894 -91 1617 61 
Q 1341 213 1159 525 
z
M 3116 1747 
Q 3116 2381 2855 2742 
Q 2594 3103 2138 3103 
Q 1681 3103 1420 2742 
Q 1159 2381 1159 1747 
Q 1159 1113 1420 752 
Q 1681 391 2138 391 
Q 2594 391 2855 752 
Q 3116 1113 3116 1747 
z
" transform="scale(0.015625)"/>
     <path id="DejaVuSans-6b" d="M 581 4863 
L 1159 4863 
L 1159 1991 
L 2875 3500 
L 3609 3500 
L 1753 1863 
L 3688 0 
L 2938 0 
L 1159 1709 
L 1159 0 
L 581 0 
L 581 4863 
z
" transform="scale(0.015625)"/>
     <path id="DejaVuSans-76" d="M 191 3500 
L 800 3500 
L 1894 563 
L 2988 3500 
L 3597 3500 
L 2284 0 
L 1503 0 
L 191 3500 
z
" transform="scale(0.015625)"/>
     <path id="DejaVuSans-28" d="M 1984 4856 
Q 1566 4138 1362 3434 
Q 1159 2731 1159 2009 
Q 1159 1288 1364 580 
Q 1569 -128 1984 -844 
L 1484 -844 
Q 1016 -109 783 600 
Q 550 1309 550 2009 
Q 550 2706 781 3412 
Q 1013 4119 1484 4856 
L 1984 4856 
z
" transform="scale(0.015625)"/>
     <path id="DejaVuSans-Oblique-73" d="M 3200 3397 
L 3091 2853 
Q 2863 2978 2609 3040 
Q 2356 3103 2088 3103 
Q 1634 3103 1373 2948 
Q 1113 2794 1113 2528 
Q 1113 2219 1719 2053 
Q 1766 2041 1788 2034 
L 1972 1978 
Q 2547 1819 2739 1644 
Q 2931 1469 2931 1166 
Q 2931 609 2489 259 
Q 2047 -91 1331 -91 
Q 1053 -91 747 -37 
Q 441 16 72 128 
L 184 722 
Q 500 559 806 475 
Q 1113 391 1394 391 
Q 1816 391 2080 572 
Q 2344 753 2344 1031 
Q 2344 1331 1650 1516 
L 1591 1531 
L 1394 1581 
Q 956 1697 753 1886 
Q 550 2075 550 2369 
Q 550 2928 970 3256 
Q 1391 3584 2113 3584 
Q 2397 3584 2667 3537 
Q 2938 3491 3200 3397 
z
" transform="scale(0.015625)"/>
     <path id="DejaVuSans-29" d="M 513 4856 
L 1013 4856 
Q 1481 4119 1714 3412 
Q 1947 2706 1947 2009 
Q 1947 1309 1714 600 
Q 1481 -109 1013 -844 
L 513 -844 
Q 928 -128 1133 580 
Q 1338 1288 1338 2009 
Q 1338 2731 1133 3434 
Q 928 4138 513 4856 
z
" transform="scale(0.015625)"/>
    </defs>
    <use xlink:href="#DejaVuSans-49" transform="translate(0 0.015625)"/>
    <use xlink:href="#DejaVuSans-6e" transform="translate(29.492188 0.015625)"/>
    <use xlink:href="#DejaVuSans-74" transform="translate(92.871094 0.015625)"/>
    <use xlink:href="#DejaVuSans-65" transform="translate(132.080078 0.015625)"/>
    <use xlink:href="#DejaVuSans-72" transform="translate(193.603516 0.015625)"/>
    <use xlink:href="#DejaVuSans-73" transform="translate(234.716797 0.015625)"/>
    <use xlink:href="#DejaVuSans-70" transform="translate(286.816406 0.015625)"/>
    <use xlink:href="#DejaVuSans-69" transform="translate(350.292969 0.015625)"/>
    <use xlink:href="#DejaVuSans-6b" transform="translate(378.076172 0.015625)"/>
    <use xlink:href="#DejaVuSans-65" transform="translate(435.986328 0.015625)"/>
    <use xlink:href="#DejaVuSans-20" transform="translate(497.509766 0.015625)"/>
    <use xlink:href="#DejaVuSans-49" transform="translate(529.296875 0.015625)"/>
    <use xlink:href="#DejaVuSans-6e" transform="translate(558.789062 0.015625)"/>
    <use xlink:href="#DejaVuSans-74" transform="translate(622.167969 0.015625)"/>
    <use xlink:href="#DejaVuSans-65" transform="translate(661.376953 0.015625)"/>
    <use xlink:href="#DejaVuSans-72" transform="translate(722.900391 0.015625)"/>
    <use xlink:href="#DejaVuSans-76" transform="translate(764.013672 0.015625)"/>
    <use xlink:href="#DejaVuSans-61" transform="translate(823.193359 0.015625)"/>
    <use xlink:href="#DejaVuSans-6c" transform="translate(884.472656 0.015625)"/>
    <use xlink:href="#DejaVuSans-20" transform="translate(912.255859 0.015625)"/>
    <use xlink:href="#DejaVuSans-28" transform="translate(944.042969 0.015625)"/>
    <use xlink:href="#DejaVuSans-Oblique-73" transform="translate(983.056641 0.015625)"/>
    <use xlink:href="#DejaVuSans-29" transform="translate(1035.15625 0.015625)"/>
   </g>
  </g>
 </g>
 <defs>
  <clipPath id="pb8c667073e">
   <rect x="54.25" y="26.88" width="496.5625" height="158.8"/>
  </clipPath>
  <clipPath id="p80be112371">
   <rect x="572.6375" y="26.88" width="496.5625" height="158.8"/>
  </clipPath>
  <clipPath id="pf915965a6a">
   <rect x="54.25" y="218.68" width="496.5625" height="158.8"/>
  </clipPath>
  <clipPath id="p08143aad6e">
   <rect x="572.6375" y="218.68" width="496.5625" height="158.8"/>
  </clipPath>
 </defs>
</svg>
