<?xml version="1.0" encoding="utf-8" standalone="no"?>
<!DOCTYPE svg PUBLIC "-//W3C//DTD SVG 1.1//EN"
  "http://www.w3.org/Graphics/SVG/1.1/DTD/svg11.dtd">
<svg xmlns:xlink="http://www.w3.org/1999/xlink" width="568.789375pt" height="426.15625pt" viewBox="0 0 568.789375 426.15625" xmlns="http://www.w3.org/2000/svg" version="1.1">
 <metadata>
  <rdf:RDF xmlns:dc="http://purl.org/dc/elements/1.1/" xmlns:cc="http://creativecommons.org/ns#" xmlns:rdf="http://www.w3.org/1999/02/22-rdf-syntax-ns#">
   <cc:Work>
    <dc:type rdf:resource="http://purl.org/dc/dcmitype/StillImage"/>
    <dc:date>2025-05-18T03:42:15.543317</dc:date>
    <dc:format>image/svg+xml</dc:format>
    <dc:creator>
     <cc:Agent>
      <dc:title>Matplotlib v3.10.1, https://matplotlib.org/</dc:title>
     </cc:Agent>
    </dc:creator>
   </cc:Work>
  </rdf:RDF>
 </metadata>
 <defs>
  <style type="text/css">*{stroke-linejoin: round; stroke-linecap: butt}</style>
 </defs>
 <g id="figure_1">
  <g id="patch_1">
   <path d="M 0 426.15625 
L 568.789375 426.15625 
L 568.789375 0 
L 0 0 
L 0 426.15625 
z
" style="fill: none"/>
  </g>
  <g id="axes_1">
   <g id="patch_2">
    <path d="M 58.790625 111.056698 
L 561.589375 111.056698 
L 561.589375 33.793043 
L 58.790625 33.793043 
L 58.790625 111.056698 
z
" style="fill: none"/>
   </g>
   <g id="matplotlib.axis_1">
    <g id="xtick_1">
     <g id="line2d_1">
      <path d="M 81.645114 111.056698 
L 81.645114 33.793043 
" clip-path="url(#p17250cc54f)" style="fill: none; stroke: #b0b0b0; stroke-width: 0.8; stroke-linecap: square"/>
     </g>
     <g id="line2d_2">
      <defs>
       <path id="m264e69941d" d="M 0 0 
L 0 3.5 
" style="stroke: #000000; stroke-width: 0.8"/>
      </defs>
      <g>
       <use xlink:href="#m264e69941d" x="81.645114" y="111.056698" style="stroke: #000000; stroke-width: 0.8"/>
      </g>
     </g>
    </g>
    <g id="xtick_2">
     <g id="line2d_3">
      <path d="M 173.063068 111.056698 
L 173.063068 33.793043 
" clip-path="url(#p17250cc54f)" style="fill: none; stroke: #b0b0b0; stroke-width: 0.8; stroke-linecap: square"/>
     </g>
     <g id="line2d_4">
      <g>
       <use xlink:href="#m264e69941d" x="173.063068" y="111.056698" style="stroke: #000000; stroke-width: 0.8"/>
      </g>
     </g>
    </g>
    <g id="xtick_3">
     <g id="line2d_5">
      <path d="M 264.481023 111.056698 
L 264.481023 33.793043 
" clip-path="url(#p17250cc54f)" style="fill: none; stroke: #b0b0b0; stroke-width: 0.8; stroke-linecap: square"/>
     </g>
     <g id="line2d_6">
      <g>
       <use xlink:href="#m264e69941d" x="264.481023" y="111.056698" style="stroke: #000000; stroke-width: 0.8"/>
      </g>
     </g>
    </g>
    <g id="xtick_4">
     <g id="line2d_7">
      <path d="M 355.898977 111.056698 
L 355.898977 33.793043 
" clip-path="url(#p17250cc54f)" style="fill: none; stroke: #b0b0b0; stroke-width: 0.8; stroke-linecap: square"/>
     </g>
     <g id="line2d_8">
      <g>
       <use xlink:href="#m264e69941d" x="355.898977" y="111.056698" style="stroke: #000000; stroke-width: 0.8"/>
      </g>
     </g>
    </g>
    <g id="xtick_5">
     <g id="line2d_9">
      <path d="M 447.316932 111.056698 
L 447.316932 33.793043 
" clip-path="url(#p17250cc54f)" style="fill: none; stroke: #b0b0b0; stroke-width: 0.8; stroke-linecap: square"/>
     </g>
     <g id="line2d_10">
      <g>
       <use xlink:href="#m264e69941d" x="447.316932" y="111.056698" style="stroke: #000000; stroke-width: 0.8"/>
      </g>
     </g>
    </g>
    <g id="xtick_6">
     <g id="line2d_11">
      <path d="M 538.734886 111.056698 
L 538.734886 33.793043 
" clip-path="url(#p17250cc54f)" style="fill: none; stroke: #b0b0b0; stroke-width: 0.8; stroke-linecap: square"/>
     </g>
     <g id="line2d_12">
      <g>
       <use xlink:href="#m264e69941d" x="538.734886" y="111.056698" style="stroke: #000000; stroke-width: 0.8"/>
      </g>
     </g>
    </g>
   </g>
   <g id="matplotlib.axis_2">
    <g id="ytick_1">
     <g id="line2d_13">
      <path d="M 58.790625 91.335556 
L 561.589375 91.335556 
" clip-path="url(#p17250cc54f)" style="fill: none; stroke: #b0b0b0; stroke-width: 0.8; stroke-linecap: square"/>
     </g>
     <g id="line2d_14">
      <defs>
       <path id="m89f0772ba1" d="M 0 0 
L -3.5 0 
" style="stroke: #000000; stroke-width: 0.8"/>
      </defs>
      <g>
       <use xlink:href="#m89f0772ba1" x="58.790625" y="91.335556" style="stroke: #000000; stroke-width: 0.8"/>
      </g>
     </g>
     <g id="text_1">
      <!-- −50 -->
      <g transform="translate(30.685938 95.134774) scale(0.1 -0.1)">
       <defs>
        <path id="DejaVuSans-2212" d="M 678 2272 
L 4684 2272 
L 4684 1741 
L 678 1741 
L 678 2272 
z
" transform="scale(0.015625)"/>
        <path id="DejaVuSans-35" d="M 691 4666 
L 3169 4666 
L 3169 4134 
L 1269 4134 
L 1269 2991 
Q 1406 3038 1543 3061 
Q 1681 3084 1819 3084 
Q 2600 3084 3056 2656 
Q 3513 2228 3513 1497 
Q 3513 744 3044 326 
Q 2575 -91 1722 -91 
Q 1428 -91 1123 -41 
Q 819 9 494 109 
L 494 744 
Q 775 591 1075 516 
Q 1375 441 1709 441 
Q 2250 441 2565 725 
Q 2881 1009 2881 1497 
Q 2881 1984 2565 2268 
Q 2250 2553 1709 2553 
Q 1456 2553 1204 2497 
Q 953 2441 691 2322 
L 691 4666 
z
" transform="scale(0.015625)"/>
        <path id="DejaVuSans-30" d="M 2034 4250 
Q 1547 4250 1301 3770 
Q 1056 3291 1056 2328 
Q 1056 1369 1301 889 
Q 1547 409 2034 409 
Q 2525 409 2770 889 
Q 3016 1369 3016 2328 
Q 3016 3291 2770 3770 
Q 2525 4250 2034 4250 
z
M 2034 4750 
Q 2819 4750 3233 4129 
Q 3647 3509 3647 2328 
Q 3647 1150 3233 529 
Q 2819 -91 2034 -91 
Q 1250 -91 836 529 
Q 422 1150 422 2328 
Q 422 3509 836 4129 
Q 1250 4750 2034 4750 
z
" transform="scale(0.015625)"/>
       </defs>
       <use xlink:href="#DejaVuSans-2212"/>
       <use xlink:href="#DejaVuSans-35" transform="translate(83.789062 0)"/>
       <use xlink:href="#DejaVuSans-30" transform="translate(147.412109 0)"/>
      </g>
     </g>
    </g>
    <g id="ytick_2">
     <g id="line2d_15">
      <path d="M 58.790625 64.320292 
L 561.589375 64.320292 
" clip-path="url(#p17250cc54f)" style="fill: none; stroke: #b0b0b0; stroke-width: 0.8; stroke-linecap: square"/>
     </g>
     <g id="line2d_16">
      <g>
       <use xlink:href="#m89f0772ba1" x="58.790625" y="64.320292" style="stroke: #000000; stroke-width: 0.8"/>
      </g>
     </g>
     <g id="text_2">
      <!-- −25 -->
      <g transform="translate(30.685938 68.11951) scale(0.1 -0.1)">
       <defs>
        <path id="DejaVuSans-32" d="M 1228 531 
L 3431 531 
L 3431 0 
L 469 0 
L 469 531 
Q 828 903 1448 1529 
Q 2069 2156 2228 2338 
Q 2531 2678 2651 2914 
Q 2772 3150 2772 3378 
Q 2772 3750 2511 3984 
Q 2250 4219 1831 4219 
Q 1534 4219 1204 4116 
Q 875 4013 500 3803 
L 500 4441 
Q 881 4594 1212 4672 
Q 1544 4750 1819 4750 
Q 2544 4750 2975 4387 
Q 3406 4025 3406 3419 
Q 3406 3131 3298 2873 
Q 3191 2616 2906 2266 
Q 2828 2175 2409 1742 
Q 1991 1309 1228 531 
z
" transform="scale(0.015625)"/>
       </defs>
       <use xlink:href="#DejaVuSans-2212"/>
       <use xlink:href="#DejaVuSans-32" transform="translate(83.789062 0)"/>
       <use xlink:href="#DejaVuSans-35" transform="translate(147.412109 0)"/>
      </g>
     </g>
    </g>
    <g id="ytick_3">
     <g id="line2d_17">
      <path d="M 58.790625 37.305028 
L 561.589375 37.305028 
" clip-path="url(#p17250cc54f)" style="fill: none; stroke: #b0b0b0; stroke-width: 0.8; stroke-linecap: square"/>
     </g>
     <g id="line2d_18">
      <g>
       <use xlink:href="#m89f0772ba1" x="58.790625" y="37.305028" style="stroke: #000000; stroke-width: 0.8"/>
      </g>
     </g>
     <g id="text_3">
      <!-- 0 -->
      <g transform="translate(45.428125 41.104247) scale(0.1 -0.1)">
       <use xlink:href="#DejaVuSans-30"/>
      </g>
     </g>
    </g>
    <g id="text_4">
     <!-- V_A (mV) -->
     <g transform="translate(24.328125 95.546746) rotate(-90) scale(0.1 -0.1)">
      <defs>
       <path id="DejaVuSans-56" d="M 1831 0 
L 50 4666 
L 709 4666 
L 2188 738 
L 3669 4666 
L 4325 4666 
L 2547 0 
L 1831 0 
z
" transform="scale(0.015625)"/>
       <path id="DejaVuSans-5f" d="M 3263 -1063 
L 3263 -1509 
L -63 -1509 
L -63 -1063 
L 3263 -1063 
z
" transform="scale(0.015625)"/>
       <path id="DejaVuSans-41" d="M 2188 4044 
L 1331 1722 
L 3047 1722 
L 2188 4044 
z
M 1831 4666 
L 2547 4666 
L 4325 0 
L 3669 0 
L 3244 1197 
L 1141 1197 
L 716 0 
L 50 0 
L 1831 4666 
z
" transform="scale(0.015625)"/>
       <path id="DejaVuSans-20" transform="scale(0.015625)"/>
       <path id="DejaVuSans-28" d="M 1984 4856 
Q 1566 4138 1362 3434 
Q 1159 2731 1159 2009 
Q 1159 1288 1364 580 
Q 1569 -128 1984 -844 
L 1484 -844 
Q 1016 -109 783 600 
Q 550 1309 550 2009 
Q 550 2706 781 3412 
Q 1013 4119 1484 4856 
L 1984 4856 
z
" transform="scale(0.015625)"/>
       <path id="DejaVuSans-6d" d="M 3328 2828 
Q 3544 3216 3844 3400 
Q 4144 3584 4550 3584 
Q 5097 3584 5394 3201 
Q 5691 2819 5691 2113 
L 5691 0 
L 5113 0 
L 5113 2094 
Q 5113 2597 4934 2840 
Q 4756 3084 4391 3084 
Q 3944 3084 3684 2787 
Q 3425 2491 3425 1978 
L 3425 0 
L 2847 0 
L 2847 2094 
Q 2847 2600 2669 2842 
Q 2491 3084 2119 3084 
Q 1678 3084 1418 2786 
Q 1159 2488 1159 1978 
L 1159 0 
L 581 0 
L 581 3500 
L 1159 3500 
L 1159 2956 
Q 1356 3278 1631 3431 
Q 1906 3584 2284 3584 
Q 2666 3584 2933 3390 
Q 3200 3197 3328 2828 
z
" transform="scale(0.015625)"/>
       <path id="DejaVuSans-29" d="M 513 4856 
L 1013 4856 
Q 1481 4119 1714 3412 
Q 1947 2706 1947 2009 
Q 1947 1309 1714 600 
Q 1481 -109 1013 -844 
L 513 -844 
Q 928 -128 1133 580 
Q 1338 1288 1338 2009 
Q 1338 2731 1133 3434 
Q 928 4138 513 4856 
z
" transform="scale(0.015625)"/>
      </defs>
      <use xlink:href="#DejaVuSans-56"/>
      <use xlink:href="#DejaVuSans-5f" transform="translate(68.408203 0)"/>
      <use xlink:href="#DejaVuSans-41" transform="translate(118.408203 0)"/>
      <use xlink:href="#DejaVuSans-20" transform="translate(186.816406 0)"/>
      <use xlink:href="#DejaVuSans-28" transform="translate(218.603516 0)"/>
      <use xlink:href="#DejaVuSans-6d" transform="translate(257.617188 0)"/>
      <use xlink:href="#DejaVuSans-56" transform="translate(355.029297 0)"/>
      <use xlink:href="#DejaVuSans-29" transform="translate(423.4375 0)"/>
     </g>
    </g>
   </g>
   <g id="line2d_19">
    <path d="M 81.645114 107.544714 
L 86.216011 104.973872 
L 90.786909 102.647677 
L 95.814897 100.343713 
L 100.842884 98.279743 
L 106.327961 96.272548 
L 112.270128 94.353392 
L 118.212295 92.668191 
L 123.240283 91.403748 
L 123.697373 37.305028 
L 124.154462 107.275908 
L 128.72536 104.730646 
L 133.296258 102.427597 
L 138.324245 100.146558 
L 143.352233 98.103125 
L 148.83731 96.115901 
L 154.779477 94.215842 
L 160.721644 92.547408 
L 165.292542 91.403748 
L 165.749632 37.305028 
L 166.206722 107.275908 
L 170.777619 104.730646 
L 175.348517 102.427597 
L 180.376505 100.146558 
L 185.404492 98.103125 
L 190.889569 96.115901 
L 196.831736 94.215842 
L 202.773903 92.547408 
L 207.344801 91.403748 
L 207.801891 37.305028 
L 208.258981 107.275908 
L 212.829878 104.730646 
L 217.400776 102.427597 
L 222.428764 100.146558 
L 227.456751 98.103125 
L 232.941828 96.115901 
L 238.883995 94.215842 
L 244.826162 92.547408 
L 249.39706 91.403748 
L 249.85415 37.305028 
L 250.31124 107.275908 
L 254.882137 104.730646 
L 259.453035 102.427597 
L 264.481023 100.146558 
L 269.50901 98.103125 
L 274.994087 96.115901 
L 280.936255 94.215842 
L 286.878422 92.547408 
L 291.449319 91.403748 
L 291.906409 37.305028 
L 292.363499 107.275908 
L 296.934397 104.730646 
L 301.505294 102.427597 
L 306.533282 100.146558 
L 311.561269 98.103125 
L 317.046347 96.115901 
L 322.988514 94.215842 
L 328.930681 92.547408 
L 333.501578 91.403748 
L 333.958668 37.305028 
L 334.415758 107.275908 
L 338.986656 104.730646 
L 343.557553 102.427597 
L 348.585541 100.146558 
L 353.613528 98.103125 
L 359.098606 96.115901 
L 365.040773 94.215842 
L 370.98294 92.547408 
L 375.553837 91.403748 
L 376.010927 37.305028 
L 376.468017 107.275908 
L 381.038915 104.730646 
L 385.609812 102.427597 
L 390.6378 100.146558 
L 395.665787 98.103125 
L 401.150865 96.115901 
L 407.093032 94.215842 
L 413.035199 92.547408 
L 417.606097 91.403748 
L 418.063186 37.305028 
L 418.520276 107.275908 
L 423.091174 104.730646 
L 427.662072 102.427597 
L 432.690059 100.146558 
L 437.718047 98.103125 
L 443.203124 96.115901 
L 449.145291 94.215842 
L 455.087458 92.547408 
L 459.658356 91.403748 
L 460.115445 37.305028 
L 460.572535 107.275908 
L 465.143433 104.730646 
L 469.714331 102.427597 
L 474.742318 100.146558 
L 479.770306 98.103125 
L 485.255383 96.115901 
L 491.19755 94.215842 
L 497.139717 92.547408 
L 501.710615 91.403748 
L 502.167705 37.305028 
L 502.624794 107.275908 
L 507.195692 104.730646 
L 511.76659 102.427597 
L 516.794577 100.146558 
L 521.822565 98.103125 
L 527.307642 96.115901 
L 533.249809 94.215842 
L 538.734886 92.668191 
L 538.734886 92.668191 
" clip-path="url(#p17250cc54f)" style="fill: none; stroke: #1f77b4; stroke-width: 1.5; stroke-linecap: square"/>
   </g>
   <g id="patch_3">
    <path d="M 58.790625 111.056698 
L 58.790625 33.793043 
" style="fill: none; stroke: #000000; stroke-width: 0.8; stroke-linejoin: miter; stroke-linecap: square"/>
   </g>
   <g id="patch_4">
    <path d="M 561.589375 111.056698 
L 561.589375 33.793043 
" style="fill: none; stroke: #000000; stroke-width: 0.8; stroke-linejoin: miter; stroke-linecap: square"/>
   </g>
   <g id="patch_5">
    <path d="M 58.790625 111.056698 
L 561.589375 111.056698 
" style="fill: none; stroke: #000000; stroke-width: 0.8; stroke-linejoin: miter; stroke-linecap: square"/>
   </g>
   <g id="patch_6">
    <path d="M 58.790625 33.793043 
L 561.589375 33.793043 
" style="fill: none; stroke: #000000; stroke-width: 0.8; stroke-linejoin: miter; stroke-linecap: square"/>
   </g>
  </g>
  <g id="axes_2">
   <g id="patch_7">
    <path d="M 58.790625 203.571132 
L 561.589375 203.571132 
L 561.589375 126.307477 
L 58.790625 126.307477 
L 58.790625 203.571132 
z
" style="fill: none"/>
   </g>
   <g id="matplotlib.axis_3">
    <g id="xtick_7">
     <g id="line2d_20">
      <path d="M 81.645114 203.571132 
L 81.645114 126.307477 
" clip-path="url(#p12796f0614)" style="fill: none; stroke: #b0b0b0; stroke-width: 0.8; stroke-linecap: square"/>
     </g>
     <g id="line2d_21">
      <g>
       <use xlink:href="#m264e69941d" x="81.645114" y="203.571132" style="stroke: #000000; stroke-width: 0.8"/>
      </g>
     </g>
    </g>
    <g id="xtick_8">
     <g id="line2d_22">
      <path d="M 173.063068 203.571132 
L 173.063068 126.307477 
" clip-path="url(#p12796f0614)" style="fill: none; stroke: #b0b0b0; stroke-width: 0.8; stroke-linecap: square"/>
     </g>
     <g id="line2d_23">
      <g>
       <use xlink:href="#m264e69941d" x="173.063068" y="203.571132" style="stroke: #000000; stroke-width: 0.8"/>
      </g>
     </g>
    </g>
    <g id="xtick_9">
     <g id="line2d_24">
      <path d="M 264.481023 203.571132 
L 264.481023 126.307477 
" clip-path="url(#p12796f0614)" style="fill: none; stroke: #b0b0b0; stroke-width: 0.8; stroke-linecap: square"/>
     </g>
     <g id="line2d_25">
      <g>
       <use xlink:href="#m264e69941d" x="264.481023" y="203.571132" style="stroke: #000000; stroke-width: 0.8"/>
      </g>
     </g>
    </g>
    <g id="xtick_10">
     <g id="line2d_26">
      <path d="M 355.898977 203.571132 
L 355.898977 126.307477 
" clip-path="url(#p12796f0614)" style="fill: none; stroke: #b0b0b0; stroke-width: 0.8; stroke-linecap: square"/>
     </g>
     <g id="line2d_27">
      <g>
       <use xlink:href="#m264e69941d" x="355.898977" y="203.571132" style="stroke: #000000; stroke-width: 0.8"/>
      </g>
     </g>
    </g>
    <g id="xtick_11">
     <g id="line2d_28">
      <path d="M 447.316932 203.571132 
L 447.316932 126.307477 
" clip-path="url(#p12796f0614)" style="fill: none; stroke: #b0b0b0; stroke-width: 0.8; stroke-linecap: square"/>
     </g>
     <g id="line2d_29">
      <g>
       <use xlink:href="#m264e69941d" x="447.316932" y="203.571132" style="stroke: #000000; stroke-width: 0.8"/>
      </g>
     </g>
    </g>
    <g id="xtick_12">
     <g id="line2d_30">
      <path d="M 538.734886 203.571132 
L 538.734886 126.307477 
" clip-path="url(#p12796f0614)" style="fill: none; stroke: #b0b0b0; stroke-width: 0.8; stroke-linecap: square"/>
     </g>
     <g id="line2d_31">
      <g>
       <use xlink:href="#m264e69941d" x="538.734886" y="203.571132" style="stroke: #000000; stroke-width: 0.8"/>
      </g>
     </g>
    </g>
   </g>
   <g id="matplotlib.axis_4">
    <g id="ytick_4">
     <g id="line2d_32">
      <path d="M 58.790625 176.547003 
L 561.589375 176.547003 
" clip-path="url(#p12796f0614)" style="fill: none; stroke: #b0b0b0; stroke-width: 0.8; stroke-linecap: square"/>
     </g>
     <g id="line2d_33">
      <g>
       <use xlink:href="#m89f0772ba1" x="58.790625" y="176.547003" style="stroke: #000000; stroke-width: 0.8"/>
      </g>
     </g>
     <g id="text_5">
      <!-- −60 -->
      <g transform="translate(30.685938 180.346221) scale(0.1 -0.1)">
       <defs>
        <path id="DejaVuSans-36" d="M 2113 2584 
Q 1688 2584 1439 2293 
Q 1191 2003 1191 1497 
Q 1191 994 1439 701 
Q 1688 409 2113 409 
Q 2538 409 2786 701 
Q 3034 994 3034 1497 
Q 3034 2003 2786 2293 
Q 2538 2584 2113 2584 
z
M 3366 4563 
L 3366 3988 
Q 3128 4100 2886 4159 
Q 2644 4219 2406 4219 
Q 1781 4219 1451 3797 
Q 1122 3375 1075 2522 
Q 1259 2794 1537 2939 
Q 1816 3084 2150 3084 
Q 2853 3084 3261 2657 
Q 3669 2231 3669 1497 
Q 3669 778 3244 343 
Q 2819 -91 2113 -91 
Q 1303 -91 875 529 
Q 447 1150 447 2328 
Q 447 3434 972 4092 
Q 1497 4750 2381 4750 
Q 2619 4750 2861 4703 
Q 3103 4656 3366 4563 
z
" transform="scale(0.015625)"/>
       </defs>
       <use xlink:href="#DejaVuSans-2212"/>
       <use xlink:href="#DejaVuSans-36" transform="translate(83.789062 0)"/>
       <use xlink:href="#DejaVuSans-30" transform="translate(147.412109 0)"/>
      </g>
     </g>
    </g>
    <g id="ytick_5">
     <g id="line2d_34">
      <path d="M 58.790625 129.522712 
L 561.589375 129.522712 
" clip-path="url(#p12796f0614)" style="fill: none; stroke: #b0b0b0; stroke-width: 0.8; stroke-linecap: square"/>
     </g>
     <g id="line2d_35">
      <g>
       <use xlink:href="#m89f0772ba1" x="58.790625" y="129.522712" style="stroke: #000000; stroke-width: 0.8"/>
      </g>
     </g>
     <g id="text_6">
      <!-- −50 -->
      <g transform="translate(30.685938 133.321931) scale(0.1 -0.1)">
       <use xlink:href="#DejaVuSans-2212"/>
       <use xlink:href="#DejaVuSans-35" transform="translate(83.789062 0)"/>
       <use xlink:href="#DejaVuSans-30" transform="translate(147.412109 0)"/>
      </g>
     </g>
    </g>
    <g id="text_7">
     <!-- V_B (mV) -->
     <g transform="translate(24.328125 188.071336) rotate(-90) scale(0.1 -0.1)">
      <defs>
       <path id="DejaVuSans-42" d="M 1259 2228 
L 1259 519 
L 2272 519 
Q 2781 519 3026 730 
Q 3272 941 3272 1375 
Q 3272 1813 3026 2020 
Q 2781 2228 2272 2228 
L 1259 2228 
z
M 1259 4147 
L 1259 2741 
L 2194 2741 
Q 2656 2741 2882 2914 
Q 3109 3088 3109 3444 
Q 3109 3797 2882 3972 
Q 2656 4147 2194 4147 
L 1259 4147 
z
M 628 4666 
L 2241 4666 
Q 2963 4666 3353 4366 
Q 3744 4066 3744 3513 
Q 3744 3084 3544 2831 
Q 3344 2578 2956 2516 
Q 3422 2416 3680 2098 
Q 3938 1781 3938 1306 
Q 3938 681 3513 340 
Q 3088 0 2303 0 
L 628 0 
L 628 4666 
z
" transform="scale(0.015625)"/>
      </defs>
      <use xlink:href="#DejaVuSans-56"/>
      <use xlink:href="#DejaVuSans-5f" transform="translate(68.408203 0)"/>
      <use xlink:href="#DejaVuSans-42" transform="translate(118.408203 0)"/>
      <use xlink:href="#DejaVuSans-20" transform="translate(187.011719 0)"/>
      <use xlink:href="#DejaVuSans-28" transform="translate(218.798828 0)"/>
      <use xlink:href="#DejaVuSans-6d" transform="translate(257.8125 0)"/>
      <use xlink:href="#DejaVuSans-56" transform="translate(355.224609 0)"/>
      <use xlink:href="#DejaVuSans-29" transform="translate(423.632812 0)"/>
     </g>
    </g>
   </g>
   <g id="line2d_36">
    <path d="M 81.645114 200.059148 
L 84.844742 192.111316 
L 88.04437 184.700807 
L 91.243999 177.791294 
L 94.443627 171.348907 
L 98.100345 164.517757 
L 101.757064 158.211811 
L 105.413782 152.390689 
L 109.0705 147.017116 
L 112.727218 142.056683 
L 116.383936 137.477626 
L 120.040655 133.250624 
L 123.240283 129.819462 
L 125.982822 131.075582 
L 128.72536 132.069866 
L 131.467899 132.832703 
L 134.667527 133.465658 
L 137.867156 133.856947 
L 141.066784 134.038681 
L 144.723502 134.025361 
L 148.83731 133.771055 
L 153.408208 133.241642 
L 158.436195 132.415996 
L 163.921273 131.286109 
L 165.292542 130.972966 
L 168.035081 132.130329 
L 170.777619 133.035429 
L 173.520158 133.717611 
L 176.719786 134.266023 
L 179.919415 134.581854 
L 183.576133 134.6976 
L 187.232851 134.589756 
L 191.346659 134.243296 
L 195.917557 133.626482 
L 200.945544 132.719985 
L 206.887711 131.408406 
L 207.344801 131.298636 
L 210.08734 132.428116 
L 212.829878 133.308037 
L 215.572417 133.967448 
L 218.772045 134.49199 
L 221.971674 134.786517 
L 225.628392 134.880661 
L 229.28511 134.753763 
L 233.398918 134.388499 
L 237.969816 133.753583 
L 242.997803 132.830042 
L 248.93997 131.50153 
L 249.39706 131.390583 
L 252.139599 132.512191 
L 254.882137 133.385003 
L 257.624676 134.037984 
L 260.824305 134.555788 
L 264.023933 134.8443 
L 267.680651 134.932344 
L 271.337369 134.800068 
L 275.451177 134.429494 
L 280.022075 133.789468 
L 285.050062 132.861115 
L 290.99223 131.527822 
L 291.449319 131.416542 
L 294.191858 132.535927 
L 296.934397 133.406733 
L 299.676935 134.057899 
L 302.876564 134.5738 
L 306.076192 134.860614 
L 309.73291 134.946936 
L 313.389628 134.813141 
L 317.503436 134.441068 
L 322.074334 133.799599 
L 327.102322 132.869887 
L 333.044489 131.535245 
L 333.501578 131.423871 
L 336.244117 132.542629 
L 338.986656 133.412868 
L 341.729194 134.063521 
L 344.928823 134.578885 
L 348.128451 134.86522 
L 351.785169 134.951056 
L 355.441887 134.816832 
L 359.555695 134.444336 
L 364.126593 133.802459 
L 369.154581 132.872364 
L 375.096748 131.53734 
L 375.553837 131.425941 
L 378.296376 132.544521 
L 381.038915 133.4146 
L 383.781453 134.065109 
L 386.981082 134.580321 
L 390.18071 134.86652 
L 393.837428 134.952219 
L 397.494147 134.817874 
L 401.607955 134.445258 
L 406.178852 133.803267 
L 411.20684 132.873063 
L 417.149007 131.537932 
L 417.606097 131.426525 
L 420.348635 132.545055 
L 423.091174 133.415089 
L 425.833712 134.065557 
L 429.033341 134.580726 
L 432.232969 134.866887 
L 435.889687 134.952547 
L 439.546406 134.818168 
L 443.660214 134.445519 
L 448.231111 133.803495 
L 453.259099 132.873261 
L 459.201266 131.538099 
L 459.658356 131.42669 
L 462.400894 132.545206 
L 465.143433 133.415227 
L 467.885972 134.065684 
L 471.0856 134.58084 
L 474.285228 134.866991 
L 477.941947 134.95264 
L 481.598665 134.818251 
L 485.712473 134.445592 
L 490.28337 133.803559 
L 495.311358 132.873317 
L 501.253525 131.538146 
L 501.710615 131.426736 
L 504.453153 132.545249 
L 507.195692 133.415266 
L 509.938231 134.065719 
L 513.137859 134.580873 
L 516.337487 134.86702 
L 519.994206 134.952666 
L 523.650924 134.818275 
L 527.764732 134.445613 
L 532.33563 133.803578 
L 537.363617 132.873332 
L 538.734886 132.585525 
L 538.734886 132.585525 
" clip-path="url(#p12796f0614)" style="fill: none; stroke: #1f77b4; stroke-width: 1.5; stroke-linecap: square"/>
   </g>
   <g id="patch_8">
    <path d="M 58.790625 203.571132 
L 58.790625 126.307477 
" style="fill: none; stroke: #000000; stroke-width: 0.8; stroke-linejoin: miter; stroke-linecap: square"/>
   </g>
   <g id="patch_9">
    <path d="M 561.589375 203.571132 
L 561.589375 126.307477 
" style="fill: none; stroke: #000000; stroke-width: 0.8; stroke-linejoin: miter; stroke-linecap: square"/>
   </g>
   <g id="patch_10">
    <path d="M 58.790625 203.571132 
L 561.589375 203.571132 
" style="fill: none; stroke: #000000; stroke-width: 0.8; stroke-linejoin: miter; stroke-linecap: square"/>
   </g>
   <g id="patch_11">
    <path d="M 58.790625 126.307477 
L 561.589375 126.307477 
" style="fill: none; stroke: #000000; stroke-width: 0.8; stroke-linejoin: miter; stroke-linecap: square"/>
   </g>
  </g>
  <g id="axes_3">
   <g id="patch_12">
    <path d="M 58.790625 296.085566 
L 561.589375 296.085566 
L 561.589375 218.821911 
L 58.790625 218.821911 
L 58.790625 296.085566 
z
" style="fill: none"/>
   </g>
   <g id="matplotlib.axis_5">
    <g id="xtick_13">
     <g id="line2d_37">
      <path d="M 81.645114 296.085566 
L 81.645114 218.821911 
" clip-path="url(#p3b51901f53)" style="fill: none; stroke: #b0b0b0; stroke-width: 0.8; stroke-linecap: square"/>
     </g>
     <g id="line2d_38">
      <g>
       <use xlink:href="#m264e69941d" x="81.645114" y="296.085566" style="stroke: #000000; stroke-width: 0.8"/>
      </g>
     </g>
    </g>
    <g id="xtick_14">
     <g id="line2d_39">
      <path d="M 173.063068 296.085566 
L 173.063068 218.821911 
" clip-path="url(#p3b51901f53)" style="fill: none; stroke: #b0b0b0; stroke-width: 0.8; stroke-linecap: square"/>
     </g>
     <g id="line2d_40">
      <g>
       <use xlink:href="#m264e69941d" x="173.063068" y="296.085566" style="stroke: #000000; stroke-width: 0.8"/>
      </g>
     </g>
    </g>
    <g id="xtick_15">
     <g id="line2d_41">
      <path d="M 264.481023 296.085566 
L 264.481023 218.821911 
" clip-path="url(#p3b51901f53)" style="fill: none; stroke: #b0b0b0; stroke-width: 0.8; stroke-linecap: square"/>
     </g>
     <g id="line2d_42">
      <g>
       <use xlink:href="#m264e69941d" x="264.481023" y="296.085566" style="stroke: #000000; stroke-width: 0.8"/>
      </g>
     </g>
    </g>
    <g id="xtick_16">
     <g id="line2d_43">
      <path d="M 355.898977 296.085566 
L 355.898977 218.821911 
" clip-path="url(#p3b51901f53)" style="fill: none; stroke: #b0b0b0; stroke-width: 0.8; stroke-linecap: square"/>
     </g>
     <g id="line2d_44">
      <g>
       <use xlink:href="#m264e69941d" x="355.898977" y="296.085566" style="stroke: #000000; stroke-width: 0.8"/>
      </g>
     </g>
    </g>
    <g id="xtick_17">
     <g id="line2d_45">
      <path d="M 447.316932 296.085566 
L 447.316932 218.821911 
" clip-path="url(#p3b51901f53)" style="fill: none; stroke: #b0b0b0; stroke-width: 0.8; stroke-linecap: square"/>
     </g>
     <g id="line2d_46">
      <g>
       <use xlink:href="#m264e69941d" x="447.316932" y="296.085566" style="stroke: #000000; stroke-width: 0.8"/>
      </g>
     </g>
    </g>
    <g id="xtick_18">
     <g id="line2d_47">
      <path d="M 538.734886 296.085566 
L 538.734886 218.821911 
" clip-path="url(#p3b51901f53)" style="fill: none; stroke: #b0b0b0; stroke-width: 0.8; stroke-linecap: square"/>
     </g>
     <g id="line2d_48">
      <g>
       <use xlink:href="#m264e69941d" x="538.734886" y="296.085566" style="stroke: #000000; stroke-width: 0.8"/>
      </g>
     </g>
    </g>
   </g>
   <g id="matplotlib.axis_6">
    <g id="ytick_6">
     <g id="line2d_49">
      <path d="M 58.790625 292.573582 
L 561.589375 292.573582 
" clip-path="url(#p3b51901f53)" style="fill: none; stroke: #b0b0b0; stroke-width: 0.8; stroke-linecap: square"/>
     </g>
     <g id="line2d_50">
      <g>
       <use xlink:href="#m89f0772ba1" x="58.790625" y="292.573582" style="stroke: #000000; stroke-width: 0.8"/>
      </g>
     </g>
     <g id="text_8">
      <!-- 0.0 -->
      <g transform="translate(35.8875 296.372801) scale(0.1 -0.1)">
       <defs>
        <path id="DejaVuSans-2e" d="M 684 794 
L 1344 794 
L 1344 0 
L 684 0 
L 684 794 
z
" transform="scale(0.015625)"/>
       </defs>
       <use xlink:href="#DejaVuSans-30"/>
       <use xlink:href="#DejaVuSans-2e" transform="translate(63.623047 0)"/>
       <use xlink:href="#DejaVuSans-30" transform="translate(95.410156 0)"/>
      </g>
     </g>
    </g>
    <g id="ytick_7">
     <g id="line2d_51">
      <path d="M 58.790625 257.453739 
L 561.589375 257.453739 
" clip-path="url(#p3b51901f53)" style="fill: none; stroke: #b0b0b0; stroke-width: 0.8; stroke-linecap: square"/>
     </g>
     <g id="line2d_52">
      <g>
       <use xlink:href="#m89f0772ba1" x="58.790625" y="257.453739" style="stroke: #000000; stroke-width: 0.8"/>
      </g>
     </g>
     <g id="text_9">
      <!-- 0.5 -->
      <g transform="translate(35.8875 261.252957) scale(0.1 -0.1)">
       <use xlink:href="#DejaVuSans-30"/>
       <use xlink:href="#DejaVuSans-2e" transform="translate(63.623047 0)"/>
       <use xlink:href="#DejaVuSans-35" transform="translate(95.410156 0)"/>
      </g>
     </g>
    </g>
    <g id="ytick_8">
     <g id="line2d_53">
      <path d="M 58.790625 222.333896 
L 561.589375 222.333896 
" clip-path="url(#p3b51901f53)" style="fill: none; stroke: #b0b0b0; stroke-width: 0.8; stroke-linecap: square"/>
     </g>
     <g id="line2d_54">
      <g>
       <use xlink:href="#m89f0772ba1" x="58.790625" y="222.333896" style="stroke: #000000; stroke-width: 0.8"/>
      </g>
     </g>
     <g id="text_10">
      <!-- 1.0 -->
      <g transform="translate(35.8875 226.133114) scale(0.1 -0.1)">
       <defs>
        <path id="DejaVuSans-31" d="M 794 531 
L 1825 531 
L 1825 4091 
L 703 3866 
L 703 4441 
L 1819 4666 
L 2450 4666 
L 2450 531 
L 3481 531 
L 3481 0 
L 794 0 
L 794 531 
z
" transform="scale(0.015625)"/>
       </defs>
       <use xlink:href="#DejaVuSans-31"/>
       <use xlink:href="#DejaVuSans-2e" transform="translate(63.623047 0)"/>
       <use xlink:href="#DejaVuSans-30" transform="translate(95.410156 0)"/>
      </g>
     </g>
    </g>
    <g id="text_11">
     <!-- P_s (A to B) -->
     <g transform="translate(29.529688 286.112332) rotate(-90) scale(0.1 -0.1)">
      <defs>
       <path id="DejaVuSans-50" d="M 1259 4147 
L 1259 2394 
L 2053 2394 
Q 2494 2394 2734 2622 
Q 2975 2850 2975 3272 
Q 2975 3691 2734 3919 
Q 2494 4147 2053 4147 
L 1259 4147 
z
M 628 4666 
L 2053 4666 
Q 2838 4666 3239 4311 
Q 3641 3956 3641 3272 
Q 3641 2581 3239 2228 
Q 2838 1875 2053 1875 
L 1259 1875 
L 1259 0 
L 628 0 
L 628 4666 
z
" transform="scale(0.015625)"/>
       <path id="DejaVuSans-73" d="M 2834 3397 
L 2834 2853 
Q 2591 2978 2328 3040 
Q 2066 3103 1784 3103 
Q 1356 3103 1142 2972 
Q 928 2841 928 2578 
Q 928 2378 1081 2264 
Q 1234 2150 1697 2047 
L 1894 2003 
Q 2506 1872 2764 1633 
Q 3022 1394 3022 966 
Q 3022 478 2636 193 
Q 2250 -91 1575 -91 
Q 1294 -91 989 -36 
Q 684 19 347 128 
L 347 722 
Q 666 556 975 473 
Q 1284 391 1588 391 
Q 1994 391 2212 530 
Q 2431 669 2431 922 
Q 2431 1156 2273 1281 
Q 2116 1406 1581 1522 
L 1381 1569 
Q 847 1681 609 1914 
Q 372 2147 372 2553 
Q 372 3047 722 3315 
Q 1072 3584 1716 3584 
Q 2034 3584 2315 3537 
Q 2597 3491 2834 3397 
z
" transform="scale(0.015625)"/>
       <path id="DejaVuSans-74" d="M 1172 4494 
L 1172 3500 
L 2356 3500 
L 2356 3053 
L 1172 3053 
L 1172 1153 
Q 1172 725 1289 603 
Q 1406 481 1766 481 
L 2356 481 
L 2356 0 
L 1766 0 
Q 1100 0 847 248 
Q 594 497 594 1153 
L 594 3053 
L 172 3053 
L 172 3500 
L 594 3500 
L 594 4494 
L 1172 4494 
z
" transform="scale(0.015625)"/>
       <path id="DejaVuSans-6f" d="M 1959 3097 
Q 1497 3097 1228 2736 
Q 959 2375 959 1747 
Q 959 1119 1226 758 
Q 1494 397 1959 397 
Q 2419 397 2687 759 
Q 2956 1122 2956 1747 
Q 2956 2369 2687 2733 
Q 2419 3097 1959 3097 
z
M 1959 3584 
Q 2709 3584 3137 3096 
Q 3566 2609 3566 1747 
Q 3566 888 3137 398 
Q 2709 -91 1959 -91 
Q 1206 -91 779 398 
Q 353 888 353 1747 
Q 353 2609 779 3096 
Q 1206 3584 1959 3584 
z
" transform="scale(0.015625)"/>
      </defs>
      <use xlink:href="#DejaVuSans-50"/>
      <use xlink:href="#DejaVuSans-5f" transform="translate(60.302734 0)"/>
      <use xlink:href="#DejaVuSans-73" transform="translate(110.302734 0)"/>
      <use xlink:href="#DejaVuSans-20" transform="translate(162.402344 0)"/>
      <use xlink:href="#DejaVuSans-28" transform="translate(194.189453 0)"/>
      <use xlink:href="#DejaVuSans-41" transform="translate(233.203125 0)"/>
      <use xlink:href="#DejaVuSans-20" transform="translate(301.611328 0)"/>
      <use xlink:href="#DejaVuSans-74" transform="translate(333.398438 0)"/>
      <use xlink:href="#DejaVuSans-6f" transform="translate(372.607422 0)"/>
      <use xlink:href="#DejaVuSans-20" transform="translate(433.789062 0)"/>
      <use xlink:href="#DejaVuSans-42" transform="translate(465.576172 0)"/>
      <use xlink:href="#DejaVuSans-29" transform="translate(534.179688 0)"/>
     </g>
    </g>
   </g>
   <g id="line2d_55">
    <path d="M 81.645114 292.573582 
L 123.240283 292.573582 
L 123.697373 222.333896 
L 128.26827 226.87853 
L 132.839168 231.129119 
L 137.867156 235.487813 
L 142.895143 239.537314 
L 147.923131 243.299555 
L 152.951118 246.794913 
L 158.436195 250.325862 
L 163.921273 253.584466 
L 165.292542 254.359061 
L 165.749632 222.333896 
L 170.32053 226.87853 
L 174.891427 231.129119 
L 179.919415 235.487813 
L 184.947402 239.537314 
L 189.97539 243.299555 
L 195.003377 246.794913 
L 200.488455 250.325862 
L 205.973532 253.584466 
L 207.344801 254.359061 
L 207.801891 222.333896 
L 212.372789 226.87853 
L 216.943686 231.129119 
L 221.971674 235.487813 
L 226.999661 239.537314 
L 232.027649 243.299555 
L 237.055636 246.794913 
L 242.540714 250.325862 
L 248.025791 253.584466 
L 249.39706 254.359061 
L 249.85415 222.333896 
L 254.425048 226.87853 
L 258.995945 231.129119 
L 264.023933 235.487813 
L 269.05192 239.537314 
L 274.079908 243.299555 
L 279.107895 246.794913 
L 284.592973 250.325862 
L 290.07805 253.584466 
L 291.449319 254.359061 
L 291.906409 222.333896 
L 296.477307 226.87853 
L 301.048205 231.129119 
L 306.076192 235.487813 
L 311.10418 239.537314 
L 316.132167 243.299555 
L 321.160155 246.794913 
L 326.645232 250.325862 
L 332.130309 253.584466 
L 333.501578 254.359061 
L 333.958668 222.333896 
L 338.529566 226.87853 
L 343.100464 231.129119 
L 348.128451 235.487813 
L 353.156439 239.537314 
L 358.184426 243.299555 
L 363.212414 246.794913 
L 368.697491 250.325862 
L 374.182568 253.584466 
L 375.553837 254.359061 
L 376.010927 222.333896 
L 380.581825 226.87853 
L 385.152723 231.129119 
L 390.18071 235.487813 
L 395.208698 239.537314 
L 400.236685 243.299555 
L 405.264673 246.794913 
L 410.74975 250.325862 
L 416.234827 253.584466 
L 417.606097 254.359061 
L 418.063186 222.333896 
L 422.634084 226.87853 
L 427.204982 231.129119 
L 432.232969 235.487813 
L 437.260957 239.537314 
L 442.288944 243.299555 
L 447.316932 246.794913 
L 452.802009 250.325862 
L 458.287086 253.584466 
L 459.658356 254.359061 
L 460.115445 222.333896 
L 464.686343 226.87853 
L 469.257241 231.129119 
L 474.285228 235.487813 
L 479.313216 239.537314 
L 484.341203 243.299555 
L 489.369191 246.794913 
L 494.854268 250.325862 
L 500.339345 253.584466 
L 501.710615 254.359061 
L 502.167705 222.333896 
L 506.738602 226.87853 
L 511.3095 231.129119 
L 516.337487 235.487813 
L 521.365475 239.537314 
L 526.393462 243.299555 
L 531.42145 246.794913 
L 536.906527 250.325862 
L 538.734886 251.441252 
L 538.734886 251.441252 
" clip-path="url(#p3b51901f53)" style="fill: none; stroke: #1f77b4; stroke-width: 1.5; stroke-linecap: square"/>
   </g>
   <g id="patch_13">
    <path d="M 58.790625 296.085566 
L 58.790625 218.821911 
" style="fill: none; stroke: #000000; stroke-width: 0.8; stroke-linejoin: miter; stroke-linecap: square"/>
   </g>
   <g id="patch_14">
    <path d="M 561.589375 296.085566 
L 561.589375 218.821911 
" style="fill: none; stroke: #000000; stroke-width: 0.8; stroke-linejoin: miter; stroke-linecap: square"/>
   </g>
   <g id="patch_15">
    <path d="M 58.790625 296.085566 
L 561.589375 296.085566 
" style="fill: none; stroke: #000000; stroke-width: 0.8; stroke-linejoin: miter; stroke-linecap: square"/>
   </g>
   <g id="patch_16">
    <path d="M 58.790625 218.821911 
L 561.589375 218.821911 
" style="fill: none; stroke: #000000; stroke-width: 0.8; stroke-linejoin: miter; stroke-linecap: square"/>
   </g>
  </g>
  <g id="axes_4">
   <g id="patch_17">
    <path d="M 58.790625 388.6 
L 561.589375 388.6 
L 561.589375 311.336345 
L 58.790625 311.336345 
L 58.790625 388.6 
z
" style="fill: none"/>
   </g>
   <g id="matplotlib.axis_7">
    <g id="xtick_19">
     <g id="line2d_56">
      <path d="M 81.645114 388.6 
L 81.645114 311.336345 
" clip-path="url(#pfe3633c3a4)" style="fill: none; stroke: #b0b0b0; stroke-width: 0.8; stroke-linecap: square"/>
     </g>
     <g id="line2d_57">
      <g>
       <use xlink:href="#m264e69941d" x="81.645114" y="388.6" style="stroke: #000000; stroke-width: 0.8"/>
      </g>
     </g>
     <g id="text_12">
      <!-- 0 -->
      <g transform="translate(78.463864 403.198437) scale(0.1 -0.1)">
       <use xlink:href="#DejaVuSans-30"/>
      </g>
     </g>
    </g>
    <g id="xtick_20">
     <g id="line2d_58">
      <path d="M 173.063068 388.6 
L 173.063068 311.336345 
" clip-path="url(#pfe3633c3a4)" style="fill: none; stroke: #b0b0b0; stroke-width: 0.8; stroke-linecap: square"/>
     </g>
     <g id="line2d_59">
      <g>
       <use xlink:href="#m264e69941d" x="173.063068" y="388.6" style="stroke: #000000; stroke-width: 0.8"/>
      </g>
     </g>
     <g id="text_13">
      <!-- 20 -->
      <g transform="translate(166.700568 403.198437) scale(0.1 -0.1)">
       <use xlink:href="#DejaVuSans-32"/>
       <use xlink:href="#DejaVuSans-30" transform="translate(63.623047 0)"/>
      </g>
     </g>
    </g>
    <g id="xtick_21">
     <g id="line2d_60">
      <path d="M 264.481023 388.6 
L 264.481023 311.336345 
" clip-path="url(#pfe3633c3a4)" style="fill: none; stroke: #b0b0b0; stroke-width: 0.8; stroke-linecap: square"/>
     </g>
     <g id="line2d_61">
      <g>
       <use xlink:href="#m264e69941d" x="264.481023" y="388.6" style="stroke: #000000; stroke-width: 0.8"/>
      </g>
     </g>
     <g id="text_14">
      <!-- 40 -->
      <g transform="translate(258.118523 403.198437) scale(0.1 -0.1)">
       <defs>
        <path id="DejaVuSans-34" d="M 2419 4116 
L 825 1625 
L 2419 1625 
L 2419 4116 
z
M 2253 4666 
L 3047 4666 
L 3047 1625 
L 3713 1625 
L 3713 1100 
L 3047 1100 
L 3047 0 
L 2419 0 
L 2419 1100 
L 313 1100 
L 313 1709 
L 2253 4666 
z
" transform="scale(0.015625)"/>
       </defs>
       <use xlink:href="#DejaVuSans-34"/>
       <use xlink:href="#DejaVuSans-30" transform="translate(63.623047 0)"/>
      </g>
     </g>
    </g>
    <g id="xtick_22">
     <g id="line2d_62">
      <path d="M 355.898977 388.6 
L 355.898977 311.336345 
" clip-path="url(#pfe3633c3a4)" style="fill: none; stroke: #b0b0b0; stroke-width: 0.8; stroke-linecap: square"/>
     </g>
     <g id="line2d_63">
      <g>
       <use xlink:href="#m264e69941d" x="355.898977" y="388.6" style="stroke: #000000; stroke-width: 0.8"/>
      </g>
     </g>
     <g id="text_15">
      <!-- 60 -->
      <g transform="translate(349.536477 403.198437) scale(0.1 -0.1)">
       <use xlink:href="#DejaVuSans-36"/>
       <use xlink:href="#DejaVuSans-30" transform="translate(63.623047 0)"/>
      </g>
     </g>
    </g>
    <g id="xtick_23">
     <g id="line2d_64">
      <path d="M 447.316932 388.6 
L 447.316932 311.336345 
" clip-path="url(#pfe3633c3a4)" style="fill: none; stroke: #b0b0b0; stroke-width: 0.8; stroke-linecap: square"/>
     </g>
     <g id="line2d_65">
      <g>
       <use xlink:href="#m264e69941d" x="447.316932" y="388.6" style="stroke: #000000; stroke-width: 0.8"/>
      </g>
     </g>
     <g id="text_16">
      <!-- 80 -->
      <g transform="translate(440.954432 403.198437) scale(0.1 -0.1)">
       <defs>
        <path id="DejaVuSans-38" d="M 2034 2216 
Q 1584 2216 1326 1975 
Q 1069 1734 1069 1313 
Q 1069 891 1326 650 
Q 1584 409 2034 409 
Q 2484 409 2743 651 
Q 3003 894 3003 1313 
Q 3003 1734 2745 1975 
Q 2488 2216 2034 2216 
z
M 1403 2484 
Q 997 2584 770 2862 
Q 544 3141 544 3541 
Q 544 4100 942 4425 
Q 1341 4750 2034 4750 
Q 2731 4750 3128 4425 
Q 3525 4100 3525 3541 
Q 3525 3141 3298 2862 
Q 3072 2584 2669 2484 
Q 3125 2378 3379 2068 
Q 3634 1759 3634 1313 
Q 3634 634 3220 271 
Q 2806 -91 2034 -91 
Q 1263 -91 848 271 
Q 434 634 434 1313 
Q 434 1759 690 2068 
Q 947 2378 1403 2484 
z
M 1172 3481 
Q 1172 3119 1398 2916 
Q 1625 2713 2034 2713 
Q 2441 2713 2670 2916 
Q 2900 3119 2900 3481 
Q 2900 3844 2670 4047 
Q 2441 4250 2034 4250 
Q 1625 4250 1398 4047 
Q 1172 3844 1172 3481 
z
" transform="scale(0.015625)"/>
       </defs>
       <use xlink:href="#DejaVuSans-38"/>
       <use xlink:href="#DejaVuSans-30" transform="translate(63.623047 0)"/>
      </g>
     </g>
    </g>
    <g id="xtick_24">
     <g id="line2d_66">
      <path d="M 538.734886 388.6 
L 538.734886 311.336345 
" clip-path="url(#pfe3633c3a4)" style="fill: none; stroke: #b0b0b0; stroke-width: 0.8; stroke-linecap: square"/>
     </g>
     <g id="line2d_67">
      <g>
       <use xlink:href="#m264e69941d" x="538.734886" y="388.6" style="stroke: #000000; stroke-width: 0.8"/>
      </g>
     </g>
     <g id="text_17">
      <!-- 100 -->
      <g transform="translate(529.191136 403.198437) scale(0.1 -0.1)">
       <use xlink:href="#DejaVuSans-31"/>
       <use xlink:href="#DejaVuSans-30" transform="translate(63.623047 0)"/>
       <use xlink:href="#DejaVuSans-30" transform="translate(127.246094 0)"/>
      </g>
     </g>
    </g>
    <g id="text_18">
     <!-- Time (ms) -->
     <g transform="translate(284.990781 416.876562) scale(0.1 -0.1)">
      <defs>
       <path id="DejaVuSans-54" d="M -19 4666 
L 3928 4666 
L 3928 4134 
L 2272 4134 
L 2272 0 
L 1638 0 
L 1638 4134 
L -19 4134 
L -19 4666 
z
" transform="scale(0.015625)"/>
       <path id="DejaVuSans-69" d="M 603 3500 
L 1178 3500 
L 1178 0 
L 603 0 
L 603 3500 
z
M 603 4863 
L 1178 4863 
L 1178 4134 
L 603 4134 
L 603 4863 
z
" transform="scale(0.015625)"/>
       <path id="DejaVuSans-65" d="M 3597 1894 
L 3597 1613 
L 953 1613 
Q 991 1019 1311 708 
Q 1631 397 2203 397 
Q 2534 397 2845 478 
Q 3156 559 3463 722 
L 3463 178 
Q 3153 47 2828 -22 
Q 2503 -91 2169 -91 
Q 1331 -91 842 396 
Q 353 884 353 1716 
Q 353 2575 817 3079 
Q 1281 3584 2069 3584 
Q 2775 3584 3186 3129 
Q 3597 2675 3597 1894 
z
M 3022 2063 
Q 3016 2534 2758 2815 
Q 2500 3097 2075 3097 
Q 1594 3097 1305 2825 
Q 1016 2553 972 2059 
L 3022 2063 
z
" transform="scale(0.015625)"/>
      </defs>
      <use xlink:href="#DejaVuSans-54"/>
      <use xlink:href="#DejaVuSans-69" transform="translate(57.958984 0)"/>
      <use xlink:href="#DejaVuSans-6d" transform="translate(85.742188 0)"/>
      <use xlink:href="#DejaVuSans-65" transform="translate(183.154297 0)"/>
      <use xlink:href="#DejaVuSans-20" transform="translate(244.677734 0)"/>
      <use xlink:href="#DejaVuSans-28" transform="translate(276.464844 0)"/>
      <use xlink:href="#DejaVuSans-6d" transform="translate(315.478516 0)"/>
      <use xlink:href="#DejaVuSans-73" transform="translate(412.890625 0)"/>
      <use xlink:href="#DejaVuSans-29" transform="translate(464.990234 0)"/>
     </g>
    </g>
   </g>
   <g id="matplotlib.axis_8">
    <g id="ytick_9">
     <g id="line2d_68">
      <path d="M 58.790625 385.088016 
L 561.589375 385.088016 
" clip-path="url(#pfe3633c3a4)" style="fill: none; stroke: #b0b0b0; stroke-width: 0.8; stroke-linecap: square"/>
     </g>
     <g id="line2d_69">
      <g>
       <use xlink:href="#m89f0772ba1" x="58.790625" y="385.088016" style="stroke: #000000; stroke-width: 0.8"/>
      </g>
     </g>
     <g id="text_19">
      <!-- −0.05 -->
      <g transform="translate(21.145313 388.887234) scale(0.1 -0.1)">
       <use xlink:href="#DejaVuSans-2212"/>
       <use xlink:href="#DejaVuSans-30" transform="translate(83.789062 0)"/>
       <use xlink:href="#DejaVuSans-2e" transform="translate(147.412109 0)"/>
       <use xlink:href="#DejaVuSans-30" transform="translate(179.199219 0)"/>
       <use xlink:href="#DejaVuSans-35" transform="translate(242.822266 0)"/>
      </g>
     </g>
    </g>
    <g id="ytick_10">
     <g id="line2d_70">
      <path d="M 58.790625 349.968173 
L 561.589375 349.968173 
" clip-path="url(#pfe3633c3a4)" style="fill: none; stroke: #b0b0b0; stroke-width: 0.8; stroke-linecap: square"/>
     </g>
     <g id="line2d_71">
      <g>
       <use xlink:href="#m89f0772ba1" x="58.790625" y="349.968173" style="stroke: #000000; stroke-width: 0.8"/>
      </g>
     </g>
     <g id="text_20">
      <!-- 0.00 -->
      <g transform="translate(29.525 353.767391) scale(0.1 -0.1)">
       <use xlink:href="#DejaVuSans-30"/>
       <use xlink:href="#DejaVuSans-2e" transform="translate(63.623047 0)"/>
       <use xlink:href="#DejaVuSans-30" transform="translate(95.410156 0)"/>
       <use xlink:href="#DejaVuSans-30" transform="translate(159.033203 0)"/>
      </g>
     </g>
    </g>
    <g id="ytick_11">
     <g id="line2d_72">
      <path d="M 58.790625 314.848329 
L 561.589375 314.848329 
" clip-path="url(#pfe3633c3a4)" style="fill: none; stroke: #b0b0b0; stroke-width: 0.8; stroke-linecap: square"/>
     </g>
     <g id="line2d_73">
      <g>
       <use xlink:href="#m89f0772ba1" x="58.790625" y="314.848329" style="stroke: #000000; stroke-width: 0.8"/>
      </g>
     </g>
     <g id="text_21">
      <!-- 0.05 -->
      <g transform="translate(29.525 318.647548) scale(0.1 -0.1)">
       <use xlink:href="#DejaVuSans-30"/>
       <use xlink:href="#DejaVuSans-2e" transform="translate(63.623047 0)"/>
       <use xlink:href="#DejaVuSans-30" transform="translate(95.410156 0)"/>
       <use xlink:href="#DejaVuSans-35" transform="translate(159.033203 0)"/>
      </g>
     </g>
    </g>
    <g id="text_22">
     <!-- P_s (B to A) -->
     <g transform="translate(14.7875 378.626766) rotate(-90) scale(0.1 -0.1)">
      <use xlink:href="#DejaVuSans-50"/>
      <use xlink:href="#DejaVuSans-5f" transform="translate(60.302734 0)"/>
      <use xlink:href="#DejaVuSans-73" transform="translate(110.302734 0)"/>
      <use xlink:href="#DejaVuSans-20" transform="translate(162.402344 0)"/>
      <use xlink:href="#DejaVuSans-28" transform="translate(194.189453 0)"/>
      <use xlink:href="#DejaVuSans-42" transform="translate(233.203125 0)"/>
      <use xlink:href="#DejaVuSans-20" transform="translate(301.806641 0)"/>
      <use xlink:href="#DejaVuSans-74" transform="translate(333.59375 0)"/>
      <use xlink:href="#DejaVuSans-6f" transform="translate(372.802734 0)"/>
      <use xlink:href="#DejaVuSans-20" transform="translate(433.984375 0)"/>
      <use xlink:href="#DejaVuSans-41" transform="translate(465.771484 0)"/>
      <use xlink:href="#DejaVuSans-29" transform="translate(534.179688 0)"/>
     </g>
    </g>
   </g>
   <g id="line2d_74">
    <path d="M 81.645114 349.968173 
L 538.734886 349.968173 
L 538.734886 349.968173 
" clip-path="url(#pfe3633c3a4)" style="fill: none; stroke: #1f77b4; stroke-width: 1.5; stroke-linecap: square"/>
   </g>
   <g id="patch_18">
    <path d="M 58.790625 388.6 
L 58.790625 311.336345 
" style="fill: none; stroke: #000000; stroke-width: 0.8; stroke-linejoin: miter; stroke-linecap: square"/>
   </g>
   <g id="patch_19">
    <path d="M 561.589375 388.6 
L 561.589375 311.336345 
" style="fill: none; stroke: #000000; stroke-width: 0.8; stroke-linejoin: miter; stroke-linecap: square"/>
   </g>
   <g id="patch_20">
    <path d="M 58.790625 388.6 
L 561.589375 388.6 
" style="fill: none; stroke: #000000; stroke-width: 0.8; stroke-linejoin: miter; stroke-linecap: square"/>
   </g>
   <g id="patch_21">
    <path d="M 58.790625 311.336345 
L 561.589375 311.336345 
" style="fill: none; stroke: #000000; stroke-width: 0.8; stroke-linejoin: miter; stroke-linecap: square"/>
   </g>
  </g>
  <g id="text_23">
   <!-- Inhibitory both -->
   <g transform="translate(240.288437 16.318125) scale(0.12 -0.12)">
    <defs>
     <path id="DejaVuSans-49" d="M 628 4666 
L 1259 4666 
L 1259 0 
L 628 0 
L 628 4666 
z
" transform="scale(0.015625)"/>
     <path id="DejaVuSans-6e" d="M 3513 2113 
L 3513 0 
L 2938 0 
L 2938 2094 
Q 2938 2591 2744 2837 
Q 2550 3084 2163 3084 
Q 1697 3084 1428 2787 
Q 1159 2491 1159 1978 
L 1159 0 
L 581 0 
L 581 3500 
L 1159 3500 
L 1159 2956 
Q 1366 3272 1645 3428 
Q 1925 3584 2291 3584 
Q 2894 3584 3203 3211 
Q 3513 2838 3513 2113 
z
" transform="scale(0.015625)"/>
     <path id="DejaVuSans-68" d="M 3513 2113 
L 3513 0 
L 2938 0 
L 2938 2094 
Q 2938 2591 2744 2837 
Q 2550 3084 2163 3084 
Q 1697 3084 1428 2787 
Q 1159 2491 1159 1978 
L 1159 0 
L 581 0 
L 581 4863 
L 1159 4863 
L 1159 2956 
Q 1366 3272 1645 3428 
Q 1925 3584 2291 3584 
Q 2894 3584 3203 3211 
Q 3513 2838 3513 2113 
z
" transform="scale(0.015625)"/>
     <path id="DejaVuSans-62" d="M 3116 1747 
Q 3116 2381 2855 2742 
Q 2594 3103 2138 3103 
Q 1681 3103 1420 2742 
Q 1159 2381 1159 1747 
Q 1159 1113 1420 752 
Q 1681 391 2138 391 
Q 2594 391 2855 752 
Q 3116 1113 3116 1747 
z
M 1159 2969 
Q 1341 3281 1617 3432 
Q 1894 3584 2278 3584 
Q 2916 3584 3314 3078 
Q 3713 2572 3713 1747 
Q 3713 922 3314 415 
Q 2916 -91 2278 -91 
Q 1894 -91 1617 61 
Q 1341 213 1159 525 
L 1159 0 
L 581 0 
L 581 4863 
L 1159 4863 
L 1159 2969 
z
" transform="scale(0.015625)"/>
     <path id="DejaVuSans-72" d="M 2631 2963 
Q 2534 3019 2420 3045 
Q 2306 3072 2169 3072 
Q 1681 3072 1420 2755 
Q 1159 2438 1159 1844 
L 1159 0 
L 581 0 
L 581 3500 
L 1159 3500 
L 1159 2956 
Q 1341 3275 1631 3429 
Q 1922 3584 2338 3584 
Q 2397 3584 2469 3576 
Q 2541 3569 2628 3553 
L 2631 2963 
z
" transform="scale(0.015625)"/>
     <path id="DejaVuSans-79" d="M 2059 -325 
Q 1816 -950 1584 -1140 
Q 1353 -1331 966 -1331 
L 506 -1331 
L 506 -850 
L 844 -850 
Q 1081 -850 1212 -737 
Q 1344 -625 1503 -206 
L 1606 56 
L 191 3500 
L 800 3500 
L 1894 763 
L 2988 3500 
L 3597 3500 
L 2059 -325 
z
" transform="scale(0.015625)"/>
    </defs>
    <use xlink:href="#DejaVuSans-49"/>
    <use xlink:href="#DejaVuSans-6e" transform="translate(29.492188 0)"/>
    <use xlink:href="#DejaVuSans-68" transform="translate(92.871094 0)"/>
    <use xlink:href="#DejaVuSans-69" transform="translate(156.25 0)"/>
    <use xlink:href="#DejaVuSans-62" transform="translate(184.033203 0)"/>
    <use xlink:href="#DejaVuSans-69" transform="translate(247.509766 0)"/>
    <use xlink:href="#DejaVuSans-74" transform="translate(275.292969 0)"/>
    <use xlink:href="#DejaVuSans-6f" transform="translate(314.501953 0)"/>
    <use xlink:href="#DejaVuSans-72" transform="translate(375.683594 0)"/>
    <use xlink:href="#DejaVuSans-79" transform="translate(416.796875 0)"/>
    <use xlink:href="#DejaVuSans-20" transform="translate(475.976562 0)"/>
    <use xlink:href="#DejaVuSans-62" transform="translate(507.763672 0)"/>
    <use xlink:href="#DejaVuSans-6f" transform="translate(571.240234 0)"/>
    <use xlink:href="#DejaVuSans-74" transform="translate(632.421875 0)"/>
    <use xlink:href="#DejaVuSans-68" transform="translate(671.630859 0)"/>
   </g>
  </g>
 </g>
 <defs>
  <clipPath id="p17250cc54f">
   <rect x="58.790625" y="33.793043" width="502.79875" height="77.263655"/>
  </clipPath>
  <clipPath id="p12796f0614">
   <rect x="58.790625" y="126.307477" width="502.79875" height="77.263655"/>
  </clipPath>
  <clipPath id="p3b51901f53">
   <rect x="58.790625" y="218.821911" width="502.79875" height="77.263655"/>
  </clipPath>
  <clipPath id="pfe3633c3a4">
   <rect x="58.790625" y="311.336345" width="502.79875" height="77.263655"/>
  </clipPath>
 </defs>
</svg>
