<?xml version="1.0" encoding="utf-8" standalone="no"?>
<!DOCTYPE svg PUBLIC "-//W3C//DTD SVG 1.1//EN"
  "http://www.w3.org/Graphics/SVG/1.1/DTD/svg11.dtd">
<svg xmlns:xlink="http://www.w3.org/1999/xlink" width="568.69875pt" height="426.15625pt" viewBox="0 0 568.69875 426.15625" xmlns="http://www.w3.org/2000/svg" version="1.1">
 <metadata>
  <rdf:RDF xmlns:dc="http://purl.org/dc/elements/1.1/" xmlns:cc="http://creativecommons.org/ns#" xmlns:rdf="http://www.w3.org/1999/02/22-rdf-syntax-ns#">
   <cc:Work>
    <dc:type rdf:resource="http://purl.org/dc/dcmitype/StillImage"/>
    <dc:date>2025-05-18T03:42:15.404687</dc:date>
    <dc:format>image/svg+xml</dc:format>
    <dc:creator>
     <cc:Agent>
      <dc:title>Matplotlib v3.10.1, https://matplotlib.org/</dc:title>
     </cc:Agent>
    </dc:creator>
   </cc:Work>
  </rdf:RDF>
 </metadata>
 <defs>
  <style type="text/css">*{stroke-linejoin: round; stroke-linecap: butt}</style>
 </defs>
 <g id="figure_1">
  <g id="patch_1">
   <path d="M 0 426.15625 
L 568.69875 426.15625 
L 568.69875 0 
L 0 0 
L 0 426.15625 
z
" style="fill: none"/>
  </g>
  <g id="axes_1">
   <g id="patch_2">
    <path d="M 49.25 111.265 
L 561.49875 111.265 
L 561.49875 33.793043 
L 49.25 33.793043 
L 49.25 111.265 
z
" style="fill: none"/>
   </g>
   <g id="matplotlib.axis_1">
    <g id="xtick_1">
     <g id="line2d_1">
      <path d="M 72.534034 111.265 
L 72.534034 33.793043 
" clip-path="url(#p8aad27f5d5)" style="fill: none; stroke: #b0b0b0; stroke-width: 0.8; stroke-linecap: square"/>
     </g>
     <g id="line2d_2">
      <defs>
       <path id="mf5cf45e2b6" d="M 0 0 
L 0 3.5 
" style="stroke: #000000; stroke-width: 0.8"/>
      </defs>
      <g>
       <use xlink:href="#mf5cf45e2b6" x="72.534034" y="111.265" style="stroke: #000000; stroke-width: 0.8"/>
      </g>
     </g>
    </g>
    <g id="xtick_2">
     <g id="line2d_3">
      <path d="M 165.67017 111.265 
L 165.67017 33.793043 
" clip-path="url(#p8aad27f5d5)" style="fill: none; stroke: #b0b0b0; stroke-width: 0.8; stroke-linecap: square"/>
     </g>
     <g id="line2d_4">
      <g>
       <use xlink:href="#mf5cf45e2b6" x="165.67017" y="111.265" style="stroke: #000000; stroke-width: 0.8"/>
      </g>
     </g>
    </g>
    <g id="xtick_3">
     <g id="line2d_5">
      <path d="M 258.806307 111.265 
L 258.806307 33.793043 
" clip-path="url(#p8aad27f5d5)" style="fill: none; stroke: #b0b0b0; stroke-width: 0.8; stroke-linecap: square"/>
     </g>
     <g id="line2d_6">
      <g>
       <use xlink:href="#mf5cf45e2b6" x="258.806307" y="111.265" style="stroke: #000000; stroke-width: 0.8"/>
      </g>
     </g>
    </g>
    <g id="xtick_4">
     <g id="line2d_7">
      <path d="M 351.942443 111.265 
L 351.942443 33.793043 
" clip-path="url(#p8aad27f5d5)" style="fill: none; stroke: #b0b0b0; stroke-width: 0.8; stroke-linecap: square"/>
     </g>
     <g id="line2d_8">
      <g>
       <use xlink:href="#mf5cf45e2b6" x="351.942443" y="111.265" style="stroke: #000000; stroke-width: 0.8"/>
      </g>
     </g>
    </g>
    <g id="xtick_5">
     <g id="line2d_9">
      <path d="M 445.07858 111.265 
L 445.07858 33.793043 
" clip-path="url(#p8aad27f5d5)" style="fill: none; stroke: #b0b0b0; stroke-width: 0.8; stroke-linecap: square"/>
     </g>
     <g id="line2d_10">
      <g>
       <use xlink:href="#mf5cf45e2b6" x="445.07858" y="111.265" style="stroke: #000000; stroke-width: 0.8"/>
      </g>
     </g>
    </g>
    <g id="xtick_6">
     <g id="line2d_11">
      <path d="M 538.214716 111.265 
L 538.214716 33.793043 
" clip-path="url(#p8aad27f5d5)" style="fill: none; stroke: #b0b0b0; stroke-width: 0.8; stroke-linecap: square"/>
     </g>
     <g id="line2d_12">
      <g>
       <use xlink:href="#mf5cf45e2b6" x="538.214716" y="111.265" style="stroke: #000000; stroke-width: 0.8"/>
      </g>
     </g>
    </g>
   </g>
   <g id="matplotlib.axis_2">
    <g id="ytick_1">
     <g id="line2d_13">
      <path d="M 49.25 91.490689 
L 561.49875 91.490689 
" clip-path="url(#p8aad27f5d5)" style="fill: none; stroke: #b0b0b0; stroke-width: 0.8; stroke-linecap: square"/>
     </g>
     <g id="line2d_14">
      <defs>
       <path id="m5f61ccf3cc" d="M 0 0 
L -3.5 0 
" style="stroke: #000000; stroke-width: 0.8"/>
      </defs>
      <g>
       <use xlink:href="#m5f61ccf3cc" x="49.25" y="91.490689" style="stroke: #000000; stroke-width: 0.8"/>
      </g>
     </g>
     <g id="text_1">
      <!-- −50 -->
      <g transform="translate(21.145312 95.289908) scale(0.1 -0.1)">
       <defs>
        <path id="DejaVuSans-2212" d="M 678 2272 
L 4684 2272 
L 4684 1741 
L 678 1741 
L 678 2272 
z
" transform="scale(0.015625)"/>
        <path id="DejaVuSans-35" d="M 691 4666 
L 3169 4666 
L 3169 4134 
L 1269 4134 
L 1269 2991 
Q 1406 3038 1543 3061 
Q 1681 3084 1819 3084 
Q 2600 3084 3056 2656 
Q 3513 2228 3513 1497 
Q 3513 744 3044 326 
Q 2575 -91 1722 -91 
Q 1428 -91 1123 -41 
Q 819 9 494 109 
L 494 744 
Q 775 591 1075 516 
Q 1375 441 1709 441 
Q 2250 441 2565 725 
Q 2881 1009 2881 1497 
Q 2881 1984 2565 2268 
Q 2250 2553 1709 2553 
Q 1456 2553 1204 2497 
Q 953 2441 691 2322 
L 691 4666 
z
" transform="scale(0.015625)"/>
        <path id="DejaVuSans-30" d="M 2034 4250 
Q 1547 4250 1301 3770 
Q 1056 3291 1056 2328 
Q 1056 1369 1301 889 
Q 1547 409 2034 409 
Q 2525 409 2770 889 
Q 3016 1369 3016 2328 
Q 3016 3291 2770 3770 
Q 2525 4250 2034 4250 
z
M 2034 4750 
Q 2819 4750 3233 4129 
Q 3647 3509 3647 2328 
Q 3647 1150 3233 529 
Q 2819 -91 2034 -91 
Q 1250 -91 836 529 
Q 422 1150 422 2328 
Q 422 3509 836 4129 
Q 1250 4750 2034 4750 
z
" transform="scale(0.015625)"/>
       </defs>
       <use xlink:href="#DejaVuSans-2212"/>
       <use xlink:href="#DejaVuSans-35" transform="translate(83.789062 0)"/>
       <use xlink:href="#DejaVuSans-30" transform="translate(147.412109 0)"/>
      </g>
     </g>
    </g>
    <g id="ytick_2">
     <g id="line2d_15">
      <path d="M 49.25 64.402593 
L 561.49875 64.402593 
" clip-path="url(#p8aad27f5d5)" style="fill: none; stroke: #b0b0b0; stroke-width: 0.8; stroke-linecap: square"/>
     </g>
     <g id="line2d_16">
      <g>
       <use xlink:href="#m5f61ccf3cc" x="49.25" y="64.402593" style="stroke: #000000; stroke-width: 0.8"/>
      </g>
     </g>
     <g id="text_2">
      <!-- −25 -->
      <g transform="translate(21.145312 68.201811) scale(0.1 -0.1)">
       <defs>
        <path id="DejaVuSans-32" d="M 1228 531 
L 3431 531 
L 3431 0 
L 469 0 
L 469 531 
Q 828 903 1448 1529 
Q 2069 2156 2228 2338 
Q 2531 2678 2651 2914 
Q 2772 3150 2772 3378 
Q 2772 3750 2511 3984 
Q 2250 4219 1831 4219 
Q 1534 4219 1204 4116 
Q 875 4013 500 3803 
L 500 4441 
Q 881 4594 1212 4672 
Q 1544 4750 1819 4750 
Q 2544 4750 2975 4387 
Q 3406 4025 3406 3419 
Q 3406 3131 3298 2873 
Q 3191 2616 2906 2266 
Q 2828 2175 2409 1742 
Q 1991 1309 1228 531 
z
" transform="scale(0.015625)"/>
       </defs>
       <use xlink:href="#DejaVuSans-2212"/>
       <use xlink:href="#DejaVuSans-32" transform="translate(83.789062 0)"/>
       <use xlink:href="#DejaVuSans-35" transform="translate(147.412109 0)"/>
      </g>
     </g>
    </g>
    <g id="ytick_3">
     <g id="line2d_17">
      <path d="M 49.25 37.314496 
L 561.49875 37.314496 
" clip-path="url(#p8aad27f5d5)" style="fill: none; stroke: #b0b0b0; stroke-width: 0.8; stroke-linecap: square"/>
     </g>
     <g id="line2d_18">
      <g>
       <use xlink:href="#m5f61ccf3cc" x="49.25" y="37.314496" style="stroke: #000000; stroke-width: 0.8"/>
      </g>
     </g>
     <g id="text_3">
      <!-- 0 -->
      <g transform="translate(35.8875 41.113715) scale(0.1 -0.1)">
       <use xlink:href="#DejaVuSans-30"/>
      </g>
     </g>
    </g>
    <g id="text_4">
     <!-- V_A (mV) -->
     <g transform="translate(14.7875 95.650897) rotate(-90) scale(0.1 -0.1)">
      <defs>
       <path id="DejaVuSans-56" d="M 1831 0 
L 50 4666 
L 709 4666 
L 2188 738 
L 3669 4666 
L 4325 4666 
L 2547 0 
L 1831 0 
z
" transform="scale(0.015625)"/>
       <path id="DejaVuSans-5f" d="M 3263 -1063 
L 3263 -1509 
L -63 -1509 
L -63 -1063 
L 3263 -1063 
z
" transform="scale(0.015625)"/>
       <path id="DejaVuSans-41" d="M 2188 4044 
L 1331 1722 
L 3047 1722 
L 2188 4044 
z
M 1831 4666 
L 2547 4666 
L 4325 0 
L 3669 0 
L 3244 1197 
L 1141 1197 
L 716 0 
L 50 0 
L 1831 4666 
z
" transform="scale(0.015625)"/>
       <path id="DejaVuSans-20" transform="scale(0.015625)"/>
       <path id="DejaVuSans-28" d="M 1984 4856 
Q 1566 4138 1362 3434 
Q 1159 2731 1159 2009 
Q 1159 1288 1364 580 
Q 1569 -128 1984 -844 
L 1484 -844 
Q 1016 -109 783 600 
Q 550 1309 550 2009 
Q 550 2706 781 3412 
Q 1013 4119 1484 4856 
L 1984 4856 
z
" transform="scale(0.015625)"/>
       <path id="DejaVuSans-6d" d="M 3328 2828 
Q 3544 3216 3844 3400 
Q 4144 3584 4550 3584 
Q 5097 3584 5394 3201 
Q 5691 2819 5691 2113 
L 5691 0 
L 5113 0 
L 5113 2094 
Q 5113 2597 4934 2840 
Q 4756 3084 4391 3084 
Q 3944 3084 3684 2787 
Q 3425 2491 3425 1978 
L 3425 0 
L 2847 0 
L 2847 2094 
Q 2847 2600 2669 2842 
Q 2491 3084 2119 3084 
Q 1678 3084 1418 2786 
Q 1159 2488 1159 1978 
L 1159 0 
L 581 0 
L 581 3500 
L 1159 3500 
L 1159 2956 
Q 1356 3278 1631 3431 
Q 1906 3584 2284 3584 
Q 2666 3584 2933 3390 
Q 3200 3197 3328 2828 
z
" transform="scale(0.015625)"/>
       <path id="DejaVuSans-29" d="M 513 4856 
L 1013 4856 
Q 1481 4119 1714 3412 
Q 1947 2706 1947 2009 
Q 1947 1309 1714 600 
Q 1481 -109 1013 -844 
L 513 -844 
Q 928 -128 1133 580 
Q 1338 1288 1338 2009 
Q 1338 2731 1133 3434 
Q 928 4138 513 4856 
z
" transform="scale(0.015625)"/>
      </defs>
      <use xlink:href="#DejaVuSans-56"/>
      <use xlink:href="#DejaVuSans-5f" transform="translate(68.408203 0)"/>
      <use xlink:href="#DejaVuSans-41" transform="translate(118.408203 0)"/>
      <use xlink:href="#DejaVuSans-20" transform="translate(186.816406 0)"/>
      <use xlink:href="#DejaVuSans-28" transform="translate(218.603516 0)"/>
      <use xlink:href="#DejaVuSans-6d" transform="translate(257.617188 0)"/>
      <use xlink:href="#DejaVuSans-56" transform="translate(355.029297 0)"/>
      <use xlink:href="#DejaVuSans-29" transform="translate(423.4375 0)"/>
     </g>
    </g>
   </g>
   <g id="line2d_19">
    <path d="M 72.534034 107.743547 
L 77.190841 105.165774 
L 81.847648 102.833309 
L 86.970135 100.523133 
L 92.092623 98.453599 
L 97.680791 96.440992 
L 103.268959 94.65597 
L 109.322808 92.949242 
L 114.910976 91.559066 
L 115.376657 37.314496 
L 115.842337 107.125171 
L 118.636422 103.648787 
L 121.430506 100.540802 
L 124.22459 97.760576 
L 127.018674 95.27241 
L 130.278439 92.696971 
L 131.675481 91.690839 
L 132.141161 37.314496 
L 132.606842 107.125171 
L 135.400926 103.648787 
L 138.19501 100.540802 
L 140.989094 97.760576 
L 143.783178 95.27241 
L 147.042943 92.696971 
L 148.439985 91.690839 
L 148.905666 37.314496 
L 149.371347 107.125171 
L 152.165431 103.648787 
L 154.959515 100.540802 
L 157.753599 97.760576 
L 160.547683 95.27241 
L 163.807448 92.696971 
L 165.20449 91.690839 
L 165.67017 37.314496 
L 166.135851 107.125171 
L 168.929935 103.648787 
L 171.724019 100.540802 
L 174.518103 97.760576 
L 177.312187 95.27241 
L 180.571952 92.696971 
L 181.968994 91.690839 
L 182.434675 37.314496 
L 182.900356 107.125171 
L 185.69444 103.648787 
L 188.488524 100.540802 
L 191.282608 97.760576 
L 194.076692 95.27241 
L 197.336457 92.696971 
L 198.733499 91.690839 
L 199.19918 37.314496 
L 199.66486 107.125171 
L 202.458944 103.648787 
L 205.253028 100.540802 
L 208.047112 97.760576 
L 210.841197 95.27241 
L 214.100961 92.696971 
L 215.498003 91.690839 
L 215.963684 37.314496 
L 216.429365 107.125171 
L 219.223449 103.648787 
L 222.017533 100.540802 
L 224.811617 97.760576 
L 227.605701 95.27241 
L 230.865466 92.696971 
L 232.262508 91.690839 
L 232.728189 37.314496 
L 233.193869 107.125171 
L 235.987953 103.648787 
L 238.782038 100.540802 
L 241.576122 97.760576 
L 244.370206 95.27241 
L 247.62997 92.696971 
L 249.027012 91.690839 
L 249.492693 37.314496 
L 249.958374 107.125171 
L 252.752458 103.648787 
L 255.546542 100.540802 
L 258.340626 97.760576 
L 261.13471 95.27241 
L 264.394475 92.696971 
L 265.791517 91.690839 
L 266.257198 37.314496 
L 266.722878 107.125171 
L 269.516962 103.648787 
L 272.311047 100.540802 
L 275.105131 97.760576 
L 277.899215 95.27241 
L 281.15898 92.696971 
L 282.556022 91.690839 
L 283.021702 37.314496 
L 283.487383 107.125171 
L 286.281467 103.648787 
L 289.075551 100.540802 
L 291.869635 97.760576 
L 294.663719 95.27241 
L 297.923484 92.696971 
L 299.320526 91.690839 
L 299.786207 37.314496 
L 300.251888 107.125171 
L 303.045972 103.648787 
L 305.840056 100.540802 
L 308.63414 97.760576 
L 311.428224 95.27241 
L 314.687989 92.696971 
L 316.085031 91.690839 
L 316.550711 37.314496 
L 317.016392 107.125171 
L 319.810476 103.648787 
L 322.60456 100.540802 
L 325.398644 97.760576 
L 328.192728 95.27241 
L 331.452493 92.696971 
L 332.849535 91.690839 
L 333.315216 37.314496 
L 333.780897 107.125171 
L 336.574981 103.648787 
L 339.369065 100.540802 
L 342.163149 97.760576 
L 344.957233 95.27241 
L 348.216998 92.696971 
L 349.61404 91.690839 
L 350.07972 37.314496 
L 350.545401 107.125171 
L 353.339485 103.648787 
L 356.133569 100.540802 
L 358.927653 97.760576 
L 361.721737 95.27241 
L 364.981502 92.696971 
L 366.378544 91.690839 
L 366.844225 37.314496 
L 367.309906 107.125171 
L 370.10399 103.648787 
L 372.898074 100.540802 
L 375.692158 97.760576 
L 378.486242 95.27241 
L 381.746007 92.696971 
L 383.143049 91.690839 
L 383.60873 37.314496 
L 384.07441 107.125171 
L 386.868494 103.648787 
L 389.662578 100.540802 
L 392.456662 97.760576 
L 395.250747 95.27241 
L 398.510511 92.696971 
L 399.907553 91.690839 
L 400.373234 37.314496 
L 400.838915 107.125171 
L 403.632999 103.648787 
L 406.427083 100.540802 
L 409.221167 97.760576 
L 412.015251 95.27241 
L 415.275016 92.696971 
L 416.672058 91.690839 
L 417.137739 37.314496 
L 417.603419 107.125171 
L 420.397503 103.648787 
L 423.191587 100.540802 
L 425.985672 97.760576 
L 428.779756 95.27241 
L 432.03952 92.696971 
L 433.436562 91.690839 
L 433.902243 37.314496 
L 434.367924 107.125171 
L 437.162008 103.648787 
L 439.956092 100.540802 
L 442.750176 97.760576 
L 445.54426 95.27241 
L 448.804025 92.696971 
L 450.201067 91.690839 
L 450.666748 37.314496 
L 451.132428 107.125171 
L 453.926513 103.648787 
L 456.720597 100.540802 
L 459.514681 97.760576 
L 462.308765 95.27241 
L 465.56853 92.696971 
L 466.965572 91.690839 
L 467.431252 37.314496 
L 467.896933 107.125171 
L 470.691017 103.648787 
L 473.485101 100.540802 
L 476.279185 97.760576 
L 479.073269 95.27241 
L 482.333034 92.696971 
L 483.730076 91.690839 
L 484.195757 37.314496 
L 484.661437 107.125171 
L 487.455522 103.648787 
L 490.249606 100.540802 
L 493.04369 97.760576 
L 495.837774 95.27241 
L 499.097539 92.696971 
L 500.494581 91.690839 
L 500.960261 37.314496 
L 501.425942 107.125171 
L 504.220026 103.648787 
L 507.01411 100.540802 
L 509.808194 97.760576 
L 512.602278 95.27241 
L 515.862043 92.696971 
L 517.259085 91.690839 
L 517.724766 37.314496 
L 518.190447 107.125171 
L 520.984531 103.648787 
L 523.778615 100.540802 
L 526.572699 97.760576 
L 529.366783 95.27241 
L 532.626548 92.696971 
L 534.02359 91.690839 
L 534.48927 37.314496 
L 534.954951 107.125171 
L 537.749035 103.648787 
L 538.214716 103.10637 
L 538.214716 103.10637 
" clip-path="url(#p8aad27f5d5)" style="fill: none; stroke: #1f77b4; stroke-width: 1.5; stroke-linecap: square"/>
   </g>
   <g id="patch_3">
    <path d="M 49.25 111.265 
L 49.25 33.793043 
" style="fill: none; stroke: #000000; stroke-width: 0.8; stroke-linejoin: miter; stroke-linecap: square"/>
   </g>
   <g id="patch_4">
    <path d="M 561.49875 111.265 
L 561.49875 33.793043 
" style="fill: none; stroke: #000000; stroke-width: 0.8; stroke-linejoin: miter; stroke-linecap: square"/>
   </g>
   <g id="patch_5">
    <path d="M 49.25 111.265 
L 561.49875 111.265 
" style="fill: none; stroke: #000000; stroke-width: 0.8; stroke-linejoin: miter; stroke-linecap: square"/>
   </g>
   <g id="patch_6">
    <path d="M 49.25 33.793043 
L 561.49875 33.793043 
" style="fill: none; stroke: #000000; stroke-width: 0.8; stroke-linejoin: miter; stroke-linecap: square"/>
   </g>
  </g>
  <g id="axes_2">
   <g id="patch_7">
    <path d="M 49.25 203.71 
L 561.49875 203.71 
L 561.49875 126.238043 
L 49.25 126.238043 
L 49.25 203.71 
z
" style="fill: none"/>
   </g>
   <g id="matplotlib.axis_3">
    <g id="xtick_7">
     <g id="line2d_20">
      <path d="M 72.534034 203.71 
L 72.534034 126.238043 
" clip-path="url(#p80600faa6b)" style="fill: none; stroke: #b0b0b0; stroke-width: 0.8; stroke-linecap: square"/>
     </g>
     <g id="line2d_21">
      <g>
       <use xlink:href="#mf5cf45e2b6" x="72.534034" y="203.71" style="stroke: #000000; stroke-width: 0.8"/>
      </g>
     </g>
    </g>
    <g id="xtick_8">
     <g id="line2d_22">
      <path d="M 165.67017 203.71 
L 165.67017 126.238043 
" clip-path="url(#p80600faa6b)" style="fill: none; stroke: #b0b0b0; stroke-width: 0.8; stroke-linecap: square"/>
     </g>
     <g id="line2d_23">
      <g>
       <use xlink:href="#mf5cf45e2b6" x="165.67017" y="203.71" style="stroke: #000000; stroke-width: 0.8"/>
      </g>
     </g>
    </g>
    <g id="xtick_9">
     <g id="line2d_24">
      <path d="M 258.806307 203.71 
L 258.806307 126.238043 
" clip-path="url(#p80600faa6b)" style="fill: none; stroke: #b0b0b0; stroke-width: 0.8; stroke-linecap: square"/>
     </g>
     <g id="line2d_25">
      <g>
       <use xlink:href="#mf5cf45e2b6" x="258.806307" y="203.71" style="stroke: #000000; stroke-width: 0.8"/>
      </g>
     </g>
    </g>
    <g id="xtick_10">
     <g id="line2d_26">
      <path d="M 351.942443 203.71 
L 351.942443 126.238043 
" clip-path="url(#p80600faa6b)" style="fill: none; stroke: #b0b0b0; stroke-width: 0.8; stroke-linecap: square"/>
     </g>
     <g id="line2d_27">
      <g>
       <use xlink:href="#mf5cf45e2b6" x="351.942443" y="203.71" style="stroke: #000000; stroke-width: 0.8"/>
      </g>
     </g>
    </g>
    <g id="xtick_11">
     <g id="line2d_28">
      <path d="M 445.07858 203.71 
L 445.07858 126.238043 
" clip-path="url(#p80600faa6b)" style="fill: none; stroke: #b0b0b0; stroke-width: 0.8; stroke-linecap: square"/>
     </g>
     <g id="line2d_29">
      <g>
       <use xlink:href="#mf5cf45e2b6" x="445.07858" y="203.71" style="stroke: #000000; stroke-width: 0.8"/>
      </g>
     </g>
    </g>
    <g id="xtick_12">
     <g id="line2d_30">
      <path d="M 538.214716 203.71 
L 538.214716 126.238043 
" clip-path="url(#p80600faa6b)" style="fill: none; stroke: #b0b0b0; stroke-width: 0.8; stroke-linecap: square"/>
     </g>
     <g id="line2d_31">
      <g>
       <use xlink:href="#mf5cf45e2b6" x="538.214716" y="203.71" style="stroke: #000000; stroke-width: 0.8"/>
      </g>
     </g>
    </g>
   </g>
   <g id="matplotlib.axis_4">
    <g id="ytick_4">
     <g id="line2d_32">
      <path d="M 49.25 183.935689 
L 561.49875 183.935689 
" clip-path="url(#p80600faa6b)" style="fill: none; stroke: #b0b0b0; stroke-width: 0.8; stroke-linecap: square"/>
     </g>
     <g id="line2d_33">
      <g>
       <use xlink:href="#m5f61ccf3cc" x="49.25" y="183.935689" style="stroke: #000000; stroke-width: 0.8"/>
      </g>
     </g>
     <g id="text_5">
      <!-- −50 -->
      <g transform="translate(21.145312 187.734908) scale(0.1 -0.1)">
       <use xlink:href="#DejaVuSans-2212"/>
       <use xlink:href="#DejaVuSans-35" transform="translate(83.789062 0)"/>
       <use xlink:href="#DejaVuSans-30" transform="translate(147.412109 0)"/>
      </g>
     </g>
    </g>
    <g id="ytick_5">
     <g id="line2d_34">
      <path d="M 49.25 156.847593 
L 561.49875 156.847593 
" clip-path="url(#p80600faa6b)" style="fill: none; stroke: #b0b0b0; stroke-width: 0.8; stroke-linecap: square"/>
     </g>
     <g id="line2d_35">
      <g>
       <use xlink:href="#m5f61ccf3cc" x="49.25" y="156.847593" style="stroke: #000000; stroke-width: 0.8"/>
      </g>
     </g>
     <g id="text_6">
      <!-- −25 -->
      <g transform="translate(21.145312 160.646811) scale(0.1 -0.1)">
       <use xlink:href="#DejaVuSans-2212"/>
       <use xlink:href="#DejaVuSans-32" transform="translate(83.789062 0)"/>
       <use xlink:href="#DejaVuSans-35" transform="translate(147.412109 0)"/>
      </g>
     </g>
    </g>
    <g id="ytick_6">
     <g id="line2d_36">
      <path d="M 49.25 129.759496 
L 561.49875 129.759496 
" clip-path="url(#p80600faa6b)" style="fill: none; stroke: #b0b0b0; stroke-width: 0.8; stroke-linecap: square"/>
     </g>
     <g id="line2d_37">
      <g>
       <use xlink:href="#m5f61ccf3cc" x="49.25" y="129.759496" style="stroke: #000000; stroke-width: 0.8"/>
      </g>
     </g>
     <g id="text_7">
      <!-- 0 -->
      <g transform="translate(35.8875 133.558715) scale(0.1 -0.1)">
       <use xlink:href="#DejaVuSans-30"/>
      </g>
     </g>
    </g>
    <g id="text_8">
     <!-- V_B (mV) -->
     <g transform="translate(14.7875 188.106053) rotate(-90) scale(0.1 -0.1)">
      <defs>
       <path id="DejaVuSans-42" d="M 1259 2228 
L 1259 519 
L 2272 519 
Q 2781 519 3026 730 
Q 3272 941 3272 1375 
Q 3272 1813 3026 2020 
Q 2781 2228 2272 2228 
L 1259 2228 
z
M 1259 4147 
L 1259 2741 
L 2194 2741 
Q 2656 2741 2882 2914 
Q 3109 3088 3109 3444 
Q 3109 3797 2882 3972 
Q 2656 4147 2194 4147 
L 1259 4147 
z
M 628 4666 
L 2241 4666 
Q 2963 4666 3353 4366 
Q 3744 4066 3744 3513 
Q 3744 3084 3544 2831 
Q 3344 2578 2956 2516 
Q 3422 2416 3680 2098 
Q 3938 1781 3938 1306 
Q 3938 681 3513 340 
Q 3088 0 2303 0 
L 628 0 
L 628 4666 
z
" transform="scale(0.015625)"/>
      </defs>
      <use xlink:href="#DejaVuSans-56"/>
      <use xlink:href="#DejaVuSans-5f" transform="translate(68.408203 0)"/>
      <use xlink:href="#DejaVuSans-42" transform="translate(118.408203 0)"/>
      <use xlink:href="#DejaVuSans-20" transform="translate(187.011719 0)"/>
      <use xlink:href="#DejaVuSans-28" transform="translate(218.798828 0)"/>
      <use xlink:href="#DejaVuSans-6d" transform="translate(257.8125 0)"/>
      <use xlink:href="#DejaVuSans-56" transform="translate(355.224609 0)"/>
      <use xlink:href="#DejaVuSans-29" transform="translate(423.632812 0)"/>
     </g>
    </g>
   </g>
   <g id="line2d_38">
    <path d="M 72.534034 200.188547 
L 77.190841 197.610774 
L 81.847648 195.278309 
L 86.970135 192.968133 
L 92.092623 190.898599 
L 97.680791 188.885992 
L 103.268959 187.10097 
L 109.322808 185.394242 
L 114.910976 184.004066 
L 115.376657 129.759496 
L 115.842337 199.572491 
L 118.636422 196.108623 
L 121.430506 193.011018 
L 124.22459 190.239365 
L 127.018674 187.758241 
L 130.278439 185.18939 
L 131.675481 184.185619 
L 132.141161 129.759496 
L 132.606842 199.572491 
L 135.400926 196.108623 
L 138.19501 193.011018 
L 140.989094 190.239365 
L 143.783178 187.758241 
L 147.042943 185.18939 
L 148.439985 184.185619 
L 148.905666 129.759496 
L 149.371347 199.572491 
L 152.165431 196.108623 
L 154.959515 193.011018 
L 157.753599 190.239365 
L 160.547683 187.758241 
L 163.807448 185.18939 
L 165.20449 184.185619 
L 165.67017 129.759496 
L 166.135851 199.572491 
L 168.929935 196.108623 
L 171.724019 193.011018 
L 174.518103 190.239365 
L 177.312187 187.758241 
L 180.571952 185.18939 
L 181.968994 184.185619 
L 182.434675 129.759496 
L 182.900356 199.572491 
L 185.69444 196.108623 
L 188.488524 193.011018 
L 191.282608 190.239365 
L 194.076692 187.758241 
L 197.336457 185.18939 
L 198.733499 184.185619 
L 199.19918 129.759496 
L 199.66486 199.572491 
L 202.458944 196.108623 
L 205.253028 193.011018 
L 208.047112 190.239365 
L 210.841197 187.758241 
L 214.100961 185.18939 
L 215.498003 184.185619 
L 215.963684 129.759496 
L 216.429365 199.572491 
L 219.223449 196.108623 
L 222.017533 193.011018 
L 224.811617 190.239365 
L 227.605701 187.758241 
L 230.865466 185.18939 
L 232.262508 184.185619 
L 232.728189 129.759496 
L 233.193869 199.572491 
L 235.987953 196.108623 
L 238.782038 193.011018 
L 241.576122 190.239365 
L 244.370206 187.758241 
L 247.62997 185.18939 
L 249.027012 184.185619 
L 249.492693 129.759496 
L 249.958374 199.572491 
L 252.752458 196.108623 
L 255.546542 193.011018 
L 258.340626 190.239365 
L 261.13471 187.758241 
L 264.394475 185.18939 
L 265.791517 184.185619 
L 266.257198 129.759496 
L 266.722878 199.572491 
L 269.516962 196.108623 
L 272.311047 193.011018 
L 275.105131 190.239365 
L 277.899215 187.758241 
L 281.15898 185.18939 
L 282.556022 184.185619 
L 283.021702 129.759496 
L 283.487383 199.572491 
L 286.281467 196.108623 
L 289.075551 193.011018 
L 291.869635 190.239365 
L 294.663719 187.758241 
L 297.923484 185.18939 
L 299.320526 184.185619 
L 299.786207 129.759496 
L 300.251888 199.572491 
L 303.045972 196.108623 
L 305.840056 193.011018 
L 308.63414 190.239365 
L 311.428224 187.758241 
L 314.687989 185.18939 
L 316.085031 184.185619 
L 316.550711 129.759496 
L 317.016392 199.572491 
L 319.810476 196.108623 
L 322.60456 193.011018 
L 325.398644 190.239365 
L 328.192728 187.758241 
L 331.452493 185.18939 
L 332.849535 184.185619 
L 333.315216 129.759496 
L 333.780897 199.572491 
L 336.574981 196.108623 
L 339.369065 193.011018 
L 342.163149 190.239365 
L 344.957233 187.758241 
L 348.216998 185.18939 
L 349.61404 184.185619 
L 350.07972 129.759496 
L 350.545401 199.572491 
L 353.339485 196.108623 
L 356.133569 193.011018 
L 358.927653 190.239365 
L 361.721737 187.758241 
L 364.981502 185.18939 
L 366.378544 184.185619 
L 366.844225 129.759496 
L 367.309906 199.572491 
L 370.10399 196.108623 
L 372.898074 193.011018 
L 375.692158 190.239365 
L 378.486242 187.758241 
L 381.746007 185.18939 
L 383.143049 184.185619 
L 383.60873 129.759496 
L 384.07441 199.572491 
L 386.868494 196.108623 
L 389.662578 193.011018 
L 392.456662 190.239365 
L 395.250747 187.758241 
L 398.510511 185.18939 
L 399.907553 184.185619 
L 400.373234 129.759496 
L 400.838915 199.572491 
L 403.632999 196.108623 
L 406.427083 193.011018 
L 409.221167 190.239365 
L 412.015251 187.758241 
L 415.275016 185.18939 
L 416.672058 184.185619 
L 417.137739 129.759496 
L 417.603419 199.572491 
L 420.397503 196.108623 
L 423.191587 193.011018 
L 425.985672 190.239365 
L 428.779756 187.758241 
L 432.03952 185.18939 
L 433.436562 184.185619 
L 433.902243 129.759496 
L 434.367924 199.572491 
L 437.162008 196.108623 
L 439.956092 193.011018 
L 442.750176 190.239365 
L 445.54426 187.758241 
L 448.804025 185.18939 
L 450.201067 184.185619 
L 450.666748 129.759496 
L 451.132428 199.572491 
L 453.926513 196.108623 
L 456.720597 193.011018 
L 459.514681 190.239365 
L 462.308765 187.758241 
L 465.56853 185.18939 
L 466.965572 184.185619 
L 467.431252 129.759496 
L 467.896933 199.572491 
L 470.691017 196.108623 
L 473.485101 193.011018 
L 476.279185 190.239365 
L 479.073269 187.758241 
L 482.333034 185.18939 
L 483.730076 184.185619 
L 484.195757 129.759496 
L 484.661437 199.572491 
L 487.455522 196.108623 
L 490.249606 193.011018 
L 493.04369 190.239365 
L 495.837774 187.758241 
L 499.097539 185.18939 
L 500.494581 184.185619 
L 500.960261 129.759496 
L 501.425942 199.572491 
L 504.220026 196.108623 
L 507.01411 193.011018 
L 509.808194 190.239365 
L 512.602278 187.758241 
L 515.862043 185.18939 
L 517.259085 184.185619 
L 517.724766 129.759496 
L 518.190447 199.572491 
L 520.984531 196.108623 
L 523.778615 193.011018 
L 526.572699 190.239365 
L 529.366783 187.758241 
L 532.626548 185.18939 
L 534.02359 184.185619 
L 534.48927 129.759496 
L 534.954951 199.572491 
L 537.749035 196.108623 
L 538.214716 195.568075 
L 538.214716 195.568075 
" clip-path="url(#p80600faa6b)" style="fill: none; stroke: #1f77b4; stroke-width: 1.5; stroke-linecap: square"/>
   </g>
   <g id="patch_8">
    <path d="M 49.25 203.71 
L 49.25 126.238043 
" style="fill: none; stroke: #000000; stroke-width: 0.8; stroke-linejoin: miter; stroke-linecap: square"/>
   </g>
   <g id="patch_9">
    <path d="M 561.49875 203.71 
L 561.49875 126.238043 
" style="fill: none; stroke: #000000; stroke-width: 0.8; stroke-linejoin: miter; stroke-linecap: square"/>
   </g>
   <g id="patch_10">
    <path d="M 49.25 203.71 
L 561.49875 203.71 
" style="fill: none; stroke: #000000; stroke-width: 0.8; stroke-linejoin: miter; stroke-linecap: square"/>
   </g>
   <g id="patch_11">
    <path d="M 49.25 126.238043 
L 561.49875 126.238043 
" style="fill: none; stroke: #000000; stroke-width: 0.8; stroke-linejoin: miter; stroke-linecap: square"/>
   </g>
  </g>
  <g id="axes_3">
   <g id="patch_12">
    <path d="M 49.25 296.155 
L 561.49875 296.155 
L 561.49875 218.683043 
L 49.25 218.683043 
L 49.25 296.155 
z
" style="fill: none"/>
   </g>
   <g id="matplotlib.axis_5">
    <g id="xtick_13">
     <g id="line2d_39">
      <path d="M 72.534034 296.155 
L 72.534034 218.683043 
" clip-path="url(#p68d492a275)" style="fill: none; stroke: #b0b0b0; stroke-width: 0.8; stroke-linecap: square"/>
     </g>
     <g id="line2d_40">
      <g>
       <use xlink:href="#mf5cf45e2b6" x="72.534034" y="296.155" style="stroke: #000000; stroke-width: 0.8"/>
      </g>
     </g>
    </g>
    <g id="xtick_14">
     <g id="line2d_41">
      <path d="M 165.67017 296.155 
L 165.67017 218.683043 
" clip-path="url(#p68d492a275)" style="fill: none; stroke: #b0b0b0; stroke-width: 0.8; stroke-linecap: square"/>
     </g>
     <g id="line2d_42">
      <g>
       <use xlink:href="#mf5cf45e2b6" x="165.67017" y="296.155" style="stroke: #000000; stroke-width: 0.8"/>
      </g>
     </g>
    </g>
    <g id="xtick_15">
     <g id="line2d_43">
      <path d="M 258.806307 296.155 
L 258.806307 218.683043 
" clip-path="url(#p68d492a275)" style="fill: none; stroke: #b0b0b0; stroke-width: 0.8; stroke-linecap: square"/>
     </g>
     <g id="line2d_44">
      <g>
       <use xlink:href="#mf5cf45e2b6" x="258.806307" y="296.155" style="stroke: #000000; stroke-width: 0.8"/>
      </g>
     </g>
    </g>
    <g id="xtick_16">
     <g id="line2d_45">
      <path d="M 351.942443 296.155 
L 351.942443 218.683043 
" clip-path="url(#p68d492a275)" style="fill: none; stroke: #b0b0b0; stroke-width: 0.8; stroke-linecap: square"/>
     </g>
     <g id="line2d_46">
      <g>
       <use xlink:href="#mf5cf45e2b6" x="351.942443" y="296.155" style="stroke: #000000; stroke-width: 0.8"/>
      </g>
     </g>
    </g>
    <g id="xtick_17">
     <g id="line2d_47">
      <path d="M 445.07858 296.155 
L 445.07858 218.683043 
" clip-path="url(#p68d492a275)" style="fill: none; stroke: #b0b0b0; stroke-width: 0.8; stroke-linecap: square"/>
     </g>
     <g id="line2d_48">
      <g>
       <use xlink:href="#mf5cf45e2b6" x="445.07858" y="296.155" style="stroke: #000000; stroke-width: 0.8"/>
      </g>
     </g>
    </g>
    <g id="xtick_18">
     <g id="line2d_49">
      <path d="M 538.214716 296.155 
L 538.214716 218.683043 
" clip-path="url(#p68d492a275)" style="fill: none; stroke: #b0b0b0; stroke-width: 0.8; stroke-linecap: square"/>
     </g>
     <g id="line2d_50">
      <g>
       <use xlink:href="#mf5cf45e2b6" x="538.214716" y="296.155" style="stroke: #000000; stroke-width: 0.8"/>
      </g>
     </g>
    </g>
   </g>
   <g id="matplotlib.axis_6">
    <g id="ytick_7">
     <g id="line2d_51">
      <path d="M 49.25 292.633547 
L 561.49875 292.633547 
" clip-path="url(#p68d492a275)" style="fill: none; stroke: #b0b0b0; stroke-width: 0.8; stroke-linecap: square"/>
     </g>
     <g id="line2d_52">
      <g>
       <use xlink:href="#m5f61ccf3cc" x="49.25" y="292.633547" style="stroke: #000000; stroke-width: 0.8"/>
      </g>
     </g>
     <g id="text_9">
      <!-- 0.0 -->
      <g transform="translate(26.346875 296.432766) scale(0.1 -0.1)">
       <defs>
        <path id="DejaVuSans-2e" d="M 684 794 
L 1344 794 
L 1344 0 
L 684 0 
L 684 794 
z
" transform="scale(0.015625)"/>
       </defs>
       <use xlink:href="#DejaVuSans-30"/>
       <use xlink:href="#DejaVuSans-2e" transform="translate(63.623047 0)"/>
       <use xlink:href="#DejaVuSans-30" transform="translate(95.410156 0)"/>
      </g>
     </g>
    </g>
    <g id="ytick_8">
     <g id="line2d_53">
      <path d="M 49.25 257.419022 
L 561.49875 257.419022 
" clip-path="url(#p68d492a275)" style="fill: none; stroke: #b0b0b0; stroke-width: 0.8; stroke-linecap: square"/>
     </g>
     <g id="line2d_54">
      <g>
       <use xlink:href="#m5f61ccf3cc" x="49.25" y="257.419022" style="stroke: #000000; stroke-width: 0.8"/>
      </g>
     </g>
     <g id="text_10">
      <!-- 0.5 -->
      <g transform="translate(26.346875 261.21824) scale(0.1 -0.1)">
       <use xlink:href="#DejaVuSans-30"/>
       <use xlink:href="#DejaVuSans-2e" transform="translate(63.623047 0)"/>
       <use xlink:href="#DejaVuSans-35" transform="translate(95.410156 0)"/>
      </g>
     </g>
    </g>
    <g id="ytick_9">
     <g id="line2d_55">
      <path d="M 49.25 222.204496 
L 561.49875 222.204496 
" clip-path="url(#p68d492a275)" style="fill: none; stroke: #b0b0b0; stroke-width: 0.8; stroke-linecap: square"/>
     </g>
     <g id="line2d_56">
      <g>
       <use xlink:href="#m5f61ccf3cc" x="49.25" y="222.204496" style="stroke: #000000; stroke-width: 0.8"/>
      </g>
     </g>
     <g id="text_11">
      <!-- 1.0 -->
      <g transform="translate(26.346875 226.003715) scale(0.1 -0.1)">
       <defs>
        <path id="DejaVuSans-31" d="M 794 531 
L 1825 531 
L 1825 4091 
L 703 3866 
L 703 4441 
L 1819 4666 
L 2450 4666 
L 2450 531 
L 3481 531 
L 3481 0 
L 794 0 
L 794 531 
z
" transform="scale(0.015625)"/>
       </defs>
       <use xlink:href="#DejaVuSans-31"/>
       <use xlink:href="#DejaVuSans-2e" transform="translate(63.623047 0)"/>
       <use xlink:href="#DejaVuSans-30" transform="translate(95.410156 0)"/>
      </g>
     </g>
    </g>
    <g id="text_12">
     <!-- P_s (A to B) -->
     <g transform="translate(19.989062 286.077615) rotate(-90) scale(0.1 -0.1)">
      <defs>
       <path id="DejaVuSans-50" d="M 1259 4147 
L 1259 2394 
L 2053 2394 
Q 2494 2394 2734 2622 
Q 2975 2850 2975 3272 
Q 2975 3691 2734 3919 
Q 2494 4147 2053 4147 
L 1259 4147 
z
M 628 4666 
L 2053 4666 
Q 2838 4666 3239 4311 
Q 3641 3956 3641 3272 
Q 3641 2581 3239 2228 
Q 2838 1875 2053 1875 
L 1259 1875 
L 1259 0 
L 628 0 
L 628 4666 
z
" transform="scale(0.015625)"/>
       <path id="DejaVuSans-73" d="M 2834 3397 
L 2834 2853 
Q 2591 2978 2328 3040 
Q 2066 3103 1784 3103 
Q 1356 3103 1142 2972 
Q 928 2841 928 2578 
Q 928 2378 1081 2264 
Q 1234 2150 1697 2047 
L 1894 2003 
Q 2506 1872 2764 1633 
Q 3022 1394 3022 966 
Q 3022 478 2636 193 
Q 2250 -91 1575 -91 
Q 1294 -91 989 -36 
Q 684 19 347 128 
L 347 722 
Q 666 556 975 473 
Q 1284 391 1588 391 
Q 1994 391 2212 530 
Q 2431 669 2431 922 
Q 2431 1156 2273 1281 
Q 2116 1406 1581 1522 
L 1381 1569 
Q 847 1681 609 1914 
Q 372 2147 372 2553 
Q 372 3047 722 3315 
Q 1072 3584 1716 3584 
Q 2034 3584 2315 3537 
Q 2597 3491 2834 3397 
z
" transform="scale(0.015625)"/>
       <path id="DejaVuSans-74" d="M 1172 4494 
L 1172 3500 
L 2356 3500 
L 2356 3053 
L 1172 3053 
L 1172 1153 
Q 1172 725 1289 603 
Q 1406 481 1766 481 
L 2356 481 
L 2356 0 
L 1766 0 
Q 1100 0 847 248 
Q 594 497 594 1153 
L 594 3053 
L 172 3053 
L 172 3500 
L 594 3500 
L 594 4494 
L 1172 4494 
z
" transform="scale(0.015625)"/>
       <path id="DejaVuSans-6f" d="M 1959 3097 
Q 1497 3097 1228 2736 
Q 959 2375 959 1747 
Q 959 1119 1226 758 
Q 1494 397 1959 397 
Q 2419 397 2687 759 
Q 2956 1122 2956 1747 
Q 2956 2369 2687 2733 
Q 2419 3097 1959 3097 
z
M 1959 3584 
Q 2709 3584 3137 3096 
Q 3566 2609 3566 1747 
Q 3566 888 3137 398 
Q 2709 -91 1959 -91 
Q 1206 -91 779 398 
Q 353 888 353 1747 
Q 353 2609 779 3096 
Q 1206 3584 1959 3584 
z
" transform="scale(0.015625)"/>
      </defs>
      <use xlink:href="#DejaVuSans-50"/>
      <use xlink:href="#DejaVuSans-5f" transform="translate(60.302734 0)"/>
      <use xlink:href="#DejaVuSans-73" transform="translate(110.302734 0)"/>
      <use xlink:href="#DejaVuSans-20" transform="translate(162.402344 0)"/>
      <use xlink:href="#DejaVuSans-28" transform="translate(194.189453 0)"/>
      <use xlink:href="#DejaVuSans-41" transform="translate(233.203125 0)"/>
      <use xlink:href="#DejaVuSans-20" transform="translate(301.611328 0)"/>
      <use xlink:href="#DejaVuSans-74" transform="translate(333.398438 0)"/>
      <use xlink:href="#DejaVuSans-6f" transform="translate(372.607422 0)"/>
      <use xlink:href="#DejaVuSans-20" transform="translate(433.789062 0)"/>
      <use xlink:href="#DejaVuSans-42" transform="translate(465.576172 0)"/>
      <use xlink:href="#DejaVuSans-29" transform="translate(534.179688 0)"/>
     </g>
    </g>
   </g>
   <g id="line2d_57">
    <path d="M 72.534034 292.633547 
L 114.910976 292.633547 
L 115.376657 222.204496 
L 120.033464 226.761383 
L 124.69027 231.023431 
L 129.812758 235.393876 
L 131.675481 236.905071 
L 132.141161 222.204496 
L 136.797968 226.761383 
L 141.454775 231.023431 
L 146.577262 235.393876 
L 148.439985 236.905071 
L 148.905666 222.204496 
L 153.562473 226.761383 
L 158.21928 231.023431 
L 163.341767 235.393876 
L 165.20449 236.905071 
L 165.67017 222.204496 
L 170.326977 226.761383 
L 174.983784 231.023431 
L 180.106272 235.393876 
L 181.968994 236.905071 
L 182.434675 222.204496 
L 187.091482 226.761383 
L 191.748289 231.023431 
L 196.870776 235.393876 
L 198.733499 236.905071 
L 199.19918 222.204496 
L 203.855986 226.761383 
L 208.512793 231.023431 
L 213.635281 235.393876 
L 215.498003 236.905071 
L 215.963684 222.204496 
L 220.620491 226.761383 
L 225.277298 231.023431 
L 230.399785 235.393876 
L 232.262508 236.905071 
L 232.728189 222.204496 
L 237.384995 226.761383 
L 242.041802 231.023431 
L 247.16429 235.393876 
L 249.027012 236.905071 
L 249.492693 222.204496 
L 254.1495 226.761383 
L 258.806307 231.023431 
L 263.928794 235.393876 
L 265.791517 236.905071 
L 266.257198 222.204496 
L 270.914005 226.761383 
L 275.570811 231.023431 
L 280.693299 235.393876 
L 282.556022 236.905071 
L 283.021702 222.204496 
L 287.678509 226.761383 
L 292.335316 231.023431 
L 297.457803 235.393876 
L 299.320526 236.905071 
L 299.786207 222.204496 
L 304.443014 226.761383 
L 309.09982 231.023431 
L 314.222308 235.393876 
L 316.085031 236.905071 
L 316.550711 222.204496 
L 321.207518 226.761383 
L 325.864325 231.023431 
L 330.986812 235.393876 
L 332.849535 236.905071 
L 333.315216 222.204496 
L 337.972023 226.761383 
L 342.62883 231.023431 
L 347.751317 235.393876 
L 349.61404 236.905071 
L 350.07972 222.204496 
L 354.736527 226.761383 
L 359.393334 231.023431 
L 364.515822 235.393876 
L 366.378544 236.905071 
L 366.844225 222.204496 
L 371.501032 226.761383 
L 376.157839 231.023431 
L 381.280326 235.393876 
L 383.143049 236.905071 
L 383.60873 222.204496 
L 388.265536 226.761383 
L 392.922343 231.023431 
L 398.044831 235.393876 
L 399.907553 236.905071 
L 400.373234 222.204496 
L 405.030041 226.761383 
L 409.686848 231.023431 
L 414.809335 235.393876 
L 416.672058 236.905071 
L 417.137739 222.204496 
L 421.794545 226.761383 
L 426.451352 231.023431 
L 431.57384 235.393876 
L 433.436562 236.905071 
L 433.902243 222.204496 
L 438.55905 226.761383 
L 443.215857 231.023431 
L 448.338344 235.393876 
L 450.201067 236.905071 
L 450.666748 222.204496 
L 455.323555 226.761383 
L 459.980361 231.023431 
L 465.102849 235.393876 
L 466.965572 236.905071 
L 467.431252 222.204496 
L 472.088059 226.761383 
L 476.744866 231.023431 
L 481.867353 235.393876 
L 483.730076 236.905071 
L 484.195757 222.204496 
L 488.852564 226.761383 
L 493.50937 231.023431 
L 498.631858 235.393876 
L 500.494581 236.905071 
L 500.960261 222.204496 
L 505.617068 226.761383 
L 510.273875 231.023431 
L 515.396363 235.393876 
L 517.259085 236.905071 
L 517.724766 222.204496 
L 522.381573 226.761383 
L 527.03838 231.023431 
L 532.160867 235.393876 
L 534.02359 236.905071 
L 534.48927 222.204496 
L 538.214716 225.874226 
L 538.214716 225.874226 
" clip-path="url(#p68d492a275)" style="fill: none; stroke: #1f77b4; stroke-width: 1.5; stroke-linecap: square"/>
   </g>
   <g id="patch_13">
    <path d="M 49.25 296.155 
L 49.25 218.683043 
" style="fill: none; stroke: #000000; stroke-width: 0.8; stroke-linejoin: miter; stroke-linecap: square"/>
   </g>
   <g id="patch_14">
    <path d="M 561.49875 296.155 
L 561.49875 218.683043 
" style="fill: none; stroke: #000000; stroke-width: 0.8; stroke-linejoin: miter; stroke-linecap: square"/>
   </g>
   <g id="patch_15">
    <path d="M 49.25 296.155 
L 561.49875 296.155 
" style="fill: none; stroke: #000000; stroke-width: 0.8; stroke-linejoin: miter; stroke-linecap: square"/>
   </g>
   <g id="patch_16">
    <path d="M 49.25 218.683043 
L 561.49875 218.683043 
" style="fill: none; stroke: #000000; stroke-width: 0.8; stroke-linejoin: miter; stroke-linecap: square"/>
   </g>
  </g>
  <g id="axes_4">
   <g id="patch_17">
    <path d="M 49.25 388.6 
L 561.49875 388.6 
L 561.49875 311.128043 
L 49.25 311.128043 
L 49.25 388.6 
z
" style="fill: none"/>
   </g>
   <g id="matplotlib.axis_7">
    <g id="xtick_19">
     <g id="line2d_58">
      <path d="M 72.534034 388.6 
L 72.534034 311.128043 
" clip-path="url(#pe9cccfec88)" style="fill: none; stroke: #b0b0b0; stroke-width: 0.8; stroke-linecap: square"/>
     </g>
     <g id="line2d_59">
      <g>
       <use xlink:href="#mf5cf45e2b6" x="72.534034" y="388.6" style="stroke: #000000; stroke-width: 0.8"/>
      </g>
     </g>
     <g id="text_13">
      <!-- 0 -->
      <g transform="translate(69.352784 403.198437) scale(0.1 -0.1)">
       <use xlink:href="#DejaVuSans-30"/>
      </g>
     </g>
    </g>
    <g id="xtick_20">
     <g id="line2d_60">
      <path d="M 165.67017 388.6 
L 165.67017 311.128043 
" clip-path="url(#pe9cccfec88)" style="fill: none; stroke: #b0b0b0; stroke-width: 0.8; stroke-linecap: square"/>
     </g>
     <g id="line2d_61">
      <g>
       <use xlink:href="#mf5cf45e2b6" x="165.67017" y="388.6" style="stroke: #000000; stroke-width: 0.8"/>
      </g>
     </g>
     <g id="text_14">
      <!-- 20 -->
      <g transform="translate(159.30767 403.198437) scale(0.1 -0.1)">
       <use xlink:href="#DejaVuSans-32"/>
       <use xlink:href="#DejaVuSans-30" transform="translate(63.623047 0)"/>
      </g>
     </g>
    </g>
    <g id="xtick_21">
     <g id="line2d_62">
      <path d="M 258.806307 388.6 
L 258.806307 311.128043 
" clip-path="url(#pe9cccfec88)" style="fill: none; stroke: #b0b0b0; stroke-width: 0.8; stroke-linecap: square"/>
     </g>
     <g id="line2d_63">
      <g>
       <use xlink:href="#mf5cf45e2b6" x="258.806307" y="388.6" style="stroke: #000000; stroke-width: 0.8"/>
      </g>
     </g>
     <g id="text_15">
      <!-- 40 -->
      <g transform="translate(252.443807 403.198437) scale(0.1 -0.1)">
       <defs>
        <path id="DejaVuSans-34" d="M 2419 4116 
L 825 1625 
L 2419 1625 
L 2419 4116 
z
M 2253 4666 
L 3047 4666 
L 3047 1625 
L 3713 1625 
L 3713 1100 
L 3047 1100 
L 3047 0 
L 2419 0 
L 2419 1100 
L 313 1100 
L 313 1709 
L 2253 4666 
z
" transform="scale(0.015625)"/>
       </defs>
       <use xlink:href="#DejaVuSans-34"/>
       <use xlink:href="#DejaVuSans-30" transform="translate(63.623047 0)"/>
      </g>
     </g>
    </g>
    <g id="xtick_22">
     <g id="line2d_64">
      <path d="M 351.942443 388.6 
L 351.942443 311.128043 
" clip-path="url(#pe9cccfec88)" style="fill: none; stroke: #b0b0b0; stroke-width: 0.8; stroke-linecap: square"/>
     </g>
     <g id="line2d_65">
      <g>
       <use xlink:href="#mf5cf45e2b6" x="351.942443" y="388.6" style="stroke: #000000; stroke-width: 0.8"/>
      </g>
     </g>
     <g id="text_16">
      <!-- 60 -->
      <g transform="translate(345.579943 403.198437) scale(0.1 -0.1)">
       <defs>
        <path id="DejaVuSans-36" d="M 2113 2584 
Q 1688 2584 1439 2293 
Q 1191 2003 1191 1497 
Q 1191 994 1439 701 
Q 1688 409 2113 409 
Q 2538 409 2786 701 
Q 3034 994 3034 1497 
Q 3034 2003 2786 2293 
Q 2538 2584 2113 2584 
z
M 3366 4563 
L 3366 3988 
Q 3128 4100 2886 4159 
Q 2644 4219 2406 4219 
Q 1781 4219 1451 3797 
Q 1122 3375 1075 2522 
Q 1259 2794 1537 2939 
Q 1816 3084 2150 3084 
Q 2853 3084 3261 2657 
Q 3669 2231 3669 1497 
Q 3669 778 3244 343 
Q 2819 -91 2113 -91 
Q 1303 -91 875 529 
Q 447 1150 447 2328 
Q 447 3434 972 4092 
Q 1497 4750 2381 4750 
Q 2619 4750 2861 4703 
Q 3103 4656 3366 4563 
z
" transform="scale(0.015625)"/>
       </defs>
       <use xlink:href="#DejaVuSans-36"/>
       <use xlink:href="#DejaVuSans-30" transform="translate(63.623047 0)"/>
      </g>
     </g>
    </g>
    <g id="xtick_23">
     <g id="line2d_66">
      <path d="M 445.07858 388.6 
L 445.07858 311.128043 
" clip-path="url(#pe9cccfec88)" style="fill: none; stroke: #b0b0b0; stroke-width: 0.8; stroke-linecap: square"/>
     </g>
     <g id="line2d_67">
      <g>
       <use xlink:href="#mf5cf45e2b6" x="445.07858" y="388.6" style="stroke: #000000; stroke-width: 0.8"/>
      </g>
     </g>
     <g id="text_17">
      <!-- 80 -->
      <g transform="translate(438.71608 403.198437) scale(0.1 -0.1)">
       <defs>
        <path id="DejaVuSans-38" d="M 2034 2216 
Q 1584 2216 1326 1975 
Q 1069 1734 1069 1313 
Q 1069 891 1326 650 
Q 1584 409 2034 409 
Q 2484 409 2743 651 
Q 3003 894 3003 1313 
Q 3003 1734 2745 1975 
Q 2488 2216 2034 2216 
z
M 1403 2484 
Q 997 2584 770 2862 
Q 544 3141 544 3541 
Q 544 4100 942 4425 
Q 1341 4750 2034 4750 
Q 2731 4750 3128 4425 
Q 3525 4100 3525 3541 
Q 3525 3141 3298 2862 
Q 3072 2584 2669 2484 
Q 3125 2378 3379 2068 
Q 3634 1759 3634 1313 
Q 3634 634 3220 271 
Q 2806 -91 2034 -91 
Q 1263 -91 848 271 
Q 434 634 434 1313 
Q 434 1759 690 2068 
Q 947 2378 1403 2484 
z
M 1172 3481 
Q 1172 3119 1398 2916 
Q 1625 2713 2034 2713 
Q 2441 2713 2670 2916 
Q 2900 3119 2900 3481 
Q 2900 3844 2670 4047 
Q 2441 4250 2034 4250 
Q 1625 4250 1398 4047 
Q 1172 3844 1172 3481 
z
" transform="scale(0.015625)"/>
       </defs>
       <use xlink:href="#DejaVuSans-38"/>
       <use xlink:href="#DejaVuSans-30" transform="translate(63.623047 0)"/>
      </g>
     </g>
    </g>
    <g id="xtick_24">
     <g id="line2d_68">
      <path d="M 538.214716 388.6 
L 538.214716 311.128043 
" clip-path="url(#pe9cccfec88)" style="fill: none; stroke: #b0b0b0; stroke-width: 0.8; stroke-linecap: square"/>
     </g>
     <g id="line2d_69">
      <g>
       <use xlink:href="#mf5cf45e2b6" x="538.214716" y="388.6" style="stroke: #000000; stroke-width: 0.8"/>
      </g>
     </g>
     <g id="text_18">
      <!-- 100 -->
      <g transform="translate(528.670966 403.198437) scale(0.1 -0.1)">
       <use xlink:href="#DejaVuSans-31"/>
       <use xlink:href="#DejaVuSans-30" transform="translate(63.623047 0)"/>
       <use xlink:href="#DejaVuSans-30" transform="translate(127.246094 0)"/>
      </g>
     </g>
    </g>
    <g id="text_19">
     <!-- Time (ms) -->
     <g transform="translate(280.175156 416.876562) scale(0.1 -0.1)">
      <defs>
       <path id="DejaVuSans-54" d="M -19 4666 
L 3928 4666 
L 3928 4134 
L 2272 4134 
L 2272 0 
L 1638 0 
L 1638 4134 
L -19 4134 
L -19 4666 
z
" transform="scale(0.015625)"/>
       <path id="DejaVuSans-69" d="M 603 3500 
L 1178 3500 
L 1178 0 
L 603 0 
L 603 3500 
z
M 603 4863 
L 1178 4863 
L 1178 4134 
L 603 4134 
L 603 4863 
z
" transform="scale(0.015625)"/>
       <path id="DejaVuSans-65" d="M 3597 1894 
L 3597 1613 
L 953 1613 
Q 991 1019 1311 708 
Q 1631 397 2203 397 
Q 2534 397 2845 478 
Q 3156 559 3463 722 
L 3463 178 
Q 3153 47 2828 -22 
Q 2503 -91 2169 -91 
Q 1331 -91 842 396 
Q 353 884 353 1716 
Q 353 2575 817 3079 
Q 1281 3584 2069 3584 
Q 2775 3584 3186 3129 
Q 3597 2675 3597 1894 
z
M 3022 2063 
Q 3016 2534 2758 2815 
Q 2500 3097 2075 3097 
Q 1594 3097 1305 2825 
Q 1016 2553 972 2059 
L 3022 2063 
z
" transform="scale(0.015625)"/>
      </defs>
      <use xlink:href="#DejaVuSans-54"/>
      <use xlink:href="#DejaVuSans-69" transform="translate(57.958984 0)"/>
      <use xlink:href="#DejaVuSans-6d" transform="translate(85.742188 0)"/>
      <use xlink:href="#DejaVuSans-65" transform="translate(183.154297 0)"/>
      <use xlink:href="#DejaVuSans-20" transform="translate(244.677734 0)"/>
      <use xlink:href="#DejaVuSans-28" transform="translate(276.464844 0)"/>
      <use xlink:href="#DejaVuSans-6d" transform="translate(315.478516 0)"/>
      <use xlink:href="#DejaVuSans-73" transform="translate(412.890625 0)"/>
      <use xlink:href="#DejaVuSans-29" transform="translate(464.990234 0)"/>
     </g>
    </g>
   </g>
   <g id="matplotlib.axis_8">
    <g id="ytick_10">
     <g id="line2d_70">
      <path d="M 49.25 385.078547 
L 561.49875 385.078547 
" clip-path="url(#pe9cccfec88)" style="fill: none; stroke: #b0b0b0; stroke-width: 0.8; stroke-linecap: square"/>
     </g>
     <g id="line2d_71">
      <g>
       <use xlink:href="#m5f61ccf3cc" x="49.25" y="385.078547" style="stroke: #000000; stroke-width: 0.8"/>
      </g>
     </g>
     <g id="text_20">
      <!-- 0.0 -->
      <g transform="translate(26.346875 388.877766) scale(0.1 -0.1)">
       <use xlink:href="#DejaVuSans-30"/>
       <use xlink:href="#DejaVuSans-2e" transform="translate(63.623047 0)"/>
       <use xlink:href="#DejaVuSans-30" transform="translate(95.410156 0)"/>
      </g>
     </g>
    </g>
    <g id="ytick_11">
     <g id="line2d_72">
      <path d="M 49.25 349.864022 
L 561.49875 349.864022 
" clip-path="url(#pe9cccfec88)" style="fill: none; stroke: #b0b0b0; stroke-width: 0.8; stroke-linecap: square"/>
     </g>
     <g id="line2d_73">
      <g>
       <use xlink:href="#m5f61ccf3cc" x="49.25" y="349.864022" style="stroke: #000000; stroke-width: 0.8"/>
      </g>
     </g>
     <g id="text_21">
      <!-- 0.5 -->
      <g transform="translate(26.346875 353.66324) scale(0.1 -0.1)">
       <use xlink:href="#DejaVuSans-30"/>
       <use xlink:href="#DejaVuSans-2e" transform="translate(63.623047 0)"/>
       <use xlink:href="#DejaVuSans-35" transform="translate(95.410156 0)"/>
      </g>
     </g>
    </g>
    <g id="ytick_12">
     <g id="line2d_74">
      <path d="M 49.25 314.649496 
L 561.49875 314.649496 
" clip-path="url(#pe9cccfec88)" style="fill: none; stroke: #b0b0b0; stroke-width: 0.8; stroke-linecap: square"/>
     </g>
     <g id="line2d_75">
      <g>
       <use xlink:href="#m5f61ccf3cc" x="49.25" y="314.649496" style="stroke: #000000; stroke-width: 0.8"/>
      </g>
     </g>
     <g id="text_22">
      <!-- 1.0 -->
      <g transform="translate(26.346875 318.448715) scale(0.1 -0.1)">
       <use xlink:href="#DejaVuSans-31"/>
       <use xlink:href="#DejaVuSans-2e" transform="translate(63.623047 0)"/>
       <use xlink:href="#DejaVuSans-30" transform="translate(95.410156 0)"/>
      </g>
     </g>
    </g>
    <g id="text_23">
     <!-- P_s (B to A) -->
     <g transform="translate(19.989062 378.522615) rotate(-90) scale(0.1 -0.1)">
      <use xlink:href="#DejaVuSans-50"/>
      <use xlink:href="#DejaVuSans-5f" transform="translate(60.302734 0)"/>
      <use xlink:href="#DejaVuSans-73" transform="translate(110.302734 0)"/>
      <use xlink:href="#DejaVuSans-20" transform="translate(162.402344 0)"/>
      <use xlink:href="#DejaVuSans-28" transform="translate(194.189453 0)"/>
      <use xlink:href="#DejaVuSans-42" transform="translate(233.203125 0)"/>
      <use xlink:href="#DejaVuSans-20" transform="translate(301.806641 0)"/>
      <use xlink:href="#DejaVuSans-74" transform="translate(333.59375 0)"/>
      <use xlink:href="#DejaVuSans-6f" transform="translate(372.802734 0)"/>
      <use xlink:href="#DejaVuSans-20" transform="translate(433.984375 0)"/>
      <use xlink:href="#DejaVuSans-41" transform="translate(465.771484 0)"/>
      <use xlink:href="#DejaVuSans-29" transform="translate(534.179688 0)"/>
     </g>
    </g>
   </g>
   <g id="line2d_76">
    <path d="M 72.534034 385.078547 
L 114.910976 385.078547 
L 115.376657 314.649496 
L 120.033464 319.206383 
L 124.69027 323.468431 
L 129.812758 327.838876 
L 131.675481 329.350071 
L 132.141161 314.649496 
L 136.797968 319.206383 
L 141.454775 323.468431 
L 146.577262 327.838876 
L 148.439985 329.350071 
L 148.905666 314.649496 
L 153.562473 319.206383 
L 158.21928 323.468431 
L 163.341767 327.838876 
L 165.20449 329.350071 
L 165.67017 314.649496 
L 170.326977 319.206383 
L 174.983784 323.468431 
L 180.106272 327.838876 
L 181.968994 329.350071 
L 182.434675 314.649496 
L 187.091482 319.206383 
L 191.748289 323.468431 
L 196.870776 327.838876 
L 198.733499 329.350071 
L 199.19918 314.649496 
L 203.855986 319.206383 
L 208.512793 323.468431 
L 213.635281 327.838876 
L 215.498003 329.350071 
L 215.963684 314.649496 
L 220.620491 319.206383 
L 225.277298 323.468431 
L 230.399785 327.838876 
L 232.262508 329.350071 
L 232.728189 314.649496 
L 237.384995 319.206383 
L 242.041802 323.468431 
L 247.16429 327.838876 
L 249.027012 329.350071 
L 249.492693 314.649496 
L 254.1495 319.206383 
L 258.806307 323.468431 
L 263.928794 327.838876 
L 265.791517 329.350071 
L 266.257198 314.649496 
L 270.914005 319.206383 
L 275.570811 323.468431 
L 280.693299 327.838876 
L 282.556022 329.350071 
L 283.021702 314.649496 
L 287.678509 319.206383 
L 292.335316 323.468431 
L 297.457803 327.838876 
L 299.320526 329.350071 
L 299.786207 314.649496 
L 304.443014 319.206383 
L 309.09982 323.468431 
L 314.222308 327.838876 
L 316.085031 329.350071 
L 316.550711 314.649496 
L 321.207518 319.206383 
L 325.864325 323.468431 
L 330.986812 327.838876 
L 332.849535 329.350071 
L 333.315216 314.649496 
L 337.972023 319.206383 
L 342.62883 323.468431 
L 347.751317 327.838876 
L 349.61404 329.350071 
L 350.07972 314.649496 
L 354.736527 319.206383 
L 359.393334 323.468431 
L 364.515822 327.838876 
L 366.378544 329.350071 
L 366.844225 314.649496 
L 371.501032 319.206383 
L 376.157839 323.468431 
L 381.280326 327.838876 
L 383.143049 329.350071 
L 383.60873 314.649496 
L 388.265536 319.206383 
L 392.922343 323.468431 
L 398.044831 327.838876 
L 399.907553 329.350071 
L 400.373234 314.649496 
L 405.030041 319.206383 
L 409.686848 323.468431 
L 414.809335 327.838876 
L 416.672058 329.350071 
L 417.137739 314.649496 
L 421.794545 319.206383 
L 426.451352 323.468431 
L 431.57384 327.838876 
L 433.436562 329.350071 
L 433.902243 314.649496 
L 438.55905 319.206383 
L 443.215857 323.468431 
L 448.338344 327.838876 
L 450.201067 329.350071 
L 450.666748 314.649496 
L 455.323555 319.206383 
L 459.980361 323.468431 
L 465.102849 327.838876 
L 466.965572 329.350071 
L 467.431252 314.649496 
L 472.088059 319.206383 
L 476.744866 323.468431 
L 481.867353 327.838876 
L 483.730076 329.350071 
L 484.195757 314.649496 
L 488.852564 319.206383 
L 493.50937 323.468431 
L 498.631858 327.838876 
L 500.494581 329.350071 
L 500.960261 314.649496 
L 505.617068 319.206383 
L 510.273875 323.468431 
L 515.396363 327.838876 
L 517.259085 329.350071 
L 517.724766 314.649496 
L 522.381573 319.206383 
L 527.03838 323.468431 
L 532.160867 327.838876 
L 534.02359 329.350071 
L 534.48927 314.649496 
L 538.214716 318.319226 
L 538.214716 318.319226 
" clip-path="url(#pe9cccfec88)" style="fill: none; stroke: #1f77b4; stroke-width: 1.5; stroke-linecap: square"/>
   </g>
   <g id="patch_18">
    <path d="M 49.25 388.6 
L 49.25 311.128043 
" style="fill: none; stroke: #000000; stroke-width: 0.8; stroke-linejoin: miter; stroke-linecap: square"/>
   </g>
   <g id="patch_19">
    <path d="M 561.49875 388.6 
L 561.49875 311.128043 
" style="fill: none; stroke: #000000; stroke-width: 0.8; stroke-linejoin: miter; stroke-linecap: square"/>
   </g>
   <g id="patch_20">
    <path d="M 49.25 388.6 
L 561.49875 388.6 
" style="fill: none; stroke: #000000; stroke-width: 0.8; stroke-linejoin: miter; stroke-linecap: square"/>
   </g>
   <g id="patch_21">
    <path d="M 49.25 311.128043 
L 561.49875 311.128043 
" style="fill: none; stroke: #000000; stroke-width: 0.8; stroke-linejoin: miter; stroke-linecap: square"/>
   </g>
  </g>
  <g id="text_24">
   <!-- Excitatory both -->
   <g transform="translate(238.483125 16.318125) scale(0.12 -0.12)">
    <defs>
     <path id="DejaVuSans-45" d="M 628 4666 
L 3578 4666 
L 3578 4134 
L 1259 4134 
L 1259 2753 
L 3481 2753 
L 3481 2222 
L 1259 2222 
L 1259 531 
L 3634 531 
L 3634 0 
L 628 0 
L 628 4666 
z
" transform="scale(0.015625)"/>
     <path id="DejaVuSans-78" d="M 3513 3500 
L 2247 1797 
L 3578 0 
L 2900 0 
L 1881 1375 
L 863 0 
L 184 0 
L 1544 1831 
L 300 3500 
L 978 3500 
L 1906 2253 
L 2834 3500 
L 3513 3500 
z
" transform="scale(0.015625)"/>
     <path id="DejaVuSans-63" d="M 3122 3366 
L 3122 2828 
Q 2878 2963 2633 3030 
Q 2388 3097 2138 3097 
Q 1578 3097 1268 2742 
Q 959 2388 959 1747 
Q 959 1106 1268 751 
Q 1578 397 2138 397 
Q 2388 397 2633 464 
Q 2878 531 3122 666 
L 3122 134 
Q 2881 22 2623 -34 
Q 2366 -91 2075 -91 
Q 1284 -91 818 406 
Q 353 903 353 1747 
Q 353 2603 823 3093 
Q 1294 3584 2113 3584 
Q 2378 3584 2631 3529 
Q 2884 3475 3122 3366 
z
" transform="scale(0.015625)"/>
     <path id="DejaVuSans-61" d="M 2194 1759 
Q 1497 1759 1228 1600 
Q 959 1441 959 1056 
Q 959 750 1161 570 
Q 1363 391 1709 391 
Q 2188 391 2477 730 
Q 2766 1069 2766 1631 
L 2766 1759 
L 2194 1759 
z
M 3341 1997 
L 3341 0 
L 2766 0 
L 2766 531 
Q 2569 213 2275 61 
Q 1981 -91 1556 -91 
Q 1019 -91 701 211 
Q 384 513 384 1019 
Q 384 1609 779 1909 
Q 1175 2209 1959 2209 
L 2766 2209 
L 2766 2266 
Q 2766 2663 2505 2880 
Q 2244 3097 1772 3097 
Q 1472 3097 1187 3025 
Q 903 2953 641 2809 
L 641 3341 
Q 956 3463 1253 3523 
Q 1550 3584 1831 3584 
Q 2591 3584 2966 3190 
Q 3341 2797 3341 1997 
z
" transform="scale(0.015625)"/>
     <path id="DejaVuSans-72" d="M 2631 2963 
Q 2534 3019 2420 3045 
Q 2306 3072 2169 3072 
Q 1681 3072 1420 2755 
Q 1159 2438 1159 1844 
L 1159 0 
L 581 0 
L 581 3500 
L 1159 3500 
L 1159 2956 
Q 1341 3275 1631 3429 
Q 1922 3584 2338 3584 
Q 2397 3584 2469 3576 
Q 2541 3569 2628 3553 
L 2631 2963 
z
" transform="scale(0.015625)"/>
     <path id="DejaVuSans-79" d="M 2059 -325 
Q 1816 -950 1584 -1140 
Q 1353 -1331 966 -1331 
L 506 -1331 
L 506 -850 
L 844 -850 
Q 1081 -850 1212 -737 
Q 1344 -625 1503 -206 
L 1606 56 
L 191 3500 
L 800 3500 
L 1894 763 
L 2988 3500 
L 3597 3500 
L 2059 -325 
z
" transform="scale(0.015625)"/>
     <path id="DejaVuSans-62" d="M 3116 1747 
Q 3116 2381 2855 2742 
Q 2594 3103 2138 3103 
Q 1681 3103 1420 2742 
Q 1159 2381 1159 1747 
Q 1159 1113 1420 752 
Q 1681 391 2138 391 
Q 2594 391 2855 752 
Q 3116 1113 3116 1747 
z
M 1159 2969 
Q 1341 3281 1617 3432 
Q 1894 3584 2278 3584 
Q 2916 3584 3314 3078 
Q 3713 2572 3713 1747 
Q 3713 922 3314 415 
Q 2916 -91 2278 -91 
Q 1894 -91 1617 61 
Q 1341 213 1159 525 
L 1159 0 
L 581 0 
L 581 4863 
L 1159 4863 
L 1159 2969 
z
" transform="scale(0.015625)"/>
     <path id="DejaVuSans-68" d="M 3513 2113 
L 3513 0 
L 2938 0 
L 2938 2094 
Q 2938 2591 2744 2837 
Q 2550 3084 2163 3084 
Q 1697 3084 1428 2787 
Q 1159 2491 1159 1978 
L 1159 0 
L 581 0 
L 581 4863 
L 1159 4863 
L 1159 2956 
Q 1366 3272 1645 3428 
Q 1925 3584 2291 3584 
Q 2894 3584 3203 3211 
Q 3513 2838 3513 2113 
z
" transform="scale(0.015625)"/>
    </defs>
    <use xlink:href="#DejaVuSans-45"/>
    <use xlink:href="#DejaVuSans-78" transform="translate(63.183594 0)"/>
    <use xlink:href="#DejaVuSans-63" transform="translate(120.613281 0)"/>
    <use xlink:href="#DejaVuSans-69" transform="translate(175.59375 0)"/>
    <use xlink:href="#DejaVuSans-74" transform="translate(203.376953 0)"/>
    <use xlink:href="#DejaVuSans-61" transform="translate(242.585938 0)"/>
    <use xlink:href="#DejaVuSans-74" transform="translate(303.865234 0)"/>
    <use xlink:href="#DejaVuSans-6f" transform="translate(343.074219 0)"/>
    <use xlink:href="#DejaVuSans-72" transform="translate(404.255859 0)"/>
    <use xlink:href="#DejaVuSans-79" transform="translate(445.369141 0)"/>
    <use xlink:href="#DejaVuSans-20" transform="translate(504.548828 0)"/>
    <use xlink:href="#DejaVuSans-62" transform="translate(536.335938 0)"/>
    <use xlink:href="#DejaVuSans-6f" transform="translate(599.8125 0)"/>
    <use xlink:href="#DejaVuSans-74" transform="translate(660.994141 0)"/>
    <use xlink:href="#DejaVuSans-68" transform="translate(700.203125 0)"/>
   </g>
  </g>
 </g>
 <defs>
  <clipPath id="p8aad27f5d5">
   <rect x="49.25" y="33.793043" width="512.24875" height="77.471957"/>
  </clipPath>
  <clipPath id="p80600faa6b">
   <rect x="49.25" y="126.238043" width="512.24875" height="77.471957"/>
  </clipPath>
  <clipPath id="p68d492a275">
   <rect x="49.25" y="218.683043" width="512.24875" height="77.471957"/>
  </clipPath>
  <clipPath id="pe9cccfec88">
   <rect x="49.25" y="311.128043" width="512.24875" height="77.471957"/>
  </clipPath>
 </defs>
</svg>
