<?xml version="1.0" encoding="utf-8" standalone="no"?>
<!DOCTYPE svg PUBLIC "-//W3C//DTD SVG 1.1//EN"
  "http://www.w3.org/Graphics/SVG/1.1/DTD/svg11.dtd">
<svg xmlns:xlink="http://www.w3.org/1999/xlink" width="640.442812pt" height="495.034375pt" viewBox="0 0 640.442812 495.034375" xmlns="http://www.w3.org/2000/svg" version="1.1">
 <metadata>
  <rdf:RDF xmlns:dc="http://purl.org/dc/elements/1.1/" xmlns:cc="http://creativecommons.org/ns#" xmlns:rdf="http://www.w3.org/1999/02/22-rdf-syntax-ns#">
   <cc:Work>
    <dc:type rdf:resource="http://purl.org/dc/dcmitype/StillImage"/>
    <dc:date>2025-05-18T02:20:18.467634</dc:date>
    <dc:format>image/svg+xml</dc:format>
    <dc:creator>
     <cc:Agent>
      <dc:title>Matplotlib v3.10.1, https://matplotlib.org/</dc:title>
     </cc:Agent>
    </dc:creator>
   </cc:Work>
  </rdf:RDF>
 </metadata>
 <defs>
  <style type="text/css">*{stroke-linejoin: round; stroke-linecap: butt}</style>
 </defs>
 <g id="figure_1">
  <g id="patch_1">
   <path d="M 0 495.034375 
L 640.442812 495.034375 
L 640.442812 0 
L 0 0 
L 0 495.034375 
z
" style="fill: none"/>
  </g>
  <g id="axes_1">
   <g id="patch_2">
    <path d="M 48.982813 224.708125 
L 633.242812 224.708125 
L 633.242812 22.318125 
L 48.982813 22.318125 
L 48.982813 224.708125 
z
" style="fill: none"/>
   </g>
   <g id="matplotlib.axis_1">
    <g id="xtick_1">
     <g id="line2d_1">
      <path d="M 75.540085 224.708125 
L 75.540085 22.318125 
" clip-path="url(#p8ca6a86af6)" style="fill: none; stroke: #b0b0b0; stroke-width: 0.8; stroke-linecap: square"/>
     </g>
     <g id="line2d_2">
      <defs>
       <path id="m3b062238c6" d="M 0 0 
L 0 3.5 
" style="stroke: #000000; stroke-width: 0.8"/>
      </defs>
      <g>
       <use xlink:href="#m3b062238c6" x="75.540085" y="224.708125" style="stroke: #000000; stroke-width: 0.8"/>
      </g>
     </g>
    </g>
    <g id="xtick_2">
     <g id="line2d_3">
      <path d="M 141.900087 224.708125 
L 141.900087 22.318125 
" clip-path="url(#p8ca6a86af6)" style="fill: none; stroke: #b0b0b0; stroke-width: 0.8; stroke-linecap: square"/>
     </g>
     <g id="line2d_4">
      <g>
       <use xlink:href="#m3b062238c6" x="141.900087" y="224.708125" style="stroke: #000000; stroke-width: 0.8"/>
      </g>
     </g>
    </g>
    <g id="xtick_3">
     <g id="line2d_5">
      <path d="M 208.260089 224.708125 
L 208.260089 22.318125 
" clip-path="url(#p8ca6a86af6)" style="fill: none; stroke: #b0b0b0; stroke-width: 0.8; stroke-linecap: square"/>
     </g>
     <g id="line2d_6">
      <g>
       <use xlink:href="#m3b062238c6" x="208.260089" y="224.708125" style="stroke: #000000; stroke-width: 0.8"/>
      </g>
     </g>
    </g>
    <g id="xtick_4">
     <g id="line2d_7">
      <path d="M 274.620091 224.708125 
L 274.620091 22.318125 
" clip-path="url(#p8ca6a86af6)" style="fill: none; stroke: #b0b0b0; stroke-width: 0.8; stroke-linecap: square"/>
     </g>
     <g id="line2d_8">
      <g>
       <use xlink:href="#m3b062238c6" x="274.620091" y="224.708125" style="stroke: #000000; stroke-width: 0.8"/>
      </g>
     </g>
    </g>
    <g id="xtick_5">
     <g id="line2d_9">
      <path d="M 340.980092 224.708125 
L 340.980092 22.318125 
" clip-path="url(#p8ca6a86af6)" style="fill: none; stroke: #b0b0b0; stroke-width: 0.8; stroke-linecap: square"/>
     </g>
     <g id="line2d_10">
      <g>
       <use xlink:href="#m3b062238c6" x="340.980092" y="224.708125" style="stroke: #000000; stroke-width: 0.8"/>
      </g>
     </g>
    </g>
    <g id="xtick_6">
     <g id="line2d_11">
      <path d="M 407.340094 224.708125 
L 407.340094 22.318125 
" clip-path="url(#p8ca6a86af6)" style="fill: none; stroke: #b0b0b0; stroke-width: 0.8; stroke-linecap: square"/>
     </g>
     <g id="line2d_12">
      <g>
       <use xlink:href="#m3b062238c6" x="407.340094" y="224.708125" style="stroke: #000000; stroke-width: 0.8"/>
      </g>
     </g>
    </g>
    <g id="xtick_7">
     <g id="line2d_13">
      <path d="M 473.700096 224.708125 
L 473.700096 22.318125 
" clip-path="url(#p8ca6a86af6)" style="fill: none; stroke: #b0b0b0; stroke-width: 0.8; stroke-linecap: square"/>
     </g>
     <g id="line2d_14">
      <g>
       <use xlink:href="#m3b062238c6" x="473.700096" y="224.708125" style="stroke: #000000; stroke-width: 0.8"/>
      </g>
     </g>
    </g>
    <g id="xtick_8">
     <g id="line2d_15">
      <path d="M 540.060098 224.708125 
L 540.060098 22.318125 
" clip-path="url(#p8ca6a86af6)" style="fill: none; stroke: #b0b0b0; stroke-width: 0.8; stroke-linecap: square"/>
     </g>
     <g id="line2d_16">
      <g>
       <use xlink:href="#m3b062238c6" x="540.060098" y="224.708125" style="stroke: #000000; stroke-width: 0.8"/>
      </g>
     </g>
    </g>
    <g id="xtick_9">
     <g id="line2d_17">
      <path d="M 606.4201 224.708125 
L 606.4201 22.318125 
" clip-path="url(#p8ca6a86af6)" style="fill: none; stroke: #b0b0b0; stroke-width: 0.8; stroke-linecap: square"/>
     </g>
     <g id="line2d_18">
      <g>
       <use xlink:href="#m3b062238c6" x="606.4201" y="224.708125" style="stroke: #000000; stroke-width: 0.8"/>
      </g>
     </g>
    </g>
   </g>
   <g id="matplotlib.axis_2">
    <g id="ytick_1">
     <g id="line2d_19">
      <path d="M 48.982813 221.437969 
L 633.242812 221.437969 
" clip-path="url(#p8ca6a86af6)" style="fill: none; stroke: #b0b0b0; stroke-width: 0.8; stroke-linecap: square"/>
     </g>
     <g id="line2d_20">
      <defs>
       <path id="m07a2095108" d="M 0 0 
L -3.5 0 
" style="stroke: #000000; stroke-width: 0.8"/>
      </defs>
      <g>
       <use xlink:href="#m07a2095108" x="48.982813" y="221.437969" style="stroke: #000000; stroke-width: 0.8"/>
      </g>
     </g>
     <g id="text_1">
      <!-- −80 -->
      <g transform="translate(20.878125 225.237187) scale(0.1 -0.1)">
       <defs>
        <path id="DejaVuSans-2212" d="M 678 2272 
L 4684 2272 
L 4684 1741 
L 678 1741 
L 678 2272 
z
" transform="scale(0.015625)"/>
        <path id="DejaVuSans-38" d="M 2034 2216 
Q 1584 2216 1326 1975 
Q 1069 1734 1069 1313 
Q 1069 891 1326 650 
Q 1584 409 2034 409 
Q 2484 409 2743 651 
Q 3003 894 3003 1313 
Q 3003 1734 2745 1975 
Q 2488 2216 2034 2216 
z
M 1403 2484 
Q 997 2584 770 2862 
Q 544 3141 544 3541 
Q 544 4100 942 4425 
Q 1341 4750 2034 4750 
Q 2731 4750 3128 4425 
Q 3525 4100 3525 3541 
Q 3525 3141 3298 2862 
Q 3072 2584 2669 2484 
Q 3125 2378 3379 2068 
Q 3634 1759 3634 1313 
Q 3634 634 3220 271 
Q 2806 -91 2034 -91 
Q 1263 -91 848 271 
Q 434 634 434 1313 
Q 434 1759 690 2068 
Q 947 2378 1403 2484 
z
M 1172 3481 
Q 1172 3119 1398 2916 
Q 1625 2713 2034 2713 
Q 2441 2713 2670 2916 
Q 2900 3119 2900 3481 
Q 2900 3844 2670 4047 
Q 2441 4250 2034 4250 
Q 1625 4250 1398 4047 
Q 1172 3844 1172 3481 
z
" transform="scale(0.015625)"/>
        <path id="DejaVuSans-30" d="M 2034 4250 
Q 1547 4250 1301 3770 
Q 1056 3291 1056 2328 
Q 1056 1369 1301 889 
Q 1547 409 2034 409 
Q 2525 409 2770 889 
Q 3016 1369 3016 2328 
Q 3016 3291 2770 3770 
Q 2525 4250 2034 4250 
z
M 2034 4750 
Q 2819 4750 3233 4129 
Q 3647 3509 3647 2328 
Q 3647 1150 3233 529 
Q 2819 -91 2034 -91 
Q 1250 -91 836 529 
Q 422 1150 422 2328 
Q 422 3509 836 4129 
Q 1250 4750 2034 4750 
z
" transform="scale(0.015625)"/>
       </defs>
       <use xlink:href="#DejaVuSans-2212"/>
       <use xlink:href="#DejaVuSans-38" transform="translate(83.789062 0)"/>
       <use xlink:href="#DejaVuSans-30" transform="translate(147.412109 0)"/>
      </g>
     </g>
    </g>
    <g id="ytick_2">
     <g id="line2d_21">
      <path d="M 48.982813 190.260862 
L 633.242812 190.260862 
" clip-path="url(#p8ca6a86af6)" style="fill: none; stroke: #b0b0b0; stroke-width: 0.8; stroke-linecap: square"/>
     </g>
     <g id="line2d_22">
      <g>
       <use xlink:href="#m07a2095108" x="48.982813" y="190.260862" style="stroke: #000000; stroke-width: 0.8"/>
      </g>
     </g>
     <g id="text_2">
      <!-- −60 -->
      <g transform="translate(20.878125 194.060081) scale(0.1 -0.1)">
       <defs>
        <path id="DejaVuSans-36" d="M 2113 2584 
Q 1688 2584 1439 2293 
Q 1191 2003 1191 1497 
Q 1191 994 1439 701 
Q 1688 409 2113 409 
Q 2538 409 2786 701 
Q 3034 994 3034 1497 
Q 3034 2003 2786 2293 
Q 2538 2584 2113 2584 
z
M 3366 4563 
L 3366 3988 
Q 3128 4100 2886 4159 
Q 2644 4219 2406 4219 
Q 1781 4219 1451 3797 
Q 1122 3375 1075 2522 
Q 1259 2794 1537 2939 
Q 1816 3084 2150 3084 
Q 2853 3084 3261 2657 
Q 3669 2231 3669 1497 
Q 3669 778 3244 343 
Q 2819 -91 2113 -91 
Q 1303 -91 875 529 
Q 447 1150 447 2328 
Q 447 3434 972 4092 
Q 1497 4750 2381 4750 
Q 2619 4750 2861 4703 
Q 3103 4656 3366 4563 
z
" transform="scale(0.015625)"/>
       </defs>
       <use xlink:href="#DejaVuSans-2212"/>
       <use xlink:href="#DejaVuSans-36" transform="translate(83.789062 0)"/>
       <use xlink:href="#DejaVuSans-30" transform="translate(147.412109 0)"/>
      </g>
     </g>
    </g>
    <g id="ytick_3">
     <g id="line2d_23">
      <path d="M 48.982813 159.083756 
L 633.242812 159.083756 
" clip-path="url(#p8ca6a86af6)" style="fill: none; stroke: #b0b0b0; stroke-width: 0.8; stroke-linecap: square"/>
     </g>
     <g id="line2d_24">
      <g>
       <use xlink:href="#m07a2095108" x="48.982813" y="159.083756" style="stroke: #000000; stroke-width: 0.8"/>
      </g>
     </g>
     <g id="text_3">
      <!-- −40 -->
      <g transform="translate(20.878125 162.882974) scale(0.1 -0.1)">
       <defs>
        <path id="DejaVuSans-34" d="M 2419 4116 
L 825 1625 
L 2419 1625 
L 2419 4116 
z
M 2253 4666 
L 3047 4666 
L 3047 1625 
L 3713 1625 
L 3713 1100 
L 3047 1100 
L 3047 0 
L 2419 0 
L 2419 1100 
L 313 1100 
L 313 1709 
L 2253 4666 
z
" transform="scale(0.015625)"/>
       </defs>
       <use xlink:href="#DejaVuSans-2212"/>
       <use xlink:href="#DejaVuSans-34" transform="translate(83.789062 0)"/>
       <use xlink:href="#DejaVuSans-30" transform="translate(147.412109 0)"/>
      </g>
     </g>
    </g>
    <g id="ytick_4">
     <g id="line2d_25">
      <path d="M 48.982813 127.906649 
L 633.242812 127.906649 
" clip-path="url(#p8ca6a86af6)" style="fill: none; stroke: #b0b0b0; stroke-width: 0.8; stroke-linecap: square"/>
     </g>
     <g id="line2d_26">
      <g>
       <use xlink:href="#m07a2095108" x="48.982813" y="127.906649" style="stroke: #000000; stroke-width: 0.8"/>
      </g>
     </g>
     <g id="text_4">
      <!-- −20 -->
      <g transform="translate(20.878125 131.705868) scale(0.1 -0.1)">
       <defs>
        <path id="DejaVuSans-32" d="M 1228 531 
L 3431 531 
L 3431 0 
L 469 0 
L 469 531 
Q 828 903 1448 1529 
Q 2069 2156 2228 2338 
Q 2531 2678 2651 2914 
Q 2772 3150 2772 3378 
Q 2772 3750 2511 3984 
Q 2250 4219 1831 4219 
Q 1534 4219 1204 4116 
Q 875 4013 500 3803 
L 500 4441 
Q 881 4594 1212 4672 
Q 1544 4750 1819 4750 
Q 2544 4750 2975 4387 
Q 3406 4025 3406 3419 
Q 3406 3131 3298 2873 
Q 3191 2616 2906 2266 
Q 2828 2175 2409 1742 
Q 1991 1309 1228 531 
z
" transform="scale(0.015625)"/>
       </defs>
       <use xlink:href="#DejaVuSans-2212"/>
       <use xlink:href="#DejaVuSans-32" transform="translate(83.789062 0)"/>
       <use xlink:href="#DejaVuSans-30" transform="translate(147.412109 0)"/>
      </g>
     </g>
    </g>
    <g id="ytick_5">
     <g id="line2d_27">
      <path d="M 48.982813 96.729543 
L 633.242812 96.729543 
" clip-path="url(#p8ca6a86af6)" style="fill: none; stroke: #b0b0b0; stroke-width: 0.8; stroke-linecap: square"/>
     </g>
     <g id="line2d_28">
      <g>
       <use xlink:href="#m07a2095108" x="48.982813" y="96.729543" style="stroke: #000000; stroke-width: 0.8"/>
      </g>
     </g>
     <g id="text_5">
      <!-- 0 -->
      <g transform="translate(35.620313 100.528761) scale(0.1 -0.1)">
       <use xlink:href="#DejaVuSans-30"/>
      </g>
     </g>
    </g>
    <g id="ytick_6">
     <g id="line2d_29">
      <path d="M 48.982813 65.552436 
L 633.242812 65.552436 
" clip-path="url(#p8ca6a86af6)" style="fill: none; stroke: #b0b0b0; stroke-width: 0.8; stroke-linecap: square"/>
     </g>
     <g id="line2d_30">
      <g>
       <use xlink:href="#m07a2095108" x="48.982813" y="65.552436" style="stroke: #000000; stroke-width: 0.8"/>
      </g>
     </g>
     <g id="text_6">
      <!-- 20 -->
      <g transform="translate(29.257813 69.351655) scale(0.1 -0.1)">
       <use xlink:href="#DejaVuSans-32"/>
       <use xlink:href="#DejaVuSans-30" transform="translate(63.623047 0)"/>
      </g>
     </g>
    </g>
    <g id="ytick_7">
     <g id="line2d_31">
      <path d="M 48.982813 34.375329 
L 633.242812 34.375329 
" clip-path="url(#p8ca6a86af6)" style="fill: none; stroke: #b0b0b0; stroke-width: 0.8; stroke-linecap: square"/>
     </g>
     <g id="line2d_32">
      <g>
       <use xlink:href="#m07a2095108" x="48.982813" y="34.375329" style="stroke: #000000; stroke-width: 0.8"/>
      </g>
     </g>
     <g id="text_7">
      <!-- 40 -->
      <g transform="translate(29.257813 38.174548) scale(0.1 -0.1)">
       <use xlink:href="#DejaVuSans-34"/>
       <use xlink:href="#DejaVuSans-30" transform="translate(63.623047 0)"/>
      </g>
     </g>
    </g>
    <g id="text_8">
     <!-- Membrane potential (mV) -->
     <g transform="translate(14.798438 187.924844) rotate(-90) scale(0.1 -0.1)">
      <defs>
       <path id="DejaVuSans-4d" d="M 628 4666 
L 1569 4666 
L 2759 1491 
L 3956 4666 
L 4897 4666 
L 4897 0 
L 4281 0 
L 4281 4097 
L 3078 897 
L 2444 897 
L 1241 4097 
L 1241 0 
L 628 0 
L 628 4666 
z
" transform="scale(0.015625)"/>
       <path id="DejaVuSans-65" d="M 3597 1894 
L 3597 1613 
L 953 1613 
Q 991 1019 1311 708 
Q 1631 397 2203 397 
Q 2534 397 2845 478 
Q 3156 559 3463 722 
L 3463 178 
Q 3153 47 2828 -22 
Q 2503 -91 2169 -91 
Q 1331 -91 842 396 
Q 353 884 353 1716 
Q 353 2575 817 3079 
Q 1281 3584 2069 3584 
Q 2775 3584 3186 3129 
Q 3597 2675 3597 1894 
z
M 3022 2063 
Q 3016 2534 2758 2815 
Q 2500 3097 2075 3097 
Q 1594 3097 1305 2825 
Q 1016 2553 972 2059 
L 3022 2063 
z
" transform="scale(0.015625)"/>
       <path id="DejaVuSans-6d" d="M 3328 2828 
Q 3544 3216 3844 3400 
Q 4144 3584 4550 3584 
Q 5097 3584 5394 3201 
Q 5691 2819 5691 2113 
L 5691 0 
L 5113 0 
L 5113 2094 
Q 5113 2597 4934 2840 
Q 4756 3084 4391 3084 
Q 3944 3084 3684 2787 
Q 3425 2491 3425 1978 
L 3425 0 
L 2847 0 
L 2847 2094 
Q 2847 2600 2669 2842 
Q 2491 3084 2119 3084 
Q 1678 3084 1418 2786 
Q 1159 2488 1159 1978 
L 1159 0 
L 581 0 
L 581 3500 
L 1159 3500 
L 1159 2956 
Q 1356 3278 1631 3431 
Q 1906 3584 2284 3584 
Q 2666 3584 2933 3390 
Q 3200 3197 3328 2828 
z
" transform="scale(0.015625)"/>
       <path id="DejaVuSans-62" d="M 3116 1747 
Q 3116 2381 2855 2742 
Q 2594 3103 2138 3103 
Q 1681 3103 1420 2742 
Q 1159 2381 1159 1747 
Q 1159 1113 1420 752 
Q 1681 391 2138 391 
Q 2594 391 2855 752 
Q 3116 1113 3116 1747 
z
M 1159 2969 
Q 1341 3281 1617 3432 
Q 1894 3584 2278 3584 
Q 2916 3584 3314 3078 
Q 3713 2572 3713 1747 
Q 3713 922 3314 415 
Q 2916 -91 2278 -91 
Q 1894 -91 1617 61 
Q 1341 213 1159 525 
L 1159 0 
L 581 0 
L 581 4863 
L 1159 4863 
L 1159 2969 
z
" transform="scale(0.015625)"/>
       <path id="DejaVuSans-72" d="M 2631 2963 
Q 2534 3019 2420 3045 
Q 2306 3072 2169 3072 
Q 1681 3072 1420 2755 
Q 1159 2438 1159 1844 
L 1159 0 
L 581 0 
L 581 3500 
L 1159 3500 
L 1159 2956 
Q 1341 3275 1631 3429 
Q 1922 3584 2338 3584 
Q 2397 3584 2469 3576 
Q 2541 3569 2628 3553 
L 2631 2963 
z
" transform="scale(0.015625)"/>
       <path id="DejaVuSans-61" d="M 2194 1759 
Q 1497 1759 1228 1600 
Q 959 1441 959 1056 
Q 959 750 1161 570 
Q 1363 391 1709 391 
Q 2188 391 2477 730 
Q 2766 1069 2766 1631 
L 2766 1759 
L 2194 1759 
z
M 3341 1997 
L 3341 0 
L 2766 0 
L 2766 531 
Q 2569 213 2275 61 
Q 1981 -91 1556 -91 
Q 1019 -91 701 211 
Q 384 513 384 1019 
Q 384 1609 779 1909 
Q 1175 2209 1959 2209 
L 2766 2209 
L 2766 2266 
Q 2766 2663 2505 2880 
Q 2244 3097 1772 3097 
Q 1472 3097 1187 3025 
Q 903 2953 641 2809 
L 641 3341 
Q 956 3463 1253 3523 
Q 1550 3584 1831 3584 
Q 2591 3584 2966 3190 
Q 3341 2797 3341 1997 
z
" transform="scale(0.015625)"/>
       <path id="DejaVuSans-6e" d="M 3513 2113 
L 3513 0 
L 2938 0 
L 2938 2094 
Q 2938 2591 2744 2837 
Q 2550 3084 2163 3084 
Q 1697 3084 1428 2787 
Q 1159 2491 1159 1978 
L 1159 0 
L 581 0 
L 581 3500 
L 1159 3500 
L 1159 2956 
Q 1366 3272 1645 3428 
Q 1925 3584 2291 3584 
Q 2894 3584 3203 3211 
Q 3513 2838 3513 2113 
z
" transform="scale(0.015625)"/>
       <path id="DejaVuSans-20" transform="scale(0.015625)"/>
       <path id="DejaVuSans-70" d="M 1159 525 
L 1159 -1331 
L 581 -1331 
L 581 3500 
L 1159 3500 
L 1159 2969 
Q 1341 3281 1617 3432 
Q 1894 3584 2278 3584 
Q 2916 3584 3314 3078 
Q 3713 2572 3713 1747 
Q 3713 922 3314 415 
Q 2916 -91 2278 -91 
Q 1894 -91 1617 61 
Q 1341 213 1159 525 
z
M 3116 1747 
Q 3116 2381 2855 2742 
Q 2594 3103 2138 3103 
Q 1681 3103 1420 2742 
Q 1159 2381 1159 1747 
Q 1159 1113 1420 752 
Q 1681 391 2138 391 
Q 2594 391 2855 752 
Q 3116 1113 3116 1747 
z
" transform="scale(0.015625)"/>
       <path id="DejaVuSans-6f" d="M 1959 3097 
Q 1497 3097 1228 2736 
Q 959 2375 959 1747 
Q 959 1119 1226 758 
Q 1494 397 1959 397 
Q 2419 397 2687 759 
Q 2956 1122 2956 1747 
Q 2956 2369 2687 2733 
Q 2419 3097 1959 3097 
z
M 1959 3584 
Q 2709 3584 3137 3096 
Q 3566 2609 3566 1747 
Q 3566 888 3137 398 
Q 2709 -91 1959 -91 
Q 1206 -91 779 398 
Q 353 888 353 1747 
Q 353 2609 779 3096 
Q 1206 3584 1959 3584 
z
" transform="scale(0.015625)"/>
       <path id="DejaVuSans-74" d="M 1172 4494 
L 1172 3500 
L 2356 3500 
L 2356 3053 
L 1172 3053 
L 1172 1153 
Q 1172 725 1289 603 
Q 1406 481 1766 481 
L 2356 481 
L 2356 0 
L 1766 0 
Q 1100 0 847 248 
Q 594 497 594 1153 
L 594 3053 
L 172 3053 
L 172 3500 
L 594 3500 
L 594 4494 
L 1172 4494 
z
" transform="scale(0.015625)"/>
       <path id="DejaVuSans-69" d="M 603 3500 
L 1178 3500 
L 1178 0 
L 603 0 
L 603 3500 
z
M 603 4863 
L 1178 4863 
L 1178 4134 
L 603 4134 
L 603 4863 
z
" transform="scale(0.015625)"/>
       <path id="DejaVuSans-6c" d="M 603 4863 
L 1178 4863 
L 1178 0 
L 603 0 
L 603 4863 
z
" transform="scale(0.015625)"/>
       <path id="DejaVuSans-28" d="M 1984 4856 
Q 1566 4138 1362 3434 
Q 1159 2731 1159 2009 
Q 1159 1288 1364 580 
Q 1569 -128 1984 -844 
L 1484 -844 
Q 1016 -109 783 600 
Q 550 1309 550 2009 
Q 550 2706 781 3412 
Q 1013 4119 1484 4856 
L 1984 4856 
z
" transform="scale(0.015625)"/>
       <path id="DejaVuSans-56" d="M 1831 0 
L 50 4666 
L 709 4666 
L 2188 738 
L 3669 4666 
L 4325 4666 
L 2547 0 
L 1831 0 
z
" transform="scale(0.015625)"/>
       <path id="DejaVuSans-29" d="M 513 4856 
L 1013 4856 
Q 1481 4119 1714 3412 
Q 1947 2706 1947 2009 
Q 1947 1309 1714 600 
Q 1481 -109 1013 -844 
L 513 -844 
Q 928 -128 1133 580 
Q 1338 1288 1338 2009 
Q 1338 2731 1133 3434 
Q 928 4138 513 4856 
z
" transform="scale(0.015625)"/>
      </defs>
      <use xlink:href="#DejaVuSans-4d"/>
      <use xlink:href="#DejaVuSans-65" transform="translate(86.279297 0)"/>
      <use xlink:href="#DejaVuSans-6d" transform="translate(147.802734 0)"/>
      <use xlink:href="#DejaVuSans-62" transform="translate(245.214844 0)"/>
      <use xlink:href="#DejaVuSans-72" transform="translate(308.691406 0)"/>
      <use xlink:href="#DejaVuSans-61" transform="translate(349.804688 0)"/>
      <use xlink:href="#DejaVuSans-6e" transform="translate(411.083984 0)"/>
      <use xlink:href="#DejaVuSans-65" transform="translate(474.462891 0)"/>
      <use xlink:href="#DejaVuSans-20" transform="translate(535.986328 0)"/>
      <use xlink:href="#DejaVuSans-70" transform="translate(567.773438 0)"/>
      <use xlink:href="#DejaVuSans-6f" transform="translate(631.25 0)"/>
      <use xlink:href="#DejaVuSans-74" transform="translate(692.431641 0)"/>
      <use xlink:href="#DejaVuSans-65" transform="translate(731.640625 0)"/>
      <use xlink:href="#DejaVuSans-6e" transform="translate(793.164062 0)"/>
      <use xlink:href="#DejaVuSans-74" transform="translate(856.542969 0)"/>
      <use xlink:href="#DejaVuSans-69" transform="translate(895.751953 0)"/>
      <use xlink:href="#DejaVuSans-61" transform="translate(923.535156 0)"/>
      <use xlink:href="#DejaVuSans-6c" transform="translate(984.814453 0)"/>
      <use xlink:href="#DejaVuSans-20" transform="translate(1012.597656 0)"/>
      <use xlink:href="#DejaVuSans-28" transform="translate(1044.384766 0)"/>
      <use xlink:href="#DejaVuSans-6d" transform="translate(1083.398438 0)"/>
      <use xlink:href="#DejaVuSans-56" transform="translate(1180.810547 0)"/>
      <use xlink:href="#DejaVuSans-29" transform="translate(1249.21875 0)"/>
     </g>
    </g>
   </g>
   <g id="line2d_33">
    <path d="M 75.540085 198.055139 
L 102.084086 198.049845 
L 102.614966 189.027804 
L 103.411286 179.701307 
L 104.473046 170.720415 
L 105.534806 163.623122 
L 107.127446 154.667159 
L 110.047286 138.92406 
L 111.374486 130.155701 
L 112.436246 121.552087 
L 113.498006 111.068751 
L 114.559766 98.513669 
L 115.356086 87.918289 
L 115.621526 88.756932 
L 115.886966 88.432069 
L 116.152406 87.307367 
L 116.683286 83.534448 
L 117.745046 73.160995 
L 119.337686 57.346183 
L 120.399446 49.127884 
L 121.195766 44.55824 
L 121.992086 41.273559 
L 122.788407 39.091996 
L 123.319287 38.148836 
L 123.850167 37.547151 
L 124.381047 37.235791 
L 124.911927 37.170611 
L 125.442807 37.314341 
L 126.239127 37.855269 
L 127.035447 38.714859 
L 128.097207 40.251963 
L 129.424407 42.658999 
L 131.017047 46.080974 
L 132.875127 50.610861 
L 135.264087 57.025756 
L 138.714807 66.994179 
L 151.986807 106.046298 
L 156.499287 118.330789 
L 161.277208 130.6678 
L 167.913208 147.074546 
L 172.691128 159.091543 
L 175.876408 167.716421 
L 178.796248 176.325673 
L 182.777848 188.931109 
L 185.432248 196.983792 
L 187.024888 201.187868 
L 188.352088 204.174483 
L 189.679288 206.652375 
L 191.006488 208.642109 
L 192.333688 210.20157 
L 193.660888 211.404742 
L 194.988088 212.325167 
L 196.580729 213.145891 
L 198.438809 213.820201 
L 200.562329 214.335922 
L 203.216729 214.735357 
L 206.667449 215.013018 
L 211.445369 215.159158 
L 218.877689 215.14176 
L 231.88425 214.858676 
L 252.58857 214.174851 
L 276.478171 213.164127 
L 301.960411 211.85996 
L 331.689692 210.106565 
L 382.654174 206.829886 
L 427.248095 204.06304 
L 459.897216 202.261037 
L 490.157377 200.813252 
L 519.355777 199.63792 
L 548.023298 198.704525 
L 576.425379 198.000518 
L 604.82746 197.517834 
L 606.68554 197.49388 
L 606.68554 197.49388 
" clip-path="url(#p8ca6a86af6)" style="fill: none; stroke: #1f77b4; stroke-width: 1.5; stroke-linecap: square"/>
   </g>
   <g id="line2d_34">
    <path d="M 75.540085 198.055139 
L 132.609687 197.935183 
L 138.449367 197.694705 
L 142.165527 197.343679 
L 145.085367 196.847904 
L 147.208887 196.285049 
L 149.066967 195.583222 
L 150.659607 194.765676 
L 152.252247 193.67957 
L 153.579447 192.506841 
L 154.906647 191.021848 
L 156.233847 189.142338 
L 157.295607 187.286137 
L 158.357367 185.047412 
L 159.419128 182.349438 
L 160.480888 179.101461 
L 161.542648 175.197097 
L 162.604408 170.513412 
L 163.666168 164.911569 
L 164.727928 158.24083 
L 165.789688 150.34909 
L 167.116888 138.572841 
L 168.444088 124.588927 
L 170.036728 105.328424 
L 172.956568 69.453202 
L 174.018328 59.026276 
L 175.080088 50.880073 
L 175.876408 46.274484 
L 176.672728 42.84303 
L 177.469048 40.432696 
L 178.265368 38.880406 
L 178.796248 38.24602 
L 179.327128 37.884184 
L 179.858008 37.758952 
L 180.388888 37.838912 
L 180.919768 38.09694 
L 181.716088 38.767994 
L 182.512408 39.72384 
L 183.574168 41.355717 
L 184.901368 43.847206 
L 186.494008 47.338099 
L 188.617528 52.605122 
L 191.271928 59.846083 
L 195.253529 71.449379 
L 206.402009 104.268243 
L 211.445369 118.248014 
L 217.815929 135.168355 
L 223.390169 150.142049 
L 226.310009 158.631388 
L 228.964409 167.062322 
L 231.88425 177.159089 
L 236.13129 191.989059 
L 237.98937 197.606576 
L 239.58201 201.659946 
L 240.90921 204.454356 
L 242.23641 206.742559 
L 243.56361 208.581081 
L 244.89081 210.039653 
L 246.21801 211.187833 
L 247.81065 212.242705 
L 249.40329 213.027783 
L 251.26137 213.692525 
L 253.38489 214.215987 
L 256.03929 214.631972 
L 259.49001 214.926959 
L 264.26793 215.083613 
L 271.434811 215.066718 
L 283.645051 214.785874 
L 303.287611 214.099593 
L 326.115452 213.081284 
L 350.801373 211.753804 
L 380.265214 209.935294 
L 488.830177 203.011188 
L 518.559457 201.473045 
L 547.226978 200.212053 
L 575.363619 199.195617 
L 603.50026 198.40239 
L 606.68554 198.326734 
L 606.68554 198.326734 
" clip-path="url(#p8ca6a86af6)" style="fill: none; stroke: #ff7f0e; stroke-width: 1.5; stroke-linecap: square"/>
   </g>
   <g id="line2d_35">
    <path d="M 75.540085 198.055139 
L 188.617528 197.92094 
L 194.722648 197.67589 
L 198.438809 197.3273 
L 201.358649 196.834601 
L 203.482169 196.274881 
L 205.340249 195.576633 
L 206.932889 194.762958 
L 208.525529 193.681677 
L 209.852729 192.513887 
L 211.179929 191.034875 
L 212.507129 189.162639 
L 213.568889 187.313393 
L 214.630649 185.082839 
L 215.692409 182.394478 
L 216.754169 179.157808 
L 217.815929 175.266733 
L 218.877689 170.59861 
L 219.939449 165.014871 
L 221.001209 158.364942 
L 222.062969 150.496627 
L 223.390169 138.752324 
L 224.717369 124.800019 
L 226.310009 105.566726 
L 229.229849 69.661046 
L 230.291609 59.19731 
L 231.353369 51.010577 
L 232.14969 46.376076 
L 232.94601 42.918802 
L 233.74233 40.486384 
L 234.53865 38.915745 
L 235.06953 38.271034 
L 235.60041 37.900231 
L 236.13129 37.767231 
L 236.66217 37.840467 
L 237.19305 38.092674 
L 237.98937 38.756406 
L 238.78569 39.706299 
L 239.84745 41.33187 
L 241.17465 43.817395 
L 242.76729 47.303087 
L 244.89081 52.565392 
L 247.54521 59.802803 
L 251.52681 71.403883 
L 262.67529 104.225449 
L 267.71865 118.207444 
L 274.089211 135.129306 
L 279.663451 150.100836 
L 282.583291 158.586774 
L 285.237691 167.013513 
L 288.157531 177.106491 
L 292.670011 192.794438 
L 294.262651 197.564536 
L 295.855291 201.624754 
L 297.182491 204.424956 
L 298.509691 206.718525 
L 299.836891 208.561724 
L 301.164091 210.024209 
L 302.491291 211.175575 
L 304.083931 212.233445 
L 305.676572 213.020796 
L 307.534652 213.687496 
L 309.658172 214.212535 
L 312.312572 214.629827 
L 315.763292 214.925836 
L 320.541212 215.083226 
L 327.708092 215.066792 
L 339.918332 214.78618 
L 359.560893 214.099929 
L 382.388734 213.081368 
L 407.074654 211.753102 
L 436.538495 209.932758 
L 544.838018 203.01537 
L 574.567299 201.47545 
L 603.23482 200.214214 
L 606.68554 200.077733 
L 606.68554 200.077733 
" clip-path="url(#p8ca6a86af6)" style="fill: none; stroke: #2ca02c; stroke-width: 1.5; stroke-linecap: square"/>
   </g>
   <g id="line2d_36">
    <path d="M 75.540085 198.055139 
L 245.68713 197.904205 
L 251.52681 197.642397 
L 255.24297 197.260477 
L 257.89737 196.782184 
L 260.02089 196.197381 
L 261.87897 195.467862 
L 263.47161 194.617789 
L 265.06425 193.488211 
L 266.39145 192.268357 
L 267.71865 190.723556 
L 269.045851 188.768289 
L 270.107611 186.837324 
L 271.169371 184.508612 
L 272.231131 181.7026 
L 273.292891 178.325342 
L 274.354651 174.266998 
L 275.416411 169.401145 
L 276.478171 163.585963 
L 277.539931 156.669291 
L 278.601691 148.501152 
L 279.928891 136.35153 
L 281.256091 122.008005 
L 283.114171 99.070128 
L 285.237691 72.839659 
L 286.299451 61.812929 
L 287.361211 52.995601 
L 288.157531 47.90669 
L 288.953851 44.04118 
L 289.750171 41.258083 
L 290.546491 39.395185 
L 291.077371 38.585657 
L 291.608251 38.071457 
L 292.139131 37.814015 
L 292.670011 37.779331 
L 293.200891 37.937854 
L 293.997211 38.483327 
L 294.793531 39.336533 
L 295.855291 40.858828 
L 297.182491 43.245418 
L 298.775131 46.643184 
L 300.633211 51.143632 
L 303.022171 57.515737 
L 306.472892 67.415554 
L 321.337532 110.872661 
L 326.646332 125.271436 
L 336.998492 153.048665 
L 339.652892 160.971337 
L 342.307293 169.620059 
L 345.758013 181.779316 
L 348.677853 191.873264 
L 350.535933 197.506645 
L 352.128573 201.576544 
L 353.455773 204.384878 
L 354.782973 206.685935 
L 356.110173 208.535629 
L 357.437373 210.003516 
L 358.764573 211.159258 
L 360.357213 212.22122 
L 361.949853 213.011654 
L 363.807933 213.680991 
L 365.931453 214.208142 
L 368.585853 214.62717 
L 372.036573 214.924526 
L 376.814493 215.082887 
L 383.981374 215.067084 
L 396.191614 214.786908 
L 415.834175 214.101222 
L 438.662015 213.082644 
L 463.347936 211.754088 
L 492.811777 209.933134 
L 602.17306 202.945062 
L 606.68554 202.697283 
L 606.68554 202.697283 
" clip-path="url(#p8ca6a86af6)" style="fill: none; stroke: #d62728; stroke-width: 1.5; stroke-linecap: square"/>
   </g>
   <g id="line2d_37">
    <path d="M 75.540085 198.055139 
L 297.447931 197.891297 
L 303.022171 197.621811 
L 306.472892 197.256569 
L 309.127292 196.774137 
L 311.250812 196.18392 
L 313.108892 195.447049 
L 314.701532 194.587493 
L 316.028732 193.657691 
L 317.355932 192.477694 
L 318.683132 190.979734 
L 320.010332 189.077202 
L 321.072092 187.190171 
L 322.133852 184.902156 
L 323.195612 182.124694 
L 324.257372 178.747224 
L 325.319132 174.629654 
L 326.380892 169.591326 
L 327.442652 163.394559 
L 328.504412 155.721185 
L 329.566172 146.144555 
L 330.627932 134.117443 
L 331.689692 119.054111 
L 332.751452 100.710257 
L 335.405852 51.971533 
L 336.202172 42.439729 
L 336.733052 38.08594 
L 337.263932 35.113604 
L 337.794812 33.232453 
L 338.325692 32.15465 
L 338.856572 31.64171 
L 339.387452 31.51767 
L 339.918332 31.66246 
L 340.714652 32.221497 
L 341.510973 33.064361 
L 342.572733 34.503548 
L 343.899933 36.69415 
L 345.492573 39.787934 
L 347.350653 43.923645 
L 349.474173 49.203794 
L 352.128573 56.415456 
L 355.844733 67.207227 
L 369.116733 106.310186 
L 374.425533 120.955783 
L 386.635774 154.153232 
L 389.024734 161.640674 
L 391.148254 169.101144 
L 393.006334 176.421343 
L 395.395294 186.846437 
L 398.315134 199.606103 
L 399.642334 204.45255 
L 400.704094 207.591586 
L 401.765854 210.029772 
L 402.827614 211.824837 
L 403.889374 213.090247 
L 404.951134 213.953676 
L 406.012894 214.529279 
L 407.340094 214.978051 
L 408.932734 215.273441 
L 411.321694 215.45996 
L 415.303295 215.504589 
L 424.859135 215.320646 
L 446.890655 214.658122 
L 469.187616 213.771688 
L 491.750017 212.651445 
L 516.435937 211.196227 
L 547.757858 209.110349 
L 606.68554 205.065835 
L 606.68554 205.065835 
" clip-path="url(#p8ca6a86af6)" style="fill: none; stroke: #9467bd; stroke-width: 1.5; stroke-linecap: square"/>
   </g>
   <g id="patch_3">
    <path d="M 48.982813 224.708125 
L 48.982813 22.318125 
" style="fill: none; stroke: #000000; stroke-width: 0.8; stroke-linejoin: miter; stroke-linecap: square"/>
   </g>
   <g id="patch_4">
    <path d="M 633.242812 224.708125 
L 633.242812 22.318125 
" style="fill: none; stroke: #000000; stroke-width: 0.8; stroke-linejoin: miter; stroke-linecap: square"/>
   </g>
   <g id="patch_5">
    <path d="M 48.982813 224.708125 
L 633.242812 224.708125 
" style="fill: none; stroke: #000000; stroke-width: 0.8; stroke-linejoin: miter; stroke-linecap: square"/>
   </g>
   <g id="patch_6">
    <path d="M 48.982813 22.318125 
L 633.242812 22.318125 
" style="fill: none; stroke: #000000; stroke-width: 0.8; stroke-linejoin: miter; stroke-linecap: square"/>
   </g>
   <g id="text_9">
    <!-- Neuron A -->
    <g transform="translate(313.313125 16.318125) scale(0.12 -0.12)">
     <defs>
      <path id="DejaVuSans-4e" d="M 628 4666 
L 1478 4666 
L 3547 763 
L 3547 4666 
L 4159 4666 
L 4159 0 
L 3309 0 
L 1241 3903 
L 1241 0 
L 628 0 
L 628 4666 
z
" transform="scale(0.015625)"/>
      <path id="DejaVuSans-75" d="M 544 1381 
L 544 3500 
L 1119 3500 
L 1119 1403 
Q 1119 906 1312 657 
Q 1506 409 1894 409 
Q 2359 409 2629 706 
Q 2900 1003 2900 1516 
L 2900 3500 
L 3475 3500 
L 3475 0 
L 2900 0 
L 2900 538 
Q 2691 219 2414 64 
Q 2138 -91 1772 -91 
Q 1169 -91 856 284 
Q 544 659 544 1381 
z
M 1991 3584 
L 1991 3584 
z
" transform="scale(0.015625)"/>
      <path id="DejaVuSans-a0" transform="scale(0.015625)"/>
      <path id="DejaVuSans-41" d="M 2188 4044 
L 1331 1722 
L 3047 1722 
L 2188 4044 
z
M 1831 4666 
L 2547 4666 
L 4325 0 
L 3669 0 
L 3244 1197 
L 1141 1197 
L 716 0 
L 50 0 
L 1831 4666 
z
" transform="scale(0.015625)"/>
     </defs>
     <use xlink:href="#DejaVuSans-4e"/>
     <use xlink:href="#DejaVuSans-65" transform="translate(74.804688 0)"/>
     <use xlink:href="#DejaVuSans-75" transform="translate(136.328125 0)"/>
     <use xlink:href="#DejaVuSans-72" transform="translate(199.707031 0)"/>
     <use xlink:href="#DejaVuSans-6f" transform="translate(238.570312 0)"/>
     <use xlink:href="#DejaVuSans-6e" transform="translate(299.751953 0)"/>
     <use xlink:href="#DejaVuSans-a0" transform="translate(363.130859 0)"/>
     <use xlink:href="#DejaVuSans-41" transform="translate(394.917969 0)"/>
    </g>
   </g>
   <g id="legend_1">
    <g id="patch_7">
     <path d="M 549.149062 103.70875 
L 626.242812 103.70875 
Q 628.242812 103.70875 628.242812 101.70875 
L 628.242812 29.318125 
Q 628.242812 27.318125 626.242812 27.318125 
L 549.149062 27.318125 
Q 547.149062 27.318125 547.149062 29.318125 
L 547.149062 101.70875 
Q 547.149062 103.70875 549.149062 103.70875 
z
" style="fill: #ffffff; opacity: 0.8; stroke: #cccccc; stroke-linejoin: miter"/>
    </g>
    <g id="line2d_38">
     <path d="M 551.149062 35.416562 
L 561.149062 35.416562 
L 571.149062 35.416562 
" style="fill: none; stroke: #1f77b4; stroke-width: 1.5; stroke-linecap: square"/>
    </g>
    <g id="text_10">
     <!-- Comp 0 -->
     <g transform="translate(579.149062 38.916562) scale(0.1 -0.1)">
      <defs>
       <path id="DejaVuSans-43" d="M 4122 4306 
L 4122 3641 
Q 3803 3938 3442 4084 
Q 3081 4231 2675 4231 
Q 1875 4231 1450 3742 
Q 1025 3253 1025 2328 
Q 1025 1406 1450 917 
Q 1875 428 2675 428 
Q 3081 428 3442 575 
Q 3803 722 4122 1019 
L 4122 359 
Q 3791 134 3420 21 
Q 3050 -91 2638 -91 
Q 1578 -91 968 557 
Q 359 1206 359 2328 
Q 359 3453 968 4101 
Q 1578 4750 2638 4750 
Q 3056 4750 3426 4639 
Q 3797 4528 4122 4306 
z
" transform="scale(0.015625)"/>
      </defs>
      <use xlink:href="#DejaVuSans-43"/>
      <use xlink:href="#DejaVuSans-6f" transform="translate(69.824219 0)"/>
      <use xlink:href="#DejaVuSans-6d" transform="translate(131.005859 0)"/>
      <use xlink:href="#DejaVuSans-70" transform="translate(228.417969 0)"/>
      <use xlink:href="#DejaVuSans-20" transform="translate(291.894531 0)"/>
      <use xlink:href="#DejaVuSans-30" transform="translate(323.681641 0)"/>
     </g>
    </g>
    <g id="line2d_39">
     <path d="M 551.149062 50.094688 
L 561.149062 50.094688 
L 571.149062 50.094688 
" style="fill: none; stroke: #ff7f0e; stroke-width: 1.5; stroke-linecap: square"/>
    </g>
    <g id="text_11">
     <!-- Comp 25 -->
     <g transform="translate(579.149062 53.594688) scale(0.1 -0.1)">
      <defs>
       <path id="DejaVuSans-35" d="M 691 4666 
L 3169 4666 
L 3169 4134 
L 1269 4134 
L 1269 2991 
Q 1406 3038 1543 3061 
Q 1681 3084 1819 3084 
Q 2600 3084 3056 2656 
Q 3513 2228 3513 1497 
Q 3513 744 3044 326 
Q 2575 -91 1722 -91 
Q 1428 -91 1123 -41 
Q 819 9 494 109 
L 494 744 
Q 775 591 1075 516 
Q 1375 441 1709 441 
Q 2250 441 2565 725 
Q 2881 1009 2881 1497 
Q 2881 1984 2565 2268 
Q 2250 2553 1709 2553 
Q 1456 2553 1204 2497 
Q 953 2441 691 2322 
L 691 4666 
z
" transform="scale(0.015625)"/>
      </defs>
      <use xlink:href="#DejaVuSans-43"/>
      <use xlink:href="#DejaVuSans-6f" transform="translate(69.824219 0)"/>
      <use xlink:href="#DejaVuSans-6d" transform="translate(131.005859 0)"/>
      <use xlink:href="#DejaVuSans-70" transform="translate(228.417969 0)"/>
      <use xlink:href="#DejaVuSans-20" transform="translate(291.894531 0)"/>
      <use xlink:href="#DejaVuSans-32" transform="translate(323.681641 0)"/>
      <use xlink:href="#DejaVuSans-35" transform="translate(387.304688 0)"/>
     </g>
    </g>
    <g id="line2d_40">
     <path d="M 551.149062 64.772812 
L 561.149062 64.772812 
L 571.149062 64.772812 
" style="fill: none; stroke: #2ca02c; stroke-width: 1.5; stroke-linecap: square"/>
    </g>
    <g id="text_12">
     <!-- Comp 50 -->
     <g transform="translate(579.149062 68.272812) scale(0.1 -0.1)">
      <use xlink:href="#DejaVuSans-43"/>
      <use xlink:href="#DejaVuSans-6f" transform="translate(69.824219 0)"/>
      <use xlink:href="#DejaVuSans-6d" transform="translate(131.005859 0)"/>
      <use xlink:href="#DejaVuSans-70" transform="translate(228.417969 0)"/>
      <use xlink:href="#DejaVuSans-20" transform="translate(291.894531 0)"/>
      <use xlink:href="#DejaVuSans-35" transform="translate(323.681641 0)"/>
      <use xlink:href="#DejaVuSans-30" transform="translate(387.304688 0)"/>
     </g>
    </g>
    <g id="line2d_41">
     <path d="M 551.149062 79.450938 
L 561.149062 79.450938 
L 571.149062 79.450938 
" style="fill: none; stroke: #d62728; stroke-width: 1.5; stroke-linecap: square"/>
    </g>
    <g id="text_13">
     <!-- Comp 75 -->
     <g transform="translate(579.149062 82.950938) scale(0.1 -0.1)">
      <defs>
       <path id="DejaVuSans-37" d="M 525 4666 
L 3525 4666 
L 3525 4397 
L 1831 0 
L 1172 0 
L 2766 4134 
L 525 4134 
L 525 4666 
z
" transform="scale(0.015625)"/>
      </defs>
      <use xlink:href="#DejaVuSans-43"/>
      <use xlink:href="#DejaVuSans-6f" transform="translate(69.824219 0)"/>
      <use xlink:href="#DejaVuSans-6d" transform="translate(131.005859 0)"/>
      <use xlink:href="#DejaVuSans-70" transform="translate(228.417969 0)"/>
      <use xlink:href="#DejaVuSans-20" transform="translate(291.894531 0)"/>
      <use xlink:href="#DejaVuSans-37" transform="translate(323.681641 0)"/>
      <use xlink:href="#DejaVuSans-35" transform="translate(387.304688 0)"/>
     </g>
    </g>
    <g id="line2d_42">
     <path d="M 551.149062 94.129062 
L 561.149062 94.129062 
L 571.149062 94.129062 
" style="fill: none; stroke: #9467bd; stroke-width: 1.5; stroke-linecap: square"/>
    </g>
    <g id="text_14">
     <!-- Comp 99 -->
     <g transform="translate(579.149062 97.629062) scale(0.1 -0.1)">
      <defs>
       <path id="DejaVuSans-39" d="M 703 97 
L 703 672 
Q 941 559 1184 500 
Q 1428 441 1663 441 
Q 2288 441 2617 861 
Q 2947 1281 2994 2138 
Q 2813 1869 2534 1725 
Q 2256 1581 1919 1581 
Q 1219 1581 811 2004 
Q 403 2428 403 3163 
Q 403 3881 828 4315 
Q 1253 4750 1959 4750 
Q 2769 4750 3195 4129 
Q 3622 3509 3622 2328 
Q 3622 1225 3098 567 
Q 2575 -91 1691 -91 
Q 1453 -91 1209 -44 
Q 966 3 703 97 
z
M 1959 2075 
Q 2384 2075 2632 2365 
Q 2881 2656 2881 3163 
Q 2881 3666 2632 3958 
Q 2384 4250 1959 4250 
Q 1534 4250 1286 3958 
Q 1038 3666 1038 3163 
Q 1038 2656 1286 2365 
Q 1534 2075 1959 2075 
z
" transform="scale(0.015625)"/>
      </defs>
      <use xlink:href="#DejaVuSans-43"/>
      <use xlink:href="#DejaVuSans-6f" transform="translate(69.824219 0)"/>
      <use xlink:href="#DejaVuSans-6d" transform="translate(131.005859 0)"/>
      <use xlink:href="#DejaVuSans-70" transform="translate(228.417969 0)"/>
      <use xlink:href="#DejaVuSans-20" transform="translate(291.894531 0)"/>
      <use xlink:href="#DejaVuSans-39" transform="translate(323.681641 0)"/>
      <use xlink:href="#DejaVuSans-39" transform="translate(387.304688 0)"/>
     </g>
    </g>
   </g>
  </g>
  <g id="axes_2">
   <g id="patch_8">
    <path d="M 48.982813 457.478125 
L 633.242812 457.478125 
L 633.242812 255.088125 
L 48.982813 255.088125 
L 48.982813 457.478125 
z
" style="fill: none"/>
   </g>
   <g id="matplotlib.axis_3">
    <g id="xtick_10">
     <g id="line2d_43">
      <path d="M 75.540085 457.478125 
L 75.540085 255.088125 
" clip-path="url(#p82f37d8c52)" style="fill: none; stroke: #b0b0b0; stroke-width: 0.8; stroke-linecap: square"/>
     </g>
     <g id="line2d_44">
      <g>
       <use xlink:href="#m3b062238c6" x="75.540085" y="457.478125" style="stroke: #000000; stroke-width: 0.8"/>
      </g>
     </g>
     <g id="text_15">
      <!-- 0.0 -->
      <g transform="translate(67.588523 472.076563) scale(0.1 -0.1)">
       <defs>
        <path id="DejaVuSans-2e" d="M 684 794 
L 1344 794 
L 1344 0 
L 684 0 
L 684 794 
z
" transform="scale(0.015625)"/>
       </defs>
       <use xlink:href="#DejaVuSans-30"/>
       <use xlink:href="#DejaVuSans-2e" transform="translate(63.623047 0)"/>
       <use xlink:href="#DejaVuSans-30" transform="translate(95.410156 0)"/>
      </g>
     </g>
    </g>
    <g id="xtick_11">
     <g id="line2d_45">
      <path d="M 141.900087 457.478125 
L 141.900087 255.088125 
" clip-path="url(#p82f37d8c52)" style="fill: none; stroke: #b0b0b0; stroke-width: 0.8; stroke-linecap: square"/>
     </g>
     <g id="line2d_46">
      <g>
       <use xlink:href="#m3b062238c6" x="141.900087" y="457.478125" style="stroke: #000000; stroke-width: 0.8"/>
      </g>
     </g>
     <g id="text_16">
      <!-- 2.5 -->
      <g transform="translate(133.948525 472.076563) scale(0.1 -0.1)">
       <use xlink:href="#DejaVuSans-32"/>
       <use xlink:href="#DejaVuSans-2e" transform="translate(63.623047 0)"/>
       <use xlink:href="#DejaVuSans-35" transform="translate(95.410156 0)"/>
      </g>
     </g>
    </g>
    <g id="xtick_12">
     <g id="line2d_47">
      <path d="M 208.260089 457.478125 
L 208.260089 255.088125 
" clip-path="url(#p82f37d8c52)" style="fill: none; stroke: #b0b0b0; stroke-width: 0.8; stroke-linecap: square"/>
     </g>
     <g id="line2d_48">
      <g>
       <use xlink:href="#m3b062238c6" x="208.260089" y="457.478125" style="stroke: #000000; stroke-width: 0.8"/>
      </g>
     </g>
     <g id="text_17">
      <!-- 5.0 -->
      <g transform="translate(200.308526 472.076563) scale(0.1 -0.1)">
       <use xlink:href="#DejaVuSans-35"/>
       <use xlink:href="#DejaVuSans-2e" transform="translate(63.623047 0)"/>
       <use xlink:href="#DejaVuSans-30" transform="translate(95.410156 0)"/>
      </g>
     </g>
    </g>
    <g id="xtick_13">
     <g id="line2d_49">
      <path d="M 274.620091 457.478125 
L 274.620091 255.088125 
" clip-path="url(#p82f37d8c52)" style="fill: none; stroke: #b0b0b0; stroke-width: 0.8; stroke-linecap: square"/>
     </g>
     <g id="line2d_50">
      <g>
       <use xlink:href="#m3b062238c6" x="274.620091" y="457.478125" style="stroke: #000000; stroke-width: 0.8"/>
      </g>
     </g>
     <g id="text_18">
      <!-- 7.5 -->
      <g transform="translate(266.668528 472.076563) scale(0.1 -0.1)">
       <use xlink:href="#DejaVuSans-37"/>
       <use xlink:href="#DejaVuSans-2e" transform="translate(63.623047 0)"/>
       <use xlink:href="#DejaVuSans-35" transform="translate(95.410156 0)"/>
      </g>
     </g>
    </g>
    <g id="xtick_14">
     <g id="line2d_51">
      <path d="M 340.980092 457.478125 
L 340.980092 255.088125 
" clip-path="url(#p82f37d8c52)" style="fill: none; stroke: #b0b0b0; stroke-width: 0.8; stroke-linecap: square"/>
     </g>
     <g id="line2d_52">
      <g>
       <use xlink:href="#m3b062238c6" x="340.980092" y="457.478125" style="stroke: #000000; stroke-width: 0.8"/>
      </g>
     </g>
     <g id="text_19">
      <!-- 10.0 -->
      <g transform="translate(329.84728 472.076563) scale(0.1 -0.1)">
       <defs>
        <path id="DejaVuSans-31" d="M 794 531 
L 1825 531 
L 1825 4091 
L 703 3866 
L 703 4441 
L 1819 4666 
L 2450 4666 
L 2450 531 
L 3481 531 
L 3481 0 
L 794 0 
L 794 531 
z
" transform="scale(0.015625)"/>
       </defs>
       <use xlink:href="#DejaVuSans-31"/>
       <use xlink:href="#DejaVuSans-30" transform="translate(63.623047 0)"/>
       <use xlink:href="#DejaVuSans-2e" transform="translate(127.246094 0)"/>
       <use xlink:href="#DejaVuSans-30" transform="translate(159.033203 0)"/>
      </g>
     </g>
    </g>
    <g id="xtick_15">
     <g id="line2d_53">
      <path d="M 407.340094 457.478125 
L 407.340094 255.088125 
" clip-path="url(#p82f37d8c52)" style="fill: none; stroke: #b0b0b0; stroke-width: 0.8; stroke-linecap: square"/>
     </g>
     <g id="line2d_54">
      <g>
       <use xlink:href="#m3b062238c6" x="407.340094" y="457.478125" style="stroke: #000000; stroke-width: 0.8"/>
      </g>
     </g>
     <g id="text_20">
      <!-- 12.5 -->
      <g transform="translate(396.207282 472.076563) scale(0.1 -0.1)">
       <use xlink:href="#DejaVuSans-31"/>
       <use xlink:href="#DejaVuSans-32" transform="translate(63.623047 0)"/>
       <use xlink:href="#DejaVuSans-2e" transform="translate(127.246094 0)"/>
       <use xlink:href="#DejaVuSans-35" transform="translate(159.033203 0)"/>
      </g>
     </g>
    </g>
    <g id="xtick_16">
     <g id="line2d_55">
      <path d="M 473.700096 457.478125 
L 473.700096 255.088125 
" clip-path="url(#p82f37d8c52)" style="fill: none; stroke: #b0b0b0; stroke-width: 0.8; stroke-linecap: square"/>
     </g>
     <g id="line2d_56">
      <g>
       <use xlink:href="#m3b062238c6" x="473.700096" y="457.478125" style="stroke: #000000; stroke-width: 0.8"/>
      </g>
     </g>
     <g id="text_21">
      <!-- 15.0 -->
      <g transform="translate(462.567284 472.076563) scale(0.1 -0.1)">
       <use xlink:href="#DejaVuSans-31"/>
       <use xlink:href="#DejaVuSans-35" transform="translate(63.623047 0)"/>
       <use xlink:href="#DejaVuSans-2e" transform="translate(127.246094 0)"/>
       <use xlink:href="#DejaVuSans-30" transform="translate(159.033203 0)"/>
      </g>
     </g>
    </g>
    <g id="xtick_17">
     <g id="line2d_57">
      <path d="M 540.060098 457.478125 
L 540.060098 255.088125 
" clip-path="url(#p82f37d8c52)" style="fill: none; stroke: #b0b0b0; stroke-width: 0.8; stroke-linecap: square"/>
     </g>
     <g id="line2d_58">
      <g>
       <use xlink:href="#m3b062238c6" x="540.060098" y="457.478125" style="stroke: #000000; stroke-width: 0.8"/>
      </g>
     </g>
     <g id="text_22">
      <!-- 17.5 -->
      <g transform="translate(528.927285 472.076563) scale(0.1 -0.1)">
       <use xlink:href="#DejaVuSans-31"/>
       <use xlink:href="#DejaVuSans-37" transform="translate(63.623047 0)"/>
       <use xlink:href="#DejaVuSans-2e" transform="translate(127.246094 0)"/>
       <use xlink:href="#DejaVuSans-35" transform="translate(159.033203 0)"/>
      </g>
     </g>
    </g>
    <g id="xtick_18">
     <g id="line2d_59">
      <path d="M 606.4201 457.478125 
L 606.4201 255.088125 
" clip-path="url(#p82f37d8c52)" style="fill: none; stroke: #b0b0b0; stroke-width: 0.8; stroke-linecap: square"/>
     </g>
     <g id="line2d_60">
      <g>
       <use xlink:href="#m3b062238c6" x="606.4201" y="457.478125" style="stroke: #000000; stroke-width: 0.8"/>
      </g>
     </g>
     <g id="text_23">
      <!-- 20.0 -->
      <g transform="translate(595.287287 472.076563) scale(0.1 -0.1)">
       <use xlink:href="#DejaVuSans-32"/>
       <use xlink:href="#DejaVuSans-30" transform="translate(63.623047 0)"/>
       <use xlink:href="#DejaVuSans-2e" transform="translate(127.246094 0)"/>
       <use xlink:href="#DejaVuSans-30" transform="translate(159.033203 0)"/>
      </g>
     </g>
    </g>
    <g id="text_24">
     <!-- Time (ms) -->
     <g transform="translate(315.913594 485.754688) scale(0.1 -0.1)">
      <defs>
       <path id="DejaVuSans-54" d="M -19 4666 
L 3928 4666 
L 3928 4134 
L 2272 4134 
L 2272 0 
L 1638 0 
L 1638 4134 
L -19 4134 
L -19 4666 
z
" transform="scale(0.015625)"/>
       <path id="DejaVuSans-73" d="M 2834 3397 
L 2834 2853 
Q 2591 2978 2328 3040 
Q 2066 3103 1784 3103 
Q 1356 3103 1142 2972 
Q 928 2841 928 2578 
Q 928 2378 1081 2264 
Q 1234 2150 1697 2047 
L 1894 2003 
Q 2506 1872 2764 1633 
Q 3022 1394 3022 966 
Q 3022 478 2636 193 
Q 2250 -91 1575 -91 
Q 1294 -91 989 -36 
Q 684 19 347 128 
L 347 722 
Q 666 556 975 473 
Q 1284 391 1588 391 
Q 1994 391 2212 530 
Q 2431 669 2431 922 
Q 2431 1156 2273 1281 
Q 2116 1406 1581 1522 
L 1381 1569 
Q 847 1681 609 1914 
Q 372 2147 372 2553 
Q 372 3047 722 3315 
Q 1072 3584 1716 3584 
Q 2034 3584 2315 3537 
Q 2597 3491 2834 3397 
z
" transform="scale(0.015625)"/>
      </defs>
      <use xlink:href="#DejaVuSans-54"/>
      <use xlink:href="#DejaVuSans-69" transform="translate(57.958984 0)"/>
      <use xlink:href="#DejaVuSans-6d" transform="translate(85.742188 0)"/>
      <use xlink:href="#DejaVuSans-65" transform="translate(183.154297 0)"/>
      <use xlink:href="#DejaVuSans-20" transform="translate(244.677734 0)"/>
      <use xlink:href="#DejaVuSans-28" transform="translate(276.464844 0)"/>
      <use xlink:href="#DejaVuSans-6d" transform="translate(315.478516 0)"/>
      <use xlink:href="#DejaVuSans-73" transform="translate(412.890625 0)"/>
      <use xlink:href="#DejaVuSans-29" transform="translate(464.990234 0)"/>
     </g>
    </g>
   </g>
   <g id="matplotlib.axis_4">
    <g id="ytick_8">
     <g id="line2d_61">
      <path d="M 48.982813 454.579546 
L 633.242812 454.579546 
" clip-path="url(#p82f37d8c52)" style="fill: none; stroke: #b0b0b0; stroke-width: 0.8; stroke-linecap: square"/>
     </g>
     <g id="line2d_62">
      <g>
       <use xlink:href="#m07a2095108" x="48.982813" y="454.579546" style="stroke: #000000; stroke-width: 0.8"/>
      </g>
     </g>
     <g id="text_25">
      <!-- −80 -->
      <g transform="translate(20.878125 458.378765) scale(0.1 -0.1)">
       <use xlink:href="#DejaVuSans-2212"/>
       <use xlink:href="#DejaVuSans-38" transform="translate(83.789062 0)"/>
       <use xlink:href="#DejaVuSans-30" transform="translate(147.412109 0)"/>
      </g>
     </g>
    </g>
    <g id="ytick_9">
     <g id="line2d_63">
      <path d="M 48.982813 423.581936 
L 633.242812 423.581936 
" clip-path="url(#p82f37d8c52)" style="fill: none; stroke: #b0b0b0; stroke-width: 0.8; stroke-linecap: square"/>
     </g>
     <g id="line2d_64">
      <g>
       <use xlink:href="#m07a2095108" x="48.982813" y="423.581936" style="stroke: #000000; stroke-width: 0.8"/>
      </g>
     </g>
     <g id="text_26">
      <!-- −60 -->
      <g transform="translate(20.878125 427.381155) scale(0.1 -0.1)">
       <use xlink:href="#DejaVuSans-2212"/>
       <use xlink:href="#DejaVuSans-36" transform="translate(83.789062 0)"/>
       <use xlink:href="#DejaVuSans-30" transform="translate(147.412109 0)"/>
      </g>
     </g>
    </g>
    <g id="ytick_10">
     <g id="line2d_65">
      <path d="M 48.982813 392.584327 
L 633.242812 392.584327 
" clip-path="url(#p82f37d8c52)" style="fill: none; stroke: #b0b0b0; stroke-width: 0.8; stroke-linecap: square"/>
     </g>
     <g id="line2d_66">
      <g>
       <use xlink:href="#m07a2095108" x="48.982813" y="392.584327" style="stroke: #000000; stroke-width: 0.8"/>
      </g>
     </g>
     <g id="text_27">
      <!-- −40 -->
      <g transform="translate(20.878125 396.383545) scale(0.1 -0.1)">
       <use xlink:href="#DejaVuSans-2212"/>
       <use xlink:href="#DejaVuSans-34" transform="translate(83.789062 0)"/>
       <use xlink:href="#DejaVuSans-30" transform="translate(147.412109 0)"/>
      </g>
     </g>
    </g>
    <g id="ytick_11">
     <g id="line2d_67">
      <path d="M 48.982813 361.586717 
L 633.242812 361.586717 
" clip-path="url(#p82f37d8c52)" style="fill: none; stroke: #b0b0b0; stroke-width: 0.8; stroke-linecap: square"/>
     </g>
     <g id="line2d_68">
      <g>
       <use xlink:href="#m07a2095108" x="48.982813" y="361.586717" style="stroke: #000000; stroke-width: 0.8"/>
      </g>
     </g>
     <g id="text_28">
      <!-- −20 -->
      <g transform="translate(20.878125 365.385936) scale(0.1 -0.1)">
       <use xlink:href="#DejaVuSans-2212"/>
       <use xlink:href="#DejaVuSans-32" transform="translate(83.789062 0)"/>
       <use xlink:href="#DejaVuSans-30" transform="translate(147.412109 0)"/>
      </g>
     </g>
    </g>
    <g id="ytick_12">
     <g id="line2d_69">
      <path d="M 48.982813 330.589108 
L 633.242812 330.589108 
" clip-path="url(#p82f37d8c52)" style="fill: none; stroke: #b0b0b0; stroke-width: 0.8; stroke-linecap: square"/>
     </g>
     <g id="line2d_70">
      <g>
       <use xlink:href="#m07a2095108" x="48.982813" y="330.589108" style="stroke: #000000; stroke-width: 0.8"/>
      </g>
     </g>
     <g id="text_29">
      <!-- 0 -->
      <g transform="translate(35.620313 334.388326) scale(0.1 -0.1)">
       <use xlink:href="#DejaVuSans-30"/>
      </g>
     </g>
    </g>
    <g id="ytick_13">
     <g id="line2d_71">
      <path d="M 48.982813 299.591498 
L 633.242812 299.591498 
" clip-path="url(#p82f37d8c52)" style="fill: none; stroke: #b0b0b0; stroke-width: 0.8; stroke-linecap: square"/>
     </g>
     <g id="line2d_72">
      <g>
       <use xlink:href="#m07a2095108" x="48.982813" y="299.591498" style="stroke: #000000; stroke-width: 0.8"/>
      </g>
     </g>
     <g id="text_30">
      <!-- 20 -->
      <g transform="translate(29.257813 303.390717) scale(0.1 -0.1)">
       <use xlink:href="#DejaVuSans-32"/>
       <use xlink:href="#DejaVuSans-30" transform="translate(63.623047 0)"/>
      </g>
     </g>
    </g>
    <g id="ytick_14">
     <g id="line2d_73">
      <path d="M 48.982813 268.593889 
L 633.242812 268.593889 
" clip-path="url(#p82f37d8c52)" style="fill: none; stroke: #b0b0b0; stroke-width: 0.8; stroke-linecap: square"/>
     </g>
     <g id="line2d_74">
      <g>
       <use xlink:href="#m07a2095108" x="48.982813" y="268.593889" style="stroke: #000000; stroke-width: 0.8"/>
      </g>
     </g>
     <g id="text_31">
      <!-- 40 -->
      <g transform="translate(29.257813 272.393107) scale(0.1 -0.1)">
       <use xlink:href="#DejaVuSans-34"/>
       <use xlink:href="#DejaVuSans-30" transform="translate(63.623047 0)"/>
      </g>
     </g>
    </g>
    <g id="text_32">
     <!-- Membrane potential (mV) -->
     <g transform="translate(14.798438 420.694844) rotate(-90) scale(0.1 -0.1)">
      <use xlink:href="#DejaVuSans-4d"/>
      <use xlink:href="#DejaVuSans-65" transform="translate(86.279297 0)"/>
      <use xlink:href="#DejaVuSans-6d" transform="translate(147.802734 0)"/>
      <use xlink:href="#DejaVuSans-62" transform="translate(245.214844 0)"/>
      <use xlink:href="#DejaVuSans-72" transform="translate(308.691406 0)"/>
      <use xlink:href="#DejaVuSans-61" transform="translate(349.804688 0)"/>
      <use xlink:href="#DejaVuSans-6e" transform="translate(411.083984 0)"/>
      <use xlink:href="#DejaVuSans-65" transform="translate(474.462891 0)"/>
      <use xlink:href="#DejaVuSans-20" transform="translate(535.986328 0)"/>
      <use xlink:href="#DejaVuSans-70" transform="translate(567.773438 0)"/>
      <use xlink:href="#DejaVuSans-6f" transform="translate(631.25 0)"/>
      <use xlink:href="#DejaVuSans-74" transform="translate(692.431641 0)"/>
      <use xlink:href="#DejaVuSans-65" transform="translate(731.640625 0)"/>
      <use xlink:href="#DejaVuSans-6e" transform="translate(793.164062 0)"/>
      <use xlink:href="#DejaVuSans-74" transform="translate(856.542969 0)"/>
      <use xlink:href="#DejaVuSans-69" transform="translate(895.751953 0)"/>
      <use xlink:href="#DejaVuSans-61" transform="translate(923.535156 0)"/>
      <use xlink:href="#DejaVuSans-6c" transform="translate(984.814453 0)"/>
      <use xlink:href="#DejaVuSans-20" transform="translate(1012.597656 0)"/>
      <use xlink:href="#DejaVuSans-28" transform="translate(1044.384766 0)"/>
      <use xlink:href="#DejaVuSans-6d" transform="translate(1083.398438 0)"/>
      <use xlink:href="#DejaVuSans-56" transform="translate(1180.810547 0)"/>
      <use xlink:href="#DejaVuSans-29" transform="translate(1249.21875 0)"/>
     </g>
    </g>
   </g>
   <g id="line2d_75">
    <path d="M 75.540085 431.331339 
L 333.016892 431.325996 
L 333.547772 419.132071 
L 334.344092 406.956032 
L 335.140412 398.310696 
L 336.202172 389.608063 
L 337.263932 382.713815 
L 339.122012 372.407971 
L 340.714652 363.076091 
L 341.776413 355.53385 
L 342.838173 346.332641 
L 343.899933 335.187391 
L 345.492573 315.392487 
L 347.350653 292.08834 
L 348.412413 281.43294 
L 349.208733 275.326562 
L 350.005053 270.815353 
L 350.801373 267.702781 
L 351.332253 266.279078 
L 351.863133 265.288773 
L 352.394013 264.664252 
L 352.924893 264.346967 
L 353.455773 264.28767 
L 353.986653 264.445692 
L 354.782973 265.019222 
L 355.579293 265.921146 
L 356.641053 267.526055 
L 357.968253 270.032403 
L 359.560893 273.590802 
L 361.418973 278.298319 
L 363.807933 284.961576 
L 367.258653 295.307154 
L 379.734334 333.339386 
L 383.981374 345.322935 
L 388.228414 356.66969 
L 393.006334 368.783807 
L 404.420254 397.32405 
L 407.340094 405.504591 
L 410.525374 415.168627 
L 415.037855 428.956395 
L 416.630495 433.157576 
L 417.957695 436.165691 
L 419.284895 438.677351 
L 420.612095 440.704532 
L 421.939295 442.29956 
L 423.266495 443.534261 
L 424.593695 444.48233 
L 426.186335 445.332732 
L 428.044415 446.039451 
L 430.167935 446.591878 
L 432.822335 447.038433 
L 436.273055 447.379208 
L 441.050975 447.61269 
L 448.217855 447.721405 
L 459.631776 447.649735 
L 476.089056 447.311783 
L 495.466177 446.689709 
L 516.966817 445.774461 
L 541.387298 444.505221 
L 571.647459 442.696739 
L 606.68554 440.454192 
L 606.68554 440.454192 
" clip-path="url(#p82f37d8c52)" style="fill: none; stroke: #1f77b4; stroke-width: 1.5; stroke-linecap: square"/>
   </g>
   <g id="line2d_76">
    <path d="M 75.540085 431.331339 
L 364.604253 431.151902 
L 369.382173 430.878 
L 372.832893 430.468444 
L 375.487293 429.927657 
L 377.610813 429.266886 
L 379.468894 428.443201 
L 381.061534 427.484034 
L 382.388734 426.448411 
L 383.715934 425.137002 
L 385.043134 423.477019 
L 386.370334 421.376965 
L 387.432094 419.303968 
L 388.493854 416.805147 
L 389.555614 413.795845 
L 390.617374 410.176439 
L 391.679134 405.831091 
L 392.740894 400.62764 
L 393.802654 394.420027 
L 394.864414 387.05578 
L 396.191614 376.011207 
L 397.518814 362.774827 
L 399.111454 344.22194 
L 402.562174 302.156506 
L 403.623934 292.04322 
L 404.685694 284.215257 
L 405.482014 279.826569 
L 406.278334 276.583215 
L 407.074654 274.329757 
L 407.870974 272.904692 
L 408.401854 272.340397 
L 408.932734 272.038344 
L 409.463614 271.963861 
L 409.994494 272.086746 
L 410.790814 272.585255 
L 411.587134 273.397745 
L 412.648894 274.873069 
L 413.976094 277.209351 
L 415.568735 280.55506 
L 417.426815 285.002391 
L 419.815775 291.314463 
L 423.266495 301.139375 
L 438.396575 345.095052 
L 443.705375 359.391999 
L 453.792096 386.286296 
L 456.446496 394.13795 
L 459.100896 402.707157 
L 462.286176 413.832711 
L 465.471456 424.846692 
L 467.329536 430.495026 
L 468.922176 434.590653 
L 470.249376 437.424101 
L 471.576576 439.74989 
L 472.903776 441.621809 
L 474.230976 443.108525 
L 475.558176 444.279638 
L 477.150816 445.356001 
L 478.743456 446.157259 
L 480.601536 446.835823 
L 482.725056 447.370335 
L 485.379456 447.795428 
L 488.830177 448.097574 
L 493.342657 448.255568 
L 500.244097 448.253532 
L 511.923457 448.000124 
L 531.300578 447.340859 
L 554.128418 446.342362 
L 578.814339 445.035323 
L 606.68554 443.339598 
L 606.68554 443.339598 
" clip-path="url(#p82f37d8c52)" style="fill: none; stroke: #ff7f0e; stroke-width: 1.5; stroke-linecap: square"/>
   </g>
   <g id="line2d_77">
    <path d="M 75.540085 431.331339 
L 420.346655 431.143611 
L 425.390015 430.874114 
L 428.840735 430.486639 
L 431.495135 429.975215 
L 433.618655 429.350034 
L 435.476735 428.570271 
L 437.069375 427.661781 
L 438.396575 426.680451 
L 439.723775 425.437319 
L 441.050975 423.86317 
L 442.378175 421.870952 
L 443.439935 419.903697 
L 444.501695 417.531497 
L 445.563455 414.673505 
L 446.625215 411.234349 
L 447.686975 407.102708 
L 448.748735 402.150792 
L 449.810495 396.235877 
L 450.872256 389.206055 
L 451.934016 380.914016 
L 453.261216 368.606028 
L 454.588416 354.130656 
L 456.446496 331.164922 
L 458.570016 305.309009 
L 459.631776 294.609573 
L 460.693536 286.14278 
L 461.489856 281.300944 
L 462.286176 277.654253 
L 463.082496 275.056565 
L 463.878816 273.345843 
L 464.409696 272.620824 
L 464.940576 272.179083 
L 465.471456 271.983442 
L 466.002336 272.001263 
L 466.533216 272.204266 
L 467.329536 272.803869 
L 468.125856 273.69895 
L 469.187616 275.262407 
L 470.514816 277.683033 
L 472.107456 281.103662 
L 474.230976 286.293721 
L 476.885376 293.456631 
L 480.866976 304.968647 
L 492.280897 338.370166 
L 497.324257 352.256957 
L 503.694817 369.072572 
L 509.003617 383.239977 
L 511.923457 391.642306 
L 514.577857 399.978535 
L 517.497697 409.976566 
L 522.010177 425.626109 
L 523.868258 431.16361 
L 525.460898 435.145248 
L 526.788098 437.883471 
L 528.115298 440.121951 
L 529.442498 441.918475 
L 530.769698 443.342723 
L 532.096898 444.463448 
L 533.689538 445.492898 
L 535.282178 446.259001 
L 537.140258 446.907653 
L 539.263778 447.418383 
L 541.918178 447.824072 
L 545.368898 448.111323 
L 550.146818 448.262822 
L 557.313698 448.243376 
L 569.789379 447.954843 
L 589.697379 447.258034 
L 606.68554 446.520143 
L 606.68554 446.520143 
" clip-path="url(#p82f37d8c52)" style="fill: none; stroke: #2ca02c; stroke-width: 1.5; stroke-linecap: square"/>
   </g>
   <g id="line2d_78">
    <path d="M 75.540085 431.331339 
L 477.150816 431.125272 
L 482.194176 430.830223 
L 485.644896 430.406041 
L 488.299297 429.846191 
L 490.422817 429.161843 
L 492.280897 428.308338 
L 493.873537 427.314015 
L 495.200737 426.240081 
L 496.527937 424.879818 
L 497.855137 423.157662 
L 498.916897 421.456341 
L 499.978657 419.403731 
L 501.040417 416.929032 
L 502.102177 413.948249 
L 503.163937 410.362498 
L 504.225697 406.056717 
L 505.287457 400.899485 
L 506.349217 394.745276 
L 507.410977 387.441619 
L 508.738177 376.481001 
L 510.065377 363.330738 
L 511.658017 344.860441 
L 515.374177 299.948997 
L 516.435937 290.282492 
L 517.497697 282.91996 
L 518.294017 278.852931 
L 519.090337 275.891596 
L 519.886657 273.876401 
L 520.417537 272.979264 
L 520.948417 272.387613 
L 521.479297 272.061816 
L 522.010177 271.966762 
L 522.541057 272.071824 
L 523.337377 272.547907 
L 524.133698 273.342155 
L 525.195458 274.798125 
L 526.522658 277.11603 
L 528.115298 280.445565 
L 529.973378 284.879501 
L 532.362338 291.180214 
L 535.813058 300.996552 
L 551.208578 345.691815 
L 556.517378 359.96418 
L 566.338659 386.14868 
L 568.993059 393.988758 
L 571.647459 402.544155 
L 574.832739 413.660177 
L 578.283459 425.547044 
L 580.141539 431.096072 
L 581.734179 435.089401 
L 583.061379 437.837309 
L 584.388579 440.08462 
L 585.715779 441.88874 
L 587.042979 443.319265 
L 588.370179 444.445045 
L 589.962819 445.479197 
L 591.555459 446.248823 
L 593.413539 446.900472 
L 595.537059 447.413587 
L 598.19146 447.821223 
L 601.64218 448.109973 
L 606.4201 448.262539 
L 606.68554 448.265803 
L 606.68554 448.265803 
" clip-path="url(#p82f37d8c52)" style="fill: none; stroke: #d62728; stroke-width: 1.5; stroke-linecap: square"/>
   </g>
   <g id="line2d_79">
    <path d="M 75.540085 431.331339 
L 528.646178 431.113517 
L 533.424098 430.826118 
L 536.874818 430.398568 
L 539.263778 429.903225 
L 541.387298 429.244573 
L 543.245378 428.422274 
L 544.838018 427.463039 
L 546.165218 426.425342 
L 547.492418 425.108267 
L 548.819618 423.435955 
L 549.881378 421.777935 
L 550.943138 419.768694 
L 552.004898 417.331612 
L 553.066658 414.37159 
L 554.128418 410.769244 
L 555.190178 406.372413 
L 556.251938 400.983498 
L 557.313698 394.340718 
L 558.375458 386.092439 
L 559.437218 375.77087 
L 560.498979 362.799471 
L 561.560739 346.648952 
L 562.887939 322.238782 
L 564.480579 292.482221 
L 565.276899 281.128268 
L 566.073219 273.374703 
L 566.604099 270.052367 
L 567.134979 267.900737 
L 567.665859 266.626422 
L 568.196739 265.975607 
L 568.727619 265.755552 
L 569.258499 265.832168 
L 569.789379 266.11742 
L 570.585699 266.820259 
L 571.647459 268.119962 
L 572.974659 270.171001 
L 574.567299 273.123142 
L 576.425379 277.117541 
L 578.548899 282.262754 
L 581.203299 289.341471 
L 584.654019 299.223928 
L 600.04954 344.128689 
L 605.62378 359.229349 
L 606.68554 362.043966 
L 606.68554 362.043966 
" clip-path="url(#p82f37d8c52)" style="fill: none; stroke: #9467bd; stroke-width: 1.5; stroke-linecap: square"/>
   </g>
   <g id="patch_9">
    <path d="M 48.982813 457.478125 
L 48.982813 255.088125 
" style="fill: none; stroke: #000000; stroke-width: 0.8; stroke-linejoin: miter; stroke-linecap: square"/>
   </g>
   <g id="patch_10">
    <path d="M 633.242812 457.478125 
L 633.242812 255.088125 
" style="fill: none; stroke: #000000; stroke-width: 0.8; stroke-linejoin: miter; stroke-linecap: square"/>
   </g>
   <g id="patch_11">
    <path d="M 48.982813 457.478125 
L 633.242812 457.478125 
" style="fill: none; stroke: #000000; stroke-width: 0.8; stroke-linejoin: miter; stroke-linecap: square"/>
   </g>
   <g id="patch_12">
    <path d="M 48.982813 255.088125 
L 633.242812 255.088125 
" style="fill: none; stroke: #000000; stroke-width: 0.8; stroke-linejoin: miter; stroke-linecap: square"/>
   </g>
   <g id="text_33">
    <!-- Neuron B -->
    <g transform="translate(313.300937 249.088125) scale(0.12 -0.12)">
     <defs>
      <path id="DejaVuSans-42" d="M 1259 2228 
L 1259 519 
L 2272 519 
Q 2781 519 3026 730 
Q 3272 941 3272 1375 
Q 3272 1813 3026 2020 
Q 2781 2228 2272 2228 
L 1259 2228 
z
M 1259 4147 
L 1259 2741 
L 2194 2741 
Q 2656 2741 2882 2914 
Q 3109 3088 3109 3444 
Q 3109 3797 2882 3972 
Q 2656 4147 2194 4147 
L 1259 4147 
z
M 628 4666 
L 2241 4666 
Q 2963 4666 3353 4366 
Q 3744 4066 3744 3513 
Q 3744 3084 3544 2831 
Q 3344 2578 2956 2516 
Q 3422 2416 3680 2098 
Q 3938 1781 3938 1306 
Q 3938 681 3513 340 
Q 3088 0 2303 0 
L 628 0 
L 628 4666 
z
" transform="scale(0.015625)"/>
     </defs>
     <use xlink:href="#DejaVuSans-4e"/>
     <use xlink:href="#DejaVuSans-65" transform="translate(74.804688 0)"/>
     <use xlink:href="#DejaVuSans-75" transform="translate(136.328125 0)"/>
     <use xlink:href="#DejaVuSans-72" transform="translate(199.707031 0)"/>
     <use xlink:href="#DejaVuSans-6f" transform="translate(238.570312 0)"/>
     <use xlink:href="#DejaVuSans-6e" transform="translate(299.751953 0)"/>
     <use xlink:href="#DejaVuSans-a0" transform="translate(363.130859 0)"/>
     <use xlink:href="#DejaVuSans-42" transform="translate(394.917969 0)"/>
    </g>
   </g>
   <g id="legend_2">
    <g id="patch_13">
     <path d="M 55.982813 336.47875 
L 133.076563 336.47875 
Q 135.076563 336.47875 135.076563 334.47875 
L 135.076563 262.088125 
Q 135.076563 260.088125 133.076563 260.088125 
L 55.982813 260.088125 
Q 53.982813 260.088125 53.982813 262.088125 
L 53.982813 334.47875 
Q 53.982813 336.47875 55.982813 336.47875 
z
" style="fill: #ffffff; opacity: 0.8; stroke: #cccccc; stroke-linejoin: miter"/>
    </g>
    <g id="line2d_80">
     <path d="M 57.982813 268.186563 
L 67.982813 268.186563 
L 77.982813 268.186563 
" style="fill: none; stroke: #1f77b4; stroke-width: 1.5; stroke-linecap: square"/>
    </g>
    <g id="text_34">
     <!-- Comp 0 -->
     <g transform="translate(85.982813 271.686563) scale(0.1 -0.1)">
      <use xlink:href="#DejaVuSans-43"/>
      <use xlink:href="#DejaVuSans-6f" transform="translate(69.824219 0)"/>
      <use xlink:href="#DejaVuSans-6d" transform="translate(131.005859 0)"/>
      <use xlink:href="#DejaVuSans-70" transform="translate(228.417969 0)"/>
      <use xlink:href="#DejaVuSans-20" transform="translate(291.894531 0)"/>
      <use xlink:href="#DejaVuSans-30" transform="translate(323.681641 0)"/>
     </g>
    </g>
    <g id="line2d_81">
     <path d="M 57.982813 282.864688 
L 67.982813 282.864688 
L 77.982813 282.864688 
" style="fill: none; stroke: #ff7f0e; stroke-width: 1.5; stroke-linecap: square"/>
    </g>
    <g id="text_35">
     <!-- Comp 25 -->
     <g transform="translate(85.982813 286.364688) scale(0.1 -0.1)">
      <use xlink:href="#DejaVuSans-43"/>
      <use xlink:href="#DejaVuSans-6f" transform="translate(69.824219 0)"/>
      <use xlink:href="#DejaVuSans-6d" transform="translate(131.005859 0)"/>
      <use xlink:href="#DejaVuSans-70" transform="translate(228.417969 0)"/>
      <use xlink:href="#DejaVuSans-20" transform="translate(291.894531 0)"/>
      <use xlink:href="#DejaVuSans-32" transform="translate(323.681641 0)"/>
      <use xlink:href="#DejaVuSans-35" transform="translate(387.304688 0)"/>
     </g>
    </g>
    <g id="line2d_82">
     <path d="M 57.982813 297.542813 
L 67.982813 297.542813 
L 77.982813 297.542813 
" style="fill: none; stroke: #2ca02c; stroke-width: 1.5; stroke-linecap: square"/>
    </g>
    <g id="text_36">
     <!-- Comp 50 -->
     <g transform="translate(85.982813 301.042813) scale(0.1 -0.1)">
      <use xlink:href="#DejaVuSans-43"/>
      <use xlink:href="#DejaVuSans-6f" transform="translate(69.824219 0)"/>
      <use xlink:href="#DejaVuSans-6d" transform="translate(131.005859 0)"/>
      <use xlink:href="#DejaVuSans-70" transform="translate(228.417969 0)"/>
      <use xlink:href="#DejaVuSans-20" transform="translate(291.894531 0)"/>
      <use xlink:href="#DejaVuSans-35" transform="translate(323.681641 0)"/>
      <use xlink:href="#DejaVuSans-30" transform="translate(387.304688 0)"/>
     </g>
    </g>
    <g id="line2d_83">
     <path d="M 57.982813 312.220938 
L 67.982813 312.220938 
L 77.982813 312.220938 
" style="fill: none; stroke: #d62728; stroke-width: 1.5; stroke-linecap: square"/>
    </g>
    <g id="text_37">
     <!-- Comp 75 -->
     <g transform="translate(85.982813 315.720938) scale(0.1 -0.1)">
      <use xlink:href="#DejaVuSans-43"/>
      <use xlink:href="#DejaVuSans-6f" transform="translate(69.824219 0)"/>
      <use xlink:href="#DejaVuSans-6d" transform="translate(131.005859 0)"/>
      <use xlink:href="#DejaVuSans-70" transform="translate(228.417969 0)"/>
      <use xlink:href="#DejaVuSans-20" transform="translate(291.894531 0)"/>
      <use xlink:href="#DejaVuSans-37" transform="translate(323.681641 0)"/>
      <use xlink:href="#DejaVuSans-35" transform="translate(387.304688 0)"/>
     </g>
    </g>
    <g id="line2d_84">
     <path d="M 57.982813 326.899063 
L 67.982813 326.899063 
L 77.982813 326.899063 
" style="fill: none; stroke: #9467bd; stroke-width: 1.5; stroke-linecap: square"/>
    </g>
    <g id="text_38">
     <!-- Comp 99 -->
     <g transform="translate(85.982813 330.399063) scale(0.1 -0.1)">
      <use xlink:href="#DejaVuSans-43"/>
      <use xlink:href="#DejaVuSans-6f" transform="translate(69.824219 0)"/>
      <use xlink:href="#DejaVuSans-6d" transform="translate(131.005859 0)"/>
      <use xlink:href="#DejaVuSans-70" transform="translate(228.417969 0)"/>
      <use xlink:href="#DejaVuSans-20" transform="translate(291.894531 0)"/>
      <use xlink:href="#DejaVuSans-39" transform="translate(323.681641 0)"/>
      <use xlink:href="#DejaVuSans-39" transform="translate(387.304688 0)"/>
     </g>
    </g>
   </g>
  </g>
 </g>
 <defs>
  <clipPath id="p8ca6a86af6">
   <rect x="48.982813" y="22.318125" width="584.26" height="202.39"/>
  </clipPath>
  <clipPath id="p82f37d8c52">
   <rect x="48.982813" y="255.088125" width="584.26" height="202.39"/>
  </clipPath>
 </defs>
</svg>
