<?xml version="1.0" encoding="utf-8" standalone="no"?>
<!DOCTYPE svg PUBLIC "-//W3C//DTD SVG 1.1//EN"
  "http://www.w3.org/Graphics/SVG/1.1/DTD/svg11.dtd">
<svg xmlns:xlink="http://www.w3.org/1999/xlink" width="568.69875pt" height="426.15625pt" viewBox="0 0 568.69875 426.15625" xmlns="http://www.w3.org/2000/svg" version="1.1">
 <metadata>
  <rdf:RDF xmlns:dc="http://purl.org/dc/elements/1.1/" xmlns:cc="http://creativecommons.org/ns#" xmlns:rdf="http://www.w3.org/1999/02/22-rdf-syntax-ns#">
   <cc:Work>
    <dc:type rdf:resource="http://purl.org/dc/dcmitype/StillImage"/>
    <dc:date>2025-05-18T02:20:11.327363</dc:date>
    <dc:format>image/svg+xml</dc:format>
    <dc:creator>
     <cc:Agent>
      <dc:title>Matplotlib v3.10.1, https://matplotlib.org/</dc:title>
     </cc:Agent>
    </dc:creator>
   </cc:Work>
  </rdf:RDF>
 </metadata>
 <defs>
  <style type="text/css">*{stroke-linejoin: round; stroke-linecap: butt}</style>
 </defs>
 <g id="figure_1">
  <g id="patch_1">
   <path d="M 0 426.15625 
L 568.69875 426.15625 
L 568.69875 0 
L 0 0 
L 0 426.15625 
z
" style="fill: none"/>
  </g>
  <g id="axes_1">
   <g id="patch_2">
    <path d="M 49.25 111.265 
L 561.49875 111.265 
L 561.49875 33.793043 
L 49.25 33.793043 
L 49.25 111.265 
z
" style="fill: none"/>
   </g>
   <g id="matplotlib.axis_1">
    <g id="xtick_1">
     <g id="line2d_1">
      <path d="M 72.534034 111.265 
L 72.534034 33.793043 
" clip-path="url(#p09f2f00c5c)" style="fill: none; stroke: #b0b0b0; stroke-width: 0.8; stroke-linecap: square"/>
     </g>
     <g id="line2d_2">
      <defs>
       <path id="m33311cc9b9" d="M 0 0 
L 0 3.5 
" style="stroke: #000000; stroke-width: 0.8"/>
      </defs>
      <g>
       <use xlink:href="#m33311cc9b9" x="72.534034" y="111.265" style="stroke: #000000; stroke-width: 0.8"/>
      </g>
     </g>
    </g>
    <g id="xtick_2">
     <g id="line2d_3">
      <path d="M 165.67017 111.265 
L 165.67017 33.793043 
" clip-path="url(#p09f2f00c5c)" style="fill: none; stroke: #b0b0b0; stroke-width: 0.8; stroke-linecap: square"/>
     </g>
     <g id="line2d_4">
      <g>
       <use xlink:href="#m33311cc9b9" x="165.67017" y="111.265" style="stroke: #000000; stroke-width: 0.8"/>
      </g>
     </g>
    </g>
    <g id="xtick_3">
     <g id="line2d_5">
      <path d="M 258.806307 111.265 
L 258.806307 33.793043 
" clip-path="url(#p09f2f00c5c)" style="fill: none; stroke: #b0b0b0; stroke-width: 0.8; stroke-linecap: square"/>
     </g>
     <g id="line2d_6">
      <g>
       <use xlink:href="#m33311cc9b9" x="258.806307" y="111.265" style="stroke: #000000; stroke-width: 0.8"/>
      </g>
     </g>
    </g>
    <g id="xtick_4">
     <g id="line2d_7">
      <path d="M 351.942443 111.265 
L 351.942443 33.793043 
" clip-path="url(#p09f2f00c5c)" style="fill: none; stroke: #b0b0b0; stroke-width: 0.8; stroke-linecap: square"/>
     </g>
     <g id="line2d_8">
      <g>
       <use xlink:href="#m33311cc9b9" x="351.942443" y="111.265" style="stroke: #000000; stroke-width: 0.8"/>
      </g>
     </g>
    </g>
    <g id="xtick_5">
     <g id="line2d_9">
      <path d="M 445.07858 111.265 
L 445.07858 33.793043 
" clip-path="url(#p09f2f00c5c)" style="fill: none; stroke: #b0b0b0; stroke-width: 0.8; stroke-linecap: square"/>
     </g>
     <g id="line2d_10">
      <g>
       <use xlink:href="#m33311cc9b9" x="445.07858" y="111.265" style="stroke: #000000; stroke-width: 0.8"/>
      </g>
     </g>
    </g>
    <g id="xtick_6">
     <g id="line2d_11">
      <path d="M 538.214716 111.265 
L 538.214716 33.793043 
" clip-path="url(#p09f2f00c5c)" style="fill: none; stroke: #b0b0b0; stroke-width: 0.8; stroke-linecap: square"/>
     </g>
     <g id="line2d_12">
      <g>
       <use xlink:href="#m33311cc9b9" x="538.214716" y="111.265" style="stroke: #000000; stroke-width: 0.8"/>
      </g>
     </g>
    </g>
   </g>
   <g id="matplotlib.axis_2">
    <g id="ytick_1">
     <g id="line2d_13">
      <path d="M 49.25 91.490689 
L 561.49875 91.490689 
" clip-path="url(#p09f2f00c5c)" style="fill: none; stroke: #b0b0b0; stroke-width: 0.8; stroke-linecap: square"/>
     </g>
     <g id="line2d_14">
      <defs>
       <path id="me573e2c8a9" d="M 0 0 
L -3.5 0 
" style="stroke: #000000; stroke-width: 0.8"/>
      </defs>
      <g>
       <use xlink:href="#me573e2c8a9" x="49.25" y="91.490689" style="stroke: #000000; stroke-width: 0.8"/>
      </g>
     </g>
     <g id="text_1">
      <!-- −50 -->
      <g transform="translate(21.145312 95.289908) scale(0.1 -0.1)">
       <defs>
        <path id="DejaVuSans-2212" d="M 678 2272 
L 4684 2272 
L 4684 1741 
L 678 1741 
L 678 2272 
z
" transform="scale(0.015625)"/>
        <path id="DejaVuSans-35" d="M 691 4666 
L 3169 4666 
L 3169 4134 
L 1269 4134 
L 1269 2991 
Q 1406 3038 1543 3061 
Q 1681 3084 1819 3084 
Q 2600 3084 3056 2656 
Q 3513 2228 3513 1497 
Q 3513 744 3044 326 
Q 2575 -91 1722 -91 
Q 1428 -91 1123 -41 
Q 819 9 494 109 
L 494 744 
Q 775 591 1075 516 
Q 1375 441 1709 441 
Q 2250 441 2565 725 
Q 2881 1009 2881 1497 
Q 2881 1984 2565 2268 
Q 2250 2553 1709 2553 
Q 1456 2553 1204 2497 
Q 953 2441 691 2322 
L 691 4666 
z
" transform="scale(0.015625)"/>
        <path id="DejaVuSans-30" d="M 2034 4250 
Q 1547 4250 1301 3770 
Q 1056 3291 1056 2328 
Q 1056 1369 1301 889 
Q 1547 409 2034 409 
Q 2525 409 2770 889 
Q 3016 1369 3016 2328 
Q 3016 3291 2770 3770 
Q 2525 4250 2034 4250 
z
M 2034 4750 
Q 2819 4750 3233 4129 
Q 3647 3509 3647 2328 
Q 3647 1150 3233 529 
Q 2819 -91 2034 -91 
Q 1250 -91 836 529 
Q 422 1150 422 2328 
Q 422 3509 836 4129 
Q 1250 4750 2034 4750 
z
" transform="scale(0.015625)"/>
       </defs>
       <use xlink:href="#DejaVuSans-2212"/>
       <use xlink:href="#DejaVuSans-35" transform="translate(83.789062 0)"/>
       <use xlink:href="#DejaVuSans-30" transform="translate(147.412109 0)"/>
      </g>
     </g>
    </g>
    <g id="ytick_2">
     <g id="line2d_15">
      <path d="M 49.25 64.402593 
L 561.49875 64.402593 
" clip-path="url(#p09f2f00c5c)" style="fill: none; stroke: #b0b0b0; stroke-width: 0.8; stroke-linecap: square"/>
     </g>
     <g id="line2d_16">
      <g>
       <use xlink:href="#me573e2c8a9" x="49.25" y="64.402593" style="stroke: #000000; stroke-width: 0.8"/>
      </g>
     </g>
     <g id="text_2">
      <!-- −25 -->
      <g transform="translate(21.145312 68.201811) scale(0.1 -0.1)">
       <defs>
        <path id="DejaVuSans-32" d="M 1228 531 
L 3431 531 
L 3431 0 
L 469 0 
L 469 531 
Q 828 903 1448 1529 
Q 2069 2156 2228 2338 
Q 2531 2678 2651 2914 
Q 2772 3150 2772 3378 
Q 2772 3750 2511 3984 
Q 2250 4219 1831 4219 
Q 1534 4219 1204 4116 
Q 875 4013 500 3803 
L 500 4441 
Q 881 4594 1212 4672 
Q 1544 4750 1819 4750 
Q 2544 4750 2975 4387 
Q 3406 4025 3406 3419 
Q 3406 3131 3298 2873 
Q 3191 2616 2906 2266 
Q 2828 2175 2409 1742 
Q 1991 1309 1228 531 
z
" transform="scale(0.015625)"/>
       </defs>
       <use xlink:href="#DejaVuSans-2212"/>
       <use xlink:href="#DejaVuSans-32" transform="translate(83.789062 0)"/>
       <use xlink:href="#DejaVuSans-35" transform="translate(147.412109 0)"/>
      </g>
     </g>
    </g>
    <g id="ytick_3">
     <g id="line2d_17">
      <path d="M 49.25 37.314496 
L 561.49875 37.314496 
" clip-path="url(#p09f2f00c5c)" style="fill: none; stroke: #b0b0b0; stroke-width: 0.8; stroke-linecap: square"/>
     </g>
     <g id="line2d_18">
      <g>
       <use xlink:href="#me573e2c8a9" x="49.25" y="37.314496" style="stroke: #000000; stroke-width: 0.8"/>
      </g>
     </g>
     <g id="text_3">
      <!-- 0 -->
      <g transform="translate(35.8875 41.113715) scale(0.1 -0.1)">
       <use xlink:href="#DejaVuSans-30"/>
      </g>
     </g>
    </g>
    <g id="text_4">
     <!-- V_A (mV) -->
     <g transform="translate(14.7875 95.650897) rotate(-90) scale(0.1 -0.1)">
      <defs>
       <path id="DejaVuSans-56" d="M 1831 0 
L 50 4666 
L 709 4666 
L 2188 738 
L 3669 4666 
L 4325 4666 
L 2547 0 
L 1831 0 
z
" transform="scale(0.015625)"/>
       <path id="DejaVuSans-5f" d="M 3263 -1063 
L 3263 -1509 
L -63 -1509 
L -63 -1063 
L 3263 -1063 
z
" transform="scale(0.015625)"/>
       <path id="DejaVuSans-41" d="M 2188 4044 
L 1331 1722 
L 3047 1722 
L 2188 4044 
z
M 1831 4666 
L 2547 4666 
L 4325 0 
L 3669 0 
L 3244 1197 
L 1141 1197 
L 716 0 
L 50 0 
L 1831 4666 
z
" transform="scale(0.015625)"/>
       <path id="DejaVuSans-20" transform="scale(0.015625)"/>
       <path id="DejaVuSans-28" d="M 1984 4856 
Q 1566 4138 1362 3434 
Q 1159 2731 1159 2009 
Q 1159 1288 1364 580 
Q 1569 -128 1984 -844 
L 1484 -844 
Q 1016 -109 783 600 
Q 550 1309 550 2009 
Q 550 2706 781 3412 
Q 1013 4119 1484 4856 
L 1984 4856 
z
" transform="scale(0.015625)"/>
       <path id="DejaVuSans-6d" d="M 3328 2828 
Q 3544 3216 3844 3400 
Q 4144 3584 4550 3584 
Q 5097 3584 5394 3201 
Q 5691 2819 5691 2113 
L 5691 0 
L 5113 0 
L 5113 2094 
Q 5113 2597 4934 2840 
Q 4756 3084 4391 3084 
Q 3944 3084 3684 2787 
Q 3425 2491 3425 1978 
L 3425 0 
L 2847 0 
L 2847 2094 
Q 2847 2600 2669 2842 
Q 2491 3084 2119 3084 
Q 1678 3084 1418 2786 
Q 1159 2488 1159 1978 
L 1159 0 
L 581 0 
L 581 3500 
L 1159 3500 
L 1159 2956 
Q 1356 3278 1631 3431 
Q 1906 3584 2284 3584 
Q 2666 3584 2933 3390 
Q 3200 3197 3328 2828 
z
" transform="scale(0.015625)"/>
       <path id="DejaVuSans-29" d="M 513 4856 
L 1013 4856 
Q 1481 4119 1714 3412 
Q 1947 2706 1947 2009 
Q 1947 1309 1714 600 
Q 1481 -109 1013 -844 
L 513 -844 
Q 928 -128 1133 580 
Q 1338 1288 1338 2009 
Q 1338 2731 1133 3434 
Q 928 4138 513 4856 
z
" transform="scale(0.015625)"/>
      </defs>
      <use xlink:href="#DejaVuSans-56"/>
      <use xlink:href="#DejaVuSans-5f" transform="translate(68.408203 0)"/>
      <use xlink:href="#DejaVuSans-41" transform="translate(118.408203 0)"/>
      <use xlink:href="#DejaVuSans-20" transform="translate(186.816406 0)"/>
      <use xlink:href="#DejaVuSans-28" transform="translate(218.603516 0)"/>
      <use xlink:href="#DejaVuSans-6d" transform="translate(257.617188 0)"/>
      <use xlink:href="#DejaVuSans-56" transform="translate(355.029297 0)"/>
      <use xlink:href="#DejaVuSans-29" transform="translate(423.4375 0)"/>
     </g>
    </g>
   </g>
   <g id="line2d_19">
    <path d="M 72.534034 107.743547 
L 74.024212 104.441134 
L 75.51439 101.649912 
L 77.004569 99.315206 
L 78.494747 97.389603 
L 79.984925 95.831639 
L 81.475103 94.60433 
L 82.965281 93.674428 
L 84.45546 93.011543 
L 85.945638 92.587429 
L 87.528952 92.368839 
L 89.205402 92.365179 
L 91.068125 92.595586 
L 93.11712 93.083081 
L 95.53866 93.902116 
L 98.612152 95.197584 
L 104.20032 97.855411 
L 109.602216 100.323875 
L 113.700206 101.951107 
L 117.518788 103.229508 
L 121.151097 104.214742 
L 124.503998 104.901828 
L 127.670627 105.326019 
L 130.557847 105.493988 
L 133.258795 105.437088 
L 133.817612 105.489857 
L 134.748973 106.16605 
L 135.680335 106.581391 
L 136.704832 106.809279 
L 137.915602 106.844133 
L 139.312644 106.648509 
L 140.989094 106.169484 
L 142.944953 105.367629 
L 145.366493 104.11863 
L 148.346849 102.313752 
L 152.258567 99.6623 
L 163.807448 91.52168 
L 163.900584 37.314496 
L 163.99372 107.521619 
L 164.086856 107.301491 
L 164.459401 106.686139 
L 169.675024 99.45474 
L 172.096564 96.496603 
L 172.562245 96.087633 
L 173.40047 96.074012 
L 174.424967 95.823743 
L 175.728873 95.263144 
L 177.777868 94.105142 
L 182.248403 91.516063 
L 182.341539 37.314496 
L 182.434675 107.525246 
L 182.527811 107.309327 
L 183.738581 104.708966 
L 188.674796 99.719459 
L 190.910063 97.815469 
L 193.052195 96.283446 
L 195.10119 95.084568 
L 197.243321 94.084489 
L 199.571724 93.245789 
L 202.179536 92.546392 
L 205.346165 91.936424 
L 208.512793 91.491692 
L 208.605929 37.314496 
L 208.699065 107.570079 
L 208.792202 107.398319 
L 209.723563 105.860495 
L 211.679422 104.328766 
L 218.664632 98.63808 
L 221.086172 97.055537 
L 223.321439 95.851833 
L 223.693983 95.675658 
L 224.532209 96.360805 
L 225.46357 96.830836 
L 226.488067 97.094188 
L 227.698837 97.171765 
L 229.282152 97.037718 
L 231.796827 96.570108 
L 237.571268 95.454381 
L 239.620263 95.178104 
L 240.458488 96.171327 
L 241.389849 96.935088 
L 242.414347 97.471687 
L 243.53198 97.796487 
L 244.835886 97.936708 
L 246.512337 97.871688 
L 248.747604 97.542842 
L 253.218139 96.60155 
L 257.968082 95.693538 
L 261.414119 95.257965 
L 264.673883 95.066115 
L 268.026784 95.095354 
L 271.75223 95.357138 
L 277.340398 96.00533 
L 283.766791 96.694805 
L 288.051054 96.92369 
L 292.521588 96.932135 
L 299.041118 96.687891 
L 306.2126 96.483431 
L 311.055679 96.57843 
L 315.898758 96.902411 
L 316.736984 96.979578 
L 317.668345 98.217559 
L 318.599706 99.105596 
L 319.624204 99.789774 
L 320.834974 100.318424 
L 322.232016 100.674375 
L 324.001602 100.884071 
L 326.609414 100.944341 
L 338.344567 100.969935 
L 345.143505 101.379726 
L 352.687532 101.784236 
L 356.971795 101.788482 
L 360.790376 101.572497 
L 364.422685 101.147746 
L 368.148131 100.486202 
L 372.059849 99.560106 
L 376.344111 98.309614 
L 381.280326 96.629015 
L 395.530155 91.497256 
L 395.623291 37.314496 
L 395.716427 107.553645 
L 395.809563 107.365507 
L 397.392878 104.423703 
L 398.976192 101.924043 
L 400.559506 99.812206 
L 402.235957 97.948387 
L 403.912407 96.42235 
L 405.588858 95.194503 
L 407.265308 94.230114 
L 409.034895 93.463522 
L 410.897617 92.899316 
L 412.853476 92.535922 
L 414.995608 92.361045 
L 417.417147 92.385451 
L 420.397503 92.648314 
L 424.495493 93.252083 
L 437.255144 95.261073 
L 443.588401 95.95369 
L 449.083433 96.34033 
L 453.27456 96.417742 
L 456.720597 96.264047 
L 459.887225 95.899943 
L 462.960718 95.317715 
L 466.127346 94.484848 
L 469.759656 93.286102 
L 474.509599 91.502576 
L 474.602735 37.314496 
L 474.695871 107.546084 
L 474.789007 107.350262 
L 476.465458 104.090883 
L 478.141908 101.288574 
L 479.911495 98.762968 
L 480.377175 98.293049 
L 481.2154 98.270699 
L 482.239898 98.019852 
L 483.543804 97.465289 
L 485.499663 96.369098 
L 491.367239 92.951296 
L 493.881915 91.81213 
L 494.627004 91.522729 
L 494.72014 37.314496 
L 494.813276 107.543957 
L 494.906412 107.346447 
L 495.651502 106.007389 
L 501.612214 99.862204 
L 504.313162 97.455378 
L 505.151387 96.887969 
L 505.989613 97.135636 
L 506.920974 97.166576 
L 508.038608 96.957466 
L 509.342514 96.478099 
L 511.1121 95.571909 
L 513.719912 93.956564 
L 517.352221 91.522917 
L 517.445358 37.314496 
L 517.538494 107.513266 
L 517.63163 107.284842 
L 518.656127 105.063228 
L 522.567845 99.686295 
L 525.175657 96.257312 
L 526.013882 95.977442 
L 527.131516 95.341405 
L 528.528558 94.265674 
L 530.670689 92.295063 
L 531.415778 91.569666 
L 531.508914 37.314496 
L 531.60205 107.470534 
L 531.695186 107.199909 
L 532.626548 104.835829 
L 535.327496 99.932257 
L 537.376491 96.560205 
L 538.214716 96.004681 
L 538.214716 96.004681 
" clip-path="url(#p09f2f00c5c)" style="fill: none; stroke: #1f77b4; stroke-width: 1.5; stroke-linecap: square"/>
   </g>
   <g id="patch_3">
    <path d="M 49.25 111.265 
L 49.25 33.793043 
" style="fill: none; stroke: #000000; stroke-width: 0.8; stroke-linejoin: miter; stroke-linecap: square"/>
   </g>
   <g id="patch_4">
    <path d="M 561.49875 111.265 
L 561.49875 33.793043 
" style="fill: none; stroke: #000000; stroke-width: 0.8; stroke-linejoin: miter; stroke-linecap: square"/>
   </g>
   <g id="patch_5">
    <path d="M 49.25 111.265 
L 561.49875 111.265 
" style="fill: none; stroke: #000000; stroke-width: 0.8; stroke-linejoin: miter; stroke-linecap: square"/>
   </g>
   <g id="patch_6">
    <path d="M 49.25 33.793043 
L 561.49875 33.793043 
" style="fill: none; stroke: #000000; stroke-width: 0.8; stroke-linejoin: miter; stroke-linecap: square"/>
   </g>
  </g>
  <g id="axes_2">
   <g id="patch_7">
    <path d="M 49.25 203.71 
L 561.49875 203.71 
L 561.49875 126.238043 
L 49.25 126.238043 
L 49.25 203.71 
z
" style="fill: none"/>
   </g>
   <g id="matplotlib.axis_3">
    <g id="xtick_7">
     <g id="line2d_20">
      <path d="M 72.534034 203.71 
L 72.534034 126.238043 
" clip-path="url(#p3a3674c29b)" style="fill: none; stroke: #b0b0b0; stroke-width: 0.8; stroke-linecap: square"/>
     </g>
     <g id="line2d_21">
      <g>
       <use xlink:href="#m33311cc9b9" x="72.534034" y="203.71" style="stroke: #000000; stroke-width: 0.8"/>
      </g>
     </g>
    </g>
    <g id="xtick_8">
     <g id="line2d_22">
      <path d="M 165.67017 203.71 
L 165.67017 126.238043 
" clip-path="url(#p3a3674c29b)" style="fill: none; stroke: #b0b0b0; stroke-width: 0.8; stroke-linecap: square"/>
     </g>
     <g id="line2d_23">
      <g>
       <use xlink:href="#m33311cc9b9" x="165.67017" y="203.71" style="stroke: #000000; stroke-width: 0.8"/>
      </g>
     </g>
    </g>
    <g id="xtick_9">
     <g id="line2d_24">
      <path d="M 258.806307 203.71 
L 258.806307 126.238043 
" clip-path="url(#p3a3674c29b)" style="fill: none; stroke: #b0b0b0; stroke-width: 0.8; stroke-linecap: square"/>
     </g>
     <g id="line2d_25">
      <g>
       <use xlink:href="#m33311cc9b9" x="258.806307" y="203.71" style="stroke: #000000; stroke-width: 0.8"/>
      </g>
     </g>
    </g>
    <g id="xtick_10">
     <g id="line2d_26">
      <path d="M 351.942443 203.71 
L 351.942443 126.238043 
" clip-path="url(#p3a3674c29b)" style="fill: none; stroke: #b0b0b0; stroke-width: 0.8; stroke-linecap: square"/>
     </g>
     <g id="line2d_27">
      <g>
       <use xlink:href="#m33311cc9b9" x="351.942443" y="203.71" style="stroke: #000000; stroke-width: 0.8"/>
      </g>
     </g>
    </g>
    <g id="xtick_11">
     <g id="line2d_28">
      <path d="M 445.07858 203.71 
L 445.07858 126.238043 
" clip-path="url(#p3a3674c29b)" style="fill: none; stroke: #b0b0b0; stroke-width: 0.8; stroke-linecap: square"/>
     </g>
     <g id="line2d_29">
      <g>
       <use xlink:href="#m33311cc9b9" x="445.07858" y="203.71" style="stroke: #000000; stroke-width: 0.8"/>
      </g>
     </g>
    </g>
    <g id="xtick_12">
     <g id="line2d_30">
      <path d="M 538.214716 203.71 
L 538.214716 126.238043 
" clip-path="url(#p3a3674c29b)" style="fill: none; stroke: #b0b0b0; stroke-width: 0.8; stroke-linecap: square"/>
     </g>
     <g id="line2d_31">
      <g>
       <use xlink:href="#m33311cc9b9" x="538.214716" y="203.71" style="stroke: #000000; stroke-width: 0.8"/>
      </g>
     </g>
    </g>
   </g>
   <g id="matplotlib.axis_4">
    <g id="ytick_4">
     <g id="line2d_32">
      <path d="M 49.25 183.935689 
L 561.49875 183.935689 
" clip-path="url(#p3a3674c29b)" style="fill: none; stroke: #b0b0b0; stroke-width: 0.8; stroke-linecap: square"/>
     </g>
     <g id="line2d_33">
      <g>
       <use xlink:href="#me573e2c8a9" x="49.25" y="183.935689" style="stroke: #000000; stroke-width: 0.8"/>
      </g>
     </g>
     <g id="text_5">
      <!-- −50 -->
      <g transform="translate(21.145312 187.734908) scale(0.1 -0.1)">
       <use xlink:href="#DejaVuSans-2212"/>
       <use xlink:href="#DejaVuSans-35" transform="translate(83.789062 0)"/>
       <use xlink:href="#DejaVuSans-30" transform="translate(147.412109 0)"/>
      </g>
     </g>
    </g>
    <g id="ytick_5">
     <g id="line2d_34">
      <path d="M 49.25 156.847593 
L 561.49875 156.847593 
" clip-path="url(#p3a3674c29b)" style="fill: none; stroke: #b0b0b0; stroke-width: 0.8; stroke-linecap: square"/>
     </g>
     <g id="line2d_35">
      <g>
       <use xlink:href="#me573e2c8a9" x="49.25" y="156.847593" style="stroke: #000000; stroke-width: 0.8"/>
      </g>
     </g>
     <g id="text_6">
      <!-- −25 -->
      <g transform="translate(21.145312 160.646811) scale(0.1 -0.1)">
       <use xlink:href="#DejaVuSans-2212"/>
       <use xlink:href="#DejaVuSans-32" transform="translate(83.789062 0)"/>
       <use xlink:href="#DejaVuSans-35" transform="translate(147.412109 0)"/>
      </g>
     </g>
    </g>
    <g id="ytick_6">
     <g id="line2d_36">
      <path d="M 49.25 129.759496 
L 561.49875 129.759496 
" clip-path="url(#p3a3674c29b)" style="fill: none; stroke: #b0b0b0; stroke-width: 0.8; stroke-linecap: square"/>
     </g>
     <g id="line2d_37">
      <g>
       <use xlink:href="#me573e2c8a9" x="49.25" y="129.759496" style="stroke: #000000; stroke-width: 0.8"/>
      </g>
     </g>
     <g id="text_7">
      <!-- 0 -->
      <g transform="translate(35.8875 133.558715) scale(0.1 -0.1)">
       <use xlink:href="#DejaVuSans-30"/>
      </g>
     </g>
    </g>
    <g id="text_8">
     <!-- V_B (mV) -->
     <g transform="translate(14.7875 188.106053) rotate(-90) scale(0.1 -0.1)">
      <defs>
       <path id="DejaVuSans-42" d="M 1259 2228 
L 1259 519 
L 2272 519 
Q 2781 519 3026 730 
Q 3272 941 3272 1375 
Q 3272 1813 3026 2020 
Q 2781 2228 2272 2228 
L 1259 2228 
z
M 1259 4147 
L 1259 2741 
L 2194 2741 
Q 2656 2741 2882 2914 
Q 3109 3088 3109 3444 
Q 3109 3797 2882 3972 
Q 2656 4147 2194 4147 
L 1259 4147 
z
M 628 4666 
L 2241 4666 
Q 2963 4666 3353 4366 
Q 3744 4066 3744 3513 
Q 3744 3084 3544 2831 
Q 3344 2578 2956 2516 
Q 3422 2416 3680 2098 
Q 3938 1781 3938 1306 
Q 3938 681 3513 340 
Q 3088 0 2303 0 
L 628 0 
L 628 4666 
z
" transform="scale(0.015625)"/>
      </defs>
      <use xlink:href="#DejaVuSans-56"/>
      <use xlink:href="#DejaVuSans-5f" transform="translate(68.408203 0)"/>
      <use xlink:href="#DejaVuSans-42" transform="translate(118.408203 0)"/>
      <use xlink:href="#DejaVuSans-20" transform="translate(187.011719 0)"/>
      <use xlink:href="#DejaVuSans-28" transform="translate(218.798828 0)"/>
      <use xlink:href="#DejaVuSans-6d" transform="translate(257.8125 0)"/>
      <use xlink:href="#DejaVuSans-56" transform="translate(355.224609 0)"/>
      <use xlink:href="#DejaVuSans-29" transform="translate(423.632812 0)"/>
     </g>
    </g>
   </g>
   <g id="line2d_38">
    <path d="M 72.534034 200.188547 
L 74.583029 198.942142 
L 77.004569 197.737706 
L 80.264333 196.385834 
L 103.827776 187.399712 
L 107.180677 186.479082 
L 110.347305 185.83587 
L 113.700206 185.38251 
L 117.798196 185.067689 
L 130.930392 184.235513 
L 133.63134 183.93739 
L 133.724476 129.759496 
L 133.817612 200.015937 
L 133.910748 199.844918 
L 135.587198 197.022882 
L 137.263649 194.636788 
L 138.940099 192.62489 
L 140.709686 190.852025 
L 142.479273 189.392197 
L 144.341995 188.149271 
L 146.204718 187.167844 
L 148.160577 186.379553 
L 150.302708 185.755973 
L 152.724247 185.294325 
L 155.518332 184.998987 
L 159.336913 184.841533 
L 163.807448 184.769613 
L 164.086856 183.973054 
L 164.179992 129.759496 
L 164.273128 199.710908 
L 164.366265 199.246513 
L 165.297626 195.248663 
L 166.228987 192.208097 
L 167.160349 189.884076 
L 168.09171 188.101918 
L 169.116207 186.614708 
L 170.140705 185.50143 
L 171.258339 184.604646 
L 172.375972 183.953926 
L 172.469108 129.759496 
L 172.562245 199.97019 
L 172.655381 199.755134 
L 173.959287 197.058481 
L 175.263193 194.856094 
L 176.660235 192.92577 
L 178.150413 191.253549 
L 179.733727 189.824801 
L 181.410177 188.626105 
L 182.248403 188.128747 
L 183.086628 185.471125 
L 183.645445 184.094222 
L 183.738581 129.759496 
L 183.831717 199.771532 
L 183.924853 199.36532 
L 184.856215 195.835758 
L 185.787576 193.109587 
L 186.718937 191.001273 
L 187.743435 189.232867 
L 188.767932 187.910551 
L 189.79243 186.93332 
L 190.910063 186.1715 
L 192.120833 185.620662 
L 193.424739 185.267333 
L 195.008053 185.080171 
L 196.963912 185.095404 
L 199.571724 185.358337 
L 208.512793 186.48622 
L 209.351018 184.334381 
L 209.537291 183.94369 
L 209.630427 129.759496 
L 209.723563 199.783173 
L 209.816699 199.38867 
L 210.74806 195.975859 
L 211.679422 193.35549 
L 212.703919 191.155704 
L 213.728417 189.488259 
L 214.84605 188.11535 
L 215.963684 187.082183 
L 217.26759 186.181697 
L 218.757768 185.426607 
L 220.620491 184.739174 
L 223.228303 184.030351 
L 223.600847 183.942337 
L 223.693983 129.759496 
L 223.78712 200.002142 
L 223.880256 199.817586 
L 225.46357 196.940973 
L 227.14002 194.358135 
L 228.909607 192.049745 
L 230.77233 189.997945 
L 232.728189 188.187408 
L 234.684048 186.672312 
L 236.733043 185.356497 
L 238.875174 184.241337 
L 239.527127 183.950471 
L 239.620263 129.759496 
L 239.713399 199.987145 
L 239.806535 199.787796 
L 241.296713 196.863348 
L 242.786891 194.39424 
L 244.27707 192.324564 
L 245.860384 190.510057 
L 247.443698 189.044383 
L 249.027013 187.886297 
L 250.610327 186.999855 
L 252.286777 186.322288 
L 253.963228 185.880157 
L 255.82595 185.627407 
L 257.781809 185.589769 
L 260.017077 185.776093 
L 262.718025 186.239198 
L 266.722878 187.185392 
L 272.404183 188.504752 
L 275.570811 189.003829 
L 278.458032 189.238335 
L 281.345252 189.250977 
L 284.51188 189.033122 
L 288.237326 188.542163 
L 294.663719 187.424794 
L 302.859699 186.074768 
L 316.643847 183.936352 
L 316.736984 129.759496 
L 316.83012 200.01188 
L 316.923256 199.836857 
L 318.50657 197.099337 
L 320.183021 194.644284 
L 321.859471 192.585961 
L 323.535922 190.876252 
L 325.212372 189.477224 
L 326.888823 188.358316 
L 328.565273 187.494045 
L 330.33486 186.833699 
L 332.104446 186.409083 
L 333.967169 186.191557 
L 335.923028 186.187187 
L 338.065159 186.407367 
L 340.486698 186.882955 
L 343.560191 187.726419 
L 353.991438 190.792218 
L 356.878658 191.292965 
L 359.579606 191.538798 
L 362.37369 191.566117 
L 365.447183 191.362 
L 369.358901 190.856393 
L 377.554881 189.732353 
L 380.907782 189.539981 
L 384.167546 189.576402 
L 387.799856 189.844934 
L 395.064474 190.681995 
L 395.530155 190.730659 
L 396.36838 188.439881 
L 397.206605 186.804511 
L 398.044831 185.663589 
L 398.883056 184.897467 
L 399.721281 184.415837 
L 400.652642 184.131061 
L 401.770276 184.040708 
L 403.074182 184.168452 
L 404.936905 184.601127 
L 409.128031 185.894313 
L 413.039749 186.972373 
L 417.137739 187.857047 
L 431.108159 190.666468 
L 437.068872 192.249075 
L 446.75503 194.842264 
L 450.85302 195.681955 
L 454.392193 196.181334 
L 457.651958 196.415908 
L 460.72545 196.414198 
L 463.705807 196.19003 
L 466.686163 195.738127 
L 469.66652 195.058712 
L 472.833148 194.102144 
L 474.509599 193.508564 
L 475.347824 190.718811 
L 476.186049 188.621989 
L 477.11741 186.898277 
L 478.048772 185.648574 
L 478.980133 184.748441 
L 480.004631 184.053657 
L 480.190903 183.953519 
L 480.284039 129.759496 
L 480.377175 199.957719 
L 480.470311 199.731062 
L 481.681081 197.12319 
L 482.891851 195.029588 
L 484.195757 193.203991 
L 485.592799 191.617751 
L 487.176113 190.165022 
L 488.852564 188.926328 
L 490.715286 187.823856 
L 492.764281 186.869995 
L 494.627004 186.192424 
L 495.372093 184.009579 
L 495.465229 129.759496 
L 495.558365 199.732043 
L 495.651502 199.287759 
L 496.582863 195.443991 
L 497.514224 192.495798 
L 498.445586 190.227187 
L 499.470083 188.329022 
L 500.494581 186.907379 
L 501.519078 185.847828 
L 502.636712 185.004592 
L 503.847482 184.365633 
L 504.965115 183.962296 
L 505.058251 129.759496 
L 505.151387 199.992157 
L 505.244524 199.798564 
L 506.54843 197.355812 
L 507.945472 195.205009 
L 509.43565 193.320504 
L 511.018964 191.669098 
L 512.788551 190.13847 
L 514.837546 188.657852 
L 517.352221 187.11558 
L 518.190447 184.439949 
L 518.376719 183.939946 
L 518.469855 129.759496 
L 518.562991 199.729128 
L 518.656127 199.281133 
L 519.587489 195.360679 
L 520.611986 192.003262 
L 521.636484 189.388021 
L 522.754117 187.158172 
L 523.871751 185.407303 
L 524.989385 184.008767 
L 525.082521 129.759496 
L 525.175657 199.909523 
L 525.268793 199.634434 
L 526.572699 196.156329 
L 527.969741 193.071548 
L 529.459919 190.341387 
L 530.950097 188.059177 
L 531.415778 187.422191 
L 532.254003 184.238674 
L 532.347139 129.759496 
L 532.440275 199.663932 
L 532.533412 199.152076 
L 533.464773 194.660015 
L 534.48927 190.794604 
L 535.513768 187.775753 
L 536.538265 185.397172 
L 537.283355 183.982987 
L 537.376491 129.759496 
L 537.469627 199.845974 
L 537.562763 199.509151 
L 538.214716 197.302954 
L 538.214716 197.302954 
" clip-path="url(#p3a3674c29b)" style="fill: none; stroke: #1f77b4; stroke-width: 1.5; stroke-linecap: square"/>
   </g>
   <g id="patch_8">
    <path d="M 49.25 203.71 
L 49.25 126.238043 
" style="fill: none; stroke: #000000; stroke-width: 0.8; stroke-linejoin: miter; stroke-linecap: square"/>
   </g>
   <g id="patch_9">
    <path d="M 561.49875 203.71 
L 561.49875 126.238043 
" style="fill: none; stroke: #000000; stroke-width: 0.8; stroke-linejoin: miter; stroke-linecap: square"/>
   </g>
   <g id="patch_10">
    <path d="M 49.25 203.71 
L 561.49875 203.71 
" style="fill: none; stroke: #000000; stroke-width: 0.8; stroke-linejoin: miter; stroke-linecap: square"/>
   </g>
   <g id="patch_11">
    <path d="M 49.25 126.238043 
L 561.49875 126.238043 
" style="fill: none; stroke: #000000; stroke-width: 0.8; stroke-linejoin: miter; stroke-linecap: square"/>
   </g>
  </g>
  <g id="axes_3">
   <g id="patch_12">
    <path d="M 49.25 296.155 
L 561.49875 296.155 
L 561.49875 218.683043 
L 49.25 218.683043 
L 49.25 296.155 
z
" style="fill: none"/>
   </g>
   <g id="matplotlib.axis_5">
    <g id="xtick_13">
     <g id="line2d_39">
      <path d="M 72.534034 296.155 
L 72.534034 218.683043 
" clip-path="url(#p46550c36af)" style="fill: none; stroke: #b0b0b0; stroke-width: 0.8; stroke-linecap: square"/>
     </g>
     <g id="line2d_40">
      <g>
       <use xlink:href="#m33311cc9b9" x="72.534034" y="296.155" style="stroke: #000000; stroke-width: 0.8"/>
      </g>
     </g>
    </g>
    <g id="xtick_14">
     <g id="line2d_41">
      <path d="M 165.67017 296.155 
L 165.67017 218.683043 
" clip-path="url(#p46550c36af)" style="fill: none; stroke: #b0b0b0; stroke-width: 0.8; stroke-linecap: square"/>
     </g>
     <g id="line2d_42">
      <g>
       <use xlink:href="#m33311cc9b9" x="165.67017" y="296.155" style="stroke: #000000; stroke-width: 0.8"/>
      </g>
     </g>
    </g>
    <g id="xtick_15">
     <g id="line2d_43">
      <path d="M 258.806307 296.155 
L 258.806307 218.683043 
" clip-path="url(#p46550c36af)" style="fill: none; stroke: #b0b0b0; stroke-width: 0.8; stroke-linecap: square"/>
     </g>
     <g id="line2d_44">
      <g>
       <use xlink:href="#m33311cc9b9" x="258.806307" y="296.155" style="stroke: #000000; stroke-width: 0.8"/>
      </g>
     </g>
    </g>
    <g id="xtick_16">
     <g id="line2d_45">
      <path d="M 351.942443 296.155 
L 351.942443 218.683043 
" clip-path="url(#p46550c36af)" style="fill: none; stroke: #b0b0b0; stroke-width: 0.8; stroke-linecap: square"/>
     </g>
     <g id="line2d_46">
      <g>
       <use xlink:href="#m33311cc9b9" x="351.942443" y="296.155" style="stroke: #000000; stroke-width: 0.8"/>
      </g>
     </g>
    </g>
    <g id="xtick_17">
     <g id="line2d_47">
      <path d="M 445.07858 296.155 
L 445.07858 218.683043 
" clip-path="url(#p46550c36af)" style="fill: none; stroke: #b0b0b0; stroke-width: 0.8; stroke-linecap: square"/>
     </g>
     <g id="line2d_48">
      <g>
       <use xlink:href="#m33311cc9b9" x="445.07858" y="296.155" style="stroke: #000000; stroke-width: 0.8"/>
      </g>
     </g>
    </g>
    <g id="xtick_18">
     <g id="line2d_49">
      <path d="M 538.214716 296.155 
L 538.214716 218.683043 
" clip-path="url(#p46550c36af)" style="fill: none; stroke: #b0b0b0; stroke-width: 0.8; stroke-linecap: square"/>
     </g>
     <g id="line2d_50">
      <g>
       <use xlink:href="#m33311cc9b9" x="538.214716" y="296.155" style="stroke: #000000; stroke-width: 0.8"/>
      </g>
     </g>
    </g>
   </g>
   <g id="matplotlib.axis_6">
    <g id="ytick_7">
     <g id="line2d_51">
      <path d="M 49.25 292.633547 
L 561.49875 292.633547 
" clip-path="url(#p46550c36af)" style="fill: none; stroke: #b0b0b0; stroke-width: 0.8; stroke-linecap: square"/>
     </g>
     <g id="line2d_52">
      <g>
       <use xlink:href="#me573e2c8a9" x="49.25" y="292.633547" style="stroke: #000000; stroke-width: 0.8"/>
      </g>
     </g>
     <g id="text_9">
      <!-- 0.0 -->
      <g transform="translate(26.346875 296.432766) scale(0.1 -0.1)">
       <defs>
        <path id="DejaVuSans-2e" d="M 684 794 
L 1344 794 
L 1344 0 
L 684 0 
L 684 794 
z
" transform="scale(0.015625)"/>
       </defs>
       <use xlink:href="#DejaVuSans-30"/>
       <use xlink:href="#DejaVuSans-2e" transform="translate(63.623047 0)"/>
       <use xlink:href="#DejaVuSans-30" transform="translate(95.410156 0)"/>
      </g>
     </g>
    </g>
    <g id="ytick_8">
     <g id="line2d_53">
      <path d="M 49.25 257.419022 
L 561.49875 257.419022 
" clip-path="url(#p46550c36af)" style="fill: none; stroke: #b0b0b0; stroke-width: 0.8; stroke-linecap: square"/>
     </g>
     <g id="line2d_54">
      <g>
       <use xlink:href="#me573e2c8a9" x="49.25" y="257.419022" style="stroke: #000000; stroke-width: 0.8"/>
      </g>
     </g>
     <g id="text_10">
      <!-- 0.5 -->
      <g transform="translate(26.346875 261.21824) scale(0.1 -0.1)">
       <use xlink:href="#DejaVuSans-30"/>
       <use xlink:href="#DejaVuSans-2e" transform="translate(63.623047 0)"/>
       <use xlink:href="#DejaVuSans-35" transform="translate(95.410156 0)"/>
      </g>
     </g>
    </g>
    <g id="ytick_9">
     <g id="line2d_55">
      <path d="M 49.25 222.204496 
L 561.49875 222.204496 
" clip-path="url(#p46550c36af)" style="fill: none; stroke: #b0b0b0; stroke-width: 0.8; stroke-linecap: square"/>
     </g>
     <g id="line2d_56">
      <g>
       <use xlink:href="#me573e2c8a9" x="49.25" y="222.204496" style="stroke: #000000; stroke-width: 0.8"/>
      </g>
     </g>
     <g id="text_11">
      <!-- 1.0 -->
      <g transform="translate(26.346875 226.003715) scale(0.1 -0.1)">
       <defs>
        <path id="DejaVuSans-31" d="M 794 531 
L 1825 531 
L 1825 4091 
L 703 3866 
L 703 4441 
L 1819 4666 
L 2450 4666 
L 2450 531 
L 3481 531 
L 3481 0 
L 794 0 
L 794 531 
z
" transform="scale(0.015625)"/>
       </defs>
       <use xlink:href="#DejaVuSans-31"/>
       <use xlink:href="#DejaVuSans-2e" transform="translate(63.623047 0)"/>
       <use xlink:href="#DejaVuSans-30" transform="translate(95.410156 0)"/>
      </g>
     </g>
    </g>
    <g id="text_12">
     <!-- P_s (A to B) -->
     <g transform="translate(19.989062 286.077615) rotate(-90) scale(0.1 -0.1)">
      <defs>
       <path id="DejaVuSans-50" d="M 1259 4147 
L 1259 2394 
L 2053 2394 
Q 2494 2394 2734 2622 
Q 2975 2850 2975 3272 
Q 2975 3691 2734 3919 
Q 2494 4147 2053 4147 
L 1259 4147 
z
M 628 4666 
L 2053 4666 
Q 2838 4666 3239 4311 
Q 3641 3956 3641 3272 
Q 3641 2581 3239 2228 
Q 2838 1875 2053 1875 
L 1259 1875 
L 1259 0 
L 628 0 
L 628 4666 
z
" transform="scale(0.015625)"/>
       <path id="DejaVuSans-73" d="M 2834 3397 
L 2834 2853 
Q 2591 2978 2328 3040 
Q 2066 3103 1784 3103 
Q 1356 3103 1142 2972 
Q 928 2841 928 2578 
Q 928 2378 1081 2264 
Q 1234 2150 1697 2047 
L 1894 2003 
Q 2506 1872 2764 1633 
Q 3022 1394 3022 966 
Q 3022 478 2636 193 
Q 2250 -91 1575 -91 
Q 1294 -91 989 -36 
Q 684 19 347 128 
L 347 722 
Q 666 556 975 473 
Q 1284 391 1588 391 
Q 1994 391 2212 530 
Q 2431 669 2431 922 
Q 2431 1156 2273 1281 
Q 2116 1406 1581 1522 
L 1381 1569 
Q 847 1681 609 1914 
Q 372 2147 372 2553 
Q 372 3047 722 3315 
Q 1072 3584 1716 3584 
Q 2034 3584 2315 3537 
Q 2597 3491 2834 3397 
z
" transform="scale(0.015625)"/>
       <path id="DejaVuSans-74" d="M 1172 4494 
L 1172 3500 
L 2356 3500 
L 2356 3053 
L 1172 3053 
L 1172 1153 
Q 1172 725 1289 603 
Q 1406 481 1766 481 
L 2356 481 
L 2356 0 
L 1766 0 
Q 1100 0 847 248 
Q 594 497 594 1153 
L 594 3053 
L 172 3053 
L 172 3500 
L 594 3500 
L 594 4494 
L 1172 4494 
z
" transform="scale(0.015625)"/>
       <path id="DejaVuSans-6f" d="M 1959 3097 
Q 1497 3097 1228 2736 
Q 959 2375 959 1747 
Q 959 1119 1226 758 
Q 1494 397 1959 397 
Q 2419 397 2687 759 
Q 2956 1122 2956 1747 
Q 2956 2369 2687 2733 
Q 2419 3097 1959 3097 
z
M 1959 3584 
Q 2709 3584 3137 3096 
Q 3566 2609 3566 1747 
Q 3566 888 3137 398 
Q 2709 -91 1959 -91 
Q 1206 -91 779 398 
Q 353 888 353 1747 
Q 353 2609 779 3096 
Q 1206 3584 1959 3584 
z
" transform="scale(0.015625)"/>
      </defs>
      <use xlink:href="#DejaVuSans-50"/>
      <use xlink:href="#DejaVuSans-5f" transform="translate(60.302734 0)"/>
      <use xlink:href="#DejaVuSans-73" transform="translate(110.302734 0)"/>
      <use xlink:href="#DejaVuSans-20" transform="translate(162.402344 0)"/>
      <use xlink:href="#DejaVuSans-28" transform="translate(194.189453 0)"/>
      <use xlink:href="#DejaVuSans-41" transform="translate(233.203125 0)"/>
      <use xlink:href="#DejaVuSans-20" transform="translate(301.611328 0)"/>
      <use xlink:href="#DejaVuSans-74" transform="translate(333.398438 0)"/>
      <use xlink:href="#DejaVuSans-6f" transform="translate(372.607422 0)"/>
      <use xlink:href="#DejaVuSans-20" transform="translate(433.789062 0)"/>
      <use xlink:href="#DejaVuSans-42" transform="translate(465.576172 0)"/>
      <use xlink:href="#DejaVuSans-29" transform="translate(534.179688 0)"/>
     </g>
    </g>
   </g>
   <g id="line2d_57">
    <path d="M 72.534034 292.633547 
L 163.807448 292.633547 
L 163.900584 222.204496 
L 163.99372 223.613077 
L 165.018217 237.366693 
L 166.042715 248.379644 
L 167.067212 257.19806 
L 168.09171 264.259242 
L 169.116207 269.913351 
L 170.140705 274.440774 
L 171.165202 278.066023 
L 172.282836 281.202168 
L 173.40047 283.663153 
L 174.518103 285.594329 
L 175.635737 287.109755 
L 176.846507 288.385627 
L 178.150413 289.432137 
L 179.547455 290.269084 
L 181.130769 290.956382 
L 182.248403 291.317448 
L 182.341539 222.204496 
L 182.434675 223.613077 
L 183.459172 237.366693 
L 184.48367 248.379644 
L 185.508168 257.19806 
L 186.532665 264.259242 
L 187.557163 269.913351 
L 188.58166 274.440774 
L 189.606157 278.066023 
L 190.723791 281.202168 
L 191.841425 283.663153 
L 192.959058 285.594329 
L 194.076692 287.109755 
L 195.287462 288.385627 
L 196.591368 289.432137 
L 197.98841 290.269084 
L 199.571724 290.956382 
L 201.434447 291.513859 
L 203.669714 291.944065 
L 206.556934 292.264968 
L 208.512793 292.392402 
L 208.605929 222.204496 
L 208.699065 223.613077 
L 209.723563 237.366693 
L 210.74806 248.379644 
L 211.772558 257.19806 
L 212.797055 264.259242 
L 213.821553 269.913351 
L 214.84605 274.440774 
L 215.870548 278.066023 
L 216.988182 281.202168 
L 218.105815 283.663153 
L 219.223449 285.594329 
L 220.341083 287.109755 
L 221.551852 288.385627 
L 222.855758 289.432137 
L 224.2528 290.269084 
L 225.836115 290.956382 
L 227.698837 291.513859 
L 229.934105 291.944065 
L 232.821325 292.264968 
L 236.919315 292.482024 
L 243.904525 292.600248 
L 264.02193 292.633124 
L 395.530155 292.633547 
L 395.623291 222.204496 
L 395.716427 223.613077 
L 396.740925 237.366693 
L 397.765422 248.379644 
L 398.78992 257.19806 
L 399.814417 264.259242 
L 400.838915 269.913351 
L 401.863412 274.440774 
L 402.88791 278.066023 
L 404.005543 281.202168 
L 405.123177 283.663153 
L 406.240811 285.594329 
L 407.358444 287.109755 
L 408.569214 288.385627 
L 409.87312 289.432137 
L 411.270162 290.269084 
L 412.853476 290.956382 
L 414.716199 291.513859 
L 416.951466 291.944065 
L 419.838687 292.264968 
L 423.936677 292.482024 
L 430.921887 292.600248 
L 451.039292 292.633124 
L 474.509599 292.633545 
L 474.602735 222.204496 
L 474.695871 223.613077 
L 475.720368 237.366693 
L 476.744866 248.379644 
L 477.769363 257.19806 
L 478.793861 264.259242 
L 479.818358 269.913351 
L 480.842856 274.440774 
L 481.867353 278.066023 
L 482.984987 281.202168 
L 484.102621 283.663153 
L 485.220254 285.594329 
L 486.337888 287.109755 
L 487.548658 288.385627 
L 488.852564 289.432137 
L 490.249606 290.269084 
L 491.83292 290.956382 
L 493.695643 291.513859 
L 494.627004 291.71868 
L 494.72014 222.204496 
L 494.813276 223.613077 
L 495.837774 237.366693 
L 496.862271 248.379644 
L 497.886769 257.19806 
L 498.911266 264.259242 
L 499.935764 269.913351 
L 500.960261 274.440774 
L 501.984759 278.066023 
L 503.102392 281.202168 
L 504.220026 283.663153 
L 505.33766 285.594329 
L 506.455293 287.109755 
L 507.666063 288.385627 
L 508.969969 289.432137 
L 510.367011 290.269084 
L 511.950325 290.956382 
L 513.813048 291.513859 
L 516.048315 291.944065 
L 517.352221 292.113925 
L 517.445358 222.204496 
L 517.538494 223.613077 
L 518.562991 237.366693 
L 519.587489 248.379644 
L 520.611986 257.19806 
L 521.636484 264.259242 
L 522.660981 269.913351 
L 523.685479 274.440774 
L 524.709976 278.066023 
L 525.82761 281.202168 
L 526.945243 283.663153 
L 528.062877 285.594329 
L 529.180511 287.109755 
L 530.39128 288.385627 
L 531.415778 289.232104 
L 531.508914 222.204496 
L 531.60205 223.613077 
L 532.626548 237.366693 
L 533.651045 248.379644 
L 534.675543 257.19806 
L 535.70004 264.259242 
L 536.724538 269.913351 
L 537.749035 274.440774 
L 538.214716 276.188721 
L 538.214716 276.188721 
" clip-path="url(#p46550c36af)" style="fill: none; stroke: #1f77b4; stroke-width: 1.5; stroke-linecap: square"/>
   </g>
   <g id="patch_13">
    <path d="M 49.25 296.155 
L 49.25 218.683043 
" style="fill: none; stroke: #000000; stroke-width: 0.8; stroke-linejoin: miter; stroke-linecap: square"/>
   </g>
   <g id="patch_14">
    <path d="M 561.49875 296.155 
L 561.49875 218.683043 
" style="fill: none; stroke: #000000; stroke-width: 0.8; stroke-linejoin: miter; stroke-linecap: square"/>
   </g>
   <g id="patch_15">
    <path d="M 49.25 296.155 
L 561.49875 296.155 
" style="fill: none; stroke: #000000; stroke-width: 0.8; stroke-linejoin: miter; stroke-linecap: square"/>
   </g>
   <g id="patch_16">
    <path d="M 49.25 218.683043 
L 561.49875 218.683043 
" style="fill: none; stroke: #000000; stroke-width: 0.8; stroke-linejoin: miter; stroke-linecap: square"/>
   </g>
  </g>
  <g id="axes_4">
   <g id="patch_17">
    <path d="M 49.25 388.6 
L 561.49875 388.6 
L 561.49875 311.128043 
L 49.25 311.128043 
L 49.25 388.6 
z
" style="fill: none"/>
   </g>
   <g id="matplotlib.axis_7">
    <g id="xtick_19">
     <g id="line2d_58">
      <path d="M 72.534034 388.6 
L 72.534034 311.128043 
" clip-path="url(#p3563e903f7)" style="fill: none; stroke: #b0b0b0; stroke-width: 0.8; stroke-linecap: square"/>
     </g>
     <g id="line2d_59">
      <g>
       <use xlink:href="#m33311cc9b9" x="72.534034" y="388.6" style="stroke: #000000; stroke-width: 0.8"/>
      </g>
     </g>
     <g id="text_13">
      <!-- 0 -->
      <g transform="translate(69.352784 403.198437) scale(0.1 -0.1)">
       <use xlink:href="#DejaVuSans-30"/>
      </g>
     </g>
    </g>
    <g id="xtick_20">
     <g id="line2d_60">
      <path d="M 165.67017 388.6 
L 165.67017 311.128043 
" clip-path="url(#p3563e903f7)" style="fill: none; stroke: #b0b0b0; stroke-width: 0.8; stroke-linecap: square"/>
     </g>
     <g id="line2d_61">
      <g>
       <use xlink:href="#m33311cc9b9" x="165.67017" y="388.6" style="stroke: #000000; stroke-width: 0.8"/>
      </g>
     </g>
     <g id="text_14">
      <!-- 100 -->
      <g transform="translate(156.12642 403.198437) scale(0.1 -0.1)">
       <use xlink:href="#DejaVuSans-31"/>
       <use xlink:href="#DejaVuSans-30" transform="translate(63.623047 0)"/>
       <use xlink:href="#DejaVuSans-30" transform="translate(127.246094 0)"/>
      </g>
     </g>
    </g>
    <g id="xtick_21">
     <g id="line2d_62">
      <path d="M 258.806307 388.6 
L 258.806307 311.128043 
" clip-path="url(#p3563e903f7)" style="fill: none; stroke: #b0b0b0; stroke-width: 0.8; stroke-linecap: square"/>
     </g>
     <g id="line2d_63">
      <g>
       <use xlink:href="#m33311cc9b9" x="258.806307" y="388.6" style="stroke: #000000; stroke-width: 0.8"/>
      </g>
     </g>
     <g id="text_15">
      <!-- 200 -->
      <g transform="translate(249.262557 403.198437) scale(0.1 -0.1)">
       <use xlink:href="#DejaVuSans-32"/>
       <use xlink:href="#DejaVuSans-30" transform="translate(63.623047 0)"/>
       <use xlink:href="#DejaVuSans-30" transform="translate(127.246094 0)"/>
      </g>
     </g>
    </g>
    <g id="xtick_22">
     <g id="line2d_64">
      <path d="M 351.942443 388.6 
L 351.942443 311.128043 
" clip-path="url(#p3563e903f7)" style="fill: none; stroke: #b0b0b0; stroke-width: 0.8; stroke-linecap: square"/>
     </g>
     <g id="line2d_65">
      <g>
       <use xlink:href="#m33311cc9b9" x="351.942443" y="388.6" style="stroke: #000000; stroke-width: 0.8"/>
      </g>
     </g>
     <g id="text_16">
      <!-- 300 -->
      <g transform="translate(342.398693 403.198437) scale(0.1 -0.1)">
       <defs>
        <path id="DejaVuSans-33" d="M 2597 2516 
Q 3050 2419 3304 2112 
Q 3559 1806 3559 1356 
Q 3559 666 3084 287 
Q 2609 -91 1734 -91 
Q 1441 -91 1130 -33 
Q 819 25 488 141 
L 488 750 
Q 750 597 1062 519 
Q 1375 441 1716 441 
Q 2309 441 2620 675 
Q 2931 909 2931 1356 
Q 2931 1769 2642 2001 
Q 2353 2234 1838 2234 
L 1294 2234 
L 1294 2753 
L 1863 2753 
Q 2328 2753 2575 2939 
Q 2822 3125 2822 3475 
Q 2822 3834 2567 4026 
Q 2313 4219 1838 4219 
Q 1578 4219 1281 4162 
Q 984 4106 628 3988 
L 628 4550 
Q 988 4650 1302 4700 
Q 1616 4750 1894 4750 
Q 2613 4750 3031 4423 
Q 3450 4097 3450 3541 
Q 3450 3153 3228 2886 
Q 3006 2619 2597 2516 
z
" transform="scale(0.015625)"/>
       </defs>
       <use xlink:href="#DejaVuSans-33"/>
       <use xlink:href="#DejaVuSans-30" transform="translate(63.623047 0)"/>
       <use xlink:href="#DejaVuSans-30" transform="translate(127.246094 0)"/>
      </g>
     </g>
    </g>
    <g id="xtick_23">
     <g id="line2d_66">
      <path d="M 445.07858 388.6 
L 445.07858 311.128043 
" clip-path="url(#p3563e903f7)" style="fill: none; stroke: #b0b0b0; stroke-width: 0.8; stroke-linecap: square"/>
     </g>
     <g id="line2d_67">
      <g>
       <use xlink:href="#m33311cc9b9" x="445.07858" y="388.6" style="stroke: #000000; stroke-width: 0.8"/>
      </g>
     </g>
     <g id="text_17">
      <!-- 400 -->
      <g transform="translate(435.53483 403.198437) scale(0.1 -0.1)">
       <defs>
        <path id="DejaVuSans-34" d="M 2419 4116 
L 825 1625 
L 2419 1625 
L 2419 4116 
z
M 2253 4666 
L 3047 4666 
L 3047 1625 
L 3713 1625 
L 3713 1100 
L 3047 1100 
L 3047 0 
L 2419 0 
L 2419 1100 
L 313 1100 
L 313 1709 
L 2253 4666 
z
" transform="scale(0.015625)"/>
       </defs>
       <use xlink:href="#DejaVuSans-34"/>
       <use xlink:href="#DejaVuSans-30" transform="translate(63.623047 0)"/>
       <use xlink:href="#DejaVuSans-30" transform="translate(127.246094 0)"/>
      </g>
     </g>
    </g>
    <g id="xtick_24">
     <g id="line2d_68">
      <path d="M 538.214716 388.6 
L 538.214716 311.128043 
" clip-path="url(#p3563e903f7)" style="fill: none; stroke: #b0b0b0; stroke-width: 0.8; stroke-linecap: square"/>
     </g>
     <g id="line2d_69">
      <g>
       <use xlink:href="#m33311cc9b9" x="538.214716" y="388.6" style="stroke: #000000; stroke-width: 0.8"/>
      </g>
     </g>
     <g id="text_18">
      <!-- 500 -->
      <g transform="translate(528.670966 403.198437) scale(0.1 -0.1)">
       <use xlink:href="#DejaVuSans-35"/>
       <use xlink:href="#DejaVuSans-30" transform="translate(63.623047 0)"/>
       <use xlink:href="#DejaVuSans-30" transform="translate(127.246094 0)"/>
      </g>
     </g>
    </g>
    <g id="text_19">
     <!-- Time (ms) -->
     <g transform="translate(280.175156 416.876562) scale(0.1 -0.1)">
      <defs>
       <path id="DejaVuSans-54" d="M -19 4666 
L 3928 4666 
L 3928 4134 
L 2272 4134 
L 2272 0 
L 1638 0 
L 1638 4134 
L -19 4134 
L -19 4666 
z
" transform="scale(0.015625)"/>
       <path id="DejaVuSans-69" d="M 603 3500 
L 1178 3500 
L 1178 0 
L 603 0 
L 603 3500 
z
M 603 4863 
L 1178 4863 
L 1178 4134 
L 603 4134 
L 603 4863 
z
" transform="scale(0.015625)"/>
       <path id="DejaVuSans-65" d="M 3597 1894 
L 3597 1613 
L 953 1613 
Q 991 1019 1311 708 
Q 1631 397 2203 397 
Q 2534 397 2845 478 
Q 3156 559 3463 722 
L 3463 178 
Q 3153 47 2828 -22 
Q 2503 -91 2169 -91 
Q 1331 -91 842 396 
Q 353 884 353 1716 
Q 353 2575 817 3079 
Q 1281 3584 2069 3584 
Q 2775 3584 3186 3129 
Q 3597 2675 3597 1894 
z
M 3022 2063 
Q 3016 2534 2758 2815 
Q 2500 3097 2075 3097 
Q 1594 3097 1305 2825 
Q 1016 2553 972 2059 
L 3022 2063 
z
" transform="scale(0.015625)"/>
      </defs>
      <use xlink:href="#DejaVuSans-54"/>
      <use xlink:href="#DejaVuSans-69" transform="translate(57.958984 0)"/>
      <use xlink:href="#DejaVuSans-6d" transform="translate(85.742188 0)"/>
      <use xlink:href="#DejaVuSans-65" transform="translate(183.154297 0)"/>
      <use xlink:href="#DejaVuSans-20" transform="translate(244.677734 0)"/>
      <use xlink:href="#DejaVuSans-28" transform="translate(276.464844 0)"/>
      <use xlink:href="#DejaVuSans-6d" transform="translate(315.478516 0)"/>
      <use xlink:href="#DejaVuSans-73" transform="translate(412.890625 0)"/>
      <use xlink:href="#DejaVuSans-29" transform="translate(464.990234 0)"/>
     </g>
    </g>
   </g>
   <g id="matplotlib.axis_8">
    <g id="ytick_10">
     <g id="line2d_70">
      <path d="M 49.25 385.078547 
L 561.49875 385.078547 
" clip-path="url(#p3563e903f7)" style="fill: none; stroke: #b0b0b0; stroke-width: 0.8; stroke-linecap: square"/>
     </g>
     <g id="line2d_71">
      <g>
       <use xlink:href="#me573e2c8a9" x="49.25" y="385.078547" style="stroke: #000000; stroke-width: 0.8"/>
      </g>
     </g>
     <g id="text_20">
      <!-- 0.0 -->
      <g transform="translate(26.346875 388.877766) scale(0.1 -0.1)">
       <use xlink:href="#DejaVuSans-30"/>
       <use xlink:href="#DejaVuSans-2e" transform="translate(63.623047 0)"/>
       <use xlink:href="#DejaVuSans-30" transform="translate(95.410156 0)"/>
      </g>
     </g>
    </g>
    <g id="ytick_11">
     <g id="line2d_72">
      <path d="M 49.25 349.864022 
L 561.49875 349.864022 
" clip-path="url(#p3563e903f7)" style="fill: none; stroke: #b0b0b0; stroke-width: 0.8; stroke-linecap: square"/>
     </g>
     <g id="line2d_73">
      <g>
       <use xlink:href="#me573e2c8a9" x="49.25" y="349.864022" style="stroke: #000000; stroke-width: 0.8"/>
      </g>
     </g>
     <g id="text_21">
      <!-- 0.5 -->
      <g transform="translate(26.346875 353.66324) scale(0.1 -0.1)">
       <use xlink:href="#DejaVuSans-30"/>
       <use xlink:href="#DejaVuSans-2e" transform="translate(63.623047 0)"/>
       <use xlink:href="#DejaVuSans-35" transform="translate(95.410156 0)"/>
      </g>
     </g>
    </g>
    <g id="ytick_12">
     <g id="line2d_74">
      <path d="M 49.25 314.649496 
L 561.49875 314.649496 
" clip-path="url(#p3563e903f7)" style="fill: none; stroke: #b0b0b0; stroke-width: 0.8; stroke-linecap: square"/>
     </g>
     <g id="line2d_75">
      <g>
       <use xlink:href="#me573e2c8a9" x="49.25" y="314.649496" style="stroke: #000000; stroke-width: 0.8"/>
      </g>
     </g>
     <g id="text_22">
      <!-- 1.0 -->
      <g transform="translate(26.346875 318.448715) scale(0.1 -0.1)">
       <use xlink:href="#DejaVuSans-31"/>
       <use xlink:href="#DejaVuSans-2e" transform="translate(63.623047 0)"/>
       <use xlink:href="#DejaVuSans-30" transform="translate(95.410156 0)"/>
      </g>
     </g>
    </g>
    <g id="text_23">
     <!-- P_s (B to A) -->
     <g transform="translate(19.989062 378.522615) rotate(-90) scale(0.1 -0.1)">
      <use xlink:href="#DejaVuSans-50"/>
      <use xlink:href="#DejaVuSans-5f" transform="translate(60.302734 0)"/>
      <use xlink:href="#DejaVuSans-73" transform="translate(110.302734 0)"/>
      <use xlink:href="#DejaVuSans-20" transform="translate(162.402344 0)"/>
      <use xlink:href="#DejaVuSans-28" transform="translate(194.189453 0)"/>
      <use xlink:href="#DejaVuSans-42" transform="translate(233.203125 0)"/>
      <use xlink:href="#DejaVuSans-20" transform="translate(301.806641 0)"/>
      <use xlink:href="#DejaVuSans-74" transform="translate(333.59375 0)"/>
      <use xlink:href="#DejaVuSans-6f" transform="translate(372.802734 0)"/>
      <use xlink:href="#DejaVuSans-20" transform="translate(433.984375 0)"/>
      <use xlink:href="#DejaVuSans-41" transform="translate(465.771484 0)"/>
      <use xlink:href="#DejaVuSans-29" transform="translate(534.179688 0)"/>
     </g>
    </g>
   </g>
   <g id="line2d_76">
    <path d="M 72.534034 385.078547 
L 133.63134 385.078547 
L 133.724476 314.649496 
L 133.817612 316.058077 
L 134.842109 329.811693 
L 135.866607 340.824644 
L 136.891104 349.64306 
L 137.915602 356.704242 
L 138.940099 362.358351 
L 139.964597 366.885774 
L 140.989094 370.511023 
L 142.106728 373.647168 
L 143.224362 376.108153 
L 144.341995 378.039329 
L 145.459629 379.554755 
L 146.670399 380.830627 
L 147.974305 381.877137 
L 149.371347 382.714084 
L 150.954661 383.401382 
L 152.817384 383.958859 
L 155.052651 384.389065 
L 157.939871 384.709968 
L 162.037861 384.927024 
L 164.086856 384.981395 
L 164.179992 314.649496 
L 164.273128 316.058077 
L 165.297626 329.811693 
L 166.322123 340.824644 
L 167.346621 349.64306 
L 168.371118 356.704242 
L 169.395616 362.358351 
L 170.420113 366.885774 
L 171.444611 370.511023 
L 172.375972 373.17582 
L 172.469108 314.649496 
L 172.562245 316.058077 
L 173.586742 329.811693 
L 174.61124 340.824644 
L 175.635737 349.64306 
L 176.660235 356.704242 
L 177.684732 362.358351 
L 178.70923 366.885774 
L 179.733727 370.511023 
L 180.851361 373.647168 
L 181.968994 376.108153 
L 183.086628 378.039329 
L 183.645445 378.842909 
L 183.738581 314.649496 
L 183.831717 316.058077 
L 184.856215 329.811693 
L 185.880712 340.824644 
L 186.90521 349.64306 
L 187.929707 356.704242 
L 188.954205 362.358351 
L 189.978702 366.885774 
L 191.0032 370.511023 
L 192.120833 373.647168 
L 193.238467 376.108153 
L 194.3561 378.039329 
L 195.473734 379.554755 
L 196.684504 380.830627 
L 197.98841 381.877137 
L 199.385452 382.714084 
L 200.968766 383.401382 
L 202.831489 383.958859 
L 205.066756 384.389065 
L 207.953976 384.709968 
L 209.537291 384.817106 
L 209.630427 314.649496 
L 209.723563 316.058077 
L 210.74806 329.811693 
L 211.772558 340.824644 
L 212.797055 349.64306 
L 213.821553 356.704242 
L 214.84605 362.358351 
L 215.870548 366.885774 
L 216.895045 370.511023 
L 218.012679 373.647168 
L 219.130313 376.108153 
L 220.247946 378.039329 
L 221.36558 379.554755 
L 222.57635 380.830627 
L 223.600847 381.677104 
L 223.693983 314.649496 
L 223.78712 316.058077 
L 224.811617 329.811693 
L 225.836115 340.824644 
L 226.860612 349.64306 
L 227.88511 356.704242 
L 228.909607 362.358351 
L 229.934105 366.885774 
L 230.958602 370.511023 
L 232.076236 373.647168 
L 233.193869 376.108153 
L 234.311503 378.039329 
L 235.429137 379.554755 
L 236.639906 380.830627 
L 237.943812 381.877137 
L 239.340854 382.714084 
L 239.527127 382.807717 
L 239.620263 314.649496 
L 239.713399 316.058077 
L 240.737896 329.811693 
L 241.762394 340.824644 
L 242.786891 349.64306 
L 243.811389 356.704242 
L 244.835886 362.358351 
L 245.860384 366.885774 
L 246.884881 370.511023 
L 248.002515 373.647168 
L 249.120149 376.108153 
L 250.237782 378.039329 
L 251.355416 379.554755 
L 252.566186 380.830627 
L 253.870092 381.877137 
L 255.267134 382.714084 
L 256.850448 383.401382 
L 258.713171 383.958859 
L 260.948438 384.389065 
L 263.835658 384.709968 
L 267.933648 384.927024 
L 274.918858 385.045248 
L 295.036264 385.078124 
L 316.643847 385.078544 
L 316.736984 314.649496 
L 316.83012 316.058077 
L 317.854617 329.811693 
L 318.879115 340.824644 
L 319.903612 349.64306 
L 320.92811 356.704242 
L 321.952607 362.358351 
L 322.977105 366.885774 
L 324.001602 370.511023 
L 325.119236 373.647168 
L 326.23687 376.108153 
L 327.354503 378.039329 
L 328.472137 379.554755 
L 329.682907 380.830627 
L 330.986812 381.877137 
L 332.383855 382.714084 
L 333.967169 383.401382 
L 335.829892 383.958859 
L 338.065159 384.389065 
L 340.952379 384.709968 
L 345.050369 384.927024 
L 352.035579 385.045248 
L 372.152985 385.078124 
L 480.190903 385.078547 
L 480.284039 314.649496 
L 480.377175 316.058077 
L 481.401673 329.811693 
L 482.42617 340.824644 
L 483.450668 349.64306 
L 484.475165 356.704242 
L 485.499663 362.358351 
L 486.52416 366.885774 
L 487.548658 370.511023 
L 488.666291 373.647168 
L 489.783925 376.108153 
L 490.901559 378.039329 
L 492.019192 379.554755 
L 493.229962 380.830627 
L 494.533868 381.877137 
L 495.372093 382.409378 
L 495.465229 314.649496 
L 495.558365 316.058077 
L 496.582863 329.811693 
L 497.60736 340.824644 
L 498.631858 349.64306 
L 499.656355 356.704242 
L 500.680853 362.358351 
L 501.70535 366.885774 
L 502.729848 370.511023 
L 503.847482 373.647168 
L 504.965115 376.108153 
L 505.058251 314.649496 
L 505.151387 316.058077 
L 506.175885 329.811693 
L 507.200382 340.824644 
L 508.22488 349.64306 
L 509.249377 356.704242 
L 510.273875 362.358351 
L 511.298372 366.885774 
L 512.32287 370.511023 
L 513.440504 373.647168 
L 514.558137 376.108153 
L 515.675771 378.039329 
L 516.793405 379.554755 
L 518.004174 380.830627 
L 518.376719 381.160401 
L 518.469855 314.649496 
L 518.562991 316.058077 
L 519.587489 329.811693 
L 520.611986 340.824644 
L 521.636484 349.64306 
L 522.660981 356.704242 
L 523.685479 362.358351 
L 524.709976 366.885774 
L 524.989385 367.955655 
L 525.082521 314.649496 
L 525.175657 316.058077 
L 526.200154 329.811693 
L 527.224652 340.824644 
L 528.249149 349.64306 
L 529.273647 356.704242 
L 530.298144 362.358351 
L 531.322642 366.885774 
L 532.254003 370.213727 
L 532.347139 314.649496 
L 532.440275 316.058077 
L 533.464773 329.811693 
L 534.48927 340.824644 
L 535.513768 349.64306 
L 536.538265 356.704242 
L 537.283355 360.938737 
L 537.376491 314.649496 
L 537.469627 316.058077 
L 538.214716 326.358483 
L 538.214716 326.358483 
" clip-path="url(#p3563e903f7)" style="fill: none; stroke: #1f77b4; stroke-width: 1.5; stroke-linecap: square"/>
   </g>
   <g id="patch_18">
    <path d="M 49.25 388.6 
L 49.25 311.128043 
" style="fill: none; stroke: #000000; stroke-width: 0.8; stroke-linejoin: miter; stroke-linecap: square"/>
   </g>
   <g id="patch_19">
    <path d="M 561.49875 388.6 
L 561.49875 311.128043 
" style="fill: none; stroke: #000000; stroke-width: 0.8; stroke-linejoin: miter; stroke-linecap: square"/>
   </g>
   <g id="patch_20">
    <path d="M 49.25 388.6 
L 561.49875 388.6 
" style="fill: none; stroke: #000000; stroke-width: 0.8; stroke-linejoin: miter; stroke-linecap: square"/>
   </g>
   <g id="patch_21">
    <path d="M 49.25 311.128043 
L 561.49875 311.128043 
" style="fill: none; stroke: #000000; stroke-width: 0.8; stroke-linejoin: miter; stroke-linecap: square"/>
   </g>
  </g>
  <g id="text_24">
   <!-- Exc A to B, Inh B to A -->
   <g transform="translate(220.643437 16.318125) scale(0.12 -0.12)">
    <defs>
     <path id="DejaVuSans-45" d="M 628 4666 
L 3578 4666 
L 3578 4134 
L 1259 4134 
L 1259 2753 
L 3481 2753 
L 3481 2222 
L 1259 2222 
L 1259 531 
L 3634 531 
L 3634 0 
L 628 0 
L 628 4666 
z
" transform="scale(0.015625)"/>
     <path id="DejaVuSans-78" d="M 3513 3500 
L 2247 1797 
L 3578 0 
L 2900 0 
L 1881 1375 
L 863 0 
L 184 0 
L 1544 1831 
L 300 3500 
L 978 3500 
L 1906 2253 
L 2834 3500 
L 3513 3500 
z
" transform="scale(0.015625)"/>
     <path id="DejaVuSans-63" d="M 3122 3366 
L 3122 2828 
Q 2878 2963 2633 3030 
Q 2388 3097 2138 3097 
Q 1578 3097 1268 2742 
Q 959 2388 959 1747 
Q 959 1106 1268 751 
Q 1578 397 2138 397 
Q 2388 397 2633 464 
Q 2878 531 3122 666 
L 3122 134 
Q 2881 22 2623 -34 
Q 2366 -91 2075 -91 
Q 1284 -91 818 406 
Q 353 903 353 1747 
Q 353 2603 823 3093 
Q 1294 3584 2113 3584 
Q 2378 3584 2631 3529 
Q 2884 3475 3122 3366 
z
" transform="scale(0.015625)"/>
     <path id="DejaVuSans-2c" d="M 750 794 
L 1409 794 
L 1409 256 
L 897 -744 
L 494 -744 
L 750 256 
L 750 794 
z
" transform="scale(0.015625)"/>
     <path id="DejaVuSans-49" d="M 628 4666 
L 1259 4666 
L 1259 0 
L 628 0 
L 628 4666 
z
" transform="scale(0.015625)"/>
     <path id="DejaVuSans-6e" d="M 3513 2113 
L 3513 0 
L 2938 0 
L 2938 2094 
Q 2938 2591 2744 2837 
Q 2550 3084 2163 3084 
Q 1697 3084 1428 2787 
Q 1159 2491 1159 1978 
L 1159 0 
L 581 0 
L 581 3500 
L 1159 3500 
L 1159 2956 
Q 1366 3272 1645 3428 
Q 1925 3584 2291 3584 
Q 2894 3584 3203 3211 
Q 3513 2838 3513 2113 
z
" transform="scale(0.015625)"/>
     <path id="DejaVuSans-68" d="M 3513 2113 
L 3513 0 
L 2938 0 
L 2938 2094 
Q 2938 2591 2744 2837 
Q 2550 3084 2163 3084 
Q 1697 3084 1428 2787 
Q 1159 2491 1159 1978 
L 1159 0 
L 581 0 
L 581 4863 
L 1159 4863 
L 1159 2956 
Q 1366 3272 1645 3428 
Q 1925 3584 2291 3584 
Q 2894 3584 3203 3211 
Q 3513 2838 3513 2113 
z
" transform="scale(0.015625)"/>
    </defs>
    <use xlink:href="#DejaVuSans-45"/>
    <use xlink:href="#DejaVuSans-78" transform="translate(63.183594 0)"/>
    <use xlink:href="#DejaVuSans-63" transform="translate(120.613281 0)"/>
    <use xlink:href="#DejaVuSans-20" transform="translate(175.59375 0)"/>
    <use xlink:href="#DejaVuSans-41" transform="translate(207.380859 0)"/>
    <use xlink:href="#DejaVuSans-20" transform="translate(275.789062 0)"/>
    <use xlink:href="#DejaVuSans-74" transform="translate(307.576172 0)"/>
    <use xlink:href="#DejaVuSans-6f" transform="translate(346.785156 0)"/>
    <use xlink:href="#DejaVuSans-20" transform="translate(407.966797 0)"/>
    <use xlink:href="#DejaVuSans-42" transform="translate(439.753906 0)"/>
    <use xlink:href="#DejaVuSans-2c" transform="translate(508.357422 0)"/>
    <use xlink:href="#DejaVuSans-20" transform="translate(540.144531 0)"/>
    <use xlink:href="#DejaVuSans-49" transform="translate(571.931641 0)"/>
    <use xlink:href="#DejaVuSans-6e" transform="translate(601.423828 0)"/>
    <use xlink:href="#DejaVuSans-68" transform="translate(664.802734 0)"/>
    <use xlink:href="#DejaVuSans-20" transform="translate(728.181641 0)"/>
    <use xlink:href="#DejaVuSans-42" transform="translate(759.96875 0)"/>
    <use xlink:href="#DejaVuSans-20" transform="translate(828.572266 0)"/>
    <use xlink:href="#DejaVuSans-74" transform="translate(860.359375 0)"/>
    <use xlink:href="#DejaVuSans-6f" transform="translate(899.568359 0)"/>
    <use xlink:href="#DejaVuSans-20" transform="translate(960.75 0)"/>
    <use xlink:href="#DejaVuSans-41" transform="translate(992.537109 0)"/>
   </g>
  </g>
 </g>
 <defs>
  <clipPath id="p09f2f00c5c">
   <rect x="49.25" y="33.793043" width="512.24875" height="77.471957"/>
  </clipPath>
  <clipPath id="p3a3674c29b">
   <rect x="49.25" y="126.238043" width="512.24875" height="77.471957"/>
  </clipPath>
  <clipPath id="p46550c36af">
   <rect x="49.25" y="218.683043" width="512.24875" height="77.471957"/>
  </clipPath>
  <clipPath id="p3563e903f7">
   <rect x="49.25" y="311.128043" width="512.24875" height="77.471957"/>
  </clipPath>
 </defs>
</svg>
