<?xml version="1.0" encoding="utf-8" standalone="no"?>
<!DOCTYPE svg PUBLIC "-//W3C//DTD SVG 1.1//EN"
  "http://www.w3.org/Graphics/SVG/1.1/DTD/svg11.dtd">
<svg xmlns:xlink="http://www.w3.org/1999/xlink" width="568.69875pt" height="426.15625pt" viewBox="0 0 568.69875 426.15625" xmlns="http://www.w3.org/2000/svg" version="1.1">
 <metadata>
  <rdf:RDF xmlns:dc="http://purl.org/dc/elements/1.1/" xmlns:cc="http://creativecommons.org/ns#" xmlns:rdf="http://www.w3.org/1999/02/22-rdf-syntax-ns#">
   <cc:Work>
    <dc:type rdf:resource="http://purl.org/dc/dcmitype/StillImage"/>
    <dc:date>2025-05-18T02:20:10.977311</dc:date>
    <dc:format>image/svg+xml</dc:format>
    <dc:creator>
     <cc:Agent>
      <dc:title>Matplotlib v3.10.1, https://matplotlib.org/</dc:title>
     </cc:Agent>
    </dc:creator>
   </cc:Work>
  </rdf:RDF>
 </metadata>
 <defs>
  <style type="text/css">*{stroke-linejoin: round; stroke-linecap: butt}</style>
 </defs>
 <g id="figure_1">
  <g id="patch_1">
   <path d="M 0 426.15625 
L 568.69875 426.15625 
L 568.69875 0 
L 0 0 
L 0 426.15625 
z
" style="fill: none"/>
  </g>
  <g id="axes_1">
   <g id="patch_2">
    <path d="M 49.25 111.265 
L 561.49875 111.265 
L 561.49875 33.793043 
L 49.25 33.793043 
L 49.25 111.265 
z
" style="fill: none"/>
   </g>
   <g id="matplotlib.axis_1">
    <g id="xtick_1">
     <g id="line2d_1">
      <path d="M 72.534034 111.265 
L 72.534034 33.793043 
" clip-path="url(#p2736dbc41c)" style="fill: none; stroke: #b0b0b0; stroke-width: 0.8; stroke-linecap: square"/>
     </g>
     <g id="line2d_2">
      <defs>
       <path id="m6395b7539a" d="M 0 0 
L 0 3.5 
" style="stroke: #000000; stroke-width: 0.8"/>
      </defs>
      <g>
       <use xlink:href="#m6395b7539a" x="72.534034" y="111.265" style="stroke: #000000; stroke-width: 0.8"/>
      </g>
     </g>
    </g>
    <g id="xtick_2">
     <g id="line2d_3">
      <path d="M 165.67017 111.265 
L 165.67017 33.793043 
" clip-path="url(#p2736dbc41c)" style="fill: none; stroke: #b0b0b0; stroke-width: 0.8; stroke-linecap: square"/>
     </g>
     <g id="line2d_4">
      <g>
       <use xlink:href="#m6395b7539a" x="165.67017" y="111.265" style="stroke: #000000; stroke-width: 0.8"/>
      </g>
     </g>
    </g>
    <g id="xtick_3">
     <g id="line2d_5">
      <path d="M 258.806307 111.265 
L 258.806307 33.793043 
" clip-path="url(#p2736dbc41c)" style="fill: none; stroke: #b0b0b0; stroke-width: 0.8; stroke-linecap: square"/>
     </g>
     <g id="line2d_6">
      <g>
       <use xlink:href="#m6395b7539a" x="258.806307" y="111.265" style="stroke: #000000; stroke-width: 0.8"/>
      </g>
     </g>
    </g>
    <g id="xtick_4">
     <g id="line2d_7">
      <path d="M 351.942443 111.265 
L 351.942443 33.793043 
" clip-path="url(#p2736dbc41c)" style="fill: none; stroke: #b0b0b0; stroke-width: 0.8; stroke-linecap: square"/>
     </g>
     <g id="line2d_8">
      <g>
       <use xlink:href="#m6395b7539a" x="351.942443" y="111.265" style="stroke: #000000; stroke-width: 0.8"/>
      </g>
     </g>
    </g>
    <g id="xtick_5">
     <g id="line2d_9">
      <path d="M 445.07858 111.265 
L 445.07858 33.793043 
" clip-path="url(#p2736dbc41c)" style="fill: none; stroke: #b0b0b0; stroke-width: 0.8; stroke-linecap: square"/>
     </g>
     <g id="line2d_10">
      <g>
       <use xlink:href="#m6395b7539a" x="445.07858" y="111.265" style="stroke: #000000; stroke-width: 0.8"/>
      </g>
     </g>
    </g>
    <g id="xtick_6">
     <g id="line2d_11">
      <path d="M 538.214716 111.265 
L 538.214716 33.793043 
" clip-path="url(#p2736dbc41c)" style="fill: none; stroke: #b0b0b0; stroke-width: 0.8; stroke-linecap: square"/>
     </g>
     <g id="line2d_12">
      <g>
       <use xlink:href="#m6395b7539a" x="538.214716" y="111.265" style="stroke: #000000; stroke-width: 0.8"/>
      </g>
     </g>
    </g>
   </g>
   <g id="matplotlib.axis_2">
    <g id="ytick_1">
     <g id="line2d_13">
      <path d="M 49.25 91.490689 
L 561.49875 91.490689 
" clip-path="url(#p2736dbc41c)" style="fill: none; stroke: #b0b0b0; stroke-width: 0.8; stroke-linecap: square"/>
     </g>
     <g id="line2d_14">
      <defs>
       <path id="maf41d1c56e" d="M 0 0 
L -3.5 0 
" style="stroke: #000000; stroke-width: 0.8"/>
      </defs>
      <g>
       <use xlink:href="#maf41d1c56e" x="49.25" y="91.490689" style="stroke: #000000; stroke-width: 0.8"/>
      </g>
     </g>
     <g id="text_1">
      <!-- −50 -->
      <g transform="translate(21.145312 95.289908) scale(0.1 -0.1)">
       <defs>
        <path id="DejaVuSans-2212" d="M 678 2272 
L 4684 2272 
L 4684 1741 
L 678 1741 
L 678 2272 
z
" transform="scale(0.015625)"/>
        <path id="DejaVuSans-35" d="M 691 4666 
L 3169 4666 
L 3169 4134 
L 1269 4134 
L 1269 2991 
Q 1406 3038 1543 3061 
Q 1681 3084 1819 3084 
Q 2600 3084 3056 2656 
Q 3513 2228 3513 1497 
Q 3513 744 3044 326 
Q 2575 -91 1722 -91 
Q 1428 -91 1123 -41 
Q 819 9 494 109 
L 494 744 
Q 775 591 1075 516 
Q 1375 441 1709 441 
Q 2250 441 2565 725 
Q 2881 1009 2881 1497 
Q 2881 1984 2565 2268 
Q 2250 2553 1709 2553 
Q 1456 2553 1204 2497 
Q 953 2441 691 2322 
L 691 4666 
z
" transform="scale(0.015625)"/>
        <path id="DejaVuSans-30" d="M 2034 4250 
Q 1547 4250 1301 3770 
Q 1056 3291 1056 2328 
Q 1056 1369 1301 889 
Q 1547 409 2034 409 
Q 2525 409 2770 889 
Q 3016 1369 3016 2328 
Q 3016 3291 2770 3770 
Q 2525 4250 2034 4250 
z
M 2034 4750 
Q 2819 4750 3233 4129 
Q 3647 3509 3647 2328 
Q 3647 1150 3233 529 
Q 2819 -91 2034 -91 
Q 1250 -91 836 529 
Q 422 1150 422 2328 
Q 422 3509 836 4129 
Q 1250 4750 2034 4750 
z
" transform="scale(0.015625)"/>
       </defs>
       <use xlink:href="#DejaVuSans-2212"/>
       <use xlink:href="#DejaVuSans-35" transform="translate(83.789062 0)"/>
       <use xlink:href="#DejaVuSans-30" transform="translate(147.412109 0)"/>
      </g>
     </g>
    </g>
    <g id="ytick_2">
     <g id="line2d_15">
      <path d="M 49.25 64.402593 
L 561.49875 64.402593 
" clip-path="url(#p2736dbc41c)" style="fill: none; stroke: #b0b0b0; stroke-width: 0.8; stroke-linecap: square"/>
     </g>
     <g id="line2d_16">
      <g>
       <use xlink:href="#maf41d1c56e" x="49.25" y="64.402593" style="stroke: #000000; stroke-width: 0.8"/>
      </g>
     </g>
     <g id="text_2">
      <!-- −25 -->
      <g transform="translate(21.145312 68.201811) scale(0.1 -0.1)">
       <defs>
        <path id="DejaVuSans-32" d="M 1228 531 
L 3431 531 
L 3431 0 
L 469 0 
L 469 531 
Q 828 903 1448 1529 
Q 2069 2156 2228 2338 
Q 2531 2678 2651 2914 
Q 2772 3150 2772 3378 
Q 2772 3750 2511 3984 
Q 2250 4219 1831 4219 
Q 1534 4219 1204 4116 
Q 875 4013 500 3803 
L 500 4441 
Q 881 4594 1212 4672 
Q 1544 4750 1819 4750 
Q 2544 4750 2975 4387 
Q 3406 4025 3406 3419 
Q 3406 3131 3298 2873 
Q 3191 2616 2906 2266 
Q 2828 2175 2409 1742 
Q 1991 1309 1228 531 
z
" transform="scale(0.015625)"/>
       </defs>
       <use xlink:href="#DejaVuSans-2212"/>
       <use xlink:href="#DejaVuSans-32" transform="translate(83.789062 0)"/>
       <use xlink:href="#DejaVuSans-35" transform="translate(147.412109 0)"/>
      </g>
     </g>
    </g>
    <g id="ytick_3">
     <g id="line2d_17">
      <path d="M 49.25 37.314496 
L 561.49875 37.314496 
" clip-path="url(#p2736dbc41c)" style="fill: none; stroke: #b0b0b0; stroke-width: 0.8; stroke-linecap: square"/>
     </g>
     <g id="line2d_18">
      <g>
       <use xlink:href="#maf41d1c56e" x="49.25" y="37.314496" style="stroke: #000000; stroke-width: 0.8"/>
      </g>
     </g>
     <g id="text_3">
      <!-- 0 -->
      <g transform="translate(35.8875 41.113715) scale(0.1 -0.1)">
       <use xlink:href="#DejaVuSans-30"/>
      </g>
     </g>
    </g>
    <g id="text_4">
     <!-- V_A (mV) -->
     <g transform="translate(14.7875 95.650897) rotate(-90) scale(0.1 -0.1)">
      <defs>
       <path id="DejaVuSans-56" d="M 1831 0 
L 50 4666 
L 709 4666 
L 2188 738 
L 3669 4666 
L 4325 4666 
L 2547 0 
L 1831 0 
z
" transform="scale(0.015625)"/>
       <path id="DejaVuSans-5f" d="M 3263 -1063 
L 3263 -1509 
L -63 -1509 
L -63 -1063 
L 3263 -1063 
z
" transform="scale(0.015625)"/>
       <path id="DejaVuSans-41" d="M 2188 4044 
L 1331 1722 
L 3047 1722 
L 2188 4044 
z
M 1831 4666 
L 2547 4666 
L 4325 0 
L 3669 0 
L 3244 1197 
L 1141 1197 
L 716 0 
L 50 0 
L 1831 4666 
z
" transform="scale(0.015625)"/>
       <path id="DejaVuSans-20" transform="scale(0.015625)"/>
       <path id="DejaVuSans-28" d="M 1984 4856 
Q 1566 4138 1362 3434 
Q 1159 2731 1159 2009 
Q 1159 1288 1364 580 
Q 1569 -128 1984 -844 
L 1484 -844 
Q 1016 -109 783 600 
Q 550 1309 550 2009 
Q 550 2706 781 3412 
Q 1013 4119 1484 4856 
L 1984 4856 
z
" transform="scale(0.015625)"/>
       <path id="DejaVuSans-6d" d="M 3328 2828 
Q 3544 3216 3844 3400 
Q 4144 3584 4550 3584 
Q 5097 3584 5394 3201 
Q 5691 2819 5691 2113 
L 5691 0 
L 5113 0 
L 5113 2094 
Q 5113 2597 4934 2840 
Q 4756 3084 4391 3084 
Q 3944 3084 3684 2787 
Q 3425 2491 3425 1978 
L 3425 0 
L 2847 0 
L 2847 2094 
Q 2847 2600 2669 2842 
Q 2491 3084 2119 3084 
Q 1678 3084 1418 2786 
Q 1159 2488 1159 1978 
L 1159 0 
L 581 0 
L 581 3500 
L 1159 3500 
L 1159 2956 
Q 1356 3278 1631 3431 
Q 1906 3584 2284 3584 
Q 2666 3584 2933 3390 
Q 3200 3197 3328 2828 
z
" transform="scale(0.015625)"/>
       <path id="DejaVuSans-29" d="M 513 4856 
L 1013 4856 
Q 1481 4119 1714 3412 
Q 1947 2706 1947 2009 
Q 1947 1309 1714 600 
Q 1481 -109 1013 -844 
L 513 -844 
Q 928 -128 1133 580 
Q 1338 1288 1338 2009 
Q 1338 2731 1133 3434 
Q 928 4138 513 4856 
z
" transform="scale(0.015625)"/>
      </defs>
      <use xlink:href="#DejaVuSans-56"/>
      <use xlink:href="#DejaVuSans-5f" transform="translate(68.408203 0)"/>
      <use xlink:href="#DejaVuSans-41" transform="translate(118.408203 0)"/>
      <use xlink:href="#DejaVuSans-20" transform="translate(186.816406 0)"/>
      <use xlink:href="#DejaVuSans-28" transform="translate(218.603516 0)"/>
      <use xlink:href="#DejaVuSans-6d" transform="translate(257.617188 0)"/>
      <use xlink:href="#DejaVuSans-56" transform="translate(355.029297 0)"/>
      <use xlink:href="#DejaVuSans-29" transform="translate(423.4375 0)"/>
     </g>
    </g>
   </g>
   <g id="line2d_19">
    <path d="M 72.534034 107.743547 
L 74.024212 104.441134 
L 75.51439 101.649912 
L 77.004569 99.315206 
L 78.494747 97.389603 
L 79.984925 95.831639 
L 81.475103 94.60433 
L 82.965281 93.674428 
L 84.45546 93.011543 
L 85.945638 92.587429 
L 87.528952 92.368839 
L 89.205402 92.365179 
L 91.068125 92.595586 
L 93.11712 93.083081 
L 95.53866 93.902116 
L 98.612152 95.197584 
L 104.20032 97.855411 
L 109.602216 100.323875 
L 113.700206 101.951107 
L 117.518788 103.229508 
L 121.151097 104.214742 
L 124.503998 104.901828 
L 127.670627 105.326019 
L 130.557847 105.493988 
L 133.258795 105.437088 
L 133.724476 105.404837 
L 134.562701 102.682731 
L 135.400926 100.683647 
L 136.239151 99.226736 
L 137.077377 98.177623 
L 138.008738 97.367741 
L 139.033235 96.790012 
L 140.150869 96.417409 
L 141.547911 96.187904 
L 143.783178 96.075056 
L 147.788032 95.872122 
L 150.209572 95.501367 
L 152.537975 94.920872 
L 155.052651 94.066004 
L 158.033007 92.812281 
L 160.733955 91.532683 
L 160.827091 37.314496 
L 160.920228 107.536006 
L 161.013364 107.330029 
L 161.1065 107.125603 
L 162.037861 102.247524 
L 162.969223 98.475272 
L 163.99372 95.26727 
L 165.018217 92.790403 
L 165.67017 91.507004 
L 165.763307 37.314496 
L 165.856443 107.386779 
L 165.949579 107.036404 
L 167.253485 101.83959 
L 168.184846 97.649823 
L 169.116207 94.415107 
L 170.140705 91.679175 
L 170.233841 37.314496 
L 170.326977 107.333938 
L 170.420113 106.932601 
L 171.537747 102.693763 
L 172.841653 98.023263 
L 173.773014 94.268253 
L 174.61124 91.662824 
L 174.704376 37.314496 
L 174.797512 107.285787 
L 174.890648 106.838295 
L 175.915145 102.522571 
L 176.939643 99.126873 
L 177.96414 96.43659 
L 178.243549 95.597675 
L 179.17491 92.079391 
L 179.361182 91.492129 
L 179.454319 37.314496 
L 179.547455 107.244793 
L 179.640591 106.75829 
L 180.571952 102.497487 
L 181.59645 98.856618 
L 182.620947 96.048505 
L 183.645445 93.877052 
L 184.390534 92.411927 
L 184.576806 91.749354 
L 184.669942 37.314496 
L 184.763078 107.201213 
L 184.856215 106.673434 
L 185.787576 102.108206 
L 186.718937 98.606321 
L 187.650299 95.910484 
L 188.58166 93.833839 
L 189.606157 92.100604 
L 189.978702 91.586747 
L 190.071838 37.314496 
L 190.164974 107.44188 
L 190.25811 107.145939 
L 190.537519 106.038681 
L 191.46888 101.473442 
L 192.400242 98.026655 
L 193.331603 95.417597 
L 194.262964 93.444026 
L 195.194326 91.957395 
L 195.473734 91.588954 
L 195.56687 37.314496 
L 195.660006 107.442764 
L 195.753142 107.147974 
L 197.243321 102.206683 
L 198.174682 98.476842 
L 199.106043 95.685503 
L 200.037405 93.596067 
L 200.968766 92.03708 
L 201.341311 91.532491 
L 201.434447 37.314496 
L 201.527583 107.437699 
L 201.620719 107.138129 
L 202.738353 103.982457 
L 203.855986 101.49731 
L 203.949122 101.315143 
L 204.787348 97.892352 
L 205.718709 95.026828 
L 206.65007 92.900374 
L 207.39516 91.604852 
L 207.488296 37.314496 
L 207.581432 107.407653 
L 207.674568 107.079085 
L 208.699065 103.899368 
L 209.723563 101.381579 
L 210.841197 99.210909 
L 211.400013 98.063966 
L 212.238239 95.08342 
L 213.076464 92.825208 
L 213.635281 91.634691 
L 213.728417 37.314496 
L 213.821553 107.361882 
L 213.914689 106.989221 
L 214.939187 103.420612 
L 215.963684 100.652396 
L 216.988182 98.491495 
L 218.105815 96.662299 
L 218.292087 96.401465 
L 219.130313 93.581832 
L 219.875402 91.67569 
L 219.968538 37.314496 
L 220.061674 107.327107 
L 220.15481 106.921124 
L 221.086172 103.377352 
L 222.110669 100.372108 
L 223.135167 98.076054 
L 224.159664 96.319626 
L 224.625345 95.449707 
L 225.46357 92.847591 
L 226.022387 91.499393 
L 226.115523 37.314496 
L 226.208659 107.329843 
L 226.301795 106.926785 
L 227.233157 103.421326 
L 228.164518 100.708358 
L 229.189015 98.422488 
L 230.492921 95.702113 
L 231.331147 93.251325 
L 232.076236 91.621191 
L 232.169372 37.314496 
L 232.262508 107.361249 
L 232.355644 106.98873 
L 233.287005 103.746476 
L 234.218367 101.234758 
L 235.242864 99.117252 
L 235.615409 98.274876 
L 236.453634 95.510715 
L 237.291859 93.459956 
L 238.130085 91.953439 
L 238.409493 91.549482 
L 238.502629 37.314496 
L 238.595765 107.418434 
L 238.688901 107.101168 
L 239.713399 104.074726 
L 240.737896 101.74896 
L 240.924169 101.169643 
L 241.762394 98.112445 
L 242.600619 95.813343 
L 243.438844 94.092266 
L 244.370206 92.696336 
L 245.301567 91.712868 
L 245.487839 91.556234 
L 245.580975 37.314496 
L 245.674112 107.481986 
L 245.767248 107.225983 
L 247.071154 103.456704 
L 247.909379 100.2337 
L 248.84074 97.541418 
L 249.772102 95.551989 
L 250.703463 94.090371 
L 251.634824 93.028232 
L 252.659322 92.208045 
L 253.683819 91.661684 
L 254.056364 91.516633 
L 254.1495 37.314496 
L 254.242636 107.534528 
L 254.335772 107.329211 
L 254.428908 107.127518 
L 255.36027 102.926461 
L 256.291631 99.793342 
L 257.222992 97.455284 
L 258.154354 95.716719 
L 259.085715 94.434879 
L 260.017077 93.503992 
L 261.041574 92.790942 
L 262.159208 92.295049 
L 263.369978 92.004955 
L 264.76702 91.901087 
L 266.44347 92.001374 
L 268.678737 92.374493 
L 272.031638 93.191892 
L 280.600163 95.365744 
L 284.232472 96.012905 
L 287.771645 96.414807 
L 291.497091 96.607745 
L 296.060761 96.607223 
L 309.192957 96.462264 
L 314.036036 96.72111 
L 316.550711 96.938222 
L 317.388937 94.70117 
L 318.227162 93.117486 
L 319.065387 92.030218 
L 319.624204 91.522231 
L 319.71734 37.314496 
L 319.810476 107.474419 
L 319.903612 107.212296 
L 320.834974 104.938719 
L 321.766335 103.194846 
L 322.790832 101.748473 
L 323.722194 100.519275 
L 324.560419 97.990771 
L 325.398644 96.162327 
L 326.23687 94.86705 
L 327.075095 93.980835 
L 327.91332 93.409947 
L 328.844681 93.058772 
L 329.869179 92.931044 
L 331.079949 93.031541 
L 332.570127 93.405384 
L 334.619122 94.177789 
L 339.369065 96.304077 
L 343.280782 97.913753 
L 346.633683 99.051243 
L 349.800312 99.893408 
L 352.966941 100.503122 
L 356.040433 100.86983 
L 359.113926 101.014802 
L 362.280554 100.937218 
L 365.540319 100.627691 
L 368.89322 100.085645 
L 372.525529 99.271325 
L 376.530383 98.143454 
L 381.280326 96.564736 
L 389.196898 93.646971 
L 394.598794 91.771005 
L 395.437019 91.511449 
L 395.530155 37.314496 
L 395.623291 107.553773 
L 395.716427 107.365758 
L 397.299742 104.42542 
L 398.883056 101.926127 
L 400.559506 99.700502 
L 402.235957 97.855084 
L 403.912407 96.344417 
L 405.588858 95.129408 
L 407.358444 94.129788 
L 409.128031 93.385179 
L 410.990754 92.84055 
L 413.039749 92.482875 
L 415.275016 92.329959 
L 417.789692 92.38861 
L 420.863184 92.693546 
L 425.333719 93.384923 
L 436.044374 95.100205 
L 442.284495 95.828704 
L 448.058936 96.287534 
L 452.436334 96.422161 
L 455.975507 96.316877 
L 459.142136 96.006443 
L 462.215629 95.479792 
L 465.289121 94.726822 
L 468.735158 93.645531 
L 473.485101 91.894292 
L 474.509599 91.502536 
L 474.602735 37.314496 
L 474.695871 107.546084 
L 474.789007 107.350262 
L 476.465458 104.090883 
L 478.141908 101.288574 
L 479.911495 98.762968 
L 480.284039 98.282598 
L 481.2154 94.588036 
L 482.146762 91.819364 
L 482.239898 91.583671 
L 482.333034 37.314496 
L 482.42617 107.305969 
L 482.519306 106.87852 
L 483.543804 102.773257 
L 484.568301 99.567818 
L 485.592799 97.046101 
L 486.710433 94.891628 
L 487.73493 93.118176 
L 488.200611 91.529857 
L 488.293747 37.314496 
L 488.386883 107.228807 
L 488.480019 106.727501 
L 489.41138 102.372878 
L 490.342742 99.002539 
L 491.274103 96.379834 
L 492.298601 94.153554 
L 493.323098 92.45494 
L 493.975051 91.590556 
L 494.068187 37.314496 
L 494.161323 107.452786 
L 494.25446 106.904216 
L 495.185821 102.181208 
L 496.117182 98.586061 
L 497.048544 95.834107 
L 497.979905 93.72044 
L 499.004402 91.954386 
L 499.283811 91.554859 
L 499.376947 37.314496 
L 499.470083 107.432132 
L 499.563219 107.126606 
L 500.215172 104.663739 
L 501.146534 100.343869 
L 502.077895 97.061883 
L 503.009256 94.55339 
L 503.940618 92.627639 
L 504.592571 91.549709 
L 504.685707 37.314496 
L 504.778843 107.416544 
L 504.871979 107.095822 
L 506.269021 102.048982 
L 507.200382 98.142161 
L 508.131744 95.163458 
L 509.063105 92.875146 
L 509.715058 91.59008 
L 509.808194 37.314496 
L 509.90133 107.385081 
L 509.994467 107.033675 
L 511.1121 103.307837 
L 511.857189 100.801936 
L 512.788551 96.831746 
L 513.719912 93.797241 
L 514.558137 91.663941 
L 514.651273 37.314496 
L 514.74441 107.336037 
L 514.837546 106.936913 
L 515.862043 103.041797 
L 516.979677 99.639488 
L 517.259085 98.686347 
L 518.190447 94.75585 
L 519.121808 91.742984 
L 519.214944 37.314496 
L 519.30808 107.276052 
L 519.401216 106.818715 
L 520.425714 102.384503 
L 521.543347 98.558581 
L 522.567845 95.175955 
L 523.499206 91.587952 
L 523.592342 37.314496 
L 523.685479 107.217091 
L 523.778615 106.702635 
L 524.803112 101.745045 
L 525.82761 97.831796 
L 526.945243 94.44397 
L 527.131516 93.770178 
L 527.597196 91.810467 
L 527.690333 37.314496 
L 527.783469 107.160032 
L 527.876605 106.590467 
L 528.901102 101.137585 
L 529.9256 96.886668 
L 530.950097 93.525378 
L 531.60205 91.578072 
L 531.695186 37.314496 
L 531.788323 107.1148 
L 531.881459 106.501674 
L 532.81282 101.133247 
L 533.837318 96.526741 
L 534.861815 92.930741 
L 535.327496 91.558639 
L 535.420632 37.314496 
L 535.513768 107.293052 
L 535.606904 106.850853 
L 535.886313 105.172157 
L 536.817674 99.812854 
L 537.749035 95.617307 
L 538.214716 93.86317 
L 538.214716 93.86317 
" clip-path="url(#p2736dbc41c)" style="fill: none; stroke: #1f77b4; stroke-width: 1.5; stroke-linecap: square"/>
   </g>
   <g id="patch_3">
    <path d="M 49.25 111.265 
L 49.25 33.793043 
" style="fill: none; stroke: #000000; stroke-width: 0.8; stroke-linejoin: miter; stroke-linecap: square"/>
   </g>
   <g id="patch_4">
    <path d="M 561.49875 111.265 
L 561.49875 33.793043 
" style="fill: none; stroke: #000000; stroke-width: 0.8; stroke-linejoin: miter; stroke-linecap: square"/>
   </g>
   <g id="patch_5">
    <path d="M 49.25 111.265 
L 561.49875 111.265 
" style="fill: none; stroke: #000000; stroke-width: 0.8; stroke-linejoin: miter; stroke-linecap: square"/>
   </g>
   <g id="patch_6">
    <path d="M 49.25 33.793043 
L 561.49875 33.793043 
" style="fill: none; stroke: #000000; stroke-width: 0.8; stroke-linejoin: miter; stroke-linecap: square"/>
   </g>
  </g>
  <g id="axes_2">
   <g id="patch_7">
    <path d="M 49.25 203.71 
L 561.49875 203.71 
L 561.49875 126.238043 
L 49.25 126.238043 
L 49.25 203.71 
z
" style="fill: none"/>
   </g>
   <g id="matplotlib.axis_3">
    <g id="xtick_7">
     <g id="line2d_20">
      <path d="M 72.534034 203.71 
L 72.534034 126.238043 
" clip-path="url(#pacb8681172)" style="fill: none; stroke: #b0b0b0; stroke-width: 0.8; stroke-linecap: square"/>
     </g>
     <g id="line2d_21">
      <g>
       <use xlink:href="#m6395b7539a" x="72.534034" y="203.71" style="stroke: #000000; stroke-width: 0.8"/>
      </g>
     </g>
    </g>
    <g id="xtick_8">
     <g id="line2d_22">
      <path d="M 165.67017 203.71 
L 165.67017 126.238043 
" clip-path="url(#pacb8681172)" style="fill: none; stroke: #b0b0b0; stroke-width: 0.8; stroke-linecap: square"/>
     </g>
     <g id="line2d_23">
      <g>
       <use xlink:href="#m6395b7539a" x="165.67017" y="203.71" style="stroke: #000000; stroke-width: 0.8"/>
      </g>
     </g>
    </g>
    <g id="xtick_9">
     <g id="line2d_24">
      <path d="M 258.806307 203.71 
L 258.806307 126.238043 
" clip-path="url(#pacb8681172)" style="fill: none; stroke: #b0b0b0; stroke-width: 0.8; stroke-linecap: square"/>
     </g>
     <g id="line2d_25">
      <g>
       <use xlink:href="#m6395b7539a" x="258.806307" y="203.71" style="stroke: #000000; stroke-width: 0.8"/>
      </g>
     </g>
    </g>
    <g id="xtick_10">
     <g id="line2d_26">
      <path d="M 351.942443 203.71 
L 351.942443 126.238043 
" clip-path="url(#pacb8681172)" style="fill: none; stroke: #b0b0b0; stroke-width: 0.8; stroke-linecap: square"/>
     </g>
     <g id="line2d_27">
      <g>
       <use xlink:href="#m6395b7539a" x="351.942443" y="203.71" style="stroke: #000000; stroke-width: 0.8"/>
      </g>
     </g>
    </g>
    <g id="xtick_11">
     <g id="line2d_28">
      <path d="M 445.07858 203.71 
L 445.07858 126.238043 
" clip-path="url(#pacb8681172)" style="fill: none; stroke: #b0b0b0; stroke-width: 0.8; stroke-linecap: square"/>
     </g>
     <g id="line2d_29">
      <g>
       <use xlink:href="#m6395b7539a" x="445.07858" y="203.71" style="stroke: #000000; stroke-width: 0.8"/>
      </g>
     </g>
    </g>
    <g id="xtick_12">
     <g id="line2d_30">
      <path d="M 538.214716 203.71 
L 538.214716 126.238043 
" clip-path="url(#pacb8681172)" style="fill: none; stroke: #b0b0b0; stroke-width: 0.8; stroke-linecap: square"/>
     </g>
     <g id="line2d_31">
      <g>
       <use xlink:href="#m6395b7539a" x="538.214716" y="203.71" style="stroke: #000000; stroke-width: 0.8"/>
      </g>
     </g>
    </g>
   </g>
   <g id="matplotlib.axis_4">
    <g id="ytick_4">
     <g id="line2d_32">
      <path d="M 49.25 183.935689 
L 561.49875 183.935689 
" clip-path="url(#pacb8681172)" style="fill: none; stroke: #b0b0b0; stroke-width: 0.8; stroke-linecap: square"/>
     </g>
     <g id="line2d_33">
      <g>
       <use xlink:href="#maf41d1c56e" x="49.25" y="183.935689" style="stroke: #000000; stroke-width: 0.8"/>
      </g>
     </g>
     <g id="text_5">
      <!-- −50 -->
      <g transform="translate(21.145312 187.734908) scale(0.1 -0.1)">
       <use xlink:href="#DejaVuSans-2212"/>
       <use xlink:href="#DejaVuSans-35" transform="translate(83.789062 0)"/>
       <use xlink:href="#DejaVuSans-30" transform="translate(147.412109 0)"/>
      </g>
     </g>
    </g>
    <g id="ytick_5">
     <g id="line2d_34">
      <path d="M 49.25 156.847593 
L 561.49875 156.847593 
" clip-path="url(#pacb8681172)" style="fill: none; stroke: #b0b0b0; stroke-width: 0.8; stroke-linecap: square"/>
     </g>
     <g id="line2d_35">
      <g>
       <use xlink:href="#maf41d1c56e" x="49.25" y="156.847593" style="stroke: #000000; stroke-width: 0.8"/>
      </g>
     </g>
     <g id="text_6">
      <!-- −25 -->
      <g transform="translate(21.145312 160.646811) scale(0.1 -0.1)">
       <use xlink:href="#DejaVuSans-2212"/>
       <use xlink:href="#DejaVuSans-32" transform="translate(83.789062 0)"/>
       <use xlink:href="#DejaVuSans-35" transform="translate(147.412109 0)"/>
      </g>
     </g>
    </g>
    <g id="ytick_6">
     <g id="line2d_36">
      <path d="M 49.25 129.759496 
L 561.49875 129.759496 
" clip-path="url(#pacb8681172)" style="fill: none; stroke: #b0b0b0; stroke-width: 0.8; stroke-linecap: square"/>
     </g>
     <g id="line2d_37">
      <g>
       <use xlink:href="#maf41d1c56e" x="49.25" y="129.759496" style="stroke: #000000; stroke-width: 0.8"/>
      </g>
     </g>
     <g id="text_7">
      <!-- 0 -->
      <g transform="translate(35.8875 133.558715) scale(0.1 -0.1)">
       <use xlink:href="#DejaVuSans-30"/>
      </g>
     </g>
    </g>
    <g id="text_8">
     <!-- V_B (mV) -->
     <g transform="translate(14.7875 188.106053) rotate(-90) scale(0.1 -0.1)">
      <defs>
       <path id="DejaVuSans-42" d="M 1259 2228 
L 1259 519 
L 2272 519 
Q 2781 519 3026 730 
Q 3272 941 3272 1375 
Q 3272 1813 3026 2020 
Q 2781 2228 2272 2228 
L 1259 2228 
z
M 1259 4147 
L 1259 2741 
L 2194 2741 
Q 2656 2741 2882 2914 
Q 3109 3088 3109 3444 
Q 3109 3797 2882 3972 
Q 2656 4147 2194 4147 
L 1259 4147 
z
M 628 4666 
L 2241 4666 
Q 2963 4666 3353 4366 
Q 3744 4066 3744 3513 
Q 3744 3084 3544 2831 
Q 3344 2578 2956 2516 
Q 3422 2416 3680 2098 
Q 3938 1781 3938 1306 
Q 3938 681 3513 340 
Q 3088 0 2303 0 
L 628 0 
L 628 4666 
z
" transform="scale(0.015625)"/>
      </defs>
      <use xlink:href="#DejaVuSans-56"/>
      <use xlink:href="#DejaVuSans-5f" transform="translate(68.408203 0)"/>
      <use xlink:href="#DejaVuSans-42" transform="translate(118.408203 0)"/>
      <use xlink:href="#DejaVuSans-20" transform="translate(187.011719 0)"/>
      <use xlink:href="#DejaVuSans-28" transform="translate(218.798828 0)"/>
      <use xlink:href="#DejaVuSans-6d" transform="translate(257.8125 0)"/>
      <use xlink:href="#DejaVuSans-56" transform="translate(355.224609 0)"/>
      <use xlink:href="#DejaVuSans-29" transform="translate(423.632812 0)"/>
     </g>
    </g>
   </g>
   <g id="line2d_38">
    <path d="M 72.534034 200.188547 
L 74.583029 198.942142 
L 77.004569 197.737706 
L 80.264333 196.385834 
L 103.827776 187.399712 
L 107.180677 186.479082 
L 110.347305 185.83587 
L 113.700206 185.38251 
L 117.798196 185.067689 
L 130.930392 184.235513 
L 133.63134 183.93739 
L 133.724476 129.759496 
L 133.817612 200.015937 
L 133.910748 199.844918 
L 135.587198 197.022882 
L 137.263649 194.636788 
L 138.940099 192.62489 
L 140.709686 190.852025 
L 142.479273 189.392197 
L 144.341995 188.149271 
L 146.204718 187.167844 
L 148.160577 186.379553 
L 150.302708 185.755973 
L 152.724247 185.294325 
L 155.518332 184.998987 
L 159.336913 184.841533 
L 160.733955 184.817515 
L 161.013364 184.021942 
L 161.1065 129.759496 
L 161.199636 199.712134 
L 161.292772 199.249012 
L 162.224133 195.266171 
L 163.155495 192.244084 
L 164.086856 189.941057 
L 165.018217 188.18161 
L 165.763307 186.889951 
L 166.601532 184.499679 
L 166.787804 184.059658 
L 166.88094 129.759496 
L 166.974076 199.761827 
L 167.067212 199.346196 
L 167.998574 195.734226 
L 168.929935 192.936488 
L 169.954433 190.566544 
L 170.233841 189.83777 
L 171.072066 187.040494 
L 171.910292 184.933433 
L 172.375972 183.998524 
L 172.469108 129.759496 
L 172.562245 199.812752 
L 172.655381 199.445905 
L 173.679878 195.937014 
L 175.07692 191.481822 
L 176.008282 188.346774 
L 176.939643 186.024269 
L 177.871004 184.309557 
L 178.057277 184.025751 
L 178.150413 129.759496 
L 178.243549 199.857826 
L 178.336685 199.534381 
L 180.013135 193.449333 
L 180.944497 190.148338 
L 181.875858 187.684398 
L 182.80722 185.851217 
L 183.738581 184.498964 
L 184.204262 183.967416 
L 184.297398 129.759496 
L 184.390534 199.905438 
L 184.48367 199.628169 
L 184.669942 198.857105 
L 185.601304 194.587804 
L 186.532665 191.392596 
L 187.464026 189.001768 
L 188.395388 187.221367 
L 189.326749 185.909231 
L 190.071838 184.934651 
L 190.351247 184.162106 
L 190.444383 129.759496 
L 190.537519 199.723489 
L 190.630655 199.271637 
L 191.562016 195.399075 
L 192.493378 192.488519 
L 193.424739 190.303773 
L 194.3561 188.672688 
L 195.287462 187.467316 
L 195.473734 187.268386 
L 196.311959 184.971551 
L 196.77764 183.987499 
L 196.870776 129.759496 
L 196.963912 199.79703 
L 197.057048 199.416153 
L 197.98841 196.13039 
L 198.919771 193.629179 
L 199.851133 191.72492 
L 200.782494 190.278351 
L 201.434447 189.267085 
L 202.272672 186.847427 
L 203.110897 185.084299 
L 203.855986 183.938616 
L 203.949122 129.759496 
L 204.042259 199.864302 
L 204.135395 199.548138 
L 205.066756 196.785678 
L 206.091254 194.438046 
L 207.115751 192.637044 
L 207.39516 192.221962 
L 208.233385 189.377093 
L 209.07161 187.251027 
L 209.909835 185.668606 
L 210.841197 184.391002 
L 211.213741 183.992184 
L 211.306877 129.759496 
L 211.400013 199.904139 
L 211.49315 199.625926 
L 212.517647 196.931857 
L 213.914689 193.435409 
L 214.752914 190.461233 
L 215.684276 187.971698 
L 216.615637 186.121932 
L 217.546998 184.747772 
L 218.198951 184.003054 
L 218.292087 129.759496 
L 218.385224 199.905869 
L 218.47836 199.628736 
L 219.595993 196.689646 
L 219.968538 195.604662 
L 220.899899 191.767868 
L 221.831261 188.879965 
L 222.762622 186.694006 
L 223.693983 185.032854 
L 224.439073 183.993603 
L 224.532209 129.759496 
L 224.625345 199.885156 
L 224.718481 199.587572 
L 225.836115 196.422562 
L 226.115523 195.493135 
L 227.046884 191.487347 
L 227.978246 188.455594 
L 228.909607 186.147282 
L 229.840968 184.38274 
L 230.120377 183.93884 
L 230.213513 129.759496 
L 230.306649 199.856227 
L 230.399785 199.530469 
L 231.517419 196.080087 
L 232.169372 194.167368 
L 233.100733 190.209048 
L 234.032095 187.219681 
L 234.963456 184.952401 
L 235.429137 184.032204 
L 235.522273 129.759496 
L 235.615409 199.823145 
L 235.708545 199.465441 
L 236.733043 195.988038 
L 237.850676 192.986744 
L 238.502629 191.308997 
L 239.43399 187.68885 
L 240.365352 184.990321 
L 240.737896 184.11436 
L 240.831032 129.759496 
L 240.924169 199.781671 
L 241.017305 199.384209 
L 242.041802 195.568504 
L 243.0663 192.596538 
L 244.090797 190.270893 
L 245.115295 188.447616 
L 245.580975 187.528927 
L 246.419201 184.771255 
L 246.698609 184.016517 
L 246.791745 129.759496 
L 246.884881 199.73626 
L 246.978018 199.295653 
L 247.909379 195.4654 
L 248.84074 192.504557 
L 249.772102 190.213943 
L 250.796599 188.294307 
L 251.821097 186.863909 
L 252.845594 185.815422 
L 253.870092 185.068 
L 254.056364 184.959373 
L 254.335772 184.14156 
L 254.428908 129.759496 
L 254.522045 199.708048 
L 254.615181 199.241346 
L 255.546542 195.249819 
L 256.477903 192.26565 
L 257.409265 190.043867 
L 258.340626 188.406144 
L 259.271987 187.220023 
L 260.203349 186.385459 
L 261.227846 185.782444 
L 262.252344 185.433661 
L 263.463114 185.267409 
L 264.860156 185.313414 
L 266.629742 185.610079 
L 269.33069 186.322705 
L 274.918858 187.832769 
L 277.712942 188.332253 
L 280.41389 188.588888 
L 283.207975 188.625621 
L 286.281467 188.438032 
L 290.193185 187.959551 
L 300.624432 186.33151 
L 316.457575 183.949959 
L 316.550711 129.759496 
L 316.643847 200.012116 
L 316.736984 199.837321 
L 318.320298 197.102799 
L 319.71734 194.704821 
L 320.648701 190.830679 
L 321.580063 187.931616 
L 322.511424 185.761294 
L 323.442785 184.143314 
L 323.535922 184.00662 
L 323.629058 129.759496 
L 323.722194 199.863781 
L 323.81533 199.54594 
L 324.839828 196.463086 
L 325.864325 194.018397 
L 326.981959 191.919793 
L 328.099592 190.288013 
L 329.217226 189.026543 
L 330.427996 187.99446 
L 331.638765 187.243307 
L 332.942671 186.688618 
L 334.339713 186.331712 
L 335.923028 186.165943 
L 337.692614 186.2179 
L 339.741609 186.515821 
L 342.256285 187.126044 
L 345.888594 188.266725 
L 352.035579 190.202479 
L 355.109072 190.918174 
L 357.903156 191.338553 
L 360.604104 191.518225 
L 363.398188 191.480052 
L 366.564817 191.208149 
L 371.128487 190.56526 
L 376.996064 189.775248 
L 380.442101 189.54575 
L 383.701866 189.553025 
L 387.241039 189.78772 
L 392.736071 190.41343 
L 395.437019 190.719645 
L 396.275244 188.430219 
L 397.113469 186.796161 
L 397.951695 185.656534 
L 398.78992 184.891708 
L 399.628145 184.411358 
L 400.559506 184.127985 
L 401.67714 184.039293 
L 402.981046 184.168899 
L 404.843769 184.603964 
L 409.128031 185.929157 
L 413.039749 187.001803 
L 417.137739 187.878915 
L 430.921887 190.626677 
L 436.789463 192.1744 
L 446.941302 194.886555 
L 450.946156 195.698745 
L 454.485329 196.191691 
L 457.745094 196.419477 
L 460.818587 196.410828 
L 463.798943 196.179558 
L 466.779299 195.720445 
L 469.759656 195.03401 
L 472.926284 194.070711 
L 474.509599 193.508622 
L 475.347824 190.718861 
L 476.186049 188.622033 
L 477.11741 186.898316 
L 478.048772 185.648608 
L 478.980133 184.748471 
L 480.004631 184.053684 
L 480.190903 183.953545 
L 480.284039 129.759496 
L 480.377175 199.957719 
L 480.470311 199.731062 
L 481.681081 197.12319 
L 482.333034 195.673775 
L 483.264395 192.020707 
L 484.195757 189.289345 
L 485.127118 187.240384 
L 486.05848 185.702421 
L 487.082977 184.452923 
L 487.548658 184.005487 
L 487.641794 129.759496 
L 487.73493 199.922451 
L 487.828066 199.661352 
L 488.293747 198.179258 
L 489.225108 194.017818 
L 490.15647 190.879128 
L 491.087831 188.503132 
L 492.019192 186.70331 
L 492.950554 185.343407 
L 494.068187 183.958775 
L 494.161323 129.759496 
L 494.25446 199.687838 
L 494.347596 199.201121 
L 495.278957 195.016727 
L 496.210318 191.845139 
L 497.14168 189.43398 
L 498.073041 187.600807 
L 499.004402 186.211169 
L 499.376947 185.565833 
L 499.935764 183.971073 
L 500.0289 129.759496 
L 500.122036 199.728654 
L 500.215172 199.28123 
L 501.146534 195.417747 
L 502.077895 192.465342 
L 503.009256 190.201572 
L 503.940618 188.463501 
L 504.685707 187.173082 
L 505.523932 184.725324 
L 505.80334 184.060932 
L 505.896477 129.759496 
L 505.989613 199.76537 
L 506.082749 199.3532 
L 507.01411 195.771976 
L 507.945472 192.999857 
L 508.969969 190.65343 
L 509.90133 188.615803 
L 510.739556 186.010897 
L 511.577781 184.055773 
L 511.670917 129.759496 
L 511.764053 199.794863 
L 511.857189 199.410731 
L 512.881687 195.744714 
L 513.906184 192.912262 
L 514.74441 190.673003 
L 515.675771 187.444548 
L 516.607132 185.042555 
L 517.072813 184.080531 
L 517.165949 129.759496 
L 517.259085 199.809637 
L 517.352221 199.439163 
L 518.376719 195.860022 
L 519.401216 192.450229 
L 520.332578 188.873024 
L 521.263939 186.158402 
L 522.1953 184.081511 
L 522.288437 129.759496 
L 522.381573 199.811297 
L 522.474709 199.441825 
L 525.82761 186.774751 
L 526.852107 184.297998 
L 526.945243 184.1042 
L 527.03838 129.759496 
L 527.131516 199.8046 
L 527.224652 199.428202 
L 527.876605 196.416274 
L 528.807966 191.974857 
L 529.739328 188.53661 
L 530.763825 185.613453 
L 531.415778 184.114289 
L 531.508914 129.759496 
L 531.60205 199.801779 
L 531.695186 199.221156 
L 532.626548 194.18179 
L 533.557909 190.276644 
L 534.582407 186.953862 
L 535.606904 183.955537 
L 535.70004 129.759496 
L 535.793176 199.621247 
L 535.886313 199.068443 
L 536.817674 194.249896 
L 537.749035 190.489308 
L 538.214716 188.922691 
L 538.214716 188.922691 
" clip-path="url(#pacb8681172)" style="fill: none; stroke: #1f77b4; stroke-width: 1.5; stroke-linecap: square"/>
   </g>
   <g id="patch_8">
    <path d="M 49.25 203.71 
L 49.25 126.238043 
" style="fill: none; stroke: #000000; stroke-width: 0.8; stroke-linejoin: miter; stroke-linecap: square"/>
   </g>
   <g id="patch_9">
    <path d="M 561.49875 203.71 
L 561.49875 126.238043 
" style="fill: none; stroke: #000000; stroke-width: 0.8; stroke-linejoin: miter; stroke-linecap: square"/>
   </g>
   <g id="patch_10">
    <path d="M 49.25 203.71 
L 561.49875 203.71 
" style="fill: none; stroke: #000000; stroke-width: 0.8; stroke-linejoin: miter; stroke-linecap: square"/>
   </g>
   <g id="patch_11">
    <path d="M 49.25 126.238043 
L 561.49875 126.238043 
" style="fill: none; stroke: #000000; stroke-width: 0.8; stroke-linejoin: miter; stroke-linecap: square"/>
   </g>
  </g>
  <g id="axes_3">
   <g id="patch_12">
    <path d="M 49.25 296.155 
L 561.49875 296.155 
L 561.49875 218.683043 
L 49.25 218.683043 
L 49.25 296.155 
z
" style="fill: none"/>
   </g>
   <g id="matplotlib.axis_5">
    <g id="xtick_13">
     <g id="line2d_39">
      <path d="M 72.534034 296.155 
L 72.534034 218.683043 
" clip-path="url(#p8d097f0db1)" style="fill: none; stroke: #b0b0b0; stroke-width: 0.8; stroke-linecap: square"/>
     </g>
     <g id="line2d_40">
      <g>
       <use xlink:href="#m6395b7539a" x="72.534034" y="296.155" style="stroke: #000000; stroke-width: 0.8"/>
      </g>
     </g>
    </g>
    <g id="xtick_14">
     <g id="line2d_41">
      <path d="M 165.67017 296.155 
L 165.67017 218.683043 
" clip-path="url(#p8d097f0db1)" style="fill: none; stroke: #b0b0b0; stroke-width: 0.8; stroke-linecap: square"/>
     </g>
     <g id="line2d_42">
      <g>
       <use xlink:href="#m6395b7539a" x="165.67017" y="296.155" style="stroke: #000000; stroke-width: 0.8"/>
      </g>
     </g>
    </g>
    <g id="xtick_15">
     <g id="line2d_43">
      <path d="M 258.806307 296.155 
L 258.806307 218.683043 
" clip-path="url(#p8d097f0db1)" style="fill: none; stroke: #b0b0b0; stroke-width: 0.8; stroke-linecap: square"/>
     </g>
     <g id="line2d_44">
      <g>
       <use xlink:href="#m6395b7539a" x="258.806307" y="296.155" style="stroke: #000000; stroke-width: 0.8"/>
      </g>
     </g>
    </g>
    <g id="xtick_16">
     <g id="line2d_45">
      <path d="M 351.942443 296.155 
L 351.942443 218.683043 
" clip-path="url(#p8d097f0db1)" style="fill: none; stroke: #b0b0b0; stroke-width: 0.8; stroke-linecap: square"/>
     </g>
     <g id="line2d_46">
      <g>
       <use xlink:href="#m6395b7539a" x="351.942443" y="296.155" style="stroke: #000000; stroke-width: 0.8"/>
      </g>
     </g>
    </g>
    <g id="xtick_17">
     <g id="line2d_47">
      <path d="M 445.07858 296.155 
L 445.07858 218.683043 
" clip-path="url(#p8d097f0db1)" style="fill: none; stroke: #b0b0b0; stroke-width: 0.8; stroke-linecap: square"/>
     </g>
     <g id="line2d_48">
      <g>
       <use xlink:href="#m6395b7539a" x="445.07858" y="296.155" style="stroke: #000000; stroke-width: 0.8"/>
      </g>
     </g>
    </g>
    <g id="xtick_18">
     <g id="line2d_49">
      <path d="M 538.214716 296.155 
L 538.214716 218.683043 
" clip-path="url(#p8d097f0db1)" style="fill: none; stroke: #b0b0b0; stroke-width: 0.8; stroke-linecap: square"/>
     </g>
     <g id="line2d_50">
      <g>
       <use xlink:href="#m6395b7539a" x="538.214716" y="296.155" style="stroke: #000000; stroke-width: 0.8"/>
      </g>
     </g>
    </g>
   </g>
   <g id="matplotlib.axis_6">
    <g id="ytick_7">
     <g id="line2d_51">
      <path d="M 49.25 292.633547 
L 561.49875 292.633547 
" clip-path="url(#p8d097f0db1)" style="fill: none; stroke: #b0b0b0; stroke-width: 0.8; stroke-linecap: square"/>
     </g>
     <g id="line2d_52">
      <g>
       <use xlink:href="#maf41d1c56e" x="49.25" y="292.633547" style="stroke: #000000; stroke-width: 0.8"/>
      </g>
     </g>
     <g id="text_9">
      <!-- 0.0 -->
      <g transform="translate(26.346875 296.432766) scale(0.1 -0.1)">
       <defs>
        <path id="DejaVuSans-2e" d="M 684 794 
L 1344 794 
L 1344 0 
L 684 0 
L 684 794 
z
" transform="scale(0.015625)"/>
       </defs>
       <use xlink:href="#DejaVuSans-30"/>
       <use xlink:href="#DejaVuSans-2e" transform="translate(63.623047 0)"/>
       <use xlink:href="#DejaVuSans-30" transform="translate(95.410156 0)"/>
      </g>
     </g>
    </g>
    <g id="ytick_8">
     <g id="line2d_53">
      <path d="M 49.25 257.419022 
L 561.49875 257.419022 
" clip-path="url(#p8d097f0db1)" style="fill: none; stroke: #b0b0b0; stroke-width: 0.8; stroke-linecap: square"/>
     </g>
     <g id="line2d_54">
      <g>
       <use xlink:href="#maf41d1c56e" x="49.25" y="257.419022" style="stroke: #000000; stroke-width: 0.8"/>
      </g>
     </g>
     <g id="text_10">
      <!-- 0.5 -->
      <g transform="translate(26.346875 261.21824) scale(0.1 -0.1)">
       <use xlink:href="#DejaVuSans-30"/>
       <use xlink:href="#DejaVuSans-2e" transform="translate(63.623047 0)"/>
       <use xlink:href="#DejaVuSans-35" transform="translate(95.410156 0)"/>
      </g>
     </g>
    </g>
    <g id="ytick_9">
     <g id="line2d_55">
      <path d="M 49.25 222.204496 
L 561.49875 222.204496 
" clip-path="url(#p8d097f0db1)" style="fill: none; stroke: #b0b0b0; stroke-width: 0.8; stroke-linecap: square"/>
     </g>
     <g id="line2d_56">
      <g>
       <use xlink:href="#maf41d1c56e" x="49.25" y="222.204496" style="stroke: #000000; stroke-width: 0.8"/>
      </g>
     </g>
     <g id="text_11">
      <!-- 1.0 -->
      <g transform="translate(26.346875 226.003715) scale(0.1 -0.1)">
       <defs>
        <path id="DejaVuSans-31" d="M 794 531 
L 1825 531 
L 1825 4091 
L 703 3866 
L 703 4441 
L 1819 4666 
L 2450 4666 
L 2450 531 
L 3481 531 
L 3481 0 
L 794 0 
L 794 531 
z
" transform="scale(0.015625)"/>
       </defs>
       <use xlink:href="#DejaVuSans-31"/>
       <use xlink:href="#DejaVuSans-2e" transform="translate(63.623047 0)"/>
       <use xlink:href="#DejaVuSans-30" transform="translate(95.410156 0)"/>
      </g>
     </g>
    </g>
    <g id="text_12">
     <!-- P_s (A to B) -->
     <g transform="translate(19.989062 286.077615) rotate(-90) scale(0.1 -0.1)">
      <defs>
       <path id="DejaVuSans-50" d="M 1259 4147 
L 1259 2394 
L 2053 2394 
Q 2494 2394 2734 2622 
Q 2975 2850 2975 3272 
Q 2975 3691 2734 3919 
Q 2494 4147 2053 4147 
L 1259 4147 
z
M 628 4666 
L 2053 4666 
Q 2838 4666 3239 4311 
Q 3641 3956 3641 3272 
Q 3641 2581 3239 2228 
Q 2838 1875 2053 1875 
L 1259 1875 
L 1259 0 
L 628 0 
L 628 4666 
z
" transform="scale(0.015625)"/>
       <path id="DejaVuSans-73" d="M 2834 3397 
L 2834 2853 
Q 2591 2978 2328 3040 
Q 2066 3103 1784 3103 
Q 1356 3103 1142 2972 
Q 928 2841 928 2578 
Q 928 2378 1081 2264 
Q 1234 2150 1697 2047 
L 1894 2003 
Q 2506 1872 2764 1633 
Q 3022 1394 3022 966 
Q 3022 478 2636 193 
Q 2250 -91 1575 -91 
Q 1294 -91 989 -36 
Q 684 19 347 128 
L 347 722 
Q 666 556 975 473 
Q 1284 391 1588 391 
Q 1994 391 2212 530 
Q 2431 669 2431 922 
Q 2431 1156 2273 1281 
Q 2116 1406 1581 1522 
L 1381 1569 
Q 847 1681 609 1914 
Q 372 2147 372 2553 
Q 372 3047 722 3315 
Q 1072 3584 1716 3584 
Q 2034 3584 2315 3537 
Q 2597 3491 2834 3397 
z
" transform="scale(0.015625)"/>
       <path id="DejaVuSans-74" d="M 1172 4494 
L 1172 3500 
L 2356 3500 
L 2356 3053 
L 1172 3053 
L 1172 1153 
Q 1172 725 1289 603 
Q 1406 481 1766 481 
L 2356 481 
L 2356 0 
L 1766 0 
Q 1100 0 847 248 
Q 594 497 594 1153 
L 594 3053 
L 172 3053 
L 172 3500 
L 594 3500 
L 594 4494 
L 1172 4494 
z
" transform="scale(0.015625)"/>
       <path id="DejaVuSans-6f" d="M 1959 3097 
Q 1497 3097 1228 2736 
Q 959 2375 959 1747 
Q 959 1119 1226 758 
Q 1494 397 1959 397 
Q 2419 397 2687 759 
Q 2956 1122 2956 1747 
Q 2956 2369 2687 2733 
Q 2419 3097 1959 3097 
z
M 1959 3584 
Q 2709 3584 3137 3096 
Q 3566 2609 3566 1747 
Q 3566 888 3137 398 
Q 2709 -91 1959 -91 
Q 1206 -91 779 398 
Q 353 888 353 1747 
Q 353 2609 779 3096 
Q 1206 3584 1959 3584 
z
" transform="scale(0.015625)"/>
      </defs>
      <use xlink:href="#DejaVuSans-50"/>
      <use xlink:href="#DejaVuSans-5f" transform="translate(60.302734 0)"/>
      <use xlink:href="#DejaVuSans-73" transform="translate(110.302734 0)"/>
      <use xlink:href="#DejaVuSans-20" transform="translate(162.402344 0)"/>
      <use xlink:href="#DejaVuSans-28" transform="translate(194.189453 0)"/>
      <use xlink:href="#DejaVuSans-41" transform="translate(233.203125 0)"/>
      <use xlink:href="#DejaVuSans-20" transform="translate(301.611328 0)"/>
      <use xlink:href="#DejaVuSans-74" transform="translate(333.398438 0)"/>
      <use xlink:href="#DejaVuSans-6f" transform="translate(372.607422 0)"/>
      <use xlink:href="#DejaVuSans-20" transform="translate(433.789062 0)"/>
      <use xlink:href="#DejaVuSans-42" transform="translate(465.576172 0)"/>
      <use xlink:href="#DejaVuSans-29" transform="translate(534.179688 0)"/>
     </g>
    </g>
   </g>
   <g id="line2d_57">
    <path d="M 72.534034 292.633547 
L 160.733955 292.633547 
L 160.827091 222.204496 
L 160.920228 223.613077 
L 161.944725 237.366693 
L 162.969223 248.379644 
L 163.99372 257.19806 
L 165.018217 264.259242 
L 165.67017 268.001088 
L 165.763307 222.204496 
L 165.856443 223.613077 
L 166.88094 237.366693 
L 167.905438 248.379644 
L 168.929935 257.19806 
L 169.954433 264.259242 
L 170.140705 265.382864 
L 170.233841 222.204496 
L 170.326977 223.613077 
L 171.351475 237.366693 
L 172.375972 248.379644 
L 173.40047 257.19806 
L 174.424967 264.259242 
L 174.61124 265.382864 
L 174.704376 222.204496 
L 174.797512 223.613077 
L 175.822009 237.366693 
L 176.846507 248.379644 
L 177.871004 257.19806 
L 178.895502 264.259242 
L 179.361182 266.985422 
L 179.454319 222.204496 
L 179.547455 223.613077 
L 180.571952 237.366693 
L 181.59645 248.379644 
L 182.620947 257.19806 
L 183.645445 264.259242 
L 184.576806 269.449674 
L 184.669942 222.204496 
L 184.763078 223.613077 
L 185.787576 237.366693 
L 186.812073 248.379644 
L 187.836571 257.19806 
L 188.861068 264.259242 
L 189.885566 269.913351 
L 189.978702 270.367755 
L 190.071838 222.204496 
L 190.164974 223.613077 
L 191.189472 237.366693 
L 192.213969 248.379644 
L 193.238467 257.19806 
L 194.262964 264.259242 
L 195.287462 269.913351 
L 195.473734 270.813071 
L 195.56687 222.204496 
L 195.660006 223.613077 
L 196.684504 237.366693 
L 197.709001 248.379644 
L 198.733499 257.19806 
L 199.757996 264.259242 
L 200.782494 269.913351 
L 201.341311 272.507035 
L 201.434447 222.204496 
L 201.527583 223.613077 
L 202.55208 237.366693 
L 203.576578 248.379644 
L 204.601075 257.19806 
L 205.625573 264.259242 
L 206.65007 269.913351 
L 207.39516 273.304045 
L 207.488296 222.204496 
L 207.581432 223.613077 
L 208.605929 237.366693 
L 209.630427 248.379644 
L 210.654924 257.19806 
L 211.679422 264.259242 
L 212.703919 269.913351 
L 213.635281 274.069493 
L 213.728417 222.204496 
L 213.821553 223.613077 
L 214.84605 237.366693 
L 215.870548 248.379644 
L 216.895045 257.19806 
L 217.919543 264.259242 
L 218.94404 269.913351 
L 219.875402 274.069493 
L 219.968538 222.204496 
L 220.061674 223.613077 
L 221.086172 237.366693 
L 222.110669 248.379644 
L 223.135167 257.19806 
L 224.159664 264.259242 
L 225.184162 269.913351 
L 226.022387 273.690635 
L 226.115523 222.204496 
L 226.208659 223.613077 
L 227.233157 237.366693 
L 228.257654 248.379644 
L 229.282152 257.19806 
L 230.306649 264.259242 
L 231.331147 269.913351 
L 232.076236 273.304045 
L 232.169372 222.204496 
L 232.262508 223.613077 
L 233.287005 237.366693 
L 234.311503 248.379644 
L 235.336 257.19806 
L 236.360498 264.259242 
L 237.384995 269.913351 
L 238.409493 274.440774 
L 238.502629 222.204496 
L 238.595765 223.613077 
L 239.620263 237.366693 
L 240.64476 248.379644 
L 241.669258 257.19806 
L 242.693755 264.259242 
L 243.718253 269.913351 
L 244.74275 274.440774 
L 245.487839 277.155809 
L 245.580975 222.204496 
L 245.674112 223.613077 
L 246.698609 237.366693 
L 247.723107 248.379644 
L 248.747604 257.19806 
L 249.772102 264.259242 
L 250.796599 269.913351 
L 251.821097 274.440774 
L 252.845594 278.066023 
L 253.963228 281.202168 
L 254.056364 281.430795 
L 254.1495 222.204496 
L 254.242636 223.613077 
L 255.267134 237.366693 
L 256.291631 248.379644 
L 257.316129 257.19806 
L 258.340626 264.259242 
L 259.365124 269.913351 
L 260.389621 274.440774 
L 261.414119 278.066023 
L 262.531752 281.202168 
L 263.649386 283.663153 
L 264.76702 285.594329 
L 265.884653 287.109755 
L 267.095423 288.385627 
L 268.399329 289.432137 
L 269.796371 290.269084 
L 271.379685 290.956382 
L 273.242408 291.513859 
L 275.477675 291.944065 
L 278.364895 292.264968 
L 282.462885 292.482024 
L 289.448096 292.600248 
L 309.565501 292.633124 
L 319.624204 292.6335 
L 319.71734 222.204496 
L 319.810476 223.613077 
L 320.834974 237.366693 
L 321.859471 248.379644 
L 322.883969 257.19806 
L 323.908466 264.259242 
L 324.932964 269.913351 
L 325.957461 274.440774 
L 326.981959 278.066023 
L 328.099592 281.202168 
L 329.217226 283.663153 
L 330.33486 285.594329 
L 331.452493 287.109755 
L 332.663263 288.385627 
L 333.967169 289.432137 
L 335.364211 290.269084 
L 336.947525 290.956382 
L 338.810248 291.513859 
L 341.045515 291.944065 
L 343.932735 292.264968 
L 348.030725 292.482024 
L 355.015936 292.600248 
L 375.133341 292.633124 
L 395.437019 292.633542 
L 395.530155 222.204496 
L 395.623291 223.613077 
L 396.647789 237.366693 
L 397.672286 248.379644 
L 398.696784 257.19806 
L 399.721281 264.259242 
L 400.745779 269.913351 
L 401.770276 274.440774 
L 402.794774 278.066023 
L 403.912407 281.202168 
L 405.030041 283.663153 
L 406.147675 285.594329 
L 407.265308 287.109755 
L 408.476078 288.385627 
L 409.779984 289.432137 
L 411.177026 290.269084 
L 412.76034 290.956382 
L 414.623063 291.513859 
L 416.85833 291.944065 
L 419.74555 292.264968 
L 423.84354 292.482024 
L 430.828751 292.600248 
L 450.946156 292.633124 
L 474.509599 292.633545 
L 474.602735 222.204496 
L 474.695871 223.613077 
L 475.720368 237.366693 
L 476.744866 248.379644 
L 477.769363 257.19806 
L 478.793861 264.259242 
L 479.818358 269.913351 
L 480.842856 274.440774 
L 481.867353 278.066023 
L 482.239898 279.196927 
L 482.333034 222.204496 
L 482.42617 223.613077 
L 483.450668 237.366693 
L 484.475165 248.379644 
L 485.499663 257.19806 
L 486.52416 264.259242 
L 487.548658 269.913351 
L 488.200611 272.909565 
L 488.293747 222.204496 
L 488.386883 223.613077 
L 489.41138 237.366693 
L 490.435878 248.379644 
L 491.460375 257.19806 
L 492.484873 264.259242 
L 493.50937 269.913351 
L 493.975051 272.09629 
L 494.068187 222.204496 
L 494.161323 223.613077 
L 495.185821 237.366693 
L 496.210318 248.379644 
L 497.234816 257.19806 
L 498.259313 264.259242 
L 499.283811 269.913351 
L 499.376947 222.204496 
L 499.470083 223.613077 
L 500.494581 237.366693 
L 501.519078 248.379644 
L 502.543576 257.19806 
L 503.568073 264.259242 
L 504.592571 269.913351 
L 504.685707 222.204496 
L 504.778843 223.613077 
L 505.80334 237.366693 
L 506.827838 248.379644 
L 507.852335 257.19806 
L 508.876833 264.259242 
L 509.715058 268.976533 
L 509.808194 222.204496 
L 509.90133 223.613077 
L 510.925828 237.366693 
L 511.950325 248.379644 
L 512.974823 257.19806 
L 513.99932 264.259242 
L 514.558137 267.498385 
L 514.651273 222.204496 
L 514.74441 223.613077 
L 515.768907 237.366693 
L 516.793405 248.379644 
L 517.817902 257.19806 
L 518.8424 264.259242 
L 519.121808 265.927878 
L 519.214944 222.204496 
L 519.30808 223.613077 
L 520.332578 237.366693 
L 521.357075 248.379644 
L 522.381573 257.19806 
L 523.40607 264.259242 
L 523.499206 264.826728 
L 523.592342 222.204496 
L 523.685479 223.613077 
L 524.709976 237.366693 
L 525.734474 248.379644 
L 526.758971 257.19806 
L 527.597196 263.089289 
L 527.690333 222.204496 
L 527.783469 223.613077 
L 528.807966 237.366693 
L 529.832464 248.379644 
L 530.856961 257.19806 
L 531.60205 262.486345 
L 531.695186 222.204496 
L 531.788323 223.613077 
L 532.81282 237.366693 
L 533.837318 248.379644 
L 534.861815 257.19806 
L 535.327496 260.602673 
L 535.420632 222.204496 
L 535.513768 223.613077 
L 536.538265 237.366693 
L 537.562763 248.379644 
L 538.214716 254.215604 
L 538.214716 254.215604 
" clip-path="url(#p8d097f0db1)" style="fill: none; stroke: #1f77b4; stroke-width: 1.5; stroke-linecap: square"/>
   </g>
   <g id="patch_13">
    <path d="M 49.25 296.155 
L 49.25 218.683043 
" style="fill: none; stroke: #000000; stroke-width: 0.8; stroke-linejoin: miter; stroke-linecap: square"/>
   </g>
   <g id="patch_14">
    <path d="M 561.49875 296.155 
L 561.49875 218.683043 
" style="fill: none; stroke: #000000; stroke-width: 0.8; stroke-linejoin: miter; stroke-linecap: square"/>
   </g>
   <g id="patch_15">
    <path d="M 49.25 296.155 
L 561.49875 296.155 
" style="fill: none; stroke: #000000; stroke-width: 0.8; stroke-linejoin: miter; stroke-linecap: square"/>
   </g>
   <g id="patch_16">
    <path d="M 49.25 218.683043 
L 561.49875 218.683043 
" style="fill: none; stroke: #000000; stroke-width: 0.8; stroke-linejoin: miter; stroke-linecap: square"/>
   </g>
  </g>
  <g id="axes_4">
   <g id="patch_17">
    <path d="M 49.25 388.6 
L 561.49875 388.6 
L 561.49875 311.128043 
L 49.25 311.128043 
L 49.25 388.6 
z
" style="fill: none"/>
   </g>
   <g id="matplotlib.axis_7">
    <g id="xtick_19">
     <g id="line2d_58">
      <path d="M 72.534034 388.6 
L 72.534034 311.128043 
" clip-path="url(#p6d23a18b45)" style="fill: none; stroke: #b0b0b0; stroke-width: 0.8; stroke-linecap: square"/>
     </g>
     <g id="line2d_59">
      <g>
       <use xlink:href="#m6395b7539a" x="72.534034" y="388.6" style="stroke: #000000; stroke-width: 0.8"/>
      </g>
     </g>
     <g id="text_13">
      <!-- 0 -->
      <g transform="translate(69.352784 403.198437) scale(0.1 -0.1)">
       <use xlink:href="#DejaVuSans-30"/>
      </g>
     </g>
    </g>
    <g id="xtick_20">
     <g id="line2d_60">
      <path d="M 165.67017 388.6 
L 165.67017 311.128043 
" clip-path="url(#p6d23a18b45)" style="fill: none; stroke: #b0b0b0; stroke-width: 0.8; stroke-linecap: square"/>
     </g>
     <g id="line2d_61">
      <g>
       <use xlink:href="#m6395b7539a" x="165.67017" y="388.6" style="stroke: #000000; stroke-width: 0.8"/>
      </g>
     </g>
     <g id="text_14">
      <!-- 100 -->
      <g transform="translate(156.12642 403.198437) scale(0.1 -0.1)">
       <use xlink:href="#DejaVuSans-31"/>
       <use xlink:href="#DejaVuSans-30" transform="translate(63.623047 0)"/>
       <use xlink:href="#DejaVuSans-30" transform="translate(127.246094 0)"/>
      </g>
     </g>
    </g>
    <g id="xtick_21">
     <g id="line2d_62">
      <path d="M 258.806307 388.6 
L 258.806307 311.128043 
" clip-path="url(#p6d23a18b45)" style="fill: none; stroke: #b0b0b0; stroke-width: 0.8; stroke-linecap: square"/>
     </g>
     <g id="line2d_63">
      <g>
       <use xlink:href="#m6395b7539a" x="258.806307" y="388.6" style="stroke: #000000; stroke-width: 0.8"/>
      </g>
     </g>
     <g id="text_15">
      <!-- 200 -->
      <g transform="translate(249.262557 403.198437) scale(0.1 -0.1)">
       <use xlink:href="#DejaVuSans-32"/>
       <use xlink:href="#DejaVuSans-30" transform="translate(63.623047 0)"/>
       <use xlink:href="#DejaVuSans-30" transform="translate(127.246094 0)"/>
      </g>
     </g>
    </g>
    <g id="xtick_22">
     <g id="line2d_64">
      <path d="M 351.942443 388.6 
L 351.942443 311.128043 
" clip-path="url(#p6d23a18b45)" style="fill: none; stroke: #b0b0b0; stroke-width: 0.8; stroke-linecap: square"/>
     </g>
     <g id="line2d_65">
      <g>
       <use xlink:href="#m6395b7539a" x="351.942443" y="388.6" style="stroke: #000000; stroke-width: 0.8"/>
      </g>
     </g>
     <g id="text_16">
      <!-- 300 -->
      <g transform="translate(342.398693 403.198437) scale(0.1 -0.1)">
       <defs>
        <path id="DejaVuSans-33" d="M 2597 2516 
Q 3050 2419 3304 2112 
Q 3559 1806 3559 1356 
Q 3559 666 3084 287 
Q 2609 -91 1734 -91 
Q 1441 -91 1130 -33 
Q 819 25 488 141 
L 488 750 
Q 750 597 1062 519 
Q 1375 441 1716 441 
Q 2309 441 2620 675 
Q 2931 909 2931 1356 
Q 2931 1769 2642 2001 
Q 2353 2234 1838 2234 
L 1294 2234 
L 1294 2753 
L 1863 2753 
Q 2328 2753 2575 2939 
Q 2822 3125 2822 3475 
Q 2822 3834 2567 4026 
Q 2313 4219 1838 4219 
Q 1578 4219 1281 4162 
Q 984 4106 628 3988 
L 628 4550 
Q 988 4650 1302 4700 
Q 1616 4750 1894 4750 
Q 2613 4750 3031 4423 
Q 3450 4097 3450 3541 
Q 3450 3153 3228 2886 
Q 3006 2619 2597 2516 
z
" transform="scale(0.015625)"/>
       </defs>
       <use xlink:href="#DejaVuSans-33"/>
       <use xlink:href="#DejaVuSans-30" transform="translate(63.623047 0)"/>
       <use xlink:href="#DejaVuSans-30" transform="translate(127.246094 0)"/>
      </g>
     </g>
    </g>
    <g id="xtick_23">
     <g id="line2d_66">
      <path d="M 445.07858 388.6 
L 445.07858 311.128043 
" clip-path="url(#p6d23a18b45)" style="fill: none; stroke: #b0b0b0; stroke-width: 0.8; stroke-linecap: square"/>
     </g>
     <g id="line2d_67">
      <g>
       <use xlink:href="#m6395b7539a" x="445.07858" y="388.6" style="stroke: #000000; stroke-width: 0.8"/>
      </g>
     </g>
     <g id="text_17">
      <!-- 400 -->
      <g transform="translate(435.53483 403.198437) scale(0.1 -0.1)">
       <defs>
        <path id="DejaVuSans-34" d="M 2419 4116 
L 825 1625 
L 2419 1625 
L 2419 4116 
z
M 2253 4666 
L 3047 4666 
L 3047 1625 
L 3713 1625 
L 3713 1100 
L 3047 1100 
L 3047 0 
L 2419 0 
L 2419 1100 
L 313 1100 
L 313 1709 
L 2253 4666 
z
" transform="scale(0.015625)"/>
       </defs>
       <use xlink:href="#DejaVuSans-34"/>
       <use xlink:href="#DejaVuSans-30" transform="translate(63.623047 0)"/>
       <use xlink:href="#DejaVuSans-30" transform="translate(127.246094 0)"/>
      </g>
     </g>
    </g>
    <g id="xtick_24">
     <g id="line2d_68">
      <path d="M 538.214716 388.6 
L 538.214716 311.128043 
" clip-path="url(#p6d23a18b45)" style="fill: none; stroke: #b0b0b0; stroke-width: 0.8; stroke-linecap: square"/>
     </g>
     <g id="line2d_69">
      <g>
       <use xlink:href="#m6395b7539a" x="538.214716" y="388.6" style="stroke: #000000; stroke-width: 0.8"/>
      </g>
     </g>
     <g id="text_18">
      <!-- 500 -->
      <g transform="translate(528.670966 403.198437) scale(0.1 -0.1)">
       <use xlink:href="#DejaVuSans-35"/>
       <use xlink:href="#DejaVuSans-30" transform="translate(63.623047 0)"/>
       <use xlink:href="#DejaVuSans-30" transform="translate(127.246094 0)"/>
      </g>
     </g>
    </g>
    <g id="text_19">
     <!-- Time (ms) -->
     <g transform="translate(280.175156 416.876562) scale(0.1 -0.1)">
      <defs>
       <path id="DejaVuSans-54" d="M -19 4666 
L 3928 4666 
L 3928 4134 
L 2272 4134 
L 2272 0 
L 1638 0 
L 1638 4134 
L -19 4134 
L -19 4666 
z
" transform="scale(0.015625)"/>
       <path id="DejaVuSans-69" d="M 603 3500 
L 1178 3500 
L 1178 0 
L 603 0 
L 603 3500 
z
M 603 4863 
L 1178 4863 
L 1178 4134 
L 603 4134 
L 603 4863 
z
" transform="scale(0.015625)"/>
       <path id="DejaVuSans-65" d="M 3597 1894 
L 3597 1613 
L 953 1613 
Q 991 1019 1311 708 
Q 1631 397 2203 397 
Q 2534 397 2845 478 
Q 3156 559 3463 722 
L 3463 178 
Q 3153 47 2828 -22 
Q 2503 -91 2169 -91 
Q 1331 -91 842 396 
Q 353 884 353 1716 
Q 353 2575 817 3079 
Q 1281 3584 2069 3584 
Q 2775 3584 3186 3129 
Q 3597 2675 3597 1894 
z
M 3022 2063 
Q 3016 2534 2758 2815 
Q 2500 3097 2075 3097 
Q 1594 3097 1305 2825 
Q 1016 2553 972 2059 
L 3022 2063 
z
" transform="scale(0.015625)"/>
      </defs>
      <use xlink:href="#DejaVuSans-54"/>
      <use xlink:href="#DejaVuSans-69" transform="translate(57.958984 0)"/>
      <use xlink:href="#DejaVuSans-6d" transform="translate(85.742188 0)"/>
      <use xlink:href="#DejaVuSans-65" transform="translate(183.154297 0)"/>
      <use xlink:href="#DejaVuSans-20" transform="translate(244.677734 0)"/>
      <use xlink:href="#DejaVuSans-28" transform="translate(276.464844 0)"/>
      <use xlink:href="#DejaVuSans-6d" transform="translate(315.478516 0)"/>
      <use xlink:href="#DejaVuSans-73" transform="translate(412.890625 0)"/>
      <use xlink:href="#DejaVuSans-29" transform="translate(464.990234 0)"/>
     </g>
    </g>
   </g>
   <g id="matplotlib.axis_8">
    <g id="ytick_10">
     <g id="line2d_70">
      <path d="M 49.25 385.078547 
L 561.49875 385.078547 
" clip-path="url(#p6d23a18b45)" style="fill: none; stroke: #b0b0b0; stroke-width: 0.8; stroke-linecap: square"/>
     </g>
     <g id="line2d_71">
      <g>
       <use xlink:href="#maf41d1c56e" x="49.25" y="385.078547" style="stroke: #000000; stroke-width: 0.8"/>
      </g>
     </g>
     <g id="text_20">
      <!-- 0.0 -->
      <g transform="translate(26.346875 388.877766) scale(0.1 -0.1)">
       <use xlink:href="#DejaVuSans-30"/>
       <use xlink:href="#DejaVuSans-2e" transform="translate(63.623047 0)"/>
       <use xlink:href="#DejaVuSans-30" transform="translate(95.410156 0)"/>
      </g>
     </g>
    </g>
    <g id="ytick_11">
     <g id="line2d_72">
      <path d="M 49.25 349.864022 
L 561.49875 349.864022 
" clip-path="url(#p6d23a18b45)" style="fill: none; stroke: #b0b0b0; stroke-width: 0.8; stroke-linecap: square"/>
     </g>
     <g id="line2d_73">
      <g>
       <use xlink:href="#maf41d1c56e" x="49.25" y="349.864022" style="stroke: #000000; stroke-width: 0.8"/>
      </g>
     </g>
     <g id="text_21">
      <!-- 0.5 -->
      <g transform="translate(26.346875 353.66324) scale(0.1 -0.1)">
       <use xlink:href="#DejaVuSans-30"/>
       <use xlink:href="#DejaVuSans-2e" transform="translate(63.623047 0)"/>
       <use xlink:href="#DejaVuSans-35" transform="translate(95.410156 0)"/>
      </g>
     </g>
    </g>
    <g id="ytick_12">
     <g id="line2d_74">
      <path d="M 49.25 314.649496 
L 561.49875 314.649496 
" clip-path="url(#p6d23a18b45)" style="fill: none; stroke: #b0b0b0; stroke-width: 0.8; stroke-linecap: square"/>
     </g>
     <g id="line2d_75">
      <g>
       <use xlink:href="#maf41d1c56e" x="49.25" y="314.649496" style="stroke: #000000; stroke-width: 0.8"/>
      </g>
     </g>
     <g id="text_22">
      <!-- 1.0 -->
      <g transform="translate(26.346875 318.448715) scale(0.1 -0.1)">
       <use xlink:href="#DejaVuSans-31"/>
       <use xlink:href="#DejaVuSans-2e" transform="translate(63.623047 0)"/>
       <use xlink:href="#DejaVuSans-30" transform="translate(95.410156 0)"/>
      </g>
     </g>
    </g>
    <g id="text_23">
     <!-- P_s (B to A) -->
     <g transform="translate(19.989062 378.522615) rotate(-90) scale(0.1 -0.1)">
      <use xlink:href="#DejaVuSans-50"/>
      <use xlink:href="#DejaVuSans-5f" transform="translate(60.302734 0)"/>
      <use xlink:href="#DejaVuSans-73" transform="translate(110.302734 0)"/>
      <use xlink:href="#DejaVuSans-20" transform="translate(162.402344 0)"/>
      <use xlink:href="#DejaVuSans-28" transform="translate(194.189453 0)"/>
      <use xlink:href="#DejaVuSans-42" transform="translate(233.203125 0)"/>
      <use xlink:href="#DejaVuSans-20" transform="translate(301.806641 0)"/>
      <use xlink:href="#DejaVuSans-74" transform="translate(333.59375 0)"/>
      <use xlink:href="#DejaVuSans-6f" transform="translate(372.802734 0)"/>
      <use xlink:href="#DejaVuSans-20" transform="translate(433.984375 0)"/>
      <use xlink:href="#DejaVuSans-41" transform="translate(465.771484 0)"/>
      <use xlink:href="#DejaVuSans-29" transform="translate(534.179688 0)"/>
     </g>
    </g>
   </g>
   <g id="line2d_76">
    <path d="M 72.534034 385.078547 
L 133.63134 385.078547 
L 133.724476 314.649496 
L 133.817612 316.058077 
L 134.842109 329.811693 
L 135.866607 340.824644 
L 136.891104 349.64306 
L 137.915602 356.704242 
L 138.940099 362.358351 
L 139.964597 366.885774 
L 140.989094 370.511023 
L 142.106728 373.647168 
L 143.224362 376.108153 
L 144.341995 378.039329 
L 145.459629 379.554755 
L 146.670399 380.830627 
L 147.974305 381.877137 
L 149.371347 382.714084 
L 150.954661 383.401382 
L 152.817384 383.958859 
L 155.052651 384.389065 
L 157.939871 384.709968 
L 161.013364 384.889317 
L 161.1065 314.649496 
L 161.199636 316.058077 
L 162.224133 329.811693 
L 163.248631 340.824644 
L 164.273128 349.64306 
L 165.297626 356.704242 
L 166.322123 362.358351 
L 166.787804 364.54129 
L 166.88094 314.649496 
L 166.974076 316.058077 
L 167.998574 329.811693 
L 169.023071 340.824644 
L 170.047569 349.64306 
L 171.072066 356.704242 
L 172.096564 362.358351 
L 172.375972 363.694481 
L 172.469108 314.649496 
L 172.562245 316.058077 
L 173.586742 329.811693 
L 174.61124 340.824644 
L 175.635737 349.64306 
L 176.660235 356.704242 
L 177.684732 362.358351 
L 178.057277 364.122162 
L 178.150413 314.649496 
L 178.243549 316.058077 
L 179.268046 329.811693 
L 180.292544 340.824644 
L 181.317041 349.64306 
L 182.341539 356.704242 
L 183.366036 362.358351 
L 184.204262 366.135635 
L 184.297398 314.649496 
L 184.390534 316.058077 
L 185.415031 329.811693 
L 186.439529 340.824644 
L 187.464026 349.64306 
L 188.488524 356.704242 
L 189.513021 362.358351 
L 190.351247 366.135635 
L 190.444383 314.649496 
L 190.537519 316.058077 
L 191.562016 329.811693 
L 192.586514 340.824644 
L 193.611011 349.64306 
L 194.635509 356.704242 
L 195.660006 362.358351 
L 196.684504 366.885774 
L 196.77764 367.249629 
L 196.870776 314.649496 
L 196.963912 316.058077 
L 197.98841 329.811693 
L 199.012907 340.824644 
L 200.037405 349.64306 
L 201.061902 356.704242 
L 202.0864 362.358351 
L 203.110897 366.885774 
L 203.855986 369.600809 
L 203.949122 314.649496 
L 204.042259 316.058077 
L 205.066756 329.811693 
L 206.091254 340.824644 
L 207.115751 349.64306 
L 208.140249 356.704242 
L 209.164746 362.358351 
L 210.189244 366.885774 
L 211.213741 370.511023 
L 211.306877 314.649496 
L 211.400013 316.058077 
L 212.424511 329.811693 
L 213.449008 340.824644 
L 214.473506 349.64306 
L 215.498003 356.704242 
L 216.522501 362.358351 
L 217.546998 366.885774 
L 218.198951 369.284936 
L 218.292087 314.649496 
L 218.385224 316.058077 
L 219.409721 329.811693 
L 220.434219 340.824644 
L 221.458716 349.64306 
L 222.483214 356.704242 
L 223.507711 362.358351 
L 224.439073 366.514493 
L 224.532209 314.649496 
L 224.625345 316.058077 
L 225.649842 329.811693 
L 226.67434 340.824644 
L 227.698837 349.64306 
L 228.723335 356.704242 
L 229.747832 362.358351 
L 230.120377 364.122162 
L 230.213513 314.649496 
L 230.306649 316.058077 
L 231.331147 329.811693 
L 232.355644 340.824644 
L 233.380142 349.64306 
L 234.404639 356.704242 
L 235.429137 362.358351 
L 235.522273 314.649496 
L 235.615409 316.058077 
L 236.639906 329.811693 
L 237.664404 340.824644 
L 238.688901 349.64306 
L 239.713399 356.704242 
L 240.737896 362.358351 
L 240.831032 314.649496 
L 240.924169 316.058077 
L 241.948666 329.811693 
L 242.973164 340.824644 
L 243.997661 349.64306 
L 245.022159 356.704242 
L 246.046656 362.358351 
L 246.698609 365.354565 
L 246.791745 314.649496 
L 246.884881 316.058077 
L 247.909379 329.811693 
L 248.933876 340.824644 
L 249.958374 349.64306 
L 250.982871 356.704242 
L 252.007369 362.358351 
L 253.031866 366.885774 
L 254.056364 370.511023 
L 254.335772 371.36771 
L 254.428908 314.649496 
L 254.522045 316.058077 
L 255.546542 329.811693 
L 256.57104 340.824644 
L 257.595537 349.64306 
L 258.620035 356.704242 
L 259.644532 362.358351 
L 260.66903 366.885774 
L 261.693527 370.511023 
L 262.811161 373.647168 
L 263.928794 376.108153 
L 265.046428 378.039329 
L 266.164062 379.554755 
L 267.374831 380.830627 
L 268.678737 381.877137 
L 270.075779 382.714084 
L 271.659094 383.401382 
L 273.521816 383.958859 
L 275.757084 384.389065 
L 278.644304 384.709968 
L 282.742294 384.927024 
L 289.727504 385.045248 
L 309.84491 385.078124 
L 316.457575 385.078446 
L 316.550711 314.649496 
L 316.643847 316.058077 
L 317.668345 329.811693 
L 318.692842 340.824644 
L 319.71734 349.64306 
L 320.741837 356.704242 
L 321.766335 362.358351 
L 322.790832 366.885774 
L 323.535922 369.600809 
L 323.629058 314.649496 
L 323.722194 316.058077 
L 324.746691 329.811693 
L 325.771189 340.824644 
L 326.795686 349.64306 
L 327.820184 356.704242 
L 328.844681 362.358351 
L 329.869179 366.885774 
L 330.893676 370.511023 
L 332.01131 373.647168 
L 333.128944 376.108153 
L 334.246577 378.039329 
L 335.364211 379.554755 
L 336.574981 380.830627 
L 337.878887 381.877137 
L 339.275929 382.714084 
L 340.859243 383.401382 
L 342.721966 383.958859 
L 344.957233 384.389065 
L 347.844453 384.709968 
L 351.942443 384.927024 
L 358.927653 385.045248 
L 379.045059 385.078124 
L 480.190903 385.078547 
L 480.284039 314.649496 
L 480.377175 316.058077 
L 481.401673 329.811693 
L 482.42617 340.824644 
L 483.450668 349.64306 
L 484.475165 356.704242 
L 485.499663 362.358351 
L 486.52416 366.885774 
L 487.548658 370.511023 
L 487.641794 314.649496 
L 487.73493 316.058077 
L 488.759427 329.811693 
L 489.783925 340.824644 
L 490.808422 349.64306 
L 491.83292 356.704242 
L 492.857417 362.358351 
L 493.881915 366.885774 
L 494.068187 367.606208 
L 494.161323 314.649496 
L 494.25446 316.058077 
L 495.278957 329.811693 
L 496.303455 340.824644 
L 497.327952 349.64306 
L 498.35245 356.704242 
L 499.376947 362.358351 
L 499.935764 364.952035 
L 500.0289 314.649496 
L 500.122036 316.058077 
L 501.146534 329.811693 
L 502.171031 340.824644 
L 503.195529 349.64306 
L 504.220026 356.704242 
L 505.244524 362.358351 
L 505.80334 364.952035 
L 505.896477 314.649496 
L 505.989613 316.058077 
L 507.01411 329.811693 
L 508.038608 340.824644 
L 509.063105 349.64306 
L 510.087603 356.704242 
L 511.1121 362.358351 
L 511.577781 364.54129 
L 511.670917 314.649496 
L 511.764053 316.058077 
L 512.788551 329.811693 
L 513.813048 340.824644 
L 514.837546 349.64306 
L 515.862043 356.704242 
L 516.886541 362.358351 
L 517.072813 363.258071 
L 517.165949 314.649496 
L 517.259085 316.058077 
L 518.283583 329.811693 
L 519.30808 340.824644 
L 520.332578 349.64306 
L 521.357075 356.704242 
L 522.1953 361.421533 
L 522.288437 314.649496 
L 522.381573 316.058077 
L 523.40607 329.811693 
L 524.430568 340.824644 
L 525.455065 349.64306 
L 526.479563 356.704242 
L 526.945243 359.430422 
L 527.03838 314.649496 
L 527.131516 316.058077 
L 528.156013 329.811693 
L 529.180511 340.824644 
L 530.205008 349.64306 
L 531.229506 356.704242 
L 531.415778 357.827864 
L 531.508914 314.649496 
L 531.60205 316.058077 
L 532.626548 329.811693 
L 533.651045 340.824644 
L 534.675543 349.64306 
L 535.606904 356.125174 
L 535.70004 314.649496 
L 535.793176 316.058077 
L 536.817674 329.811693 
L 537.842171 340.824644 
L 538.214716 344.260156 
L 538.214716 344.260156 
" clip-path="url(#p6d23a18b45)" style="fill: none; stroke: #1f77b4; stroke-width: 1.5; stroke-linecap: square"/>
   </g>
   <g id="patch_18">
    <path d="M 49.25 388.6 
L 49.25 311.128043 
" style="fill: none; stroke: #000000; stroke-width: 0.8; stroke-linejoin: miter; stroke-linecap: square"/>
   </g>
   <g id="patch_19">
    <path d="M 561.49875 388.6 
L 561.49875 311.128043 
" style="fill: none; stroke: #000000; stroke-width: 0.8; stroke-linejoin: miter; stroke-linecap: square"/>
   </g>
   <g id="patch_20">
    <path d="M 49.25 388.6 
L 561.49875 388.6 
" style="fill: none; stroke: #000000; stroke-width: 0.8; stroke-linejoin: miter; stroke-linecap: square"/>
   </g>
   <g id="patch_21">
    <path d="M 49.25 311.128043 
L 561.49875 311.128043 
" style="fill: none; stroke: #000000; stroke-width: 0.8; stroke-linejoin: miter; stroke-linecap: square"/>
   </g>
  </g>
  <g id="text_24">
   <!-- Excitatory both -->
   <g transform="translate(238.483125 16.318125) scale(0.12 -0.12)">
    <defs>
     <path id="DejaVuSans-45" d="M 628 4666 
L 3578 4666 
L 3578 4134 
L 1259 4134 
L 1259 2753 
L 3481 2753 
L 3481 2222 
L 1259 2222 
L 1259 531 
L 3634 531 
L 3634 0 
L 628 0 
L 628 4666 
z
" transform="scale(0.015625)"/>
     <path id="DejaVuSans-78" d="M 3513 3500 
L 2247 1797 
L 3578 0 
L 2900 0 
L 1881 1375 
L 863 0 
L 184 0 
L 1544 1831 
L 300 3500 
L 978 3500 
L 1906 2253 
L 2834 3500 
L 3513 3500 
z
" transform="scale(0.015625)"/>
     <path id="DejaVuSans-63" d="M 3122 3366 
L 3122 2828 
Q 2878 2963 2633 3030 
Q 2388 3097 2138 3097 
Q 1578 3097 1268 2742 
Q 959 2388 959 1747 
Q 959 1106 1268 751 
Q 1578 397 2138 397 
Q 2388 397 2633 464 
Q 2878 531 3122 666 
L 3122 134 
Q 2881 22 2623 -34 
Q 2366 -91 2075 -91 
Q 1284 -91 818 406 
Q 353 903 353 1747 
Q 353 2603 823 3093 
Q 1294 3584 2113 3584 
Q 2378 3584 2631 3529 
Q 2884 3475 3122 3366 
z
" transform="scale(0.015625)"/>
     <path id="DejaVuSans-61" d="M 2194 1759 
Q 1497 1759 1228 1600 
Q 959 1441 959 1056 
Q 959 750 1161 570 
Q 1363 391 1709 391 
Q 2188 391 2477 730 
Q 2766 1069 2766 1631 
L 2766 1759 
L 2194 1759 
z
M 3341 1997 
L 3341 0 
L 2766 0 
L 2766 531 
Q 2569 213 2275 61 
Q 1981 -91 1556 -91 
Q 1019 -91 701 211 
Q 384 513 384 1019 
Q 384 1609 779 1909 
Q 1175 2209 1959 2209 
L 2766 2209 
L 2766 2266 
Q 2766 2663 2505 2880 
Q 2244 3097 1772 3097 
Q 1472 3097 1187 3025 
Q 903 2953 641 2809 
L 641 3341 
Q 956 3463 1253 3523 
Q 1550 3584 1831 3584 
Q 2591 3584 2966 3190 
Q 3341 2797 3341 1997 
z
" transform="scale(0.015625)"/>
     <path id="DejaVuSans-72" d="M 2631 2963 
Q 2534 3019 2420 3045 
Q 2306 3072 2169 3072 
Q 1681 3072 1420 2755 
Q 1159 2438 1159 1844 
L 1159 0 
L 581 0 
L 581 3500 
L 1159 3500 
L 1159 2956 
Q 1341 3275 1631 3429 
Q 1922 3584 2338 3584 
Q 2397 3584 2469 3576 
Q 2541 3569 2628 3553 
L 2631 2963 
z
" transform="scale(0.015625)"/>
     <path id="DejaVuSans-79" d="M 2059 -325 
Q 1816 -950 1584 -1140 
Q 1353 -1331 966 -1331 
L 506 -1331 
L 506 -850 
L 844 -850 
Q 1081 -850 1212 -737 
Q 1344 -625 1503 -206 
L 1606 56 
L 191 3500 
L 800 3500 
L 1894 763 
L 2988 3500 
L 3597 3500 
L 2059 -325 
z
" transform="scale(0.015625)"/>
     <path id="DejaVuSans-62" d="M 3116 1747 
Q 3116 2381 2855 2742 
Q 2594 3103 2138 3103 
Q 1681 3103 1420 2742 
Q 1159 2381 1159 1747 
Q 1159 1113 1420 752 
Q 1681 391 2138 391 
Q 2594 391 2855 752 
Q 3116 1113 3116 1747 
z
M 1159 2969 
Q 1341 3281 1617 3432 
Q 1894 3584 2278 3584 
Q 2916 3584 3314 3078 
Q 3713 2572 3713 1747 
Q 3713 922 3314 415 
Q 2916 -91 2278 -91 
Q 1894 -91 1617 61 
Q 1341 213 1159 525 
L 1159 0 
L 581 0 
L 581 4863 
L 1159 4863 
L 1159 2969 
z
" transform="scale(0.015625)"/>
     <path id="DejaVuSans-68" d="M 3513 2113 
L 3513 0 
L 2938 0 
L 2938 2094 
Q 2938 2591 2744 2837 
Q 2550 3084 2163 3084 
Q 1697 3084 1428 2787 
Q 1159 2491 1159 1978 
L 1159 0 
L 581 0 
L 581 4863 
L 1159 4863 
L 1159 2956 
Q 1366 3272 1645 3428 
Q 1925 3584 2291 3584 
Q 2894 3584 3203 3211 
Q 3513 2838 3513 2113 
z
" transform="scale(0.015625)"/>
    </defs>
    <use xlink:href="#DejaVuSans-45"/>
    <use xlink:href="#DejaVuSans-78" transform="translate(63.183594 0)"/>
    <use xlink:href="#DejaVuSans-63" transform="translate(120.613281 0)"/>
    <use xlink:href="#DejaVuSans-69" transform="translate(175.59375 0)"/>
    <use xlink:href="#DejaVuSans-74" transform="translate(203.376953 0)"/>
    <use xlink:href="#DejaVuSans-61" transform="translate(242.585938 0)"/>
    <use xlink:href="#DejaVuSans-74" transform="translate(303.865234 0)"/>
    <use xlink:href="#DejaVuSans-6f" transform="translate(343.074219 0)"/>
    <use xlink:href="#DejaVuSans-72" transform="translate(404.255859 0)"/>
    <use xlink:href="#DejaVuSans-79" transform="translate(445.369141 0)"/>
    <use xlink:href="#DejaVuSans-20" transform="translate(504.548828 0)"/>
    <use xlink:href="#DejaVuSans-62" transform="translate(536.335938 0)"/>
    <use xlink:href="#DejaVuSans-6f" transform="translate(599.8125 0)"/>
    <use xlink:href="#DejaVuSans-74" transform="translate(660.994141 0)"/>
    <use xlink:href="#DejaVuSans-68" transform="translate(700.203125 0)"/>
   </g>
  </g>
 </g>
 <defs>
  <clipPath id="p2736dbc41c">
   <rect x="49.25" y="33.793043" width="512.24875" height="77.471957"/>
  </clipPath>
  <clipPath id="pacb8681172">
   <rect x="49.25" y="126.238043" width="512.24875" height="77.471957"/>
  </clipPath>
  <clipPath id="p8d097f0db1">
   <rect x="49.25" y="218.683043" width="512.24875" height="77.471957"/>
  </clipPath>
  <clipPath id="p6d23a18b45">
   <rect x="49.25" y="311.128043" width="512.24875" height="77.471957"/>
  </clipPath>
 </defs>
</svg>
