<?xml version="1.0" encoding="utf-8" standalone="no"?>
<!DOCTYPE svg PUBLIC "-//W3C//DTD SVG 1.1//EN"
  "http://www.w3.org/Graphics/SVG/1.1/DTD/svg11.dtd">
<svg xmlns:xlink="http://www.w3.org/1999/xlink" width="568.789375pt" height="426.15625pt" viewBox="0 0 568.789375 426.15625" xmlns="http://www.w3.org/2000/svg" version="1.1">
 <metadata>
  <rdf:RDF xmlns:dc="http://purl.org/dc/elements/1.1/" xmlns:cc="http://creativecommons.org/ns#" xmlns:rdf="http://www.w3.org/1999/02/22-rdf-syntax-ns#">
   <cc:Work>
    <dc:type rdf:resource="http://purl.org/dc/dcmitype/StillImage"/>
    <dc:date>2025-05-18T02:20:10.660868</dc:date>
    <dc:format>image/svg+xml</dc:format>
    <dc:creator>
     <cc:Agent>
      <dc:title>Matplotlib v3.10.1, https://matplotlib.org/</dc:title>
     </cc:Agent>
    </dc:creator>
   </cc:Work>
  </rdf:RDF>
 </metadata>
 <defs>
  <style type="text/css">*{stroke-linejoin: round; stroke-linecap: butt}</style>
 </defs>
 <g id="figure_1">
  <g id="patch_1">
   <path d="M 0 426.15625 
L 568.789375 426.15625 
L 568.789375 0 
L 0 0 
L 0 426.15625 
z
" style="fill: none"/>
  </g>
  <g id="axes_1">
   <g id="patch_2">
    <path d="M 58.790625 111.265 
L 561.589375 111.265 
L 561.589375 33.793043 
L 58.790625 33.793043 
L 58.790625 111.265 
z
" style="fill: none"/>
   </g>
   <g id="matplotlib.axis_1">
    <g id="xtick_1">
     <g id="line2d_1">
      <path d="M 81.645114 111.265 
L 81.645114 33.793043 
" clip-path="url(#pe1a8b97715)" style="fill: none; stroke: #b0b0b0; stroke-width: 0.8; stroke-linecap: square"/>
     </g>
     <g id="line2d_2">
      <defs>
       <path id="m4f7866e044" d="M 0 0 
L 0 3.5 
" style="stroke: #000000; stroke-width: 0.8"/>
      </defs>
      <g>
       <use xlink:href="#m4f7866e044" x="81.645114" y="111.265" style="stroke: #000000; stroke-width: 0.8"/>
      </g>
     </g>
    </g>
    <g id="xtick_2">
     <g id="line2d_3">
      <path d="M 173.063068 111.265 
L 173.063068 33.793043 
" clip-path="url(#pe1a8b97715)" style="fill: none; stroke: #b0b0b0; stroke-width: 0.8; stroke-linecap: square"/>
     </g>
     <g id="line2d_4">
      <g>
       <use xlink:href="#m4f7866e044" x="173.063068" y="111.265" style="stroke: #000000; stroke-width: 0.8"/>
      </g>
     </g>
    </g>
    <g id="xtick_3">
     <g id="line2d_5">
      <path d="M 264.481023 111.265 
L 264.481023 33.793043 
" clip-path="url(#pe1a8b97715)" style="fill: none; stroke: #b0b0b0; stroke-width: 0.8; stroke-linecap: square"/>
     </g>
     <g id="line2d_6">
      <g>
       <use xlink:href="#m4f7866e044" x="264.481023" y="111.265" style="stroke: #000000; stroke-width: 0.8"/>
      </g>
     </g>
    </g>
    <g id="xtick_4">
     <g id="line2d_7">
      <path d="M 355.898977 111.265 
L 355.898977 33.793043 
" clip-path="url(#pe1a8b97715)" style="fill: none; stroke: #b0b0b0; stroke-width: 0.8; stroke-linecap: square"/>
     </g>
     <g id="line2d_8">
      <g>
       <use xlink:href="#m4f7866e044" x="355.898977" y="111.265" style="stroke: #000000; stroke-width: 0.8"/>
      </g>
     </g>
    </g>
    <g id="xtick_5">
     <g id="line2d_9">
      <path d="M 447.316932 111.265 
L 447.316932 33.793043 
" clip-path="url(#pe1a8b97715)" style="fill: none; stroke: #b0b0b0; stroke-width: 0.8; stroke-linecap: square"/>
     </g>
     <g id="line2d_10">
      <g>
       <use xlink:href="#m4f7866e044" x="447.316932" y="111.265" style="stroke: #000000; stroke-width: 0.8"/>
      </g>
     </g>
    </g>
    <g id="xtick_6">
     <g id="line2d_11">
      <path d="M 538.734886 111.265 
L 538.734886 33.793043 
" clip-path="url(#pe1a8b97715)" style="fill: none; stroke: #b0b0b0; stroke-width: 0.8; stroke-linecap: square"/>
     </g>
     <g id="line2d_12">
      <g>
       <use xlink:href="#m4f7866e044" x="538.734886" y="111.265" style="stroke: #000000; stroke-width: 0.8"/>
      </g>
     </g>
    </g>
   </g>
   <g id="matplotlib.axis_2">
    <g id="ytick_1">
     <g id="line2d_13">
      <path d="M 58.790625 91.490689 
L 561.589375 91.490689 
" clip-path="url(#pe1a8b97715)" style="fill: none; stroke: #b0b0b0; stroke-width: 0.8; stroke-linecap: square"/>
     </g>
     <g id="line2d_14">
      <defs>
       <path id="m3789be3fd2" d="M 0 0 
L -3.5 0 
" style="stroke: #000000; stroke-width: 0.8"/>
      </defs>
      <g>
       <use xlink:href="#m3789be3fd2" x="58.790625" y="91.490689" style="stroke: #000000; stroke-width: 0.8"/>
      </g>
     </g>
     <g id="text_1">
      <!-- −50 -->
      <g transform="translate(30.685938 95.289908) scale(0.1 -0.1)">
       <defs>
        <path id="DejaVuSans-2212" d="M 678 2272 
L 4684 2272 
L 4684 1741 
L 678 1741 
L 678 2272 
z
" transform="scale(0.015625)"/>
        <path id="DejaVuSans-35" d="M 691 4666 
L 3169 4666 
L 3169 4134 
L 1269 4134 
L 1269 2991 
Q 1406 3038 1543 3061 
Q 1681 3084 1819 3084 
Q 2600 3084 3056 2656 
Q 3513 2228 3513 1497 
Q 3513 744 3044 326 
Q 2575 -91 1722 -91 
Q 1428 -91 1123 -41 
Q 819 9 494 109 
L 494 744 
Q 775 591 1075 516 
Q 1375 441 1709 441 
Q 2250 441 2565 725 
Q 2881 1009 2881 1497 
Q 2881 1984 2565 2268 
Q 2250 2553 1709 2553 
Q 1456 2553 1204 2497 
Q 953 2441 691 2322 
L 691 4666 
z
" transform="scale(0.015625)"/>
        <path id="DejaVuSans-30" d="M 2034 4250 
Q 1547 4250 1301 3770 
Q 1056 3291 1056 2328 
Q 1056 1369 1301 889 
Q 1547 409 2034 409 
Q 2525 409 2770 889 
Q 3016 1369 3016 2328 
Q 3016 3291 2770 3770 
Q 2525 4250 2034 4250 
z
M 2034 4750 
Q 2819 4750 3233 4129 
Q 3647 3509 3647 2328 
Q 3647 1150 3233 529 
Q 2819 -91 2034 -91 
Q 1250 -91 836 529 
Q 422 1150 422 2328 
Q 422 3509 836 4129 
Q 1250 4750 2034 4750 
z
" transform="scale(0.015625)"/>
       </defs>
       <use xlink:href="#DejaVuSans-2212"/>
       <use xlink:href="#DejaVuSans-35" transform="translate(83.789062 0)"/>
       <use xlink:href="#DejaVuSans-30" transform="translate(147.412109 0)"/>
      </g>
     </g>
    </g>
    <g id="ytick_2">
     <g id="line2d_15">
      <path d="M 58.790625 64.402593 
L 561.589375 64.402593 
" clip-path="url(#pe1a8b97715)" style="fill: none; stroke: #b0b0b0; stroke-width: 0.8; stroke-linecap: square"/>
     </g>
     <g id="line2d_16">
      <g>
       <use xlink:href="#m3789be3fd2" x="58.790625" y="64.402593" style="stroke: #000000; stroke-width: 0.8"/>
      </g>
     </g>
     <g id="text_2">
      <!-- −25 -->
      <g transform="translate(30.685938 68.201811) scale(0.1 -0.1)">
       <defs>
        <path id="DejaVuSans-32" d="M 1228 531 
L 3431 531 
L 3431 0 
L 469 0 
L 469 531 
Q 828 903 1448 1529 
Q 2069 2156 2228 2338 
Q 2531 2678 2651 2914 
Q 2772 3150 2772 3378 
Q 2772 3750 2511 3984 
Q 2250 4219 1831 4219 
Q 1534 4219 1204 4116 
Q 875 4013 500 3803 
L 500 4441 
Q 881 4594 1212 4672 
Q 1544 4750 1819 4750 
Q 2544 4750 2975 4387 
Q 3406 4025 3406 3419 
Q 3406 3131 3298 2873 
Q 3191 2616 2906 2266 
Q 2828 2175 2409 1742 
Q 1991 1309 1228 531 
z
" transform="scale(0.015625)"/>
       </defs>
       <use xlink:href="#DejaVuSans-2212"/>
       <use xlink:href="#DejaVuSans-32" transform="translate(83.789062 0)"/>
       <use xlink:href="#DejaVuSans-35" transform="translate(147.412109 0)"/>
      </g>
     </g>
    </g>
    <g id="ytick_3">
     <g id="line2d_17">
      <path d="M 58.790625 37.314496 
L 561.589375 37.314496 
" clip-path="url(#pe1a8b97715)" style="fill: none; stroke: #b0b0b0; stroke-width: 0.8; stroke-linecap: square"/>
     </g>
     <g id="line2d_18">
      <g>
       <use xlink:href="#m3789be3fd2" x="58.790625" y="37.314496" style="stroke: #000000; stroke-width: 0.8"/>
      </g>
     </g>
     <g id="text_3">
      <!-- 0 -->
      <g transform="translate(45.428125 41.113715) scale(0.1 -0.1)">
       <use xlink:href="#DejaVuSans-30"/>
      </g>
     </g>
    </g>
    <g id="text_4">
     <!-- V_A (mV) -->
     <g transform="translate(24.328125 95.650897) rotate(-90) scale(0.1 -0.1)">
      <defs>
       <path id="DejaVuSans-56" d="M 1831 0 
L 50 4666 
L 709 4666 
L 2188 738 
L 3669 4666 
L 4325 4666 
L 2547 0 
L 1831 0 
z
" transform="scale(0.015625)"/>
       <path id="DejaVuSans-5f" d="M 3263 -1063 
L 3263 -1509 
L -63 -1509 
L -63 -1063 
L 3263 -1063 
z
" transform="scale(0.015625)"/>
       <path id="DejaVuSans-41" d="M 2188 4044 
L 1331 1722 
L 3047 1722 
L 2188 4044 
z
M 1831 4666 
L 2547 4666 
L 4325 0 
L 3669 0 
L 3244 1197 
L 1141 1197 
L 716 0 
L 50 0 
L 1831 4666 
z
" transform="scale(0.015625)"/>
       <path id="DejaVuSans-20" transform="scale(0.015625)"/>
       <path id="DejaVuSans-28" d="M 1984 4856 
Q 1566 4138 1362 3434 
Q 1159 2731 1159 2009 
Q 1159 1288 1364 580 
Q 1569 -128 1984 -844 
L 1484 -844 
Q 1016 -109 783 600 
Q 550 1309 550 2009 
Q 550 2706 781 3412 
Q 1013 4119 1484 4856 
L 1984 4856 
z
" transform="scale(0.015625)"/>
       <path id="DejaVuSans-6d" d="M 3328 2828 
Q 3544 3216 3844 3400 
Q 4144 3584 4550 3584 
Q 5097 3584 5394 3201 
Q 5691 2819 5691 2113 
L 5691 0 
L 5113 0 
L 5113 2094 
Q 5113 2597 4934 2840 
Q 4756 3084 4391 3084 
Q 3944 3084 3684 2787 
Q 3425 2491 3425 1978 
L 3425 0 
L 2847 0 
L 2847 2094 
Q 2847 2600 2669 2842 
Q 2491 3084 2119 3084 
Q 1678 3084 1418 2786 
Q 1159 2488 1159 1978 
L 1159 0 
L 581 0 
L 581 3500 
L 1159 3500 
L 1159 2956 
Q 1356 3278 1631 3431 
Q 1906 3584 2284 3584 
Q 2666 3584 2933 3390 
Q 3200 3197 3328 2828 
z
" transform="scale(0.015625)"/>
       <path id="DejaVuSans-29" d="M 513 4856 
L 1013 4856 
Q 1481 4119 1714 3412 
Q 1947 2706 1947 2009 
Q 1947 1309 1714 600 
Q 1481 -109 1013 -844 
L 513 -844 
Q 928 -128 1133 580 
Q 1338 1288 1338 2009 
Q 1338 2731 1133 3434 
Q 928 4138 513 4856 
z
" transform="scale(0.015625)"/>
      </defs>
      <use xlink:href="#DejaVuSans-56"/>
      <use xlink:href="#DejaVuSans-5f" transform="translate(68.408203 0)"/>
      <use xlink:href="#DejaVuSans-41" transform="translate(118.408203 0)"/>
      <use xlink:href="#DejaVuSans-20" transform="translate(186.816406 0)"/>
      <use xlink:href="#DejaVuSans-28" transform="translate(218.603516 0)"/>
      <use xlink:href="#DejaVuSans-6d" transform="translate(257.617188 0)"/>
      <use xlink:href="#DejaVuSans-56" transform="translate(355.029297 0)"/>
      <use xlink:href="#DejaVuSans-29" transform="translate(423.4375 0)"/>
     </g>
    </g>
   </g>
   <g id="line2d_19">
    <path d="M 81.645114 107.743547 
L 83.199219 104.252316 
L 84.661906 101.491146 
L 86.124593 99.183326 
L 87.587281 97.281863 
L 89.049968 95.745606 
L 90.512655 94.537825 
L 91.975343 93.625478 
L 93.43803 92.978325 
L 94.900717 92.568238 
L 96.454822 92.362793 
L 98.100345 92.371176 
L 99.928705 92.61282 
L 101.9399 93.110192 
L 104.316766 93.937802 
L 107.333559 95.239862 
L 113.09289 98.033604 
L 118.212295 100.403128 
L 122.234685 102.018968 
L 125.982822 103.285671 
L 129.548122 104.258768 
L 132.839168 104.933143 
L 135.947379 105.343464 
L 138.781335 105.496968 
L 141.432456 105.424997 
L 143.992159 105.13985 
L 146.551861 104.631878 
L 149.111564 103.897441 
L 151.762685 102.902459 
L 154.596641 101.592339 
L 157.704852 99.900444 
L 161.452988 97.588764 
L 170.686201 91.498955 
L 170.777619 37.314496 
L 170.869037 107.524034 
L 170.960455 107.306274 
L 172.697396 103.484454 
L 174.434337 100.207217 
L 176.171279 97.405506 
L 177.90822 95.022712 
L 179.645161 93.012285 
L 181.199266 91.497072 
L 181.290684 37.314496 
L 181.382102 107.500565 
L 181.47352 107.260027 
L 182.936207 103.727976 
L 184.398895 100.739846 
L 185.861582 98.227847 
L 187.324269 96.132967 
L 188.786956 94.40333 
L 190.341062 92.914492 
L 191.895167 91.737307 
L 192.260839 91.500774 
L 192.352257 37.314496 
L 192.443675 107.525363 
L 192.535093 107.309671 
L 193.99778 104.178254 
L 195.460467 101.587148 
L 196.923154 99.455827 
L 198.385842 97.713834 
L 199.848529 96.299682 
L 201.402634 95.096155 
L 203.048157 94.096669 
L 204.876516 93.249396 
L 206.887711 92.562083 
L 209.264578 91.986595 
L 212.281371 91.494646 
L 212.372789 37.314496 
L 212.464207 107.569841 
L 212.555625 107.397876 
L 214.10973 104.723443 
L 215.755253 102.343741 
L 217.400776 100.350284 
L 219.137717 98.593599 
L 220.966076 97.064692 
L 222.885853 95.753847 
L 224.897048 94.652103 
L 226.999661 93.752085 
L 229.193692 93.048483 
L 231.570559 92.52115 
L 234.130262 92.188856 
L 236.8728 92.06003 
L 240.072429 92.141931 
L 244.277655 92.492575 
L 254.79072 93.458993 
L 260.367215 93.661162 
L 269.143338 93.963848 
L 273.5314 94.369026 
L 278.46797 95.060231 
L 288.158273 96.473048 
L 292.180663 96.79175 
L 296.294471 96.888592 
L 301.413876 96.766923 
L 311.744105 96.471709 
L 316.406421 96.602098 
L 321.251572 96.966645 
L 327.010904 97.636646 
L 336.335535 98.980466 
L 350.505318 100.999918 
L 355.533305 101.474137 
L 359.555695 101.634262 
L 363.212414 101.558153 
L 366.686296 101.266417 
L 370.251596 100.739 
L 373.908314 99.969359 
L 377.839286 98.911336 
L 382.227348 97.496862 
L 387.895261 95.418454 
L 397.494147 91.87298 
L 398.68258 91.494759 
L 398.773998 37.314496 
L 398.865416 107.553645 
L 398.956834 107.365507 
L 400.510939 104.423703 
L 402.156462 101.789566 
L 403.801985 99.587072 
L 405.447509 97.762919 
L 407.093032 96.271869 
L 408.738555 95.074937 
L 410.475496 94.09276 
L 412.212437 93.363899 
L 414.040796 92.833944 
L 416.051991 92.490064 
L 418.246022 92.349287 
L 420.714307 92.418005 
L 423.822517 92.742599 
L 428.393415 93.472029 
L 438.175136 95.064925 
L 444.300139 95.80213 
L 449.968052 96.272152 
L 454.356114 96.422135 
L 457.921415 96.322989 
L 461.029625 96.019053 
L 464.046417 95.499275 
L 467.06321 94.752908 
L 470.445674 93.677557 
L 475.016572 91.965567 
L 476.205005 91.502576 
L 476.296423 37.314496 
L 476.387841 107.546084 
L 476.479259 107.350262 
L 478.124782 104.090883 
L 479.861724 101.14508 
L 481.598665 98.641275 
L 483.335606 96.524557 
L 485.072547 94.748764 
L 486.900906 93.204413 
L 488.729265 91.953216 
L 489.460609 91.526305 
L 489.552027 37.314496 
L 489.643445 107.531679 
L 489.734863 107.322016 
L 491.19755 104.25109 
L 492.660237 101.6622 
L 494.214342 99.362952 
L 495.768448 97.458019 
L 497.413971 95.800443 
L 499.150912 94.379992 
L 500.979271 93.177077 
L 502.990466 92.119945 
L 504.361735 91.520206 
L 504.453153 37.314496 
L 504.544571 107.544911 
L 504.635989 107.348201 
L 506.190095 104.278192 
L 507.835618 101.519161 
L 509.572559 99.049298 
L 511.400918 96.837194 
L 513.412113 94.757253 
L 515.697562 92.726037 
L 517.251667 91.493899 
L 517.343085 37.314496 
L 517.434503 107.512033 
L 517.525921 107.282437 
L 519.171444 103.455447 
L 520.908385 99.966229 
L 522.736744 96.794122 
L 524.656521 93.915248 
L 526.48488 91.528125 
L 526.576298 37.314496 
L 526.667716 107.470449 
L 526.759134 107.199681 
L 528.404657 102.700178 
L 530.050181 98.835604 
L 531.695704 95.513346 
L 533.432645 92.512347 
L 534.072571 91.52345 
L 534.163989 37.314496 
L 534.255407 107.445494 
L 534.346825 107.150226 
L 535.90093 102.534261 
L 537.455035 98.609043 
L 538.734886 95.830229 
L 538.734886 95.830229 
" clip-path="url(#pe1a8b97715)" style="fill: none; stroke: #1f77b4; stroke-width: 1.5; stroke-linecap: square"/>
   </g>
   <g id="patch_3">
    <path d="M 58.790625 111.265 
L 58.790625 33.793043 
" style="fill: none; stroke: #000000; stroke-width: 0.8; stroke-linejoin: miter; stroke-linecap: square"/>
   </g>
   <g id="patch_4">
    <path d="M 561.589375 111.265 
L 561.589375 33.793043 
" style="fill: none; stroke: #000000; stroke-width: 0.8; stroke-linejoin: miter; stroke-linecap: square"/>
   </g>
   <g id="patch_5">
    <path d="M 58.790625 111.265 
L 561.589375 111.265 
" style="fill: none; stroke: #000000; stroke-width: 0.8; stroke-linejoin: miter; stroke-linecap: square"/>
   </g>
   <g id="patch_6">
    <path d="M 58.790625 33.793043 
L 561.589375 33.793043 
" style="fill: none; stroke: #000000; stroke-width: 0.8; stroke-linejoin: miter; stroke-linecap: square"/>
   </g>
  </g>
  <g id="axes_2">
   <g id="patch_7">
    <path d="M 58.790625 203.71 
L 561.589375 203.71 
L 561.589375 126.238043 
L 58.790625 126.238043 
L 58.790625 203.71 
z
" style="fill: none"/>
   </g>
   <g id="matplotlib.axis_3">
    <g id="xtick_7">
     <g id="line2d_20">
      <path d="M 81.645114 203.71 
L 81.645114 126.238043 
" clip-path="url(#p7c360340db)" style="fill: none; stroke: #b0b0b0; stroke-width: 0.8; stroke-linecap: square"/>
     </g>
     <g id="line2d_21">
      <g>
       <use xlink:href="#m4f7866e044" x="81.645114" y="203.71" style="stroke: #000000; stroke-width: 0.8"/>
      </g>
     </g>
    </g>
    <g id="xtick_8">
     <g id="line2d_22">
      <path d="M 173.063068 203.71 
L 173.063068 126.238043 
" clip-path="url(#p7c360340db)" style="fill: none; stroke: #b0b0b0; stroke-width: 0.8; stroke-linecap: square"/>
     </g>
     <g id="line2d_23">
      <g>
       <use xlink:href="#m4f7866e044" x="173.063068" y="203.71" style="stroke: #000000; stroke-width: 0.8"/>
      </g>
     </g>
    </g>
    <g id="xtick_9">
     <g id="line2d_24">
      <path d="M 264.481023 203.71 
L 264.481023 126.238043 
" clip-path="url(#p7c360340db)" style="fill: none; stroke: #b0b0b0; stroke-width: 0.8; stroke-linecap: square"/>
     </g>
     <g id="line2d_25">
      <g>
       <use xlink:href="#m4f7866e044" x="264.481023" y="203.71" style="stroke: #000000; stroke-width: 0.8"/>
      </g>
     </g>
    </g>
    <g id="xtick_10">
     <g id="line2d_26">
      <path d="M 355.898977 203.71 
L 355.898977 126.238043 
" clip-path="url(#p7c360340db)" style="fill: none; stroke: #b0b0b0; stroke-width: 0.8; stroke-linecap: square"/>
     </g>
     <g id="line2d_27">
      <g>
       <use xlink:href="#m4f7866e044" x="355.898977" y="203.71" style="stroke: #000000; stroke-width: 0.8"/>
      </g>
     </g>
    </g>
    <g id="xtick_11">
     <g id="line2d_28">
      <path d="M 447.316932 203.71 
L 447.316932 126.238043 
" clip-path="url(#p7c360340db)" style="fill: none; stroke: #b0b0b0; stroke-width: 0.8; stroke-linecap: square"/>
     </g>
     <g id="line2d_29">
      <g>
       <use xlink:href="#m4f7866e044" x="447.316932" y="203.71" style="stroke: #000000; stroke-width: 0.8"/>
      </g>
     </g>
    </g>
    <g id="xtick_12">
     <g id="line2d_30">
      <path d="M 538.734886 203.71 
L 538.734886 126.238043 
" clip-path="url(#p7c360340db)" style="fill: none; stroke: #b0b0b0; stroke-width: 0.8; stroke-linecap: square"/>
     </g>
     <g id="line2d_31">
      <g>
       <use xlink:href="#m4f7866e044" x="538.734886" y="203.71" style="stroke: #000000; stroke-width: 0.8"/>
      </g>
     </g>
    </g>
   </g>
   <g id="matplotlib.axis_4">
    <g id="ytick_4">
     <g id="line2d_32">
      <path d="M 58.790625 183.935689 
L 561.589375 183.935689 
" clip-path="url(#p7c360340db)" style="fill: none; stroke: #b0b0b0; stroke-width: 0.8; stroke-linecap: square"/>
     </g>
     <g id="line2d_33">
      <g>
       <use xlink:href="#m3789be3fd2" x="58.790625" y="183.935689" style="stroke: #000000; stroke-width: 0.8"/>
      </g>
     </g>
     <g id="text_5">
      <!-- −50 -->
      <g transform="translate(30.685938 187.734908) scale(0.1 -0.1)">
       <use xlink:href="#DejaVuSans-2212"/>
       <use xlink:href="#DejaVuSans-35" transform="translate(83.789062 0)"/>
       <use xlink:href="#DejaVuSans-30" transform="translate(147.412109 0)"/>
      </g>
     </g>
    </g>
    <g id="ytick_5">
     <g id="line2d_34">
      <path d="M 58.790625 156.847593 
L 561.589375 156.847593 
" clip-path="url(#p7c360340db)" style="fill: none; stroke: #b0b0b0; stroke-width: 0.8; stroke-linecap: square"/>
     </g>
     <g id="line2d_35">
      <g>
       <use xlink:href="#m3789be3fd2" x="58.790625" y="156.847593" style="stroke: #000000; stroke-width: 0.8"/>
      </g>
     </g>
     <g id="text_6">
      <!-- −25 -->
      <g transform="translate(30.685938 160.646811) scale(0.1 -0.1)">
       <use xlink:href="#DejaVuSans-2212"/>
       <use xlink:href="#DejaVuSans-32" transform="translate(83.789062 0)"/>
       <use xlink:href="#DejaVuSans-35" transform="translate(147.412109 0)"/>
      </g>
     </g>
    </g>
    <g id="ytick_6">
     <g id="line2d_36">
      <path d="M 58.790625 129.759496 
L 561.589375 129.759496 
" clip-path="url(#p7c360340db)" style="fill: none; stroke: #b0b0b0; stroke-width: 0.8; stroke-linecap: square"/>
     </g>
     <g id="line2d_37">
      <g>
       <use xlink:href="#m3789be3fd2" x="58.790625" y="129.759496" style="stroke: #000000; stroke-width: 0.8"/>
      </g>
     </g>
     <g id="text_7">
      <!-- 0 -->
      <g transform="translate(45.428125 133.558715) scale(0.1 -0.1)">
       <use xlink:href="#DejaVuSans-30"/>
      </g>
     </g>
    </g>
    <g id="text_8">
     <!-- V_B (mV) -->
     <g transform="translate(24.328125 188.106053) rotate(-90) scale(0.1 -0.1)">
      <defs>
       <path id="DejaVuSans-42" d="M 1259 2228 
L 1259 519 
L 2272 519 
Q 2781 519 3026 730 
Q 3272 941 3272 1375 
Q 3272 1813 3026 2020 
Q 2781 2228 2272 2228 
L 1259 2228 
z
M 1259 4147 
L 1259 2741 
L 2194 2741 
Q 2656 2741 2882 2914 
Q 3109 3088 3109 3444 
Q 3109 3797 2882 3972 
Q 2656 4147 2194 4147 
L 1259 4147 
z
M 628 4666 
L 2241 4666 
Q 2963 4666 3353 4366 
Q 3744 4066 3744 3513 
Q 3744 3084 3544 2831 
Q 3344 2578 2956 2516 
Q 3422 2416 3680 2098 
Q 3938 1781 3938 1306 
Q 3938 681 3513 340 
Q 3088 0 2303 0 
L 628 0 
L 628 4666 
z
" transform="scale(0.015625)"/>
      </defs>
      <use xlink:href="#DejaVuSans-56"/>
      <use xlink:href="#DejaVuSans-5f" transform="translate(68.408203 0)"/>
      <use xlink:href="#DejaVuSans-42" transform="translate(118.408203 0)"/>
      <use xlink:href="#DejaVuSans-20" transform="translate(187.011719 0)"/>
      <use xlink:href="#DejaVuSans-28" transform="translate(218.798828 0)"/>
      <use xlink:href="#DejaVuSans-6d" transform="translate(257.8125 0)"/>
      <use xlink:href="#DejaVuSans-56" transform="translate(355.224609 0)"/>
      <use xlink:href="#DejaVuSans-29" transform="translate(423.632812 0)"/>
     </g>
    </g>
   </g>
   <g id="line2d_38">
    <path d="M 81.645114 200.188547 
L 83.656309 198.942142 
L 86.033175 197.737706 
L 89.232804 196.385834 
L 112.361546 187.399712 
L 115.652593 186.479082 
L 118.760803 185.83587 
L 122.05185 185.38251 
L 126.07424 185.067689 
L 138.964171 184.235513 
L 141.615292 183.93739 
L 141.70671 129.759496 
L 141.798128 200.015937 
L 141.889546 199.844918 
L 143.535069 197.022882 
L 145.180592 194.636788 
L 146.826115 192.62489 
L 148.563056 190.852025 
L 150.299998 189.392197 
L 152.128357 188.149271 
L 153.956716 187.167844 
L 155.876493 186.379553 
L 157.979106 185.755973 
L 160.355973 185.294325 
L 163.098511 184.998987 
L 166.846647 184.841533 
L 170.686201 184.780038 
L 170.960455 183.984039 
L 171.051873 129.759496 
L 171.143291 199.711279 
L 171.234709 199.247262 
L 172.148889 195.253425 
L 173.063068 192.217171 
L 173.977248 189.897643 
L 174.982845 187.966811 
L 175.988443 186.523147 
L 176.99404 185.443437 
L 178.091056 184.574607 
L 179.188071 183.944792 
L 179.279489 129.759496 
L 179.370907 199.971791 
L 179.462325 199.758289 
L 180.742176 197.079063 
L 181.199266 196.24642 
L 182.113446 192.227676 
L 183.027625 189.220668 
L 183.941805 186.966289 
L 184.855984 185.279106 
L 185.770164 184.024003 
L 185.861582 129.759496 
L 185.953 199.895312 
L 186.044418 199.608011 
L 187.141433 196.577076 
L 188.238449 194.187138 
L 189.335464 192.29285 
L 190.523897 190.676634 
L 191.712331 189.416332 
L 192.260839 188.933324 
L 193.0836 186.21763 
L 193.906362 184.209683 
L 193.99778 184.022573 
L 194.089198 129.759496 
L 194.180616 199.797581 
L 194.272034 199.41664 
L 195.186213 196.102432 
L 196.100393 193.538158 
L 197.10599 191.381575 
L 198.111588 189.759574 
L 199.117185 188.548561 
L 200.214201 187.587688 
L 201.311216 186.914816 
L 202.591068 186.402916 
L 204.053755 186.079513 
L 205.790696 185.941563 
L 208.076145 186.001414 
L 212.281371 186.364422 
L 213.104132 184.256891 
L 213.19555 184.062945 
L 213.286968 129.759496 
L 213.378386 199.781802 
L 213.469804 199.386175 
L 214.383984 195.974061 
L 215.298163 193.371732 
L 216.212343 191.378019 
L 217.21794 189.712405 
L 218.223538 188.459465 
L 219.320553 187.438292 
L 220.508987 186.624906 
L 221.971674 185.909182 
L 223.708615 185.315361 
L 226.268318 184.69955 
L 230.19929 183.937553 
L 230.290708 129.759496 
L 230.382126 200.007706 
L 230.473544 199.828517 
L 232.119067 196.864924 
L 233.856008 194.206177 
L 235.592949 191.944784 
L 237.421308 189.921478 
L 239.341085 188.128294 
L 241.35228 186.559653 
L 243.363475 185.265813 
L 245.466088 184.173256 
L 245.923178 183.968365 
L 246.014596 129.759496 
L 246.106014 199.987524 
L 246.197432 199.788555 
L 247.751537 196.704157 
L 249.305642 194.13107 
L 250.859747 192.003205 
L 252.413853 190.264817 
L 253.967958 188.868723 
L 255.522063 187.774317 
L 257.076168 186.946167 
L 258.721692 186.324648 
L 260.458633 185.917016 
L 262.286992 185.723884 
L 264.298187 185.743351 
L 266.583636 185.99634 
L 269.417592 186.545459 
L 280.753419 188.999226 
L 283.587375 189.24322 
L 286.421332 189.266351 
L 289.438124 189.067875 
L 293.094842 188.590072 
L 298.945592 187.560651 
L 307.356043 186.132174 
L 321.251572 183.936567 
L 321.34299 129.759496 
L 321.434408 200.01188 
L 321.525826 199.836857 
L 323.17135 196.951564 
L 324.816873 194.520022 
L 326.462396 192.482222 
L 328.107919 190.790693 
L 329.753442 189.407972 
L 331.398965 188.303836 
L 333.044489 187.453039 
L 334.78143 186.805672 
L 336.518371 186.392828 
L 338.34673 186.186388 
L 340.266507 186.192164 
L 342.36912 186.421598 
L 344.837405 186.927627 
L 347.945615 187.811816 
L 357.5445 190.710962 
L 360.378457 191.241819 
L 363.029578 191.517994 
L 365.772116 191.575138 
L 368.697491 191.406433 
L 372.262791 190.966229 
L 381.770258 189.670269 
L 385.061305 189.528883 
L 388.352351 189.61955 
L 392.191905 189.962385 
L 398.68258 190.730659 
L 399.505342 188.439881 
L 400.328103 186.804511 
L 401.150865 185.663589 
L 401.973626 184.897467 
L 402.796388 184.415837 
L 403.710567 184.131061 
L 404.807583 184.040708 
L 406.087434 184.168452 
L 407.915793 184.601127 
L 412.121019 185.922659 
L 415.960573 186.995024 
L 419.982963 187.875038 
L 433.421403 190.620755 
L 439.180734 192.171175 
L 449.145291 194.885453 
L 453.076263 195.698025 
L 456.550145 196.191198 
L 459.749774 196.419129 
L 462.766566 196.410578 
L 465.691941 196.179376 
L 468.617315 195.720313 
L 471.54269 195.033914 
L 474.6509 194.070643 
L 476.205005 193.508564 
L 477.027767 190.718811 
L 477.850529 188.621989 
L 478.764708 186.898277 
L 479.678888 185.648574 
L 480.593067 184.748441 
L 481.598665 184.053657 
L 481.781501 183.953519 
L 481.872919 129.759496 
L 481.964337 199.957719 
L 482.055755 199.731062 
L 483.244188 197.12319 
L 484.432621 195.029588 
L 485.712473 193.203991 
L 487.083742 191.617751 
L 488.637847 190.165022 
L 489.460609 189.512332 
L 490.28337 186.737441 
L 491.106132 184.652399 
L 491.380386 184.080885 
L 491.471804 129.759496 
L 491.563222 199.802153 
L 491.65464 199.425147 
L 492.660237 195.829837 
L 493.665835 193.06343 
L 494.671432 190.922429 
L 495.67703 189.259204 
L 496.774045 187.862601 
L 497.962479 186.724952 
L 499.24233 185.828366 
L 500.613599 185.148292 
L 502.167705 184.631856 
L 503.996064 184.263873 
L 504.361735 184.213017 
L 504.453153 183.941096 
L 504.544571 129.759496 
L 504.635989 199.692669 
L 504.727407 199.210765 
L 505.641587 195.073018 
L 506.555766 191.943628 
L 507.469946 189.567835 
L 508.384125 187.760854 
L 509.389723 186.268204 
L 510.39532 185.164152 
L 511.492336 184.28584 
L 512.040844 183.944214 
L 512.132262 129.759496 
L 512.22368 199.961643 
L 512.315097 199.738293 
L 513.594949 196.945699 
L 514.8748 194.666179 
L 516.337487 192.527295 
L 517.251667 191.383281 
L 518.165847 187.910039 
L 519.080026 185.31755 
L 519.628534 184.084484 
L 519.719952 129.759496 
L 519.81137 199.799208 
L 519.902788 199.418505 
L 520.908385 195.738487 
L 522.005401 192.585246 
L 523.102416 190.096046 
L 524.29085 187.949796 
L 525.570701 186.106145 
L 526.576298 184.671975 
L 526.759134 184.023089 
L 526.850552 129.759496 
L 526.94197 199.648636 
L 527.033388 199.122546 
L 527.947568 194.536136 
L 528.953165 190.636752 
L 529.958763 187.623548 
L 530.96436 185.267914 
L 531.604286 184.034645 
L 531.695704 129.759496 
L 531.787122 199.84218 
L 531.87854 199.501725 
L 533.066973 195.559352 
L 534.255407 191.864589 
L 535.169586 187.827281 
L 536.083766 184.739139 
L 536.35802 183.960237 
L 536.449437 129.759496 
L 536.540855 199.73638 
L 536.632273 199.294037 
L 537.637871 195.009169 
L 538.643468 191.606247 
L 538.734886 191.333059 
L 538.734886 191.333059 
" clip-path="url(#p7c360340db)" style="fill: none; stroke: #1f77b4; stroke-width: 1.5; stroke-linecap: square"/>
   </g>
   <g id="patch_8">
    <path d="M 58.790625 203.71 
L 58.790625 126.238043 
" style="fill: none; stroke: #000000; stroke-width: 0.8; stroke-linejoin: miter; stroke-linecap: square"/>
   </g>
   <g id="patch_9">
    <path d="M 561.589375 203.71 
L 561.589375 126.238043 
" style="fill: none; stroke: #000000; stroke-width: 0.8; stroke-linejoin: miter; stroke-linecap: square"/>
   </g>
   <g id="patch_10">
    <path d="M 58.790625 203.71 
L 561.589375 203.71 
" style="fill: none; stroke: #000000; stroke-width: 0.8; stroke-linejoin: miter; stroke-linecap: square"/>
   </g>
   <g id="patch_11">
    <path d="M 58.790625 126.238043 
L 561.589375 126.238043 
" style="fill: none; stroke: #000000; stroke-width: 0.8; stroke-linejoin: miter; stroke-linecap: square"/>
   </g>
  </g>
  <g id="axes_3">
   <g id="patch_12">
    <path d="M 58.790625 296.155 
L 561.589375 296.155 
L 561.589375 218.683043 
L 58.790625 218.683043 
L 58.790625 296.155 
z
" style="fill: none"/>
   </g>
   <g id="matplotlib.axis_5">
    <g id="xtick_13">
     <g id="line2d_39">
      <path d="M 81.645114 296.155 
L 81.645114 218.683043 
" clip-path="url(#p4f940df1ed)" style="fill: none; stroke: #b0b0b0; stroke-width: 0.8; stroke-linecap: square"/>
     </g>
     <g id="line2d_40">
      <g>
       <use xlink:href="#m4f7866e044" x="81.645114" y="296.155" style="stroke: #000000; stroke-width: 0.8"/>
      </g>
     </g>
    </g>
    <g id="xtick_14">
     <g id="line2d_41">
      <path d="M 173.063068 296.155 
L 173.063068 218.683043 
" clip-path="url(#p4f940df1ed)" style="fill: none; stroke: #b0b0b0; stroke-width: 0.8; stroke-linecap: square"/>
     </g>
     <g id="line2d_42">
      <g>
       <use xlink:href="#m4f7866e044" x="173.063068" y="296.155" style="stroke: #000000; stroke-width: 0.8"/>
      </g>
     </g>
    </g>
    <g id="xtick_15">
     <g id="line2d_43">
      <path d="M 264.481023 296.155 
L 264.481023 218.683043 
" clip-path="url(#p4f940df1ed)" style="fill: none; stroke: #b0b0b0; stroke-width: 0.8; stroke-linecap: square"/>
     </g>
     <g id="line2d_44">
      <g>
       <use xlink:href="#m4f7866e044" x="264.481023" y="296.155" style="stroke: #000000; stroke-width: 0.8"/>
      </g>
     </g>
    </g>
    <g id="xtick_16">
     <g id="line2d_45">
      <path d="M 355.898977 296.155 
L 355.898977 218.683043 
" clip-path="url(#p4f940df1ed)" style="fill: none; stroke: #b0b0b0; stroke-width: 0.8; stroke-linecap: square"/>
     </g>
     <g id="line2d_46">
      <g>
       <use xlink:href="#m4f7866e044" x="355.898977" y="296.155" style="stroke: #000000; stroke-width: 0.8"/>
      </g>
     </g>
    </g>
    <g id="xtick_17">
     <g id="line2d_47">
      <path d="M 447.316932 296.155 
L 447.316932 218.683043 
" clip-path="url(#p4f940df1ed)" style="fill: none; stroke: #b0b0b0; stroke-width: 0.8; stroke-linecap: square"/>
     </g>
     <g id="line2d_48">
      <g>
       <use xlink:href="#m4f7866e044" x="447.316932" y="296.155" style="stroke: #000000; stroke-width: 0.8"/>
      </g>
     </g>
    </g>
    <g id="xtick_18">
     <g id="line2d_49">
      <path d="M 538.734886 296.155 
L 538.734886 218.683043 
" clip-path="url(#p4f940df1ed)" style="fill: none; stroke: #b0b0b0; stroke-width: 0.8; stroke-linecap: square"/>
     </g>
     <g id="line2d_50">
      <g>
       <use xlink:href="#m4f7866e044" x="538.734886" y="296.155" style="stroke: #000000; stroke-width: 0.8"/>
      </g>
     </g>
    </g>
   </g>
   <g id="matplotlib.axis_6">
    <g id="ytick_7">
     <g id="line2d_51">
      <path d="M 58.790625 292.633547 
L 561.589375 292.633547 
" clip-path="url(#p4f940df1ed)" style="fill: none; stroke: #b0b0b0; stroke-width: 0.8; stroke-linecap: square"/>
     </g>
     <g id="line2d_52">
      <g>
       <use xlink:href="#m3789be3fd2" x="58.790625" y="292.633547" style="stroke: #000000; stroke-width: 0.8"/>
      </g>
     </g>
     <g id="text_9">
      <!-- 0.0 -->
      <g transform="translate(35.8875 296.432766) scale(0.1 -0.1)">
       <defs>
        <path id="DejaVuSans-2e" d="M 684 794 
L 1344 794 
L 1344 0 
L 684 0 
L 684 794 
z
" transform="scale(0.015625)"/>
       </defs>
       <use xlink:href="#DejaVuSans-30"/>
       <use xlink:href="#DejaVuSans-2e" transform="translate(63.623047 0)"/>
       <use xlink:href="#DejaVuSans-30" transform="translate(95.410156 0)"/>
      </g>
     </g>
    </g>
    <g id="ytick_8">
     <g id="line2d_53">
      <path d="M 58.790625 257.419022 
L 561.589375 257.419022 
" clip-path="url(#p4f940df1ed)" style="fill: none; stroke: #b0b0b0; stroke-width: 0.8; stroke-linecap: square"/>
     </g>
     <g id="line2d_54">
      <g>
       <use xlink:href="#m3789be3fd2" x="58.790625" y="257.419022" style="stroke: #000000; stroke-width: 0.8"/>
      </g>
     </g>
     <g id="text_10">
      <!-- 0.5 -->
      <g transform="translate(35.8875 261.21824) scale(0.1 -0.1)">
       <use xlink:href="#DejaVuSans-30"/>
       <use xlink:href="#DejaVuSans-2e" transform="translate(63.623047 0)"/>
       <use xlink:href="#DejaVuSans-35" transform="translate(95.410156 0)"/>
      </g>
     </g>
    </g>
    <g id="ytick_9">
     <g id="line2d_55">
      <path d="M 58.790625 222.204496 
L 561.589375 222.204496 
" clip-path="url(#p4f940df1ed)" style="fill: none; stroke: #b0b0b0; stroke-width: 0.8; stroke-linecap: square"/>
     </g>
     <g id="line2d_56">
      <g>
       <use xlink:href="#m3789be3fd2" x="58.790625" y="222.204496" style="stroke: #000000; stroke-width: 0.8"/>
      </g>
     </g>
     <g id="text_11">
      <!-- 1.0 -->
      <g transform="translate(35.8875 226.003715) scale(0.1 -0.1)">
       <defs>
        <path id="DejaVuSans-31" d="M 794 531 
L 1825 531 
L 1825 4091 
L 703 3866 
L 703 4441 
L 1819 4666 
L 2450 4666 
L 2450 531 
L 3481 531 
L 3481 0 
L 794 0 
L 794 531 
z
" transform="scale(0.015625)"/>
       </defs>
       <use xlink:href="#DejaVuSans-31"/>
       <use xlink:href="#DejaVuSans-2e" transform="translate(63.623047 0)"/>
       <use xlink:href="#DejaVuSans-30" transform="translate(95.410156 0)"/>
      </g>
     </g>
    </g>
    <g id="text_12">
     <!-- P_s (A to B) -->
     <g transform="translate(29.529688 286.077615) rotate(-90) scale(0.1 -0.1)">
      <defs>
       <path id="DejaVuSans-50" d="M 1259 4147 
L 1259 2394 
L 2053 2394 
Q 2494 2394 2734 2622 
Q 2975 2850 2975 3272 
Q 2975 3691 2734 3919 
Q 2494 4147 2053 4147 
L 1259 4147 
z
M 628 4666 
L 2053 4666 
Q 2838 4666 3239 4311 
Q 3641 3956 3641 3272 
Q 3641 2581 3239 2228 
Q 2838 1875 2053 1875 
L 1259 1875 
L 1259 0 
L 628 0 
L 628 4666 
z
" transform="scale(0.015625)"/>
       <path id="DejaVuSans-73" d="M 2834 3397 
L 2834 2853 
Q 2591 2978 2328 3040 
Q 2066 3103 1784 3103 
Q 1356 3103 1142 2972 
Q 928 2841 928 2578 
Q 928 2378 1081 2264 
Q 1234 2150 1697 2047 
L 1894 2003 
Q 2506 1872 2764 1633 
Q 3022 1394 3022 966 
Q 3022 478 2636 193 
Q 2250 -91 1575 -91 
Q 1294 -91 989 -36 
Q 684 19 347 128 
L 347 722 
Q 666 556 975 473 
Q 1284 391 1588 391 
Q 1994 391 2212 530 
Q 2431 669 2431 922 
Q 2431 1156 2273 1281 
Q 2116 1406 1581 1522 
L 1381 1569 
Q 847 1681 609 1914 
Q 372 2147 372 2553 
Q 372 3047 722 3315 
Q 1072 3584 1716 3584 
Q 2034 3584 2315 3537 
Q 2597 3491 2834 3397 
z
" transform="scale(0.015625)"/>
       <path id="DejaVuSans-74" d="M 1172 4494 
L 1172 3500 
L 2356 3500 
L 2356 3053 
L 1172 3053 
L 1172 1153 
Q 1172 725 1289 603 
Q 1406 481 1766 481 
L 2356 481 
L 2356 0 
L 1766 0 
Q 1100 0 847 248 
Q 594 497 594 1153 
L 594 3053 
L 172 3053 
L 172 3500 
L 594 3500 
L 594 4494 
L 1172 4494 
z
" transform="scale(0.015625)"/>
       <path id="DejaVuSans-6f" d="M 1959 3097 
Q 1497 3097 1228 2736 
Q 959 2375 959 1747 
Q 959 1119 1226 758 
Q 1494 397 1959 397 
Q 2419 397 2687 759 
Q 2956 1122 2956 1747 
Q 2956 2369 2687 2733 
Q 2419 3097 1959 3097 
z
M 1959 3584 
Q 2709 3584 3137 3096 
Q 3566 2609 3566 1747 
Q 3566 888 3137 398 
Q 2709 -91 1959 -91 
Q 1206 -91 779 398 
Q 353 888 353 1747 
Q 353 2609 779 3096 
Q 1206 3584 1959 3584 
z
" transform="scale(0.015625)"/>
      </defs>
      <use xlink:href="#DejaVuSans-50"/>
      <use xlink:href="#DejaVuSans-5f" transform="translate(60.302734 0)"/>
      <use xlink:href="#DejaVuSans-73" transform="translate(110.302734 0)"/>
      <use xlink:href="#DejaVuSans-20" transform="translate(162.402344 0)"/>
      <use xlink:href="#DejaVuSans-28" transform="translate(194.189453 0)"/>
      <use xlink:href="#DejaVuSans-41" transform="translate(233.203125 0)"/>
      <use xlink:href="#DejaVuSans-20" transform="translate(301.611328 0)"/>
      <use xlink:href="#DejaVuSans-74" transform="translate(333.398438 0)"/>
      <use xlink:href="#DejaVuSans-6f" transform="translate(372.607422 0)"/>
      <use xlink:href="#DejaVuSans-20" transform="translate(433.789062 0)"/>
      <use xlink:href="#DejaVuSans-42" transform="translate(465.576172 0)"/>
      <use xlink:href="#DejaVuSans-29" transform="translate(534.179688 0)"/>
     </g>
    </g>
   </g>
   <g id="line2d_57">
    <path d="M 81.645114 292.633547 
L 170.686201 292.633547 
L 170.777619 222.204496 
L 170.869037 223.613077 
L 171.874635 237.366693 
L 172.880232 248.379644 
L 173.88583 257.19806 
L 174.891427 264.259242 
L 175.897025 269.913351 
L 176.99404 274.804629 
L 178.091056 278.642897 
L 179.188071 281.65485 
L 180.285087 284.01838 
L 181.199266 285.594329 
L 181.290684 222.204496 
L 181.382102 223.613077 
L 182.3877 237.366693 
L 183.393297 248.379644 
L 184.398895 257.19806 
L 185.404492 264.259242 
L 186.41009 269.913351 
L 187.507105 274.804629 
L 188.60412 278.642897 
L 189.701136 281.65485 
L 190.798151 284.01838 
L 191.895167 285.873082 
L 192.260839 286.397909 
L 192.352257 222.204496 
L 192.443675 223.613077 
L 193.449272 237.366693 
L 194.45487 248.379644 
L 195.460467 257.19806 
L 196.466065 264.259242 
L 197.471662 269.913351 
L 198.568677 274.804629 
L 199.665693 278.642897 
L 200.762708 281.65485 
L 201.859724 284.01838 
L 202.956739 285.873082 
L 204.145173 287.434598 
L 205.333606 288.635439 
L 206.613457 289.620405 
L 208.076145 290.452642 
L 209.721668 291.117523 
L 211.641445 291.64168 
L 212.281371 291.772482 
L 212.372789 222.204496 
L 212.464207 223.613077 
L 213.469804 237.366693 
L 214.475402 248.379644 
L 215.480999 257.19806 
L 216.486597 264.259242 
L 217.492194 269.913351 
L 218.58921 274.804629 
L 219.686225 278.642897 
L 220.78324 281.65485 
L 221.880256 284.01838 
L 222.977271 285.873082 
L 224.165705 287.434598 
L 225.354138 288.635439 
L 226.63399 289.620405 
L 228.096677 290.452642 
L 229.7422 291.117523 
L 231.661977 291.64168 
L 234.038844 292.046961 
L 237.147054 292.338414 
L 241.80937 292.528218 
L 250.494076 292.618094 
L 287.884019 292.633543 
L 398.68258 292.633547 
L 398.773998 222.204496 
L 398.865416 223.613077 
L 399.871013 237.366693 
L 400.876611 248.379644 
L 401.882208 257.19806 
L 402.887806 264.259242 
L 403.893403 269.913351 
L 404.990419 274.804629 
L 406.087434 278.642897 
L 407.18445 281.65485 
L 408.281465 284.01838 
L 409.378481 285.873082 
L 410.566914 287.434598 
L 411.755347 288.635439 
L 413.035199 289.620405 
L 414.497886 290.452642 
L 416.143409 291.117523 
L 418.063186 291.64168 
L 420.440053 292.046961 
L 423.548264 292.338414 
L 428.210579 292.528218 
L 436.895285 292.618094 
L 474.285228 292.633543 
L 476.205005 292.633545 
L 476.296423 222.204496 
L 476.387841 223.613077 
L 477.393439 237.366693 
L 478.399036 248.379644 
L 479.404634 257.19806 
L 480.410231 264.259242 
L 481.415829 269.913351 
L 482.512844 274.804629 
L 483.60986 278.642897 
L 484.706875 281.65485 
L 485.803891 284.01838 
L 486.900906 285.873082 
L 488.08934 287.434598 
L 489.277773 288.635439 
L 489.460609 288.793764 
L 489.552027 222.204496 
L 489.643445 223.613077 
L 490.649042 237.366693 
L 491.65464 248.379644 
L 492.660237 257.19806 
L 493.665835 264.259242 
L 494.671432 269.913351 
L 495.768448 274.804629 
L 496.865463 278.642897 
L 497.962479 281.65485 
L 499.059494 284.01838 
L 500.15651 285.873082 
L 501.344943 287.434598 
L 502.533376 288.635439 
L 503.813228 289.620405 
L 504.361735 289.964378 
L 504.453153 222.204496 
L 504.544571 223.613077 
L 505.550169 237.366693 
L 506.555766 248.379644 
L 507.561364 257.19806 
L 508.566961 264.259242 
L 509.572559 269.913351 
L 510.669574 274.804629 
L 511.76659 278.642897 
L 512.863605 281.65485 
L 513.960621 284.01838 
L 515.057636 285.873082 
L 516.24607 287.434598 
L 517.251667 288.470586 
L 517.343085 222.204496 
L 517.434503 223.613077 
L 518.4401 237.366693 
L 519.445698 248.379644 
L 520.451295 257.19806 
L 521.456893 264.259242 
L 522.46249 269.913351 
L 523.559506 274.804629 
L 524.656521 278.642897 
L 525.753537 281.65485 
L 526.48488 283.293278 
L 526.576298 222.204496 
L 526.667716 223.613077 
L 527.673314 237.366693 
L 528.678911 248.379644 
L 529.684509 257.19806 
L 530.690106 264.259242 
L 531.695704 269.913351 
L 532.792719 274.804629 
L 533.889735 278.642897 
L 534.072571 279.196927 
L 534.163989 222.204496 
L 534.255407 223.613077 
L 535.261004 237.366693 
L 536.266602 248.379644 
L 537.272199 257.19806 
L 538.277797 264.259242 
L 538.734886 266.985422 
L 538.734886 266.985422 
" clip-path="url(#p4f940df1ed)" style="fill: none; stroke: #1f77b4; stroke-width: 1.5; stroke-linecap: square"/>
   </g>
   <g id="patch_13">
    <path d="M 58.790625 296.155 
L 58.790625 218.683043 
" style="fill: none; stroke: #000000; stroke-width: 0.8; stroke-linejoin: miter; stroke-linecap: square"/>
   </g>
   <g id="patch_14">
    <path d="M 561.589375 296.155 
L 561.589375 218.683043 
" style="fill: none; stroke: #000000; stroke-width: 0.8; stroke-linejoin: miter; stroke-linecap: square"/>
   </g>
   <g id="patch_15">
    <path d="M 58.790625 296.155 
L 561.589375 296.155 
" style="fill: none; stroke: #000000; stroke-width: 0.8; stroke-linejoin: miter; stroke-linecap: square"/>
   </g>
   <g id="patch_16">
    <path d="M 58.790625 218.683043 
L 561.589375 218.683043 
" style="fill: none; stroke: #000000; stroke-width: 0.8; stroke-linejoin: miter; stroke-linecap: square"/>
   </g>
  </g>
  <g id="axes_4">
   <g id="patch_17">
    <path d="M 58.790625 388.6 
L 561.589375 388.6 
L 561.589375 311.128043 
L 58.790625 311.128043 
L 58.790625 388.6 
z
" style="fill: none"/>
   </g>
   <g id="matplotlib.axis_7">
    <g id="xtick_19">
     <g id="line2d_58">
      <path d="M 81.645114 388.6 
L 81.645114 311.128043 
" clip-path="url(#pa42d5aacfc)" style="fill: none; stroke: #b0b0b0; stroke-width: 0.8; stroke-linecap: square"/>
     </g>
     <g id="line2d_59">
      <g>
       <use xlink:href="#m4f7866e044" x="81.645114" y="388.6" style="stroke: #000000; stroke-width: 0.8"/>
      </g>
     </g>
     <g id="text_13">
      <!-- 0 -->
      <g transform="translate(78.463864 403.198437) scale(0.1 -0.1)">
       <use xlink:href="#DejaVuSans-30"/>
      </g>
     </g>
    </g>
    <g id="xtick_20">
     <g id="line2d_60">
      <path d="M 173.063068 388.6 
L 173.063068 311.128043 
" clip-path="url(#pa42d5aacfc)" style="fill: none; stroke: #b0b0b0; stroke-width: 0.8; stroke-linecap: square"/>
     </g>
     <g id="line2d_61">
      <g>
       <use xlink:href="#m4f7866e044" x="173.063068" y="388.6" style="stroke: #000000; stroke-width: 0.8"/>
      </g>
     </g>
     <g id="text_14">
      <!-- 100 -->
      <g transform="translate(163.519318 403.198437) scale(0.1 -0.1)">
       <use xlink:href="#DejaVuSans-31"/>
       <use xlink:href="#DejaVuSans-30" transform="translate(63.623047 0)"/>
       <use xlink:href="#DejaVuSans-30" transform="translate(127.246094 0)"/>
      </g>
     </g>
    </g>
    <g id="xtick_21">
     <g id="line2d_62">
      <path d="M 264.481023 388.6 
L 264.481023 311.128043 
" clip-path="url(#pa42d5aacfc)" style="fill: none; stroke: #b0b0b0; stroke-width: 0.8; stroke-linecap: square"/>
     </g>
     <g id="line2d_63">
      <g>
       <use xlink:href="#m4f7866e044" x="264.481023" y="388.6" style="stroke: #000000; stroke-width: 0.8"/>
      </g>
     </g>
     <g id="text_15">
      <!-- 200 -->
      <g transform="translate(254.937273 403.198437) scale(0.1 -0.1)">
       <use xlink:href="#DejaVuSans-32"/>
       <use xlink:href="#DejaVuSans-30" transform="translate(63.623047 0)"/>
       <use xlink:href="#DejaVuSans-30" transform="translate(127.246094 0)"/>
      </g>
     </g>
    </g>
    <g id="xtick_22">
     <g id="line2d_64">
      <path d="M 355.898977 388.6 
L 355.898977 311.128043 
" clip-path="url(#pa42d5aacfc)" style="fill: none; stroke: #b0b0b0; stroke-width: 0.8; stroke-linecap: square"/>
     </g>
     <g id="line2d_65">
      <g>
       <use xlink:href="#m4f7866e044" x="355.898977" y="388.6" style="stroke: #000000; stroke-width: 0.8"/>
      </g>
     </g>
     <g id="text_16">
      <!-- 300 -->
      <g transform="translate(346.355227 403.198437) scale(0.1 -0.1)">
       <defs>
        <path id="DejaVuSans-33" d="M 2597 2516 
Q 3050 2419 3304 2112 
Q 3559 1806 3559 1356 
Q 3559 666 3084 287 
Q 2609 -91 1734 -91 
Q 1441 -91 1130 -33 
Q 819 25 488 141 
L 488 750 
Q 750 597 1062 519 
Q 1375 441 1716 441 
Q 2309 441 2620 675 
Q 2931 909 2931 1356 
Q 2931 1769 2642 2001 
Q 2353 2234 1838 2234 
L 1294 2234 
L 1294 2753 
L 1863 2753 
Q 2328 2753 2575 2939 
Q 2822 3125 2822 3475 
Q 2822 3834 2567 4026 
Q 2313 4219 1838 4219 
Q 1578 4219 1281 4162 
Q 984 4106 628 3988 
L 628 4550 
Q 988 4650 1302 4700 
Q 1616 4750 1894 4750 
Q 2613 4750 3031 4423 
Q 3450 4097 3450 3541 
Q 3450 3153 3228 2886 
Q 3006 2619 2597 2516 
z
" transform="scale(0.015625)"/>
       </defs>
       <use xlink:href="#DejaVuSans-33"/>
       <use xlink:href="#DejaVuSans-30" transform="translate(63.623047 0)"/>
       <use xlink:href="#DejaVuSans-30" transform="translate(127.246094 0)"/>
      </g>
     </g>
    </g>
    <g id="xtick_23">
     <g id="line2d_66">
      <path d="M 447.316932 388.6 
L 447.316932 311.128043 
" clip-path="url(#pa42d5aacfc)" style="fill: none; stroke: #b0b0b0; stroke-width: 0.8; stroke-linecap: square"/>
     </g>
     <g id="line2d_67">
      <g>
       <use xlink:href="#m4f7866e044" x="447.316932" y="388.6" style="stroke: #000000; stroke-width: 0.8"/>
      </g>
     </g>
     <g id="text_17">
      <!-- 400 -->
      <g transform="translate(437.773182 403.198437) scale(0.1 -0.1)">
       <defs>
        <path id="DejaVuSans-34" d="M 2419 4116 
L 825 1625 
L 2419 1625 
L 2419 4116 
z
M 2253 4666 
L 3047 4666 
L 3047 1625 
L 3713 1625 
L 3713 1100 
L 3047 1100 
L 3047 0 
L 2419 0 
L 2419 1100 
L 313 1100 
L 313 1709 
L 2253 4666 
z
" transform="scale(0.015625)"/>
       </defs>
       <use xlink:href="#DejaVuSans-34"/>
       <use xlink:href="#DejaVuSans-30" transform="translate(63.623047 0)"/>
       <use xlink:href="#DejaVuSans-30" transform="translate(127.246094 0)"/>
      </g>
     </g>
    </g>
    <g id="xtick_24">
     <g id="line2d_68">
      <path d="M 538.734886 388.6 
L 538.734886 311.128043 
" clip-path="url(#pa42d5aacfc)" style="fill: none; stroke: #b0b0b0; stroke-width: 0.8; stroke-linecap: square"/>
     </g>
     <g id="line2d_69">
      <g>
       <use xlink:href="#m4f7866e044" x="538.734886" y="388.6" style="stroke: #000000; stroke-width: 0.8"/>
      </g>
     </g>
     <g id="text_18">
      <!-- 500 -->
      <g transform="translate(529.191136 403.198437) scale(0.1 -0.1)">
       <use xlink:href="#DejaVuSans-35"/>
       <use xlink:href="#DejaVuSans-30" transform="translate(63.623047 0)"/>
       <use xlink:href="#DejaVuSans-30" transform="translate(127.246094 0)"/>
      </g>
     </g>
    </g>
    <g id="text_19">
     <!-- Time (ms) -->
     <g transform="translate(284.990781 416.876562) scale(0.1 -0.1)">
      <defs>
       <path id="DejaVuSans-54" d="M -19 4666 
L 3928 4666 
L 3928 4134 
L 2272 4134 
L 2272 0 
L 1638 0 
L 1638 4134 
L -19 4134 
L -19 4666 
z
" transform="scale(0.015625)"/>
       <path id="DejaVuSans-69" d="M 603 3500 
L 1178 3500 
L 1178 0 
L 603 0 
L 603 3500 
z
M 603 4863 
L 1178 4863 
L 1178 4134 
L 603 4134 
L 603 4863 
z
" transform="scale(0.015625)"/>
       <path id="DejaVuSans-65" d="M 3597 1894 
L 3597 1613 
L 953 1613 
Q 991 1019 1311 708 
Q 1631 397 2203 397 
Q 2534 397 2845 478 
Q 3156 559 3463 722 
L 3463 178 
Q 3153 47 2828 -22 
Q 2503 -91 2169 -91 
Q 1331 -91 842 396 
Q 353 884 353 1716 
Q 353 2575 817 3079 
Q 1281 3584 2069 3584 
Q 2775 3584 3186 3129 
Q 3597 2675 3597 1894 
z
M 3022 2063 
Q 3016 2534 2758 2815 
Q 2500 3097 2075 3097 
Q 1594 3097 1305 2825 
Q 1016 2553 972 2059 
L 3022 2063 
z
" transform="scale(0.015625)"/>
      </defs>
      <use xlink:href="#DejaVuSans-54"/>
      <use xlink:href="#DejaVuSans-69" transform="translate(57.958984 0)"/>
      <use xlink:href="#DejaVuSans-6d" transform="translate(85.742188 0)"/>
      <use xlink:href="#DejaVuSans-65" transform="translate(183.154297 0)"/>
      <use xlink:href="#DejaVuSans-20" transform="translate(244.677734 0)"/>
      <use xlink:href="#DejaVuSans-28" transform="translate(276.464844 0)"/>
      <use xlink:href="#DejaVuSans-6d" transform="translate(315.478516 0)"/>
      <use xlink:href="#DejaVuSans-73" transform="translate(412.890625 0)"/>
      <use xlink:href="#DejaVuSans-29" transform="translate(464.990234 0)"/>
     </g>
    </g>
   </g>
   <g id="matplotlib.axis_8">
    <g id="ytick_10">
     <g id="line2d_70">
      <path d="M 58.790625 385.078547 
L 561.589375 385.078547 
" clip-path="url(#pa42d5aacfc)" style="fill: none; stroke: #b0b0b0; stroke-width: 0.8; stroke-linecap: square"/>
     </g>
     <g id="line2d_71">
      <g>
       <use xlink:href="#m3789be3fd2" x="58.790625" y="385.078547" style="stroke: #000000; stroke-width: 0.8"/>
      </g>
     </g>
     <g id="text_20">
      <!-- −0.05 -->
      <g transform="translate(21.145313 388.877766) scale(0.1 -0.1)">
       <use xlink:href="#DejaVuSans-2212"/>
       <use xlink:href="#DejaVuSans-30" transform="translate(83.789062 0)"/>
       <use xlink:href="#DejaVuSans-2e" transform="translate(147.412109 0)"/>
       <use xlink:href="#DejaVuSans-30" transform="translate(179.199219 0)"/>
       <use xlink:href="#DejaVuSans-35" transform="translate(242.822266 0)"/>
      </g>
     </g>
    </g>
    <g id="ytick_11">
     <g id="line2d_72">
      <path d="M 58.790625 349.864022 
L 561.589375 349.864022 
" clip-path="url(#pa42d5aacfc)" style="fill: none; stroke: #b0b0b0; stroke-width: 0.8; stroke-linecap: square"/>
     </g>
     <g id="line2d_73">
      <g>
       <use xlink:href="#m3789be3fd2" x="58.790625" y="349.864022" style="stroke: #000000; stroke-width: 0.8"/>
      </g>
     </g>
     <g id="text_21">
      <!-- 0.00 -->
      <g transform="translate(29.525 353.66324) scale(0.1 -0.1)">
       <use xlink:href="#DejaVuSans-30"/>
       <use xlink:href="#DejaVuSans-2e" transform="translate(63.623047 0)"/>
       <use xlink:href="#DejaVuSans-30" transform="translate(95.410156 0)"/>
       <use xlink:href="#DejaVuSans-30" transform="translate(159.033203 0)"/>
      </g>
     </g>
    </g>
    <g id="ytick_12">
     <g id="line2d_74">
      <path d="M 58.790625 314.649496 
L 561.589375 314.649496 
" clip-path="url(#pa42d5aacfc)" style="fill: none; stroke: #b0b0b0; stroke-width: 0.8; stroke-linecap: square"/>
     </g>
     <g id="line2d_75">
      <g>
       <use xlink:href="#m3789be3fd2" x="58.790625" y="314.649496" style="stroke: #000000; stroke-width: 0.8"/>
      </g>
     </g>
     <g id="text_22">
      <!-- 0.05 -->
      <g transform="translate(29.525 318.448715) scale(0.1 -0.1)">
       <use xlink:href="#DejaVuSans-30"/>
       <use xlink:href="#DejaVuSans-2e" transform="translate(63.623047 0)"/>
       <use xlink:href="#DejaVuSans-30" transform="translate(95.410156 0)"/>
       <use xlink:href="#DejaVuSans-35" transform="translate(159.033203 0)"/>
      </g>
     </g>
    </g>
    <g id="text_23">
     <!-- P_s (B to A) -->
     <g transform="translate(14.7875 378.522615) rotate(-90) scale(0.1 -0.1)">
      <use xlink:href="#DejaVuSans-50"/>
      <use xlink:href="#DejaVuSans-5f" transform="translate(60.302734 0)"/>
      <use xlink:href="#DejaVuSans-73" transform="translate(110.302734 0)"/>
      <use xlink:href="#DejaVuSans-20" transform="translate(162.402344 0)"/>
      <use xlink:href="#DejaVuSans-28" transform="translate(194.189453 0)"/>
      <use xlink:href="#DejaVuSans-42" transform="translate(233.203125 0)"/>
      <use xlink:href="#DejaVuSans-20" transform="translate(301.806641 0)"/>
      <use xlink:href="#DejaVuSans-74" transform="translate(333.59375 0)"/>
      <use xlink:href="#DejaVuSans-6f" transform="translate(372.802734 0)"/>
      <use xlink:href="#DejaVuSans-20" transform="translate(433.984375 0)"/>
      <use xlink:href="#DejaVuSans-41" transform="translate(465.771484 0)"/>
      <use xlink:href="#DejaVuSans-29" transform="translate(534.179688 0)"/>
     </g>
    </g>
   </g>
   <g id="line2d_76">
    <path d="M 81.645114 349.864022 
L 538.734886 349.864022 
L 538.734886 349.864022 
" clip-path="url(#pa42d5aacfc)" style="fill: none; stroke: #1f77b4; stroke-width: 1.5; stroke-linecap: square"/>
   </g>
   <g id="patch_18">
    <path d="M 58.790625 388.6 
L 58.790625 311.128043 
" style="fill: none; stroke: #000000; stroke-width: 0.8; stroke-linejoin: miter; stroke-linecap: square"/>
   </g>
   <g id="patch_19">
    <path d="M 561.589375 388.6 
L 561.589375 311.128043 
" style="fill: none; stroke: #000000; stroke-width: 0.8; stroke-linejoin: miter; stroke-linecap: square"/>
   </g>
   <g id="patch_20">
    <path d="M 58.790625 388.6 
L 561.589375 388.6 
" style="fill: none; stroke: #000000; stroke-width: 0.8; stroke-linejoin: miter; stroke-linecap: square"/>
   </g>
   <g id="patch_21">
    <path d="M 58.790625 311.128043 
L 561.589375 311.128043 
" style="fill: none; stroke: #000000; stroke-width: 0.8; stroke-linejoin: miter; stroke-linecap: square"/>
   </g>
  </g>
  <g id="text_24">
   <!-- Excitatory A to B only -->
   <g transform="translate(219.551875 16.318125) scale(0.12 -0.12)">
    <defs>
     <path id="DejaVuSans-45" d="M 628 4666 
L 3578 4666 
L 3578 4134 
L 1259 4134 
L 1259 2753 
L 3481 2753 
L 3481 2222 
L 1259 2222 
L 1259 531 
L 3634 531 
L 3634 0 
L 628 0 
L 628 4666 
z
" transform="scale(0.015625)"/>
     <path id="DejaVuSans-78" d="M 3513 3500 
L 2247 1797 
L 3578 0 
L 2900 0 
L 1881 1375 
L 863 0 
L 184 0 
L 1544 1831 
L 300 3500 
L 978 3500 
L 1906 2253 
L 2834 3500 
L 3513 3500 
z
" transform="scale(0.015625)"/>
     <path id="DejaVuSans-63" d="M 3122 3366 
L 3122 2828 
Q 2878 2963 2633 3030 
Q 2388 3097 2138 3097 
Q 1578 3097 1268 2742 
Q 959 2388 959 1747 
Q 959 1106 1268 751 
Q 1578 397 2138 397 
Q 2388 397 2633 464 
Q 2878 531 3122 666 
L 3122 134 
Q 2881 22 2623 -34 
Q 2366 -91 2075 -91 
Q 1284 -91 818 406 
Q 353 903 353 1747 
Q 353 2603 823 3093 
Q 1294 3584 2113 3584 
Q 2378 3584 2631 3529 
Q 2884 3475 3122 3366 
z
" transform="scale(0.015625)"/>
     <path id="DejaVuSans-61" d="M 2194 1759 
Q 1497 1759 1228 1600 
Q 959 1441 959 1056 
Q 959 750 1161 570 
Q 1363 391 1709 391 
Q 2188 391 2477 730 
Q 2766 1069 2766 1631 
L 2766 1759 
L 2194 1759 
z
M 3341 1997 
L 3341 0 
L 2766 0 
L 2766 531 
Q 2569 213 2275 61 
Q 1981 -91 1556 -91 
Q 1019 -91 701 211 
Q 384 513 384 1019 
Q 384 1609 779 1909 
Q 1175 2209 1959 2209 
L 2766 2209 
L 2766 2266 
Q 2766 2663 2505 2880 
Q 2244 3097 1772 3097 
Q 1472 3097 1187 3025 
Q 903 2953 641 2809 
L 641 3341 
Q 956 3463 1253 3523 
Q 1550 3584 1831 3584 
Q 2591 3584 2966 3190 
Q 3341 2797 3341 1997 
z
" transform="scale(0.015625)"/>
     <path id="DejaVuSans-72" d="M 2631 2963 
Q 2534 3019 2420 3045 
Q 2306 3072 2169 3072 
Q 1681 3072 1420 2755 
Q 1159 2438 1159 1844 
L 1159 0 
L 581 0 
L 581 3500 
L 1159 3500 
L 1159 2956 
Q 1341 3275 1631 3429 
Q 1922 3584 2338 3584 
Q 2397 3584 2469 3576 
Q 2541 3569 2628 3553 
L 2631 2963 
z
" transform="scale(0.015625)"/>
     <path id="DejaVuSans-79" d="M 2059 -325 
Q 1816 -950 1584 -1140 
Q 1353 -1331 966 -1331 
L 506 -1331 
L 506 -850 
L 844 -850 
Q 1081 -850 1212 -737 
Q 1344 -625 1503 -206 
L 1606 56 
L 191 3500 
L 800 3500 
L 1894 763 
L 2988 3500 
L 3597 3500 
L 2059 -325 
z
" transform="scale(0.015625)"/>
     <path id="DejaVuSans-6e" d="M 3513 2113 
L 3513 0 
L 2938 0 
L 2938 2094 
Q 2938 2591 2744 2837 
Q 2550 3084 2163 3084 
Q 1697 3084 1428 2787 
Q 1159 2491 1159 1978 
L 1159 0 
L 581 0 
L 581 3500 
L 1159 3500 
L 1159 2956 
Q 1366 3272 1645 3428 
Q 1925 3584 2291 3584 
Q 2894 3584 3203 3211 
Q 3513 2838 3513 2113 
z
" transform="scale(0.015625)"/>
     <path id="DejaVuSans-6c" d="M 603 4863 
L 1178 4863 
L 1178 0 
L 603 0 
L 603 4863 
z
" transform="scale(0.015625)"/>
    </defs>
    <use xlink:href="#DejaVuSans-45"/>
    <use xlink:href="#DejaVuSans-78" transform="translate(63.183594 0)"/>
    <use xlink:href="#DejaVuSans-63" transform="translate(120.613281 0)"/>
    <use xlink:href="#DejaVuSans-69" transform="translate(175.59375 0)"/>
    <use xlink:href="#DejaVuSans-74" transform="translate(203.376953 0)"/>
    <use xlink:href="#DejaVuSans-61" transform="translate(242.585938 0)"/>
    <use xlink:href="#DejaVuSans-74" transform="translate(303.865234 0)"/>
    <use xlink:href="#DejaVuSans-6f" transform="translate(343.074219 0)"/>
    <use xlink:href="#DejaVuSans-72" transform="translate(404.255859 0)"/>
    <use xlink:href="#DejaVuSans-79" transform="translate(445.369141 0)"/>
    <use xlink:href="#DejaVuSans-20" transform="translate(504.548828 0)"/>
    <use xlink:href="#DejaVuSans-41" transform="translate(536.335938 0)"/>
    <use xlink:href="#DejaVuSans-20" transform="translate(604.744141 0)"/>
    <use xlink:href="#DejaVuSans-74" transform="translate(636.53125 0)"/>
    <use xlink:href="#DejaVuSans-6f" transform="translate(675.740234 0)"/>
    <use xlink:href="#DejaVuSans-20" transform="translate(736.921875 0)"/>
    <use xlink:href="#DejaVuSans-42" transform="translate(768.708984 0)"/>
    <use xlink:href="#DejaVuSans-20" transform="translate(837.3125 0)"/>
    <use xlink:href="#DejaVuSans-6f" transform="translate(869.099609 0)"/>
    <use xlink:href="#DejaVuSans-6e" transform="translate(930.28125 0)"/>
    <use xlink:href="#DejaVuSans-6c" transform="translate(993.660156 0)"/>
    <use xlink:href="#DejaVuSans-79" transform="translate(1021.443359 0)"/>
   </g>
  </g>
 </g>
 <defs>
  <clipPath id="pe1a8b97715">
   <rect x="58.790625" y="33.793043" width="502.79875" height="77.471957"/>
  </clipPath>
  <clipPath id="p7c360340db">
   <rect x="58.790625" y="126.238043" width="502.79875" height="77.471957"/>
  </clipPath>
  <clipPath id="p4f940df1ed">
   <rect x="58.790625" y="218.683043" width="502.79875" height="77.471957"/>
  </clipPath>
  <clipPath id="pa42d5aacfc">
   <rect x="58.790625" y="311.128043" width="502.79875" height="77.471957"/>
  </clipPath>
 </defs>
</svg>
