<?xml version="1.0" encoding="utf-8" standalone="no"?>
<!DOCTYPE svg PUBLIC "-//W3C//DTD SVG 1.1//EN"
  "http://www.w3.org/Graphics/SVG/1.1/DTD/svg11.dtd">
<svg xmlns:xlink="http://www.w3.org/1999/xlink" width="568.69875pt" height="426.15625pt" viewBox="0 0 568.69875 426.15625" xmlns="http://www.w3.org/2000/svg" version="1.1">
 <metadata>
  <rdf:RDF xmlns:dc="http://purl.org/dc/elements/1.1/" xmlns:cc="http://creativecommons.org/ns#" xmlns:rdf="http://www.w3.org/1999/02/22-rdf-syntax-ns#">
   <cc:Work>
    <dc:type rdf:resource="http://purl.org/dc/dcmitype/StillImage"/>
    <dc:date>2025-05-18T02:20:11.168169</dc:date>
    <dc:format>image/svg+xml</dc:format>
    <dc:creator>
     <cc:Agent>
      <dc:title>Matplotlib v3.10.1, https://matplotlib.org/</dc:title>
     </cc:Agent>
    </dc:creator>
   </cc:Work>
  </rdf:RDF>
 </metadata>
 <defs>
  <style type="text/css">*{stroke-linejoin: round; stroke-linecap: butt}</style>
 </defs>
 <g id="figure_1">
  <g id="patch_1">
   <path d="M 0 426.15625 
L 568.69875 426.15625 
L 568.69875 0 
L 0 0 
L 0 426.15625 
z
" style="fill: none"/>
  </g>
  <g id="axes_1">
   <g id="patch_2">
    <path d="M 49.25 111.265 
L 561.49875 111.265 
L 561.49875 33.793043 
L 49.25 33.793043 
L 49.25 111.265 
z
" style="fill: none"/>
   </g>
   <g id="matplotlib.axis_1">
    <g id="xtick_1">
     <g id="line2d_1">
      <path d="M 72.534034 111.265 
L 72.534034 33.793043 
" clip-path="url(#paf1338e1ba)" style="fill: none; stroke: #b0b0b0; stroke-width: 0.8; stroke-linecap: square"/>
     </g>
     <g id="line2d_2">
      <defs>
       <path id="m2ef68fa83f" d="M 0 0 
L 0 3.5 
" style="stroke: #000000; stroke-width: 0.8"/>
      </defs>
      <g>
       <use xlink:href="#m2ef68fa83f" x="72.534034" y="111.265" style="stroke: #000000; stroke-width: 0.8"/>
      </g>
     </g>
    </g>
    <g id="xtick_2">
     <g id="line2d_3">
      <path d="M 165.67017 111.265 
L 165.67017 33.793043 
" clip-path="url(#paf1338e1ba)" style="fill: none; stroke: #b0b0b0; stroke-width: 0.8; stroke-linecap: square"/>
     </g>
     <g id="line2d_4">
      <g>
       <use xlink:href="#m2ef68fa83f" x="165.67017" y="111.265" style="stroke: #000000; stroke-width: 0.8"/>
      </g>
     </g>
    </g>
    <g id="xtick_3">
     <g id="line2d_5">
      <path d="M 258.806307 111.265 
L 258.806307 33.793043 
" clip-path="url(#paf1338e1ba)" style="fill: none; stroke: #b0b0b0; stroke-width: 0.8; stroke-linecap: square"/>
     </g>
     <g id="line2d_6">
      <g>
       <use xlink:href="#m2ef68fa83f" x="258.806307" y="111.265" style="stroke: #000000; stroke-width: 0.8"/>
      </g>
     </g>
    </g>
    <g id="xtick_4">
     <g id="line2d_7">
      <path d="M 351.942443 111.265 
L 351.942443 33.793043 
" clip-path="url(#paf1338e1ba)" style="fill: none; stroke: #b0b0b0; stroke-width: 0.8; stroke-linecap: square"/>
     </g>
     <g id="line2d_8">
      <g>
       <use xlink:href="#m2ef68fa83f" x="351.942443" y="111.265" style="stroke: #000000; stroke-width: 0.8"/>
      </g>
     </g>
    </g>
    <g id="xtick_5">
     <g id="line2d_9">
      <path d="M 445.07858 111.265 
L 445.07858 33.793043 
" clip-path="url(#paf1338e1ba)" style="fill: none; stroke: #b0b0b0; stroke-width: 0.8; stroke-linecap: square"/>
     </g>
     <g id="line2d_10">
      <g>
       <use xlink:href="#m2ef68fa83f" x="445.07858" y="111.265" style="stroke: #000000; stroke-width: 0.8"/>
      </g>
     </g>
    </g>
    <g id="xtick_6">
     <g id="line2d_11">
      <path d="M 538.214716 111.265 
L 538.214716 33.793043 
" clip-path="url(#paf1338e1ba)" style="fill: none; stroke: #b0b0b0; stroke-width: 0.8; stroke-linecap: square"/>
     </g>
     <g id="line2d_12">
      <g>
       <use xlink:href="#m2ef68fa83f" x="538.214716" y="111.265" style="stroke: #000000; stroke-width: 0.8"/>
      </g>
     </g>
    </g>
   </g>
   <g id="matplotlib.axis_2">
    <g id="ytick_1">
     <g id="line2d_13">
      <path d="M 49.25 91.490689 
L 561.49875 91.490689 
" clip-path="url(#paf1338e1ba)" style="fill: none; stroke: #b0b0b0; stroke-width: 0.8; stroke-linecap: square"/>
     </g>
     <g id="line2d_14">
      <defs>
       <path id="m8242b2a88f" d="M 0 0 
L -3.5 0 
" style="stroke: #000000; stroke-width: 0.8"/>
      </defs>
      <g>
       <use xlink:href="#m8242b2a88f" x="49.25" y="91.490689" style="stroke: #000000; stroke-width: 0.8"/>
      </g>
     </g>
     <g id="text_1">
      <!-- −50 -->
      <g transform="translate(21.145312 95.289908) scale(0.1 -0.1)">
       <defs>
        <path id="DejaVuSans-2212" d="M 678 2272 
L 4684 2272 
L 4684 1741 
L 678 1741 
L 678 2272 
z
" transform="scale(0.015625)"/>
        <path id="DejaVuSans-35" d="M 691 4666 
L 3169 4666 
L 3169 4134 
L 1269 4134 
L 1269 2991 
Q 1406 3038 1543 3061 
Q 1681 3084 1819 3084 
Q 2600 3084 3056 2656 
Q 3513 2228 3513 1497 
Q 3513 744 3044 326 
Q 2575 -91 1722 -91 
Q 1428 -91 1123 -41 
Q 819 9 494 109 
L 494 744 
Q 775 591 1075 516 
Q 1375 441 1709 441 
Q 2250 441 2565 725 
Q 2881 1009 2881 1497 
Q 2881 1984 2565 2268 
Q 2250 2553 1709 2553 
Q 1456 2553 1204 2497 
Q 953 2441 691 2322 
L 691 4666 
z
" transform="scale(0.015625)"/>
        <path id="DejaVuSans-30" d="M 2034 4250 
Q 1547 4250 1301 3770 
Q 1056 3291 1056 2328 
Q 1056 1369 1301 889 
Q 1547 409 2034 409 
Q 2525 409 2770 889 
Q 3016 1369 3016 2328 
Q 3016 3291 2770 3770 
Q 2525 4250 2034 4250 
z
M 2034 4750 
Q 2819 4750 3233 4129 
Q 3647 3509 3647 2328 
Q 3647 1150 3233 529 
Q 2819 -91 2034 -91 
Q 1250 -91 836 529 
Q 422 1150 422 2328 
Q 422 3509 836 4129 
Q 1250 4750 2034 4750 
z
" transform="scale(0.015625)"/>
       </defs>
       <use xlink:href="#DejaVuSans-2212"/>
       <use xlink:href="#DejaVuSans-35" transform="translate(83.789062 0)"/>
       <use xlink:href="#DejaVuSans-30" transform="translate(147.412109 0)"/>
      </g>
     </g>
    </g>
    <g id="ytick_2">
     <g id="line2d_15">
      <path d="M 49.25 64.402593 
L 561.49875 64.402593 
" clip-path="url(#paf1338e1ba)" style="fill: none; stroke: #b0b0b0; stroke-width: 0.8; stroke-linecap: square"/>
     </g>
     <g id="line2d_16">
      <g>
       <use xlink:href="#m8242b2a88f" x="49.25" y="64.402593" style="stroke: #000000; stroke-width: 0.8"/>
      </g>
     </g>
     <g id="text_2">
      <!-- −25 -->
      <g transform="translate(21.145312 68.201811) scale(0.1 -0.1)">
       <defs>
        <path id="DejaVuSans-32" d="M 1228 531 
L 3431 531 
L 3431 0 
L 469 0 
L 469 531 
Q 828 903 1448 1529 
Q 2069 2156 2228 2338 
Q 2531 2678 2651 2914 
Q 2772 3150 2772 3378 
Q 2772 3750 2511 3984 
Q 2250 4219 1831 4219 
Q 1534 4219 1204 4116 
Q 875 4013 500 3803 
L 500 4441 
Q 881 4594 1212 4672 
Q 1544 4750 1819 4750 
Q 2544 4750 2975 4387 
Q 3406 4025 3406 3419 
Q 3406 3131 3298 2873 
Q 3191 2616 2906 2266 
Q 2828 2175 2409 1742 
Q 1991 1309 1228 531 
z
" transform="scale(0.015625)"/>
       </defs>
       <use xlink:href="#DejaVuSans-2212"/>
       <use xlink:href="#DejaVuSans-32" transform="translate(83.789062 0)"/>
       <use xlink:href="#DejaVuSans-35" transform="translate(147.412109 0)"/>
      </g>
     </g>
    </g>
    <g id="ytick_3">
     <g id="line2d_17">
      <path d="M 49.25 37.314496 
L 561.49875 37.314496 
" clip-path="url(#paf1338e1ba)" style="fill: none; stroke: #b0b0b0; stroke-width: 0.8; stroke-linecap: square"/>
     </g>
     <g id="line2d_18">
      <g>
       <use xlink:href="#m8242b2a88f" x="49.25" y="37.314496" style="stroke: #000000; stroke-width: 0.8"/>
      </g>
     </g>
     <g id="text_3">
      <!-- 0 -->
      <g transform="translate(35.8875 41.113715) scale(0.1 -0.1)">
       <use xlink:href="#DejaVuSans-30"/>
      </g>
     </g>
    </g>
    <g id="text_4">
     <!-- V_A (mV) -->
     <g transform="translate(14.7875 95.650897) rotate(-90) scale(0.1 -0.1)">
      <defs>
       <path id="DejaVuSans-56" d="M 1831 0 
L 50 4666 
L 709 4666 
L 2188 738 
L 3669 4666 
L 4325 4666 
L 2547 0 
L 1831 0 
z
" transform="scale(0.015625)"/>
       <path id="DejaVuSans-5f" d="M 3263 -1063 
L 3263 -1509 
L -63 -1509 
L -63 -1063 
L 3263 -1063 
z
" transform="scale(0.015625)"/>
       <path id="DejaVuSans-41" d="M 2188 4044 
L 1331 1722 
L 3047 1722 
L 2188 4044 
z
M 1831 4666 
L 2547 4666 
L 4325 0 
L 3669 0 
L 3244 1197 
L 1141 1197 
L 716 0 
L 50 0 
L 1831 4666 
z
" transform="scale(0.015625)"/>
       <path id="DejaVuSans-20" transform="scale(0.015625)"/>
       <path id="DejaVuSans-28" d="M 1984 4856 
Q 1566 4138 1362 3434 
Q 1159 2731 1159 2009 
Q 1159 1288 1364 580 
Q 1569 -128 1984 -844 
L 1484 -844 
Q 1016 -109 783 600 
Q 550 1309 550 2009 
Q 550 2706 781 3412 
Q 1013 4119 1484 4856 
L 1984 4856 
z
" transform="scale(0.015625)"/>
       <path id="DejaVuSans-6d" d="M 3328 2828 
Q 3544 3216 3844 3400 
Q 4144 3584 4550 3584 
Q 5097 3584 5394 3201 
Q 5691 2819 5691 2113 
L 5691 0 
L 5113 0 
L 5113 2094 
Q 5113 2597 4934 2840 
Q 4756 3084 4391 3084 
Q 3944 3084 3684 2787 
Q 3425 2491 3425 1978 
L 3425 0 
L 2847 0 
L 2847 2094 
Q 2847 2600 2669 2842 
Q 2491 3084 2119 3084 
Q 1678 3084 1418 2786 
Q 1159 2488 1159 1978 
L 1159 0 
L 581 0 
L 581 3500 
L 1159 3500 
L 1159 2956 
Q 1356 3278 1631 3431 
Q 1906 3584 2284 3584 
Q 2666 3584 2933 3390 
Q 3200 3197 3328 2828 
z
" transform="scale(0.015625)"/>
       <path id="DejaVuSans-29" d="M 513 4856 
L 1013 4856 
Q 1481 4119 1714 3412 
Q 1947 2706 1947 2009 
Q 1947 1309 1714 600 
Q 1481 -109 1013 -844 
L 513 -844 
Q 928 -128 1133 580 
Q 1338 1288 1338 2009 
Q 1338 2731 1133 3434 
Q 928 4138 513 4856 
z
" transform="scale(0.015625)"/>
      </defs>
      <use xlink:href="#DejaVuSans-56"/>
      <use xlink:href="#DejaVuSans-5f" transform="translate(68.408203 0)"/>
      <use xlink:href="#DejaVuSans-41" transform="translate(118.408203 0)"/>
      <use xlink:href="#DejaVuSans-20" transform="translate(186.816406 0)"/>
      <use xlink:href="#DejaVuSans-28" transform="translate(218.603516 0)"/>
      <use xlink:href="#DejaVuSans-6d" transform="translate(257.617188 0)"/>
      <use xlink:href="#DejaVuSans-56" transform="translate(355.029297 0)"/>
      <use xlink:href="#DejaVuSans-29" transform="translate(423.4375 0)"/>
     </g>
    </g>
   </g>
   <g id="line2d_19">
    <path d="M 72.534034 107.743547 
L 74.024212 104.441134 
L 75.51439 101.649912 
L 77.004569 99.315206 
L 78.494747 97.389603 
L 79.984925 95.831639 
L 81.475103 94.60433 
L 82.965281 93.674428 
L 84.45546 93.011543 
L 85.945638 92.587429 
L 87.528952 92.368839 
L 89.205402 92.365179 
L 91.068125 92.595586 
L 93.11712 93.083081 
L 95.53866 93.902116 
L 98.612152 95.197584 
L 104.20032 97.855411 
L 109.602216 100.323875 
L 113.700206 101.951107 
L 117.518788 103.229508 
L 121.151097 104.214742 
L 124.503998 104.901828 
L 127.670627 105.326019 
L 130.557847 105.493988 
L 133.258795 105.437088 
L 133.817612 105.489857 
L 134.748973 106.16605 
L 135.680335 106.581391 
L 136.704832 106.809279 
L 137.915602 106.844133 
L 139.312644 106.648509 
L 140.989094 106.169484 
L 142.944953 105.367629 
L 145.366493 104.11863 
L 148.346849 102.313752 
L 152.258567 99.6623 
L 163.807448 91.52168 
L 163.900584 37.314496 
L 163.99372 107.521619 
L 164.086856 107.301491 
L 165.763307 103.63128 
L 167.439757 100.465937 
L 169.209344 97.604632 
L 170.97893 95.177734 
L 172.748517 93.135995 
L 174.424967 91.519458 
L 174.518103 37.314496 
L 174.61124 107.500761 
L 174.704376 107.260437 
L 176.194554 103.733816 
L 177.684732 100.754414 
L 179.17491 98.253472 
L 180.665088 96.171268 
L 182.155267 94.455126 
L 183.645445 93.058432 
L 185.228759 91.878157 
L 185.787576 91.528009 
L 185.880712 37.314496 
L 185.973848 107.527294 
L 186.066984 107.313518 
L 187.464026 104.387823 
L 188.861068 101.937974 
L 190.351247 99.773628 
L 191.841425 98.00265 
L 193.331603 96.562562 
L 194.914917 95.333998 
L 196.591368 94.310001 
L 198.45409 93.437318 
L 200.503085 92.723772 
L 202.924625 92.119285 
L 205.998117 91.594006 
L 206.743207 91.493806 
L 206.836343 37.314496 
L 206.929479 107.569902 
L 207.022615 107.397984 
L 208.605929 104.722549 
L 210.189244 102.461052 
L 211.865694 100.443965 
L 213.635281 98.66689 
L 215.498003 97.122464 
L 217.453862 95.802285 
L 219.502857 94.698522 
L 221.644988 93.804276 
L 223.880256 93.11412 
L 226.301795 92.607669 
L 228.816471 92.308435 
L 231.610555 92.199148 
L 231.796827 92.198952 
L 232.728189 93.560303 
L 233.65955 94.522729 
L 234.684048 95.2481 
L 235.801681 95.754947 
L 237.105587 96.087843 
L 238.688901 96.249363 
L 240.831032 96.223834 
L 244.27707 95.923504 
L 248.188787 95.47692 
L 249.027013 96.459907 
L 249.958374 97.205314 
L 250.889735 97.679719 
L 252.007369 97.989724 
L 253.311275 98.102158 
L 254.894589 98.007432 
L 257.222992 97.625534 
L 264.580747 96.284733 
L 267.65424 96.023666 
L 270.820868 95.979315 
L 274.63945 96.160535 
L 288.60987 97.05225 
L 293.45295 96.978817 
L 309.286093 96.52951 
L 313.9429 96.753185 
L 316.736984 96.985291 
L 317.668345 98.222497 
L 318.599706 99.1099 
L 319.624204 99.793503 
L 320.834974 100.3216 
L 322.232016 100.677036 
L 324.001602 100.886218 
L 326.609414 100.945928 
L 338.344567 100.970374 
L 345.143505 101.379937 
L 352.687532 101.78433 
L 356.971795 101.788541 
L 360.790376 101.572536 
L 364.422685 101.147773 
L 368.148131 100.48622 
L 372.059849 99.560118 
L 376.344111 98.309622 
L 381.280326 96.629019 
L 395.530155 91.497257 
L 395.623291 37.314496 
L 395.716427 107.553645 
L 395.809563 107.365507 
L 397.392878 104.423703 
L 398.976192 101.924043 
L 400.559506 99.812206 
L 402.235957 97.948387 
L 403.912407 96.42235 
L 405.588858 95.194503 
L 407.265308 94.230114 
L 409.034895 93.463522 
L 410.897617 92.899316 
L 412.853476 92.535922 
L 414.995608 92.361045 
L 417.417147 92.385451 
L 420.397503 92.648314 
L 424.495493 93.252083 
L 437.255144 95.261073 
L 443.588401 95.95369 
L 449.083433 96.34033 
L 453.27456 96.417742 
L 456.720597 96.264047 
L 459.887225 95.899943 
L 462.960718 95.317715 
L 466.127346 94.484848 
L 469.759656 93.286102 
L 474.509599 91.502576 
L 474.602735 37.314496 
L 474.695871 107.546084 
L 474.789007 107.350262 
L 476.465458 104.090883 
L 478.141908 101.288574 
L 479.911495 98.762968 
L 481.681081 96.62709 
L 483.450668 94.83439 
L 485.220254 93.345011 
L 487.082977 92.066232 
L 488.014338 91.526305 
L 488.107475 37.314496 
L 488.200611 107.531679 
L 488.293747 107.322016 
L 489.783925 104.25109 
L 491.274103 101.6622 
L 492.857417 99.362952 
L 494.440732 97.458019 
L 496.117182 95.800443 
L 497.793633 94.44743 
L 499.656355 93.23117 
L 501.70535 92.163031 
L 503.195529 91.520206 
L 503.288665 37.314496 
L 503.381801 107.544911 
L 503.474937 107.348201 
L 505.058251 104.278192 
L 506.734702 101.519161 
L 508.504288 99.049298 
L 510.367011 96.837194 
L 512.416006 94.757253 
L 514.74441 92.726037 
L 516.327724 91.493899 
L 516.42086 37.314496 
L 516.513996 107.512033 
L 516.607132 107.282437 
L 518.283583 103.455447 
L 520.053169 99.966229 
L 521.915892 96.794122 
L 523.871751 93.915248 
L 525.734474 91.528125 
L 525.82761 37.314496 
L 525.920746 107.470449 
L 526.013882 107.199681 
L 527.690333 102.700178 
L 529.366783 98.835604 
L 531.043233 95.513346 
L 532.719684 92.658522 
L 533.464773 91.52345 
L 533.557909 37.314496 
L 533.651045 107.445494 
L 533.744181 107.150226 
L 535.327496 102.534261 
L 536.91081 98.609043 
L 538.214716 95.830229 
L 538.214716 95.830229 
" clip-path="url(#paf1338e1ba)" style="fill: none; stroke: #1f77b4; stroke-width: 1.5; stroke-linecap: square"/>
   </g>
   <g id="patch_3">
    <path d="M 49.25 111.265 
L 49.25 33.793043 
" style="fill: none; stroke: #000000; stroke-width: 0.8; stroke-linejoin: miter; stroke-linecap: square"/>
   </g>
   <g id="patch_4">
    <path d="M 561.49875 111.265 
L 561.49875 33.793043 
" style="fill: none; stroke: #000000; stroke-width: 0.8; stroke-linejoin: miter; stroke-linecap: square"/>
   </g>
   <g id="patch_5">
    <path d="M 49.25 111.265 
L 561.49875 111.265 
" style="fill: none; stroke: #000000; stroke-width: 0.8; stroke-linejoin: miter; stroke-linecap: square"/>
   </g>
   <g id="patch_6">
    <path d="M 49.25 33.793043 
L 561.49875 33.793043 
" style="fill: none; stroke: #000000; stroke-width: 0.8; stroke-linejoin: miter; stroke-linecap: square"/>
   </g>
  </g>
  <g id="axes_2">
   <g id="patch_7">
    <path d="M 49.25 203.71 
L 561.49875 203.71 
L 561.49875 126.238043 
L 49.25 126.238043 
L 49.25 203.71 
z
" style="fill: none"/>
   </g>
   <g id="matplotlib.axis_3">
    <g id="xtick_7">
     <g id="line2d_20">
      <path d="M 72.534034 203.71 
L 72.534034 126.238043 
" clip-path="url(#p5a1bb29e3d)" style="fill: none; stroke: #b0b0b0; stroke-width: 0.8; stroke-linecap: square"/>
     </g>
     <g id="line2d_21">
      <g>
       <use xlink:href="#m2ef68fa83f" x="72.534034" y="203.71" style="stroke: #000000; stroke-width: 0.8"/>
      </g>
     </g>
    </g>
    <g id="xtick_8">
     <g id="line2d_22">
      <path d="M 165.67017 203.71 
L 165.67017 126.238043 
" clip-path="url(#p5a1bb29e3d)" style="fill: none; stroke: #b0b0b0; stroke-width: 0.8; stroke-linecap: square"/>
     </g>
     <g id="line2d_23">
      <g>
       <use xlink:href="#m2ef68fa83f" x="165.67017" y="203.71" style="stroke: #000000; stroke-width: 0.8"/>
      </g>
     </g>
    </g>
    <g id="xtick_9">
     <g id="line2d_24">
      <path d="M 258.806307 203.71 
L 258.806307 126.238043 
" clip-path="url(#p5a1bb29e3d)" style="fill: none; stroke: #b0b0b0; stroke-width: 0.8; stroke-linecap: square"/>
     </g>
     <g id="line2d_25">
      <g>
       <use xlink:href="#m2ef68fa83f" x="258.806307" y="203.71" style="stroke: #000000; stroke-width: 0.8"/>
      </g>
     </g>
    </g>
    <g id="xtick_10">
     <g id="line2d_26">
      <path d="M 351.942443 203.71 
L 351.942443 126.238043 
" clip-path="url(#p5a1bb29e3d)" style="fill: none; stroke: #b0b0b0; stroke-width: 0.8; stroke-linecap: square"/>
     </g>
     <g id="line2d_27">
      <g>
       <use xlink:href="#m2ef68fa83f" x="351.942443" y="203.71" style="stroke: #000000; stroke-width: 0.8"/>
      </g>
     </g>
    </g>
    <g id="xtick_11">
     <g id="line2d_28">
      <path d="M 445.07858 203.71 
L 445.07858 126.238043 
" clip-path="url(#p5a1bb29e3d)" style="fill: none; stroke: #b0b0b0; stroke-width: 0.8; stroke-linecap: square"/>
     </g>
     <g id="line2d_29">
      <g>
       <use xlink:href="#m2ef68fa83f" x="445.07858" y="203.71" style="stroke: #000000; stroke-width: 0.8"/>
      </g>
     </g>
    </g>
    <g id="xtick_12">
     <g id="line2d_30">
      <path d="M 538.214716 203.71 
L 538.214716 126.238043 
" clip-path="url(#p5a1bb29e3d)" style="fill: none; stroke: #b0b0b0; stroke-width: 0.8; stroke-linecap: square"/>
     </g>
     <g id="line2d_31">
      <g>
       <use xlink:href="#m2ef68fa83f" x="538.214716" y="203.71" style="stroke: #000000; stroke-width: 0.8"/>
      </g>
     </g>
    </g>
   </g>
   <g id="matplotlib.axis_4">
    <g id="ytick_4">
     <g id="line2d_32">
      <path d="M 49.25 183.935689 
L 561.49875 183.935689 
" clip-path="url(#p5a1bb29e3d)" style="fill: none; stroke: #b0b0b0; stroke-width: 0.8; stroke-linecap: square"/>
     </g>
     <g id="line2d_33">
      <g>
       <use xlink:href="#m8242b2a88f" x="49.25" y="183.935689" style="stroke: #000000; stroke-width: 0.8"/>
      </g>
     </g>
     <g id="text_5">
      <!-- −50 -->
      <g transform="translate(21.145312 187.734908) scale(0.1 -0.1)">
       <use xlink:href="#DejaVuSans-2212"/>
       <use xlink:href="#DejaVuSans-35" transform="translate(83.789062 0)"/>
       <use xlink:href="#DejaVuSans-30" transform="translate(147.412109 0)"/>
      </g>
     </g>
    </g>
    <g id="ytick_5">
     <g id="line2d_34">
      <path d="M 49.25 156.847593 
L 561.49875 156.847593 
" clip-path="url(#p5a1bb29e3d)" style="fill: none; stroke: #b0b0b0; stroke-width: 0.8; stroke-linecap: square"/>
     </g>
     <g id="line2d_35">
      <g>
       <use xlink:href="#m8242b2a88f" x="49.25" y="156.847593" style="stroke: #000000; stroke-width: 0.8"/>
      </g>
     </g>
     <g id="text_6">
      <!-- −25 -->
      <g transform="translate(21.145312 160.646811) scale(0.1 -0.1)">
       <use xlink:href="#DejaVuSans-2212"/>
       <use xlink:href="#DejaVuSans-32" transform="translate(83.789062 0)"/>
       <use xlink:href="#DejaVuSans-35" transform="translate(147.412109 0)"/>
      </g>
     </g>
    </g>
    <g id="ytick_6">
     <g id="line2d_36">
      <path d="M 49.25 129.759496 
L 561.49875 129.759496 
" clip-path="url(#p5a1bb29e3d)" style="fill: none; stroke: #b0b0b0; stroke-width: 0.8; stroke-linecap: square"/>
     </g>
     <g id="line2d_37">
      <g>
       <use xlink:href="#m8242b2a88f" x="49.25" y="129.759496" style="stroke: #000000; stroke-width: 0.8"/>
      </g>
     </g>
     <g id="text_7">
      <!-- 0 -->
      <g transform="translate(35.8875 133.558715) scale(0.1 -0.1)">
       <use xlink:href="#DejaVuSans-30"/>
      </g>
     </g>
    </g>
    <g id="text_8">
     <!-- V_B (mV) -->
     <g transform="translate(14.7875 188.106053) rotate(-90) scale(0.1 -0.1)">
      <defs>
       <path id="DejaVuSans-42" d="M 1259 2228 
L 1259 519 
L 2272 519 
Q 2781 519 3026 730 
Q 3272 941 3272 1375 
Q 3272 1813 3026 2020 
Q 2781 2228 2272 2228 
L 1259 2228 
z
M 1259 4147 
L 1259 2741 
L 2194 2741 
Q 2656 2741 2882 2914 
Q 3109 3088 3109 3444 
Q 3109 3797 2882 3972 
Q 2656 4147 2194 4147 
L 1259 4147 
z
M 628 4666 
L 2241 4666 
Q 2963 4666 3353 4366 
Q 3744 4066 3744 3513 
Q 3744 3084 3544 2831 
Q 3344 2578 2956 2516 
Q 3422 2416 3680 2098 
Q 3938 1781 3938 1306 
Q 3938 681 3513 340 
Q 3088 0 2303 0 
L 628 0 
L 628 4666 
z
" transform="scale(0.015625)"/>
      </defs>
      <use xlink:href="#DejaVuSans-56"/>
      <use xlink:href="#DejaVuSans-5f" transform="translate(68.408203 0)"/>
      <use xlink:href="#DejaVuSans-42" transform="translate(118.408203 0)"/>
      <use xlink:href="#DejaVuSans-20" transform="translate(187.011719 0)"/>
      <use xlink:href="#DejaVuSans-28" transform="translate(218.798828 0)"/>
      <use xlink:href="#DejaVuSans-6d" transform="translate(257.8125 0)"/>
      <use xlink:href="#DejaVuSans-56" transform="translate(355.224609 0)"/>
      <use xlink:href="#DejaVuSans-29" transform="translate(423.632812 0)"/>
     </g>
    </g>
   </g>
   <g id="line2d_38">
    <path d="M 72.534034 200.188547 
L 74.583029 198.942142 
L 77.004569 197.737706 
L 80.264333 196.385834 
L 103.827776 187.399712 
L 107.180677 186.479082 
L 110.347305 185.83587 
L 113.700206 185.38251 
L 117.798196 185.067689 
L 130.930392 184.235513 
L 133.63134 183.93739 
L 133.724476 129.759496 
L 133.817612 200.015937 
L 133.910748 199.844918 
L 135.587198 197.022882 
L 137.263649 194.636788 
L 138.940099 192.62489 
L 140.709686 190.852025 
L 142.479273 189.392197 
L 144.341995 188.149271 
L 146.204718 187.167844 
L 148.160577 186.379553 
L 150.302708 185.755973 
L 152.724247 185.294325 
L 155.518332 184.998987 
L 159.336913 184.841533 
L 163.807448 184.769613 
L 164.645673 185.983244 
L 165.577034 186.92587 
L 166.508396 187.548819 
L 167.532893 187.960565 
L 168.650527 188.170578 
L 169.954433 188.192903 
L 171.630883 187.990411 
L 174.052423 187.447328 
L 174.424967 187.350085 
L 175.263193 188.147413 
L 176.101418 188.660394 
L 177.032779 188.982853 
L 178.150413 189.122315 
L 179.454319 189.054684 
L 181.223905 188.730262 
L 185.415031 187.64426 
L 185.787576 187.55244 
L 186.625801 188.387921 
L 187.557163 189.00629 
L 188.58166 189.4161 
L 189.79243 189.65043 
L 191.282608 189.704324 
L 193.517875 189.536682 
L 204.135395 188.472794 
L 206.743207 188.285083 
L 207.581432 189.303466 
L 208.512793 190.07786 
L 209.444155 190.569248 
L 210.468652 190.865447 
L 211.679422 190.972428 
L 213.076464 190.862952 
L 214.84605 190.483845 
L 217.174454 189.736196 
L 220.713627 188.337633 
L 230.586057 184.33534 
L 231.703691 183.939633 
L 231.796827 129.759496 
L 231.889963 199.994176 
L 231.9831 199.801566 
L 233.65955 196.618402 
L 235.336 193.919689 
L 237.012451 191.638324 
L 238.688901 189.719464 
L 240.458488 188.037906 
L 242.228075 186.667668 
L 243.997661 185.57436 
L 245.860384 184.691595 
L 247.723107 184.056853 
L 248.095651 183.95757 
L 248.188787 129.759496 
L 248.281923 200.003908 
L 248.37506 199.821423 
L 249.772102 197.330265 
L 251.169144 195.261318 
L 252.566186 193.562883 
L 253.963228 192.189257 
L 255.453406 191.036219 
L 256.943584 190.161867 
L 258.526898 189.493217 
L 260.203349 189.029646 
L 262.066072 188.752583 
L 264.208203 188.669536 
L 266.909151 188.804089 
L 272.404183 189.376076 
L 276.409037 189.661581 
L 279.668801 189.669588 
L 282.928566 189.451063 
L 286.560875 188.978423 
L 291.869635 188.033712 
L 301.369521 186.341461 
L 316.643847 183.943891 
L 316.736984 129.759496 
L 316.83012 200.01188 
L 316.923256 199.836857 
L 318.50657 197.099337 
L 320.183021 194.644284 
L 321.859471 192.585961 
L 323.535922 190.876252 
L 325.212372 189.477224 
L 326.888823 188.358316 
L 328.565273 187.494045 
L 330.33486 186.833699 
L 332.104446 186.409083 
L 333.967169 186.191557 
L 335.923028 186.187187 
L 338.065159 186.407367 
L 340.486698 186.882955 
L 343.560191 187.726419 
L 353.991438 190.792218 
L 356.878658 191.292965 
L 359.579606 191.538798 
L 362.37369 191.566117 
L 365.447183 191.362 
L 369.358901 190.856393 
L 377.554881 189.732353 
L 380.907782 189.539981 
L 384.167546 189.576402 
L 387.799856 189.844934 
L 395.064474 190.681995 
L 395.530155 190.730659 
L 396.461516 191.911848 
L 397.392878 192.744318 
L 398.417375 193.362881 
L 399.535009 193.776993 
L 400.838915 194.013873 
L 402.422229 194.056596 
L 404.378088 193.873107 
L 407.172172 193.366885 
L 417.417147 191.319759 
L 420.676912 190.989085 
L 423.84354 190.89439 
L 427.010169 191.028394 
L 430.269934 191.38951 
L 433.995379 192.034087 
L 438.838458 193.120049 
L 448.990297 195.457535 
L 452.902015 196.083316 
L 456.348052 196.407735 
L 459.514681 196.482951 
L 462.588173 196.330039 
L 465.56853 195.955915 
L 468.548886 195.355234 
L 471.622378 194.505939 
L 474.602735 193.595999 
L 475.44096 194.144971 
L 476.372321 194.469437 
L 477.396819 194.565492 
L 478.514453 194.440697 
L 479.911495 194.04687 
L 481.681081 193.302323 
L 484.382029 191.896353 
L 488.014338 189.907254 
L 488.852564 190.454967 
L 489.783925 190.775442 
L 490.808422 190.874635 
L 492.019192 190.756046 
L 493.602507 190.360592 
L 496.210318 189.436154 
L 501.23967 187.640776 
L 503.195529 187.075898 
L 504.033754 187.963651 
L 504.965115 188.614618 
L 505.896477 189.003775 
L 507.01411 189.219782 
L 508.318016 189.227749 
L 509.90133 189.002404 
L 511.950325 188.476029 
L 514.837546 187.489084 
L 516.327724 186.915329 
L 517.165949 187.667275 
L 518.004174 188.116351 
L 518.935536 188.345245 
L 519.960033 188.349628 
L 521.170803 188.110463 
L 522.660981 187.564077 
L 524.61684 186.583569 
L 525.82761 186.020947 
L 526.572699 186.483431 
L 527.410924 186.734351 
L 528.342285 186.759907 
L 529.366783 186.56189 
L 530.670689 186.072783 
L 532.440275 185.151314 
L 533.557909 184.617143 
L 534.302998 185.047754 
L 535.141223 185.274345 
L 536.072585 185.288566 
L 537.190218 185.073186 
L 538.214716 184.72659 
L 538.214716 184.72659 
" clip-path="url(#p5a1bb29e3d)" style="fill: none; stroke: #1f77b4; stroke-width: 1.5; stroke-linecap: square"/>
   </g>
   <g id="patch_8">
    <path d="M 49.25 203.71 
L 49.25 126.238043 
" style="fill: none; stroke: #000000; stroke-width: 0.8; stroke-linejoin: miter; stroke-linecap: square"/>
   </g>
   <g id="patch_9">
    <path d="M 561.49875 203.71 
L 561.49875 126.238043 
" style="fill: none; stroke: #000000; stroke-width: 0.8; stroke-linejoin: miter; stroke-linecap: square"/>
   </g>
   <g id="patch_10">
    <path d="M 49.25 203.71 
L 561.49875 203.71 
" style="fill: none; stroke: #000000; stroke-width: 0.8; stroke-linejoin: miter; stroke-linecap: square"/>
   </g>
   <g id="patch_11">
    <path d="M 49.25 126.238043 
L 561.49875 126.238043 
" style="fill: none; stroke: #000000; stroke-width: 0.8; stroke-linejoin: miter; stroke-linecap: square"/>
   </g>
  </g>
  <g id="axes_3">
   <g id="patch_12">
    <path d="M 49.25 296.155 
L 561.49875 296.155 
L 561.49875 218.683043 
L 49.25 218.683043 
L 49.25 296.155 
z
" style="fill: none"/>
   </g>
   <g id="matplotlib.axis_5">
    <g id="xtick_13">
     <g id="line2d_39">
      <path d="M 72.534034 296.155 
L 72.534034 218.683043 
" clip-path="url(#pd23c6254a4)" style="fill: none; stroke: #b0b0b0; stroke-width: 0.8; stroke-linecap: square"/>
     </g>
     <g id="line2d_40">
      <g>
       <use xlink:href="#m2ef68fa83f" x="72.534034" y="296.155" style="stroke: #000000; stroke-width: 0.8"/>
      </g>
     </g>
    </g>
    <g id="xtick_14">
     <g id="line2d_41">
      <path d="M 165.67017 296.155 
L 165.67017 218.683043 
" clip-path="url(#pd23c6254a4)" style="fill: none; stroke: #b0b0b0; stroke-width: 0.8; stroke-linecap: square"/>
     </g>
     <g id="line2d_42">
      <g>
       <use xlink:href="#m2ef68fa83f" x="165.67017" y="296.155" style="stroke: #000000; stroke-width: 0.8"/>
      </g>
     </g>
    </g>
    <g id="xtick_15">
     <g id="line2d_43">
      <path d="M 258.806307 296.155 
L 258.806307 218.683043 
" clip-path="url(#pd23c6254a4)" style="fill: none; stroke: #b0b0b0; stroke-width: 0.8; stroke-linecap: square"/>
     </g>
     <g id="line2d_44">
      <g>
       <use xlink:href="#m2ef68fa83f" x="258.806307" y="296.155" style="stroke: #000000; stroke-width: 0.8"/>
      </g>
     </g>
    </g>
    <g id="xtick_16">
     <g id="line2d_45">
      <path d="M 351.942443 296.155 
L 351.942443 218.683043 
" clip-path="url(#pd23c6254a4)" style="fill: none; stroke: #b0b0b0; stroke-width: 0.8; stroke-linecap: square"/>
     </g>
     <g id="line2d_46">
      <g>
       <use xlink:href="#m2ef68fa83f" x="351.942443" y="296.155" style="stroke: #000000; stroke-width: 0.8"/>
      </g>
     </g>
    </g>
    <g id="xtick_17">
     <g id="line2d_47">
      <path d="M 445.07858 296.155 
L 445.07858 218.683043 
" clip-path="url(#pd23c6254a4)" style="fill: none; stroke: #b0b0b0; stroke-width: 0.8; stroke-linecap: square"/>
     </g>
     <g id="line2d_48">
      <g>
       <use xlink:href="#m2ef68fa83f" x="445.07858" y="296.155" style="stroke: #000000; stroke-width: 0.8"/>
      </g>
     </g>
    </g>
    <g id="xtick_18">
     <g id="line2d_49">
      <path d="M 538.214716 296.155 
L 538.214716 218.683043 
" clip-path="url(#pd23c6254a4)" style="fill: none; stroke: #b0b0b0; stroke-width: 0.8; stroke-linecap: square"/>
     </g>
     <g id="line2d_50">
      <g>
       <use xlink:href="#m2ef68fa83f" x="538.214716" y="296.155" style="stroke: #000000; stroke-width: 0.8"/>
      </g>
     </g>
    </g>
   </g>
   <g id="matplotlib.axis_6">
    <g id="ytick_7">
     <g id="line2d_51">
      <path d="M 49.25 292.633547 
L 561.49875 292.633547 
" clip-path="url(#pd23c6254a4)" style="fill: none; stroke: #b0b0b0; stroke-width: 0.8; stroke-linecap: square"/>
     </g>
     <g id="line2d_52">
      <g>
       <use xlink:href="#m8242b2a88f" x="49.25" y="292.633547" style="stroke: #000000; stroke-width: 0.8"/>
      </g>
     </g>
     <g id="text_9">
      <!-- 0.0 -->
      <g transform="translate(26.346875 296.432766) scale(0.1 -0.1)">
       <defs>
        <path id="DejaVuSans-2e" d="M 684 794 
L 1344 794 
L 1344 0 
L 684 0 
L 684 794 
z
" transform="scale(0.015625)"/>
       </defs>
       <use xlink:href="#DejaVuSans-30"/>
       <use xlink:href="#DejaVuSans-2e" transform="translate(63.623047 0)"/>
       <use xlink:href="#DejaVuSans-30" transform="translate(95.410156 0)"/>
      </g>
     </g>
    </g>
    <g id="ytick_8">
     <g id="line2d_53">
      <path d="M 49.25 257.419022 
L 561.49875 257.419022 
" clip-path="url(#pd23c6254a4)" style="fill: none; stroke: #b0b0b0; stroke-width: 0.8; stroke-linecap: square"/>
     </g>
     <g id="line2d_54">
      <g>
       <use xlink:href="#m8242b2a88f" x="49.25" y="257.419022" style="stroke: #000000; stroke-width: 0.8"/>
      </g>
     </g>
     <g id="text_10">
      <!-- 0.5 -->
      <g transform="translate(26.346875 261.21824) scale(0.1 -0.1)">
       <use xlink:href="#DejaVuSans-30"/>
       <use xlink:href="#DejaVuSans-2e" transform="translate(63.623047 0)"/>
       <use xlink:href="#DejaVuSans-35" transform="translate(95.410156 0)"/>
      </g>
     </g>
    </g>
    <g id="ytick_9">
     <g id="line2d_55">
      <path d="M 49.25 222.204496 
L 561.49875 222.204496 
" clip-path="url(#pd23c6254a4)" style="fill: none; stroke: #b0b0b0; stroke-width: 0.8; stroke-linecap: square"/>
     </g>
     <g id="line2d_56">
      <g>
       <use xlink:href="#m8242b2a88f" x="49.25" y="222.204496" style="stroke: #000000; stroke-width: 0.8"/>
      </g>
     </g>
     <g id="text_11">
      <!-- 1.0 -->
      <g transform="translate(26.346875 226.003715) scale(0.1 -0.1)">
       <defs>
        <path id="DejaVuSans-31" d="M 794 531 
L 1825 531 
L 1825 4091 
L 703 3866 
L 703 4441 
L 1819 4666 
L 2450 4666 
L 2450 531 
L 3481 531 
L 3481 0 
L 794 0 
L 794 531 
z
" transform="scale(0.015625)"/>
       </defs>
       <use xlink:href="#DejaVuSans-31"/>
       <use xlink:href="#DejaVuSans-2e" transform="translate(63.623047 0)"/>
       <use xlink:href="#DejaVuSans-30" transform="translate(95.410156 0)"/>
      </g>
     </g>
    </g>
    <g id="text_12">
     <!-- P_s (A to B) -->
     <g transform="translate(19.989062 286.077615) rotate(-90) scale(0.1 -0.1)">
      <defs>
       <path id="DejaVuSans-50" d="M 1259 4147 
L 1259 2394 
L 2053 2394 
Q 2494 2394 2734 2622 
Q 2975 2850 2975 3272 
Q 2975 3691 2734 3919 
Q 2494 4147 2053 4147 
L 1259 4147 
z
M 628 4666 
L 2053 4666 
Q 2838 4666 3239 4311 
Q 3641 3956 3641 3272 
Q 3641 2581 3239 2228 
Q 2838 1875 2053 1875 
L 1259 1875 
L 1259 0 
L 628 0 
L 628 4666 
z
" transform="scale(0.015625)"/>
       <path id="DejaVuSans-73" d="M 2834 3397 
L 2834 2853 
Q 2591 2978 2328 3040 
Q 2066 3103 1784 3103 
Q 1356 3103 1142 2972 
Q 928 2841 928 2578 
Q 928 2378 1081 2264 
Q 1234 2150 1697 2047 
L 1894 2003 
Q 2506 1872 2764 1633 
Q 3022 1394 3022 966 
Q 3022 478 2636 193 
Q 2250 -91 1575 -91 
Q 1294 -91 989 -36 
Q 684 19 347 128 
L 347 722 
Q 666 556 975 473 
Q 1284 391 1588 391 
Q 1994 391 2212 530 
Q 2431 669 2431 922 
Q 2431 1156 2273 1281 
Q 2116 1406 1581 1522 
L 1381 1569 
Q 847 1681 609 1914 
Q 372 2147 372 2553 
Q 372 3047 722 3315 
Q 1072 3584 1716 3584 
Q 2034 3584 2315 3537 
Q 2597 3491 2834 3397 
z
" transform="scale(0.015625)"/>
       <path id="DejaVuSans-74" d="M 1172 4494 
L 1172 3500 
L 2356 3500 
L 2356 3053 
L 1172 3053 
L 1172 1153 
Q 1172 725 1289 603 
Q 1406 481 1766 481 
L 2356 481 
L 2356 0 
L 1766 0 
Q 1100 0 847 248 
Q 594 497 594 1153 
L 594 3053 
L 172 3053 
L 172 3500 
L 594 3500 
L 594 4494 
L 1172 4494 
z
" transform="scale(0.015625)"/>
       <path id="DejaVuSans-6f" d="M 1959 3097 
Q 1497 3097 1228 2736 
Q 959 2375 959 1747 
Q 959 1119 1226 758 
Q 1494 397 1959 397 
Q 2419 397 2687 759 
Q 2956 1122 2956 1747 
Q 2956 2369 2687 2733 
Q 2419 3097 1959 3097 
z
M 1959 3584 
Q 2709 3584 3137 3096 
Q 3566 2609 3566 1747 
Q 3566 888 3137 398 
Q 2709 -91 1959 -91 
Q 1206 -91 779 398 
Q 353 888 353 1747 
Q 353 2609 779 3096 
Q 1206 3584 1959 3584 
z
" transform="scale(0.015625)"/>
      </defs>
      <use xlink:href="#DejaVuSans-50"/>
      <use xlink:href="#DejaVuSans-5f" transform="translate(60.302734 0)"/>
      <use xlink:href="#DejaVuSans-73" transform="translate(110.302734 0)"/>
      <use xlink:href="#DejaVuSans-20" transform="translate(162.402344 0)"/>
      <use xlink:href="#DejaVuSans-28" transform="translate(194.189453 0)"/>
      <use xlink:href="#DejaVuSans-41" transform="translate(233.203125 0)"/>
      <use xlink:href="#DejaVuSans-20" transform="translate(301.611328 0)"/>
      <use xlink:href="#DejaVuSans-74" transform="translate(333.398438 0)"/>
      <use xlink:href="#DejaVuSans-6f" transform="translate(372.607422 0)"/>
      <use xlink:href="#DejaVuSans-20" transform="translate(433.789062 0)"/>
      <use xlink:href="#DejaVuSans-42" transform="translate(465.576172 0)"/>
      <use xlink:href="#DejaVuSans-29" transform="translate(534.179688 0)"/>
     </g>
    </g>
   </g>
   <g id="line2d_57">
    <path d="M 72.534034 292.633547 
L 163.807448 292.633547 
L 163.900584 222.204496 
L 163.99372 223.613077 
L 165.018217 237.366693 
L 166.042715 248.379644 
L 167.067212 257.19806 
L 168.09171 264.259242 
L 169.116207 269.913351 
L 170.140705 274.440774 
L 171.165202 278.066023 
L 172.282836 281.202168 
L 173.40047 283.663153 
L 174.424967 285.450671 
L 174.518103 222.204496 
L 174.61124 223.613077 
L 175.635737 237.366693 
L 176.660235 248.379644 
L 177.684732 257.19806 
L 178.70923 264.259242 
L 179.733727 269.913351 
L 180.758225 274.440774 
L 181.782722 278.066023 
L 182.900356 281.202168 
L 184.017989 283.663153 
L 185.135623 285.594329 
L 185.787576 286.522622 
L 185.880712 222.204496 
L 185.973848 223.613077 
L 186.998346 237.366693 
L 188.022843 248.379644 
L 189.047341 257.19806 
L 190.071838 264.259242 
L 191.096336 269.913351 
L 192.120833 274.440774 
L 193.145331 278.066023 
L 194.262964 281.202168 
L 195.380598 283.663153 
L 196.498232 285.594329 
L 197.615865 287.109755 
L 198.826635 288.385627 
L 200.130541 289.432137 
L 201.527583 290.269084 
L 203.110897 290.956382 
L 204.97362 291.513859 
L 206.743207 291.870779 
L 206.836343 222.204496 
L 206.929479 223.613077 
L 207.953976 237.366693 
L 208.978474 248.379644 
L 210.002971 257.19806 
L 211.027469 264.259242 
L 212.051966 269.913351 
L 213.076464 274.440774 
L 214.100961 278.066023 
L 215.218595 281.202168 
L 216.336229 283.663153 
L 217.453862 285.594329 
L 218.571496 287.109755 
L 219.782266 288.385627 
L 221.086172 289.432137 
L 222.483214 290.269084 
L 224.066528 290.956382 
L 225.929251 291.513859 
L 228.164518 291.944065 
L 231.051738 292.264968 
L 235.149728 292.482024 
L 242.134938 292.600248 
L 262.252344 292.633124 
L 395.530155 292.633547 
L 395.623291 222.204496 
L 395.716427 223.613077 
L 396.740925 237.366693 
L 397.765422 248.379644 
L 398.78992 257.19806 
L 399.814417 264.259242 
L 400.838915 269.913351 
L 401.863412 274.440774 
L 402.88791 278.066023 
L 404.005543 281.202168 
L 405.123177 283.663153 
L 406.240811 285.594329 
L 407.358444 287.109755 
L 408.569214 288.385627 
L 409.87312 289.432137 
L 411.270162 290.269084 
L 412.853476 290.956382 
L 414.716199 291.513859 
L 416.951466 291.944065 
L 419.838687 292.264968 
L 423.936677 292.482024 
L 430.921887 292.600248 
L 451.039292 292.633124 
L 474.509599 292.633545 
L 474.602735 222.204496 
L 474.695871 223.613077 
L 475.720368 237.366693 
L 476.744866 248.379644 
L 477.769363 257.19806 
L 478.793861 264.259242 
L 479.818358 269.913351 
L 480.842856 274.440774 
L 481.867353 278.066023 
L 482.984987 281.202168 
L 484.102621 283.663153 
L 485.220254 285.594329 
L 486.337888 287.109755 
L 487.548658 288.385627 
L 488.014338 288.793764 
L 488.107475 222.204496 
L 488.200611 223.613077 
L 489.225108 237.366693 
L 490.249606 248.379644 
L 491.274103 257.19806 
L 492.298601 264.259242 
L 493.323098 269.913351 
L 494.347596 274.440774 
L 495.372093 278.066023 
L 496.489727 281.202168 
L 497.60736 283.663153 
L 498.724994 285.594329 
L 499.842628 287.109755 
L 501.053397 288.385627 
L 502.357303 289.432137 
L 503.195529 289.964378 
L 503.288665 222.204496 
L 503.381801 223.613077 
L 504.406298 237.366693 
L 505.430796 248.379644 
L 506.455293 257.19806 
L 507.479791 264.259242 
L 508.504288 269.913351 
L 509.528786 274.440774 
L 510.553283 278.066023 
L 511.670917 281.202168 
L 512.788551 283.663153 
L 513.906184 285.594329 
L 515.023818 287.109755 
L 516.234588 288.385627 
L 516.327724 288.470586 
L 516.42086 222.204496 
L 516.513996 223.613077 
L 517.538494 237.366693 
L 518.562991 248.379644 
L 519.587489 257.19806 
L 520.611986 264.259242 
L 521.636484 269.913351 
L 522.660981 274.440774 
L 523.685479 278.066023 
L 524.803112 281.202168 
L 525.734474 283.293278 
L 525.82761 222.204496 
L 525.920746 223.613077 
L 526.945243 237.366693 
L 527.969741 248.379644 
L 528.994238 257.19806 
L 530.018736 264.259242 
L 531.043233 269.913351 
L 532.067731 274.440774 
L 533.092228 278.066023 
L 533.464773 279.196927 
L 533.557909 222.204496 
L 533.651045 223.613077 
L 534.675543 237.366693 
L 535.70004 248.379644 
L 536.724538 257.19806 
L 537.749035 264.259242 
L 538.214716 266.985422 
L 538.214716 266.985422 
" clip-path="url(#pd23c6254a4)" style="fill: none; stroke: #1f77b4; stroke-width: 1.5; stroke-linecap: square"/>
   </g>
   <g id="patch_13">
    <path d="M 49.25 296.155 
L 49.25 218.683043 
" style="fill: none; stroke: #000000; stroke-width: 0.8; stroke-linejoin: miter; stroke-linecap: square"/>
   </g>
   <g id="patch_14">
    <path d="M 561.49875 296.155 
L 561.49875 218.683043 
" style="fill: none; stroke: #000000; stroke-width: 0.8; stroke-linejoin: miter; stroke-linecap: square"/>
   </g>
   <g id="patch_15">
    <path d="M 49.25 296.155 
L 561.49875 296.155 
" style="fill: none; stroke: #000000; stroke-width: 0.8; stroke-linejoin: miter; stroke-linecap: square"/>
   </g>
   <g id="patch_16">
    <path d="M 49.25 218.683043 
L 561.49875 218.683043 
" style="fill: none; stroke: #000000; stroke-width: 0.8; stroke-linejoin: miter; stroke-linecap: square"/>
   </g>
  </g>
  <g id="axes_4">
   <g id="patch_17">
    <path d="M 49.25 388.6 
L 561.49875 388.6 
L 561.49875 311.128043 
L 49.25 311.128043 
L 49.25 388.6 
z
" style="fill: none"/>
   </g>
   <g id="matplotlib.axis_7">
    <g id="xtick_19">
     <g id="line2d_58">
      <path d="M 72.534034 388.6 
L 72.534034 311.128043 
" clip-path="url(#p7fb8ef123f)" style="fill: none; stroke: #b0b0b0; stroke-width: 0.8; stroke-linecap: square"/>
     </g>
     <g id="line2d_59">
      <g>
       <use xlink:href="#m2ef68fa83f" x="72.534034" y="388.6" style="stroke: #000000; stroke-width: 0.8"/>
      </g>
     </g>
     <g id="text_13">
      <!-- 0 -->
      <g transform="translate(69.352784 403.198437) scale(0.1 -0.1)">
       <use xlink:href="#DejaVuSans-30"/>
      </g>
     </g>
    </g>
    <g id="xtick_20">
     <g id="line2d_60">
      <path d="M 165.67017 388.6 
L 165.67017 311.128043 
" clip-path="url(#p7fb8ef123f)" style="fill: none; stroke: #b0b0b0; stroke-width: 0.8; stroke-linecap: square"/>
     </g>
     <g id="line2d_61">
      <g>
       <use xlink:href="#m2ef68fa83f" x="165.67017" y="388.6" style="stroke: #000000; stroke-width: 0.8"/>
      </g>
     </g>
     <g id="text_14">
      <!-- 100 -->
      <g transform="translate(156.12642 403.198437) scale(0.1 -0.1)">
       <use xlink:href="#DejaVuSans-31"/>
       <use xlink:href="#DejaVuSans-30" transform="translate(63.623047 0)"/>
       <use xlink:href="#DejaVuSans-30" transform="translate(127.246094 0)"/>
      </g>
     </g>
    </g>
    <g id="xtick_21">
     <g id="line2d_62">
      <path d="M 258.806307 388.6 
L 258.806307 311.128043 
" clip-path="url(#p7fb8ef123f)" style="fill: none; stroke: #b0b0b0; stroke-width: 0.8; stroke-linecap: square"/>
     </g>
     <g id="line2d_63">
      <g>
       <use xlink:href="#m2ef68fa83f" x="258.806307" y="388.6" style="stroke: #000000; stroke-width: 0.8"/>
      </g>
     </g>
     <g id="text_15">
      <!-- 200 -->
      <g transform="translate(249.262557 403.198437) scale(0.1 -0.1)">
       <use xlink:href="#DejaVuSans-32"/>
       <use xlink:href="#DejaVuSans-30" transform="translate(63.623047 0)"/>
       <use xlink:href="#DejaVuSans-30" transform="translate(127.246094 0)"/>
      </g>
     </g>
    </g>
    <g id="xtick_22">
     <g id="line2d_64">
      <path d="M 351.942443 388.6 
L 351.942443 311.128043 
" clip-path="url(#p7fb8ef123f)" style="fill: none; stroke: #b0b0b0; stroke-width: 0.8; stroke-linecap: square"/>
     </g>
     <g id="line2d_65">
      <g>
       <use xlink:href="#m2ef68fa83f" x="351.942443" y="388.6" style="stroke: #000000; stroke-width: 0.8"/>
      </g>
     </g>
     <g id="text_16">
      <!-- 300 -->
      <g transform="translate(342.398693 403.198437) scale(0.1 -0.1)">
       <defs>
        <path id="DejaVuSans-33" d="M 2597 2516 
Q 3050 2419 3304 2112 
Q 3559 1806 3559 1356 
Q 3559 666 3084 287 
Q 2609 -91 1734 -91 
Q 1441 -91 1130 -33 
Q 819 25 488 141 
L 488 750 
Q 750 597 1062 519 
Q 1375 441 1716 441 
Q 2309 441 2620 675 
Q 2931 909 2931 1356 
Q 2931 1769 2642 2001 
Q 2353 2234 1838 2234 
L 1294 2234 
L 1294 2753 
L 1863 2753 
Q 2328 2753 2575 2939 
Q 2822 3125 2822 3475 
Q 2822 3834 2567 4026 
Q 2313 4219 1838 4219 
Q 1578 4219 1281 4162 
Q 984 4106 628 3988 
L 628 4550 
Q 988 4650 1302 4700 
Q 1616 4750 1894 4750 
Q 2613 4750 3031 4423 
Q 3450 4097 3450 3541 
Q 3450 3153 3228 2886 
Q 3006 2619 2597 2516 
z
" transform="scale(0.015625)"/>
       </defs>
       <use xlink:href="#DejaVuSans-33"/>
       <use xlink:href="#DejaVuSans-30" transform="translate(63.623047 0)"/>
       <use xlink:href="#DejaVuSans-30" transform="translate(127.246094 0)"/>
      </g>
     </g>
    </g>
    <g id="xtick_23">
     <g id="line2d_66">
      <path d="M 445.07858 388.6 
L 445.07858 311.128043 
" clip-path="url(#p7fb8ef123f)" style="fill: none; stroke: #b0b0b0; stroke-width: 0.8; stroke-linecap: square"/>
     </g>
     <g id="line2d_67">
      <g>
       <use xlink:href="#m2ef68fa83f" x="445.07858" y="388.6" style="stroke: #000000; stroke-width: 0.8"/>
      </g>
     </g>
     <g id="text_17">
      <!-- 400 -->
      <g transform="translate(435.53483 403.198437) scale(0.1 -0.1)">
       <defs>
        <path id="DejaVuSans-34" d="M 2419 4116 
L 825 1625 
L 2419 1625 
L 2419 4116 
z
M 2253 4666 
L 3047 4666 
L 3047 1625 
L 3713 1625 
L 3713 1100 
L 3047 1100 
L 3047 0 
L 2419 0 
L 2419 1100 
L 313 1100 
L 313 1709 
L 2253 4666 
z
" transform="scale(0.015625)"/>
       </defs>
       <use xlink:href="#DejaVuSans-34"/>
       <use xlink:href="#DejaVuSans-30" transform="translate(63.623047 0)"/>
       <use xlink:href="#DejaVuSans-30" transform="translate(127.246094 0)"/>
      </g>
     </g>
    </g>
    <g id="xtick_24">
     <g id="line2d_68">
      <path d="M 538.214716 388.6 
L 538.214716 311.128043 
" clip-path="url(#p7fb8ef123f)" style="fill: none; stroke: #b0b0b0; stroke-width: 0.8; stroke-linecap: square"/>
     </g>
     <g id="line2d_69">
      <g>
       <use xlink:href="#m2ef68fa83f" x="538.214716" y="388.6" style="stroke: #000000; stroke-width: 0.8"/>
      </g>
     </g>
     <g id="text_18">
      <!-- 500 -->
      <g transform="translate(528.670966 403.198437) scale(0.1 -0.1)">
       <use xlink:href="#DejaVuSans-35"/>
       <use xlink:href="#DejaVuSans-30" transform="translate(63.623047 0)"/>
       <use xlink:href="#DejaVuSans-30" transform="translate(127.246094 0)"/>
      </g>
     </g>
    </g>
    <g id="text_19">
     <!-- Time (ms) -->
     <g transform="translate(280.175156 416.876562) scale(0.1 -0.1)">
      <defs>
       <path id="DejaVuSans-54" d="M -19 4666 
L 3928 4666 
L 3928 4134 
L 2272 4134 
L 2272 0 
L 1638 0 
L 1638 4134 
L -19 4134 
L -19 4666 
z
" transform="scale(0.015625)"/>
       <path id="DejaVuSans-69" d="M 603 3500 
L 1178 3500 
L 1178 0 
L 603 0 
L 603 3500 
z
M 603 4863 
L 1178 4863 
L 1178 4134 
L 603 4134 
L 603 4863 
z
" transform="scale(0.015625)"/>
       <path id="DejaVuSans-65" d="M 3597 1894 
L 3597 1613 
L 953 1613 
Q 991 1019 1311 708 
Q 1631 397 2203 397 
Q 2534 397 2845 478 
Q 3156 559 3463 722 
L 3463 178 
Q 3153 47 2828 -22 
Q 2503 -91 2169 -91 
Q 1331 -91 842 396 
Q 353 884 353 1716 
Q 353 2575 817 3079 
Q 1281 3584 2069 3584 
Q 2775 3584 3186 3129 
Q 3597 2675 3597 1894 
z
M 3022 2063 
Q 3016 2534 2758 2815 
Q 2500 3097 2075 3097 
Q 1594 3097 1305 2825 
Q 1016 2553 972 2059 
L 3022 2063 
z
" transform="scale(0.015625)"/>
      </defs>
      <use xlink:href="#DejaVuSans-54"/>
      <use xlink:href="#DejaVuSans-69" transform="translate(57.958984 0)"/>
      <use xlink:href="#DejaVuSans-6d" transform="translate(85.742188 0)"/>
      <use xlink:href="#DejaVuSans-65" transform="translate(183.154297 0)"/>
      <use xlink:href="#DejaVuSans-20" transform="translate(244.677734 0)"/>
      <use xlink:href="#DejaVuSans-28" transform="translate(276.464844 0)"/>
      <use xlink:href="#DejaVuSans-6d" transform="translate(315.478516 0)"/>
      <use xlink:href="#DejaVuSans-73" transform="translate(412.890625 0)"/>
      <use xlink:href="#DejaVuSans-29" transform="translate(464.990234 0)"/>
     </g>
    </g>
   </g>
   <g id="matplotlib.axis_8">
    <g id="ytick_10">
     <g id="line2d_70">
      <path d="M 49.25 385.078547 
L 561.49875 385.078547 
" clip-path="url(#p7fb8ef123f)" style="fill: none; stroke: #b0b0b0; stroke-width: 0.8; stroke-linecap: square"/>
     </g>
     <g id="line2d_71">
      <g>
       <use xlink:href="#m8242b2a88f" x="49.25" y="385.078547" style="stroke: #000000; stroke-width: 0.8"/>
      </g>
     </g>
     <g id="text_20">
      <!-- 0.0 -->
      <g transform="translate(26.346875 388.877766) scale(0.1 -0.1)">
       <use xlink:href="#DejaVuSans-30"/>
       <use xlink:href="#DejaVuSans-2e" transform="translate(63.623047 0)"/>
       <use xlink:href="#DejaVuSans-30" transform="translate(95.410156 0)"/>
      </g>
     </g>
    </g>
    <g id="ytick_11">
     <g id="line2d_72">
      <path d="M 49.25 349.864022 
L 561.49875 349.864022 
" clip-path="url(#p7fb8ef123f)" style="fill: none; stroke: #b0b0b0; stroke-width: 0.8; stroke-linecap: square"/>
     </g>
     <g id="line2d_73">
      <g>
       <use xlink:href="#m8242b2a88f" x="49.25" y="349.864022" style="stroke: #000000; stroke-width: 0.8"/>
      </g>
     </g>
     <g id="text_21">
      <!-- 0.5 -->
      <g transform="translate(26.346875 353.66324) scale(0.1 -0.1)">
       <use xlink:href="#DejaVuSans-30"/>
       <use xlink:href="#DejaVuSans-2e" transform="translate(63.623047 0)"/>
       <use xlink:href="#DejaVuSans-35" transform="translate(95.410156 0)"/>
      </g>
     </g>
    </g>
    <g id="ytick_12">
     <g id="line2d_74">
      <path d="M 49.25 314.649496 
L 561.49875 314.649496 
" clip-path="url(#p7fb8ef123f)" style="fill: none; stroke: #b0b0b0; stroke-width: 0.8; stroke-linecap: square"/>
     </g>
     <g id="line2d_75">
      <g>
       <use xlink:href="#m8242b2a88f" x="49.25" y="314.649496" style="stroke: #000000; stroke-width: 0.8"/>
      </g>
     </g>
     <g id="text_22">
      <!-- 1.0 -->
      <g transform="translate(26.346875 318.448715) scale(0.1 -0.1)">
       <use xlink:href="#DejaVuSans-31"/>
       <use xlink:href="#DejaVuSans-2e" transform="translate(63.623047 0)"/>
       <use xlink:href="#DejaVuSans-30" transform="translate(95.410156 0)"/>
      </g>
     </g>
    </g>
    <g id="text_23">
     <!-- P_s (B to A) -->
     <g transform="translate(19.989062 378.522615) rotate(-90) scale(0.1 -0.1)">
      <use xlink:href="#DejaVuSans-50"/>
      <use xlink:href="#DejaVuSans-5f" transform="translate(60.302734 0)"/>
      <use xlink:href="#DejaVuSans-73" transform="translate(110.302734 0)"/>
      <use xlink:href="#DejaVuSans-20" transform="translate(162.402344 0)"/>
      <use xlink:href="#DejaVuSans-28" transform="translate(194.189453 0)"/>
      <use xlink:href="#DejaVuSans-42" transform="translate(233.203125 0)"/>
      <use xlink:href="#DejaVuSans-20" transform="translate(301.806641 0)"/>
      <use xlink:href="#DejaVuSans-74" transform="translate(333.59375 0)"/>
      <use xlink:href="#DejaVuSans-6f" transform="translate(372.802734 0)"/>
      <use xlink:href="#DejaVuSans-20" transform="translate(433.984375 0)"/>
      <use xlink:href="#DejaVuSans-41" transform="translate(465.771484 0)"/>
      <use xlink:href="#DejaVuSans-29" transform="translate(534.179688 0)"/>
     </g>
    </g>
   </g>
   <g id="line2d_76">
    <path d="M 72.534034 385.078547 
L 133.63134 385.078547 
L 133.724476 314.649496 
L 133.817612 316.058077 
L 134.842109 329.811693 
L 135.866607 340.824644 
L 136.891104 349.64306 
L 137.915602 356.704242 
L 138.940099 362.358351 
L 139.964597 366.885774 
L 140.989094 370.511023 
L 142.106728 373.647168 
L 143.224362 376.108153 
L 144.341995 378.039329 
L 145.459629 379.554755 
L 146.670399 380.830627 
L 147.974305 381.877137 
L 149.371347 382.714084 
L 150.954661 383.401382 
L 152.817384 383.958859 
L 155.052651 384.389065 
L 157.939871 384.709968 
L 162.037861 384.927024 
L 169.023071 385.045248 
L 189.140477 385.078124 
L 231.703691 385.078547 
L 231.796827 314.649496 
L 231.889963 316.058077 
L 232.914461 329.811693 
L 233.938958 340.824644 
L 234.963456 349.64306 
L 235.987953 356.704242 
L 237.012451 362.358351 
L 238.036948 366.885774 
L 239.061446 370.511023 
L 240.17908 373.647168 
L 241.296713 376.108153 
L 242.414347 378.039329 
L 243.53198 379.554755 
L 244.74275 380.830627 
L 246.046656 381.877137 
L 247.443698 382.714084 
L 248.095651 383.025897 
L 248.188787 314.649496 
L 248.281923 316.058077 
L 249.306421 329.811693 
L 250.330918 340.824644 
L 251.355416 349.64306 
L 252.379913 356.704242 
L 253.404411 362.358351 
L 254.428908 366.885774 
L 255.453406 370.511023 
L 256.57104 373.647168 
L 257.688673 376.108153 
L 258.806307 378.039329 
L 259.92394 379.554755 
L 261.13471 380.830627 
L 262.438616 381.877137 
L 263.835658 382.714084 
L 265.418972 383.401382 
L 267.281695 383.958859 
L 269.516962 384.389065 
L 272.404183 384.709968 
L 276.502173 384.927024 
L 283.487383 385.045248 
L 303.604788 385.078124 
L 316.643847 385.078522 
L 316.736984 314.649496 
L 316.83012 316.058077 
L 317.854617 329.811693 
L 318.879115 340.824644 
L 319.903612 349.64306 
L 320.92811 356.704242 
L 321.952607 362.358351 
L 322.977105 366.885774 
L 324.001602 370.511023 
L 325.119236 373.647168 
L 326.23687 376.108153 
L 327.354503 378.039329 
L 328.472137 379.554755 
L 329.682907 380.830627 
L 330.986812 381.877137 
L 332.383855 382.714084 
L 333.967169 383.401382 
L 335.829892 383.958859 
L 338.065159 384.389065 
L 340.952379 384.709968 
L 345.050369 384.927024 
L 352.035579 385.045248 
L 372.152985 385.078124 
L 538.214716 385.078547 
L 538.214716 385.078547 
" clip-path="url(#p7fb8ef123f)" style="fill: none; stroke: #1f77b4; stroke-width: 1.5; stroke-linecap: square"/>
   </g>
   <g id="patch_18">
    <path d="M 49.25 388.6 
L 49.25 311.128043 
" style="fill: none; stroke: #000000; stroke-width: 0.8; stroke-linejoin: miter; stroke-linecap: square"/>
   </g>
   <g id="patch_19">
    <path d="M 561.49875 388.6 
L 561.49875 311.128043 
" style="fill: none; stroke: #000000; stroke-width: 0.8; stroke-linejoin: miter; stroke-linecap: square"/>
   </g>
   <g id="patch_20">
    <path d="M 49.25 388.6 
L 561.49875 388.6 
" style="fill: none; stroke: #000000; stroke-width: 0.8; stroke-linejoin: miter; stroke-linecap: square"/>
   </g>
   <g id="patch_21">
    <path d="M 49.25 311.128043 
L 561.49875 311.128043 
" style="fill: none; stroke: #000000; stroke-width: 0.8; stroke-linejoin: miter; stroke-linecap: square"/>
   </g>
  </g>
  <g id="text_24">
   <!-- Inhibitory both -->
   <g transform="translate(240.197812 16.318125) scale(0.12 -0.12)">
    <defs>
     <path id="DejaVuSans-49" d="M 628 4666 
L 1259 4666 
L 1259 0 
L 628 0 
L 628 4666 
z
" transform="scale(0.015625)"/>
     <path id="DejaVuSans-6e" d="M 3513 2113 
L 3513 0 
L 2938 0 
L 2938 2094 
Q 2938 2591 2744 2837 
Q 2550 3084 2163 3084 
Q 1697 3084 1428 2787 
Q 1159 2491 1159 1978 
L 1159 0 
L 581 0 
L 581 3500 
L 1159 3500 
L 1159 2956 
Q 1366 3272 1645 3428 
Q 1925 3584 2291 3584 
Q 2894 3584 3203 3211 
Q 3513 2838 3513 2113 
z
" transform="scale(0.015625)"/>
     <path id="DejaVuSans-68" d="M 3513 2113 
L 3513 0 
L 2938 0 
L 2938 2094 
Q 2938 2591 2744 2837 
Q 2550 3084 2163 3084 
Q 1697 3084 1428 2787 
Q 1159 2491 1159 1978 
L 1159 0 
L 581 0 
L 581 4863 
L 1159 4863 
L 1159 2956 
Q 1366 3272 1645 3428 
Q 1925 3584 2291 3584 
Q 2894 3584 3203 3211 
Q 3513 2838 3513 2113 
z
" transform="scale(0.015625)"/>
     <path id="DejaVuSans-62" d="M 3116 1747 
Q 3116 2381 2855 2742 
Q 2594 3103 2138 3103 
Q 1681 3103 1420 2742 
Q 1159 2381 1159 1747 
Q 1159 1113 1420 752 
Q 1681 391 2138 391 
Q 2594 391 2855 752 
Q 3116 1113 3116 1747 
z
M 1159 2969 
Q 1341 3281 1617 3432 
Q 1894 3584 2278 3584 
Q 2916 3584 3314 3078 
Q 3713 2572 3713 1747 
Q 3713 922 3314 415 
Q 2916 -91 2278 -91 
Q 1894 -91 1617 61 
Q 1341 213 1159 525 
L 1159 0 
L 581 0 
L 581 4863 
L 1159 4863 
L 1159 2969 
z
" transform="scale(0.015625)"/>
     <path id="DejaVuSans-72" d="M 2631 2963 
Q 2534 3019 2420 3045 
Q 2306 3072 2169 3072 
Q 1681 3072 1420 2755 
Q 1159 2438 1159 1844 
L 1159 0 
L 581 0 
L 581 3500 
L 1159 3500 
L 1159 2956 
Q 1341 3275 1631 3429 
Q 1922 3584 2338 3584 
Q 2397 3584 2469 3576 
Q 2541 3569 2628 3553 
L 2631 2963 
z
" transform="scale(0.015625)"/>
     <path id="DejaVuSans-79" d="M 2059 -325 
Q 1816 -950 1584 -1140 
Q 1353 -1331 966 -1331 
L 506 -1331 
L 506 -850 
L 844 -850 
Q 1081 -850 1212 -737 
Q 1344 -625 1503 -206 
L 1606 56 
L 191 3500 
L 800 3500 
L 1894 763 
L 2988 3500 
L 3597 3500 
L 2059 -325 
z
" transform="scale(0.015625)"/>
    </defs>
    <use xlink:href="#DejaVuSans-49"/>
    <use xlink:href="#DejaVuSans-6e" transform="translate(29.492188 0)"/>
    <use xlink:href="#DejaVuSans-68" transform="translate(92.871094 0)"/>
    <use xlink:href="#DejaVuSans-69" transform="translate(156.25 0)"/>
    <use xlink:href="#DejaVuSans-62" transform="translate(184.033203 0)"/>
    <use xlink:href="#DejaVuSans-69" transform="translate(247.509766 0)"/>
    <use xlink:href="#DejaVuSans-74" transform="translate(275.292969 0)"/>
    <use xlink:href="#DejaVuSans-6f" transform="translate(314.501953 0)"/>
    <use xlink:href="#DejaVuSans-72" transform="translate(375.683594 0)"/>
    <use xlink:href="#DejaVuSans-79" transform="translate(416.796875 0)"/>
    <use xlink:href="#DejaVuSans-20" transform="translate(475.976562 0)"/>
    <use xlink:href="#DejaVuSans-62" transform="translate(507.763672 0)"/>
    <use xlink:href="#DejaVuSans-6f" transform="translate(571.240234 0)"/>
    <use xlink:href="#DejaVuSans-74" transform="translate(632.421875 0)"/>
    <use xlink:href="#DejaVuSans-68" transform="translate(671.630859 0)"/>
   </g>
  </g>
 </g>
 <defs>
  <clipPath id="paf1338e1ba">
   <rect x="49.25" y="33.793043" width="512.24875" height="77.471957"/>
  </clipPath>
  <clipPath id="p5a1bb29e3d">
   <rect x="49.25" y="126.238043" width="512.24875" height="77.471957"/>
  </clipPath>
  <clipPath id="pd23c6254a4">
   <rect x="49.25" y="218.683043" width="512.24875" height="77.471957"/>
  </clipPath>
  <clipPath id="p7fb8ef123f">
   <rect x="49.25" y="311.128043" width="512.24875" height="77.471957"/>
  </clipPath>
 </defs>
</svg>
