<?xml version="1.0" encoding="utf-8" standalone="no"?>
<!DOCTYPE svg PUBLIC "-//W3C//DTD SVG 1.1//EN"
  "http://www.w3.org/Graphics/SVG/1.1/DTD/svg11.dtd">
<svg xmlns:xlink="http://www.w3.org/1999/xlink" width="393.651857pt" height="297.190125pt" viewBox="0 0 393.651857 297.190125" xmlns="http://www.w3.org/2000/svg" version="1.1">
 <metadata>
  <rdf:RDF xmlns:dc="http://purl.org/dc/elements/1.1/" xmlns:cc="http://creativecommons.org/ns#" xmlns:rdf="http://www.w3.org/1999/02/22-rdf-syntax-ns#">
   <cc:Work>
    <dc:type rdf:resource="http://purl.org/dc/dcmitype/StillImage"/>
    <dc:date>2025-03-31T13:35:13.553753</dc:date>
    <dc:format>image/svg+xml</dc:format>
    <dc:creator>
     <cc:Agent>
      <dc:title>Matplotlib v3.10.1, https://matplotlib.org/</dc:title>
     </cc:Agent>
    </dc:creator>
   </cc:Work>
  </rdf:RDF>
 </metadata>
 <defs>
  <style type="text/css">*{stroke-linejoin: round; stroke-linecap: butt}</style>
 </defs>
 <g id="figure_1">
  <g id="patch_1">
   <path d="M 0 297.190125 
L 393.651857 297.190125 
L 393.651857 0 
L 0 0 
z
" style="fill: #ffffff"/>
  </g>
  <g id="axes_1">
   <g id="patch_2">
    <path d="M 20.5625 273.312 
L 377.6825 273.312 
L 377.6825 7.2 
L 20.5625 7.2 
z
" style="fill: #ffffff"/>
   </g>
   <g id="matplotlib.axis_1">
    <g id="xtick_1">
     <g id="line2d_1">
      <defs>
       <path id="mc3017d70d9" d="M 0 0 
L 0 3.5 
" style="stroke: #000000; stroke-width: 0.8"/>
      </defs>
      <g>
       <use xlink:href="#mc3017d70d9" x="36.15865" y="273.312" style="stroke: #000000; stroke-width: 0.8"/>
      </g>
     </g>
     <g id="text_1">
      <!-- −1.00 -->
      <g transform="translate(20.835994 287.910437) scale(0.1 -0.1)">
       <defs>
        <path id="DejaVuSans-2212" d="M 678 2272 
L 4684 2272 
L 4684 1741 
L 678 1741 
L 678 2272 
z
" transform="scale(0.015625)"/>
        <path id="DejaVuSans-31" d="M 794 531 
L 1825 531 
L 1825 4091 
L 703 3866 
L 703 4441 
L 1819 4666 
L 2450 4666 
L 2450 531 
L 3481 531 
L 3481 0 
L 794 0 
L 794 531 
z
" transform="scale(0.015625)"/>
        <path id="DejaVuSans-2e" d="M 684 794 
L 1344 794 
L 1344 0 
L 684 0 
L 684 794 
z
" transform="scale(0.015625)"/>
        <path id="DejaVuSans-30" d="M 2034 4250 
Q 1547 4250 1301 3770 
Q 1056 3291 1056 2328 
Q 1056 1369 1301 889 
Q 1547 409 2034 409 
Q 2525 409 2770 889 
Q 3016 1369 3016 2328 
Q 3016 3291 2770 3770 
Q 2525 4250 2034 4250 
z
M 2034 4750 
Q 2819 4750 3233 4129 
Q 3647 3509 3647 2328 
Q 3647 1150 3233 529 
Q 2819 -91 2034 -91 
Q 1250 -91 836 529 
Q 422 1150 422 2328 
Q 422 3509 836 4129 
Q 1250 4750 2034 4750 
z
" transform="scale(0.015625)"/>
       </defs>
       <use xlink:href="#DejaVuSans-2212"/>
       <use xlink:href="#DejaVuSans-31" transform="translate(83.789062 0)"/>
       <use xlink:href="#DejaVuSans-2e" transform="translate(147.412109 0)"/>
       <use xlink:href="#DejaVuSans-30" transform="translate(179.199219 0)"/>
       <use xlink:href="#DejaVuSans-30" transform="translate(242.822266 0)"/>
      </g>
     </g>
    </g>
    <g id="xtick_2">
     <g id="line2d_2">
      <g>
       <use xlink:href="#mc3017d70d9" x="78.5537" y="273.312" style="stroke: #000000; stroke-width: 0.8"/>
      </g>
     </g>
     <g id="text_2">
      <!-- −0.75 -->
      <g transform="translate(63.231043 287.910437) scale(0.1 -0.1)">
       <defs>
        <path id="DejaVuSans-37" d="M 525 4666 
L 3525 4666 
L 3525 4397 
L 1831 0 
L 1172 0 
L 2766 4134 
L 525 4134 
L 525 4666 
z
" transform="scale(0.015625)"/>
        <path id="DejaVuSans-35" d="M 691 4666 
L 3169 4666 
L 3169 4134 
L 1269 4134 
L 1269 2991 
Q 1406 3038 1543 3061 
Q 1681 3084 1819 3084 
Q 2600 3084 3056 2656 
Q 3513 2228 3513 1497 
Q 3513 744 3044 326 
Q 2575 -91 1722 -91 
Q 1428 -91 1123 -41 
Q 819 9 494 109 
L 494 744 
Q 775 591 1075 516 
Q 1375 441 1709 441 
Q 2250 441 2565 725 
Q 2881 1009 2881 1497 
Q 2881 1984 2565 2268 
Q 2250 2553 1709 2553 
Q 1456 2553 1204 2497 
Q 953 2441 691 2322 
L 691 4666 
z
" transform="scale(0.015625)"/>
       </defs>
       <use xlink:href="#DejaVuSans-2212"/>
       <use xlink:href="#DejaVuSans-30" transform="translate(83.789062 0)"/>
       <use xlink:href="#DejaVuSans-2e" transform="translate(147.412109 0)"/>
       <use xlink:href="#DejaVuSans-37" transform="translate(179.199219 0)"/>
       <use xlink:href="#DejaVuSans-35" transform="translate(242.822266 0)"/>
      </g>
     </g>
    </g>
    <g id="xtick_3">
     <g id="line2d_3">
      <g>
       <use xlink:href="#mc3017d70d9" x="120.948749" y="273.312" style="stroke: #000000; stroke-width: 0.8"/>
      </g>
     </g>
     <g id="text_3">
      <!-- −0.50 -->
      <g transform="translate(105.626093 287.910437) scale(0.1 -0.1)">
       <use xlink:href="#DejaVuSans-2212"/>
       <use xlink:href="#DejaVuSans-30" transform="translate(83.789062 0)"/>
       <use xlink:href="#DejaVuSans-2e" transform="translate(147.412109 0)"/>
       <use xlink:href="#DejaVuSans-35" transform="translate(179.199219 0)"/>
       <use xlink:href="#DejaVuSans-30" transform="translate(242.822266 0)"/>
      </g>
     </g>
    </g>
    <g id="xtick_4">
     <g id="line2d_4">
      <g>
       <use xlink:href="#mc3017d70d9" x="163.343798" y="273.312" style="stroke: #000000; stroke-width: 0.8"/>
      </g>
     </g>
     <g id="text_4">
      <!-- −0.25 -->
      <g transform="translate(148.021142 287.910437) scale(0.1 -0.1)">
       <defs>
        <path id="DejaVuSans-32" d="M 1228 531 
L 3431 531 
L 3431 0 
L 469 0 
L 469 531 
Q 828 903 1448 1529 
Q 2069 2156 2228 2338 
Q 2531 2678 2651 2914 
Q 2772 3150 2772 3378 
Q 2772 3750 2511 3984 
Q 2250 4219 1831 4219 
Q 1534 4219 1204 4116 
Q 875 4013 500 3803 
L 500 4441 
Q 881 4594 1212 4672 
Q 1544 4750 1819 4750 
Q 2544 4750 2975 4387 
Q 3406 4025 3406 3419 
Q 3406 3131 3298 2873 
Q 3191 2616 2906 2266 
Q 2828 2175 2409 1742 
Q 1991 1309 1228 531 
z
" transform="scale(0.015625)"/>
       </defs>
       <use xlink:href="#DejaVuSans-2212"/>
       <use xlink:href="#DejaVuSans-30" transform="translate(83.789062 0)"/>
       <use xlink:href="#DejaVuSans-2e" transform="translate(147.412109 0)"/>
       <use xlink:href="#DejaVuSans-32" transform="translate(179.199219 0)"/>
       <use xlink:href="#DejaVuSans-35" transform="translate(242.822266 0)"/>
      </g>
     </g>
    </g>
    <g id="xtick_5">
     <g id="line2d_5">
      <g>
       <use xlink:href="#mc3017d70d9" x="205.738847" y="273.312" style="stroke: #000000; stroke-width: 0.8"/>
      </g>
     </g>
     <g id="text_5">
      <!-- 0.00 -->
      <g transform="translate(194.606035 287.910437) scale(0.1 -0.1)">
       <use xlink:href="#DejaVuSans-30"/>
       <use xlink:href="#DejaVuSans-2e" transform="translate(63.623047 0)"/>
       <use xlink:href="#DejaVuSans-30" transform="translate(95.410156 0)"/>
       <use xlink:href="#DejaVuSans-30" transform="translate(159.033203 0)"/>
      </g>
     </g>
    </g>
    <g id="xtick_6">
     <g id="line2d_6">
      <g>
       <use xlink:href="#mc3017d70d9" x="248.133897" y="273.312" style="stroke: #000000; stroke-width: 0.8"/>
      </g>
     </g>
     <g id="text_6">
      <!-- 0.25 -->
      <g transform="translate(237.001084 287.910437) scale(0.1 -0.1)">
       <use xlink:href="#DejaVuSans-30"/>
       <use xlink:href="#DejaVuSans-2e" transform="translate(63.623047 0)"/>
       <use xlink:href="#DejaVuSans-32" transform="translate(95.410156 0)"/>
       <use xlink:href="#DejaVuSans-35" transform="translate(159.033203 0)"/>
      </g>
     </g>
    </g>
    <g id="xtick_7">
     <g id="line2d_7">
      <g>
       <use xlink:href="#mc3017d70d9" x="290.528946" y="273.312" style="stroke: #000000; stroke-width: 0.8"/>
      </g>
     </g>
     <g id="text_7">
      <!-- 0.50 -->
      <g transform="translate(279.396134 287.910437) scale(0.1 -0.1)">
       <use xlink:href="#DejaVuSans-30"/>
       <use xlink:href="#DejaVuSans-2e" transform="translate(63.623047 0)"/>
       <use xlink:href="#DejaVuSans-35" transform="translate(95.410156 0)"/>
       <use xlink:href="#DejaVuSans-30" transform="translate(159.033203 0)"/>
      </g>
     </g>
    </g>
    <g id="xtick_8">
     <g id="line2d_8">
      <g>
       <use xlink:href="#mc3017d70d9" x="332.923995" y="273.312" style="stroke: #000000; stroke-width: 0.8"/>
      </g>
     </g>
     <g id="text_8">
      <!-- 0.75 -->
      <g transform="translate(321.791183 287.910437) scale(0.1 -0.1)">
       <use xlink:href="#DejaVuSans-30"/>
       <use xlink:href="#DejaVuSans-2e" transform="translate(63.623047 0)"/>
       <use xlink:href="#DejaVuSans-37" transform="translate(95.410156 0)"/>
       <use xlink:href="#DejaVuSans-35" transform="translate(159.033203 0)"/>
      </g>
     </g>
    </g>
    <g id="xtick_9">
     <g id="line2d_9">
      <g>
       <use xlink:href="#mc3017d70d9" x="375.319045" y="273.312" style="stroke: #000000; stroke-width: 0.8"/>
      </g>
     </g>
     <g id="text_9">
      <!-- 1.00 -->
      <g transform="translate(364.186232 287.910437) scale(0.1 -0.1)">
       <use xlink:href="#DejaVuSans-31"/>
       <use xlink:href="#DejaVuSans-2e" transform="translate(63.623047 0)"/>
       <use xlink:href="#DejaVuSans-30" transform="translate(95.410156 0)"/>
       <use xlink:href="#DejaVuSans-30" transform="translate(159.033203 0)"/>
      </g>
     </g>
    </g>
   </g>
   <g id="matplotlib.axis_2">
    <g id="ytick_1">
     <g id="line2d_10">
      <defs>
       <path id="mb5609f64de" d="M 0 0 
L -3.5 0 
" style="stroke: #000000; stroke-width: 0.8"/>
      </defs>
      <g>
       <use xlink:href="#mb5609f64de" x="20.5625" y="261.216" style="stroke: #000000; stroke-width: 0.8"/>
      </g>
     </g>
     <g id="text_10">
      <!-- 0 -->
      <g transform="translate(7.2 265.015219) scale(0.1 -0.1)">
       <use xlink:href="#DejaVuSans-30"/>
      </g>
     </g>
    </g>
    <g id="ytick_2">
     <g id="line2d_11">
      <g>
       <use xlink:href="#mb5609f64de" x="20.5625" y="205.154595" style="stroke: #000000; stroke-width: 0.8"/>
      </g>
     </g>
     <g id="text_11">
      <!-- 1 -->
      <g transform="translate(7.2 208.953813) scale(0.1 -0.1)">
       <use xlink:href="#DejaVuSans-31"/>
      </g>
     </g>
    </g>
    <g id="ytick_3">
     <g id="line2d_12">
      <g>
       <use xlink:href="#mb5609f64de" x="20.5625" y="149.093189" style="stroke: #000000; stroke-width: 0.8"/>
      </g>
     </g>
     <g id="text_12">
      <!-- 2 -->
      <g transform="translate(7.2 152.892408) scale(0.1 -0.1)">
       <use xlink:href="#DejaVuSans-32"/>
      </g>
     </g>
    </g>
    <g id="ytick_4">
     <g id="line2d_13">
      <g>
       <use xlink:href="#mb5609f64de" x="20.5625" y="93.031784" style="stroke: #000000; stroke-width: 0.8"/>
      </g>
     </g>
     <g id="text_13">
      <!-- 3 -->
      <g transform="translate(7.2 96.831003) scale(0.1 -0.1)">
       <defs>
        <path id="DejaVuSans-33" d="M 2597 2516 
Q 3050 2419 3304 2112 
Q 3559 1806 3559 1356 
Q 3559 666 3084 287 
Q 2609 -91 1734 -91 
Q 1441 -91 1130 -33 
Q 819 25 488 141 
L 488 750 
Q 750 597 1062 519 
Q 1375 441 1716 441 
Q 2309 441 2620 675 
Q 2931 909 2931 1356 
Q 2931 1769 2642 2001 
Q 2353 2234 1838 2234 
L 1294 2234 
L 1294 2753 
L 1863 2753 
Q 2328 2753 2575 2939 
Q 2822 3125 2822 3475 
Q 2822 3834 2567 4026 
Q 2313 4219 1838 4219 
Q 1578 4219 1281 4162 
Q 984 4106 628 3988 
L 628 4550 
Q 988 4650 1302 4700 
Q 1616 4750 1894 4750 
Q 2613 4750 3031 4423 
Q 3450 4097 3450 3541 
Q 3450 3153 3228 2886 
Q 3006 2619 2597 2516 
z
" transform="scale(0.015625)"/>
       </defs>
       <use xlink:href="#DejaVuSans-33"/>
      </g>
     </g>
    </g>
    <g id="ytick_5">
     <g id="line2d_14">
      <g>
       <use xlink:href="#mb5609f64de" x="20.5625" y="36.970379" style="stroke: #000000; stroke-width: 0.8"/>
      </g>
     </g>
     <g id="text_14">
      <!-- 4 -->
      <g transform="translate(7.2 40.769598) scale(0.1 -0.1)">
       <defs>
        <path id="DejaVuSans-34" d="M 2419 4116 
L 825 1625 
L 2419 1625 
L 2419 4116 
z
M 2253 4666 
L 3047 4666 
L 3047 1625 
L 3713 1625 
L 3713 1100 
L 3047 1100 
L 3047 0 
L 2419 0 
L 2419 1100 
L 313 1100 
L 313 1709 
L 2253 4666 
z
" transform="scale(0.015625)"/>
       </defs>
       <use xlink:href="#DejaVuSans-34"/>
      </g>
     </g>
    </g>
   </g>
   <g id="line2d_15">
    <path d="M 36.795227 260.779321 
L 38.068381 261.216 
L 39.341536 261.216 
L 40.61469 260.779321 
L 41.887844 261.216 
L 43.161008 260.779325 
L 44.434162 261.216 
L 50.799933 261.216 
L 52.073087 260.779321 
L 53.346242 260.779321 
L 54.619396 261.216 
L 55.89255 261.216 
L 57.165714 259.905964 
L 58.438868 260.779321 
L 59.712023 261.216 
L 62.258331 261.216 
L 63.531485 260.779321 
L 64.804639 261.216 
L 66.077793 261.216 
L 67.350948 260.779321 
L 68.624102 261.216 
L 69.897256 259.469285 
L 71.17041 260.779321 
L 72.443574 260.779325 
L 73.716728 261.216 
L 74.989883 260.342643 
L 76.263037 260.779321 
L 78.809345 260.779321 
L 80.082499 259.469299 
L 82.628818 261.216 
L 83.901972 260.779321 
L 85.175126 257.72257 
L 86.44828 260.779321 
L 87.721434 259.905964 
L 88.994589 260.342643 
L 90.267743 259.905964 
L 91.540897 259.032606 
L 92.814051 259.469285 
L 94.087205 259.032606 
L 95.360359 257.72257 
L 96.633514 256.849213 
L 97.906668 257.72257 
L 99.179822 259.469285 
L 100.452986 258.595949 
L 101.72614 259.469285 
L 102.999295 258.595928 
L 104.272449 258.159249 
L 105.545603 255.539177 
L 106.818757 256.412534 
L 108.091911 258.159273 
L 109.365076 256.412534 
L 110.63823 257.285892 
L 113.184538 256.412534 
L 114.457692 254.665819 
L 115.730846 257.72257 
L 117.004001 255.975856 
L 118.277155 256.412534 
L 119.550309 257.72257 
L 120.823463 255.975856 
L 122.096617 255.975856 
L 124.642931 252.482495 
L 125.91609 252.482426 
L 127.189244 252.919105 
L 128.462398 255.539177 
L 129.735552 252.482426 
L 131.008706 253.355783 
L 133.555015 252.482426 
L 136.101323 248.988996 
L 137.374482 248.552418 
L 138.647642 243.312173 
L 139.920796 247.67896 
L 141.19395 248.115639 
L 142.467104 245.932245 
L 143.740258 250.735711 
L 145.013412 243.312173 
L 146.286567 244.185531 
L 147.559721 241.565458 
L 148.832875 244.622209 
L 150.106029 244.185531 
L 151.379188 235.015486 
L 152.652348 244.185531 
L 155.198656 233.268563 
L 156.47181 235.888635 
L 157.744964 233.705242 
L 159.018118 230.211812 
L 160.291273 229.775134 
L 161.564427 230.648491 
L 162.837581 223.224953 
L 164.110735 221.478238 
L 165.383894 228.465357 
L 166.657054 223.661632 
L 167.930208 213.618022 
L 170.476516 217.984809 
L 171.74967 208.377877 
L 173.022824 215.364736 
L 174.295979 201.391018 
L 175.569133 218.421487 
L 176.842287 209.687913 
L 178.115441 204.884448 
L 179.3886 197.461416 
L 180.66176 192.220765 
L 181.934914 208.377877 
L 183.208068 197.897588 
L 184.481222 199.207625 
L 185.754376 184.360549 
L 187.02753 181.303798 
L 188.300685 173.88026 
L 189.573839 168.640116 
L 190.846993 172.570224 
L 193.393311 152.919682 
L 194.666465 162.963292 
L 195.93962 141.566036 
L 197.212774 136.76257 
L 198.485928 133.269141 
L 199.759082 104.885025 
L 201.032236 84.361126 
L 202.30539 71.697444 
L 203.578545 51.610224 
L 204.851699 42.87665 
L 206.124853 64.710585 
L 207.398007 44.186686 
L 208.671161 35.453112 
L 209.944315 19.296 
L 211.21747 66.893978 
L 212.490634 105.324179 
L 213.763798 124.098888 
L 215.036952 131.085747 
L 216.310107 138.945964 
L 217.583261 138.072606 
L 218.856415 147.242859 
L 220.129569 159.906542 
L 221.402723 159.033184 
L 222.675877 169.513473 
L 223.949032 178.683726 
L 225.222186 173.006903 
L 226.49534 184.360549 
L 227.768494 179.120404 
L 229.041648 193.96748 
L 230.314802 186.543942 
L 231.587957 203.137733 
L 232.861111 197.897588 
L 234.134265 197.897588 
L 235.407419 200.080982 
L 236.680573 208.377877 
L 237.953727 210.124592 
L 239.226892 205.758686 
L 240.500056 220.168202 
L 241.77321 221.478238 
L 243.046364 211.871307 
L 244.319518 226.281704 
L 245.592673 219.294845 
L 246.865827 228.028419 
L 248.138981 216.674773 
L 249.412135 220.168202 
L 250.685289 226.718383 
L 251.958443 228.028419 
L 253.231598 240.692101 
L 254.504752 233.705242 
L 255.777906 240.255422 
L 257.05106 235.451957 
L 258.324214 244.622209 
L 259.597368 239.818744 
L 260.870523 244.622209 
L 262.143677 239.382065 
L 263.416831 246.368924 
L 264.689985 246.805603 
L 265.963139 242.438816 
L 267.236304 248.552519 
L 268.509468 245.495567 
L 271.055776 244.622209 
L 272.32893 246.368924 
L 273.602085 251.609069 
L 276.148393 251.609069 
L 277.421547 250.735711 
L 278.694701 246.805603 
L 279.967855 252.919105 
L 281.24101 248.115639 
L 282.514164 252.482426 
L 283.787318 254.665819 
L 285.060472 252.482426 
L 286.333626 252.045747 
L 287.60678 255.102498 
L 288.879935 255.975856 
L 290.153089 255.539177 
L 291.426243 257.72257 
L 292.699397 258.595928 
L 293.972561 257.722626 
L 295.245726 259.469285 
L 296.51888 259.469285 
L 297.792034 259.905964 
L 299.065188 257.72257 
L 300.338342 260.342643 
L 301.611496 259.032606 
L 302.884651 260.342643 
L 304.157805 259.469285 
L 305.430959 259.905964 
L 306.704113 257.72257 
L 307.977267 259.905964 
L 309.250421 261.216 
L 310.523576 259.469285 
L 311.79673 260.779321 
L 314.343038 259.905964 
L 315.616192 261.216 
L 316.889347 261.216 
L 318.162501 260.779321 
L 319.435655 261.216 
L 321.981973 260.342656 
L 323.255138 260.779321 
L 324.528292 260.779321 
L 325.801446 260.342643 
L 327.0746 261.216 
L 330.894063 261.216 
L 333.440371 260.342643 
L 334.713525 261.216 
L 337.259833 260.342643 
L 339.806142 260.342643 
L 341.079296 261.216 
L 342.35245 261.216 
L 343.625604 260.779321 
L 344.898758 261.216 
L 346.171913 260.779321 
L 347.445067 261.216 
L 348.718231 261.216 
L 349.991395 260.779321 
L 351.264549 261.216 
L 353.810858 261.216 
L 355.084012 260.779321 
L 356.357166 261.216 
L 357.63032 260.779321 
L 361.449773 260.779318 
L 361.449773 260.779318 
" clip-path="url(#p695e385f7c)" style="fill: none; stroke: #000000; stroke-width: 1.5; stroke-linecap: square"/>
   </g>
   <g id="patch_3">
    <path d="M 20.5625 273.312 
L 20.5625 7.2 
" style="fill: none; stroke: #000000; stroke-width: 0.8; stroke-linejoin: miter; stroke-linecap: square"/>
   </g>
   <g id="patch_4">
    <path d="M 377.6825 273.312 
L 377.6825 7.2 
" style="fill: none; stroke: #000000; stroke-width: 0.8; stroke-linejoin: miter; stroke-linecap: square"/>
   </g>
   <g id="patch_5">
    <path d="M 20.5625 273.312 
L 377.6825 273.312 
" style="fill: none; stroke: #000000; stroke-width: 0.8; stroke-linejoin: miter; stroke-linecap: square"/>
   </g>
   <g id="patch_6">
    <path d="M 20.5625 7.2 
L 377.6825 7.2 
" style="fill: none; stroke: #000000; stroke-width: 0.8; stroke-linejoin: miter; stroke-linecap: square"/>
   </g>
  </g>
 </g>
 <defs>
  <clipPath id="p695e385f7c">
   <rect x="20.5625" y="7.2" width="357.12" height="266.112"/>
  </clipPath>
 </defs>
</svg>
