<?xml version="1.0" encoding="utf-8" standalone="no"?>
<!DOCTYPE svg PUBLIC "-//W3C//DTD SVG 1.1//EN"
  "http://www.w3.org/Graphics/SVG/1.1/DTD/svg11.dtd">
<svg xmlns:xlink="http://www.w3.org/1999/xlink" width="710.682654pt" height="696.358125pt" viewBox="0 0 710.682654 696.358125" xmlns="http://www.w3.org/2000/svg" version="1.1">
 <metadata>
  <rdf:RDF xmlns:dc="http://purl.org/dc/elements/1.1/" xmlns:cc="http://creativecommons.org/ns#" xmlns:rdf="http://www.w3.org/1999/02/22-rdf-syntax-ns#">
   <cc:Work>
    <dc:type rdf:resource="http://purl.org/dc/dcmitype/StillImage"/>
    <dc:date>2025-04-02T00:59:57.816800</dc:date>
    <dc:format>image/svg+xml</dc:format>
    <dc:creator>
     <cc:Agent>
      <dc:title>Matplotlib v3.10.1, https://matplotlib.org/</dc:title>
     </cc:Agent>
    </dc:creator>
   </cc:Work>
  </rdf:RDF>
 </metadata>
 <defs>
  <style type="text/css">*{stroke-linejoin: round; stroke-linecap: butt}</style>
 </defs>
 <g id="figure_1">
  <g id="patch_1">
   <path d="M 0 696.358125 
L 710.682654 696.358125 
L 710.682654 0 
L 0 0 
L 0 696.358125 
z
" style="fill: none"/>
  </g>
  <g id="axes_1">
   <g id="patch_2">
    <path d="M 26.925 672.48 
L 696.525 672.48 
L 696.525 7.2 
L 26.925 7.2 
L 26.925 672.48 
z
" style="fill: none"/>
   </g>
   <g id="matplotlib.axis_1">
    <g id="xtick_1">
     <g id="line2d_1">
      <defs>
       <path id="m61cd2a4881" d="M 0 0 
L 0 3.5 
" style="stroke: #000000; stroke-width: 0.8"/>
      </defs>
      <g>
       <use xlink:href="#m61cd2a4881" x="57.361364" y="672.48" style="stroke: #000000; stroke-width: 0.8"/>
      </g>
     </g>
     <g id="text_1">
      <!-- 0 -->
      <g transform="translate(54.180114 687.078438) scale(0.1 -0.1)">
       <defs>
        <path id="DejaVuSans-30" d="M 2034 4250 
Q 1547 4250 1301 3770 
Q 1056 3291 1056 2328 
Q 1056 1369 1301 889 
Q 1547 409 2034 409 
Q 2525 409 2770 889 
Q 3016 1369 3016 2328 
Q 3016 3291 2770 3770 
Q 2525 4250 2034 4250 
z
M 2034 4750 
Q 2819 4750 3233 4129 
Q 3647 3509 3647 2328 
Q 3647 1150 3233 529 
Q 2819 -91 2034 -91 
Q 1250 -91 836 529 
Q 422 1150 422 2328 
Q 422 3509 836 4129 
Q 1250 4750 2034 4750 
z
" transform="scale(0.015625)"/>
       </defs>
       <use xlink:href="#DejaVuSans-30"/>
      </g>
     </g>
    </g>
    <g id="xtick_2">
     <g id="line2d_2">
      <g>
       <use xlink:href="#m61cd2a4881" x="136.933556" y="672.48" style="stroke: #000000; stroke-width: 0.8"/>
      </g>
     </g>
     <g id="text_2">
      <!-- 20 -->
      <g transform="translate(130.571056 687.078438) scale(0.1 -0.1)">
       <defs>
        <path id="DejaVuSans-32" d="M 1228 531 
L 3431 531 
L 3431 0 
L 469 0 
L 469 531 
Q 828 903 1448 1529 
Q 2069 2156 2228 2338 
Q 2531 2678 2651 2914 
Q 2772 3150 2772 3378 
Q 2772 3750 2511 3984 
Q 2250 4219 1831 4219 
Q 1534 4219 1204 4116 
Q 875 4013 500 3803 
L 500 4441 
Q 881 4594 1212 4672 
Q 1544 4750 1819 4750 
Q 2544 4750 2975 4387 
Q 3406 4025 3406 3419 
Q 3406 3131 3298 2873 
Q 3191 2616 2906 2266 
Q 2828 2175 2409 1742 
Q 1991 1309 1228 531 
z
" transform="scale(0.015625)"/>
       </defs>
       <use xlink:href="#DejaVuSans-32"/>
       <use xlink:href="#DejaVuSans-30" transform="translate(63.623047 0)"/>
      </g>
     </g>
    </g>
    <g id="xtick_3">
     <g id="line2d_3">
      <g>
       <use xlink:href="#m61cd2a4881" x="216.505749" y="672.48" style="stroke: #000000; stroke-width: 0.8"/>
      </g>
     </g>
     <g id="text_3">
      <!-- 40 -->
      <g transform="translate(210.143249 687.078438) scale(0.1 -0.1)">
       <defs>
        <path id="DejaVuSans-34" d="M 2419 4116 
L 825 1625 
L 2419 1625 
L 2419 4116 
z
M 2253 4666 
L 3047 4666 
L 3047 1625 
L 3713 1625 
L 3713 1100 
L 3047 1100 
L 3047 0 
L 2419 0 
L 2419 1100 
L 313 1100 
L 313 1709 
L 2253 4666 
z
" transform="scale(0.015625)"/>
       </defs>
       <use xlink:href="#DejaVuSans-34"/>
       <use xlink:href="#DejaVuSans-30" transform="translate(63.623047 0)"/>
      </g>
     </g>
    </g>
    <g id="xtick_4">
     <g id="line2d_4">
      <g>
       <use xlink:href="#m61cd2a4881" x="296.077941" y="672.48" style="stroke: #000000; stroke-width: 0.8"/>
      </g>
     </g>
     <g id="text_4">
      <!-- 60 -->
      <g transform="translate(289.715441 687.078438) scale(0.1 -0.1)">
       <defs>
        <path id="DejaVuSans-36" d="M 2113 2584 
Q 1688 2584 1439 2293 
Q 1191 2003 1191 1497 
Q 1191 994 1439 701 
Q 1688 409 2113 409 
Q 2538 409 2786 701 
Q 3034 994 3034 1497 
Q 3034 2003 2786 2293 
Q 2538 2584 2113 2584 
z
M 3366 4563 
L 3366 3988 
Q 3128 4100 2886 4159 
Q 2644 4219 2406 4219 
Q 1781 4219 1451 3797 
Q 1122 3375 1075 2522 
Q 1259 2794 1537 2939 
Q 1816 3084 2150 3084 
Q 2853 3084 3261 2657 
Q 3669 2231 3669 1497 
Q 3669 778 3244 343 
Q 2819 -91 2113 -91 
Q 1303 -91 875 529 
Q 447 1150 447 2328 
Q 447 3434 972 4092 
Q 1497 4750 2381 4750 
Q 2619 4750 2861 4703 
Q 3103 4656 3366 4563 
z
" transform="scale(0.015625)"/>
       </defs>
       <use xlink:href="#DejaVuSans-36"/>
       <use xlink:href="#DejaVuSans-30" transform="translate(63.623047 0)"/>
      </g>
     </g>
    </g>
    <g id="xtick_5">
     <g id="line2d_5">
      <g>
       <use xlink:href="#m61cd2a4881" x="375.650134" y="672.48" style="stroke: #000000; stroke-width: 0.8"/>
      </g>
     </g>
     <g id="text_5">
      <!-- 80 -->
      <g transform="translate(369.287634 687.078438) scale(0.1 -0.1)">
       <defs>
        <path id="DejaVuSans-38" d="M 2034 2216 
Q 1584 2216 1326 1975 
Q 1069 1734 1069 1313 
Q 1069 891 1326 650 
Q 1584 409 2034 409 
Q 2484 409 2743 651 
Q 3003 894 3003 1313 
Q 3003 1734 2745 1975 
Q 2488 2216 2034 2216 
z
M 1403 2484 
Q 997 2584 770 2862 
Q 544 3141 544 3541 
Q 544 4100 942 4425 
Q 1341 4750 2034 4750 
Q 2731 4750 3128 4425 
Q 3525 4100 3525 3541 
Q 3525 3141 3298 2862 
Q 3072 2584 2669 2484 
Q 3125 2378 3379 2068 
Q 3634 1759 3634 1313 
Q 3634 634 3220 271 
Q 2806 -91 2034 -91 
Q 1263 -91 848 271 
Q 434 634 434 1313 
Q 434 1759 690 2068 
Q 947 2378 1403 2484 
z
M 1172 3481 
Q 1172 3119 1398 2916 
Q 1625 2713 2034 2713 
Q 2441 2713 2670 2916 
Q 2900 3119 2900 3481 
Q 2900 3844 2670 4047 
Q 2441 4250 2034 4250 
Q 1625 4250 1398 4047 
Q 1172 3844 1172 3481 
z
" transform="scale(0.015625)"/>
       </defs>
       <use xlink:href="#DejaVuSans-38"/>
       <use xlink:href="#DejaVuSans-30" transform="translate(63.623047 0)"/>
      </g>
     </g>
    </g>
    <g id="xtick_6">
     <g id="line2d_6">
      <g>
       <use xlink:href="#m61cd2a4881" x="455.222326" y="672.48" style="stroke: #000000; stroke-width: 0.8"/>
      </g>
     </g>
     <g id="text_6">
      <!-- 100 -->
      <g transform="translate(445.678576 687.078438) scale(0.1 -0.1)">
       <defs>
        <path id="DejaVuSans-31" d="M 794 531 
L 1825 531 
L 1825 4091 
L 703 3866 
L 703 4441 
L 1819 4666 
L 2450 4666 
L 2450 531 
L 3481 531 
L 3481 0 
L 794 0 
L 794 531 
z
" transform="scale(0.015625)"/>
       </defs>
       <use xlink:href="#DejaVuSans-31"/>
       <use xlink:href="#DejaVuSans-30" transform="translate(63.623047 0)"/>
       <use xlink:href="#DejaVuSans-30" transform="translate(127.246094 0)"/>
      </g>
     </g>
    </g>
    <g id="xtick_7">
     <g id="line2d_7">
      <g>
       <use xlink:href="#m61cd2a4881" x="534.794519" y="672.48" style="stroke: #000000; stroke-width: 0.8"/>
      </g>
     </g>
     <g id="text_7">
      <!-- 120 -->
      <g transform="translate(525.250769 687.078438) scale(0.1 -0.1)">
       <use xlink:href="#DejaVuSans-31"/>
       <use xlink:href="#DejaVuSans-32" transform="translate(63.623047 0)"/>
       <use xlink:href="#DejaVuSans-30" transform="translate(127.246094 0)"/>
      </g>
     </g>
    </g>
    <g id="xtick_8">
     <g id="line2d_8">
      <g>
       <use xlink:href="#m61cd2a4881" x="614.366711" y="672.48" style="stroke: #000000; stroke-width: 0.8"/>
      </g>
     </g>
     <g id="text_8">
      <!-- 140 -->
      <g transform="translate(604.822961 687.078438) scale(0.1 -0.1)">
       <use xlink:href="#DejaVuSans-31"/>
       <use xlink:href="#DejaVuSans-34" transform="translate(63.623047 0)"/>
       <use xlink:href="#DejaVuSans-30" transform="translate(127.246094 0)"/>
      </g>
     </g>
    </g>
    <g id="xtick_9">
     <g id="line2d_9">
      <g>
       <use xlink:href="#m61cd2a4881" x="693.938904" y="672.48" style="stroke: #000000; stroke-width: 0.8"/>
      </g>
     </g>
     <g id="text_9">
      <!-- 160 -->
      <g transform="translate(684.395154 687.078438) scale(0.1 -0.1)">
       <use xlink:href="#DejaVuSans-31"/>
       <use xlink:href="#DejaVuSans-36" transform="translate(63.623047 0)"/>
       <use xlink:href="#DejaVuSans-30" transform="translate(127.246094 0)"/>
      </g>
     </g>
    </g>
   </g>
   <g id="matplotlib.axis_2">
    <g id="ytick_1">
     <g id="line2d_10">
      <defs>
       <path id="mc6a916c2e8" d="M 0 0 
L -3.5 0 
" style="stroke: #000000; stroke-width: 0.8"/>
      </defs>
      <g>
       <use xlink:href="#mc6a916c2e8" x="26.925" y="650.88" style="stroke: #000000; stroke-width: 0.8"/>
      </g>
     </g>
     <g id="text_10">
      <!-- 10 -->
      <g transform="translate(7.2 654.679219) scale(0.1 -0.1)">
       <use xlink:href="#DejaVuSans-31"/>
       <use xlink:href="#DejaVuSans-30" transform="translate(63.623047 0)"/>
      </g>
     </g>
    </g>
    <g id="ytick_2">
     <g id="line2d_11">
      <g>
       <use xlink:href="#mc6a916c2e8" x="26.925" y="564.48" style="stroke: #000000; stroke-width: 0.8"/>
      </g>
     </g>
     <g id="text_11">
      <!-- 20 -->
      <g transform="translate(7.2 568.279219) scale(0.1 -0.1)">
       <use xlink:href="#DejaVuSans-32"/>
       <use xlink:href="#DejaVuSans-30" transform="translate(63.623047 0)"/>
      </g>
     </g>
    </g>
    <g id="ytick_3">
     <g id="line2d_12">
      <g>
       <use xlink:href="#mc6a916c2e8" x="26.925" y="478.08" style="stroke: #000000; stroke-width: 0.8"/>
      </g>
     </g>
     <g id="text_12">
      <!-- 30 -->
      <g transform="translate(7.2 481.879219) scale(0.1 -0.1)">
       <defs>
        <path id="DejaVuSans-33" d="M 2597 2516 
Q 3050 2419 3304 2112 
Q 3559 1806 3559 1356 
Q 3559 666 3084 287 
Q 2609 -91 1734 -91 
Q 1441 -91 1130 -33 
Q 819 25 488 141 
L 488 750 
Q 750 597 1062 519 
Q 1375 441 1716 441 
Q 2309 441 2620 675 
Q 2931 909 2931 1356 
Q 2931 1769 2642 2001 
Q 2353 2234 1838 2234 
L 1294 2234 
L 1294 2753 
L 1863 2753 
Q 2328 2753 2575 2939 
Q 2822 3125 2822 3475 
Q 2822 3834 2567 4026 
Q 2313 4219 1838 4219 
Q 1578 4219 1281 4162 
Q 984 4106 628 3988 
L 628 4550 
Q 988 4650 1302 4700 
Q 1616 4750 1894 4750 
Q 2613 4750 3031 4423 
Q 3450 4097 3450 3541 
Q 3450 3153 3228 2886 
Q 3006 2619 2597 2516 
z
" transform="scale(0.015625)"/>
       </defs>
       <use xlink:href="#DejaVuSans-33"/>
       <use xlink:href="#DejaVuSans-30" transform="translate(63.623047 0)"/>
      </g>
     </g>
    </g>
    <g id="ytick_4">
     <g id="line2d_13">
      <g>
       <use xlink:href="#mc6a916c2e8" x="26.925" y="391.68" style="stroke: #000000; stroke-width: 0.8"/>
      </g>
     </g>
     <g id="text_13">
      <!-- 40 -->
      <g transform="translate(7.2 395.479219) scale(0.1 -0.1)">
       <use xlink:href="#DejaVuSans-34"/>
       <use xlink:href="#DejaVuSans-30" transform="translate(63.623047 0)"/>
      </g>
     </g>
    </g>
    <g id="ytick_5">
     <g id="line2d_14">
      <g>
       <use xlink:href="#mc6a916c2e8" x="26.925" y="305.28" style="stroke: #000000; stroke-width: 0.8"/>
      </g>
     </g>
     <g id="text_14">
      <!-- 50 -->
      <g transform="translate(7.2 309.079219) scale(0.1 -0.1)">
       <defs>
        <path id="DejaVuSans-35" d="M 691 4666 
L 3169 4666 
L 3169 4134 
L 1269 4134 
L 1269 2991 
Q 1406 3038 1543 3061 
Q 1681 3084 1819 3084 
Q 2600 3084 3056 2656 
Q 3513 2228 3513 1497 
Q 3513 744 3044 326 
Q 2575 -91 1722 -91 
Q 1428 -91 1123 -41 
Q 819 9 494 109 
L 494 744 
Q 775 591 1075 516 
Q 1375 441 1709 441 
Q 2250 441 2565 725 
Q 2881 1009 2881 1497 
Q 2881 1984 2565 2268 
Q 2250 2553 1709 2553 
Q 1456 2553 1204 2497 
Q 953 2441 691 2322 
L 691 4666 
z
" transform="scale(0.015625)"/>
       </defs>
       <use xlink:href="#DejaVuSans-35"/>
       <use xlink:href="#DejaVuSans-30" transform="translate(63.623047 0)"/>
      </g>
     </g>
    </g>
    <g id="ytick_6">
     <g id="line2d_15">
      <g>
       <use xlink:href="#mc6a916c2e8" x="26.925" y="218.88" style="stroke: #000000; stroke-width: 0.8"/>
      </g>
     </g>
     <g id="text_15">
      <!-- 60 -->
      <g transform="translate(7.2 222.679219) scale(0.1 -0.1)">
       <use xlink:href="#DejaVuSans-36"/>
       <use xlink:href="#DejaVuSans-30" transform="translate(63.623047 0)"/>
      </g>
     </g>
    </g>
    <g id="ytick_7">
     <g id="line2d_16">
      <g>
       <use xlink:href="#mc6a916c2e8" x="26.925" y="132.48" style="stroke: #000000; stroke-width: 0.8"/>
      </g>
     </g>
     <g id="text_16">
      <!-- 70 -->
      <g transform="translate(7.2 136.279219) scale(0.1 -0.1)">
       <defs>
        <path id="DejaVuSans-37" d="M 525 4666 
L 3525 4666 
L 3525 4397 
L 1831 0 
L 1172 0 
L 2766 4134 
L 525 4134 
L 525 4666 
z
" transform="scale(0.015625)"/>
       </defs>
       <use xlink:href="#DejaVuSans-37"/>
       <use xlink:href="#DejaVuSans-30" transform="translate(63.623047 0)"/>
      </g>
     </g>
    </g>
    <g id="ytick_8">
     <g id="line2d_17">
      <g>
       <use xlink:href="#mc6a916c2e8" x="26.925" y="46.08" style="stroke: #000000; stroke-width: 0.8"/>
      </g>
     </g>
     <g id="text_17">
      <!-- 80 -->
      <g transform="translate(7.2 49.879219) scale(0.1 -0.1)">
       <use xlink:href="#DejaVuSans-38"/>
       <use xlink:href="#DejaVuSans-30" transform="translate(63.623047 0)"/>
      </g>
     </g>
    </g>
   </g>
   <g id="line2d_18">
    <path d="M 57.361364 469.44 
L 61.339973 504 
L 65.318583 426.24 
L 69.297193 408.96 
L 73.275802 469.44 
L 77.254412 452.16 
L 81.233021 374.4 
L 85.211631 495.36 
L 89.190241 443.52 
L 93.16885 504 
L 101.12607 504 
L 105.104679 495.36 
L 109.083289 512.64 
L 113.061898 434.88 
L 117.040508 478.08 
L 121.019118 391.68 
L 124.997727 417.6 
L 128.976337 426.24 
L 132.954947 408.96 
L 136.933556 348.48 
L 140.912166 408.96 
L 144.890775 400.32 
L 148.869385 460.8 
L 152.847995 443.52 
L 156.826604 504 
L 164.783824 434.88 
L 168.762433 521.28 
L 172.741043 495.36 
L 176.719652 521.28 
L 180.698262 581.76 
L 184.676872 564.48 
L 188.655481 538.56 
L 192.634091 478.08 
L 196.612701 504 
L 200.59131 400.32 
L 204.56992 426.24 
L 208.548529 417.6 
L 212.527139 331.2 
L 216.505749 426.24 
L 220.484358 400.32 
L 228.441578 452.16 
L 232.420187 529.92 
L 236.398797 460.8 
L 240.377406 469.44 
L 244.356016 417.6 
L 248.334626 469.44 
L 256.291845 521.28 
L 260.270455 443.52 
L 264.249064 434.88 
L 268.227674 495.36 
L 272.206283 529.92 
L 276.184893 504 
L 280.163503 443.52 
L 284.142112 469.44 
L 288.120722 400.32 
L 292.099332 426.24 
L 296.077941 469.44 
L 300.056551 529.92 
L 304.03516 495.36 
L 308.01377 452.16 
L 311.99238 452.16 
L 315.970989 521.28 
L 319.949599 547.2 
L 323.928209 486.72 
L 327.906818 383.04 
L 331.885428 400.32 
L 335.864037 400.32 
L 339.842647 443.52 
L 343.821257 434.88 
L 347.799866 469.44 
L 351.778476 486.72 
L 355.757086 469.44 
L 359.735695 538.56 
L 363.714305 538.56 
L 367.692914 521.28 
L 371.671524 434.88 
L 375.650134 452.16 
L 379.628743 434.88 
L 383.607353 478.08 
L 387.585963 486.72 
L 391.564572 504 
L 395.543182 495.36 
L 399.521791 478.08 
L 403.500401 521.28 
L 407.479011 512.64 
L 411.45762 400.32 
L 415.43623 495.36 
L 419.41484 573.12 
L 423.393449 495.36 
L 427.372059 521.28 
L 431.350668 460.8 
L 435.329278 486.72 
L 439.307888 460.8 
L 443.286497 504 
L 447.265107 564.48 
L 451.243717 521.28 
L 455.222326 486.72 
L 459.200936 512.64 
L 463.179545 504 
L 467.158155 443.52 
L 471.136765 495.36 
L 475.115374 486.72 
L 479.093984 504 
L 483.072594 478.08 
L 491.029813 443.52 
L 495.008422 452.16 
L 498.987032 452.16 
L 506.944251 469.44 
L 510.922861 495.36 
L 514.901471 339.84 
L 518.88008 460.8 
L 522.85869 417.6 
L 526.837299 452.16 
L 534.794519 383.04 
L 538.773128 426.24 
L 542.751738 434.88 
L 546.730348 434.88 
L 550.708957 478.08 
L 554.687567 529.92 
L 558.666176 538.56 
L 562.644786 642.24 
L 566.623396 581.76 
L 570.602005 564.48 
L 574.580615 504 
L 578.559225 504 
L 582.537834 460.8 
L 586.516444 357.12 
L 590.495053 434.88 
L 594.473663 460.8 
L 598.452273 443.52 
L 602.430882 538.56 
L 606.409492 486.72 
L 610.388102 538.56 
L 614.366711 538.56 
L 618.345321 460.8 
L 622.32393 408.96 
L 626.30254 460.8 
L 630.28115 408.96 
L 634.259759 434.88 
L 638.238369 452.16 
L 642.216979 452.16 
L 646.195588 417.6 
L 650.174198 391.68 
L 654.152807 408.96 
L 658.131417 460.8 
L 662.110027 400.32 
L 666.088636 434.88 
L 666.088636 434.88 
" clip-path="url(#p54fb5bff76)" style="fill: none; stroke: #1f77b4; stroke-width: 1.5; stroke-linecap: square"/>
   </g>
   <g id="line2d_19">
    <path d="M 57.361364 391.68 
L 61.339973 408.96 
L 65.318583 357.12 
L 69.297193 158.4 
L 73.275802 331.2 
L 77.254412 192.96 
L 81.233021 270.72 
L 85.211631 400.32 
L 89.190241 443.52 
L 93.16885 365.76 
L 97.14746 348.48 
L 101.12607 288 
L 105.104679 400.32 
L 109.083289 434.88 
L 113.061898 374.4 
L 117.040508 331.2 
L 121.019118 383.04 
L 124.997727 158.4 
L 128.976337 89.28 
L 132.954947 123.84 
L 136.933556 46.08 
L 140.912166 331.2 
L 144.890775 253.44 
L 148.869385 296.64 
L 152.847995 313.92 
L 156.826604 357.12 
L 160.805214 348.48 
L 164.783824 305.28 
L 168.762433 408.96 
L 172.741043 504 
L 176.719652 486.72 
L 180.698262 443.52 
L 184.676872 486.72 
L 188.655481 486.72 
L 192.634091 426.24 
L 196.612701 244.8 
L 200.59131 210.24 
L 204.56992 184.32 
L 208.548529 141.12 
L 212.527139 37.44 
L 216.505749 167.04 
L 220.484358 244.8 
L 224.462968 236.16 
L 228.441578 357.12 
L 232.420187 270.72 
L 236.398797 296.64 
L 240.377406 253.44 
L 244.356016 339.84 
L 248.334626 279.36 
L 252.313235 383.04 
L 256.291845 288 
L 260.270455 426.24 
L 264.249064 339.84 
L 268.227674 365.76 
L 272.206283 374.4 
L 276.184893 400.32 
L 280.163503 167.04 
L 284.142112 400.32 
L 288.120722 279.36 
L 292.099332 184.32 
L 296.077941 288 
L 300.056551 313.92 
L 304.03516 270.72 
L 308.01377 400.32 
L 311.99238 262.08 
L 315.970989 348.48 
L 319.949599 383.04 
L 323.928209 357.12 
L 327.906818 132.48 
L 331.885428 158.4 
L 335.864037 167.04 
L 339.842647 305.28 
L 343.821257 218.88 
L 347.799866 279.36 
L 351.778476 408.96 
L 355.757086 365.76 
L 359.735695 400.32 
L 363.714305 383.04 
L 367.692914 244.8 
L 371.671524 236.16 
L 379.628743 270.72 
L 383.607353 313.92 
L 387.585963 236.16 
L 391.564572 270.72 
L 395.543182 270.72 
L 399.521791 365.76 
L 403.500401 478.08 
L 407.479011 426.24 
L 411.45762 339.84 
L 415.43623 365.76 
L 419.41484 426.24 
L 423.393449 357.12 
L 427.372059 408.96 
L 431.350668 417.6 
L 439.307888 365.76 
L 443.286497 469.44 
L 447.265107 417.6 
L 451.243717 348.48 
L 455.222326 331.2 
L 459.200936 331.2 
L 463.179545 270.72 
L 467.158155 253.44 
L 471.136765 262.08 
L 475.115374 296.64 
L 479.093984 253.44 
L 483.072594 313.92 
L 487.051203 331.2 
L 491.029813 331.2 
L 495.008422 262.08 
L 498.987032 357.12 
L 502.965642 253.44 
L 506.944251 288 
L 510.922861 262.08 
L 514.901471 365.76 
L 518.88008 331.2 
L 522.85869 331.2 
L 526.837299 115.2 
L 530.815909 149.76 
L 534.794519 192.96 
L 538.773128 296.64 
L 542.751738 313.92 
L 546.730348 262.08 
L 550.708957 417.6 
L 554.687567 495.36 
L 558.666176 469.44 
L 562.644786 633.6 
L 566.623396 452.16 
L 570.602005 365.76 
L 574.580615 391.68 
L 578.559225 365.76 
L 582.537834 149.76 
L 586.516444 184.32 
L 590.495053 201.6 
L 594.473663 383.04 
L 598.452273 434.88 
L 602.430882 434.88 
L 606.409492 374.4 
L 614.366711 305.28 
L 618.345321 262.08 
L 622.32393 305.28 
L 626.30254 339.84 
L 630.28115 149.76 
L 634.259759 262.08 
L 638.238369 236.16 
L 642.216979 288 
L 646.195588 322.56 
L 650.174198 167.04 
L 654.152807 141.12 
L 658.131417 244.8 
L 662.110027 210.24 
L 666.088636 141.12 
L 666.088636 141.12 
" clip-path="url(#p54fb5bff76)" style="fill: none; stroke: #ff7f0e; stroke-width: 1.5; stroke-linecap: square"/>
   </g>
   <g id="line2d_20">
    <path d="M 57.361364 483.264 
L 61.339973 476.352 
L 65.318583 453.024 
L 69.297193 458.208 
L 73.275802 461.664 
L 77.254412 454.752 
L 81.233021 453.888 
L 85.211631 461.664 
L 89.190241 472.896 
L 93.16885 482.4 
L 97.14746 498.816 
L 101.12607 496.224 
L 105.104679 504.864 
L 109.083289 517.824 
L 113.061898 493.632 
L 117.040508 463.392 
L 121.019118 446.976 
L 124.997727 418.464 
L 128.976337 398.592 
L 132.954947 402.912 
L 136.933556 396 
L 140.912166 417.6 
L 144.890775 427.104 
L 148.869385 452.16 
L 152.847995 451.296 
L 156.826604 471.168 
L 160.805214 491.904 
L 164.783824 497.952 
L 168.762433 522.144 
L 172.741043 528.192 
L 176.719652 542.88 
L 180.698262 547.2 
L 184.676872 567.072 
L 188.655481 549.792 
L 192.634091 484.992 
L 196.612701 478.944 
L 200.59131 438.336 
L 204.56992 403.776 
L 208.548529 392.544 
L 212.527139 406.368 
L 216.505749 405.504 
L 220.484358 415.872 
L 224.462968 470.304 
L 228.441578 468.576 
L 232.420187 467.712 
L 236.398797 446.976 
L 240.377406 451.296 
L 244.356016 446.976 
L 248.334626 443.52 
L 252.313235 469.44 
L 256.291845 464.256 
L 260.270455 499.68 
L 264.249064 514.368 
L 268.227674 525.6 
L 276.184893 492.768 
L 280.163503 467.712 
L 284.142112 443.52 
L 288.120722 440.928 
L 292.099332 447.84 
L 296.077941 442.656 
L 300.056551 436.608 
L 304.03516 460.8 
L 308.01377 464.256 
L 311.99238 475.488 
L 315.970989 475.488 
L 319.949599 468.576 
L 323.928209 462.528 
L 327.906818 451.296 
L 331.885428 427.104 
L 335.864037 421.92 
L 339.842647 442.656 
L 343.821257 447.84 
L 347.799866 473.76 
L 351.778476 488.448 
L 355.757086 499.68 
L 359.735695 499.68 
L 363.714305 493.632 
L 367.692914 472.896 
L 371.671524 459.072 
L 375.650134 441.792 
L 379.628743 442.656 
L 383.607353 460.8 
L 387.585963 459.936 
L 395.543182 477.216 
L 399.521791 465.12 
L 403.500401 504.864 
L 407.479011 504.864 
L 411.45762 500.544 
L 415.43623 513.504 
L 419.41484 510.048 
L 423.393449 497.952 
L 427.372059 478.944 
L 431.350668 501.408 
L 435.329278 485.856 
L 439.307888 498.816 
L 443.286497 497.088 
L 447.265107 509.184 
L 451.243717 499.68 
L 455.222326 504 
L 459.200936 478.08 
L 463.179545 482.4 
L 467.158155 473.76 
L 471.136765 446.976 
L 475.115374 450.432 
L 479.093984 447.84 
L 483.072594 450.432 
L 487.051203 453.888 
L 491.029813 464.256 
L 495.008422 458.208 
L 498.987032 459.072 
L 502.965642 447.84 
L 506.944251 468.576 
L 510.922861 453.888 
L 514.901471 446.976 
L 518.88008 443.52 
L 526.837299 460.8 
L 530.815909 435.744 
L 534.794519 446.112 
L 538.773128 443.52 
L 542.751738 456.48 
L 546.730348 473.76 
L 550.708957 495.36 
L 554.687567 529.056 
L 558.666176 564.48 
L 562.644786 587.808 
L 566.623396 583.488 
L 570.602005 549.792 
L 574.580615 503.136 
L 578.559225 446.112 
L 582.537834 428.832 
L 586.516444 434.88 
L 590.495053 423.648 
L 594.473663 449.568 
L 598.452273 467.712 
L 602.430882 500.544 
L 606.409492 502.272 
L 610.388102 493.632 
L 614.366711 479.808 
L 618.345321 448.704 
L 622.32393 439.2 
L 626.30254 423.648 
L 630.28115 440.928 
L 634.259759 437.472 
L 638.238369 445.248 
L 642.216979 434.016 
L 646.195588 446.112 
L 650.174198 428.832 
L 654.152807 413.28 
L 658.131417 396 
L 662.110027 421.056 
L 666.088636 401.184 
L 666.088636 401.184 
" clip-path="url(#p54fb5bff76)" style="fill: none; stroke: #2ca02c; stroke-width: 1.5; stroke-linecap: square"/>
   </g>
   <g id="line2d_21">
    <path d="M 57.361364 334.656 
L 61.339973 337.248 
L 65.318583 353.664 
L 69.297193 293.184 
L 73.275802 336.384 
L 77.254412 306.144 
L 81.233021 291.456 
L 85.211631 304.416 
L 89.190241 293.184 
L 93.16885 352.8 
L 97.14746 376.128 
L 101.12607 357.12 
L 105.104679 424.512 
L 109.083289 412.416 
L 113.061898 340.704 
L 117.040508 311.328 
L 121.019118 254.304 
L 124.997727 189.504 
L 128.976337 176.544 
L 132.954947 150.624 
L 136.933556 140.256 
L 140.912166 163.584 
L 144.890775 236.16 
L 148.869385 269.856 
L 152.847995 292.32 
L 156.826604 391.68 
L 160.805214 348.48 
L 164.783824 391.68 
L 168.762433 447.84 
L 172.741043 440.064 
L 176.719652 472.032 
L 180.698262 509.184 
L 184.676872 514.368 
L 188.655481 465.984 
L 192.634091 410.688 
L 196.612701 288 
L 200.59131 228.384 
L 204.56992 209.376 
L 208.548529 136.8 
L 212.527139 102.24 
L 216.505749 154.944 
L 220.484358 214.56 
L 224.462968 262.944 
L 228.441578 315.648 
L 232.420187 345.024 
L 236.398797 311.328 
L 240.377406 310.464 
L 244.356016 272.448 
L 248.334626 299.232 
L 252.313235 320.832 
L 256.291845 345.888 
L 260.270455 379.584 
L 264.249064 434.016 
L 268.227674 417.6 
L 276.184893 398.592 
L 280.163503 336.384 
L 288.120722 281.088 
L 292.099332 278.496 
L 296.077941 262.08 
L 300.056551 262.08 
L 304.03516 330.336 
L 308.01377 338.112 
L 311.99238 372.672 
L 315.970989 371.808 
L 319.949599 306.144 
L 323.928209 292.32 
L 327.906818 238.752 
L 331.885428 211.968 
L 335.864037 222.336 
L 339.842647 200.736 
L 343.821257 290.592 
L 351.778476 355.392 
L 355.757086 414.144 
L 359.735695 387.36 
L 363.714305 356.256 
L 367.692914 320.832 
L 371.671524 291.456 
L 375.650134 264.672 
L 379.628743 295.776 
L 383.607353 323.424 
L 387.585963 322.56 
L 391.564572 310.464 
L 395.543182 329.472 
L 399.521791 356.256 
L 403.500401 374.4 
L 407.479011 408.96 
L 411.45762 392.544 
L 415.43623 396 
L 419.41484 386.496 
L 423.393449 402.912 
L 427.372059 371.808 
L 431.350668 394.272 
L 435.329278 415.872 
L 439.307888 367.488 
L 443.286497 398.592 
L 447.265107 407.232 
L 451.243717 380.448 
L 455.222326 390.816 
L 459.200936 383.04 
L 463.179545 327.744 
L 467.158155 281.088 
L 471.136765 303.552 
L 475.115374 285.408 
L 479.093984 301.824 
L 483.072594 292.32 
L 487.051203 309.6 
L 491.029813 331.2 
L 495.008422 294.048 
L 498.987032 328.608 
L 502.965642 272.448 
L 506.944251 282.816 
L 510.922861 280.224 
L 514.901471 278.496 
L 518.88008 256.896 
L 522.85869 281.088 
L 526.837299 267.264 
L 530.815909 254.304 
L 534.794519 236.16 
L 538.773128 233.568 
L 542.751738 281.952 
L 546.730348 337.248 
L 550.708957 395.136 
L 554.687567 450.432 
L 558.666176 526.464 
L 562.644786 566.208 
L 566.623396 529.056 
L 570.602005 498.816 
L 578.559225 278.496 
L 582.537834 208.512 
L 586.516444 205.056 
L 590.495053 262.944 
L 594.473663 340.704 
L 598.452273 332.928 
L 602.430882 410.688 
L 606.409492 431.424 
L 610.388102 405.504 
L 618.345321 285.408 
L 622.32393 217.152 
L 626.30254 252.576 
L 630.28115 275.904 
L 634.259759 265.536 
L 638.238369 262.944 
L 642.216979 249.12 
L 646.195588 233.568 
L 650.174198 234.432 
L 654.152807 177.408 
L 658.131417 142.848 
L 662.110027 120.384 
L 666.088636 127.296 
L 666.088636 127.296 
" clip-path="url(#p54fb5bff76)" style="fill: none; stroke: #d62728; stroke-width: 1.5; stroke-linecap: square"/>
   </g>
   <g id="line2d_22">
    <path d="M 57.361364 355.802959 
L 61.339973 344.371729 
L 65.318583 331.811982 
L 69.297193 320.443044 
L 73.275802 310.84051 
L 77.254412 303.234038 
L 81.233021 299.067363 
L 85.211631 301.486948 
L 89.190241 314.003188 
L 93.16885 337.688503 
L 97.14746 368.567314 
L 101.12607 397.316711 
L 105.104679 412.260842 
L 109.083289 404.438093 
L 113.061898 371.839219 
L 117.040508 320.335994 
L 121.019118 261.09769 
L 124.997727 206.458286 
L 128.976337 166.590242 
L 132.954947 147.852729 
L 136.933556 152.222761 
L 140.912166 177.1004 
L 144.890775 215.784492 
L 148.869385 259.395952 
L 152.847995 300.061802 
L 156.826604 333.776206 
L 160.805214 361.248706 
L 164.783824 386.36187 
L 168.762433 413.316189 
L 172.741043 443.859412 
L 176.719652 475.335044 
L 180.698262 499.927522 
L 184.676872 505.896987 
L 188.655481 481.61729 
L 192.634091 421.811038 
L 196.612701 333.047219 
L 200.59131 234.603677 
L 204.56992 152.679771 
L 208.548529 109.924783 
L 212.527139 115.560571 
L 216.505749 161.510405 
L 220.484358 226.544941 
L 224.462968 285.967222 
L 228.441578 321.692915 
L 232.420187 328.113853 
L 236.398797 312.081021 
L 240.377406 288.233086 
L 244.356016 272.376255 
L 248.334626 275.484749 
L 252.313235 300.06668 
L 256.291845 339.777246 
L 260.270455 382.209631 
L 264.249064 413.811892 
L 268.227674 424.95928 
L 272.206283 413.107822 
L 276.184893 382.935981 
L 280.163503 343.850054 
L 284.142112 306.404561 
L 288.120722 279.28314 
L 292.099332 267.65343 
L 296.077941 272.683169 
L 300.056551 291.604329 
L 304.03516 318.05978 
L 308.01377 343.050007 
L 311.99238 356.955996 
L 315.970989 352.548193 
L 319.949599 328.038047 
L 323.928209 288.671638 
L 327.906818 245.838142 
L 331.885428 213.698716 
L 335.864037 204.372444 
L 339.842647 223.281475 
L 343.821257 266.343047 
L 347.799866 320.466182 
L 351.778476 367.88658 
L 355.757086 393.180227 
L 359.735695 389.877275 
L 363.714305 363.060461 
L 367.692914 326.233279 
L 371.671524 294.191279 
L 375.650134 276.188752 
L 379.628743 273.367925 
L 383.607353 281.273335 
L 387.585963 294.766875 
L 391.564572 311.416831 
L 395.543182 331.272905 
L 403.500401 377.307114 
L 407.479011 396.04845 
L 411.45762 406.175427 
L 415.43623 406.678447 
L 419.41484 400.284668 
L 423.393449 391.774724 
L 427.372059 385.530381 
L 431.350668 383.87406 
L 435.329278 386.852432 
L 439.307888 392.928486 
L 443.286497 399.692725 
L 447.265107 404.110217 
L 451.243717 402.637676 
L 455.222326 392.06707 
L 459.200936 371.361775 
L 467.158155 315.850605 
L 471.136765 296.719102 
L 475.115374 291.284956 
L 479.093984 298.060071 
L 483.072594 309.668159 
L 487.051203 317.355579 
L 491.029813 316.110652 
L 495.008422 306.85623 
L 498.987032 294.62113 
L 502.965642 284.614058 
L 506.944251 279.141548 
L 510.922861 277.109297 
L 514.901471 275.666748 
L 518.88008 272.389043 
L 522.85869 266.583516 
L 526.837299 259.38145 
L 530.815909 253.253914 
L 534.794519 251.812947 
L 538.773128 260.102988 
L 542.751738 284.285061 
L 546.730348 329.259639 
L 550.708957 394.13261 
L 554.687567 468.154138 
L 558.666176 531.096372 
L 562.644786 560.10397 
L 566.623396 540.542483 
L 570.602005 474.715942 
L 574.580615 382.86156 
L 578.559225 295.252295 
L 582.537834 239.497295 
L 586.516444 229.55113 
L 590.495053 261.483113 
L 598.452273 372.389238 
L 602.430882 406.900063 
L 606.409492 409.863867 
L 610.388102 382.454517 
L 614.366711 336.070283 
L 618.345321 287.626641 
L 622.32393 253.067695 
L 626.30254 241.031799 
L 630.28115 249.445503 
L 634.259759 266.979551 
L 638.238369 278.94676 
L 642.216979 274.488135 
L 646.195588 251.176377 
L 650.174198 214.957485 
L 654.152807 176.488154 
L 658.131417 146.802063 
L 662.110027 134.695635 
L 666.088636 145.974331 
L 666.088636 145.974331 
" clip-path="url(#p54fb5bff76)" style="fill: none; stroke-dasharray: 11.1,4.8; stroke-dashoffset: 0; stroke: #000000; stroke-opacity: 0.5; stroke-width: 3"/>
   </g>
   <g id="patch_3">
    <path d="M 26.925 672.48 
L 26.925 7.2 
" style="fill: none; stroke: #000000; stroke-width: 0.8; stroke-linejoin: miter; stroke-linecap: square"/>
   </g>
   <g id="patch_4">
    <path d="M 696.525 672.48 
L 696.525 7.2 
" style="fill: none; stroke: #000000; stroke-width: 0.8; stroke-linejoin: miter; stroke-linecap: square"/>
   </g>
   <g id="patch_5">
    <path d="M 26.925 672.48 
L 696.525 672.48 
" style="fill: none; stroke: #000000; stroke-width: 0.8; stroke-linejoin: miter; stroke-linecap: square"/>
   </g>
   <g id="patch_6">
    <path d="M 26.925 7.2 
L 696.525 7.2 
" style="fill: none; stroke: #000000; stroke-width: 0.8; stroke-linejoin: miter; stroke-linecap: square"/>
   </g>
   <g id="legend_1">
    <g id="patch_7">
     <path d="M 499.365625 89.98125 
L 689.525 89.98125 
Q 691.525 89.98125 691.525 87.98125 
L 691.525 14.2 
Q 691.525 12.2 689.525 12.2 
L 499.365625 12.2 
Q 497.365625 12.2 497.365625 14.2 
L 497.365625 87.98125 
Q 497.365625 89.98125 499.365625 89.98125 
z
" style="fill: #ffffff; opacity: 0.8; stroke: #cccccc; stroke-linejoin: miter"/>
    </g>
    <g id="line2d_23">
     <path d="M 501.365625 20.298438 
L 511.365625 20.298438 
L 521.365625 20.298438 
" style="fill: none; stroke: #1f77b4; stroke-width: 1.5; stroke-linecap: square"/>
    </g>
    <g id="text_18">
     <!-- spike_counts_array -->
     <g transform="translate(529.365625 23.798438) scale(0.1 -0.1)">
      <defs>
       <path id="DejaVuSans-73" d="M 2834 3397 
L 2834 2853 
Q 2591 2978 2328 3040 
Q 2066 3103 1784 3103 
Q 1356 3103 1142 2972 
Q 928 2841 928 2578 
Q 928 2378 1081 2264 
Q 1234 2150 1697 2047 
L 1894 2003 
Q 2506 1872 2764 1633 
Q 3022 1394 3022 966 
Q 3022 478 2636 193 
Q 2250 -91 1575 -91 
Q 1294 -91 989 -36 
Q 684 19 347 128 
L 347 722 
Q 666 556 975 473 
Q 1284 391 1588 391 
Q 1994 391 2212 530 
Q 2431 669 2431 922 
Q 2431 1156 2273 1281 
Q 2116 1406 1581 1522 
L 1381 1569 
Q 847 1681 609 1914 
Q 372 2147 372 2553 
Q 372 3047 722 3315 
Q 1072 3584 1716 3584 
Q 2034 3584 2315 3537 
Q 2597 3491 2834 3397 
z
" transform="scale(0.015625)"/>
       <path id="DejaVuSans-70" d="M 1159 525 
L 1159 -1331 
L 581 -1331 
L 581 3500 
L 1159 3500 
L 1159 2969 
Q 1341 3281 1617 3432 
Q 1894 3584 2278 3584 
Q 2916 3584 3314 3078 
Q 3713 2572 3713 1747 
Q 3713 922 3314 415 
Q 2916 -91 2278 -91 
Q 1894 -91 1617 61 
Q 1341 213 1159 525 
z
M 3116 1747 
Q 3116 2381 2855 2742 
Q 2594 3103 2138 3103 
Q 1681 3103 1420 2742 
Q 1159 2381 1159 1747 
Q 1159 1113 1420 752 
Q 1681 391 2138 391 
Q 2594 391 2855 752 
Q 3116 1113 3116 1747 
z
" transform="scale(0.015625)"/>
       <path id="DejaVuSans-69" d="M 603 3500 
L 1178 3500 
L 1178 0 
L 603 0 
L 603 3500 
z
M 603 4863 
L 1178 4863 
L 1178 4134 
L 603 4134 
L 603 4863 
z
" transform="scale(0.015625)"/>
       <path id="DejaVuSans-6b" d="M 581 4863 
L 1159 4863 
L 1159 1991 
L 2875 3500 
L 3609 3500 
L 1753 1863 
L 3688 0 
L 2938 0 
L 1159 1709 
L 1159 0 
L 581 0 
L 581 4863 
z
" transform="scale(0.015625)"/>
       <path id="DejaVuSans-65" d="M 3597 1894 
L 3597 1613 
L 953 1613 
Q 991 1019 1311 708 
Q 1631 397 2203 397 
Q 2534 397 2845 478 
Q 3156 559 3463 722 
L 3463 178 
Q 3153 47 2828 -22 
Q 2503 -91 2169 -91 
Q 1331 -91 842 396 
Q 353 884 353 1716 
Q 353 2575 817 3079 
Q 1281 3584 2069 3584 
Q 2775 3584 3186 3129 
Q 3597 2675 3597 1894 
z
M 3022 2063 
Q 3016 2534 2758 2815 
Q 2500 3097 2075 3097 
Q 1594 3097 1305 2825 
Q 1016 2553 972 2059 
L 3022 2063 
z
" transform="scale(0.015625)"/>
       <path id="DejaVuSans-5f" d="M 3263 -1063 
L 3263 -1509 
L -63 -1509 
L -63 -1063 
L 3263 -1063 
z
" transform="scale(0.015625)"/>
       <path id="DejaVuSans-63" d="M 3122 3366 
L 3122 2828 
Q 2878 2963 2633 3030 
Q 2388 3097 2138 3097 
Q 1578 3097 1268 2742 
Q 959 2388 959 1747 
Q 959 1106 1268 751 
Q 1578 397 2138 397 
Q 2388 397 2633 464 
Q 2878 531 3122 666 
L 3122 134 
Q 2881 22 2623 -34 
Q 2366 -91 2075 -91 
Q 1284 -91 818 406 
Q 353 903 353 1747 
Q 353 2603 823 3093 
Q 1294 3584 2113 3584 
Q 2378 3584 2631 3529 
Q 2884 3475 3122 3366 
z
" transform="scale(0.015625)"/>
       <path id="DejaVuSans-6f" d="M 1959 3097 
Q 1497 3097 1228 2736 
Q 959 2375 959 1747 
Q 959 1119 1226 758 
Q 1494 397 1959 397 
Q 2419 397 2687 759 
Q 2956 1122 2956 1747 
Q 2956 2369 2687 2733 
Q 2419 3097 1959 3097 
z
M 1959 3584 
Q 2709 3584 3137 3096 
Q 3566 2609 3566 1747 
Q 3566 888 3137 398 
Q 2709 -91 1959 -91 
Q 1206 -91 779 398 
Q 353 888 353 1747 
Q 353 2609 779 3096 
Q 1206 3584 1959 3584 
z
" transform="scale(0.015625)"/>
       <path id="DejaVuSans-75" d="M 544 1381 
L 544 3500 
L 1119 3500 
L 1119 1403 
Q 1119 906 1312 657 
Q 1506 409 1894 409 
Q 2359 409 2629 706 
Q 2900 1003 2900 1516 
L 2900 3500 
L 3475 3500 
L 3475 0 
L 2900 0 
L 2900 538 
Q 2691 219 2414 64 
Q 2138 -91 1772 -91 
Q 1169 -91 856 284 
Q 544 659 544 1381 
z
M 1991 3584 
L 1991 3584 
z
" transform="scale(0.015625)"/>
       <path id="DejaVuSans-6e" d="M 3513 2113 
L 3513 0 
L 2938 0 
L 2938 2094 
Q 2938 2591 2744 2837 
Q 2550 3084 2163 3084 
Q 1697 3084 1428 2787 
Q 1159 2491 1159 1978 
L 1159 0 
L 581 0 
L 581 3500 
L 1159 3500 
L 1159 2956 
Q 1366 3272 1645 3428 
Q 1925 3584 2291 3584 
Q 2894 3584 3203 3211 
Q 3513 2838 3513 2113 
z
" transform="scale(0.015625)"/>
       <path id="DejaVuSans-74" d="M 1172 4494 
L 1172 3500 
L 2356 3500 
L 2356 3053 
L 1172 3053 
L 1172 1153 
Q 1172 725 1289 603 
Q 1406 481 1766 481 
L 2356 481 
L 2356 0 
L 1766 0 
Q 1100 0 847 248 
Q 594 497 594 1153 
L 594 3053 
L 172 3053 
L 172 3500 
L 594 3500 
L 594 4494 
L 1172 4494 
z
" transform="scale(0.015625)"/>
       <path id="DejaVuSans-61" d="M 2194 1759 
Q 1497 1759 1228 1600 
Q 959 1441 959 1056 
Q 959 750 1161 570 
Q 1363 391 1709 391 
Q 2188 391 2477 730 
Q 2766 1069 2766 1631 
L 2766 1759 
L 2194 1759 
z
M 3341 1997 
L 3341 0 
L 2766 0 
L 2766 531 
Q 2569 213 2275 61 
Q 1981 -91 1556 -91 
Q 1019 -91 701 211 
Q 384 513 384 1019 
Q 384 1609 779 1909 
Q 1175 2209 1959 2209 
L 2766 2209 
L 2766 2266 
Q 2766 2663 2505 2880 
Q 2244 3097 1772 3097 
Q 1472 3097 1187 3025 
Q 903 2953 641 2809 
L 641 3341 
Q 956 3463 1253 3523 
Q 1550 3584 1831 3584 
Q 2591 3584 2966 3190 
Q 3341 2797 3341 1997 
z
" transform="scale(0.015625)"/>
       <path id="DejaVuSans-72" d="M 2631 2963 
Q 2534 3019 2420 3045 
Q 2306 3072 2169 3072 
Q 1681 3072 1420 2755 
Q 1159 2438 1159 1844 
L 1159 0 
L 581 0 
L 581 3500 
L 1159 3500 
L 1159 2956 
Q 1341 3275 1631 3429 
Q 1922 3584 2338 3584 
Q 2397 3584 2469 3576 
Q 2541 3569 2628 3553 
L 2631 2963 
z
" transform="scale(0.015625)"/>
       <path id="DejaVuSans-79" d="M 2059 -325 
Q 1816 -950 1584 -1140 
Q 1353 -1331 966 -1331 
L 506 -1331 
L 506 -850 
L 844 -850 
Q 1081 -850 1212 -737 
Q 1344 -625 1503 -206 
L 1606 56 
L 191 3500 
L 800 3500 
L 1894 763 
L 2988 3500 
L 3597 3500 
L 2059 -325 
z
" transform="scale(0.015625)"/>
      </defs>
      <use xlink:href="#DejaVuSans-73"/>
      <use xlink:href="#DejaVuSans-70" transform="translate(52.099609 0)"/>
      <use xlink:href="#DejaVuSans-69" transform="translate(115.576172 0)"/>
      <use xlink:href="#DejaVuSans-6b" transform="translate(143.359375 0)"/>
      <use xlink:href="#DejaVuSans-65" transform="translate(197.644531 0)"/>
      <use xlink:href="#DejaVuSans-5f" transform="translate(259.167969 0)"/>
      <use xlink:href="#DejaVuSans-63" transform="translate(309.167969 0)"/>
      <use xlink:href="#DejaVuSans-6f" transform="translate(364.148438 0)"/>
      <use xlink:href="#DejaVuSans-75" transform="translate(425.330078 0)"/>
      <use xlink:href="#DejaVuSans-6e" transform="translate(488.708984 0)"/>
      <use xlink:href="#DejaVuSans-74" transform="translate(552.087891 0)"/>
      <use xlink:href="#DejaVuSans-73" transform="translate(591.296875 0)"/>
      <use xlink:href="#DejaVuSans-5f" transform="translate(643.396484 0)"/>
      <use xlink:href="#DejaVuSans-61" transform="translate(693.396484 0)"/>
      <use xlink:href="#DejaVuSans-72" transform="translate(754.675781 0)"/>
      <use xlink:href="#DejaVuSans-72" transform="translate(794.039062 0)"/>
      <use xlink:href="#DejaVuSans-61" transform="translate(835.152344 0)"/>
      <use xlink:href="#DejaVuSans-79" transform="translate(896.431641 0)"/>
     </g>
    </g>
    <g id="line2d_24">
     <path d="M 501.365625 35.254688 
L 511.365625 35.254688 
L 521.365625 35.254688 
" style="fill: none; stroke: #ff7f0e; stroke-width: 1.5; stroke-linecap: square"/>
    </g>
    <g id="text_19">
     <!-- spike_counts_array_no_ref -->
     <g transform="translate(529.365625 38.754688) scale(0.1 -0.1)">
      <defs>
       <path id="DejaVuSans-66" d="M 2375 4863 
L 2375 4384 
L 1825 4384 
Q 1516 4384 1395 4259 
Q 1275 4134 1275 3809 
L 1275 3500 
L 2222 3500 
L 2222 3053 
L 1275 3053 
L 1275 0 
L 697 0 
L 697 3053 
L 147 3053 
L 147 3500 
L 697 3500 
L 697 3744 
Q 697 4328 969 4595 
Q 1241 4863 1831 4863 
L 2375 4863 
z
" transform="scale(0.015625)"/>
      </defs>
      <use xlink:href="#DejaVuSans-73"/>
      <use xlink:href="#DejaVuSans-70" transform="translate(52.099609 0)"/>
      <use xlink:href="#DejaVuSans-69" transform="translate(115.576172 0)"/>
      <use xlink:href="#DejaVuSans-6b" transform="translate(143.359375 0)"/>
      <use xlink:href="#DejaVuSans-65" transform="translate(197.644531 0)"/>
      <use xlink:href="#DejaVuSans-5f" transform="translate(259.167969 0)"/>
      <use xlink:href="#DejaVuSans-63" transform="translate(309.167969 0)"/>
      <use xlink:href="#DejaVuSans-6f" transform="translate(364.148438 0)"/>
      <use xlink:href="#DejaVuSans-75" transform="translate(425.330078 0)"/>
      <use xlink:href="#DejaVuSans-6e" transform="translate(488.708984 0)"/>
      <use xlink:href="#DejaVuSans-74" transform="translate(552.087891 0)"/>
      <use xlink:href="#DejaVuSans-73" transform="translate(591.296875 0)"/>
      <use xlink:href="#DejaVuSans-5f" transform="translate(643.396484 0)"/>
      <use xlink:href="#DejaVuSans-61" transform="translate(693.396484 0)"/>
      <use xlink:href="#DejaVuSans-72" transform="translate(754.675781 0)"/>
      <use xlink:href="#DejaVuSans-72" transform="translate(794.039062 0)"/>
      <use xlink:href="#DejaVuSans-61" transform="translate(835.152344 0)"/>
      <use xlink:href="#DejaVuSans-79" transform="translate(896.431641 0)"/>
      <use xlink:href="#DejaVuSans-5f" transform="translate(955.611328 0)"/>
      <use xlink:href="#DejaVuSans-6e" transform="translate(1005.611328 0)"/>
      <use xlink:href="#DejaVuSans-6f" transform="translate(1068.990234 0)"/>
      <use xlink:href="#DejaVuSans-5f" transform="translate(1130.171875 0)"/>
      <use xlink:href="#DejaVuSans-72" transform="translate(1180.171875 0)"/>
      <use xlink:href="#DejaVuSans-65" transform="translate(1219.035156 0)"/>
      <use xlink:href="#DejaVuSans-66" transform="translate(1280.558594 0)"/>
     </g>
    </g>
    <g id="line2d_25">
     <path d="M 501.365625 50.210938 
L 511.365625 50.210938 
L 521.365625 50.210938 
" style="fill: none; stroke: #2ca02c; stroke-width: 1.5; stroke-linecap: square"/>
    </g>
    <g id="text_20">
     <!-- spike_counts_array_long -->
     <g transform="translate(529.365625 53.710938) scale(0.1 -0.1)">
      <defs>
       <path id="DejaVuSans-6c" d="M 603 4863 
L 1178 4863 
L 1178 0 
L 603 0 
L 603 4863 
z
" transform="scale(0.015625)"/>
       <path id="DejaVuSans-67" d="M 2906 1791 
Q 2906 2416 2648 2759 
Q 2391 3103 1925 3103 
Q 1463 3103 1205 2759 
Q 947 2416 947 1791 
Q 947 1169 1205 825 
Q 1463 481 1925 481 
Q 2391 481 2648 825 
Q 2906 1169 2906 1791 
z
M 3481 434 
Q 3481 -459 3084 -895 
Q 2688 -1331 1869 -1331 
Q 1566 -1331 1297 -1286 
Q 1028 -1241 775 -1147 
L 775 -588 
Q 1028 -725 1275 -790 
Q 1522 -856 1778 -856 
Q 2344 -856 2625 -561 
Q 2906 -266 2906 331 
L 2906 616 
Q 2728 306 2450 153 
Q 2172 0 1784 0 
Q 1141 0 747 490 
Q 353 981 353 1791 
Q 353 2603 747 3093 
Q 1141 3584 1784 3584 
Q 2172 3584 2450 3431 
Q 2728 3278 2906 2969 
L 2906 3500 
L 3481 3500 
L 3481 434 
z
" transform="scale(0.015625)"/>
      </defs>
      <use xlink:href="#DejaVuSans-73"/>
      <use xlink:href="#DejaVuSans-70" transform="translate(52.099609 0)"/>
      <use xlink:href="#DejaVuSans-69" transform="translate(115.576172 0)"/>
      <use xlink:href="#DejaVuSans-6b" transform="translate(143.359375 0)"/>
      <use xlink:href="#DejaVuSans-65" transform="translate(197.644531 0)"/>
      <use xlink:href="#DejaVuSans-5f" transform="translate(259.167969 0)"/>
      <use xlink:href="#DejaVuSans-63" transform="translate(309.167969 0)"/>
      <use xlink:href="#DejaVuSans-6f" transform="translate(364.148438 0)"/>
      <use xlink:href="#DejaVuSans-75" transform="translate(425.330078 0)"/>
      <use xlink:href="#DejaVuSans-6e" transform="translate(488.708984 0)"/>
      <use xlink:href="#DejaVuSans-74" transform="translate(552.087891 0)"/>
      <use xlink:href="#DejaVuSans-73" transform="translate(591.296875 0)"/>
      <use xlink:href="#DejaVuSans-5f" transform="translate(643.396484 0)"/>
      <use xlink:href="#DejaVuSans-61" transform="translate(693.396484 0)"/>
      <use xlink:href="#DejaVuSans-72" transform="translate(754.675781 0)"/>
      <use xlink:href="#DejaVuSans-72" transform="translate(794.039062 0)"/>
      <use xlink:href="#DejaVuSans-61" transform="translate(835.152344 0)"/>
      <use xlink:href="#DejaVuSans-79" transform="translate(896.431641 0)"/>
      <use xlink:href="#DejaVuSans-5f" transform="translate(955.611328 0)"/>
      <use xlink:href="#DejaVuSans-6c" transform="translate(1005.611328 0)"/>
      <use xlink:href="#DejaVuSans-6f" transform="translate(1033.394531 0)"/>
      <use xlink:href="#DejaVuSans-6e" transform="translate(1094.576172 0)"/>
      <use xlink:href="#DejaVuSans-67" transform="translate(1157.955078 0)"/>
     </g>
    </g>
    <g id="line2d_26">
     <path d="M 501.365625 65.167188 
L 511.365625 65.167188 
L 521.365625 65.167188 
" style="fill: none; stroke: #d62728; stroke-width: 1.5; stroke-linecap: square"/>
    </g>
    <g id="text_21">
     <!-- spike_counts_array_long_no_ref -->
     <g transform="translate(529.365625 68.667188) scale(0.1 -0.1)">
      <use xlink:href="#DejaVuSans-73"/>
      <use xlink:href="#DejaVuSans-70" transform="translate(52.099609 0)"/>
      <use xlink:href="#DejaVuSans-69" transform="translate(115.576172 0)"/>
      <use xlink:href="#DejaVuSans-6b" transform="translate(143.359375 0)"/>
      <use xlink:href="#DejaVuSans-65" transform="translate(197.644531 0)"/>
      <use xlink:href="#DejaVuSans-5f" transform="translate(259.167969 0)"/>
      <use xlink:href="#DejaVuSans-63" transform="translate(309.167969 0)"/>
      <use xlink:href="#DejaVuSans-6f" transform="translate(364.148438 0)"/>
      <use xlink:href="#DejaVuSans-75" transform="translate(425.330078 0)"/>
      <use xlink:href="#DejaVuSans-6e" transform="translate(488.708984 0)"/>
      <use xlink:href="#DejaVuSans-74" transform="translate(552.087891 0)"/>
      <use xlink:href="#DejaVuSans-73" transform="translate(591.296875 0)"/>
      <use xlink:href="#DejaVuSans-5f" transform="translate(643.396484 0)"/>
      <use xlink:href="#DejaVuSans-61" transform="translate(693.396484 0)"/>
      <use xlink:href="#DejaVuSans-72" transform="translate(754.675781 0)"/>
      <use xlink:href="#DejaVuSans-72" transform="translate(794.039062 0)"/>
      <use xlink:href="#DejaVuSans-61" transform="translate(835.152344 0)"/>
      <use xlink:href="#DejaVuSans-79" transform="translate(896.431641 0)"/>
      <use xlink:href="#DejaVuSans-5f" transform="translate(955.611328 0)"/>
      <use xlink:href="#DejaVuSans-6c" transform="translate(1005.611328 0)"/>
      <use xlink:href="#DejaVuSans-6f" transform="translate(1033.394531 0)"/>
      <use xlink:href="#DejaVuSans-6e" transform="translate(1094.576172 0)"/>
      <use xlink:href="#DejaVuSans-67" transform="translate(1157.955078 0)"/>
      <use xlink:href="#DejaVuSans-5f" transform="translate(1221.431641 0)"/>
      <use xlink:href="#DejaVuSans-6e" transform="translate(1271.431641 0)"/>
      <use xlink:href="#DejaVuSans-6f" transform="translate(1334.810547 0)"/>
      <use xlink:href="#DejaVuSans-5f" transform="translate(1395.992188 0)"/>
      <use xlink:href="#DejaVuSans-72" transform="translate(1445.992188 0)"/>
      <use xlink:href="#DejaVuSans-65" transform="translate(1484.855469 0)"/>
      <use xlink:href="#DejaVuSans-66" transform="translate(1546.378906 0)"/>
     </g>
    </g>
    <g id="line2d_27">
     <path d="M 501.365625 80.123438 
L 511.365625 80.123438 
L 521.365625 80.123438 
" style="fill: none; stroke-dasharray: 11.1,4.8; stroke-dashoffset: 0; stroke: #000000; stroke-opacity: 0.5; stroke-width: 3"/>
    </g>
    <g id="text_22">
     <!-- r_est_array_scaled -->
     <g transform="translate(529.365625 83.623438) scale(0.1 -0.1)">
      <defs>
       <path id="DejaVuSans-64" d="M 2906 2969 
L 2906 4863 
L 3481 4863 
L 3481 0 
L 2906 0 
L 2906 525 
Q 2725 213 2448 61 
Q 2172 -91 1784 -91 
Q 1150 -91 751 415 
Q 353 922 353 1747 
Q 353 2572 751 3078 
Q 1150 3584 1784 3584 
Q 2172 3584 2448 3432 
Q 2725 3281 2906 2969 
z
M 947 1747 
Q 947 1113 1208 752 
Q 1469 391 1925 391 
Q 2381 391 2643 752 
Q 2906 1113 2906 1747 
Q 2906 2381 2643 2742 
Q 2381 3103 1925 3103 
Q 1469 3103 1208 2742 
Q 947 2381 947 1747 
z
" transform="scale(0.015625)"/>
      </defs>
      <use xlink:href="#DejaVuSans-72"/>
      <use xlink:href="#DejaVuSans-5f" transform="translate(41.113281 0)"/>
      <use xlink:href="#DejaVuSans-65" transform="translate(91.113281 0)"/>
      <use xlink:href="#DejaVuSans-73" transform="translate(152.636719 0)"/>
      <use xlink:href="#DejaVuSans-74" transform="translate(204.736328 0)"/>
      <use xlink:href="#DejaVuSans-5f" transform="translate(243.945312 0)"/>
      <use xlink:href="#DejaVuSans-61" transform="translate(293.945312 0)"/>
      <use xlink:href="#DejaVuSans-72" transform="translate(355.224609 0)"/>
      <use xlink:href="#DejaVuSans-72" transform="translate(394.587891 0)"/>
      <use xlink:href="#DejaVuSans-61" transform="translate(435.701172 0)"/>
      <use xlink:href="#DejaVuSans-79" transform="translate(496.980469 0)"/>
      <use xlink:href="#DejaVuSans-5f" transform="translate(556.160156 0)"/>
      <use xlink:href="#DejaVuSans-73" transform="translate(606.160156 0)"/>
      <use xlink:href="#DejaVuSans-63" transform="translate(658.259766 0)"/>
      <use xlink:href="#DejaVuSans-61" transform="translate(713.240234 0)"/>
      <use xlink:href="#DejaVuSans-6c" transform="translate(774.519531 0)"/>
      <use xlink:href="#DejaVuSans-65" transform="translate(802.302734 0)"/>
      <use xlink:href="#DejaVuSans-64" transform="translate(863.826172 0)"/>
     </g>
    </g>
   </g>
  </g>
 </g>
 <defs>
  <clipPath id="p54fb5bff76">
   <rect x="26.925" y="7.2" width="669.6" height="665.28"/>
  </clipPath>
 </defs>
</svg>
