<?xml version="1.0" encoding="utf-8" standalone="no"?>
<!DOCTYPE svg PUBLIC "-//W3C//DTD SVG 1.1//EN"
  "http://www.w3.org/Graphics/SVG/1.1/DTD/svg11.dtd">
<svg xmlns:xlink="http://www.w3.org/1999/xlink" width="713.265625pt" height="363.718125pt" viewBox="0 0 713.265625 363.718125" xmlns="http://www.w3.org/2000/svg" version="1.1">
 <metadata>
  <rdf:RDF xmlns:dc="http://purl.org/dc/elements/1.1/" xmlns:cc="http://creativecommons.org/ns#" xmlns:rdf="http://www.w3.org/1999/02/22-rdf-syntax-ns#">
   <cc:Work>
    <dc:type rdf:resource="http://purl.org/dc/dcmitype/StillImage"/>
    <dc:date>2025-04-01T11:09:07.963072</dc:date>
    <dc:format>image/svg+xml</dc:format>
    <dc:creator>
     <cc:Agent>
      <dc:title>Matplotlib v3.10.1, https://matplotlib.org/</dc:title>
     </cc:Agent>
    </dc:creator>
   </cc:Work>
  </rdf:RDF>
 </metadata>
 <defs>
  <style type="text/css">*{stroke-linejoin: round; stroke-linecap: butt}</style>
 </defs>
 <g id="figure_1">
  <g id="patch_1">
   <path d="M 0 363.718125 
L 713.265625 363.718125 
L 713.265625 0 
L 0 0 
L 0 363.718125 
z
" style="fill: none"/>
  </g>
  <g id="axes_1">
   <g id="patch_2">
    <path d="M 36.465625 158.4 
L 706.065625 158.4 
L 706.065625 7.2 
L 36.465625 7.2 
L 36.465625 158.4 
z
" style="fill: none"/>
   </g>
   <g id="matplotlib.axis_1">
    <g id="xtick_1">
     <g id="line2d_1">
      <defs>
       <path id="m18a46aabbb" d="M 0 0 
L 0 3.5 
" style="stroke: #000000; stroke-width: 0.8"/>
      </defs>
      <g>
       <use xlink:href="#m18a46aabbb" x="65.708406" y="158.4" style="stroke: #000000; stroke-width: 0.8"/>
      </g>
     </g>
     <g id="text_1">
      <!-- −1.00 -->
      <g transform="translate(50.385749 172.998437) scale(0.1 -0.1)">
       <defs>
        <path id="DejaVuSans-2212" d="M 678 2272 
L 4684 2272 
L 4684 1741 
L 678 1741 
L 678 2272 
z
" transform="scale(0.015625)"/>
        <path id="DejaVuSans-31" d="M 794 531 
L 1825 531 
L 1825 4091 
L 703 3866 
L 703 4441 
L 1819 4666 
L 2450 4666 
L 2450 531 
L 3481 531 
L 3481 0 
L 794 0 
L 794 531 
z
" transform="scale(0.015625)"/>
        <path id="DejaVuSans-2e" d="M 684 794 
L 1344 794 
L 1344 0 
L 684 0 
L 684 794 
z
" transform="scale(0.015625)"/>
        <path id="DejaVuSans-30" d="M 2034 4250 
Q 1547 4250 1301 3770 
Q 1056 3291 1056 2328 
Q 1056 1369 1301 889 
Q 1547 409 2034 409 
Q 2525 409 2770 889 
Q 3016 1369 3016 2328 
Q 3016 3291 2770 3770 
Q 2525 4250 2034 4250 
z
M 2034 4750 
Q 2819 4750 3233 4129 
Q 3647 3509 3647 2328 
Q 3647 1150 3233 529 
Q 2819 -91 2034 -91 
Q 1250 -91 836 529 
Q 422 1150 422 2328 
Q 422 3509 836 4129 
Q 1250 4750 2034 4750 
z
" transform="scale(0.015625)"/>
       </defs>
       <use xlink:href="#DejaVuSans-2212"/>
       <use xlink:href="#DejaVuSans-31" transform="translate(83.789062 0)"/>
       <use xlink:href="#DejaVuSans-2e" transform="translate(147.412109 0)"/>
       <use xlink:href="#DejaVuSans-30" transform="translate(179.199219 0)"/>
       <use xlink:href="#DejaVuSans-30" transform="translate(242.822266 0)"/>
      </g>
     </g>
    </g>
    <g id="xtick_2">
     <g id="line2d_2">
      <g>
       <use xlink:href="#m18a46aabbb" x="142.097711" y="158.4" style="stroke: #000000; stroke-width: 0.8"/>
      </g>
     </g>
     <g id="text_2">
      <!-- −0.75 -->
      <g transform="translate(126.775054 172.998437) scale(0.1 -0.1)">
       <defs>
        <path id="DejaVuSans-37" d="M 525 4666 
L 3525 4666 
L 3525 4397 
L 1831 0 
L 1172 0 
L 2766 4134 
L 525 4134 
L 525 4666 
z
" transform="scale(0.015625)"/>
        <path id="DejaVuSans-35" d="M 691 4666 
L 3169 4666 
L 3169 4134 
L 1269 4134 
L 1269 2991 
Q 1406 3038 1543 3061 
Q 1681 3084 1819 3084 
Q 2600 3084 3056 2656 
Q 3513 2228 3513 1497 
Q 3513 744 3044 326 
Q 2575 -91 1722 -91 
Q 1428 -91 1123 -41 
Q 819 9 494 109 
L 494 744 
Q 775 591 1075 516 
Q 1375 441 1709 441 
Q 2250 441 2565 725 
Q 2881 1009 2881 1497 
Q 2881 1984 2565 2268 
Q 2250 2553 1709 2553 
Q 1456 2553 1204 2497 
Q 953 2441 691 2322 
L 691 4666 
z
" transform="scale(0.015625)"/>
       </defs>
       <use xlink:href="#DejaVuSans-2212"/>
       <use xlink:href="#DejaVuSans-30" transform="translate(83.789062 0)"/>
       <use xlink:href="#DejaVuSans-2e" transform="translate(147.412109 0)"/>
       <use xlink:href="#DejaVuSans-37" transform="translate(179.199219 0)"/>
       <use xlink:href="#DejaVuSans-35" transform="translate(242.822266 0)"/>
      </g>
     </g>
    </g>
    <g id="xtick_3">
     <g id="line2d_3">
      <g>
       <use xlink:href="#m18a46aabbb" x="218.487015" y="158.4" style="stroke: #000000; stroke-width: 0.8"/>
      </g>
     </g>
     <g id="text_3">
      <!-- −0.50 -->
      <g transform="translate(203.164359 172.998437) scale(0.1 -0.1)">
       <use xlink:href="#DejaVuSans-2212"/>
       <use xlink:href="#DejaVuSans-30" transform="translate(83.789062 0)"/>
       <use xlink:href="#DejaVuSans-2e" transform="translate(147.412109 0)"/>
       <use xlink:href="#DejaVuSans-35" transform="translate(179.199219 0)"/>
       <use xlink:href="#DejaVuSans-30" transform="translate(242.822266 0)"/>
      </g>
     </g>
    </g>
    <g id="xtick_4">
     <g id="line2d_4">
      <g>
       <use xlink:href="#m18a46aabbb" x="294.87632" y="158.4" style="stroke: #000000; stroke-width: 0.8"/>
      </g>
     </g>
     <g id="text_4">
      <!-- −0.25 -->
      <g transform="translate(279.553664 172.998437) scale(0.1 -0.1)">
       <defs>
        <path id="DejaVuSans-32" d="M 1228 531 
L 3431 531 
L 3431 0 
L 469 0 
L 469 531 
Q 828 903 1448 1529 
Q 2069 2156 2228 2338 
Q 2531 2678 2651 2914 
Q 2772 3150 2772 3378 
Q 2772 3750 2511 3984 
Q 2250 4219 1831 4219 
Q 1534 4219 1204 4116 
Q 875 4013 500 3803 
L 500 4441 
Q 881 4594 1212 4672 
Q 1544 4750 1819 4750 
Q 2544 4750 2975 4387 
Q 3406 4025 3406 3419 
Q 3406 3131 3298 2873 
Q 3191 2616 2906 2266 
Q 2828 2175 2409 1742 
Q 1991 1309 1228 531 
z
" transform="scale(0.015625)"/>
       </defs>
       <use xlink:href="#DejaVuSans-2212"/>
       <use xlink:href="#DejaVuSans-30" transform="translate(83.789062 0)"/>
       <use xlink:href="#DejaVuSans-2e" transform="translate(147.412109 0)"/>
       <use xlink:href="#DejaVuSans-32" transform="translate(179.199219 0)"/>
       <use xlink:href="#DejaVuSans-35" transform="translate(242.822266 0)"/>
      </g>
     </g>
    </g>
    <g id="xtick_5">
     <g id="line2d_5">
      <g>
       <use xlink:href="#m18a46aabbb" x="371.265625" y="158.4" style="stroke: #000000; stroke-width: 0.8"/>
      </g>
     </g>
     <g id="text_5">
      <!-- 0.00 -->
      <g transform="translate(360.132812 172.998437) scale(0.1 -0.1)">
       <use xlink:href="#DejaVuSans-30"/>
       <use xlink:href="#DejaVuSans-2e" transform="translate(63.623047 0)"/>
       <use xlink:href="#DejaVuSans-30" transform="translate(95.410156 0)"/>
       <use xlink:href="#DejaVuSans-30" transform="translate(159.033203 0)"/>
      </g>
     </g>
    </g>
    <g id="xtick_6">
     <g id="line2d_6">
      <g>
       <use xlink:href="#m18a46aabbb" x="447.65493" y="158.4" style="stroke: #000000; stroke-width: 0.8"/>
      </g>
     </g>
     <g id="text_6">
      <!-- 0.25 -->
      <g transform="translate(436.522117 172.998437) scale(0.1 -0.1)">
       <use xlink:href="#DejaVuSans-30"/>
       <use xlink:href="#DejaVuSans-2e" transform="translate(63.623047 0)"/>
       <use xlink:href="#DejaVuSans-32" transform="translate(95.410156 0)"/>
       <use xlink:href="#DejaVuSans-35" transform="translate(159.033203 0)"/>
      </g>
     </g>
    </g>
    <g id="xtick_7">
     <g id="line2d_7">
      <g>
       <use xlink:href="#m18a46aabbb" x="524.044235" y="158.4" style="stroke: #000000; stroke-width: 0.8"/>
      </g>
     </g>
     <g id="text_7">
      <!-- 0.50 -->
      <g transform="translate(512.911422 172.998437) scale(0.1 -0.1)">
       <use xlink:href="#DejaVuSans-30"/>
       <use xlink:href="#DejaVuSans-2e" transform="translate(63.623047 0)"/>
       <use xlink:href="#DejaVuSans-35" transform="translate(95.410156 0)"/>
       <use xlink:href="#DejaVuSans-30" transform="translate(159.033203 0)"/>
      </g>
     </g>
    </g>
    <g id="xtick_8">
     <g id="line2d_8">
      <g>
       <use xlink:href="#m18a46aabbb" x="600.433539" y="158.4" style="stroke: #000000; stroke-width: 0.8"/>
      </g>
     </g>
     <g id="text_8">
      <!-- 0.75 -->
      <g transform="translate(589.300727 172.998437) scale(0.1 -0.1)">
       <use xlink:href="#DejaVuSans-30"/>
       <use xlink:href="#DejaVuSans-2e" transform="translate(63.623047 0)"/>
       <use xlink:href="#DejaVuSans-37" transform="translate(95.410156 0)"/>
       <use xlink:href="#DejaVuSans-35" transform="translate(159.033203 0)"/>
      </g>
     </g>
    </g>
    <g id="xtick_9">
     <g id="line2d_9">
      <g>
       <use xlink:href="#m18a46aabbb" x="676.822844" y="158.4" style="stroke: #000000; stroke-width: 0.8"/>
      </g>
     </g>
     <g id="text_9">
      <!-- 1.00 -->
      <g transform="translate(665.690032 172.998437) scale(0.1 -0.1)">
       <use xlink:href="#DejaVuSans-31"/>
       <use xlink:href="#DejaVuSans-2e" transform="translate(63.623047 0)"/>
       <use xlink:href="#DejaVuSans-30" transform="translate(95.410156 0)"/>
       <use xlink:href="#DejaVuSans-30" transform="translate(159.033203 0)"/>
      </g>
     </g>
    </g>
   </g>
   <g id="matplotlib.axis_2">
    <g id="ytick_1">
     <g id="line2d_10">
      <defs>
       <path id="m9674497c78" d="M 0 0 
L -3.5 0 
" style="stroke: #000000; stroke-width: 0.8"/>
      </defs>
      <g>
       <use xlink:href="#m9674497c78" x="36.465625" y="151.527273" style="stroke: #000000; stroke-width: 0.8"/>
      </g>
     </g>
     <g id="text_10">
      <!-- 0 -->
      <g transform="translate(23.103125 155.326491) scale(0.1 -0.1)">
       <use xlink:href="#DejaVuSans-30"/>
      </g>
     </g>
    </g>
    <g id="ytick_2">
     <g id="line2d_11">
      <g>
       <use xlink:href="#m9674497c78" x="36.465625" y="111.732871" style="stroke: #000000; stroke-width: 0.8"/>
      </g>
     </g>
     <g id="text_11">
      <!-- 1 -->
      <g transform="translate(23.103125 115.53209) scale(0.1 -0.1)">
       <use xlink:href="#DejaVuSans-31"/>
      </g>
     </g>
    </g>
    <g id="ytick_3">
     <g id="line2d_12">
      <g>
       <use xlink:href="#m9674497c78" x="36.465625" y="71.938469" style="stroke: #000000; stroke-width: 0.8"/>
      </g>
     </g>
     <g id="text_12">
      <!-- 2 -->
      <g transform="translate(23.103125 75.737688) scale(0.1 -0.1)">
       <use xlink:href="#DejaVuSans-32"/>
      </g>
     </g>
    </g>
    <g id="ytick_4">
     <g id="line2d_13">
      <g>
       <use xlink:href="#m9674497c78" x="36.465625" y="32.144067" style="stroke: #000000; stroke-width: 0.8"/>
      </g>
     </g>
     <g id="text_13">
      <!-- 3 -->
      <g transform="translate(23.103125 35.943286) scale(0.1 -0.1)">
       <defs>
        <path id="DejaVuSans-33" d="M 2597 2516 
Q 3050 2419 3304 2112 
Q 3559 1806 3559 1356 
Q 3559 666 3084 287 
Q 2609 -91 1734 -91 
Q 1441 -91 1130 -33 
Q 819 25 488 141 
L 488 750 
Q 750 597 1062 519 
Q 1375 441 1716 441 
Q 2309 441 2620 675 
Q 2931 909 2931 1356 
Q 2931 1769 2642 2001 
Q 2353 2234 1838 2234 
L 1294 2234 
L 1294 2753 
L 1863 2753 
Q 2328 2753 2575 2939 
Q 2822 3125 2822 3475 
Q 2822 3834 2567 4026 
Q 2313 4219 1838 4219 
Q 1578 4219 1281 4162 
Q 984 4106 628 3988 
L 628 4550 
Q 988 4650 1302 4700 
Q 1616 4750 1894 4750 
Q 2613 4750 3031 4423 
Q 3450 4097 3450 3541 
Q 3450 3153 3228 2886 
Q 3006 2619 2597 2516 
z
" transform="scale(0.015625)"/>
       </defs>
       <use xlink:href="#DejaVuSans-33"/>
      </g>
     </g>
    </g>
   </g>
   <g id="line2d_14">
    <path d="M 66.901989 151.152737 
L 69.289154 151.527273 
L 74.063486 150.778202 
L 76.450652 151.527273 
L 81.224983 151.527273 
L 83.612149 151.152737 
L 85.999315 151.527273 
L 90.773646 151.527273 
L 93.160812 151.152737 
L 95.547978 151.152737 
L 97.935144 150.778202 
L 100.322309 150.029131 
L 102.709475 151.527273 
L 105.096641 151.152737 
L 107.483807 151.527273 
L 109.870973 150.403666 
L 112.258138 150.403666 
L 114.645304 151.152737 
L 117.03247 151.527273 
L 119.419636 151.152737 
L 124.193967 149.654595 
L 126.581133 150.403666 
L 128.968299 150.403666 
L 131.355465 150.778202 
L 136.129796 150.778202 
L 138.516962 150.403666 
L 140.904128 150.403666 
L 143.291293 150.778202 
L 145.678459 149.654595 
L 148.065625 149.280059 
L 150.452791 150.029131 
L 152.839957 148.905524 
L 155.227122 150.403666 
L 157.614288 148.905524 
L 160.001454 149.280059 
L 162.38862 149.280059 
L 167.162951 148.530988 
L 169.550117 149.280059 
L 171.937283 148.156453 
L 174.324449 148.530988 
L 176.711614 148.530988 
L 179.09878 147.781917 
L 181.485946 149.280059 
L 183.873112 148.156453 
L 186.260277 148.905524 
L 188.647443 148.905524 
L 191.034609 146.283775 
L 193.421775 148.156453 
L 195.808941 147.407382 
L 198.196106 150.403666 
L 200.583272 144.036562 
L 202.970438 146.283775 
L 205.357604 145.160168 
L 207.744769 145.534704 
L 210.131935 144.785633 
L 212.519101 146.658311 
L 214.906267 145.90924 
L 217.293432 143.662026 
L 219.680598 145.534704 
L 222.067764 144.036562 
L 226.842096 145.534704 
L 229.229261 142.912955 
L 231.616427 144.411097 
L 236.390759 145.160168 
L 238.777924 143.287491 
L 241.16509 142.163884 
L 243.552256 143.287491 
L 245.939422 142.53842 
L 248.326588 138.793064 
L 250.713753 142.912955 
L 253.100919 143.287491 
L 255.488085 141.040277 
L 257.875251 142.912955 
L 260.262416 138.793064 
L 262.649582 140.291206 
L 265.036748 133.924102 
L 267.423914 139.1676 
L 269.81108 137.669458 
L 272.198245 138.793064 
L 274.585411 132.800495 
L 276.972577 133.175031 
L 279.359743 133.175031 
L 281.746908 134.673173 
L 284.134074 133.549567 
L 286.52124 125.309784 
L 288.908406 134.298638 
L 291.295572 133.549567 
L 293.682737 123.437107 
L 296.069903 132.42596 
L 298.457069 126.807927 
L 300.844235 125.68432 
L 303.2314 120.066287 
L 305.618566 121.938965 
L 308.005732 121.938965 
L 310.392898 118.568145 
L 312.780064 127.556998 
L 315.167229 115.57186 
L 317.554395 119.317216 
L 319.941561 118.193609 
L 322.328727 121.938965 
L 324.715892 113.324647 
L 327.103058 112.575576 
L 329.490224 109.579292 
L 331.87739 114.448254 
L 334.264555 96.470547 
L 336.651721 106.208472 
L 339.038887 101.714045 
L 341.426053 103.586723 
L 343.813219 100.215903 
L 346.200384 103.212187 
L 348.58755 81.489126 
L 350.974716 90.852514 
L 353.361882 86.732623 
L 355.749047 93.848799 
L 358.136213 83.736339 
L 360.523379 87.481694 
L 362.910545 78.867377 
L 365.297711 82.987268 
L 367.684876 60.140599 
L 370.072042 45.908249 
L 372.459208 51.151746 
L 374.846374 51.900817 
L 377.233539 48.155462 
L 379.620705 33.548576 
L 382.007871 22.687045 
L 384.395037 24.559723 
L 386.782203 14.072727 
L 389.169368 37.668467 
L 393.9437 68.754917 
L 396.330866 68.005846 
L 398.718031 65.384097 
L 401.105197 72.125737 
L 403.492363 81.863661 
L 405.879529 81.863661 
L 408.266695 83.361803 
L 410.65386 83.736339 
L 413.041026 87.85623 
L 415.428192 96.096012 
L 417.815358 99.841367 
L 420.202523 103.212187 
L 422.589689 102.088581 
L 424.976855 98.343225 
L 427.364021 103.586723 
L 429.751186 104.710329 
L 432.138352 111.077434 
L 434.525518 106.957543 
L 436.912684 106.957543 
L 439.29985 113.324647 
L 441.687015 114.448254 
L 444.074181 130.178747 
L 446.461347 123.062571 
L 448.848513 123.062571 
L 451.235678 121.564429 
L 453.622844 126.433391 
L 456.01001 120.066287 
L 458.397176 126.433391 
L 460.784342 124.935249 
L 463.171507 127.931533 
L 465.558673 130.553282 
L 467.945839 127.931533 
L 470.333005 124.186178 
L 472.72017 128.306069 
L 475.107336 129.804211 
L 477.494502 127.931533 
L 479.881668 137.294922 
L 482.268834 136.920386 
L 484.655999 131.302353 
L 487.043165 133.549567 
L 489.430331 133.549567 
L 494.204662 135.79678 
L 496.591828 141.789349 
L 498.978994 138.043993 
L 501.36616 138.418529 
L 503.753326 138.043993 
L 506.140491 135.422244 
L 508.527657 142.163884 
L 510.914823 142.912955 
L 513.301989 143.287491 
L 515.689154 141.040277 
L 518.07632 143.662026 
L 520.463486 145.160168 
L 522.850652 144.785633 
L 525.237818 141.789349 
L 527.624983 147.407382 
L 530.012149 142.912955 
L 532.399315 143.287491 
L 534.786481 144.411097 
L 537.173646 143.287491 
L 539.560812 146.658311 
L 541.947978 145.160168 
L 544.335144 144.785633 
L 546.722309 148.530988 
L 549.109475 146.658311 
L 551.496641 146.283775 
L 553.883807 147.032846 
L 556.270973 144.411097 
L 558.658138 146.283775 
L 561.045304 147.781917 
L 563.43247 148.156453 
L 565.819636 149.280059 
L 568.206801 146.283775 
L 570.593967 149.280059 
L 572.981133 150.029131 
L 575.368299 148.156453 
L 577.755465 147.407382 
L 580.14263 149.654595 
L 582.529796 148.905524 
L 584.916962 148.905524 
L 587.304128 149.280059 
L 589.691293 148.530988 
L 592.078459 150.403666 
L 594.465625 150.403666 
L 596.852791 149.280059 
L 599.239957 150.029131 
L 601.627122 148.905524 
L 604.014288 150.778202 
L 606.401454 148.905524 
L 608.78862 150.029131 
L 611.175785 150.029131 
L 613.562951 149.280059 
L 615.950117 149.654595 
L 618.337283 151.152737 
L 620.724449 150.778202 
L 623.111614 151.152737 
L 625.49878 151.152737 
L 627.885946 151.527273 
L 630.273112 150.403666 
L 632.660277 150.778202 
L 635.047443 150.403666 
L 642.208941 151.527273 
L 644.596106 151.527273 
L 646.983272 150.778202 
L 649.370438 150.778202 
L 651.757604 151.152737 
L 654.144769 151.152737 
L 656.531935 151.527273 
L 658.919101 151.527273 
L 663.693432 150.778202 
L 666.080598 151.527273 
L 670.85493 151.527273 
L 673.242096 151.152737 
L 675.629261 151.152737 
L 675.629261 151.152737 
" clip-path="url(#pf557f0e559)" style="fill: none; stroke: #000000; stroke-width: 1.5; stroke-linecap: square"/>
   </g>
   <g id="patch_3">
    <path d="M 36.465625 158.4 
L 36.465625 7.2 
" style="fill: none; stroke: #000000; stroke-width: 0.8; stroke-linejoin: miter; stroke-linecap: square"/>
   </g>
   <g id="patch_4">
    <path d="M 706.065625 158.4 
L 706.065625 7.2 
" style="fill: none; stroke: #000000; stroke-width: 0.8; stroke-linejoin: miter; stroke-linecap: square"/>
   </g>
   <g id="patch_5">
    <path d="M 36.465625 158.4 
L 706.065625 158.4 
" style="fill: none; stroke: #000000; stroke-width: 0.8; stroke-linejoin: miter; stroke-linecap: square"/>
   </g>
   <g id="patch_6">
    <path d="M 36.465625 7.2 
L 706.065625 7.2 
" style="fill: none; stroke: #000000; stroke-width: 0.8; stroke-linejoin: miter; stroke-linecap: square"/>
   </g>
  </g>
  <g id="axes_2">
   <g id="patch_7">
    <path d="M 36.465625 339.84 
L 706.065625 339.84 
L 706.065625 188.64 
L 36.465625 188.64 
L 36.465625 339.84 
z
" style="fill: none"/>
   </g>
   <g id="matplotlib.axis_3">
    <g id="xtick_10">
     <g id="line2d_15">
      <g>
       <use xlink:href="#m18a46aabbb" x="116.634609" y="339.84" style="stroke: #000000; stroke-width: 0.8"/>
      </g>
     </g>
     <g id="text_14">
      <!-- 20 -->
      <g transform="translate(110.272109 354.438437) scale(0.1 -0.1)">
       <use xlink:href="#DejaVuSans-32"/>
       <use xlink:href="#DejaVuSans-30" transform="translate(63.623047 0)"/>
      </g>
     </g>
    </g>
    <g id="xtick_11">
     <g id="line2d_16">
      <g>
       <use xlink:href="#m18a46aabbb" x="218.487015" y="339.84" style="stroke: #000000; stroke-width: 0.8"/>
      </g>
     </g>
     <g id="text_15">
      <!-- 40 -->
      <g transform="translate(212.124515 354.438437) scale(0.1 -0.1)">
       <defs>
        <path id="DejaVuSans-34" d="M 2419 4116 
L 825 1625 
L 2419 1625 
L 2419 4116 
z
M 2253 4666 
L 3047 4666 
L 3047 1625 
L 3713 1625 
L 3713 1100 
L 3047 1100 
L 3047 0 
L 2419 0 
L 2419 1100 
L 313 1100 
L 313 1709 
L 2253 4666 
z
" transform="scale(0.015625)"/>
       </defs>
       <use xlink:href="#DejaVuSans-34"/>
       <use xlink:href="#DejaVuSans-30" transform="translate(63.623047 0)"/>
      </g>
     </g>
    </g>
    <g id="xtick_12">
     <g id="line2d_17">
      <g>
       <use xlink:href="#m18a46aabbb" x="320.339422" y="339.84" style="stroke: #000000; stroke-width: 0.8"/>
      </g>
     </g>
     <g id="text_16">
      <!-- 60 -->
      <g transform="translate(313.976922 354.438437) scale(0.1 -0.1)">
       <defs>
        <path id="DejaVuSans-36" d="M 2113 2584 
Q 1688 2584 1439 2293 
Q 1191 2003 1191 1497 
Q 1191 994 1439 701 
Q 1688 409 2113 409 
Q 2538 409 2786 701 
Q 3034 994 3034 1497 
Q 3034 2003 2786 2293 
Q 2538 2584 2113 2584 
z
M 3366 4563 
L 3366 3988 
Q 3128 4100 2886 4159 
Q 2644 4219 2406 4219 
Q 1781 4219 1451 3797 
Q 1122 3375 1075 2522 
Q 1259 2794 1537 2939 
Q 1816 3084 2150 3084 
Q 2853 3084 3261 2657 
Q 3669 2231 3669 1497 
Q 3669 778 3244 343 
Q 2819 -91 2113 -91 
Q 1303 -91 875 529 
Q 447 1150 447 2328 
Q 447 3434 972 4092 
Q 1497 4750 2381 4750 
Q 2619 4750 2861 4703 
Q 3103 4656 3366 4563 
z
" transform="scale(0.015625)"/>
       </defs>
       <use xlink:href="#DejaVuSans-36"/>
       <use xlink:href="#DejaVuSans-30" transform="translate(63.623047 0)"/>
      </g>
     </g>
    </g>
    <g id="xtick_13">
     <g id="line2d_18">
      <g>
       <use xlink:href="#m18a46aabbb" x="422.191828" y="339.84" style="stroke: #000000; stroke-width: 0.8"/>
      </g>
     </g>
     <g id="text_17">
      <!-- 80 -->
      <g transform="translate(415.829328 354.438437) scale(0.1 -0.1)">
       <defs>
        <path id="DejaVuSans-38" d="M 2034 2216 
Q 1584 2216 1326 1975 
Q 1069 1734 1069 1313 
Q 1069 891 1326 650 
Q 1584 409 2034 409 
Q 2484 409 2743 651 
Q 3003 894 3003 1313 
Q 3003 1734 2745 1975 
Q 2488 2216 2034 2216 
z
M 1403 2484 
Q 997 2584 770 2862 
Q 544 3141 544 3541 
Q 544 4100 942 4425 
Q 1341 4750 2034 4750 
Q 2731 4750 3128 4425 
Q 3525 4100 3525 3541 
Q 3525 3141 3298 2862 
Q 3072 2584 2669 2484 
Q 3125 2378 3379 2068 
Q 3634 1759 3634 1313 
Q 3634 634 3220 271 
Q 2806 -91 2034 -91 
Q 1263 -91 848 271 
Q 434 634 434 1313 
Q 434 1759 690 2068 
Q 947 2378 1403 2484 
z
M 1172 3481 
Q 1172 3119 1398 2916 
Q 1625 2713 2034 2713 
Q 2441 2713 2670 2916 
Q 2900 3119 2900 3481 
Q 2900 3844 2670 4047 
Q 2441 4250 2034 4250 
Q 1625 4250 1398 4047 
Q 1172 3844 1172 3481 
z
" transform="scale(0.015625)"/>
       </defs>
       <use xlink:href="#DejaVuSans-38"/>
       <use xlink:href="#DejaVuSans-30" transform="translate(63.623047 0)"/>
      </g>
     </g>
    </g>
    <g id="xtick_14">
     <g id="line2d_19">
      <g>
       <use xlink:href="#m18a46aabbb" x="524.044235" y="339.84" style="stroke: #000000; stroke-width: 0.8"/>
      </g>
     </g>
     <g id="text_18">
      <!-- 100 -->
      <g transform="translate(514.500485 354.438437) scale(0.1 -0.1)">
       <use xlink:href="#DejaVuSans-31"/>
       <use xlink:href="#DejaVuSans-30" transform="translate(63.623047 0)"/>
       <use xlink:href="#DejaVuSans-30" transform="translate(127.246094 0)"/>
      </g>
     </g>
    </g>
    <g id="xtick_15">
     <g id="line2d_20">
      <g>
       <use xlink:href="#m18a46aabbb" x="625.896641" y="339.84" style="stroke: #000000; stroke-width: 0.8"/>
      </g>
     </g>
     <g id="text_19">
      <!-- 120 -->
      <g transform="translate(616.352891 354.438437) scale(0.1 -0.1)">
       <use xlink:href="#DejaVuSans-31"/>
       <use xlink:href="#DejaVuSans-32" transform="translate(63.623047 0)"/>
       <use xlink:href="#DejaVuSans-30" transform="translate(127.246094 0)"/>
      </g>
     </g>
    </g>
   </g>
   <g id="matplotlib.axis_4">
    <g id="ytick_5">
     <g id="line2d_21">
      <g>
       <use xlink:href="#m9674497c78" x="36.465625" y="332.967273" style="stroke: #000000; stroke-width: 0.8"/>
      </g>
     </g>
     <g id="text_20">
      <!-- 0.00 -->
      <g transform="translate(7.2 336.766491) scale(0.1 -0.1)">
       <use xlink:href="#DejaVuSans-30"/>
       <use xlink:href="#DejaVuSans-2e" transform="translate(63.623047 0)"/>
       <use xlink:href="#DejaVuSans-30" transform="translate(95.410156 0)"/>
       <use xlink:href="#DejaVuSans-30" transform="translate(159.033203 0)"/>
      </g>
     </g>
    </g>
    <g id="ytick_6">
     <g id="line2d_22">
      <g>
       <use xlink:href="#m9674497c78" x="36.465625" y="309.090632" style="stroke: #000000; stroke-width: 0.8"/>
      </g>
     </g>
     <g id="text_21">
      <!-- 0.01 -->
      <g transform="translate(7.2 312.88985) scale(0.1 -0.1)">
       <use xlink:href="#DejaVuSans-30"/>
       <use xlink:href="#DejaVuSans-2e" transform="translate(63.623047 0)"/>
       <use xlink:href="#DejaVuSans-30" transform="translate(95.410156 0)"/>
       <use xlink:href="#DejaVuSans-31" transform="translate(159.033203 0)"/>
      </g>
     </g>
    </g>
    <g id="ytick_7">
     <g id="line2d_23">
      <g>
       <use xlink:href="#m9674497c78" x="36.465625" y="285.213991" style="stroke: #000000; stroke-width: 0.8"/>
      </g>
     </g>
     <g id="text_22">
      <!-- 0.02 -->
      <g transform="translate(7.2 289.013209) scale(0.1 -0.1)">
       <use xlink:href="#DejaVuSans-30"/>
       <use xlink:href="#DejaVuSans-2e" transform="translate(63.623047 0)"/>
       <use xlink:href="#DejaVuSans-30" transform="translate(95.410156 0)"/>
       <use xlink:href="#DejaVuSans-32" transform="translate(159.033203 0)"/>
      </g>
     </g>
    </g>
    <g id="ytick_8">
     <g id="line2d_24">
      <g>
       <use xlink:href="#m9674497c78" x="36.465625" y="261.33735" style="stroke: #000000; stroke-width: 0.8"/>
      </g>
     </g>
     <g id="text_23">
      <!-- 0.03 -->
      <g transform="translate(7.2 265.136568) scale(0.1 -0.1)">
       <use xlink:href="#DejaVuSans-30"/>
       <use xlink:href="#DejaVuSans-2e" transform="translate(63.623047 0)"/>
       <use xlink:href="#DejaVuSans-30" transform="translate(95.410156 0)"/>
       <use xlink:href="#DejaVuSans-33" transform="translate(159.033203 0)"/>
      </g>
     </g>
    </g>
    <g id="ytick_9">
     <g id="line2d_25">
      <g>
       <use xlink:href="#m9674497c78" x="36.465625" y="237.460708" style="stroke: #000000; stroke-width: 0.8"/>
      </g>
     </g>
     <g id="text_24">
      <!-- 0.04 -->
      <g transform="translate(7.2 241.259927) scale(0.1 -0.1)">
       <use xlink:href="#DejaVuSans-30"/>
       <use xlink:href="#DejaVuSans-2e" transform="translate(63.623047 0)"/>
       <use xlink:href="#DejaVuSans-30" transform="translate(95.410156 0)"/>
       <use xlink:href="#DejaVuSans-34" transform="translate(159.033203 0)"/>
      </g>
     </g>
    </g>
    <g id="ytick_10">
     <g id="line2d_26">
      <g>
       <use xlink:href="#m9674497c78" x="36.465625" y="213.584067" style="stroke: #000000; stroke-width: 0.8"/>
      </g>
     </g>
     <g id="text_25">
      <!-- 0.05 -->
      <g transform="translate(7.2 217.383286) scale(0.1 -0.1)">
       <use xlink:href="#DejaVuSans-30"/>
       <use xlink:href="#DejaVuSans-2e" transform="translate(63.623047 0)"/>
       <use xlink:href="#DejaVuSans-30" transform="translate(95.410156 0)"/>
       <use xlink:href="#DejaVuSans-35" transform="translate(159.033203 0)"/>
      </g>
     </g>
    </g>
    <g id="ytick_11">
     <g id="line2d_27">
      <g>
       <use xlink:href="#m9674497c78" x="36.465625" y="189.707426" style="stroke: #000000; stroke-width: 0.8"/>
      </g>
     </g>
     <g id="text_26">
      <!-- 0.06 -->
      <g transform="translate(7.2 193.506645) scale(0.1 -0.1)">
       <use xlink:href="#DejaVuSans-30"/>
       <use xlink:href="#DejaVuSans-2e" transform="translate(63.623047 0)"/>
       <use xlink:href="#DejaVuSans-30" transform="translate(95.410156 0)"/>
       <use xlink:href="#DejaVuSans-36" transform="translate(159.033203 0)"/>
      </g>
     </g>
    </g>
   </g>
   <g id="line2d_28">
    <path d="M 66.901989 332.592737 
L 69.289154 332.967273 
L 74.063486 332.218202 
L 76.450652 332.967273 
L 81.224983 332.967273 
L 83.612149 332.592737 
L 85.999315 332.967273 
L 90.773646 332.967273 
L 93.160812 332.592737 
L 95.547978 332.592737 
L 97.935144 332.218202 
L 100.322309 331.469131 
L 102.709475 332.967273 
L 105.096641 332.592737 
L 107.483807 332.967273 
L 109.870973 331.843666 
L 112.258138 331.843666 
L 114.645304 332.592737 
L 117.03247 332.967273 
L 119.419636 332.592737 
L 124.193967 331.094595 
L 126.581133 331.843666 
L 128.968299 331.843666 
L 131.355465 332.218202 
L 136.129796 332.218202 
L 138.516962 331.843666 
L 140.904128 331.843666 
L 143.291293 332.218202 
L 145.678459 331.094595 
L 148.065625 330.720059 
L 150.452791 331.469131 
L 152.839957 330.345524 
L 155.227122 331.843666 
L 157.614288 330.345524 
L 160.001454 330.720059 
L 162.38862 330.720059 
L 167.162951 329.970988 
L 169.550117 330.720059 
L 171.937283 329.596453 
L 174.324449 329.970988 
L 176.711614 329.970988 
L 179.09878 329.221917 
L 181.485946 330.720059 
L 183.873112 329.596453 
L 186.260277 330.345524 
L 188.647443 330.345524 
L 191.034609 327.723775 
L 193.421775 329.596453 
L 195.808941 328.847382 
L 198.196106 331.843666 
L 200.583272 325.476562 
L 202.970438 327.723775 
L 205.357604 326.600168 
L 207.744769 326.974704 
L 210.131935 326.225633 
L 212.519101 328.098311 
L 214.906267 327.34924 
L 217.293432 325.102026 
L 219.680598 326.974704 
L 222.067764 325.476562 
L 226.842096 326.974704 
L 229.229261 324.352955 
L 231.616427 325.851097 
L 236.390759 326.600168 
L 238.777924 324.727491 
L 241.16509 323.603884 
L 243.552256 324.727491 
L 245.939422 323.97842 
L 248.326588 320.233064 
L 250.713753 324.352955 
L 253.100919 324.727491 
L 255.488085 322.480277 
L 257.875251 324.352955 
L 260.262416 320.233064 
L 262.649582 321.731206 
L 265.036748 315.364102 
L 267.423914 320.6076 
L 269.81108 319.109458 
L 272.198245 320.233064 
L 274.585411 314.240495 
L 276.972577 314.615031 
L 279.359743 314.615031 
L 281.746908 316.113173 
L 284.134074 314.989567 
L 286.52124 306.749784 
L 288.908406 315.738638 
L 291.295572 314.989567 
L 293.682737 304.877107 
L 296.069903 313.86596 
L 298.457069 308.247927 
L 300.844235 307.12432 
L 303.2314 301.506287 
L 305.618566 303.378965 
L 308.005732 303.378965 
L 310.392898 300.008145 
L 312.780064 308.996998 
L 315.167229 297.01186 
L 317.554395 300.757216 
L 319.941561 299.633609 
L 322.328727 303.378965 
L 324.715892 294.764647 
L 327.103058 294.015576 
L 329.490224 291.019292 
L 331.87739 295.888254 
L 334.264555 277.910547 
L 336.651721 287.648472 
L 339.038887 283.154045 
L 341.426053 285.026723 
L 343.813219 281.655903 
L 346.200384 284.652187 
L 348.58755 262.929126 
L 350.974716 272.292514 
L 353.361882 268.172623 
L 355.749047 275.288799 
L 358.136213 265.176339 
L 360.523379 268.921694 
L 362.910545 260.307377 
L 365.297711 264.427268 
L 367.684876 241.580599 
L 370.072042 227.348249 
L 372.459208 232.591746 
L 374.846374 233.340817 
L 377.233539 229.595462 
L 379.620705 214.988576 
L 382.007871 204.127045 
L 384.395037 205.999723 
L 386.782203 195.512727 
L 389.169368 219.108467 
L 393.9437 250.194917 
L 396.330866 249.445846 
L 398.718031 246.824097 
L 401.105197 253.565737 
L 403.492363 263.303661 
L 405.879529 263.303661 
L 408.266695 264.801803 
L 410.65386 265.176339 
L 413.041026 269.29623 
L 415.428192 277.536012 
L 417.815358 281.281367 
L 420.202523 284.652187 
L 422.589689 283.528581 
L 424.976855 279.783225 
L 427.364021 285.026723 
L 429.751186 286.150329 
L 432.138352 292.517434 
L 434.525518 288.397543 
L 436.912684 288.397543 
L 439.29985 294.764647 
L 441.687015 295.888254 
L 444.074181 311.618747 
L 446.461347 304.502571 
L 448.848513 304.502571 
L 451.235678 303.004429 
L 453.622844 307.873391 
L 456.01001 301.506287 
L 458.397176 307.873391 
L 460.784342 306.375249 
L 463.171507 309.371533 
L 465.558673 311.993282 
L 467.945839 309.371533 
L 470.333005 305.626178 
L 472.72017 309.746069 
L 475.107336 311.244211 
L 477.494502 309.371533 
L 479.881668 318.734922 
L 482.268834 318.360386 
L 484.655999 312.742353 
L 487.043165 314.989567 
L 489.430331 314.989567 
L 494.204662 317.23678 
L 496.591828 323.229349 
L 498.978994 319.483993 
L 501.36616 319.858529 
L 503.753326 319.483993 
L 506.140491 316.862244 
L 508.527657 323.603884 
L 510.914823 324.352955 
L 513.301989 324.727491 
L 515.689154 322.480277 
L 518.07632 325.102026 
L 520.463486 326.600168 
L 522.850652 326.225633 
L 525.237818 323.229349 
L 527.624983 328.847382 
L 530.012149 324.352955 
L 532.399315 324.727491 
L 534.786481 325.851097 
L 537.173646 324.727491 
L 539.560812 328.098311 
L 541.947978 326.600168 
L 544.335144 326.225633 
L 546.722309 329.970988 
L 549.109475 328.098311 
L 551.496641 327.723775 
L 553.883807 328.472846 
L 556.270973 325.851097 
L 558.658138 327.723775 
L 561.045304 329.221917 
L 563.43247 329.596453 
L 565.819636 330.720059 
L 568.206801 327.723775 
L 570.593967 330.720059 
L 572.981133 331.469131 
L 575.368299 329.596453 
L 577.755465 328.847382 
L 580.14263 331.094595 
L 582.529796 330.345524 
L 584.916962 330.345524 
L 587.304128 330.720059 
L 589.691293 329.970988 
L 592.078459 331.843666 
L 594.465625 331.843666 
L 596.852791 330.720059 
L 599.239957 331.469131 
L 601.627122 330.345524 
L 604.014288 332.218202 
L 606.401454 330.345524 
L 608.78862 331.469131 
L 611.175785 331.469131 
L 613.562951 330.720059 
L 615.950117 331.094595 
L 618.337283 332.592737 
L 620.724449 332.218202 
L 623.111614 332.592737 
L 625.49878 332.592737 
L 627.885946 332.967273 
L 630.273112 331.843666 
L 632.660277 332.218202 
L 635.047443 331.843666 
L 642.208941 332.967273 
L 644.596106 332.967273 
L 646.983272 332.218202 
L 649.370438 332.218202 
L 651.757604 332.592737 
L 654.144769 332.592737 
L 656.531935 332.967273 
L 658.919101 332.967273 
L 663.693432 332.218202 
L 666.080598 332.967273 
L 670.85493 332.967273 
L 673.242096 332.592737 
L 675.629261 332.592737 
L 675.629261 332.592737 
" clip-path="url(#p4622f646c6)" style="fill: none; stroke: #000000; stroke-width: 1.5; stroke-linecap: square"/>
   </g>
   <g id="patch_8">
    <path d="M 36.465625 339.84 
L 36.465625 188.64 
" style="fill: none; stroke: #000000; stroke-width: 0.8; stroke-linejoin: miter; stroke-linecap: square"/>
   </g>
   <g id="patch_9">
    <path d="M 706.065625 339.84 
L 706.065625 188.64 
" style="fill: none; stroke: #000000; stroke-width: 0.8; stroke-linejoin: miter; stroke-linecap: square"/>
   </g>
   <g id="patch_10">
    <path d="M 36.465625 339.84 
L 706.065625 339.84 
" style="fill: none; stroke: #000000; stroke-width: 0.8; stroke-linejoin: miter; stroke-linecap: square"/>
   </g>
   <g id="patch_11">
    <path d="M 36.465625 188.64 
L 706.065625 188.64 
" style="fill: none; stroke: #000000; stroke-width: 0.8; stroke-linejoin: miter; stroke-linecap: square"/>
   </g>
  </g>
 </g>
 <defs>
  <clipPath id="pf557f0e559">
   <rect x="36.465625" y="7.2" width="669.6" height="151.2"/>
  </clipPath>
  <clipPath id="p4622f646c6">
   <rect x="36.465625" y="188.64" width="669.6" height="151.2"/>
  </clipPath>
 </defs>
</svg>
