<?xml version="1.0" encoding="utf-8" standalone="no"?>
<!DOCTYPE svg PUBLIC "-//W3C//DTD SVG 1.1//EN"
  "http://www.w3.org/Graphics/SVG/1.1/DTD/svg11.dtd">
<svg xmlns:xlink="http://www.w3.org/1999/xlink" width="713.265625pt" height="365.169006pt" viewBox="0 0 713.265625 365.169006" xmlns="http://www.w3.org/2000/svg" version="1.1">
 <metadata>
  <rdf:RDF xmlns:dc="http://purl.org/dc/elements/1.1/" xmlns:cc="http://creativecommons.org/ns#" xmlns:rdf="http://www.w3.org/1999/02/22-rdf-syntax-ns#">
   <cc:Work>
    <dc:type rdf:resource="http://purl.org/dc/dcmitype/StillImage"/>
    <dc:date>2025-03-31T21:28:44.934947</dc:date>
    <dc:format>image/svg+xml</dc:format>
    <dc:creator>
     <cc:Agent>
      <dc:title>Matplotlib v3.10.1, https://matplotlib.org/</dc:title>
     </cc:Agent>
    </dc:creator>
   </cc:Work>
  </rdf:RDF>
 </metadata>
 <defs>
  <style type="text/css">*{stroke-linejoin: round; stroke-linecap: butt}</style>
 </defs>
 <g id="figure_1">
  <g id="patch_1">
   <path d="M 0 365.169006 
L 713.265625 365.169006 
L 713.265625 0 
L 0 0 
L 0 365.169006 
z
" style="fill: none"/>
  </g>
  <g id="axes_1">
   <g id="patch_2">
    <path d="M 36.465625 341.290881 
L 706.065625 341.290881 
L 706.065625 8.650881 
L 36.465625 8.650881 
L 36.465625 341.290881 
z
" style="fill: none"/>
   </g>
   <g id="matplotlib.axis_1">
    <g id="xtick_1">
     <g id="line2d_1">
      <defs>
       <path id="meef01e7dda" d="M 0 0 
L 0 3.5 
" style="stroke: #000000; stroke-width: 0.8"/>
      </defs>
      <g>
       <use xlink:href="#meef01e7dda" x="116.634609" y="341.290881" style="stroke: #000000; stroke-width: 0.8"/>
      </g>
     </g>
     <g id="text_1">
      <!-- 20 -->
      <g transform="translate(110.272109 355.889318) scale(0.1 -0.1)">
       <defs>
        <path id="DejaVuSans-32" d="M 1228 531 
L 3431 531 
L 3431 0 
L 469 0 
L 469 531 
Q 828 903 1448 1529 
Q 2069 2156 2228 2338 
Q 2531 2678 2651 2914 
Q 2772 3150 2772 3378 
Q 2772 3750 2511 3984 
Q 2250 4219 1831 4219 
Q 1534 4219 1204 4116 
Q 875 4013 500 3803 
L 500 4441 
Q 881 4594 1212 4672 
Q 1544 4750 1819 4750 
Q 2544 4750 2975 4387 
Q 3406 4025 3406 3419 
Q 3406 3131 3298 2873 
Q 3191 2616 2906 2266 
Q 2828 2175 2409 1742 
Q 1991 1309 1228 531 
z
" transform="scale(0.015625)"/>
        <path id="DejaVuSans-30" d="M 2034 4250 
Q 1547 4250 1301 3770 
Q 1056 3291 1056 2328 
Q 1056 1369 1301 889 
Q 1547 409 2034 409 
Q 2525 409 2770 889 
Q 3016 1369 3016 2328 
Q 3016 3291 2770 3770 
Q 2525 4250 2034 4250 
z
M 2034 4750 
Q 2819 4750 3233 4129 
Q 3647 3509 3647 2328 
Q 3647 1150 3233 529 
Q 2819 -91 2034 -91 
Q 1250 -91 836 529 
Q 422 1150 422 2328 
Q 422 3509 836 4129 
Q 1250 4750 2034 4750 
z
" transform="scale(0.015625)"/>
       </defs>
       <use xlink:href="#DejaVuSans-32"/>
       <use xlink:href="#DejaVuSans-30" transform="translate(63.623047 0)"/>
      </g>
     </g>
    </g>
    <g id="xtick_2">
     <g id="line2d_2">
      <g>
       <use xlink:href="#meef01e7dda" x="218.487015" y="341.290881" style="stroke: #000000; stroke-width: 0.8"/>
      </g>
     </g>
     <g id="text_2">
      <!-- 40 -->
      <g transform="translate(212.124515 355.889318) scale(0.1 -0.1)">
       <defs>
        <path id="DejaVuSans-34" d="M 2419 4116 
L 825 1625 
L 2419 1625 
L 2419 4116 
z
M 2253 4666 
L 3047 4666 
L 3047 1625 
L 3713 1625 
L 3713 1100 
L 3047 1100 
L 3047 0 
L 2419 0 
L 2419 1100 
L 313 1100 
L 313 1709 
L 2253 4666 
z
" transform="scale(0.015625)"/>
       </defs>
       <use xlink:href="#DejaVuSans-34"/>
       <use xlink:href="#DejaVuSans-30" transform="translate(63.623047 0)"/>
      </g>
     </g>
    </g>
    <g id="xtick_3">
     <g id="line2d_3">
      <g>
       <use xlink:href="#meef01e7dda" x="320.339422" y="341.290881" style="stroke: #000000; stroke-width: 0.8"/>
      </g>
     </g>
     <g id="text_3">
      <!-- 60 -->
      <g transform="translate(313.976922 355.889318) scale(0.1 -0.1)">
       <defs>
        <path id="DejaVuSans-36" d="M 2113 2584 
Q 1688 2584 1439 2293 
Q 1191 2003 1191 1497 
Q 1191 994 1439 701 
Q 1688 409 2113 409 
Q 2538 409 2786 701 
Q 3034 994 3034 1497 
Q 3034 2003 2786 2293 
Q 2538 2584 2113 2584 
z
M 3366 4563 
L 3366 3988 
Q 3128 4100 2886 4159 
Q 2644 4219 2406 4219 
Q 1781 4219 1451 3797 
Q 1122 3375 1075 2522 
Q 1259 2794 1537 2939 
Q 1816 3084 2150 3084 
Q 2853 3084 3261 2657 
Q 3669 2231 3669 1497 
Q 3669 778 3244 343 
Q 2819 -91 2113 -91 
Q 1303 -91 875 529 
Q 447 1150 447 2328 
Q 447 3434 972 4092 
Q 1497 4750 2381 4750 
Q 2619 4750 2861 4703 
Q 3103 4656 3366 4563 
z
" transform="scale(0.015625)"/>
       </defs>
       <use xlink:href="#DejaVuSans-36"/>
       <use xlink:href="#DejaVuSans-30" transform="translate(63.623047 0)"/>
      </g>
     </g>
    </g>
    <g id="xtick_4">
     <g id="line2d_4">
      <g>
       <use xlink:href="#meef01e7dda" x="422.191828" y="341.290881" style="stroke: #000000; stroke-width: 0.8"/>
      </g>
     </g>
     <g id="text_4">
      <!-- 80 -->
      <g transform="translate(415.829328 355.889318) scale(0.1 -0.1)">
       <defs>
        <path id="DejaVuSans-38" d="M 2034 2216 
Q 1584 2216 1326 1975 
Q 1069 1734 1069 1313 
Q 1069 891 1326 650 
Q 1584 409 2034 409 
Q 2484 409 2743 651 
Q 3003 894 3003 1313 
Q 3003 1734 2745 1975 
Q 2488 2216 2034 2216 
z
M 1403 2484 
Q 997 2584 770 2862 
Q 544 3141 544 3541 
Q 544 4100 942 4425 
Q 1341 4750 2034 4750 
Q 2731 4750 3128 4425 
Q 3525 4100 3525 3541 
Q 3525 3141 3298 2862 
Q 3072 2584 2669 2484 
Q 3125 2378 3379 2068 
Q 3634 1759 3634 1313 
Q 3634 634 3220 271 
Q 2806 -91 2034 -91 
Q 1263 -91 848 271 
Q 434 634 434 1313 
Q 434 1759 690 2068 
Q 947 2378 1403 2484 
z
M 1172 3481 
Q 1172 3119 1398 2916 
Q 1625 2713 2034 2713 
Q 2441 2713 2670 2916 
Q 2900 3119 2900 3481 
Q 2900 3844 2670 4047 
Q 2441 4250 2034 4250 
Q 1625 4250 1398 4047 
Q 1172 3844 1172 3481 
z
" transform="scale(0.015625)"/>
       </defs>
       <use xlink:href="#DejaVuSans-38"/>
       <use xlink:href="#DejaVuSans-30" transform="translate(63.623047 0)"/>
      </g>
     </g>
    </g>
    <g id="xtick_5">
     <g id="line2d_5">
      <g>
       <use xlink:href="#meef01e7dda" x="524.044235" y="341.290881" style="stroke: #000000; stroke-width: 0.8"/>
      </g>
     </g>
     <g id="text_5">
      <!-- 100 -->
      <g transform="translate(514.500485 355.889318) scale(0.1 -0.1)">
       <defs>
        <path id="DejaVuSans-31" d="M 794 531 
L 1825 531 
L 1825 4091 
L 703 3866 
L 703 4441 
L 1819 4666 
L 2450 4666 
L 2450 531 
L 3481 531 
L 3481 0 
L 794 0 
L 794 531 
z
" transform="scale(0.015625)"/>
       </defs>
       <use xlink:href="#DejaVuSans-31"/>
       <use xlink:href="#DejaVuSans-30" transform="translate(63.623047 0)"/>
       <use xlink:href="#DejaVuSans-30" transform="translate(127.246094 0)"/>
      </g>
     </g>
    </g>
    <g id="xtick_6">
     <g id="line2d_6">
      <g>
       <use xlink:href="#meef01e7dda" x="625.896641" y="341.290881" style="stroke: #000000; stroke-width: 0.8"/>
      </g>
     </g>
     <g id="text_6">
      <!-- 120 -->
      <g transform="translate(616.352891 355.889318) scale(0.1 -0.1)">
       <use xlink:href="#DejaVuSans-31"/>
       <use xlink:href="#DejaVuSans-32" transform="translate(63.623047 0)"/>
       <use xlink:href="#DejaVuSans-30" transform="translate(127.246094 0)"/>
      </g>
     </g>
    </g>
   </g>
   <g id="matplotlib.axis_2">
    <g id="ytick_1">
     <g id="line2d_7">
      <defs>
       <path id="m7e0f9b9b87" d="M 0 0 
L -3.5 0 
" style="stroke: #000000; stroke-width: 0.8"/>
      </defs>
      <g>
       <use xlink:href="#m7e0f9b9b87" x="36.465625" y="326.170881" style="stroke: #000000; stroke-width: 0.8"/>
      </g>
     </g>
     <g id="text_7">
      <!-- 0.00 -->
      <g transform="translate(7.2 329.9701) scale(0.1 -0.1)">
       <defs>
        <path id="DejaVuSans-2e" d="M 684 794 
L 1344 794 
L 1344 0 
L 684 0 
L 684 794 
z
" transform="scale(0.015625)"/>
       </defs>
       <use xlink:href="#DejaVuSans-30"/>
       <use xlink:href="#DejaVuSans-2e" transform="translate(63.623047 0)"/>
       <use xlink:href="#DejaVuSans-30" transform="translate(95.410156 0)"/>
       <use xlink:href="#DejaVuSans-30" transform="translate(159.033203 0)"/>
      </g>
     </g>
    </g>
    <g id="ytick_2">
     <g id="line2d_8">
      <g>
       <use xlink:href="#m7e0f9b9b87" x="36.465625" y="273.642271" style="stroke: #000000; stroke-width: 0.8"/>
      </g>
     </g>
     <g id="text_8">
      <!-- 0.01 -->
      <g transform="translate(7.2 277.441489) scale(0.1 -0.1)">
       <use xlink:href="#DejaVuSans-30"/>
       <use xlink:href="#DejaVuSans-2e" transform="translate(63.623047 0)"/>
       <use xlink:href="#DejaVuSans-30" transform="translate(95.410156 0)"/>
       <use xlink:href="#DejaVuSans-31" transform="translate(159.033203 0)"/>
      </g>
     </g>
    </g>
    <g id="ytick_3">
     <g id="line2d_9">
      <g>
       <use xlink:href="#m7e0f9b9b87" x="36.465625" y="221.11366" style="stroke: #000000; stroke-width: 0.8"/>
      </g>
     </g>
     <g id="text_9">
      <!-- 0.02 -->
      <g transform="translate(7.2 224.912879) scale(0.1 -0.1)">
       <use xlink:href="#DejaVuSans-30"/>
       <use xlink:href="#DejaVuSans-2e" transform="translate(63.623047 0)"/>
       <use xlink:href="#DejaVuSans-30" transform="translate(95.410156 0)"/>
       <use xlink:href="#DejaVuSans-32" transform="translate(159.033203 0)"/>
      </g>
     </g>
    </g>
    <g id="ytick_4">
     <g id="line2d_10">
      <g>
       <use xlink:href="#m7e0f9b9b87" x="36.465625" y="168.58505" style="stroke: #000000; stroke-width: 0.8"/>
      </g>
     </g>
     <g id="text_10">
      <!-- 0.03 -->
      <g transform="translate(7.2 172.384269) scale(0.1 -0.1)">
       <defs>
        <path id="DejaVuSans-33" d="M 2597 2516 
Q 3050 2419 3304 2112 
Q 3559 1806 3559 1356 
Q 3559 666 3084 287 
Q 2609 -91 1734 -91 
Q 1441 -91 1130 -33 
Q 819 25 488 141 
L 488 750 
Q 750 597 1062 519 
Q 1375 441 1716 441 
Q 2309 441 2620 675 
Q 2931 909 2931 1356 
Q 2931 1769 2642 2001 
Q 2353 2234 1838 2234 
L 1294 2234 
L 1294 2753 
L 1863 2753 
Q 2328 2753 2575 2939 
Q 2822 3125 2822 3475 
Q 2822 3834 2567 4026 
Q 2313 4219 1838 4219 
Q 1578 4219 1281 4162 
Q 984 4106 628 3988 
L 628 4550 
Q 988 4650 1302 4700 
Q 1616 4750 1894 4750 
Q 2613 4750 3031 4423 
Q 3450 4097 3450 3541 
Q 3450 3153 3228 2886 
Q 3006 2619 2597 2516 
z
" transform="scale(0.015625)"/>
       </defs>
       <use xlink:href="#DejaVuSans-30"/>
       <use xlink:href="#DejaVuSans-2e" transform="translate(63.623047 0)"/>
       <use xlink:href="#DejaVuSans-30" transform="translate(95.410156 0)"/>
       <use xlink:href="#DejaVuSans-33" transform="translate(159.033203 0)"/>
      </g>
     </g>
    </g>
    <g id="ytick_5">
     <g id="line2d_11">
      <g>
       <use xlink:href="#m7e0f9b9b87" x="36.465625" y="116.056439" style="stroke: #000000; stroke-width: 0.8"/>
      </g>
     </g>
     <g id="text_11">
      <!-- 0.04 -->
      <g transform="translate(7.2 119.855658) scale(0.1 -0.1)">
       <use xlink:href="#DejaVuSans-30"/>
       <use xlink:href="#DejaVuSans-2e" transform="translate(63.623047 0)"/>
       <use xlink:href="#DejaVuSans-30" transform="translate(95.410156 0)"/>
       <use xlink:href="#DejaVuSans-34" transform="translate(159.033203 0)"/>
      </g>
     </g>
    </g>
    <g id="ytick_6">
     <g id="line2d_12">
      <g>
       <use xlink:href="#m7e0f9b9b87" x="36.465625" y="63.527829" style="stroke: #000000; stroke-width: 0.8"/>
      </g>
     </g>
     <g id="text_12">
      <!-- 0.05 -->
      <g transform="translate(7.2 67.327048) scale(0.1 -0.1)">
       <defs>
        <path id="DejaVuSans-35" d="M 691 4666 
L 3169 4666 
L 3169 4134 
L 1269 4134 
L 1269 2991 
Q 1406 3038 1543 3061 
Q 1681 3084 1819 3084 
Q 2600 3084 3056 2656 
Q 3513 2228 3513 1497 
Q 3513 744 3044 326 
Q 2575 -91 1722 -91 
Q 1428 -91 1123 -41 
Q 819 9 494 109 
L 494 744 
Q 775 591 1075 516 
Q 1375 441 1709 441 
Q 2250 441 2565 725 
Q 2881 1009 2881 1497 
Q 2881 1984 2565 2268 
Q 2250 2553 1709 2553 
Q 1456 2553 1204 2497 
Q 953 2441 691 2322 
L 691 4666 
z
" transform="scale(0.015625)"/>
       </defs>
       <use xlink:href="#DejaVuSans-30"/>
       <use xlink:href="#DejaVuSans-2e" transform="translate(63.623047 0)"/>
       <use xlink:href="#DejaVuSans-30" transform="translate(95.410156 0)"/>
       <use xlink:href="#DejaVuSans-35" transform="translate(159.033203 0)"/>
      </g>
     </g>
    </g>
    <g id="ytick_7">
     <g id="line2d_13">
      <g>
       <use xlink:href="#m7e0f9b9b87" x="36.465625" y="10.999219" style="stroke: #000000; stroke-width: 0.8"/>
      </g>
     </g>
     <g id="text_13">
      <!-- 0.06 -->
      <g transform="translate(7.2 14.798437) scale(0.1 -0.1)">
       <use xlink:href="#DejaVuSans-30"/>
       <use xlink:href="#DejaVuSans-2e" transform="translate(63.623047 0)"/>
       <use xlink:href="#DejaVuSans-30" transform="translate(95.410156 0)"/>
       <use xlink:href="#DejaVuSans-36" transform="translate(159.033203 0)"/>
      </g>
     </g>
    </g>
   </g>
   <g id="line2d_14">
    <path d="M 66.901989 325.346903 
L 69.289154 326.170881 
L 74.063486 324.522924 
L 76.450652 326.170881 
L 81.224983 326.170881 
L 83.612149 325.346903 
L 85.999315 326.170881 
L 90.773646 326.170881 
L 93.160812 325.346903 
L 95.547978 325.346903 
L 97.935144 324.522924 
L 100.322309 322.874968 
L 102.709475 326.170881 
L 105.096641 325.346903 
L 107.483807 326.170881 
L 109.870973 323.698946 
L 112.258138 323.698946 
L 114.645304 325.346903 
L 117.03247 326.170881 
L 119.419636 325.346903 
L 124.193967 322.05099 
L 126.581133 323.698946 
L 128.968299 323.698946 
L 131.355465 324.522924 
L 136.129796 324.522924 
L 138.516962 323.698946 
L 140.904128 323.698946 
L 143.291293 324.522924 
L 145.678459 322.05099 
L 148.065625 321.227012 
L 150.452791 322.874968 
L 152.839957 320.403033 
L 155.227122 323.698946 
L 157.614288 320.403033 
L 160.001454 321.227012 
L 162.38862 321.227012 
L 167.162951 319.579055 
L 169.550117 321.227012 
L 171.937283 318.755077 
L 174.324449 319.579055 
L 176.711614 319.579055 
L 179.09878 317.931099 
L 181.485946 321.227012 
L 183.873112 318.755077 
L 186.260277 320.403033 
L 188.647443 320.403033 
L 191.034609 314.635186 
L 193.421775 318.755077 
L 195.808941 317.107121 
L 198.196106 323.698946 
L 200.583272 309.691317 
L 202.970438 314.635186 
L 205.357604 312.163251 
L 207.744769 312.98723 
L 210.131935 311.339273 
L 212.519101 315.459164 
L 214.906267 313.811208 
L 217.293432 308.867339 
L 219.680598 312.98723 
L 222.067764 309.691317 
L 226.842096 312.98723 
L 229.229261 307.219382 
L 231.616427 310.515295 
L 236.390759 312.163251 
L 238.777924 308.04336 
L 241.16509 305.571426 
L 243.552256 308.04336 
L 245.939422 306.395404 
L 248.326588 298.155622 
L 250.713753 307.219382 
L 253.100919 308.04336 
L 255.488085 303.099491 
L 257.875251 307.219382 
L 260.262416 298.155622 
L 262.649582 301.451535 
L 265.036748 287.443905 
L 267.423914 298.9796 
L 269.81108 295.683687 
L 272.198245 298.155622 
L 274.585411 284.971971 
L 276.972577 285.795949 
L 279.359743 285.795949 
L 281.746908 289.091862 
L 284.134074 286.619927 
L 286.52124 268.492407 
L 288.908406 288.267884 
L 291.295572 286.619927 
L 293.682737 264.372516 
L 296.069903 284.147993 
L 298.457069 271.78832 
L 300.844235 269.316385 
L 303.2314 256.956712 
L 305.618566 261.076603 
L 308.005732 261.076603 
L 310.392898 253.660799 
L 312.780064 273.436276 
L 315.167229 247.068974 
L 317.554395 255.308756 
L 319.941561 252.836821 
L 322.328727 261.076603 
L 324.715892 242.125104 
L 327.103058 240.477148 
L 329.490224 233.885322 
L 331.87739 244.597039 
L 334.264555 205.046085 
L 336.651721 226.469518 
L 339.038887 216.58178 
L 341.426053 220.701671 
L 343.813219 213.285867 
L 346.200384 219.877693 
L 348.58755 172.086957 
L 350.974716 192.686412 
L 353.361882 183.622652 
L 355.749047 199.278238 
L 358.136213 177.030826 
L 360.523379 185.270608 
L 362.910545 166.31911 
L 365.297711 175.38287 
L 367.684876 125.1202 
L 370.072042 93.809028 
L 372.459208 105.344723 
L 374.846374 106.992679 
L 377.233539 98.752897 
L 379.620705 66.617747 
L 382.007871 42.72238 
L 384.395037 46.842271 
L 386.782203 23.770881 
L 389.169368 75.681508 
L 393.9437 144.071698 
L 396.330866 142.423742 
L 398.718031 136.655894 
L 401.105197 151.487502 
L 403.492363 172.910935 
L 405.879529 172.910935 
L 408.266695 176.206848 
L 410.65386 177.030826 
L 413.041026 186.094587 
L 415.428192 204.222107 
L 417.815358 212.461889 
L 420.202523 219.877693 
L 422.589689 217.405758 
L 424.976855 209.165976 
L 427.364021 220.701671 
L 429.751186 223.173606 
L 432.138352 237.181235 
L 434.525518 228.117475 
L 436.912684 228.117475 
L 439.29985 242.125104 
L 441.687015 244.597039 
L 444.074181 279.204123 
L 446.461347 263.548538 
L 448.848513 263.548538 
L 451.235678 260.252625 
L 453.622844 270.964341 
L 456.01001 256.956712 
L 458.397176 270.964341 
L 460.784342 267.668429 
L 463.171507 274.260254 
L 465.558673 280.028102 
L 467.945839 274.260254 
L 470.333005 266.020472 
L 472.72017 275.084232 
L 475.107336 278.380145 
L 477.494502 274.260254 
L 479.881668 294.859709 
L 482.268834 294.035731 
L 484.655999 281.676058 
L 487.043165 286.619927 
L 489.430331 286.619927 
L 494.204662 291.563796 
L 496.591828 304.747448 
L 498.978994 296.507666 
L 501.36616 297.331644 
L 503.753326 296.507666 
L 506.140491 290.739818 
L 508.527657 305.571426 
L 510.914823 307.219382 
L 513.301989 308.04336 
L 515.689154 303.099491 
L 518.07632 308.867339 
L 520.463486 312.163251 
L 522.850652 311.339273 
L 525.237818 304.747448 
L 527.624983 317.107121 
L 530.012149 307.219382 
L 532.399315 308.04336 
L 534.786481 310.515295 
L 537.173646 308.04336 
L 539.560812 315.459164 
L 541.947978 312.163251 
L 544.335144 311.339273 
L 546.722309 319.579055 
L 549.109475 315.459164 
L 551.496641 314.635186 
L 553.883807 316.283142 
L 556.270973 310.515295 
L 558.658138 314.635186 
L 561.045304 317.931099 
L 563.43247 318.755077 
L 565.819636 321.227012 
L 568.206801 314.635186 
L 570.593967 321.227012 
L 572.981133 322.874968 
L 575.368299 318.755077 
L 577.755465 317.107121 
L 580.14263 322.05099 
L 582.529796 320.403033 
L 584.916962 320.403033 
L 587.304128 321.227012 
L 589.691293 319.579055 
L 592.078459 323.698946 
L 594.465625 323.698946 
L 596.852791 321.227012 
L 599.239957 322.874968 
L 601.627122 320.403033 
L 604.014288 324.522924 
L 606.401454 320.403033 
L 608.78862 322.874968 
L 611.175785 322.874968 
L 613.562951 321.227012 
L 615.950117 322.05099 
L 618.337283 325.346903 
L 620.724449 324.522924 
L 623.111614 325.346903 
L 625.49878 325.346903 
L 627.885946 326.170881 
L 630.273112 323.698946 
L 632.660277 324.522924 
L 635.047443 323.698946 
L 642.208941 326.170881 
L 644.596106 326.170881 
L 646.983272 324.522924 
L 649.370438 324.522924 
L 651.757604 325.346903 
L 654.144769 325.346903 
L 656.531935 326.170881 
L 658.919101 326.170881 
L 663.693432 324.522924 
L 666.080598 326.170881 
L 670.85493 326.170881 
L 673.242096 325.346903 
L 675.629261 325.346903 
L 675.629261 325.346903 
" clip-path="url(#p7f2a3cf152)" style="fill: none; stroke: #000000; stroke-width: 1.5; stroke-linecap: square"/>
   </g>
   <g id="patch_3">
    <path d="M 36.465625 341.290881 
L 36.465625 8.650881 
" style="fill: none; stroke: #000000; stroke-width: 0.8; stroke-linejoin: miter; stroke-linecap: square"/>
   </g>
   <g id="patch_4">
    <path d="M 706.065625 341.290881 
L 706.065625 8.650881 
" style="fill: none; stroke: #000000; stroke-width: 0.8; stroke-linejoin: miter; stroke-linecap: square"/>
   </g>
   <g id="patch_5">
    <path d="M 36.465625 341.290881 
L 706.065625 341.290881 
" style="fill: none; stroke: #000000; stroke-width: 0.8; stroke-linejoin: miter; stroke-linecap: square"/>
   </g>
   <g id="patch_6">
    <path d="M 36.465625 8.650881 
L 706.065625 8.650881 
" style="fill: none; stroke: #000000; stroke-width: 0.8; stroke-linejoin: miter; stroke-linecap: square"/>
   </g>
  </g>
 </g>
 <defs>
  <clipPath id="p7f2a3cf152">
   <rect x="36.465625" y="8.650881" width="669.6" height="332.64"/>
  </clipPath>
 </defs>
</svg>
