<?xml version="1.0" encoding="utf-8" standalone="no"?>
<!DOCTYPE svg PUBLIC "-//W3C//DTD SVG 1.1//EN"
  "http://www.w3.org/Graphics/SVG/1.1/DTD/svg11.dtd">
<svg xmlns:xlink="http://www.w3.org/1999/xlink" width="713.265625pt" height="363.718125pt" viewBox="0 0 713.265625 363.718125" xmlns="http://www.w3.org/2000/svg" version="1.1">
 <metadata>
  <rdf:RDF xmlns:dc="http://purl.org/dc/elements/1.1/" xmlns:cc="http://creativecommons.org/ns#" xmlns:rdf="http://www.w3.org/1999/02/22-rdf-syntax-ns#">
   <cc:Work>
    <dc:type rdf:resource="http://purl.org/dc/dcmitype/StillImage"/>
    <dc:date>2025-04-02T00:59:46.829498</dc:date>
    <dc:format>image/svg+xml</dc:format>
    <dc:creator>
     <cc:Agent>
      <dc:title>Matplotlib v3.10.1, https://matplotlib.org/</dc:title>
     </cc:Agent>
    </dc:creator>
   </cc:Work>
  </rdf:RDF>
 </metadata>
 <defs>
  <style type="text/css">*{stroke-linejoin: round; stroke-linecap: butt}</style>
 </defs>
 <g id="figure_1">
  <g id="patch_1">
   <path d="M 0 363.718125 
L 713.265625 363.718125 
L 713.265625 0 
L 0 0 
L 0 363.718125 
z
" style="fill: none"/>
  </g>
  <g id="axes_1">
   <g id="patch_2">
    <path d="M 36.465625 158.4 
L 706.065625 158.4 
L 706.065625 7.2 
L 36.465625 7.2 
L 36.465625 158.4 
z
" style="fill: none"/>
   </g>
   <g id="matplotlib.axis_1">
    <g id="xtick_1">
     <g id="line2d_1">
      <defs>
       <path id="m5cecde2f32" d="M 0 0 
L 0 3.5 
" style="stroke: #000000; stroke-width: 0.8"/>
      </defs>
      <g>
       <use xlink:href="#m5cecde2f32" x="65.708406" y="158.4" style="stroke: #000000; stroke-width: 0.8"/>
      </g>
     </g>
     <g id="text_1">
      <!-- −1.00 -->
      <g transform="translate(50.385749 172.998437) scale(0.1 -0.1)">
       <defs>
        <path id="DejaVuSans-2212" d="M 678 2272 
L 4684 2272 
L 4684 1741 
L 678 1741 
L 678 2272 
z
" transform="scale(0.015625)"/>
        <path id="DejaVuSans-31" d="M 794 531 
L 1825 531 
L 1825 4091 
L 703 3866 
L 703 4441 
L 1819 4666 
L 2450 4666 
L 2450 531 
L 3481 531 
L 3481 0 
L 794 0 
L 794 531 
z
" transform="scale(0.015625)"/>
        <path id="DejaVuSans-2e" d="M 684 794 
L 1344 794 
L 1344 0 
L 684 0 
L 684 794 
z
" transform="scale(0.015625)"/>
        <path id="DejaVuSans-30" d="M 2034 4250 
Q 1547 4250 1301 3770 
Q 1056 3291 1056 2328 
Q 1056 1369 1301 889 
Q 1547 409 2034 409 
Q 2525 409 2770 889 
Q 3016 1369 3016 2328 
Q 3016 3291 2770 3770 
Q 2525 4250 2034 4250 
z
M 2034 4750 
Q 2819 4750 3233 4129 
Q 3647 3509 3647 2328 
Q 3647 1150 3233 529 
Q 2819 -91 2034 -91 
Q 1250 -91 836 529 
Q 422 1150 422 2328 
Q 422 3509 836 4129 
Q 1250 4750 2034 4750 
z
" transform="scale(0.015625)"/>
       </defs>
       <use xlink:href="#DejaVuSans-2212"/>
       <use xlink:href="#DejaVuSans-31" transform="translate(83.789062 0)"/>
       <use xlink:href="#DejaVuSans-2e" transform="translate(147.412109 0)"/>
       <use xlink:href="#DejaVuSans-30" transform="translate(179.199219 0)"/>
       <use xlink:href="#DejaVuSans-30" transform="translate(242.822266 0)"/>
      </g>
     </g>
    </g>
    <g id="xtick_2">
     <g id="line2d_2">
      <g>
       <use xlink:href="#m5cecde2f32" x="142.097711" y="158.4" style="stroke: #000000; stroke-width: 0.8"/>
      </g>
     </g>
     <g id="text_2">
      <!-- −0.75 -->
      <g transform="translate(126.775054 172.998437) scale(0.1 -0.1)">
       <defs>
        <path id="DejaVuSans-37" d="M 525 4666 
L 3525 4666 
L 3525 4397 
L 1831 0 
L 1172 0 
L 2766 4134 
L 525 4134 
L 525 4666 
z
" transform="scale(0.015625)"/>
        <path id="DejaVuSans-35" d="M 691 4666 
L 3169 4666 
L 3169 4134 
L 1269 4134 
L 1269 2991 
Q 1406 3038 1543 3061 
Q 1681 3084 1819 3084 
Q 2600 3084 3056 2656 
Q 3513 2228 3513 1497 
Q 3513 744 3044 326 
Q 2575 -91 1722 -91 
Q 1428 -91 1123 -41 
Q 819 9 494 109 
L 494 744 
Q 775 591 1075 516 
Q 1375 441 1709 441 
Q 2250 441 2565 725 
Q 2881 1009 2881 1497 
Q 2881 1984 2565 2268 
Q 2250 2553 1709 2553 
Q 1456 2553 1204 2497 
Q 953 2441 691 2322 
L 691 4666 
z
" transform="scale(0.015625)"/>
       </defs>
       <use xlink:href="#DejaVuSans-2212"/>
       <use xlink:href="#DejaVuSans-30" transform="translate(83.789062 0)"/>
       <use xlink:href="#DejaVuSans-2e" transform="translate(147.412109 0)"/>
       <use xlink:href="#DejaVuSans-37" transform="translate(179.199219 0)"/>
       <use xlink:href="#DejaVuSans-35" transform="translate(242.822266 0)"/>
      </g>
     </g>
    </g>
    <g id="xtick_3">
     <g id="line2d_3">
      <g>
       <use xlink:href="#m5cecde2f32" x="218.487015" y="158.4" style="stroke: #000000; stroke-width: 0.8"/>
      </g>
     </g>
     <g id="text_3">
      <!-- −0.50 -->
      <g transform="translate(203.164359 172.998437) scale(0.1 -0.1)">
       <use xlink:href="#DejaVuSans-2212"/>
       <use xlink:href="#DejaVuSans-30" transform="translate(83.789062 0)"/>
       <use xlink:href="#DejaVuSans-2e" transform="translate(147.412109 0)"/>
       <use xlink:href="#DejaVuSans-35" transform="translate(179.199219 0)"/>
       <use xlink:href="#DejaVuSans-30" transform="translate(242.822266 0)"/>
      </g>
     </g>
    </g>
    <g id="xtick_4">
     <g id="line2d_4">
      <g>
       <use xlink:href="#m5cecde2f32" x="294.87632" y="158.4" style="stroke: #000000; stroke-width: 0.8"/>
      </g>
     </g>
     <g id="text_4">
      <!-- −0.25 -->
      <g transform="translate(279.553664 172.998437) scale(0.1 -0.1)">
       <defs>
        <path id="DejaVuSans-32" d="M 1228 531 
L 3431 531 
L 3431 0 
L 469 0 
L 469 531 
Q 828 903 1448 1529 
Q 2069 2156 2228 2338 
Q 2531 2678 2651 2914 
Q 2772 3150 2772 3378 
Q 2772 3750 2511 3984 
Q 2250 4219 1831 4219 
Q 1534 4219 1204 4116 
Q 875 4013 500 3803 
L 500 4441 
Q 881 4594 1212 4672 
Q 1544 4750 1819 4750 
Q 2544 4750 2975 4387 
Q 3406 4025 3406 3419 
Q 3406 3131 3298 2873 
Q 3191 2616 2906 2266 
Q 2828 2175 2409 1742 
Q 1991 1309 1228 531 
z
" transform="scale(0.015625)"/>
       </defs>
       <use xlink:href="#DejaVuSans-2212"/>
       <use xlink:href="#DejaVuSans-30" transform="translate(83.789062 0)"/>
       <use xlink:href="#DejaVuSans-2e" transform="translate(147.412109 0)"/>
       <use xlink:href="#DejaVuSans-32" transform="translate(179.199219 0)"/>
       <use xlink:href="#DejaVuSans-35" transform="translate(242.822266 0)"/>
      </g>
     </g>
    </g>
    <g id="xtick_5">
     <g id="line2d_5">
      <g>
       <use xlink:href="#m5cecde2f32" x="371.265625" y="158.4" style="stroke: #000000; stroke-width: 0.8"/>
      </g>
     </g>
     <g id="text_5">
      <!-- 0.00 -->
      <g transform="translate(360.132812 172.998437) scale(0.1 -0.1)">
       <use xlink:href="#DejaVuSans-30"/>
       <use xlink:href="#DejaVuSans-2e" transform="translate(63.623047 0)"/>
       <use xlink:href="#DejaVuSans-30" transform="translate(95.410156 0)"/>
       <use xlink:href="#DejaVuSans-30" transform="translate(159.033203 0)"/>
      </g>
     </g>
    </g>
    <g id="xtick_6">
     <g id="line2d_6">
      <g>
       <use xlink:href="#m5cecde2f32" x="447.65493" y="158.4" style="stroke: #000000; stroke-width: 0.8"/>
      </g>
     </g>
     <g id="text_6">
      <!-- 0.25 -->
      <g transform="translate(436.522117 172.998437) scale(0.1 -0.1)">
       <use xlink:href="#DejaVuSans-30"/>
       <use xlink:href="#DejaVuSans-2e" transform="translate(63.623047 0)"/>
       <use xlink:href="#DejaVuSans-32" transform="translate(95.410156 0)"/>
       <use xlink:href="#DejaVuSans-35" transform="translate(159.033203 0)"/>
      </g>
     </g>
    </g>
    <g id="xtick_7">
     <g id="line2d_7">
      <g>
       <use xlink:href="#m5cecde2f32" x="524.044235" y="158.4" style="stroke: #000000; stroke-width: 0.8"/>
      </g>
     </g>
     <g id="text_7">
      <!-- 0.50 -->
      <g transform="translate(512.911422 172.998437) scale(0.1 -0.1)">
       <use xlink:href="#DejaVuSans-30"/>
       <use xlink:href="#DejaVuSans-2e" transform="translate(63.623047 0)"/>
       <use xlink:href="#DejaVuSans-35" transform="translate(95.410156 0)"/>
       <use xlink:href="#DejaVuSans-30" transform="translate(159.033203 0)"/>
      </g>
     </g>
    </g>
    <g id="xtick_8">
     <g id="line2d_8">
      <g>
       <use xlink:href="#m5cecde2f32" x="600.433539" y="158.4" style="stroke: #000000; stroke-width: 0.8"/>
      </g>
     </g>
     <g id="text_8">
      <!-- 0.75 -->
      <g transform="translate(589.300727 172.998437) scale(0.1 -0.1)">
       <use xlink:href="#DejaVuSans-30"/>
       <use xlink:href="#DejaVuSans-2e" transform="translate(63.623047 0)"/>
       <use xlink:href="#DejaVuSans-37" transform="translate(95.410156 0)"/>
       <use xlink:href="#DejaVuSans-35" transform="translate(159.033203 0)"/>
      </g>
     </g>
    </g>
    <g id="xtick_9">
     <g id="line2d_9">
      <g>
       <use xlink:href="#m5cecde2f32" x="676.822844" y="158.4" style="stroke: #000000; stroke-width: 0.8"/>
      </g>
     </g>
     <g id="text_9">
      <!-- 1.00 -->
      <g transform="translate(665.690032 172.998437) scale(0.1 -0.1)">
       <use xlink:href="#DejaVuSans-31"/>
       <use xlink:href="#DejaVuSans-2e" transform="translate(63.623047 0)"/>
       <use xlink:href="#DejaVuSans-30" transform="translate(95.410156 0)"/>
       <use xlink:href="#DejaVuSans-30" transform="translate(159.033203 0)"/>
      </g>
     </g>
    </g>
   </g>
   <g id="matplotlib.axis_2">
    <g id="ytick_1">
     <g id="line2d_10">
      <defs>
       <path id="m21c7f49cc4" d="M 0 0 
L -3.5 0 
" style="stroke: #000000; stroke-width: 0.8"/>
      </defs>
      <g>
       <use xlink:href="#m21c7f49cc4" x="36.465625" y="151.527273" style="stroke: #000000; stroke-width: 0.8"/>
      </g>
     </g>
     <g id="text_10">
      <!-- 0.0 -->
      <g transform="translate(13.5625 155.326491) scale(0.1 -0.1)">
       <use xlink:href="#DejaVuSans-30"/>
       <use xlink:href="#DejaVuSans-2e" transform="translate(63.623047 0)"/>
       <use xlink:href="#DejaVuSans-30" transform="translate(95.410156 0)"/>
      </g>
     </g>
    </g>
    <g id="ytick_2">
     <g id="line2d_11">
      <g>
       <use xlink:href="#m21c7f49cc4" x="36.465625" y="116.994945" style="stroke: #000000; stroke-width: 0.8"/>
      </g>
     </g>
     <g id="text_11">
      <!-- 0.5 -->
      <g transform="translate(13.5625 120.794164) scale(0.1 -0.1)">
       <use xlink:href="#DejaVuSans-30"/>
       <use xlink:href="#DejaVuSans-2e" transform="translate(63.623047 0)"/>
       <use xlink:href="#DejaVuSans-35" transform="translate(95.410156 0)"/>
      </g>
     </g>
    </g>
    <g id="ytick_3">
     <g id="line2d_12">
      <g>
       <use xlink:href="#m21c7f49cc4" x="36.465625" y="82.462618" style="stroke: #000000; stroke-width: 0.8"/>
      </g>
     </g>
     <g id="text_12">
      <!-- 1.0 -->
      <g transform="translate(13.5625 86.261836) scale(0.1 -0.1)">
       <use xlink:href="#DejaVuSans-31"/>
       <use xlink:href="#DejaVuSans-2e" transform="translate(63.623047 0)"/>
       <use xlink:href="#DejaVuSans-30" transform="translate(95.410156 0)"/>
      </g>
     </g>
    </g>
    <g id="ytick_4">
     <g id="line2d_13">
      <g>
       <use xlink:href="#m21c7f49cc4" x="36.465625" y="47.93029" style="stroke: #000000; stroke-width: 0.8"/>
      </g>
     </g>
     <g id="text_13">
      <!-- 1.5 -->
      <g transform="translate(13.5625 51.729509) scale(0.1 -0.1)">
       <use xlink:href="#DejaVuSans-31"/>
       <use xlink:href="#DejaVuSans-2e" transform="translate(63.623047 0)"/>
       <use xlink:href="#DejaVuSans-35" transform="translate(95.410156 0)"/>
      </g>
     </g>
    </g>
    <g id="ytick_5">
     <g id="line2d_14">
      <g>
       <use xlink:href="#m21c7f49cc4" x="36.465625" y="13.397962" style="stroke: #000000; stroke-width: 0.8"/>
      </g>
     </g>
     <g id="text_14">
      <!-- 2.0 -->
      <g transform="translate(13.5625 17.197181) scale(0.1 -0.1)">
       <use xlink:href="#DejaVuSans-32"/>
       <use xlink:href="#DejaVuSans-2e" transform="translate(63.623047 0)"/>
       <use xlink:href="#DejaVuSans-30" transform="translate(95.410156 0)"/>
      </g>
     </g>
    </g>
   </g>
   <g id="line2d_15">
    <path d="M 66.901989 150.473981 
L 69.289154 151.527273 
L 71.67632 151.527273 
L 74.063486 150.473981 
L 76.450652 150.473981 
L 78.837818 149.42069 
L 81.224983 151.000627 
L 83.612149 148.894044 
L 85.999315 150.473981 
L 88.386481 150.473981 
L 93.160812 149.42069 
L 95.547978 149.42069 
L 97.935144 150.473981 
L 100.322309 149.947335 
L 102.709475 150.473981 
L 105.096641 148.894044 
L 107.483807 150.473981 
L 109.870973 151.000627 
L 112.258138 148.894044 
L 119.419636 150.473981 
L 121.806801 149.947335 
L 126.581133 147.840752 
L 128.968299 149.42069 
L 133.74263 148.367398 
L 136.129796 149.42069 
L 138.516962 149.42069 
L 140.904128 148.367398 
L 143.291293 147.840752 
L 145.678459 148.367398 
L 148.065625 148.367398 
L 150.452791 146.787461 
L 152.839957 149.42069 
L 155.227122 146.260815 
L 157.614288 147.840752 
L 160.001454 148.367398 
L 162.38862 146.260815 
L 164.775785 146.260815 
L 167.162951 148.367398 
L 169.550117 146.260815 
L 171.937283 146.787461 
L 174.324449 148.367398 
L 179.09878 145.207524 
L 181.485946 147.840752 
L 183.873112 143.10094 
L 186.260277 146.787461 
L 188.647443 144.680878 
L 191.034609 141.521003 
L 193.421775 143.627586 
L 195.808941 143.10094 
L 198.196106 140.467712 
L 200.583272 140.994357 
L 202.970438 138.887774 
L 205.357604 142.047649 
L 207.744769 139.941066 
L 210.131935 135.201254 
L 212.519101 139.941066 
L 214.906267 133.094671 
L 217.293432 134.674608 
L 219.680598 130.461442 
L 222.067764 134.147962 
L 224.45493 127.828213 
L 226.842096 129.40815 
L 229.229261 135.7279 
L 231.616427 118.875235 
L 236.390759 126.248276 
L 238.777924 123.088401 
L 241.16509 127.828213 
L 243.552256 129.934796 
L 245.939422 135.7279 
L 248.326588 126.774922 
L 250.713753 128.354859 
L 253.100919 123.615047 
L 255.488085 126.774922 
L 257.875251 121.508464 
L 260.262416 125.72163 
L 262.649582 124.668339 
L 265.036748 117.295298 
L 267.423914 114.662069 
L 269.81108 114.662069 
L 272.198245 116.242006 
L 274.585411 118.348589 
L 276.972577 114.135423 
L 279.359743 113.082132 
L 281.746908 110.448903 
L 284.134074 110.448903 
L 286.52124 106.235737 
L 288.908406 113.608777 
L 291.295572 103.075862 
L 293.682737 108.34232 
L 296.069903 107.815674 
L 298.457069 104.655799 
L 300.844235 110.448903 
L 303.2314 97.282759 
L 305.618566 110.448903 
L 308.005732 106.235737 
L 310.392898 99.915987 
L 312.780064 102.549216 
L 315.167229 100.442633 
L 317.554395 106.235737 
L 319.941561 93.596238 
L 322.328727 94.122884 
L 324.715892 78.323511 
L 327.103058 95.176176 
L 329.490224 90.963009 
L 331.87739 76.743574 
L 334.264555 78.850157 
L 336.651721 83.589969 
L 339.038887 75.690282 
L 341.426053 86.749843 
L 343.813219 84.116614 
L 346.200384 70.423824 
L 348.58755 66.737304 
L 350.974716 77.796865 
L 353.361882 56.204389 
L 355.749047 58.837618 
L 358.136213 58.310972 
L 360.523379 46.724765 
L 362.910545 51.991223 
L 365.297711 41.458307 
L 367.684876 44.091536 
L 370.072042 50.937931 
L 372.459208 33.031975 
L 374.846374 44.091536 
L 377.233539 29.8721 
L 379.620705 27.238871 
L 382.007871 23.025705 
L 384.395037 14.072727 
L 386.782203 23.552351 
L 389.169368 27.238871 
L 391.556534 23.025705 
L 393.9437 29.345455 
L 396.330866 29.8721 
L 398.718031 40.405016 
L 401.105197 51.464577 
L 403.492363 49.357994 
L 405.879529 53.57116 
L 408.266695 48.831348 
L 410.65386 57.25768 
L 413.041026 49.357994 
L 415.428192 55.151097 
L 417.815358 49.357994 
L 420.202523 65.157367 
L 422.589689 61.997492 
L 424.976855 66.737304 
L 427.364021 65.157367 
L 429.751186 64.630721 
L 432.138352 48.831348 
L 434.525518 57.784326 
L 436.912684 58.837618 
L 439.29985 70.95047 
L 441.687015 72.003762 
L 444.074181 70.95047 
L 446.461347 79.376803 
L 448.848513 72.530408 
L 451.235678 88.329781 
L 453.622844 85.696552 
L 456.01001 73.057053 
L 458.397176 83.589969 
L 460.784342 93.596238 
L 463.171507 90.963009 
L 465.558673 91.489655 
L 467.945839 97.809404 
L 470.333005 101.495925 
L 472.72017 98.862696 
L 475.107336 106.235737 
L 477.494502 89.383072 
L 479.881668 106.235737 
L 482.268834 108.868966 
L 484.655999 108.34232 
L 487.043165 108.868966 
L 489.430331 102.549216 
L 491.817497 110.975549 
L 494.204662 107.815674 
L 496.591828 112.555486 
L 498.978994 115.715361 
L 501.36616 107.289028 
L 503.753326 117.295298 
L 506.140491 114.135423 
L 508.527657 122.561755 
L 510.914823 120.455172 
L 513.301989 127.301567 
L 515.689154 120.981818 
L 518.07632 127.828213 
L 520.463486 121.508464 
L 522.850652 126.774922 
L 525.237818 129.934796 
L 527.624983 128.354859 
L 530.012149 124.668339 
L 532.399315 126.774922 
L 534.786481 119.928527 
L 537.173646 128.354859 
L 539.560812 130.988088 
L 541.947978 126.774922 
L 544.335144 136.781191 
L 546.722309 132.568025 
L 549.109475 136.254545 
L 551.496641 137.834483 
L 553.883807 134.674608 
L 556.270973 136.781191 
L 558.658138 131.514734 
L 561.045304 139.41442 
L 563.43247 138.361129 
L 565.819636 139.41442 
L 568.206801 136.781191 
L 570.593967 139.41442 
L 572.981133 134.147962 
L 575.368299 140.467712 
L 577.755465 137.834483 
L 580.14263 140.467712 
L 584.916962 143.627586 
L 587.304128 144.680878 
L 589.691293 142.574295 
L 592.078459 149.42069 
L 594.465625 147.314107 
L 596.852791 147.314107 
L 599.239957 147.840752 
L 601.627122 147.314107 
L 604.014288 145.734169 
L 606.401454 148.894044 
L 608.78862 146.260815 
L 611.175785 149.42069 
L 613.562951 151.000627 
L 615.950117 149.42069 
L 618.337283 145.734169 
L 620.724449 149.42069 
L 625.49878 148.367398 
L 627.885946 146.787461 
L 630.273112 148.894044 
L 632.660277 150.473981 
L 635.047443 149.42069 
L 637.434609 148.894044 
L 639.821775 151.527273 
L 642.208941 151.000627 
L 644.596106 149.42069 
L 646.983272 151.000627 
L 649.370438 151.000627 
L 651.757604 149.947335 
L 654.144769 151.000627 
L 656.531935 149.42069 
L 658.919101 150.473981 
L 661.306267 148.367398 
L 663.693432 147.840752 
L 666.080598 151.000627 
L 668.467764 151.527273 
L 670.85493 150.473981 
L 673.242096 151.000627 
L 675.629261 149.947335 
L 675.629261 149.947335 
" clip-path="url(#p5ce84260bf)" style="fill: none; stroke: #000000; stroke-width: 1.5; stroke-linecap: square"/>
   </g>
   <g id="patch_3">
    <path d="M 36.465625 158.4 
L 36.465625 7.2 
" style="fill: none; stroke: #000000; stroke-width: 0.8; stroke-linejoin: miter; stroke-linecap: square"/>
   </g>
   <g id="patch_4">
    <path d="M 706.065625 158.4 
L 706.065625 7.2 
" style="fill: none; stroke: #000000; stroke-width: 0.8; stroke-linejoin: miter; stroke-linecap: square"/>
   </g>
   <g id="patch_5">
    <path d="M 36.465625 158.4 
L 706.065625 158.4 
" style="fill: none; stroke: #000000; stroke-width: 0.8; stroke-linejoin: miter; stroke-linecap: square"/>
   </g>
   <g id="patch_6">
    <path d="M 36.465625 7.2 
L 706.065625 7.2 
" style="fill: none; stroke: #000000; stroke-width: 0.8; stroke-linejoin: miter; stroke-linecap: square"/>
   </g>
  </g>
  <g id="axes_2">
   <g id="patch_7">
    <path d="M 36.465625 339.84 
L 706.065625 339.84 
L 706.065625 188.64 
L 36.465625 188.64 
L 36.465625 339.84 
z
" style="fill: none"/>
   </g>
   <g id="matplotlib.axis_3">
    <g id="xtick_10">
     <g id="line2d_16">
      <g>
       <use xlink:href="#m5cecde2f32" x="103.903058" y="339.84" style="stroke: #000000; stroke-width: 0.8"/>
      </g>
     </g>
     <g id="text_15">
      <!-- 10 -->
      <g transform="translate(97.540558 354.438437) scale(0.1 -0.1)">
       <use xlink:href="#DejaVuSans-31"/>
       <use xlink:href="#DejaVuSans-30" transform="translate(63.623047 0)"/>
      </g>
     </g>
    </g>
    <g id="xtick_11">
     <g id="line2d_17">
      <g>
       <use xlink:href="#m5cecde2f32" x="180.292363" y="339.84" style="stroke: #000000; stroke-width: 0.8"/>
      </g>
     </g>
     <g id="text_16">
      <!-- 20 -->
      <g transform="translate(173.929863 354.438437) scale(0.1 -0.1)">
       <use xlink:href="#DejaVuSans-32"/>
       <use xlink:href="#DejaVuSans-30" transform="translate(63.623047 0)"/>
      </g>
     </g>
    </g>
    <g id="xtick_12">
     <g id="line2d_18">
      <g>
       <use xlink:href="#m5cecde2f32" x="256.681668" y="339.84" style="stroke: #000000; stroke-width: 0.8"/>
      </g>
     </g>
     <g id="text_17">
      <!-- 30 -->
      <g transform="translate(250.319168 354.438437) scale(0.1 -0.1)">
       <defs>
        <path id="DejaVuSans-33" d="M 2597 2516 
Q 3050 2419 3304 2112 
Q 3559 1806 3559 1356 
Q 3559 666 3084 287 
Q 2609 -91 1734 -91 
Q 1441 -91 1130 -33 
Q 819 25 488 141 
L 488 750 
Q 750 597 1062 519 
Q 1375 441 1716 441 
Q 2309 441 2620 675 
Q 2931 909 2931 1356 
Q 2931 1769 2642 2001 
Q 2353 2234 1838 2234 
L 1294 2234 
L 1294 2753 
L 1863 2753 
Q 2328 2753 2575 2939 
Q 2822 3125 2822 3475 
Q 2822 3834 2567 4026 
Q 2313 4219 1838 4219 
Q 1578 4219 1281 4162 
Q 984 4106 628 3988 
L 628 4550 
Q 988 4650 1302 4700 
Q 1616 4750 1894 4750 
Q 2613 4750 3031 4423 
Q 3450 4097 3450 3541 
Q 3450 3153 3228 2886 
Q 3006 2619 2597 2516 
z
" transform="scale(0.015625)"/>
       </defs>
       <use xlink:href="#DejaVuSans-33"/>
       <use xlink:href="#DejaVuSans-30" transform="translate(63.623047 0)"/>
      </g>
     </g>
    </g>
    <g id="xtick_13">
     <g id="line2d_19">
      <g>
       <use xlink:href="#m5cecde2f32" x="333.070973" y="339.84" style="stroke: #000000; stroke-width: 0.8"/>
      </g>
     </g>
     <g id="text_18">
      <!-- 40 -->
      <g transform="translate(326.708473 354.438437) scale(0.1 -0.1)">
       <defs>
        <path id="DejaVuSans-34" d="M 2419 4116 
L 825 1625 
L 2419 1625 
L 2419 4116 
z
M 2253 4666 
L 3047 4666 
L 3047 1625 
L 3713 1625 
L 3713 1100 
L 3047 1100 
L 3047 0 
L 2419 0 
L 2419 1100 
L 313 1100 
L 313 1709 
L 2253 4666 
z
" transform="scale(0.015625)"/>
       </defs>
       <use xlink:href="#DejaVuSans-34"/>
       <use xlink:href="#DejaVuSans-30" transform="translate(63.623047 0)"/>
      </g>
     </g>
    </g>
    <g id="xtick_14">
     <g id="line2d_20">
      <g>
       <use xlink:href="#m5cecde2f32" x="409.460277" y="339.84" style="stroke: #000000; stroke-width: 0.8"/>
      </g>
     </g>
     <g id="text_19">
      <!-- 50 -->
      <g transform="translate(403.097777 354.438437) scale(0.1 -0.1)">
       <use xlink:href="#DejaVuSans-35"/>
       <use xlink:href="#DejaVuSans-30" transform="translate(63.623047 0)"/>
      </g>
     </g>
    </g>
    <g id="xtick_15">
     <g id="line2d_21">
      <g>
       <use xlink:href="#m5cecde2f32" x="485.849582" y="339.84" style="stroke: #000000; stroke-width: 0.8"/>
      </g>
     </g>
     <g id="text_20">
      <!-- 60 -->
      <g transform="translate(479.487082 354.438437) scale(0.1 -0.1)">
       <defs>
        <path id="DejaVuSans-36" d="M 2113 2584 
Q 1688 2584 1439 2293 
Q 1191 2003 1191 1497 
Q 1191 994 1439 701 
Q 1688 409 2113 409 
Q 2538 409 2786 701 
Q 3034 994 3034 1497 
Q 3034 2003 2786 2293 
Q 2538 2584 2113 2584 
z
M 3366 4563 
L 3366 3988 
Q 3128 4100 2886 4159 
Q 2644 4219 2406 4219 
Q 1781 4219 1451 3797 
Q 1122 3375 1075 2522 
Q 1259 2794 1537 2939 
Q 1816 3084 2150 3084 
Q 2853 3084 3261 2657 
Q 3669 2231 3669 1497 
Q 3669 778 3244 343 
Q 2819 -91 2113 -91 
Q 1303 -91 875 529 
Q 447 1150 447 2328 
Q 447 3434 972 4092 
Q 1497 4750 2381 4750 
Q 2619 4750 2861 4703 
Q 3103 4656 3366 4563 
z
" transform="scale(0.015625)"/>
       </defs>
       <use xlink:href="#DejaVuSans-36"/>
       <use xlink:href="#DejaVuSans-30" transform="translate(63.623047 0)"/>
      </g>
     </g>
    </g>
    <g id="xtick_16">
     <g id="line2d_22">
      <g>
       <use xlink:href="#m5cecde2f32" x="562.238887" y="339.84" style="stroke: #000000; stroke-width: 0.8"/>
      </g>
     </g>
     <g id="text_21">
      <!-- 70 -->
      <g transform="translate(555.876387 354.438437) scale(0.1 -0.1)">
       <use xlink:href="#DejaVuSans-37"/>
       <use xlink:href="#DejaVuSans-30" transform="translate(63.623047 0)"/>
      </g>
     </g>
    </g>
    <g id="xtick_17">
     <g id="line2d_23">
      <g>
       <use xlink:href="#m5cecde2f32" x="638.628192" y="339.84" style="stroke: #000000; stroke-width: 0.8"/>
      </g>
     </g>
     <g id="text_22">
      <!-- 80 -->
      <g transform="translate(632.265692 354.438437) scale(0.1 -0.1)">
       <defs>
        <path id="DejaVuSans-38" d="M 2034 2216 
Q 1584 2216 1326 1975 
Q 1069 1734 1069 1313 
Q 1069 891 1326 650 
Q 1584 409 2034 409 
Q 2484 409 2743 651 
Q 3003 894 3003 1313 
Q 3003 1734 2745 1975 
Q 2488 2216 2034 2216 
z
M 1403 2484 
Q 997 2584 770 2862 
Q 544 3141 544 3541 
Q 544 4100 942 4425 
Q 1341 4750 2034 4750 
Q 2731 4750 3128 4425 
Q 3525 4100 3525 3541 
Q 3525 3141 3298 2862 
Q 3072 2584 2669 2484 
Q 3125 2378 3379 2068 
Q 3634 1759 3634 1313 
Q 3634 634 3220 271 
Q 2806 -91 2034 -91 
Q 1263 -91 848 271 
Q 434 634 434 1313 
Q 434 1759 690 2068 
Q 947 2378 1403 2484 
z
M 1172 3481 
Q 1172 3119 1398 2916 
Q 1625 2713 2034 2713 
Q 2441 2713 2670 2916 
Q 2900 3119 2900 3481 
Q 2900 3844 2670 4047 
Q 2441 4250 2034 4250 
Q 1625 4250 1398 4047 
Q 1172 3844 1172 3481 
z
" transform="scale(0.015625)"/>
       </defs>
       <use xlink:href="#DejaVuSans-38"/>
       <use xlink:href="#DejaVuSans-30" transform="translate(63.623047 0)"/>
      </g>
     </g>
    </g>
   </g>
   <g id="matplotlib.axis_4">
    <g id="ytick_6">
     <g id="line2d_24">
      <g>
       <use xlink:href="#m21c7f49cc4" x="36.465625" y="332.967273" style="stroke: #000000; stroke-width: 0.8"/>
      </g>
     </g>
     <g id="text_23">
      <!-- 0.00 -->
      <g transform="translate(7.2 336.766491) scale(0.1 -0.1)">
       <use xlink:href="#DejaVuSans-30"/>
       <use xlink:href="#DejaVuSans-2e" transform="translate(63.623047 0)"/>
       <use xlink:href="#DejaVuSans-30" transform="translate(95.410156 0)"/>
       <use xlink:href="#DejaVuSans-30" transform="translate(159.033203 0)"/>
      </g>
     </g>
    </g>
    <g id="ytick_7">
     <g id="line2d_25">
      <g>
       <use xlink:href="#m21c7f49cc4" x="36.465625" y="305.341411" style="stroke: #000000; stroke-width: 0.8"/>
      </g>
     </g>
     <g id="text_24">
      <!-- 0.01 -->
      <g transform="translate(7.2 309.140629) scale(0.1 -0.1)">
       <use xlink:href="#DejaVuSans-30"/>
       <use xlink:href="#DejaVuSans-2e" transform="translate(63.623047 0)"/>
       <use xlink:href="#DejaVuSans-30" transform="translate(95.410156 0)"/>
       <use xlink:href="#DejaVuSans-31" transform="translate(159.033203 0)"/>
      </g>
     </g>
    </g>
    <g id="ytick_8">
     <g id="line2d_26">
      <g>
       <use xlink:href="#m21c7f49cc4" x="36.465625" y="277.715549" style="stroke: #000000; stroke-width: 0.8"/>
      </g>
     </g>
     <g id="text_25">
      <!-- 0.02 -->
      <g transform="translate(7.2 281.514767) scale(0.1 -0.1)">
       <use xlink:href="#DejaVuSans-30"/>
       <use xlink:href="#DejaVuSans-2e" transform="translate(63.623047 0)"/>
       <use xlink:href="#DejaVuSans-30" transform="translate(95.410156 0)"/>
       <use xlink:href="#DejaVuSans-32" transform="translate(159.033203 0)"/>
      </g>
     </g>
    </g>
    <g id="ytick_9">
     <g id="line2d_27">
      <g>
       <use xlink:href="#m21c7f49cc4" x="36.465625" y="250.089687" style="stroke: #000000; stroke-width: 0.8"/>
      </g>
     </g>
     <g id="text_26">
      <!-- 0.03 -->
      <g transform="translate(7.2 253.888905) scale(0.1 -0.1)">
       <use xlink:href="#DejaVuSans-30"/>
       <use xlink:href="#DejaVuSans-2e" transform="translate(63.623047 0)"/>
       <use xlink:href="#DejaVuSans-30" transform="translate(95.410156 0)"/>
       <use xlink:href="#DejaVuSans-33" transform="translate(159.033203 0)"/>
      </g>
     </g>
    </g>
    <g id="ytick_10">
     <g id="line2d_28">
      <g>
       <use xlink:href="#m21c7f49cc4" x="36.465625" y="222.463824" style="stroke: #000000; stroke-width: 0.8"/>
      </g>
     </g>
     <g id="text_27">
      <!-- 0.04 -->
      <g transform="translate(7.2 226.263043) scale(0.1 -0.1)">
       <use xlink:href="#DejaVuSans-30"/>
       <use xlink:href="#DejaVuSans-2e" transform="translate(63.623047 0)"/>
       <use xlink:href="#DejaVuSans-30" transform="translate(95.410156 0)"/>
       <use xlink:href="#DejaVuSans-34" transform="translate(159.033203 0)"/>
      </g>
     </g>
    </g>
    <g id="ytick_11">
     <g id="line2d_29">
      <g>
       <use xlink:href="#m21c7f49cc4" x="36.465625" y="194.837962" style="stroke: #000000; stroke-width: 0.8"/>
      </g>
     </g>
     <g id="text_28">
      <!-- 0.05 -->
      <g transform="translate(7.2 198.637181) scale(0.1 -0.1)">
       <use xlink:href="#DejaVuSans-30"/>
       <use xlink:href="#DejaVuSans-2e" transform="translate(63.623047 0)"/>
       <use xlink:href="#DejaVuSans-30" transform="translate(95.410156 0)"/>
       <use xlink:href="#DejaVuSans-35" transform="translate(159.033203 0)"/>
      </g>
     </g>
    </g>
   </g>
   <g id="line2d_30">
    <path d="M 66.901989 331.913981 
L 69.289154 332.967273 
L 71.67632 332.967273 
L 74.063486 331.913981 
L 76.450652 331.913981 
L 78.837818 330.86069 
L 81.224983 332.440627 
L 83.612149 330.334044 
L 85.999315 331.913981 
L 88.386481 331.913981 
L 93.160812 330.86069 
L 95.547978 330.86069 
L 97.935144 331.913981 
L 100.322309 331.387335 
L 102.709475 331.913981 
L 105.096641 330.334044 
L 107.483807 331.913981 
L 109.870973 332.440627 
L 112.258138 330.334044 
L 119.419636 331.913981 
L 121.806801 331.387335 
L 126.581133 329.280752 
L 128.968299 330.86069 
L 133.74263 329.807398 
L 136.129796 330.86069 
L 138.516962 330.86069 
L 140.904128 329.807398 
L 143.291293 329.280752 
L 145.678459 329.807398 
L 148.065625 329.807398 
L 150.452791 328.227461 
L 152.839957 330.86069 
L 155.227122 327.700815 
L 157.614288 329.280752 
L 160.001454 329.807398 
L 162.38862 327.700815 
L 164.775785 327.700815 
L 167.162951 329.807398 
L 169.550117 327.700815 
L 171.937283 328.227461 
L 174.324449 329.807398 
L 179.09878 326.647524 
L 181.485946 329.280752 
L 183.873112 324.54094 
L 186.260277 328.227461 
L 188.647443 326.120878 
L 191.034609 322.961003 
L 193.421775 325.067586 
L 195.808941 324.54094 
L 198.196106 321.907712 
L 200.583272 322.434357 
L 202.970438 320.327774 
L 205.357604 323.487649 
L 207.744769 321.381066 
L 210.131935 316.641254 
L 212.519101 321.381066 
L 214.906267 314.534671 
L 217.293432 316.114608 
L 219.680598 311.901442 
L 222.067764 315.587962 
L 224.45493 309.268213 
L 226.842096 310.84815 
L 229.229261 317.1679 
L 231.616427 300.315235 
L 236.390759 307.688276 
L 238.777924 304.528401 
L 241.16509 309.268213 
L 243.552256 311.374796 
L 245.939422 317.1679 
L 248.326588 308.214922 
L 250.713753 309.794859 
L 253.100919 305.055047 
L 255.488085 308.214922 
L 257.875251 302.948464 
L 260.262416 307.16163 
L 262.649582 306.108339 
L 265.036748 298.735298 
L 267.423914 296.102069 
L 269.81108 296.102069 
L 272.198245 297.682006 
L 274.585411 299.788589 
L 276.972577 295.575423 
L 279.359743 294.522132 
L 281.746908 291.888903 
L 284.134074 291.888903 
L 286.52124 287.675737 
L 288.908406 295.048777 
L 291.295572 284.515862 
L 293.682737 289.78232 
L 296.069903 289.255674 
L 298.457069 286.095799 
L 300.844235 291.888903 
L 303.2314 278.722759 
L 305.618566 291.888903 
L 308.005732 287.675737 
L 310.392898 281.355987 
L 312.780064 283.989216 
L 315.167229 281.882633 
L 317.554395 287.675737 
L 319.941561 275.036238 
L 322.328727 275.562884 
L 324.715892 259.763511 
L 327.103058 276.616176 
L 329.490224 272.403009 
L 331.87739 258.183574 
L 334.264555 260.290157 
L 336.651721 265.029969 
L 339.038887 257.130282 
L 341.426053 268.189843 
L 343.813219 265.556614 
L 346.200384 251.863824 
L 348.58755 248.177304 
L 350.974716 259.236865 
L 353.361882 237.644389 
L 355.749047 240.277618 
L 358.136213 239.750972 
L 360.523379 228.164765 
L 362.910545 233.431223 
L 365.297711 222.898307 
L 367.684876 225.531536 
L 370.072042 232.377931 
L 372.459208 214.471975 
L 374.846374 225.531536 
L 377.233539 211.3121 
L 379.620705 208.678871 
L 382.007871 204.465705 
L 384.395037 195.512727 
L 386.782203 204.992351 
L 389.169368 208.678871 
L 391.556534 204.465705 
L 393.9437 210.785455 
L 396.330866 211.3121 
L 398.718031 221.845016 
L 401.105197 232.904577 
L 403.492363 230.797994 
L 405.879529 235.01116 
L 408.266695 230.271348 
L 410.65386 238.69768 
L 413.041026 230.797994 
L 415.428192 236.591097 
L 417.815358 230.797994 
L 420.202523 246.597367 
L 422.589689 243.437492 
L 424.976855 248.177304 
L 427.364021 246.597367 
L 429.751186 246.070721 
L 432.138352 230.271348 
L 434.525518 239.224326 
L 436.912684 240.277618 
L 439.29985 252.39047 
L 441.687015 253.443762 
L 444.074181 252.39047 
L 446.461347 260.816803 
L 448.848513 253.970408 
L 451.235678 269.769781 
L 453.622844 267.136552 
L 456.01001 254.497053 
L 458.397176 265.029969 
L 460.784342 275.036238 
L 463.171507 272.403009 
L 465.558673 272.929655 
L 467.945839 279.249404 
L 470.333005 282.935925 
L 472.72017 280.302696 
L 475.107336 287.675737 
L 477.494502 270.823072 
L 479.881668 287.675737 
L 482.268834 290.308966 
L 484.655999 289.78232 
L 487.043165 290.308966 
L 489.430331 283.989216 
L 491.817497 292.415549 
L 494.204662 289.255674 
L 496.591828 293.995486 
L 498.978994 297.155361 
L 501.36616 288.729028 
L 503.753326 298.735298 
L 506.140491 295.575423 
L 508.527657 304.001755 
L 510.914823 301.895172 
L 513.301989 308.741567 
L 515.689154 302.421818 
L 518.07632 309.268213 
L 520.463486 302.948464 
L 522.850652 308.214922 
L 525.237818 311.374796 
L 527.624983 309.794859 
L 530.012149 306.108339 
L 532.399315 308.214922 
L 534.786481 301.368527 
L 537.173646 309.794859 
L 539.560812 312.428088 
L 541.947978 308.214922 
L 544.335144 318.221191 
L 546.722309 314.008025 
L 549.109475 317.694545 
L 551.496641 319.274483 
L 553.883807 316.114608 
L 556.270973 318.221191 
L 558.658138 312.954734 
L 561.045304 320.85442 
L 563.43247 319.801129 
L 565.819636 320.85442 
L 568.206801 318.221191 
L 570.593967 320.85442 
L 572.981133 315.587962 
L 575.368299 321.907712 
L 577.755465 319.274483 
L 580.14263 321.907712 
L 584.916962 325.067586 
L 587.304128 326.120878 
L 589.691293 324.014295 
L 592.078459 330.86069 
L 594.465625 328.754107 
L 596.852791 328.754107 
L 599.239957 329.280752 
L 601.627122 328.754107 
L 604.014288 327.174169 
L 606.401454 330.334044 
L 608.78862 327.700815 
L 611.175785 330.86069 
L 613.562951 332.440627 
L 615.950117 330.86069 
L 618.337283 327.174169 
L 620.724449 330.86069 
L 625.49878 329.807398 
L 627.885946 328.227461 
L 630.273112 330.334044 
L 632.660277 331.913981 
L 635.047443 330.86069 
L 637.434609 330.334044 
L 639.821775 332.967273 
L 642.208941 332.440627 
L 644.596106 330.86069 
L 646.983272 332.440627 
L 649.370438 332.440627 
L 651.757604 331.387335 
L 654.144769 332.440627 
L 656.531935 330.86069 
L 658.919101 331.913981 
L 661.306267 329.807398 
L 663.693432 329.280752 
L 666.080598 332.440627 
L 668.467764 332.967273 
L 670.85493 331.913981 
L 673.242096 332.440627 
L 675.629261 331.387335 
L 675.629261 331.387335 
" clip-path="url(#pb7281b9942)" style="fill: none; stroke: #000000; stroke-width: 1.5; stroke-linecap: square"/>
   </g>
   <g id="patch_8">
    <path d="M 36.465625 339.84 
L 36.465625 188.64 
" style="fill: none; stroke: #000000; stroke-width: 0.8; stroke-linejoin: miter; stroke-linecap: square"/>
   </g>
   <g id="patch_9">
    <path d="M 706.065625 339.84 
L 706.065625 188.64 
" style="fill: none; stroke: #000000; stroke-width: 0.8; stroke-linejoin: miter; stroke-linecap: square"/>
   </g>
   <g id="patch_10">
    <path d="M 36.465625 339.84 
L 706.065625 339.84 
" style="fill: none; stroke: #000000; stroke-width: 0.8; stroke-linejoin: miter; stroke-linecap: square"/>
   </g>
   <g id="patch_11">
    <path d="M 36.465625 188.64 
L 706.065625 188.64 
" style="fill: none; stroke: #000000; stroke-width: 0.8; stroke-linejoin: miter; stroke-linecap: square"/>
   </g>
  </g>
 </g>
 <defs>
  <clipPath id="p5ce84260bf">
   <rect x="36.465625" y="7.2" width="669.6" height="151.2"/>
  </clipPath>
  <clipPath id="pb7281b9942">
   <rect x="36.465625" y="188.64" width="669.6" height="151.2"/>
  </clipPath>
 </defs>
</svg>
