<?xml version="1.0" encoding="utf-8" standalone="no"?>
<!DOCTYPE svg PUBLIC "-//W3C//DTD SVG 1.1//EN"
  "http://www.w3.org/Graphics/SVG/1.1/DTD/svg11.dtd">
<svg xmlns:xlink="http://www.w3.org/1999/xlink" width="713.265625pt" height="363.718125pt" viewBox="0 0 713.265625 363.718125" xmlns="http://www.w3.org/2000/svg" version="1.1">
 <metadata>
  <rdf:RDF xmlns:dc="http://purl.org/dc/elements/1.1/" xmlns:cc="http://creativecommons.org/ns#" xmlns:rdf="http://www.w3.org/1999/02/22-rdf-syntax-ns#">
   <cc:Work>
    <dc:type rdf:resource="http://purl.org/dc/dcmitype/StillImage"/>
    <dc:date>2025-03-31T18:35:09.699771</dc:date>
    <dc:format>image/svg+xml</dc:format>
    <dc:creator>
     <cc:Agent>
      <dc:title>Matplotlib v3.10.1, https://matplotlib.org/</dc:title>
     </cc:Agent>
    </dc:creator>
   </cc:Work>
  </rdf:RDF>
 </metadata>
 <defs>
  <style type="text/css">*{stroke-linejoin: round; stroke-linecap: butt}</style>
 </defs>
 <g id="figure_1">
  <g id="patch_1">
   <path d="M 0 363.718125 
L 713.265625 363.718125 
L 713.265625 0 
L 0 0 
L 0 363.718125 
z
" style="fill: none"/>
  </g>
  <g id="axes_1">
   <g id="patch_2">
    <path d="M 36.465625 339.84 
L 706.065625 339.84 
L 706.065625 7.2 
L 36.465625 7.2 
L 36.465625 339.84 
z
" style="fill: none"/>
   </g>
   <g id="matplotlib.axis_1">
    <g id="xtick_1">
     <g id="line2d_1">
      <defs>
       <path id="m5422b8c242" d="M 0 0 
L 0 3.5 
" style="stroke: #000000; stroke-width: 0.8"/>
      </defs>
      <g>
       <use xlink:href="#m5422b8c242" x="120.06313" y="339.84" style="stroke: #000000; stroke-width: 0.8"/>
      </g>
     </g>
     <g id="text_1">
      <!-- 20 -->
      <g transform="translate(113.70063 354.438437) scale(0.1 -0.1)">
       <defs>
        <path id="DejaVuSans-32" d="M 1228 531 
L 3431 531 
L 3431 0 
L 469 0 
L 469 531 
Q 828 903 1448 1529 
Q 2069 2156 2228 2338 
Q 2531 2678 2651 2914 
Q 2772 3150 2772 3378 
Q 2772 3750 2511 3984 
Q 2250 4219 1831 4219 
Q 1534 4219 1204 4116 
Q 875 4013 500 3803 
L 500 4441 
Q 881 4594 1212 4672 
Q 1544 4750 1819 4750 
Q 2544 4750 2975 4387 
Q 3406 4025 3406 3419 
Q 3406 3131 3298 2873 
Q 3191 2616 2906 2266 
Q 2828 2175 2409 1742 
Q 1991 1309 1228 531 
z
" transform="scale(0.015625)"/>
        <path id="DejaVuSans-30" d="M 2034 4250 
Q 1547 4250 1301 3770 
Q 1056 3291 1056 2328 
Q 1056 1369 1301 889 
Q 1547 409 2034 409 
Q 2525 409 2770 889 
Q 3016 1369 3016 2328 
Q 3016 3291 2770 3770 
Q 2525 4250 2034 4250 
z
M 2034 4750 
Q 2819 4750 3233 4129 
Q 3647 3509 3647 2328 
Q 3647 1150 3233 529 
Q 2819 -91 2034 -91 
Q 1250 -91 836 529 
Q 422 1150 422 2328 
Q 422 3509 836 4129 
Q 1250 4750 2034 4750 
z
" transform="scale(0.015625)"/>
       </defs>
       <use xlink:href="#DejaVuSans-32"/>
       <use xlink:href="#DejaVuSans-30" transform="translate(63.623047 0)"/>
      </g>
     </g>
    </g>
    <g id="xtick_2">
     <g id="line2d_2">
      <g>
       <use xlink:href="#m5422b8c242" x="228.772577" y="339.84" style="stroke: #000000; stroke-width: 0.8"/>
      </g>
     </g>
     <g id="text_2">
      <!-- 40 -->
      <g transform="translate(222.410077 354.438437) scale(0.1 -0.1)">
       <defs>
        <path id="DejaVuSans-34" d="M 2419 4116 
L 825 1625 
L 2419 1625 
L 2419 4116 
z
M 2253 4666 
L 3047 4666 
L 3047 1625 
L 3713 1625 
L 3713 1100 
L 3047 1100 
L 3047 0 
L 2419 0 
L 2419 1100 
L 313 1100 
L 313 1709 
L 2253 4666 
z
" transform="scale(0.015625)"/>
       </defs>
       <use xlink:href="#DejaVuSans-34"/>
       <use xlink:href="#DejaVuSans-30" transform="translate(63.623047 0)"/>
      </g>
     </g>
    </g>
    <g id="xtick_3">
     <g id="line2d_3">
      <g>
       <use xlink:href="#m5422b8c242" x="337.482023" y="339.84" style="stroke: #000000; stroke-width: 0.8"/>
      </g>
     </g>
     <g id="text_3">
      <!-- 60 -->
      <g transform="translate(331.119523 354.438437) scale(0.1 -0.1)">
       <defs>
        <path id="DejaVuSans-36" d="M 2113 2584 
Q 1688 2584 1439 2293 
Q 1191 2003 1191 1497 
Q 1191 994 1439 701 
Q 1688 409 2113 409 
Q 2538 409 2786 701 
Q 3034 994 3034 1497 
Q 3034 2003 2786 2293 
Q 2538 2584 2113 2584 
z
M 3366 4563 
L 3366 3988 
Q 3128 4100 2886 4159 
Q 2644 4219 2406 4219 
Q 1781 4219 1451 3797 
Q 1122 3375 1075 2522 
Q 1259 2794 1537 2939 
Q 1816 3084 2150 3084 
Q 2853 3084 3261 2657 
Q 3669 2231 3669 1497 
Q 3669 778 3244 343 
Q 2819 -91 2113 -91 
Q 1303 -91 875 529 
Q 447 1150 447 2328 
Q 447 3434 972 4092 
Q 1497 4750 2381 4750 
Q 2619 4750 2861 4703 
Q 3103 4656 3366 4563 
z
" transform="scale(0.015625)"/>
       </defs>
       <use xlink:href="#DejaVuSans-36"/>
       <use xlink:href="#DejaVuSans-30" transform="translate(63.623047 0)"/>
      </g>
     </g>
    </g>
    <g id="xtick_4">
     <g id="line2d_4">
      <g>
       <use xlink:href="#m5422b8c242" x="446.191469" y="339.84" style="stroke: #000000; stroke-width: 0.8"/>
      </g>
     </g>
     <g id="text_4">
      <!-- 80 -->
      <g transform="translate(439.828969 354.438437) scale(0.1 -0.1)">
       <defs>
        <path id="DejaVuSans-38" d="M 2034 2216 
Q 1584 2216 1326 1975 
Q 1069 1734 1069 1313 
Q 1069 891 1326 650 
Q 1584 409 2034 409 
Q 2484 409 2743 651 
Q 3003 894 3003 1313 
Q 3003 1734 2745 1975 
Q 2488 2216 2034 2216 
z
M 1403 2484 
Q 997 2584 770 2862 
Q 544 3141 544 3541 
Q 544 4100 942 4425 
Q 1341 4750 2034 4750 
Q 2731 4750 3128 4425 
Q 3525 4100 3525 3541 
Q 3525 3141 3298 2862 
Q 3072 2584 2669 2484 
Q 3125 2378 3379 2068 
Q 3634 1759 3634 1313 
Q 3634 634 3220 271 
Q 2806 -91 2034 -91 
Q 1263 -91 848 271 
Q 434 634 434 1313 
Q 434 1759 690 2068 
Q 947 2378 1403 2484 
z
M 1172 3481 
Q 1172 3119 1398 2916 
Q 1625 2713 2034 2713 
Q 2441 2713 2670 2916 
Q 2900 3119 2900 3481 
Q 2900 3844 2670 4047 
Q 2441 4250 2034 4250 
Q 1625 4250 1398 4047 
Q 1172 3844 1172 3481 
z
" transform="scale(0.015625)"/>
       </defs>
       <use xlink:href="#DejaVuSans-38"/>
       <use xlink:href="#DejaVuSans-30" transform="translate(63.623047 0)"/>
      </g>
     </g>
    </g>
    <g id="xtick_5">
     <g id="line2d_5">
      <g>
       <use xlink:href="#m5422b8c242" x="554.900916" y="339.84" style="stroke: #000000; stroke-width: 0.8"/>
      </g>
     </g>
     <g id="text_5">
      <!-- 100 -->
      <g transform="translate(545.357166 354.438437) scale(0.1 -0.1)">
       <defs>
        <path id="DejaVuSans-31" d="M 794 531 
L 1825 531 
L 1825 4091 
L 703 3866 
L 703 4441 
L 1819 4666 
L 2450 4666 
L 2450 531 
L 3481 531 
L 3481 0 
L 794 0 
L 794 531 
z
" transform="scale(0.015625)"/>
       </defs>
       <use xlink:href="#DejaVuSans-31"/>
       <use xlink:href="#DejaVuSans-30" transform="translate(63.623047 0)"/>
       <use xlink:href="#DejaVuSans-30" transform="translate(127.246094 0)"/>
      </g>
     </g>
    </g>
    <g id="xtick_6">
     <g id="line2d_6">
      <g>
       <use xlink:href="#m5422b8c242" x="663.610362" y="339.84" style="stroke: #000000; stroke-width: 0.8"/>
      </g>
     </g>
     <g id="text_6">
      <!-- 120 -->
      <g transform="translate(654.066612 354.438437) scale(0.1 -0.1)">
       <use xlink:href="#DejaVuSans-31"/>
       <use xlink:href="#DejaVuSans-32" transform="translate(63.623047 0)"/>
       <use xlink:href="#DejaVuSans-30" transform="translate(127.246094 0)"/>
      </g>
     </g>
    </g>
   </g>
   <g id="matplotlib.axis_2">
    <g id="ytick_1">
     <g id="line2d_7">
      <defs>
       <path id="m2515f47d3d" d="M 0 0 
L -3.5 0 
" style="stroke: #000000; stroke-width: 0.8"/>
      </defs>
      <g>
       <use xlink:href="#m2515f47d3d" x="36.465625" y="324.72" style="stroke: #000000; stroke-width: 0.8"/>
      </g>
     </g>
     <g id="text_7">
      <!-- 0.00 -->
      <g transform="translate(7.2 328.519219) scale(0.1 -0.1)">
       <defs>
        <path id="DejaVuSans-2e" d="M 684 794 
L 1344 794 
L 1344 0 
L 684 0 
L 684 794 
z
" transform="scale(0.015625)"/>
       </defs>
       <use xlink:href="#DejaVuSans-30"/>
       <use xlink:href="#DejaVuSans-2e" transform="translate(63.623047 0)"/>
       <use xlink:href="#DejaVuSans-30" transform="translate(95.410156 0)"/>
       <use xlink:href="#DejaVuSans-30" transform="translate(159.033203 0)"/>
      </g>
     </g>
    </g>
    <g id="ytick_2">
     <g id="line2d_8">
      <g>
       <use xlink:href="#m2515f47d3d" x="36.465625" y="274.026945" style="stroke: #000000; stroke-width: 0.8"/>
      </g>
     </g>
     <g id="text_8">
      <!-- 0.01 -->
      <g transform="translate(7.2 277.826164) scale(0.1 -0.1)">
       <use xlink:href="#DejaVuSans-30"/>
       <use xlink:href="#DejaVuSans-2e" transform="translate(63.623047 0)"/>
       <use xlink:href="#DejaVuSans-30" transform="translate(95.410156 0)"/>
       <use xlink:href="#DejaVuSans-31" transform="translate(159.033203 0)"/>
      </g>
     </g>
    </g>
    <g id="ytick_3">
     <g id="line2d_9">
      <g>
       <use xlink:href="#m2515f47d3d" x="36.465625" y="223.33389" style="stroke: #000000; stroke-width: 0.8"/>
      </g>
     </g>
     <g id="text_9">
      <!-- 0.02 -->
      <g transform="translate(7.2 227.133108) scale(0.1 -0.1)">
       <use xlink:href="#DejaVuSans-30"/>
       <use xlink:href="#DejaVuSans-2e" transform="translate(63.623047 0)"/>
       <use xlink:href="#DejaVuSans-30" transform="translate(95.410156 0)"/>
       <use xlink:href="#DejaVuSans-32" transform="translate(159.033203 0)"/>
      </g>
     </g>
    </g>
    <g id="ytick_4">
     <g id="line2d_10">
      <g>
       <use xlink:href="#m2515f47d3d" x="36.465625" y="172.640835" style="stroke: #000000; stroke-width: 0.8"/>
      </g>
     </g>
     <g id="text_10">
      <!-- 0.03 -->
      <g transform="translate(7.2 176.440053) scale(0.1 -0.1)">
       <defs>
        <path id="DejaVuSans-33" d="M 2597 2516 
Q 3050 2419 3304 2112 
Q 3559 1806 3559 1356 
Q 3559 666 3084 287 
Q 2609 -91 1734 -91 
Q 1441 -91 1130 -33 
Q 819 25 488 141 
L 488 750 
Q 750 597 1062 519 
Q 1375 441 1716 441 
Q 2309 441 2620 675 
Q 2931 909 2931 1356 
Q 2931 1769 2642 2001 
Q 2353 2234 1838 2234 
L 1294 2234 
L 1294 2753 
L 1863 2753 
Q 2328 2753 2575 2939 
Q 2822 3125 2822 3475 
Q 2822 3834 2567 4026 
Q 2313 4219 1838 4219 
Q 1578 4219 1281 4162 
Q 984 4106 628 3988 
L 628 4550 
Q 988 4650 1302 4700 
Q 1616 4750 1894 4750 
Q 2613 4750 3031 4423 
Q 3450 4097 3450 3541 
Q 3450 3153 3228 2886 
Q 3006 2619 2597 2516 
z
" transform="scale(0.015625)"/>
       </defs>
       <use xlink:href="#DejaVuSans-30"/>
       <use xlink:href="#DejaVuSans-2e" transform="translate(63.623047 0)"/>
       <use xlink:href="#DejaVuSans-30" transform="translate(95.410156 0)"/>
       <use xlink:href="#DejaVuSans-33" transform="translate(159.033203 0)"/>
      </g>
     </g>
    </g>
    <g id="ytick_5">
     <g id="line2d_11">
      <g>
       <use xlink:href="#m2515f47d3d" x="36.465625" y="121.947779" style="stroke: #000000; stroke-width: 0.8"/>
      </g>
     </g>
     <g id="text_11">
      <!-- 0.04 -->
      <g transform="translate(7.2 125.746998) scale(0.1 -0.1)">
       <use xlink:href="#DejaVuSans-30"/>
       <use xlink:href="#DejaVuSans-2e" transform="translate(63.623047 0)"/>
       <use xlink:href="#DejaVuSans-30" transform="translate(95.410156 0)"/>
       <use xlink:href="#DejaVuSans-34" transform="translate(159.033203 0)"/>
      </g>
     </g>
    </g>
    <g id="ytick_6">
     <g id="line2d_12">
      <g>
       <use xlink:href="#m2515f47d3d" x="36.465625" y="71.254724" style="stroke: #000000; stroke-width: 0.8"/>
      </g>
     </g>
     <g id="text_12">
      <!-- 0.05 -->
      <g transform="translate(7.2 75.053943) scale(0.1 -0.1)">
       <defs>
        <path id="DejaVuSans-35" d="M 691 4666 
L 3169 4666 
L 3169 4134 
L 1269 4134 
L 1269 2991 
Q 1406 3038 1543 3061 
Q 1681 3084 1819 3084 
Q 2600 3084 3056 2656 
Q 3513 2228 3513 1497 
Q 3513 744 3044 326 
Q 2575 -91 1722 -91 
Q 1428 -91 1123 -41 
Q 819 9 494 109 
L 494 744 
Q 775 591 1075 516 
Q 1375 441 1709 441 
Q 2250 441 2565 725 
Q 2881 1009 2881 1497 
Q 2881 1984 2565 2268 
Q 2250 2553 1709 2553 
Q 1456 2553 1204 2497 
Q 953 2441 691 2322 
L 691 4666 
z
" transform="scale(0.015625)"/>
       </defs>
       <use xlink:href="#DejaVuSans-30"/>
       <use xlink:href="#DejaVuSans-2e" transform="translate(63.623047 0)"/>
       <use xlink:href="#DejaVuSans-30" transform="translate(95.410156 0)"/>
       <use xlink:href="#DejaVuSans-35" transform="translate(159.033203 0)"/>
      </g>
     </g>
    </g>
    <g id="ytick_7">
     <g id="line2d_13">
      <g>
       <use xlink:href="#m2515f47d3d" x="36.465625" y="20.561669" style="stroke: #000000; stroke-width: 0.8"/>
      </g>
     </g>
     <g id="text_13">
      <!-- 0.06 -->
      <g transform="translate(7.2 24.360888) scale(0.1 -0.1)">
       <use xlink:href="#DejaVuSans-30"/>
       <use xlink:href="#DejaVuSans-2e" transform="translate(63.623047 0)"/>
       <use xlink:href="#DejaVuSans-30" transform="translate(95.410156 0)"/>
       <use xlink:href="#DejaVuSans-36" transform="translate(159.033203 0)"/>
      </g>
     </g>
    </g>
   </g>
   <g id="line2d_14">
    <path d="M 66.901989 322.019977 
L 69.289152 324.72 
L 71.676325 322.019982 
L 74.063488 322.019977 
L 76.450652 324.72 
L 78.837815 322.019982 
L 81.224988 324.72 
L 83.612151 316.61993 
L 85.999314 324.72 
L 90.773651 324.72 
L 93.160814 322.019977 
L 95.547977 324.72 
L 97.935146 324.72 
L 100.322314 322.019977 
L 102.709477 324.72 
L 109.870977 324.72 
L 112.25814 322.019977 
L 114.645303 324.72 
L 117.032466 322.019988 
L 119.41964 324.72 
L 121.806803 322.019977 
L 124.193966 322.019977 
L 126.581129 324.72 
L 128.968303 322.019988 
L 131.355466 322.019977 
L 133.742629 324.72 
L 136.129792 322.019988 
L 148.065628 322.019988 
L 150.452792 324.72 
L 160.001454 324.72 
L 162.388618 313.919906 
L 164.775781 319.319953 
L 167.162954 322.019988 
L 169.550117 319.319953 
L 171.937281 319.319953 
L 174.324444 322.019988 
L 176.711617 322.019977 
L 179.09878 316.61993 
L 181.485943 319.319953 
L 183.873107 324.72 
L 186.26028 322.02 
L 188.647443 322.019953 
L 193.421769 316.61993 
L 195.808953 324.72 
L 198.196096 313.919906 
L 200.58328 319.319953 
L 202.970422 319.319953 
L 205.357606 305.819836 
L 207.744769 313.92 
L 210.131932 316.619859 
L 212.519095 316.62 
L 214.906258 322.019977 
L 217.293442 311.219883 
L 219.680585 319.319953 
L 222.067769 319.319953 
L 224.454932 316.62 
L 226.842095 316.619859 
L 231.616421 311.219883 
L 234.003605 313.919906 
L 236.390747 311.219883 
L 238.777931 311.219883 
L 241.165074 308.519859 
L 243.552257 308.519859 
L 245.939421 305.82 
L 248.326584 305.819836 
L 250.713768 311.219883 
L 253.10091 297.719765 
L 255.488094 308.519859 
L 257.875236 303.119812 
L 260.26242 305.819836 
L 262.649563 289.619695 
L 265.036746 281.519625 
L 267.42391 295.02 
L 269.811073 300.419789 
L 272.198257 297.719765 
L 274.585399 278.819601 
L 276.972583 289.619695 
L 279.359725 284.219648 
L 281.746909 281.519625 
L 284.134072 289.62 
L 286.521235 289.619695 
L 288.908419 297.719765 
L 291.295562 292.319719 
L 293.682745 289.619695 
L 298.457072 289.619695 
L 303.231398 273.419554 
L 305.618561 270.72 
L 308.005724 286.919672 
L 310.392908 246.41932 
L 312.78005 268.019508 
L 315.167234 268.019508 
L 317.554377 254.51939 
L 319.941561 251.819367 
L 322.328724 254.52 
L 324.715887 262.619461 
L 327.103071 249.119343 
L 329.490213 249.119343 
L 331.877397 276.119578 
L 334.264539 265.319484 
L 336.651723 222.119109 
L 339.038866 232.919203 
L 343.813213 232.92 
L 346.200376 246.41932 
L 348.58756 208.618992 
L 350.974702 224.819132 
L 353.361886 227.519156 
L 355.749028 214.019038 
L 358.136212 195.118874 
L 360.523396 203.22 
L 362.910538 192.417702 
L 365.297681 216.72 
L 367.684906 187.02 
L 370.072049 127.616576 
L 372.459191 151.916998 
L 374.846333 173.52 
L 377.233559 116.82 
L 379.620701 76.315685 
L 382.007844 81.72 
L 384.395069 62.82 
L 386.782211 76.315685 
L 389.169354 46.615169 
L 391.556496 49.32 
L 393.943721 27.72 
L 396.330864 27.714841 
L 398.718006 22.32 
L 401.105232 68.22 
L 403.492374 95.216013 
L 405.879516 95.216013 
L 408.266659 127.62 
L 410.653884 189.72 
L 413.041026 157.317092 
L 415.428169 181.62 
L 417.815353 149.216951 
L 420.202537 211.32 
L 422.589679 146.516904 
L 424.976821 195.12 
L 427.364047 135.72 
L 429.751189 205.917936 
L 432.138332 211.32 
L 434.525515 195.117749 
L 436.912699 211.32 
L 439.299842 219.418171 
L 441.686984 216.72 
L 444.074168 219.418171 
L 446.461352 230.22 
L 448.848494 230.22 
L 451.235678 216.718124 
L 453.622862 251.82 
L 456.010004 224.818265 
L 460.784331 235.618452 
L 463.171514 246.42 
L 465.558657 276.119156 
L 467.945799 262.62 
L 470.333025 265.32 
L 472.720167 262.618921 
L 475.107309 270.72 
L 479.881677 249.12 
L 482.26882 284.219296 
L 484.655962 273.42 
L 487.043187 286.92 
L 489.43033 292.319437 
L 491.817472 281.52 
L 494.204656 289.61939 
L 496.59184 286.92 
L 498.978982 278.819203 
L 501.366125 308.52 
L 503.75335 311.22 
L 506.140492 286.919343 
L 508.527635 305.82 
L 510.914819 313.919812 
L 513.302002 305.82 
L 515.689145 295.019484 
L 518.076287 297.72 
L 520.463471 303.119625 
L 522.850655 303.12 
L 525.237797 311.22 
L 527.624981 300.419578 
L 530.012165 313.92 
L 532.399308 308.519719 
L 534.78645 316.62 
L 537.173634 303.119625 
L 541.94796 313.919812 
L 544.335102 313.92 
L 546.722328 319.32 
L 553.883796 311.219765 
L 556.27098 316.62 
L 558.658123 308.519719 
L 561.045265 313.92 
L 563.43249 322.02 
L 565.819633 324.72 
L 568.206775 322.02 
L 570.593959 316.619859 
L 572.981143 322.02 
L 575.368285 324.72 
L 577.755428 324.72 
L 580.142653 322.02 
L 582.529796 322.019953 
L 584.916938 319.32 
L 587.304122 324.72 
L 589.691306 322.02 
L 592.078448 324.72 
L 594.46559 324.72 
L 596.852774 322.019953 
L 599.239958 322.02 
L 601.627101 319.32 
L 606.401468 324.72 
L 608.788611 319.319906 
L 611.175753 319.32 
L 613.562937 324.72 
L 615.950121 319.32 
L 620.724406 324.72 
L 623.111631 324.72 
L 625.498773 322.019953 
L 627.885916 324.72 
L 630.2731 322.019953 
L 632.660284 324.72 
L 654.144731 324.72 
L 656.531956 322.02 
L 658.919099 324.72 
L 668.467751 324.72 
L 670.854894 322.02 
L 673.242077 324.72 
L 675.629261 322.02 
L 675.629261 322.02 
" clip-path="url(#p39791ed800)" style="fill: none; stroke: #000000; stroke-width: 1.5; stroke-linecap: square"/>
   </g>
   <g id="patch_3">
    <path d="M 36.465625 339.84 
L 36.465625 7.2 
" style="fill: none; stroke: #000000; stroke-width: 0.8; stroke-linejoin: miter; stroke-linecap: square"/>
   </g>
   <g id="patch_4">
    <path d="M 706.065625 339.84 
L 706.065625 7.2 
" style="fill: none; stroke: #000000; stroke-width: 0.8; stroke-linejoin: miter; stroke-linecap: square"/>
   </g>
   <g id="patch_5">
    <path d="M 36.465625 339.84 
L 706.065625 339.84 
" style="fill: none; stroke: #000000; stroke-width: 0.8; stroke-linejoin: miter; stroke-linecap: square"/>
   </g>
   <g id="patch_6">
    <path d="M 36.465625 7.2 
L 706.065625 7.2 
" style="fill: none; stroke: #000000; stroke-width: 0.8; stroke-linejoin: miter; stroke-linecap: square"/>
   </g>
  </g>
 </g>
 <defs>
  <clipPath id="p39791ed800">
   <rect x="36.465625" y="7.2" width="669.6" height="332.64"/>
  </clipPath>
 </defs>
</svg>
