<?xml version="1.0" encoding="utf-8" standalone="no"?>
<!DOCTYPE svg PUBLIC "-//W3C//DTD SVG 1.1//EN"
  "http://www.w3.org/Graphics/SVG/1.1/DTD/svg11.dtd">
<svg xmlns:xlink="http://www.w3.org/1999/xlink" width="725.990625pt" height="363.718125pt" viewBox="0 0 725.990625 363.718125" xmlns="http://www.w3.org/2000/svg" version="1.1">
 <metadata>
  <rdf:RDF xmlns:dc="http://purl.org/dc/elements/1.1/" xmlns:cc="http://creativecommons.org/ns#" xmlns:rdf="http://www.w3.org/1999/02/22-rdf-syntax-ns#">
   <cc:Work>
    <dc:type rdf:resource="http://purl.org/dc/dcmitype/StillImage"/>
    <dc:date>2025-04-04T23:00:33.588281</dc:date>
    <dc:format>image/svg+xml</dc:format>
    <dc:creator>
     <cc:Agent>
      <dc:title>Matplotlib v3.10.1, https://matplotlib.org/</dc:title>
     </cc:Agent>
    </dc:creator>
   </cc:Work>
  </rdf:RDF>
 </metadata>
 <defs>
  <style type="text/css">*{stroke-linejoin: round; stroke-linecap: butt}</style>
 </defs>
 <g id="figure_1">
  <g id="patch_1">
   <path d="M 0 363.718125 
L 725.990625 363.718125 
L 725.990625 0 
L 0 0 
L 0 363.718125 
z
" style="fill: none"/>
  </g>
  <g id="axes_1">
   <g id="patch_2">
    <path d="M 49.190625 158.4 
L 718.790625 158.4 
L 718.790625 7.2 
L 49.190625 7.2 
L 49.190625 158.4 
z
" style="fill: none"/>
   </g>
   <g id="matplotlib.axis_1">
    <g id="xtick_1">
     <g id="line2d_1">
      <defs>
       <path id="m2bea92aab1" d="M 0 0 
L 0 3.5 
" style="stroke: #000000; stroke-width: 0.8"/>
      </defs>
      <g>
       <use xlink:href="#m2bea92aab1" x="78.433406" y="158.4" style="stroke: #000000; stroke-width: 0.8"/>
      </g>
     </g>
     <g id="text_1">
      <!-- 0 -->
      <g transform="translate(75.252156 172.998437) scale(0.1 -0.1)">
       <defs>
        <path id="DejaVuSans-30" d="M 2034 4250 
Q 1547 4250 1301 3770 
Q 1056 3291 1056 2328 
Q 1056 1369 1301 889 
Q 1547 409 2034 409 
Q 2525 409 2770 889 
Q 3016 1369 3016 2328 
Q 3016 3291 2770 3770 
Q 2525 4250 2034 4250 
z
M 2034 4750 
Q 2819 4750 3233 4129 
Q 3647 3509 3647 2328 
Q 3647 1150 3233 529 
Q 2819 -91 2034 -91 
Q 1250 -91 836 529 
Q 422 1150 422 2328 
Q 422 3509 836 4129 
Q 1250 4750 2034 4750 
z
" transform="scale(0.015625)"/>
       </defs>
       <use xlink:href="#DejaVuSans-30"/>
      </g>
     </g>
    </g>
    <g id="xtick_2">
     <g id="line2d_2">
      <g>
       <use xlink:href="#m2bea92aab1" x="198.259766" y="158.4" style="stroke: #000000; stroke-width: 0.8"/>
      </g>
     </g>
     <g id="text_2">
      <!-- 50 -->
      <g transform="translate(191.897266 172.998437) scale(0.1 -0.1)">
       <defs>
        <path id="DejaVuSans-35" d="M 691 4666 
L 3169 4666 
L 3169 4134 
L 1269 4134 
L 1269 2991 
Q 1406 3038 1543 3061 
Q 1681 3084 1819 3084 
Q 2600 3084 3056 2656 
Q 3513 2228 3513 1497 
Q 3513 744 3044 326 
Q 2575 -91 1722 -91 
Q 1428 -91 1123 -41 
Q 819 9 494 109 
L 494 744 
Q 775 591 1075 516 
Q 1375 441 1709 441 
Q 2250 441 2565 725 
Q 2881 1009 2881 1497 
Q 2881 1984 2565 2268 
Q 2250 2553 1709 2553 
Q 1456 2553 1204 2497 
Q 953 2441 691 2322 
L 691 4666 
z
" transform="scale(0.015625)"/>
       </defs>
       <use xlink:href="#DejaVuSans-35"/>
       <use xlink:href="#DejaVuSans-30" transform="translate(63.623047 0)"/>
      </g>
     </g>
    </g>
    <g id="xtick_3">
     <g id="line2d_3">
      <g>
       <use xlink:href="#m2bea92aab1" x="318.086127" y="158.4" style="stroke: #000000; stroke-width: 0.8"/>
      </g>
     </g>
     <g id="text_3">
      <!-- 100 -->
      <g transform="translate(308.542377 172.998437) scale(0.1 -0.1)">
       <defs>
        <path id="DejaVuSans-31" d="M 794 531 
L 1825 531 
L 1825 4091 
L 703 3866 
L 703 4441 
L 1819 4666 
L 2450 4666 
L 2450 531 
L 3481 531 
L 3481 0 
L 794 0 
L 794 531 
z
" transform="scale(0.015625)"/>
       </defs>
       <use xlink:href="#DejaVuSans-31"/>
       <use xlink:href="#DejaVuSans-30" transform="translate(63.623047 0)"/>
       <use xlink:href="#DejaVuSans-30" transform="translate(127.246094 0)"/>
      </g>
     </g>
    </g>
    <g id="xtick_4">
     <g id="line2d_4">
      <g>
       <use xlink:href="#m2bea92aab1" x="437.912487" y="158.4" style="stroke: #000000; stroke-width: 0.8"/>
      </g>
     </g>
     <g id="text_4">
      <!-- 150 -->
      <g transform="translate(428.368737 172.998437) scale(0.1 -0.1)">
       <use xlink:href="#DejaVuSans-31"/>
       <use xlink:href="#DejaVuSans-35" transform="translate(63.623047 0)"/>
       <use xlink:href="#DejaVuSans-30" transform="translate(127.246094 0)"/>
      </g>
     </g>
    </g>
    <g id="xtick_5">
     <g id="line2d_5">
      <g>
       <use xlink:href="#m2bea92aab1" x="557.738848" y="158.4" style="stroke: #000000; stroke-width: 0.8"/>
      </g>
     </g>
     <g id="text_5">
      <!-- 200 -->
      <g transform="translate(548.195098 172.998437) scale(0.1 -0.1)">
       <defs>
        <path id="DejaVuSans-32" d="M 1228 531 
L 3431 531 
L 3431 0 
L 469 0 
L 469 531 
Q 828 903 1448 1529 
Q 2069 2156 2228 2338 
Q 2531 2678 2651 2914 
Q 2772 3150 2772 3378 
Q 2772 3750 2511 3984 
Q 2250 4219 1831 4219 
Q 1534 4219 1204 4116 
Q 875 4013 500 3803 
L 500 4441 
Q 881 4594 1212 4672 
Q 1544 4750 1819 4750 
Q 2544 4750 2975 4387 
Q 3406 4025 3406 3419 
Q 3406 3131 3298 2873 
Q 3191 2616 2906 2266 
Q 2828 2175 2409 1742 
Q 1991 1309 1228 531 
z
" transform="scale(0.015625)"/>
       </defs>
       <use xlink:href="#DejaVuSans-32"/>
       <use xlink:href="#DejaVuSans-30" transform="translate(63.623047 0)"/>
       <use xlink:href="#DejaVuSans-30" transform="translate(127.246094 0)"/>
      </g>
     </g>
    </g>
    <g id="xtick_6">
     <g id="line2d_6">
      <g>
       <use xlink:href="#m2bea92aab1" x="677.565208" y="158.4" style="stroke: #000000; stroke-width: 0.8"/>
      </g>
     </g>
     <g id="text_6">
      <!-- 250 -->
      <g transform="translate(668.021458 172.998437) scale(0.1 -0.1)">
       <use xlink:href="#DejaVuSans-32"/>
       <use xlink:href="#DejaVuSans-35" transform="translate(63.623047 0)"/>
       <use xlink:href="#DejaVuSans-30" transform="translate(127.246094 0)"/>
      </g>
     </g>
    </g>
   </g>
   <g id="matplotlib.axis_2">
    <g id="ytick_1">
     <g id="line2d_7">
      <defs>
       <path id="m235834e628" d="M 0 0 
L -3.5 0 
" style="stroke: #000000; stroke-width: 0.8"/>
      </defs>
      <g>
       <use xlink:href="#m235834e628" x="49.190625" y="155.78924" style="stroke: #000000; stroke-width: 0.8"/>
      </g>
     </g>
     <g id="text_7">
      <!-- 0.0000 -->
      <g transform="translate(7.2 159.588459) scale(0.1 -0.1)">
       <defs>
        <path id="DejaVuSans-2e" d="M 684 794 
L 1344 794 
L 1344 0 
L 684 0 
L 684 794 
z
" transform="scale(0.015625)"/>
       </defs>
       <use xlink:href="#DejaVuSans-30"/>
       <use xlink:href="#DejaVuSans-2e" transform="translate(63.623047 0)"/>
       <use xlink:href="#DejaVuSans-30" transform="translate(95.410156 0)"/>
       <use xlink:href="#DejaVuSans-30" transform="translate(159.033203 0)"/>
       <use xlink:href="#DejaVuSans-30" transform="translate(222.65625 0)"/>
       <use xlink:href="#DejaVuSans-30" transform="translate(286.279297 0)"/>
      </g>
     </g>
    </g>
    <g id="ytick_2">
     <g id="line2d_8">
      <g>
       <use xlink:href="#m235834e628" x="49.190625" y="129.702117" style="stroke: #000000; stroke-width: 0.8"/>
      </g>
     </g>
     <g id="text_8">
      <!-- 0.0025 -->
      <g transform="translate(7.2 133.501336) scale(0.1 -0.1)">
       <use xlink:href="#DejaVuSans-30"/>
       <use xlink:href="#DejaVuSans-2e" transform="translate(63.623047 0)"/>
       <use xlink:href="#DejaVuSans-30" transform="translate(95.410156 0)"/>
       <use xlink:href="#DejaVuSans-30" transform="translate(159.033203 0)"/>
       <use xlink:href="#DejaVuSans-32" transform="translate(222.65625 0)"/>
       <use xlink:href="#DejaVuSans-35" transform="translate(286.279297 0)"/>
      </g>
     </g>
    </g>
    <g id="ytick_3">
     <g id="line2d_9">
      <g>
       <use xlink:href="#m235834e628" x="49.190625" y="103.614993" style="stroke: #000000; stroke-width: 0.8"/>
      </g>
     </g>
     <g id="text_9">
      <!-- 0.0050 -->
      <g transform="translate(7.2 107.414212) scale(0.1 -0.1)">
       <use xlink:href="#DejaVuSans-30"/>
       <use xlink:href="#DejaVuSans-2e" transform="translate(63.623047 0)"/>
       <use xlink:href="#DejaVuSans-30" transform="translate(95.410156 0)"/>
       <use xlink:href="#DejaVuSans-30" transform="translate(159.033203 0)"/>
       <use xlink:href="#DejaVuSans-35" transform="translate(222.65625 0)"/>
       <use xlink:href="#DejaVuSans-30" transform="translate(286.279297 0)"/>
      </g>
     </g>
    </g>
    <g id="ytick_4">
     <g id="line2d_10">
      <g>
       <use xlink:href="#m235834e628" x="49.190625" y="77.52787" style="stroke: #000000; stroke-width: 0.8"/>
      </g>
     </g>
     <g id="text_10">
      <!-- 0.0075 -->
      <g transform="translate(7.2 81.327089) scale(0.1 -0.1)">
       <defs>
        <path id="DejaVuSans-37" d="M 525 4666 
L 3525 4666 
L 3525 4397 
L 1831 0 
L 1172 0 
L 2766 4134 
L 525 4134 
L 525 4666 
z
" transform="scale(0.015625)"/>
       </defs>
       <use xlink:href="#DejaVuSans-30"/>
       <use xlink:href="#DejaVuSans-2e" transform="translate(63.623047 0)"/>
       <use xlink:href="#DejaVuSans-30" transform="translate(95.410156 0)"/>
       <use xlink:href="#DejaVuSans-30" transform="translate(159.033203 0)"/>
       <use xlink:href="#DejaVuSans-37" transform="translate(222.65625 0)"/>
       <use xlink:href="#DejaVuSans-35" transform="translate(286.279297 0)"/>
      </g>
     </g>
    </g>
    <g id="ytick_5">
     <g id="line2d_11">
      <g>
       <use xlink:href="#m235834e628" x="49.190625" y="51.440746" style="stroke: #000000; stroke-width: 0.8"/>
      </g>
     </g>
     <g id="text_11">
      <!-- 0.0100 -->
      <g transform="translate(7.2 55.239965) scale(0.1 -0.1)">
       <use xlink:href="#DejaVuSans-30"/>
       <use xlink:href="#DejaVuSans-2e" transform="translate(63.623047 0)"/>
       <use xlink:href="#DejaVuSans-30" transform="translate(95.410156 0)"/>
       <use xlink:href="#DejaVuSans-31" transform="translate(159.033203 0)"/>
       <use xlink:href="#DejaVuSans-30" transform="translate(222.65625 0)"/>
       <use xlink:href="#DejaVuSans-30" transform="translate(286.279297 0)"/>
      </g>
     </g>
    </g>
    <g id="ytick_6">
     <g id="line2d_12">
      <g>
       <use xlink:href="#m235834e628" x="49.190625" y="25.353623" style="stroke: #000000; stroke-width: 0.8"/>
      </g>
     </g>
     <g id="text_12">
      <!-- 0.0125 -->
      <g transform="translate(7.2 29.152842) scale(0.1 -0.1)">
       <use xlink:href="#DejaVuSans-30"/>
       <use xlink:href="#DejaVuSans-2e" transform="translate(63.623047 0)"/>
       <use xlink:href="#DejaVuSans-30" transform="translate(95.410156 0)"/>
       <use xlink:href="#DejaVuSans-31" transform="translate(159.033203 0)"/>
       <use xlink:href="#DejaVuSans-32" transform="translate(222.65625 0)"/>
       <use xlink:href="#DejaVuSans-35" transform="translate(286.279297 0)"/>
      </g>
     </g>
    </g>
   </g>
   <g id="line2d_13">
    <path d="M 79.626989 14.072727 
L 82.014154 112.024921 
L 84.40132 116.238181 
L 86.788486 118.040384 
L 89.175652 116.384305 
L 91.562818 116.262535 
L 93.949983 119.038902 
L 98.724315 114.849997 
L 101.111481 115.142246 
L 103.498646 111.757026 
L 105.885812 110.685446 
L 108.272978 110.588029 
L 113.047309 108.615347 
L 115.434475 110.41755 
L 117.821641 106.058166 
L 120.208807 106.37477 
L 122.595973 104.47515 
L 124.983138 101.74749 
L 127.370304 102.599884 
L 129.75747 100.456723 
L 132.144636 100.651556 
L 134.531801 101.991032 
L 136.918967 101.601366 
L 139.306133 100.091412 
L 141.693299 99.579976 
L 144.080465 98.77629 
L 148.854796 94.782218 
L 151.241962 96.657483 
L 153.629128 96.706192 
L 156.016293 93.223555 
L 158.403459 92.83389 
L 160.790625 91.616185 
L 163.177791 91.786663 
L 165.564957 88.279673 
L 167.952122 84.991869 
L 170.339288 82.507751 
L 172.726454 81.947606 
L 175.11362 83.287082 
L 177.500785 81.484879 
L 179.887951 80.169757 
L 182.275117 82.215502 
L 184.662283 79.463488 
L 187.049449 76.078268 
L 189.436614 78.245783 
L 191.82378 82.020669 
L 194.210946 80.242819 
L 196.598112 81.387462 
L 198.985277 83.019187 
L 201.372443 85.600722 
L 203.759609 85.941679 
L 206.146775 82.045023 
L 210.921106 86.964551 
L 213.308272 86.818427 
L 220.469769 87.573404 
L 222.856935 92.322453 
L 225.244101 92.760827 
L 227.631267 97.266336 
L 232.405598 95.439778 
L 234.792764 98.021313 
L 237.17993 98.703228 
L 239.567096 102.867779 
L 241.954261 103.915005 
L 244.341427 105.717209 
L 246.728593 105.912042 
L 249.115759 107.470704 
L 251.502924 107.105393 
L 253.89009 108.298744 
L 256.277256 111.318652 
L 258.664422 109.053721 
L 261.051588 110.441905 
L 263.438753 111.537839 
L 265.825919 111.65961 
L 268.213085 114.338561 
L 270.600251 112.585065 
L 272.987416 113.973249 
L 275.374582 114.314207 
L 277.761748 113.948895 
L 280.148914 115.1666 
L 282.53608 115.434495 
L 284.923245 116.092056 
L 287.310411 115.361433 
L 289.697577 117.212345 
L 292.084743 116.700908 
L 294.471908 117.114928 
L 296.859074 114.484685 
L 301.633406 118.259571 
L 306.407737 116.993158 
L 308.794903 117.18799 
L 311.182069 117.261053 
L 313.569235 117.845551 
L 315.9564 117.967322 
L 318.343566 117.60201 
L 320.730732 118.576174 
L 323.117898 117.358469 
L 325.505064 116.700908 
L 327.892229 119.404214 
L 330.279395 118.892778 
L 332.666561 116.798325 
L 335.053727 115.458849 
L 337.440892 117.48024 
L 339.828058 116.798325 
L 342.215224 115.848515 
L 344.60239 117.041866 
L 346.989555 115.99464 
L 349.376721 115.99464 
L 351.763887 116.676554 
L 354.151053 113.875833 
L 356.538219 115.653682 
L 358.925384 115.99464 
L 361.31255 117.407177 
L 363.699716 116.311243 
L 366.086882 119.355505 
L 368.474047 117.48024 
L 370.861213 120.621919 
L 373.248379 119.404214 
L 375.635545 121.961394 
L 378.022711 122.253643 
L 380.409876 121.596083 
L 382.797042 122.813788 
L 385.184208 122.277998 
L 387.571374 121.352542 
L 389.958539 122.448476 
L 392.345705 122.862496 
L 394.732871 123.83666 
L 397.120037 124.591637 
L 399.507203 122.959912 
L 401.894368 124.007139 
L 404.281534 124.153263 
L 406.6687 124.055847 
L 409.055866 124.080201 
L 413.830197 123.520057 
L 416.217363 124.031493 
L 418.604529 122.253643 
L 420.991695 124.323742 
L 423.37886 123.42264 
L 425.766026 123.885368 
L 428.153192 124.226326 
L 430.540358 125.370968 
L 432.927523 123.641827 
L 435.314689 122.545893 
L 437.701855 124.494221 
L 440.089021 122.935558 
L 442.476186 122.326706 
L 444.863352 122.911204 
L 447.250518 122.375414 
L 449.637684 120.98723 
L 452.02485 122.326706 
L 454.412015 123.032975 
L 456.799181 121.644791 
L 459.186347 120.597565 
L 461.573513 121.93704 
L 463.960678 121.985748 
L 466.347844 121.52302 
L 468.73501 121.790916 
L 471.122176 119.063256 
L 473.509342 113.997603 
L 475.896507 112.804252 
L 478.283673 110.29578 
L 480.670839 109.175491 
L 483.058005 109.638219 
L 485.44517 106.228645 
L 487.832336 104.59692 
L 490.219502 102.088448 
L 492.606668 101.771845 
L 494.993834 102.940841 
L 497.380999 100.627202 
L 499.768165 100.042703 
L 502.155331 98.094375 
L 504.542497 96.949733 
L 506.929662 100.115766 
L 509.316828 99.141602 
L 514.09116 100.627202 
L 516.478326 100.067058 
L 518.865491 98.070021 
L 521.252657 102.478114 
L 523.639823 98.824998 
L 526.026989 101.552658 
L 528.414154 100.846389 
L 530.80132 103.695819 
L 533.188486 109.492095 
L 535.575652 113.096502 
L 537.962818 116.092056 
L 540.349983 115.239662 
L 542.737149 117.869905 
L 545.124315 114.825643 
L 547.511481 117.06622 
L 549.898646 121.742207 
L 552.285812 121.109001 
L 554.672978 119.940004 
L 557.060144 118.235217 
L 559.447309 117.869905 
L 561.834475 118.722299 
L 564.221641 117.918613 
L 566.608807 120.03742 
L 568.995973 119.404214 
L 571.383138 121.717853 
L 573.770304 123.057329 
L 576.15747 122.253643 
L 578.544636 127.538483 
L 580.931801 126.393841 
L 583.318967 128.683126 
L 588.093299 129.267625 
L 590.480465 130.022602 
L 592.86763 130.095664 
L 595.254796 133.04251 
L 597.641962 135.185671 
L 600.029128 134.82036 
L 602.416293 134.82036 
L 604.803459 136.232897 
L 607.190625 136.379022 
L 609.577791 138.400412 
L 611.964957 138.546537 
L 614.352122 140.22697 
L 619.126454 141.347259 
L 621.51362 142.589318 
L 623.900785 142.053527 
L 626.287951 143.19817 
L 628.675117 141.809986 
L 631.062283 142.540609 
L 633.449449 143.052046 
L 635.836614 143.73396 
L 638.22378 143.782669 
L 640.610946 144.562 
L 642.998112 143.977501 
L 645.385277 144.415875 
L 647.772443 144.440229 
L 650.159609 145.073436 
L 652.546775 145.365685 
L 654.933941 144.854249 
L 657.321106 146.388557 
L 659.708272 146.388557 
L 662.095438 146.99741 
L 664.482604 147.460138 
L 666.869769 148.117699 
L 669.256935 147.630617 
L 671.644101 149.067509 
L 674.031267 149.457174 
L 676.418432 149.043154 
L 678.805598 149.237987 
L 681.192764 150.626171 
L 683.57993 151.527273 
L 685.967096 151.283732 
L 688.354261 136.646917 
L 688.354261 136.646917 
" clip-path="url(#p55d2c8f389)" style="fill: none; stroke: #000000; stroke-width: 1.5; stroke-linecap: square"/>
   </g>
   <g id="patch_3">
    <path d="M 49.190625 158.4 
L 49.190625 7.2 
" style="fill: none; stroke: #000000; stroke-width: 0.8; stroke-linejoin: miter; stroke-linecap: square"/>
   </g>
   <g id="patch_4">
    <path d="M 718.790625 158.4 
L 718.790625 7.2 
" style="fill: none; stroke: #000000; stroke-width: 0.8; stroke-linejoin: miter; stroke-linecap: square"/>
   </g>
   <g id="patch_5">
    <path d="M 49.190625 158.4 
L 718.790625 158.4 
" style="fill: none; stroke: #000000; stroke-width: 0.8; stroke-linejoin: miter; stroke-linecap: square"/>
   </g>
   <g id="patch_6">
    <path d="M 49.190625 7.2 
L 718.790625 7.2 
" style="fill: none; stroke: #000000; stroke-width: 0.8; stroke-linejoin: miter; stroke-linecap: square"/>
   </g>
  </g>
  <g id="axes_2">
   <g id="patch_7">
    <path d="M 49.190625 339.84 
L 718.790625 339.84 
L 718.790625 188.64 
L 49.190625 188.64 
L 49.190625 339.84 
z
" style="fill: none"/>
   </g>
   <g id="matplotlib.axis_3">
    <g id="xtick_7">
     <g id="line2d_14">
      <g>
       <use xlink:href="#m2bea92aab1" x="78.433406" y="339.84" style="stroke: #000000; stroke-width: 0.8"/>
      </g>
     </g>
     <g id="text_13">
      <!-- 0 -->
      <g transform="translate(75.252156 354.438437) scale(0.1 -0.1)">
       <use xlink:href="#DejaVuSans-30"/>
      </g>
     </g>
    </g>
    <g id="xtick_8">
     <g id="line2d_15">
      <g>
       <use xlink:href="#m2bea92aab1" x="198.259766" y="339.84" style="stroke: #000000; stroke-width: 0.8"/>
      </g>
     </g>
     <g id="text_14">
      <!-- 50 -->
      <g transform="translate(191.897266 354.438437) scale(0.1 -0.1)">
       <use xlink:href="#DejaVuSans-35"/>
       <use xlink:href="#DejaVuSans-30" transform="translate(63.623047 0)"/>
      </g>
     </g>
    </g>
    <g id="xtick_9">
     <g id="line2d_16">
      <g>
       <use xlink:href="#m2bea92aab1" x="318.086127" y="339.84" style="stroke: #000000; stroke-width: 0.8"/>
      </g>
     </g>
     <g id="text_15">
      <!-- 100 -->
      <g transform="translate(308.542377 354.438437) scale(0.1 -0.1)">
       <use xlink:href="#DejaVuSans-31"/>
       <use xlink:href="#DejaVuSans-30" transform="translate(63.623047 0)"/>
       <use xlink:href="#DejaVuSans-30" transform="translate(127.246094 0)"/>
      </g>
     </g>
    </g>
    <g id="xtick_10">
     <g id="line2d_17">
      <g>
       <use xlink:href="#m2bea92aab1" x="437.912487" y="339.84" style="stroke: #000000; stroke-width: 0.8"/>
      </g>
     </g>
     <g id="text_16">
      <!-- 150 -->
      <g transform="translate(428.368737 354.438437) scale(0.1 -0.1)">
       <use xlink:href="#DejaVuSans-31"/>
       <use xlink:href="#DejaVuSans-35" transform="translate(63.623047 0)"/>
       <use xlink:href="#DejaVuSans-30" transform="translate(127.246094 0)"/>
      </g>
     </g>
    </g>
    <g id="xtick_11">
     <g id="line2d_18">
      <g>
       <use xlink:href="#m2bea92aab1" x="557.738848" y="339.84" style="stroke: #000000; stroke-width: 0.8"/>
      </g>
     </g>
     <g id="text_17">
      <!-- 200 -->
      <g transform="translate(548.195098 354.438437) scale(0.1 -0.1)">
       <use xlink:href="#DejaVuSans-32"/>
       <use xlink:href="#DejaVuSans-30" transform="translate(63.623047 0)"/>
       <use xlink:href="#DejaVuSans-30" transform="translate(127.246094 0)"/>
      </g>
     </g>
    </g>
    <g id="xtick_12">
     <g id="line2d_19">
      <g>
       <use xlink:href="#m2bea92aab1" x="677.565208" y="339.84" style="stroke: #000000; stroke-width: 0.8"/>
      </g>
     </g>
     <g id="text_18">
      <!-- 250 -->
      <g transform="translate(668.021458 354.438437) scale(0.1 -0.1)">
       <use xlink:href="#DejaVuSans-32"/>
       <use xlink:href="#DejaVuSans-35" transform="translate(63.623047 0)"/>
       <use xlink:href="#DejaVuSans-30" transform="translate(127.246094 0)"/>
      </g>
     </g>
    </g>
   </g>
   <g id="matplotlib.axis_4">
    <g id="ytick_7">
     <g id="line2d_20">
      <g>
       <use xlink:href="#m235834e628" x="49.190625" y="335.671297" style="stroke: #000000; stroke-width: 0.8"/>
      </g>
     </g>
     <g id="text_19">
      <!-- 0.000 -->
      <g transform="translate(13.5625 339.470515) scale(0.1 -0.1)">
       <use xlink:href="#DejaVuSans-30"/>
       <use xlink:href="#DejaVuSans-2e" transform="translate(63.623047 0)"/>
       <use xlink:href="#DejaVuSans-30" transform="translate(95.410156 0)"/>
       <use xlink:href="#DejaVuSans-30" transform="translate(159.033203 0)"/>
       <use xlink:href="#DejaVuSans-30" transform="translate(222.65625 0)"/>
      </g>
     </g>
    </g>
    <g id="ytick_8">
     <g id="line2d_21">
      <g>
       <use xlink:href="#m235834e628" x="49.190625" y="301.886314" style="stroke: #000000; stroke-width: 0.8"/>
      </g>
     </g>
     <g id="text_20">
      <!-- 0.005 -->
      <g transform="translate(13.5625 305.685533) scale(0.1 -0.1)">
       <use xlink:href="#DejaVuSans-30"/>
       <use xlink:href="#DejaVuSans-2e" transform="translate(63.623047 0)"/>
       <use xlink:href="#DejaVuSans-30" transform="translate(95.410156 0)"/>
       <use xlink:href="#DejaVuSans-30" transform="translate(159.033203 0)"/>
       <use xlink:href="#DejaVuSans-35" transform="translate(222.65625 0)"/>
      </g>
     </g>
    </g>
    <g id="ytick_9">
     <g id="line2d_22">
      <g>
       <use xlink:href="#m235834e628" x="49.190625" y="268.101332" style="stroke: #000000; stroke-width: 0.8"/>
      </g>
     </g>
     <g id="text_21">
      <!-- 0.010 -->
      <g transform="translate(13.5625 271.900551) scale(0.1 -0.1)">
       <use xlink:href="#DejaVuSans-30"/>
       <use xlink:href="#DejaVuSans-2e" transform="translate(63.623047 0)"/>
       <use xlink:href="#DejaVuSans-30" transform="translate(95.410156 0)"/>
       <use xlink:href="#DejaVuSans-31" transform="translate(159.033203 0)"/>
       <use xlink:href="#DejaVuSans-30" transform="translate(222.65625 0)"/>
      </g>
     </g>
    </g>
    <g id="ytick_10">
     <g id="line2d_23">
      <g>
       <use xlink:href="#m235834e628" x="49.190625" y="234.31635" style="stroke: #000000; stroke-width: 0.8"/>
      </g>
     </g>
     <g id="text_22">
      <!-- 0.015 -->
      <g transform="translate(13.5625 238.115568) scale(0.1 -0.1)">
       <use xlink:href="#DejaVuSans-30"/>
       <use xlink:href="#DejaVuSans-2e" transform="translate(63.623047 0)"/>
       <use xlink:href="#DejaVuSans-30" transform="translate(95.410156 0)"/>
       <use xlink:href="#DejaVuSans-31" transform="translate(159.033203 0)"/>
       <use xlink:href="#DejaVuSans-35" transform="translate(222.65625 0)"/>
      </g>
     </g>
    </g>
    <g id="ytick_11">
     <g id="line2d_24">
      <g>
       <use xlink:href="#m235834e628" x="49.190625" y="200.531367" style="stroke: #000000; stroke-width: 0.8"/>
      </g>
     </g>
     <g id="text_23">
      <!-- 0.020 -->
      <g transform="translate(13.5625 204.330586) scale(0.1 -0.1)">
       <use xlink:href="#DejaVuSans-30"/>
       <use xlink:href="#DejaVuSans-2e" transform="translate(63.623047 0)"/>
       <use xlink:href="#DejaVuSans-30" transform="translate(95.410156 0)"/>
       <use xlink:href="#DejaVuSans-32" transform="translate(159.033203 0)"/>
       <use xlink:href="#DejaVuSans-30" transform="translate(222.65625 0)"/>
      </g>
     </g>
    </g>
   </g>
   <g id="line2d_25">
    <path d="M 79.626989 195.512727 
L 82.014154 332.516602 
L 84.40132 330.263249 
L 86.788486 332.516602 
L 89.175652 330.71392 
L 91.562818 332.065931 
L 93.949983 331.615261 
L 96.337149 329.812578 
L 98.724315 328.460566 
L 101.111481 328.911237 
L 103.498646 327.559225 
L 105.885812 330.71392 
L 108.272978 330.263249 
L 110.660144 329.361908 
L 113.047309 329.812578 
L 115.434475 328.009896 
L 117.821641 332.967273 
L 120.208807 328.460566 
L 122.595973 325.756542 
L 124.983138 329.812578 
L 127.370304 327.108554 
L 129.75747 328.460566 
L 132.144636 328.460566 
L 136.918967 326.657884 
L 139.306133 328.009896 
L 141.693299 326.207213 
L 144.080465 328.009896 
L 146.46763 321.249836 
L 148.854796 324.404531 
L 151.241962 321.700507 
L 153.629128 324.855201 
L 156.016293 326.207213 
L 158.403459 327.108554 
L 160.790625 326.657884 
L 163.177791 324.404531 
L 165.564957 320.799165 
L 167.952122 325.756542 
L 170.339288 324.404531 
L 175.11362 322.601848 
L 177.500785 324.855201 
L 179.887951 320.799165 
L 182.275117 320.799165 
L 184.662283 323.95386 
L 187.049449 318.545812 
L 189.436614 321.700507 
L 191.82378 320.799165 
L 194.210946 321.249836 
L 196.598112 323.95386 
L 198.985277 316.74313 
L 201.372443 320.348495 
L 203.759609 322.601848 
L 206.146775 323.95386 
L 208.533941 326.657884 
L 210.921106 316.74313 
L 213.308272 320.799165 
L 215.695438 319.447154 
L 218.082604 314.940447 
L 220.469769 315.841788 
L 222.856935 315.391118 
L 225.244101 316.74313 
L 227.631267 311.785753 
L 230.018432 316.292459 
L 232.405598 316.74313 
L 234.792764 312.236423 
L 237.17993 309.532399 
L 239.567096 310.884411 
L 241.954261 308.631058 
L 244.341427 307.279046 
L 246.728593 305.476364 
L 249.115759 306.828376 
L 251.502924 311.335082 
L 253.89009 306.828376 
L 256.277256 299.617645 
L 258.664422 301.870999 
L 261.051588 303.22301 
L 263.438753 296.01228 
L 265.825919 291.956244 
L 268.213085 301.420328 
L 270.600251 297.364292 
L 272.987416 288.350879 
L 275.374582 288.80155 
L 277.761748 290.604232 
L 280.148914 287.900209 
L 282.53608 287.900209 
L 284.923245 294.209598 
L 287.310411 286.097526 
L 289.697577 297.814963 
L 292.084743 286.097526 
L 294.471908 284.745514 
L 296.859074 285.196185 
L 299.24624 289.702891 
L 301.633406 283.393502 
L 304.020572 278.886796 
L 306.407737 279.788137 
L 308.794903 276.633443 
L 311.182069 263.563994 
L 313.569235 278.886796 
L 315.9564 274.380089 
L 318.343566 280.238808 
L 320.730732 288.80155 
L 323.117898 285.646855 
L 325.505064 280.238808 
L 327.892229 280.689478 
L 330.279395 289.702891 
L 332.666561 289.252221 
L 335.053727 278.886796 
L 337.440892 277.084113 
L 339.828058 284.745514 
L 342.215224 276.182772 
L 344.60239 282.04149 
L 346.989555 279.788137 
L 349.376721 288.80155 
L 351.763887 282.04149 
L 354.151053 293.758927 
L 356.538219 284.745514 
L 358.925384 284.294844 
L 361.31255 282.492161 
L 363.699716 279.337466 
L 366.086882 282.04149 
L 368.474047 275.732101 
L 370.861213 279.337466 
L 373.248379 282.04149 
L 375.635545 287.900209 
L 378.022711 279.788137 
L 380.409876 282.942832 
L 382.797042 283.393502 
L 385.184208 281.59082 
L 387.571374 275.281431 
L 389.958539 282.942832 
L 392.345705 285.196185 
L 394.732871 281.59082 
L 397.120037 288.80155 
L 399.507203 292.857586 
L 401.894368 281.59082 
L 404.281534 282.04149 
L 406.6687 289.702891 
L 409.055866 294.209598 
L 411.443031 296.01228 
L 413.830197 284.294844 
L 416.217363 303.673681 
L 418.604529 288.350879 
L 420.991695 297.814963 
L 423.37886 291.956244 
L 425.766026 296.01228 
L 430.540358 299.617645 
L 432.927523 291.956244 
L 435.314689 298.265633 
L 437.701855 293.308256 
L 440.089021 287.900209 
L 442.476186 296.462951 
L 444.863352 299.617645 
L 447.250518 295.110939 
L 449.637684 291.505574 
L 452.02485 297.364292 
L 454.412015 297.814963 
L 456.799181 304.575022 
L 459.186347 298.265633 
L 461.573513 298.716304 
L 463.960678 300.969657 
L 466.347844 299.617645 
L 468.73501 302.77234 
L 471.122176 306.828376 
L 473.509342 304.575022 
L 475.896507 300.518987 
L 478.283673 301.420328 
L 480.670839 303.22301 
L 483.058005 311.785753 
L 485.44517 307.279046 
L 487.832336 308.180387 
L 490.219502 309.98307 
L 492.606668 308.631058 
L 494.993834 311.785753 
L 497.380999 303.673681 
L 499.768165 305.025693 
L 502.155331 308.631058 
L 504.542497 314.039106 
L 506.929662 309.081729 
L 509.316828 309.98307 
L 511.703994 321.249836 
L 514.09116 318.095142 
L 518.865491 309.081729 
L 521.252657 316.292459 
L 523.639823 309.532399 
L 526.026989 317.644471 
L 528.414154 317.1938 
L 530.80132 316.292459 
L 533.188486 320.799165 
L 535.575652 317.644471 
L 537.962818 323.503189 
L 540.349983 323.052519 
L 542.737149 321.249836 
L 545.124315 320.348495 
L 547.511481 322.601848 
L 549.898646 321.249836 
L 552.285812 321.249836 
L 554.672978 323.052519 
L 557.060144 320.799165 
L 559.447309 322.151177 
L 561.834475 322.601848 
L 564.221641 316.292459 
L 566.608807 319.447154 
L 568.995973 322.151177 
L 571.383138 321.249836 
L 573.770304 326.657884 
L 576.15747 323.052519 
L 578.544636 325.305872 
L 580.931801 320.348495 
L 583.318967 320.348495 
L 585.706133 327.559225 
L 588.093299 322.151177 
L 590.480465 323.052519 
L 592.86763 323.503189 
L 595.254796 325.305872 
L 597.641962 325.756542 
L 600.029128 323.503189 
L 602.416293 324.404531 
L 604.803459 322.151177 
L 607.190625 327.108554 
L 609.577791 326.207213 
L 611.964957 328.460566 
L 614.352122 327.108554 
L 616.739288 328.460566 
L 619.126454 322.601848 
L 621.51362 326.657884 
L 623.900785 324.855201 
L 626.287951 325.305872 
L 628.675117 328.009896 
L 631.062283 329.812578 
L 633.449449 327.108554 
L 635.836614 329.361908 
L 638.22378 328.911237 
L 640.610946 327.559225 
L 642.998112 326.657884 
L 645.385277 329.812578 
L 647.772443 331.16459 
L 650.159609 328.460566 
L 652.546775 330.263249 
L 654.933941 330.263249 
L 657.321106 328.460566 
L 659.708272 330.263249 
L 662.095438 332.516602 
L 664.482604 331.16459 
L 666.869769 330.71392 
L 669.256935 331.16459 
L 671.644101 329.361908 
L 674.031267 332.516602 
L 676.418432 329.812578 
L 678.805598 331.16459 
L 681.192764 331.16459 
L 683.57993 330.71392 
L 685.967096 327.559225 
L 688.354261 199.568763 
L 688.354261 199.568763 
" clip-path="url(#p6180d3f50f)" style="fill: none; stroke: #000000; stroke-width: 1.5; stroke-linecap: square"/>
   </g>
   <g id="patch_8">
    <path d="M 49.190625 339.84 
L 49.190625 188.64 
" style="fill: none; stroke: #000000; stroke-width: 0.8; stroke-linejoin: miter; stroke-linecap: square"/>
   </g>
   <g id="patch_9">
    <path d="M 718.790625 339.84 
L 718.790625 188.64 
" style="fill: none; stroke: #000000; stroke-width: 0.8; stroke-linejoin: miter; stroke-linecap: square"/>
   </g>
   <g id="patch_10">
    <path d="M 49.190625 339.84 
L 718.790625 339.84 
" style="fill: none; stroke: #000000; stroke-width: 0.8; stroke-linejoin: miter; stroke-linecap: square"/>
   </g>
   <g id="patch_11">
    <path d="M 49.190625 188.64 
L 718.790625 188.64 
" style="fill: none; stroke: #000000; stroke-width: 0.8; stroke-linejoin: miter; stroke-linecap: square"/>
   </g>
  </g>
 </g>
 <defs>
  <clipPath id="p55d2c8f389">
   <rect x="49.190625" y="7.2" width="669.6" height="151.2"/>
  </clipPath>
  <clipPath id="p6180d3f50f">
   <rect x="49.190625" y="188.64" width="669.6" height="151.2"/>
  </clipPath>
 </defs>
</svg>
